<svg width="320" height="150" viewBox="0 0 320 150" fill="none" xmlns="http://www.w3.org/2000/svg">
<g clip-path="url(#clip0_1168_191)">
<path d="M62.1413 69.0616L69.7021 69.9438C79.1498 71.0677 88.681 74.0377 88.681 84.7906C88.681 92.9754 83.0941 101 62.9643 101C42.8345 101 37.2475 91.5312 37 82.7028H49.9002C50.1477 88.0808 54.8314 89.7636 62.9643 89.7636C71.0972 89.7636 75.7809 88.7998 75.7809 85.271C75.7809 81.7421 71.1808 81.0985 65.2627 80.5366L59.1839 79.9746C49.2412 79.0924 38.6427 76.8445 38.6427 64.2455C38.6427 55.8222 45.5444 49 63.2118 49C79.0694 49 87.2859 55.7406 87.6974 66.6536H74.7972C74.3857 61.3572 70.6054 59.9946 62.8839 59.9946C55.1625 59.9946 51.546 61.2787 51.546 64.1671C51.546 67.5358 56.1461 68.3395 62.1446 69.0616H62.1413Z" fill="#141414"/>
<path d="M143.156 67.5364C143.156 78.531 134.036 85.0299 123.437 85.0299H106.921V99.9552H94.0205V50.043H123.437C134.036 50.043 143.156 56.5418 143.156 67.5364ZM122.45 73.6365C124.916 73.6365 130.667 72.9929 130.667 67.5364C130.667 62.0799 124.916 61.4395 122.45 61.4395H106.921V73.6365H122.45Z" fill="#141414"/>
<path d="M158.602 50.043L168.461 92.976L180.374 50.043H193.686L205.599 92.976L215.462 50.043H228.609L217.188 99.9552H195.168L187.035 70.8266L178.982 99.9552H156.962L145.454 50.043H158.602Z" fill="#141414"/>
<path d="M282.177 66.9744C282.177 74.6788 277.493 80.1353 270.92 82.5434L282.997 99.9583H268.043L256.869 83.8274H245.611V99.9583H232.711V50.043H263.031C273.302 50.043 282.174 56.3817 282.174 66.9744H282.177ZM262.047 72.5126C264.349 72.5126 269.605 72.0322 269.605 66.9744C269.605 61.9167 264.346 61.4395 262.047 61.4395H245.614V72.5126H262.047Z" fill="#141414"/>
</g>
<defs>
<clipPath id="clip0_1168_191">
<rect width="246" height="52" fill="white" transform="translate(37 49)"/>
</clipPath>
</defs>
</svg>
