<svg width="269" height="150" viewBox="0 0 269 150" fill="none" xmlns="http://www.w3.org/2000/svg">
<path d="M51.8454 52.8621C51.9799 52.8261 52.0785 52.7422 52.1562 52.6312C52.2728 52.4662 52.4402 52.3701 52.6285 52.3371C52.9543 52.2801 53.28 52.2442 53.6208 52.0492C53.4594 52.3552 53.1814 52.4182 52.9901 52.5832C51.6929 53.6992 50.4316 54.8511 49.5619 56.3451C48.6174 57.9681 47.912 59.6992 47.6878 61.5681C47.5264 62.9241 47.5055 64.3132 47.6998 65.6662C47.909 67.1481 48.3872 68.5732 49.0538 69.9321C49.7741 71.4022 50.6917 72.7222 51.9111 73.8142C53.4504 75.1882 55.187 76.2561 57.1925 76.8081C58.1161 77.0631 59.0635 77.2401 60.0379 77.2701C61.4995 77.3121 62.9611 77.3001 64.4107 77.1502C66.0247 76.9821 67.543 76.4781 68.9448 75.6411C70.517 74.6992 71.7843 73.4242 72.9111 72.0052C73.6852 71.0302 74.2979 69.9591 74.7791 68.8131C75.2633 67.6581 75.6668 66.4792 75.7386 65.2132C75.7595 64.8052 75.882 64.4122 75.879 63.9982C75.8701 62.7592 75.7446 61.5412 75.4247 60.3322C75.2783 59.7772 74.9465 59.2581 75.0153 58.6521C75.0242 58.5681 75.0302 58.4841 75.0452 58.2951C75.9448 59.2311 75.9388 60.4972 76.5695 61.4572C76.4141 59.8822 75.8521 58.4272 75.2394 56.9842C75.4576 57.1162 75.5861 57.3232 75.6908 57.5302C76.2228 58.5772 76.5725 59.6842 76.8744 60.8212C77.2031 62.0572 77.233 63.2901 77.1882 64.5351C77.1135 66.7221 76.5127 68.7711 75.4128 70.6701C75.362 70.7571 75.3052 70.8502 75.2813 70.9462C75.0511 71.9182 74.4264 72.6501 73.7689 73.3491C72.66 74.5281 71.5212 75.6831 70.0746 76.4631C69.4499 76.8021 68.8103 77.1021 68.102 77.2732C67.5938 77.3932 67.1126 77.6331 66.5836 77.7951C66.9363 77.9091 67.2382 78.0952 67.5849 78.1762C67.6237 78.1852 67.6745 78.1761 67.7134 78.1581C69.3095 77.4591 70.9324 76.8021 72.3611 75.7881C73.0844 75.2751 73.7121 74.6481 74.2621 73.9341C75.1199 72.8211 75.8761 71.6541 76.4798 70.3881C77.1224 69.0411 77.5738 67.6372 77.8159 66.1642C77.9504 65.3452 78.1147 64.5321 78.0789 63.6951C78.0789 63.6411 78.0789 63.5781 78.1476 63.5511C78.1745 63.5571 78.2164 63.5571 78.2223 63.5691C78.5182 64.6461 78.9606 65.6511 78.6737 66.8661C78.3359 68.2822 77.9504 69.6771 77.5439 71.0721C77.4901 71.2551 77.4183 71.4292 77.493 71.6212C77.6544 71.6932 77.7352 71.5882 77.8278 71.4922C78.2313 71.0662 78.5691 70.5921 78.8679 70.0912C78.9486 69.9562 79.0144 69.8391 79.1997 69.8901C79.2894 70.0281 79.2655 70.1812 79.2087 70.3102C78.327 72.2452 77.3526 74.0992 75.885 75.7012C74.9196 76.7542 73.8227 77.6242 72.7527 78.5392C72.134 79.0702 71.3569 79.3222 70.6784 79.7512C70.239 80.0302 69.7787 80.3092 69.2616 80.4172C67.6656 80.7532 66.0845 81.1671 64.4615 81.3591C64.2284 81.3862 63.9952 81.3801 63.7621 81.3712C63.1942 81.3502 62.6233 81.2872 62.0554 81.4102C61.9299 81.4372 61.7924 81.4342 61.6609 81.4161C60.3428 81.2511 59.0247 81.0801 57.7365 80.7291C57.4376 80.6481 57.1955 80.4501 56.9205 80.3151C56.6635 80.1891 56.4274 80.0901 56.1374 80.1021C55.9969 80.1081 55.8385 80.0811 55.713 80.0181C54.4517 79.4031 53.1934 78.7852 52.0666 77.9422C50.5631 76.8172 49.1554 75.5842 48.1182 74.0122C47.3202 72.8032 46.5311 71.5731 46.1784 70.1331C46.0439 69.5841 45.754 69.0831 45.5747 68.5491C45.3296 67.8201 45.1562 67.0672 45.0815 66.2962C45.0397 65.8612 44.9709 65.4291 44.8962 65.0002C44.7109 63.9262 44.9739 62.8822 45.0935 61.8322C45.2638 60.3442 45.7062 58.9222 46.3129 57.5662C46.6148 56.8912 47.0363 56.2461 47.4188 55.5951C48.5158 53.7261 50.0132 52.2022 51.678 50.8462C52.8736 49.8742 54.2455 49.1872 55.6861 48.6382C55.8804 48.5632 56.0806 48.5631 56.3078 48.5781C56.2271 48.7551 56.0956 48.8452 55.9491 48.8992C54.0631 49.6222 52.3654 50.6422 50.9338 52.0732C50.7485 52.2562 50.5213 52.4241 50.4765 52.7271C52.3116 51.1432 54.2514 49.7542 56.7442 49.2352C56.6874 49.6492 56.4124 49.7841 56.1643 49.8951C55.3872 50.2371 54.634 50.6212 53.9137 51.0652C53.2442 51.4762 52.5627 51.8722 52.0098 52.4422C51.8872 52.5682 51.8155 52.6912 51.8484 52.8652C51.8304 52.8742 51.8125 52.8802 51.7946 52.8892C51.8035 52.8892 51.8155 52.8922 51.8185 52.8892C51.8274 52.8802 51.8334 52.8682 51.8424 52.8592L51.8454 52.8621ZM76.3633 65.8552C75.9747 66.3292 76.169 66.9412 75.9239 67.4602C75.6908 67.9522 75.5981 68.5072 75.365 69.0052C75.1258 69.5122 74.8838 70.0191 74.6297 70.5201C74.3846 71.0001 74.0857 71.4502 73.748 71.8852C73.9662 71.7562 74.1933 71.6632 74.3218 71.4412C74.6984 70.8052 75.1288 70.2021 75.4337 69.5241C75.6997 68.9361 75.9119 68.3241 76.154 67.7271C76.4081 67.1001 76.3752 66.4882 76.3633 65.8552ZM59.8974 78.7971C60.6118 79.0731 61.2365 79.3551 61.9329 79.3131C62.6054 79.2711 63.3048 79.4571 64.0042 79.1331C63.7681 79.0371 63.5828 79.0191 63.3915 79.0221C62.8355 79.0251 62.2826 79.0221 61.7267 79.0221C61.4068 79.0221 61.102 79.0191 60.7851 78.8901C60.546 78.7941 60.2621 78.7071 59.8945 78.7971H59.8974ZM53.9645 76.5111C54.4905 77.0241 56.242 77.8941 56.6366 77.8341C55.7638 77.4291 54.9718 76.8561 53.9645 76.5111ZM51.1071 74.0482C50.8531 73.4812 50.0939 72.5421 49.8159 72.4701C50.2194 73.0221 50.5034 73.6102 51.1071 74.0482Z" fill="white"/>
<path d="M74.1935 64.6942C74.1367 65.2882 73.9305 65.8402 73.5838 66.3352C73.4164 66.5752 73.2759 66.8272 73.1175 67.0732C72.9711 67.3042 72.8963 67.5442 72.9083 67.8142C72.9173 68.0182 72.8934 68.2222 72.9143 68.4262C72.9591 68.9002 72.7977 69.2782 72.4301 69.5812C72.173 69.7942 71.9847 70.0462 72.0326 70.4092C72.0385 70.4662 72.0326 70.5322 72.0086 70.5802C71.4169 71.6392 70.7982 72.6742 69.4053 72.8482C69.4053 72.5122 69.1453 72.2092 69.0975 71.9092C68.9988 71.2882 68.7448 70.7062 68.691 70.0822C68.6731 69.8692 68.7239 69.6802 68.8733 69.5182C69.0586 69.3172 69.0825 69.0742 69.0287 68.8222C68.9271 68.3242 68.8374 67.8292 68.4339 67.4482C68.2516 67.2772 68.3234 67.0162 68.3951 66.7882C68.4638 66.5692 68.5894 66.3592 68.4907 66.1072C68.2397 66.0112 67.9707 66.1012 67.7196 66.0442C67.5761 65.6182 67.5791 65.6272 67.1338 65.7022C66.9006 65.7412 66.6825 65.8072 66.4732 65.9152C66.3298 65.9902 66.1684 66.0322 66.007 66.0052C65.8007 65.9692 65.6094 65.9962 65.4062 66.0472C65.1462 66.1132 64.9041 66.0532 64.6709 65.8762C64.0911 65.4382 63.6756 64.8532 63.2094 64.3162C62.9732 64.0462 62.9972 63.7192 63.1346 63.4102C63.2273 63.1972 63.2632 63.0082 63.1406 62.7892C63.033 62.6002 63.0719 62.3962 63.1586 62.2012C63.3797 61.7002 63.6487 61.2382 64.1329 60.9472C64.3272 60.8302 64.4707 60.6982 64.4946 60.4432C64.5245 60.1282 64.8234 60.0232 65.0445 59.8642C65.1581 59.7832 65.3434 59.7382 65.2896 59.5522C65.2418 59.3902 65.179 59.2162 64.9788 59.1592C64.8443 59.1202 64.665 59.1202 64.659 58.9252C64.65 58.6492 64.6052 58.3672 64.6889 58.1002C64.7277 57.9772 64.8891 58.0072 65.0027 58.0072C65.3972 58.0072 65.7918 58.0072 66.2102 58.0072C66.2909 57.6652 65.995 57.5062 65.8306 57.3352C65.5855 57.0802 65.3853 56.8762 65.5018 56.4742C65.5616 56.2672 65.4451 56.0242 65.1671 55.9582C65.0535 56.0932 65.1073 56.2312 65.0804 56.3542C65.0535 56.4742 65.0236 56.5972 64.8772 56.6002C64.7158 56.6062 64.4976 56.7082 64.4169 56.4892C64.3392 56.2732 64.4647 56.1412 64.6829 56.0722C64.925 55.9972 65.2358 55.9732 65.1402 55.5922C65.5975 55.5682 66.4164 56.3572 66.5778 56.9812C66.9186 56.7472 67.2952 56.6062 67.6509 56.4322C67.881 56.3212 67.8033 56.0512 67.5134 55.9132C67.2324 55.7812 66.9933 55.6162 66.9455 55.2772C67.1398 55.1812 67.3161 55.2202 67.4895 55.2082C67.6688 55.1962 67.8362 55.1662 67.9737 55.0372C68.1889 54.8302 68.4579 54.7792 68.7418 54.7912C69.2738 54.8152 69.7461 54.9442 70.1914 55.2892C71.375 56.2132 72.2986 57.3352 73.0159 58.6402C73.2909 59.1412 73.2849 59.7652 73.6495 60.2062C73.9992 60.6262 74.0411 61.1332 74.2174 61.6012C74.2623 61.7182 74.34 61.8742 74.1577 61.9342C73.9933 61.9882 73.9843 61.8322 73.9514 61.7242C73.9185 61.6162 73.8647 61.5382 73.6705 61.5982C73.8916 61.8502 73.9365 62.1862 74.1726 62.4112C74.5851 62.8012 74.6478 63.4282 74.2653 63.8362C74.0829 64.0312 73.8827 64.2322 73.5957 64.3162C73.2431 63.3232 72.7947 62.3932 72.3195 61.4782C72.191 61.6012 72.2209 61.6942 72.2687 61.7602C72.5765 62.1982 72.714 62.7082 72.8515 63.2092C72.986 63.7012 73.3596 64.0552 73.5419 64.5142C73.5838 64.6252 73.6884 64.6402 73.796 64.6432C73.9215 64.6432 74.056 64.5652 74.1846 64.6912L74.1935 64.6942ZM68.159 59.0392C68.0035 58.8322 68.1261 58.6942 68.2098 58.5442C68.3293 58.3192 68.2546 58.0912 68.0514 58.1242C67.5791 58.1992 67.0322 58.1092 66.7004 58.5832C66.4613 58.9252 66.1863 59.2162 65.7619 59.3182C65.6722 59.3392 65.5915 59.3902 65.6094 59.4982C65.6304 59.6212 65.738 59.6662 65.8426 59.6482C65.9831 59.6242 66.1205 59.5672 66.258 59.5192C67.0082 59.2522 67.7585 59.3512 68.5117 59.4412C68.5415 59.7592 68.407 60.0982 68.7627 60.2152C69.2051 60.3622 69.6295 60.5392 70.0091 60.7972C70.3887 60.3352 70.3917 60.3322 70.9207 60.6292C71.2465 60.8152 71.6201 60.8272 71.9668 60.9262C72.0535 60.9502 72.17 60.9352 72.185 60.8362C72.2149 60.6262 72.4391 60.4732 72.3882 60.2992C71.8861 59.9032 71.1 60.0232 70.9416 59.2492C70.9356 59.2222 70.9087 59.2012 70.8908 59.1802C70.834 59.1022 70.7503 59.0722 70.6607 59.0932C70.5561 59.1172 70.5471 59.2072 70.5351 59.2972C70.5202 59.4322 70.58 59.5822 70.4604 59.7202C70.03 59.5072 70.0569 59.0152 69.77 58.7242C69.4681 58.4212 69.0497 58.3342 68.7328 58.0642C68.8673 58.5712 69.4442 58.6582 69.7072 59.0812C69.4532 59.2162 69.2499 59.1862 69.1094 58.9852C68.9181 58.7152 68.6163 58.6132 68.3801 58.4032C68.2785 58.6252 68.4339 58.8832 68.159 59.0452V59.0392ZM67.9288 55.9222C67.8362 56.1712 67.9707 56.2852 68.1649 56.3992C68.5744 56.6392 69.0437 56.5732 69.4771 56.6722C69.6086 56.7022 69.7461 56.7142 69.8447 56.6002C69.9643 56.4682 69.9045 56.3212 69.8327 56.1952C69.6923 55.9462 69.5667 55.6912 69.5548 55.3462C69.3216 55.5202 69.0646 55.6072 69.1214 55.9222C69.1632 56.1622 69.0407 56.2732 68.8345 56.3332C68.6402 56.3902 68.4638 56.3872 68.3323 56.1982C68.2367 56.0602 68.147 55.8982 67.9228 55.9192L67.9288 55.9222ZM71.1807 59.0872C71.7516 58.8862 72.173 59.3422 72.6991 59.3602C72.4659 58.9642 72.1342 58.7122 71.7247 58.5652C71.2375 58.3912 71.1389 58.4722 71.1807 59.0872ZM65.6154 56.7712C65.8625 57.0332 66.0658 57.0792 66.2252 56.9092C66.0518 56.7952 65.8844 56.7052 65.6154 56.7712Z" fill="white"/>
<path d="M92.0252 65.2401C92.082 65.4111 92.2285 65.5191 92.3719 65.6031C93.7139 66.4041 93.9262 67.6611 93.7677 69.0561C93.5824 70.6761 92.363 71.7261 90.9193 72.0381C90.0316 72.2301 89.132 72.3411 88.2234 72.3411C86.7618 72.3411 85.2972 72.3411 83.8357 72.3321C83.205 72.3291 83.1632 72.2481 83.1661 71.6091C83.1781 69.1041 83.1751 66.5991 83.1811 64.0941C83.1811 63.0741 83.1841 62.0541 83.199 61.0341C83.214 59.9751 83.7639 59.4291 84.8369 59.4201C86.4599 59.4081 88.0859 59.3721 89.7088 59.4321C91.0628 59.4801 92.3002 59.8521 93.0743 61.1181C93.2357 61.3821 93.3015 61.6581 93.3254 61.9401C93.4031 62.7831 93.4509 63.6291 92.9398 64.3881C92.7575 64.6581 92.5602 64.9011 92.2464 65.0301C92.1537 65.0691 92.0581 65.1171 92.0282 65.2401H92.0252ZM85.8472 69.8991C87.0696 69.8991 88.2532 69.8991 89.4368 69.8991C89.658 69.8991 89.8672 69.8181 90.0735 69.7431C91.2152 69.3351 91.4693 67.9041 90.5517 67.1001C90.0496 66.6621 89.4368 66.6291 88.8271 66.6081C87.9663 66.5781 87.1025 66.6201 86.2417 66.5721C85.8591 66.5511 85.8053 66.6051 85.8024 66.9891C85.7964 67.8921 85.8023 68.7951 85.8053 69.6951C85.8053 69.7491 85.8293 69.8031 85.8502 69.8991H85.8472ZM85.8293 64.2801C85.904 64.2921 85.9608 64.3101 86.0146 64.3101C87.1832 64.3101 88.3549 64.3101 89.5235 64.3101C89.8523 64.3101 90.1153 64.1601 90.3514 63.9561C90.9941 63.3921 90.8177 62.1771 90.0526 61.9101C89.7238 61.7961 89.3801 61.7091 89.0274 61.7001C88.0769 61.6761 87.1264 61.7361 86.176 61.6491C85.9189 61.6251 85.7964 61.7571 85.7994 62.0091C85.7994 62.3001 85.7994 62.5911 85.8053 62.8821C85.8173 63.3441 85.7665 63.8061 85.8263 64.2801H85.8293Z" fill="white"/>
<path d="M112.227 71.306C112.048 71.294 111.97 71.339 111.919 71.414C111.632 71.858 111.172 72.059 110.718 72.254C110.236 72.461 109.701 72.407 109.202 72.374C107.941 72.29 107.002 71.63 106.294 70.607C105.484 69.44 105.362 68.12 105.427 66.764C105.463 66.041 105.568 65.333 105.864 64.643C106.204 63.848 106.719 63.221 107.397 62.723C107.75 62.465 108.192 62.351 108.619 62.27C110.051 62.003 111.426 62.153 112.753 62.807C114.008 63.425 114.597 64.445 114.699 65.786C114.863 67.982 114.765 70.181 114.759 72.38C114.759 73.133 114.609 73.85 114.185 74.495C113.704 75.23 113.04 75.704 112.206 75.992C110.915 76.442 109.609 76.583 108.291 76.19C106.976 75.797 106.142 74.894 105.732 73.598C105.64 73.31 105.705 73.235 106.019 73.229C106.647 73.223 107.277 73.235 107.905 73.229C108.21 73.226 108.425 73.391 108.643 73.565C109.145 73.97 109.689 74.258 110.365 74.174C111.348 74.051 112.146 73.163 112.221 72.095C112.239 71.84 112.221 71.579 112.221 71.312L112.227 71.306ZM108.022 67.466C108.022 67.727 107.998 67.994 108.025 68.252C108.207 69.905 109.331 70.556 110.825 70.163C111.259 70.049 111.638 69.764 111.824 69.356C112.436 67.994 112.445 66.626 111.719 65.288C111.289 64.499 110.58 64.283 109.746 64.391C109.044 64.481 108.625 64.937 108.333 65.549C108.04 66.161 107.974 66.8 108.025 67.463L108.022 67.466Z" fill="white"/>
<path d="M182.678 68.2221C182.971 68.2221 183.264 68.2311 183.554 68.2221C183.757 68.2131 183.877 68.2911 183.951 68.4831C184.05 68.7411 184.143 69.0081 184.295 69.2331C184.705 69.8301 185.311 70.1391 186.014 70.2501C186.576 70.3401 187.141 70.3491 187.714 70.2681C188.219 70.1961 188.635 69.9951 188.976 69.6411C189.361 69.2391 189.325 68.5761 188.943 68.1801C188.494 67.7181 187.939 67.4301 187.344 67.2231C186.351 66.8781 185.317 66.6801 184.304 66.4101C183.611 66.2271 182.905 65.9811 182.424 65.4501C181.677 64.6281 181.372 63.6111 181.512 62.5041C181.596 61.8381 181.823 61.2081 182.227 60.6501C182.666 60.0381 183.3 59.7081 183.978 59.4741C185.482 58.9551 187.003 58.9221 188.545 59.3421C189.813 59.6901 190.646 60.5001 191.149 61.6701C191.316 62.0571 191.328 62.4921 191.37 62.9121C191.388 63.0921 191.301 63.1791 191.113 63.1761C190.602 63.1701 190.088 63.1611 189.582 63.0741C189.245 63.0141 188.97 62.8011 188.781 62.5071C187.995 61.2891 186.417 61.0041 185.201 61.4241C184.442 61.6881 184.113 62.2431 184.199 63.0021C184.238 63.3381 184.445 63.5271 184.687 63.6831C185.093 63.9441 185.541 64.1211 186.008 64.2471C187.009 64.5141 188.034 64.6791 189.024 64.9971C189.756 65.2311 190.413 65.5971 191.011 66.0711C191.128 66.1641 191.199 66.2901 191.274 66.4161C192.069 67.6941 192.021 68.9991 191.424 70.3311C191.05 71.1651 190.395 71.6721 189.57 72.0231C188.046 72.6741 186.468 72.6831 184.887 72.3891C183.135 72.0621 181.952 71.0361 181.444 69.3081C181.372 69.0621 181.387 68.7891 181.372 68.5281C181.36 68.3271 181.474 68.2431 181.671 68.2461C182.006 68.2491 182.343 68.2461 182.681 68.2461V68.2281L182.678 68.2221Z" fill="white"/>
<path d="M131.951 72.3501C131.864 72.2091 131.9 72.0741 131.9 71.9481C131.9 68.2221 131.9 64.4961 131.9 60.7701C131.9 60.0351 132.516 59.4201 133.257 59.4201C134.79 59.4171 136.326 59.3811 137.86 59.4291C140.332 59.5041 141.656 60.8031 141.808 63.1851C141.862 64.0221 141.778 64.8501 141.426 65.6181C140.864 66.8421 139.886 67.5081 138.535 67.6461C137.382 67.7631 136.228 67.7241 135.074 67.7091C134.635 67.7031 134.572 67.7631 134.575 68.2041C134.581 69.3831 134.584 70.5621 134.587 71.7411C134.587 71.8581 134.572 71.9721 134.563 72.0891C134.548 72.2811 134.443 72.3861 134.246 72.3561C133.478 72.2361 132.707 72.2961 131.948 72.3561L131.951 72.3501ZM136.225 65.3601C136.649 65.3601 137.074 65.3721 137.498 65.3541C138.036 65.3331 138.523 65.0991 138.801 64.6671C139.235 63.9921 139.28 63.2211 138.894 62.5011C138.547 61.8561 137.911 61.6731 137.217 61.6671C136.515 61.6611 135.812 61.6551 135.11 61.6551C134.674 61.6551 134.569 61.7541 134.572 62.2011C134.584 63.1491 134.608 64.0941 134.563 65.0421C134.551 65.2971 134.671 65.3691 134.907 65.3601C135.346 65.3481 135.785 65.3571 136.222 65.3571L136.225 65.3601Z" fill="white"/>
<path d="M116.13 59.4171C116.564 59.4171 116.97 59.4051 117.38 59.4201C117.954 59.4441 118.545 60.0531 118.554 60.6291C118.563 61.4151 118.554 62.2011 118.554 62.9871C118.554 63.1581 118.527 63.3291 118.596 63.4971C118.716 63.4881 118.782 63.3981 118.844 63.3291C119.789 62.2701 120.978 61.9521 122.335 62.2191C123.232 62.3961 123.901 62.9631 124.49 63.6321C125.082 64.3011 125.273 65.1051 125.315 65.9691C125.405 67.9611 125.351 69.9561 125.39 71.9511C125.399 72.3501 125.372 72.3621 124.969 72.3561C124.413 72.3501 123.857 72.3471 123.301 72.3321C122.891 72.3201 122.808 72.2301 122.822 71.8341C122.882 70.2921 122.84 68.7471 122.849 67.2051C122.852 66.5781 122.808 65.9481 122.44 65.4021C122.03 64.7931 121.519 64.3461 120.721 64.3941C119.872 64.4451 119.26 64.8591 118.916 65.6301C118.674 66.1791 118.551 66.7611 118.554 67.3701C118.56 68.8851 118.56 70.3971 118.56 71.9121C118.56 72.0411 118.59 72.1731 118.518 72.3261H116.145C116.047 71.9841 116.026 60.3201 116.127 59.4171H116.13Z" fill="white"/>
<path d="M175.403 67.9521C175.161 68.0151 174.943 67.9881 174.725 67.9881C172.925 67.9881 171.126 67.9821 169.327 67.9821C168.819 67.9821 168.78 68.0271 168.926 68.5071C169.016 68.7981 169.12 69.0891 169.264 69.3561C169.892 70.5261 171.631 70.4781 172.265 69.7851C172.653 69.3591 173.129 69.1731 173.714 69.2061C174.222 69.2331 174.734 69.2121 175.284 69.2121C175.113 70.0281 174.737 70.6761 174.175 71.2011C173.278 72.0381 172.217 72.4431 170.965 72.4671C169.721 72.4911 168.624 72.2091 167.695 71.3721C167.211 70.9371 166.843 70.4211 166.616 69.8061C166.024 68.1891 166.03 66.5601 166.553 64.9341C167.112 63.1971 168.591 62.2401 170.304 62.1471C171.234 62.0961 172.154 62.1921 173.003 62.5911C173.968 63.0441 174.629 63.8151 175.026 64.7931C175.364 65.6301 175.505 66.9831 175.4 67.9581L175.403 67.9521ZM170.74 66.2991C170.74 66.2991 170.74 66.3021 170.74 66.3051C171.252 66.3051 171.763 66.2991 172.271 66.3051C172.528 66.3111 172.635 66.2211 172.632 65.9511C172.629 65.5461 172.456 65.2161 172.217 64.9221C171.76 64.3551 170.95 64.1661 170.181 64.4151C169.542 64.6221 168.908 65.4021 168.866 66.0321C168.851 66.2631 168.986 66.2961 169.165 66.2961C169.691 66.2961 170.214 66.2961 170.74 66.2961V66.2991Z" fill="white"/>
<path d="M155.342 66.9201C155.309 67.7001 155.414 68.6571 155.178 69.6111C154.888 70.7811 154.188 71.5491 153.085 72.0021C151.812 72.5241 150.491 72.5691 149.167 72.3381C148.246 72.1791 147.523 71.6181 147.096 70.7961C146.821 70.2651 146.827 69.6411 146.842 69.0411C146.875 67.5981 147.688 66.8931 149.122 66.4221C149.869 66.1761 150.667 66.1161 151.442 65.9691C151.773 65.9061 152.096 65.8071 152.383 65.6301C152.625 65.4831 152.834 65.2941 152.802 64.9671C152.775 64.6971 152.521 64.4061 152.189 64.3611C151.645 64.2891 151.101 64.1451 150.539 64.2891C150.261 64.3611 150.007 64.4391 149.816 64.6581C149.663 64.8321 149.478 64.9221 149.239 64.9221C148.623 64.9221 148.01 64.9341 147.395 64.9281C147.072 64.9251 147.003 64.8201 147.111 64.5171C147.577 63.2211 148.521 62.4531 149.86 62.2311C151.11 62.0271 152.356 62.0781 153.576 62.5191C154.676 62.9151 155.297 63.6861 155.336 64.8621C155.357 65.4891 155.339 66.1161 155.339 66.9171L155.342 66.9201ZM152.864 67.3641C152.622 67.4271 152.443 67.4721 152.263 67.5201C151.842 67.6281 151.448 67.8351 151.008 67.8771C150.652 67.9101 150.33 68.0391 150.01 68.1801C149.478 68.4141 149.221 68.9331 149.358 69.5031C149.424 69.7791 149.454 70.1001 149.771 70.2261C151.038 70.7271 152.491 70.0281 152.778 68.7051C152.867 68.2911 152.846 67.8741 152.858 67.3641H152.864Z" fill="white"/>
<path d="M216.245 66.7851C216.225 67.6701 216.332 68.5671 216.159 69.4431C215.914 70.6821 215.223 71.5641 214.01 72.0291C212.799 72.4911 211.535 72.5271 210.304 72.3351C209.243 72.1701 208.385 71.5881 207.987 70.4601C207.673 69.5721 207.766 68.7501 208.104 67.9161C208.483 66.9801 209.356 66.7131 210.193 66.4191C210.913 66.1671 211.67 66.0711 212.423 65.9841C212.76 65.9451 213.074 65.8221 213.376 65.6721C213.582 65.5701 213.705 65.4171 213.708 65.1591C213.714 64.5951 213.576 64.4091 213.015 64.3131C212.683 64.2561 212.351 64.1991 212.013 64.2231C211.556 64.2531 211.117 64.3101 210.776 64.6731C210.579 64.8861 210.319 64.9581 210.02 64.9431C209.494 64.9161 208.968 64.9281 208.442 64.9011C208.068 64.8801 208.011 64.7721 208.161 64.4241C208.722 63.1341 209.676 62.3631 211.108 62.2041C212.312 62.0721 213.499 62.0781 214.634 62.5551C215.615 62.9661 216.228 63.6651 216.24 64.7781C216.248 65.4471 216.24 66.1161 216.24 66.7851H216.245ZM213.869 68.0181C213.878 67.4181 213.771 67.3371 213.125 67.5171C213.015 67.5471 212.904 67.5891 212.793 67.6251C212.629 67.6821 212.468 67.7781 212.297 67.7871C211.771 67.8171 211.311 68.0361 210.857 68.2641C210.148 68.6181 210.064 69.6891 210.698 70.1361C211.574 70.7511 213.23 70.2891 213.63 69.2991C213.789 68.9121 213.875 68.4951 213.869 68.0181Z" fill="white"/>
<path d="M156.541 72.299C156.457 72.164 156.475 72.059 156.475 71.96C156.475 69.938 156.445 67.913 156.487 65.891C156.517 64.451 157.115 63.323 158.505 62.69C160.349 61.85 162.139 61.961 163.858 62.984C164.444 63.332 164.823 63.884 164.997 64.574C165.206 65.402 165.266 66.233 165.257 67.082C165.239 68.684 165.254 70.283 165.251 71.885C165.251 72.347 165.248 72.35 164.793 72.329C164.429 72.311 164.061 72.308 163.699 72.257C163.051 72.167 162.713 71.819 162.638 71.177C162.602 70.874 162.614 70.568 162.614 70.262C162.614 68.981 162.614 67.7 162.614 66.419C162.614 66.128 162.596 65.837 162.534 65.552C162.372 64.808 161.867 64.37 161.105 64.31C160.71 64.28 160.319 64.283 159.954 64.478C159.282 64.835 159.12 65.462 159.117 66.137C159.102 67.97 159.117 69.806 159.111 71.639C159.111 72.284 159.273 72.419 158.382 72.314C157.778 72.242 157.157 72.299 156.541 72.299Z" fill="white"/>
<path d="M55.8455 72.9171C55.7887 73.0581 55.974 73.1421 55.8783 73.2651C55.5177 73.3231 55.2228 73.5581 54.9936 73.9701C54.4556 73.5981 53.9625 73.1931 53.8668 72.5151C53.7652 71.7981 53.535 71.0991 53.5679 70.3611C53.5859 69.9621 53.4035 69.6411 53.0598 69.4041C52.7759 69.2091 52.6115 68.9241 52.5069 68.5881C52.4082 68.2701 52.2319 67.9761 52.1392 67.6581C51.9838 67.1301 51.8344 66.5931 52.1482 66.0591C52.2498 65.8881 52.1841 65.6871 52.193 65.5011C52.208 65.2371 51.9868 65.2281 51.8194 65.1501C51.7417 65.1141 51.6491 65.0601 51.6192 64.9911C51.4458 64.5951 51.123 64.3191 50.857 63.9951C50.5701 63.6471 50.6239 63.4461 51.0184 63.1821C51.123 63.1131 51.2037 62.9871 51.3562 62.9991C51.4518 63.0771 51.395 63.1551 51.3502 63.2241C51.1888 63.4791 51.1111 63.7041 51.4996 63.8301C51.6222 63.8691 51.5923 63.9981 51.5923 64.0971C51.5923 64.2411 51.5833 64.3851 51.6431 64.5261C51.8493 65.0061 52.1751 65.0931 52.5487 64.7481C52.728 64.5831 52.9223 64.5351 53.1525 64.6101C53.4693 64.7151 53.7742 64.8621 54.1268 64.7631C54.2703 64.7241 54.363 64.8531 54.4556 64.9431C54.623 65.1051 54.7844 65.2761 54.9548 65.4321C55.1192 65.5821 55.3194 65.6691 55.5436 65.6961C56.0726 65.7561 56.1204 65.7981 56.2161 66.3261C56.2549 66.5391 56.2549 66.7551 56.2788 67.0311C56.781 66.9081 57.1516 67.2831 57.591 67.3581C58.114 67.4481 58.5355 67.7121 58.9898 67.9371C59.3186 68.0991 59.3963 68.2821 59.2468 68.6301C59.1303 68.9001 58.9479 69.1341 58.7447 69.3411C58.5653 69.5271 58.5056 69.7191 58.5205 69.9681C58.5384 70.2741 58.5295 70.5771 58.3561 70.8531C58.1888 71.1231 58.0244 71.3361 57.6448 71.3211C57.307 71.3061 57.1187 71.5191 57.0022 71.8611C56.8198 72.3951 56.5 72.8361 55.8425 72.9081L55.8455 72.9171Z" fill="white"/>
<path d="M180.35 70.2561C180.35 70.8381 180.344 71.3721 180.35 71.9091C180.353 72.2451 180.126 72.3381 179.863 72.3441C179.292 72.3621 178.721 72.3771 178.153 72.3231C177.92 72.3021 177.687 72.2751 177.457 72.2421C176.641 72.1281 176.151 71.5701 176.145 70.7421C176.124 67.0131 176.136 63.2841 176.139 59.5551C176.139 59.5281 176.151 59.5011 176.169 59.4351C176.68 59.4351 177.203 59.3901 177.717 59.4471C178.339 59.5131 178.718 59.9871 178.754 60.6651C178.775 61.0731 178.754 61.4811 178.76 61.8891C178.763 62.3721 178.796 62.3991 179.295 62.3841C179.528 62.3781 179.764 62.3871 179.998 62.3751C180.273 62.3601 180.341 62.4981 180.353 62.7441C180.383 63.5031 180.004 63.9921 179.235 64.1511C178.814 64.2381 178.754 64.3131 178.754 64.7271C178.757 66.2571 178.757 67.7871 178.76 69.3141C178.76 69.4311 178.751 69.5481 178.766 69.6621C178.82 70.1001 179.005 70.2591 179.451 70.2591C179.729 70.2591 180.007 70.2591 180.347 70.2591L180.35 70.2561Z" fill="white"/>
<path d="M199.649 72.0261C200.363 72.0622 200.794 71.5461 201.341 71.3331C200.997 72.0981 198.591 72.9981 197.049 72.6771C194.55 72.1581 192.213 70.1991 192.248 67.1241C192.284 64.1061 194.272 62.2492 197.043 61.5472C198.546 61.1662 201.424 62.3452 201.84 63.3682C201.281 63.6862 201.14 63.7222 200.839 63.2092C200.45 62.5522 199.768 62.5072 199.195 62.2342C199.009 62.1442 198.797 62.1652 198.648 62.4292C198.471 62.7442 198.226 63.0232 197.772 62.9332C197.56 62.8912 197.389 63.0472 197.359 63.2452C197.324 63.4792 197.536 63.5152 197.715 63.5272C197.957 63.5452 198.157 63.6562 198.373 63.7552C198.654 63.8812 198.785 63.8032 198.815 63.4942C198.83 63.3232 198.806 63.1462 198.797 62.9722C198.776 62.5882 198.988 62.4142 199.326 62.6062C199.592 62.7562 199.909 62.9242 199.909 63.3052C199.909 63.5002 200.037 63.5332 200.169 63.6022C200.441 63.7432 200.686 63.9142 200.734 64.2532C200.596 64.3642 200.462 64.3732 200.384 64.2472C200.289 64.0942 200.208 63.8842 200.008 64.0402C199.828 64.1782 200.073 64.3132 200.118 64.5082C199.26 64.7032 198.803 65.3121 198.537 66.0951C198.406 66.1491 198.34 66.0712 198.262 65.9992C197.894 65.6662 197.084 65.8672 196.89 66.3322C196.836 66.4642 196.899 66.5571 196.962 66.6531C197.034 66.7671 197.183 66.7972 197.237 66.9232C197.419 66.8572 197.619 66.6112 197.745 66.7582C197.984 67.0371 198.385 67.2502 198.322 67.7512C198.017 67.7032 197.82 67.4781 197.578 67.3431C197.383 67.2351 197.192 67.1301 196.965 67.1361C196.693 67.1421 196.457 67.0401 196.331 66.8151C196.065 66.3381 195.551 66.1222 195.219 65.7172C194.956 65.3992 194.684 65.1172 194.723 64.6522C194.744 64.4032 194.371 64.0192 194.125 63.9742C193.931 63.9352 193.755 63.9442 193.641 64.1572C193.366 64.6672 193.035 65.1442 192.969 65.7472C192.933 66.0772 192.724 66.3622 192.718 66.7132C192.688 69.0742 193.701 70.8201 195.811 71.9091C196.678 72.3561 197.625 72.4131 198.585 72.3681C198.752 72.3591 198.86 72.2841 198.908 72.1251C199.057 71.6241 199.314 71.1651 199.446 70.6551C199.502 70.4271 199.47 70.2621 199.302 70.1061C199.165 69.9771 199.033 69.8392 198.905 69.7012C198.555 69.3262 198.501 69.0052 198.725 68.5552C198.776 68.4502 198.827 68.3482 198.83 68.2282C198.836 67.8142 199.027 67.6371 199.464 67.6521C200.124 67.6761 200.728 67.8471 201.209 68.3331C201.424 68.5521 201.654 68.7441 201.974 68.8161C202.204 68.8671 202.291 69.0441 202.175 69.2481C201.938 69.6531 201.798 70.0911 201.421 70.4451C200.91 70.9251 200.435 71.4291 199.798 71.7501C199.763 71.7681 199.733 71.8101 199.712 71.8461C199.691 71.8821 199.688 71.9271 199.655 72.0411L199.649 72.0261ZM196.968 62.8462C197.073 62.2882 197.073 62.2852 197.596 62.3572C197.796 62.3842 197.894 62.3122 197.906 62.0872C197.539 62.0212 197.156 61.8022 196.836 61.9732C196.529 62.1382 196.14 62.1712 195.874 62.4772C196.295 62.4322 196.57 62.7592 196.965 62.8462H196.968Z" fill="white"/>
<path d="M130.828 70.2562V72.3352C129.829 72.3982 128.858 72.3442 127.901 72.1432C127.387 72.0352 127.026 71.6962 126.879 71.1682C126.79 70.8442 126.715 70.5202 126.715 70.1812C126.715 66.6442 126.715 63.1072 126.721 59.5702C126.721 59.5432 126.733 59.5132 126.751 59.4232C127.268 59.4142 127.809 59.3482 128.332 59.4592C128.924 59.5822 129.309 60.1162 129.351 60.7822C129.375 61.1452 129.36 61.5082 129.363 61.8742C129.369 62.3242 129.429 62.3842 129.862 62.3842C129.949 62.3842 130.038 62.3692 130.125 62.3842C130.358 62.4202 130.711 62.2402 130.801 62.5012C130.917 62.8432 130.938 63.2512 130.693 63.5902C130.457 63.9172 130.128 64.0972 129.728 64.1152C129.444 64.1272 129.348 64.2622 129.351 64.5292C129.363 66.2032 129.36 67.8772 129.375 69.5512C129.381 70.1752 129.48 70.2502 130.095 70.2532C130.325 70.2532 130.559 70.2532 130.825 70.2532L130.828 70.2562Z" fill="white"/>
<path d="M143.133 59.4231C143.701 59.4231 144.224 59.3931 144.744 59.4321C145.333 59.4741 145.775 59.9721 145.853 60.6051C145.871 60.7491 145.865 60.8961 145.865 61.0401C145.865 64.6341 145.865 68.2311 145.865 71.8251C145.865 72.1271 145.71 72.2791 145.401 72.2811C144.789 72.2841 144.173 72.2931 143.56 72.2871C143.136 72.2841 143.133 72.2751 143.133 71.8371C143.133 68.2281 143.133 64.6191 143.133 61.0101V59.4231Z" fill="white"/>
<path d="M204.223 72.3532V59.4322C204.722 59.4322 205.197 59.3692 205.645 59.4472C206.312 59.5612 206.787 59.9362 206.781 60.7582C206.763 62.9872 206.769 65.2132 206.769 67.4422C206.769 68.9122 206.742 70.3822 206.79 71.8552C206.805 72.3622 206.799 72.3592 206.288 72.3592C205.618 72.3562 204.949 72.3592 204.223 72.3592V72.3532Z" fill="white"/>
<path d="M224.167 62.4921C223.758 63.3621 223.462 64.175 223.136 65.012C222.783 65.012 222.434 65.012 222.087 65.012C221.14 65.021 220.41 65.588 220.177 66.503C220.073 66.914 220.037 67.3341 220.04 67.7571C220.052 69.1851 220.061 70.61 220.067 72.038C220.067 72.122 220.046 72.209 220.037 72.29C219.881 72.401 219.717 72.35 219.561 72.35C219.006 72.356 218.45 72.35 217.897 72.35C217.505 72.35 217.478 72.335 217.475 71.933C217.472 71.438 217.481 70.9431 217.484 70.4481C217.487 69.2841 217.478 68.1201 217.493 66.9531C217.505 65.9691 217.804 65.0751 218.342 64.2471C218.892 63.4011 219.708 62.9301 220.634 62.6751C221.758 62.3661 222.921 62.4771 224.17 62.4921H224.167Z" fill="white"/>
<path d="M97.4887 69.2241C97.4887 70.0401 97.4887 70.8561 97.4887 71.6691C97.4887 72.2241 97.3691 72.3471 96.8281 72.3441C96.317 72.3441 95.8029 72.3441 95.2918 72.3261C94.7628 72.3081 94.6731 72.2151 94.6791 71.7081C94.694 70.2381 94.6253 68.7681 94.7538 67.3011C94.8136 66.6351 94.8644 65.9541 95.0826 65.3271C95.4442 64.2891 96.1526 63.5121 97.1419 62.9961C98.0446 62.5251 99.0488 62.4741 100.023 62.3091C100.292 62.2641 100.4 62.3751 100.4 62.6361C100.4 63.3351 100.406 64.0341 100.415 64.7331C100.415 64.9731 100.277 65.0151 100.074 65.0151C99.6676 65.0151 99.2581 64.9851 98.8546 65.0901C97.9848 65.3151 97.4916 65.9241 97.4916 66.8241C97.4916 67.6251 97.4916 68.4261 97.4916 69.2271L97.4887 69.2241Z" fill="white"/>
<path d="M101.755 62.3032C102.287 62.3182 102.819 62.2882 103.327 62.4172C103.847 62.5492 104.194 62.8792 104.277 63.4402C104.319 63.7162 104.316 63.9922 104.319 64.2682C104.325 66.7882 104.331 69.3082 104.337 71.8282C104.337 72.3412 104.313 72.3592 103.79 72.3532C103.234 72.3472 102.678 72.3442 102.122 72.3442C101.713 72.3442 101.707 72.3442 101.707 71.9362C101.707 70.1452 101.707 68.3542 101.707 66.5602C101.707 65.3212 101.707 64.0852 101.707 62.8462C101.707 62.6872 101.683 62.5252 101.758 62.3032H101.755Z" fill="white"/>
<path d="M63.52 53.0031C62.994 52.9851 62.5606 53.1831 62.2408 53.5761C61.8582 54.0501 61.3172 54.1581 60.7762 54.2481C60.4534 54.3021 60.1545 54.3771 59.8766 54.5541C59.7331 54.6441 59.5567 54.6891 59.3924 54.7461C59.0038 54.8811 58.6481 55.0431 58.3731 55.3821C58.0563 55.7781 57.0401 55.6161 56.795 55.1691C56.6545 54.9111 56.8847 54.8211 57.0222 54.6951C56.8458 54.5211 56.6067 54.5961 56.4453 54.4701C57.1238 53.3121 61.7058 52.3461 63.523 53.0031H63.52Z" fill="white"/>
<path d="M54.1969 56.1951C54.4868 55.7751 54.7738 55.4091 55.3745 55.4031C55.246 55.6581 55.0667 55.8021 54.8664 55.9311C54.6931 56.0421 54.6482 56.1591 54.8724 56.2731C55.1683 56.4231 55.3566 56.7441 55.7153 56.8011C55.7481 56.8071 55.796 56.8581 55.7989 56.8881C55.8079 57.2511 56.1427 57.4131 56.2921 57.7161C56.038 57.8601 55.7003 57.6741 55.4642 57.9171C55.3954 57.7731 55.509 57.7071 55.524 57.6141C55.5509 57.4611 55.4642 57.3681 55.3297 57.4131C55.0039 57.5181 54.6841 57.6531 54.3643 57.7821C54.3493 57.7881 54.3493 57.8361 54.3434 57.8661C54.4539 58.0971 54.7797 57.9411 54.8993 58.2051C54.8186 58.4121 54.6034 58.5021 54.4031 58.5321C53.6469 58.6461 53.2703 59.2221 52.9057 59.7711C52.6516 60.1521 52.4992 60.6051 52.2063 60.9741C52.0628 61.1541 51.9433 61.3431 52.0957 61.6041C52.1645 61.7241 52.1405 61.9101 52.0718 62.0721C51.8476 61.9581 51.9104 61.7181 51.8357 61.5501C51.5786 61.4271 51.3515 61.6521 51.0825 61.6011C51.0227 61.3671 51.1243 61.1481 51.202 60.9471C51.4023 60.4191 51.6444 59.9031 51.8596 59.3781C51.9582 59.1381 52.2003 59.0721 52.3647 58.9221C52.2691 58.3581 52.3109 58.2621 52.822 57.9981C53.0372 57.8871 53.1269 57.7011 53.2255 57.5031C53.4437 57.0681 53.5812 56.5671 54.1311 56.3511C54.2238 56.5311 54.3523 56.6871 54.5914 56.5941C54.6661 56.5641 54.6751 56.4711 54.6602 56.4021C54.6064 56.1621 54.3822 56.3241 54.2059 56.1981L54.1969 56.1951Z" fill="white"/>
<path d="M101.721 61.5141V59.4141C102.372 59.4621 103.012 59.2941 103.631 59.5851C103.995 59.7591 104.207 60.0141 104.243 60.4161C104.264 60.6771 104.279 60.9381 104.294 61.1991C104.306 61.4151 104.21 61.5171 103.983 61.5141C103.239 61.5081 102.498 61.5141 101.721 61.5141Z" fill="white"/>
<path d="M71.2469 52.418C71.0676 52.436 70.957 52.3101 70.8225 52.2231C70.1201 51.7581 69.3729 51.371 68.6167 51.002C67.8964 50.651 67.1491 50.3811 66.381 50.1741C65.6397 49.9731 64.8776 49.8411 64.1244 49.6821C63.8404 49.6221 63.5565 49.5741 63.2188 49.5111C64.1842 49.3461 65.2482 49.5351 66.4587 49.8711C68.1026 50.3301 69.5731 51.1251 70.954 52.1061C71.0765 52.1931 71.1752 52.2921 71.2409 52.4241L71.2469 52.418Z" fill="white"/>
<path d="M72.0254 50.942C72.4139 50.903 72.5873 51.236 72.8085 51.437C73.5527 52.112 74.2701 52.817 74.9186 53.588C74.9784 53.66 75.0561 53.735 75.0531 53.933C74.025 52.898 72.9908 51.956 72.0314 50.936L72.0254 50.942Z" fill="white"/>
<path d="M76.1992 57.1641C76.7432 57.9021 77.1676 59.1891 77.2334 59.9331C76.8089 59.0031 76.522 58.0731 76.1992 57.1641Z" fill="white"/>
<path d="M61.8125 54.419C62.3206 54.491 62.751 54.455 63.1844 54.428C63.298 54.422 63.4385 54.401 63.4713 54.551C63.5042 54.704 63.3637 54.734 63.2621 54.779C62.754 55.001 62.1682 54.872 61.8155 54.416L61.8125 54.419Z" fill="white"/>
<path d="M73.7326 68.6812C73.643 69.3802 73.2634 69.9142 72.9944 70.4932C72.833 69.9772 73.2484 68.9812 73.7326 68.6812Z" fill="white"/>
<path d="M203.335 67.6641C203.101 67.2261 203.155 66.6411 203.427 66.3921C203.577 66.8421 203.547 67.3611 203.335 67.6641Z" fill="white"/>
<path d="M53.3314 63.2751C52.7695 63.2301 52.3361 62.8881 51.834 62.6661C51.9057 62.6571 51.9775 62.6331 52.0462 62.6421C52.4676 62.6961 52.8173 62.9901 53.2567 62.9931C53.3045 62.9931 53.3523 63.0951 53.3344 63.2721L53.3314 63.2751Z" fill="white"/>
<path d="M72.9297 54.1311C73.3661 54.3351 73.6321 54.6921 73.6889 55.1151C73.3362 54.8301 73.0911 54.5121 72.9297 54.1311Z" fill="white"/>
<path d="M79.6084 69.9232C79.5217 69.3982 79.716 69.0052 80.0747 68.6692C79.8923 69.0652 79.9491 69.5482 79.6084 69.9232Z" fill="white"/>
<path d="M72.008 50.9088C71.963 50.9017 71.9133 50.8994 71.9062 50.8401C71.9062 50.8306 71.937 50.8022 71.9488 50.8069C72.0033 50.8211 72.008 50.8662 72.0033 50.9136L72.008 50.9088Z" fill="white"/>
<path d="M80.1559 68.4198C80.1559 68.4198 80.1465 68.434 80.1418 68.441C80.1418 68.434 80.1348 68.4245 80.1348 68.4175C80.1348 68.4104 80.1418 68.4033 80.1465 68.3962C80.1465 68.4057 80.1512 68.4127 80.1535 68.4222L80.1559 68.4198Z" fill="white"/>
<path d="M71.2402 52.4234C71.2402 52.4234 71.2586 52.4418 71.2678 52.451C71.2632 52.4487 71.254 52.4464 71.2517 52.4441C71.2471 52.4372 71.2471 52.428 71.2448 52.4211L71.2402 52.4257V52.4234Z" fill="white"/>
</svg>
