<svg width="900" height="500" viewBox="0 0 900 500" fill="none" xmlns="http://www.w3.org/2000/svg">
<path d="M379.26 218.78C402.47 217.09 414.35 234.05 411.63 255.9C409.22 275.3 392.01 285.37 373.42 280.24C344.48 272.25 346.69 221.15 379.25 218.78H379.26ZM381.88 229.2C372.22 229.37 366.97 235.86 365.67 244.92C364.11 255.74 367.06 268.82 379.64 270.64C392.43 272.5 399.29 264.35 400.01 252.31C400.75 239.97 395.77 228.95 381.89 229.2H381.88Z" fill="white"/>
<path d="M587.031 219.92L598.68 261.24L610.331 219.91L622 220.12L633.55 261.24L644.81 219.92H656.67L638.69 280.11L627.75 280.08L615.87 239.58L604.18 280.07L592.98 280.08L575.271 219.92H587.031Z" fill="white"/>
<path d="M660.29 219.92H688.14C697.29 220.46 704.02 225.11 705.86 234.32C707.61 243.04 705.26 254.03 696.27 257.74L707.13 280.1H694.27L684.32 259.64H671.86L671.56 259.94V280.1H660.3V219.92H660.29ZM671.54 249.21H687.32C697.31 249.21 698.02 230.35 686.72 230.35H671.85L671.55 230.65V249.2L671.54 249.21Z" fill="white"/>
<path d="M464.03 273.39C454.18 283.54 435.08 284.13 424.23 275.27C410.39 263.96 410.26 236.7 423.83 225.13C434.08 216.4 452.15 216.43 462.41 225.13C475.37 236.12 475.7 261.36 464.03 273.38V273.39ZM442.17 229.2C429.6 229.47 425.3 240.52 425.73 251.51C426.09 260.76 430.15 269.21 440.13 270.64C452.07 272.34 459.07 265.35 460.3 253.92C461.68 241.1 456.85 228.89 442.17 229.21V229.2Z" fill="white"/>
<path d="M475.98 280.1V219.92C483.7 220.21 491.71 219.54 499.4 219.92C501.18 220.01 503.38 220.27 505.13 220.62C533.29 226.35 532.08 276.95 502.61 279.9L475.98 280.1ZM487.44 269.67C490.68 269.55 493.96 269.82 497.2 269.67C498.69 269.6 500.68 269.45 502.13 269.17C518.41 265.99 516.72 230.55 500.21 230.55H487.45V269.66L487.44 269.67Z" fill="white"/>
<path d="M349.76 248.4C349.88 252.7 349.81 256.74 348.74 260.92C341.4 289.65 298.82 288.07 293.35 257.86C289.12 234.5 303.13 215.07 328.1 219.17C336.86 220.61 343.25 225.54 346.72 233.68C347.06 234.49 348.64 238.69 348.27 239.18L337.03 240.78C335.1 235.55 331.47 230.72 325.68 229.6C314.96 227.53 307.22 232.99 305.2 243.54C303.09 254.57 305.9 268.74 318.94 270.63C328.8 272.06 336.22 266.92 337.5 257.02H328.05V248.39H349.76V248.4Z" fill="white"/>
<path d="M540.3 259.64V280.1H529.04V219.92H556.89C572.94 219.7 579.36 237.95 572.77 250.62C566.51 262.67 551.45 259.08 540.3 259.64ZM540.3 249.21H556.08C566.06 249.21 566.78 230.35 555.48 230.35H540.31V249.21H540.3Z" fill="white"/>
<path d="M233.79 291.93C207.9 290.93 188.75 267.67 193.65 241.94C196.74 225.71 209.95 212.4 226.15 209.09V217.72C204.4 223.47 194.18 249.09 206.65 268.17C219.55 287.92 248.28 288.71 262.09 269.53C275.88 250.38 265.95 223.6 243.44 217.72V209.09C272.7 215.14 286.62 249.48 269.13 274.14C261.56 284.81 248.93 291.55 235.8 291.93H233.79Z" fill="white"/>
<path d="M226.15 222.33V231.36C210.95 238.09 209.94 259.56 224.41 267.9C240.81 277.36 260.2 261.75 254.64 243.75C252.9 238.14 248.56 233.74 243.44 231.06V222.33C262.7 228.15 270.27 251.48 257.99 267.64C246.58 282.65 223.89 282.85 212.09 268.15C199.24 252.14 206.73 228.31 226.15 222.32V222.33Z" fill="white"/>
<path d="M230.57 234.36V243.29C226.2 246.17 225.59 252.59 229.67 256.02C237.03 262.23 248.22 252.08 239.71 243.78C239.54 243.61 239.21 243.61 239.21 243.59V234.36C251.75 237.89 255.39 253.9 245.35 262.45C237.92 268.77 226.45 267.02 221.16 258.9C215.14 249.63 219.92 237.13 230.57 234.37V234.36Z" fill="white"/>
<path d="M239.02 234.16C237.41 233.72 235.57 233.47 233.9 233.56C233.03 233.61 231.72 234.05 231 234.08C230.75 234.08 230.74 234.05 230.58 233.86V208.49L234.9 208.07C236.23 208.49 237.88 207.95 239.02 208.59V234.16Z" fill="white"/>
</svg>
