<svg width="271" height="150" viewBox="0 0 271 150" fill="none" xmlns="http://www.w3.org/2000/svg">
<path d="M74.8837 68.8789C74.8837 70.0489 74.2363 71.0149 72.9446 71.7679C71.8425 72.4069 70.6621 72.7249 69.4035 72.7249C67.7052 72.7249 66.3261 72.3139 65.2692 71.4949V71.5099C65.2692 71.4889 65.2632 71.4769 65.2542 71.4769C65.191 71.5099 65.0284 71.6149 64.7724 71.7949C64.387 72.0199 64.1039 72.1309 63.9233 72.1309C63.8269 72.1309 63.7787 72.1099 63.7787 72.0679V72.0529C63.9714 71.1469 64.0678 70.4779 64.0678 70.0399C64.0678 69.4339 63.8871 68.7949 63.5228 68.1229C63.5017 68.1019 63.4897 68.0599 63.4897 67.9939C63.4897 67.8229 63.586 67.6369 63.7787 67.4359L64.2756 67.3729L64.7573 67.4359L65.0284 67.7389C65.0284 69.0469 65.2421 70.0279 65.6697 70.6759C66.3322 71.6779 67.5276 72.1759 69.259 72.1759C70.2737 72.1759 71.177 71.9299 71.969 71.4409C72.8783 70.8649 73.33 70.0999 73.33 69.1399C73.33 68.0119 72.523 67.2829 70.9091 66.9529L66.3743 66.3139C64.7393 65.9719 63.9233 65.2399 63.9233 64.1089C63.9233 62.9779 64.5255 62.0929 65.736 61.3789C66.7628 60.7609 67.8678 60.4519 69.0542 60.4519C70.4423 60.4519 71.6016 60.8029 72.532 61.5049L73.4444 60.9769L73.8931 60.8959L74.423 61.0879C74.0376 61.4929 73.8449 61.9459 73.8449 62.4439C73.8449 62.7319 73.9141 63.1579 74.0527 63.7219C74.1912 64.2859 74.2604 64.7119 74.2604 64.9999L74.0195 65.3179L73.4896 65.3989L72.9596 65.2879C72.7458 65.0329 72.5802 64.5109 72.4628 63.7219C72.3243 62.8489 72.0623 62.2159 71.6769 61.8229C71.153 61.2919 70.2888 61.0249 69.0813 61.0249C68.3857 61.0249 67.7444 61.1749 67.1572 61.4719C66.5158 61.7899 66.0461 62.2399 65.748 62.8129C65.5673 63.1639 65.477 63.5329 65.477 63.9139C65.477 64.9879 66.293 65.6659 67.9281 65.9419C68.4399 66.0799 69.1837 66.1969 70.1563 66.2929C71.2553 66.4009 72.0262 66.4939 72.4658 66.5809C74.0798 66.8779 74.8867 67.6399 74.8867 68.8639L74.8837 68.8789ZM88.8282 64.6489C88.8282 66.5539 86.7324 67.4869 82.544 67.4449L79.289 67.4119V67.6819C79.298 67.7239 79.3101 67.7839 79.3221 67.8589L79.3853 69.6469C79.4275 70.6789 79.578 71.3869 79.834 71.7709L80.2345 71.9299H81.9177L82.27 72.1849L81.9177 72.4399L81.3877 72.4729C79.7406 72.4729 77.9159 72.3439 75.9075 72.0889L75.5401 71.8339L75.6034 71.6899L76.052 71.6089C76.1062 71.6089 76.576 71.6719 77.4612 71.8009L77.8135 71.6899C77.931 71.4559 77.9912 70.3009 77.9912 68.2249V62.5069C77.9912 62.0599 77.931 61.7389 77.8135 61.5499L77.4612 61.4389C76.7235 61.5469 76.1725 61.5979 75.8111 61.5979L75.5401 61.3729L75.8774 61.0849C76.1544 61.0219 76.6422 60.9739 77.3348 60.9409L82.4958 60.7159C82.7427 60.7069 82.9083 60.7009 82.9926 60.7009C84.3928 60.7009 85.6545 61.0039 86.7746 61.6099C88.1416 62.3539 88.8252 63.3679 88.8252 64.6429L88.8282 64.6489ZM87.2714 64.5199C87.2714 63.1039 86.4976 62.1139 84.9469 61.5499C84.4771 61.3789 83.9412 61.2949 83.345 61.2949H82.4958C82.6012 61.2949 81.8755 61.3279 80.3158 61.3909C80.0598 61.4029 79.8611 61.4059 79.7226 61.4059C79.4877 61.6399 79.3703 62.9719 79.3703 65.3989V66.5659C79.3703 66.8329 79.9213 66.9649 81.0204 66.9649C83.0288 66.9649 84.444 66.8599 85.269 66.6469C86.606 66.3049 87.2714 65.5999 87.2714 64.5229V64.5199ZM103.092 71.7229C102.845 71.9989 102.264 72.1369 101.345 72.1369C100.532 72.1369 99.9573 71.9119 99.614 71.4649C99.4755 71.2849 99.3249 70.8259 99.1653 70.0909L98.7317 68.1439C98.25 67.2169 97.181 66.7549 95.5249 66.7549C94.2542 66.7549 93.387 66.7909 92.9293 66.8659L92.848 67.2019C92.848 68.8519 92.9323 70.5079 93.104 72.1669C92.7607 72.2719 92.3512 72.3259 91.8694 72.3259C90.3638 72.3259 89.4123 72.1609 89.0149 71.8309L89.319 71.6059C89.5539 71.6269 90.0898 71.6869 90.9209 71.7829L91.2732 71.6719L91.2883 70.7299C91.3726 67.5889 91.4177 64.7899 91.4177 62.3299C91.4177 62.0119 91.3696 61.7539 91.2732 61.5619L90.9209 61.4509L89.2859 61.6099L89.0149 61.3699C89.2497 61.0939 89.8429 60.9559 90.7944 60.9559H91.0504C91.1678 60.9559 91.5683 60.9409 92.2518 60.9079L95.6182 60.7489C96.0789 60.7279 96.4734 60.7159 96.8046 60.7159C98.1626 60.7159 99.352 60.9619 100.379 61.4509C101.704 62.0899 102.366 63.0169 102.366 64.2289C102.366 64.9729 101.905 65.5819 100.987 66.0499C100.261 66.4339 99.4755 66.6409 98.6293 66.6739H98.7107C99.2888 66.9919 99.6501 67.2379 99.8007 67.4089H99.7856C99.9783 67.6639 100.132 68.1649 100.249 68.9089C100.388 69.7609 100.505 70.2979 100.602 70.5229C100.912 71.2159 101.424 71.5489 102.14 71.5279L102.815 71.5129L103.086 71.7199L103.092 71.7229ZM100.785 64.2019C100.785 62.9869 100.219 62.1589 99.087 61.7119C98.3704 61.4359 97.2774 61.2979 95.8019 61.2979C94.4439 61.2979 93.5948 61.3729 93.2545 61.5229C92.9865 61.6399 92.854 63.2149 92.854 66.2509H97.5664C98.2831 66.2509 98.9606 66.0919 99.6019 65.7709C100.394 65.3779 100.788 64.8559 100.788 64.2049L100.785 64.2019ZM110.674 71.8339C110.406 72.1969 109.783 72.3769 108.798 72.3769H106.169C105.142 72.3769 104.522 72.1969 104.311 71.8339L104.441 71.6899L104.634 71.6569C104.814 71.6569 105.076 71.6959 105.419 71.7769C105.763 71.8579 106.013 71.8969 106.172 71.8969L106.54 71.7679C106.753 71.4169 106.859 70.2409 106.859 68.2399V67.7599C106.859 67.6099 106.853 67.4089 106.844 67.1539C106.823 66.8359 106.811 66.6319 106.811 66.5479L106.762 64.9669C106.741 64.3189 106.714 63.7279 106.681 63.1939C106.627 62.1409 106.57 61.5649 106.503 61.4689L106.136 61.3399C105.549 61.4479 105.04 61.5199 104.612 61.5649L104.435 61.5169L104.305 61.3729C104.519 61.0219 105.139 60.8419 106.163 60.8299L106.13 60.8449C106.076 60.8449 106.26 60.8389 106.675 60.8299C107.048 60.8209 107.491 60.8209 108.006 60.8299L108.792 60.8449L108.759 60.8299C109.807 60.8509 110.442 61.0309 110.665 61.3729L110.568 61.5169L110.361 61.5649L108.807 61.3579L108.455 61.4689C108.262 61.8319 108.172 63.0499 108.184 65.1259L108.217 69.9649C108.217 70.9549 108.298 71.5579 108.458 71.7709L108.81 71.8999C109.484 71.7409 109.996 71.6599 110.349 71.6599L110.541 71.6929L110.671 71.8369L110.674 71.8339ZM127.985 61.3909L127.903 61.5499L127.422 61.6129C127.262 61.6129 126.795 61.5649 126.027 61.4689L125.642 61.5799L125.546 61.8679C125.546 61.9969 125.558 62.2189 125.579 62.5399L125.627 63.4969C125.639 63.6139 125.663 63.9829 125.708 64.5979L125.82 66.6409C125.841 66.9169 125.853 67.1479 125.853 67.3279C125.853 70.7119 125.323 72.4069 124.266 72.4069L123.591 72.2479L118.334 65.8609C116.997 64.2439 116.091 63.0919 115.609 62.4109C115.428 64.3279 115.338 66.5089 115.338 68.9569C115.338 70.9909 115.892 71.9809 117.006 71.9269L117.358 71.9119L117.711 72.1819L117.358 72.4219L116.862 72.4549C115.193 72.4549 113.694 72.3229 112.357 72.0559C111.972 71.9809 111.737 71.9059 111.652 71.8309L111.782 71.6389L112.456 71.6059C112.637 71.5969 113.01 71.6479 113.58 71.7649L113.932 71.6209C114.016 71.3539 114.061 71.1139 114.061 70.9009V62.2129C114.061 62.0959 114.019 61.8889 113.932 61.5889L113.628 61.4599L112.185 61.6189L111.737 61.5379L111.655 61.3789C112.02 61.0279 113.071 60.8509 114.814 60.8509C115.263 60.8509 115.663 60.9139 116.016 61.0429C117.94 62.9059 119.933 65.2549 121.996 68.0839L124.031 70.8619C124.212 69.2959 124.302 67.4869 124.302 65.4319C124.302 63.0259 124.004 61.6909 123.405 61.4239C123.32 61.3819 123.134 61.3399 122.845 61.2949L122.267 61.2139L122.155 61.0369L122.252 60.8599L123.019 60.7159C123.125 60.7159 123.17 60.7219 123.149 60.7309C123.116 60.7429 123.074 60.7519 123.019 60.7639V60.7789L123.149 60.8119H123.134C123.432 60.8449 123.763 60.8659 124.127 60.8749L125.281 60.9229C125.805 60.9439 126.578 60.9979 127.605 61.0819L127.991 61.3699L127.985 61.3909ZM141.8 67.1239C141.8 68.3599 141.661 69.4549 141.384 70.4149C141.053 71.5219 140.695 72.1069 140.309 72.1729L139.797 72.0919L139.62 71.7559L139.683 71.4859C138.647 72.3169 137.241 72.7309 135.467 72.7309C133.275 72.7309 131.45 72.0439 129.987 70.6699C128.683 69.4459 128.033 68.1049 128.033 66.6469C128.033 65.4019 128.518 64.2349 129.49 63.1489C130.345 62.2009 131.414 61.4839 132.697 60.9919C133.606 60.6409 134.588 60.4639 135.645 60.4639C137.376 60.4639 138.777 60.9649 139.845 61.9639L140.231 61.6759L140.457 61.0699L140.954 60.9409L141.45 61.0519C141.056 61.7449 140.857 62.4889 140.857 63.2869C140.857 64.0849 141.035 64.7629 141.387 65.3479L141.131 65.7139L140.553 65.8429L140.008 65.7469C139.773 65.4919 139.58 64.9099 139.43 64.0069C139.258 63.0169 138.942 62.3089 138.484 61.8829C137.864 61.3189 136.849 61.0369 135.44 61.0369C133.582 61.0369 132.095 61.7179 130.984 63.0799C130.086 64.1869 129.638 65.3959 129.638 66.7039C129.638 68.0119 130.086 69.1699 130.984 70.2319C132.083 71.5309 133.564 72.1789 135.422 72.1789C137.677 72.1789 139.12 71.3059 139.749 69.5599C139.951 69.0079 140.053 68.3929 140.053 67.7239C140.053 67.4779 139.144 67.3579 137.328 67.3579C136.837 67.3579 136.286 67.6399 135.678 68.2039C135.443 68.2039 135.251 68.1049 135.1 67.9099C134.949 67.7119 134.874 67.4989 134.874 67.2619C134.874 66.9739 135.329 66.8299 136.235 66.8299C136.298 66.8299 137.229 66.8899 139.023 67.0069C139.343 67.0279 139.577 67.0399 139.728 67.0399C139.921 67.0399 140.207 67.0039 140.586 66.9289C140.966 66.8539 141.252 66.8179 141.444 66.8179C141.679 66.8179 141.797 66.9199 141.797 67.1209L141.8 67.1239ZM159.83 68.6989C159.83 70.7989 157.966 71.8519 154.242 71.8519H147.211C146.313 71.8519 145.859 71.4679 145.859 70.6789C145.859 69.8899 146.316 69.5419 147.211 69.5419H154.242C155.982 69.5419 156.861 69.1729 156.861 68.4559V67.7389C156.861 67.0729 156.105 66.7579 154.594 66.7579H150.99C147.632 66.7579 145.946 65.8129 145.946 63.9379V62.8009C145.946 60.7519 147.668 59.7349 151.095 59.7349H152.748C153.627 59.7349 154.067 60.1189 154.067 60.8899C154.067 61.6609 153.627 62.0449 152.748 62.0449H151.113C149.653 62.0449 148.933 62.3599 148.933 62.9569V63.6739C148.933 64.2169 149.601 64.4959 150.935 64.4959H154.293C157.984 64.4959 159.83 65.5279 159.83 67.5619V68.6989ZM166.632 71.8519C163.046 71.8519 161.254 70.7149 161.254 68.4379V63.0979C161.254 60.8569 163.013 59.7349 166.545 59.7349H170.64C174.154 59.7349 175.913 60.8569 175.913 63.0979V68.4379C175.913 70.7149 174.121 71.8519 170.553 71.8519H166.632ZM172.944 63.1669C172.944 62.4319 172.17 62.0449 170.589 62.0449H166.599C165.018 62.0449 164.226 62.4289 164.226 63.1669V68.3329C164.226 69.1399 165.018 69.5419 166.599 69.5419H170.589C172.17 69.5419 172.944 69.1399 172.944 68.3329V63.1669ZM183.208 71.8519C179.64 71.8519 177.831 70.7149 177.831 68.4199V60.8539C177.831 60.0469 178.321 59.6449 179.306 59.6449C180.291 59.6449 180.8 60.0469 180.8 60.8539V68.3149C180.8 69.1219 181.661 69.5419 183.401 69.5419H190.483C191.363 69.5419 191.82 69.9109 191.82 70.6789C191.82 71.4469 191.363 71.8519 190.483 71.8519H183.205H183.208ZM205.126 68.9629H196.954L195.53 71.0989C195.16 71.6599 194.687 71.9389 194.088 71.9389C193.067 71.9389 192.507 71.5369 192.507 70.7659C192.507 70.4509 192.612 70.2049 192.928 69.7489L199.45 60.4159C199.803 59.9089 200.348 59.6449 201.016 59.6449C201.685 59.6449 202.194 59.9089 202.546 60.4159L209.086 69.7489C209.402 70.2049 209.508 70.4479 209.508 70.7659C209.508 71.5369 208.981 71.9389 207.942 71.9389C207.397 71.9389 206.921 71.6599 206.554 71.0989L205.129 68.9629H205.126ZM198.397 66.8089H203.687L201.034 62.8519L198.397 66.8089ZM213.636 67.4209V70.7299C213.636 71.5369 213.145 71.9389 212.142 71.9389C211.14 71.9389 210.667 71.5369 210.667 70.7299V60.6589C210.667 60.0469 211.07 59.7319 211.844 59.7319H220.122C223.919 59.7319 225.834 60.7999 225.834 62.9719V64.0759C225.834 66.1609 223.919 67.1929 220.122 67.1929H218.469L223.952 69.5929C224.548 69.8569 224.831 70.1719 224.831 70.7149C224.831 71.5219 224.286 71.9419 223.265 71.9419C222.862 71.9419 222.633 71.8729 222.139 71.6269L213.633 67.4239L213.636 67.4209ZM213.636 65.1109H220.281C222.004 65.1109 222.865 64.7599 222.865 64.0789V63.0799C222.865 62.3959 222.004 62.0479 220.281 62.0479H213.813C213.708 62.0479 213.639 62.1019 213.639 62.2069V65.1139L213.636 65.1109ZM59.6144 66.8029C59.4939 65.9029 59.1236 65.0539 58.5725 64.3309C57.8077 63.3289 56.3955 61.5769 54.4985 59.6449C54.4985 59.6449 52.9508 58.0369 52.3335 56.1079C52.3335 56.1079 51.0207 58.6519 50.56 61.8229C50.0571 61.4929 48.6599 60.5059 47.7777 59.1649C47.7777 59.1649 47.2688 61.5919 47.5338 64.4719C46.9195 64.1809 45.9228 63.6289 45.1671 62.8369C45.1671 62.8369 44.8479 75.3829 55.4139 73.7389C55.4139 73.7389 55.4169 73.7269 55.4229 73.7029C55.995 73.7929 56.6063 73.8499 57.2627 73.8679C57.2627 73.8679 57.4042 73.5889 57.5668 73.1089C57.5999 73.1209 57.6331 73.1299 57.6692 73.1419C57.6692 73.1419 60.1112 70.4719 59.6144 66.7999V66.8029Z" fill="white"/>
</svg>
