<svg width="269" height="148" viewBox="0 0 269 148" fill="none" xmlns="http://www.w3.org/2000/svg">
<path d="M118.642 92.4516V90.1724C120.086 90.2286 122.007 90.2257 123.161 89.2252C123.663 88.7901 126.805 83.7581 126.521 83.5242C126.039 83.5479 125.549 83.5982 125.277 83.1365L115.372 65.6665L102.502 74.2121L116.529 83.7107H112.204C111.451 83.7107 101.408 76.0887 99.7551 75.3102L97.6957 75.1622V83.7107H94.8145V57.7841C95.4332 57.3253 97.0561 57.3193 97.6957 57.7841V72.6936L99.7999 72.59L110.751 65.5629L118.319 65.5067L127.316 81.1177L127.86 81.4315L135.933 65.4771H139.199C136.028 71.6694 133.015 77.9831 129.692 84.0955C128.457 86.3629 126.296 90.8384 123.878 91.8359L121.711 92.4486H118.636L118.642 92.4516Z" fill="white"/>
<path d="M69.0645 77.6367H71.9487C71.7216 79.978 72.5854 81.1413 74.9466 81.4136C78.0879 81.7807 83.3394 81.8784 86.4329 81.4136C88.5221 81.0999 89.6579 80.6973 89.4128 78.3234C89.2036 76.2988 87.739 75.7186 85.877 75.5528C81.8988 75.1947 74.7732 76.3698 71.3719 74.8839C68.5444 73.6525 68.6191 68.3452 70.8937 66.6225C72.962 65.0537 77.3526 65.3349 79.9231 65.2905C82.6221 65.2461 85.7843 65.036 88.4863 65.5688C90.9222 66.0483 91.8009 68.2624 91.5618 70.5208L88.8629 70.6096C88.9436 68.4547 87.6314 67.9042 85.6976 67.7532C82.5922 67.5135 77.5678 67.3063 74.6029 68.0078C73.2579 68.3245 72.2088 68.7922 72.1609 70.3432C72.0533 73.91 76.0047 72.9717 78.3958 73.0724C78.8501 73.0931 79.2715 73.2648 79.7258 73.2766C82.6908 73.3624 88.4115 72.6668 90.7698 74.3244C93.128 75.982 93.0025 81.7807 90.2796 83.1216C88.0469 84.2197 79.0623 84.2671 76.2766 84.0924C73.1383 83.8971 69.7399 83.5152 69.0704 79.9159V77.6367H69.0645Z" fill="white"/>
<path d="M199.923 75.1682H179.171C179.115 77.2047 179.321 79.6674 181.347 80.7122C183.679 81.914 192.574 82.0147 195.001 81.0319C196.319 80.4991 196.884 79.5963 197.045 78.2081H199.926C200.15 82.4853 196.644 83.4473 193.082 83.8824C189.982 84.2613 182.429 84.3235 179.763 82.8494C176.138 80.8425 175.976 75.2688 176.505 71.6783C177.115 67.5402 178.983 65.9063 183.135 65.3143C186.067 64.897 193.751 64.8851 196.346 66.075C198.39 67.0134 199.923 69.8668 199.923 72.0335V75.1682ZM197.042 72.6995C196.991 70.9206 196.68 69.2422 194.926 68.4282C192.346 67.2265 183.786 67.191 181.24 68.3838C179.566 69.1682 179.025 70.9738 179.171 72.7025H197.042V72.6995Z" fill="white"/>
<path d="M173.983 83.7167H171.293V71.8441C171.293 70.9768 170.483 69.3547 169.741 68.819C167.467 67.1673 161.504 67.4899 158.793 68.0405C156.677 68.4697 155.287 69.2926 154.809 71.5096C154.758 71.7375 154.573 73.0163 154.573 73.1731V83.7137H151.883V65.4801H154.573V68.8989C155.586 67.5255 156.121 66.3829 157.882 65.8057C160.536 64.9355 167.589 64.9325 170.19 65.9004C171.926 66.5487 173.98 68.5851 173.98 70.5121V83.7137L173.983 83.7167Z" fill="white"/>
<path d="M144.391 57.5029H141.701V83.7137H144.391V57.5029Z" fill="white"/>
<path d="M149.579 65.48H146.697V83.7136H149.579V65.48Z" fill="white"/>
<path d="M149.579 57.5029V60.9217H146.697V57.7871C147.421 57.1951 148.67 57.6273 149.579 57.5029Z" fill="white"/>
<path d="M139.396 87.23C139.48 86.9636 140.072 86.8364 140.326 86.9814L142.568 90.1723L144.809 86.9814L145.56 87.0287C145.805 87.2004 145.82 90.0065 145.736 90.4594C145.676 90.788 145.53 90.9922 145.162 90.9359V87.5172L142.568 90.933L139.973 87.5172V90.6518L139.686 90.933L139.399 90.6518V87.233L139.396 87.23Z" fill="white"/>
<path d="M193.729 87.1798C193.872 87.3189 194.055 87.9849 193.968 88.0826C193.409 88.1389 193.54 87.5469 193.026 87.4048C192.45 87.2449 190.339 87.1946 189.93 87.6031C189.628 87.905 189.631 90.0806 189.921 90.2789C191.084 90.3914 192.213 90.6223 193.355 90.3263L193.582 89.4117C193.415 89.2518 191.786 89.7047 191.472 89.1245C191.472 88.6569 193.57 88.8877 193.968 88.8374C194.025 89.8557 194.126 90.717 192.898 90.9153C192.249 91.0189 189.912 90.9864 189.449 90.5483C188.973 90.0984 189.039 87.7126 189.55 87.2272C189.996 86.8039 193.328 86.7861 193.729 87.1769V87.1798Z" fill="white"/>
<path d="M137.184 90.3648C137.411 90.2968 137.506 89.9416 137.483 89.7048C137.342 88.3816 133.985 89.6278 133.591 88.574C132.823 86.5168 136.831 86.5968 137.575 87.319C138.319 88.0412 137.542 88.4053 137.285 87.9406C137.234 87.8459 137.378 87.6328 137.157 87.5084C136.487 87.1384 133.615 87.1118 134.03 88.352C134.344 89.2904 138.869 87.4877 137.829 90.5276C137.163 91.0516 134.102 91.0664 133.719 90.5602C133.579 90.3737 133.624 89.8676 133.436 89.6071L133.917 89.6012L134.299 90.3648H137.181H137.184Z" fill="white"/>
<path d="M156.594 86.9429C157.514 87.1382 157.822 88.6508 156.884 89.1274C157.613 89.3257 157.153 90.2847 157.266 90.93C156.531 91.0721 157.084 90.0923 156.788 89.598C156.399 88.9468 154.143 89.3138 153.423 89.2191L153.231 90.8353L152.846 90.6429V87.2241L153.133 86.9399C154.14 87.0849 155.664 86.7445 156.591 86.9399L156.594 86.9429ZM153.423 88.8432H156.594C156.845 88.8432 156.988 88.0854 156.854 87.8279C156.797 87.6651 156.316 87.3217 156.208 87.3217H153.423V88.8402V88.8432Z" fill="white"/>
<path d="M175.714 90.3649V86.946H176.099V90.9361C175.74 90.9835 175.531 90.9361 175.223 90.7556C174.234 90.1843 173.003 88.1449 171.87 87.5173V90.652L171.293 90.9361V86.946C173.179 87.0704 174.195 89.4236 175.714 90.3649Z" fill="white"/>
<path d="M181.67 86.9429V87.3247H178.403V88.6537H181.476V89.0326H178.403V90.3646H181.67V90.9329H177.826V86.9429H181.67Z" fill="white"/>
<path d="M186.955 86.943C187.538 87.0674 187.903 87.9169 187.744 88.4674C187.675 88.7042 187.305 88.9677 187.308 89.1275C187.308 89.3081 187.941 90.3559 187.628 90.9331C186.892 91.0752 187.445 90.0954 187.149 89.6011C186.761 88.9499 184.504 89.317 183.784 89.2222L183.593 90.8384L183.207 90.646V86.943C184.295 87.0999 185.951 86.7299 186.955 86.943ZM183.784 88.8434H186.955C187.206 88.8434 187.35 88.0856 187.215 87.8281C187.158 87.6653 186.677 87.3219 186.57 87.3219H183.784V88.8404V88.8434Z" fill="white"/>
<path d="M169.758 86.9429V87.3218H166.587C166.153 87.6296 166.312 88.1891 166.3 88.6508H169.566V89.0297H166.3V90.3587H169.758V90.93H165.914V86.9399H169.758V86.9429Z" fill="white"/>
<path d="M151.883 90.9331C151.324 91.4274 151.046 89.8763 150.639 89.9711L147.791 89.9829C147.54 90.0451 147.352 90.8827 147.175 90.939C146.963 91.0071 146.562 90.9982 146.697 90.6519C146.822 90.3322 148.466 87.6504 148.72 87.3337C149.064 86.9104 149.399 86.7151 149.743 87.2538C149.919 87.6711 152.038 90.791 151.88 90.9331H151.883ZM150.538 89.6011L149.288 87.5172L148.042 89.3199C147.991 89.7076 148.057 89.5655 148.326 89.6011C149.007 89.6899 149.835 89.5359 150.538 89.6011Z" fill="white"/>
<path d="M199.733 86.9458C199.425 87.6326 197.975 88.4791 197.718 89.0356C197.443 89.6306 197.787 90.3469 197.521 90.933C196.744 90.9182 197.189 89.5714 196.944 89.0356C196.699 88.4998 195.235 87.6296 194.93 86.9458C196.042 86.8097 196.532 88.1121 197.357 88.639C197.868 88.7278 198.932 86.709 199.733 86.9458Z" fill="white"/>
<path d="M162.552 86.9429C162.617 86.9607 162.847 87.2005 162.839 87.3218C162.151 87.4136 161.233 87.0673 160.725 87.6089V90.933H160.34V87.3248H158.418V86.9459C159.548 87.1324 161.541 86.6913 162.549 86.9459L162.552 86.9429Z" fill="white"/>
<path d="M169.288 58.3166H107.49C111.468 45.1476 123.798 35.5483 138.389 35.5483C152.981 35.5483 165.31 45.1476 169.288 58.3166Z" fill="url(#paint0_linear_2274_2830)"/>
<defs>
<linearGradient id="paint0_linear_2274_2830" x1="138.389" y1="35.5483" x2="138.389" y2="58.3166" gradientUnits="userSpaceOnUse">
<stop stop-color="white"/>
<stop offset="1" stop-color="#002D52" stop-opacity="0"/>
</linearGradient>
</defs>
</svg>
