<svg width="900" height="500" viewBox="0 0 900 500" fill="none" xmlns="http://www.w3.org/2000/svg">
<path d="M301.76 220.33L313.21 231.78C318.25 231.32 323.44 232.93 327.29 236.77C334.16 243.64 334.16 254.81 327.29 261.68C320.42 268.55 309.25 268.55 302.38 261.68C298.54 257.83 296.92 252.64 297.39 247.6L285.94 236.16C280.65 247.86 282.72 262.09 292.35 271.72C304.77 284.14 324.9 284.14 337.33 271.72C349.75 259.3 349.75 239.16 337.33 226.74C331.15 220.56 323.07 217.49 314.98 217.49C310.47 217.49 305.97 218.44 301.78 220.33H301.76Z" fill="white"/>
<path d="M287.1 221.5C285.08 223.52 285.08 226.78 287.1 228.79L304.25 245.94C306.26 247.95 309.53 247.95 311.54 245.94C313.56 243.92 313.56 240.66 311.54 238.65L294.4 221.5C293.39 220.49 292.07 219.99 290.75 219.99C289.43 219.99 288.11 220.5 287.11 221.5H287.1Z" fill="white"/>
<path d="M261.68 235.79C260.87 234.5 259.87 233.36 258.66 232.38C257.45 231.4 256.09 230.64 254.56 230.09C253.03 229.55 251.43 229.27 249.76 229.27C246.7 229.27 244.11 229.86 241.98 231.04C239.85 232.22 238.12 233.81 236.8 235.79C235.47 237.78 234.51 240.04 233.9 242.58C233.3 245.11 232.99 247.74 232.99 250.44C232.99 253.14 233.29 255.55 233.9 258C234.5 260.45 235.47 262.66 236.8 264.61C238.12 266.57 239.85 268.14 241.98 269.32C244.11 270.49 246.7 271.09 249.76 271.09C253.9 271.09 257.15 269.82 259.48 267.29C261.82 264.75 263.24 261.41 263.76 257.27H276.9C276.55 261.12 275.65 264.61 274.22 267.72C272.78 270.84 270.88 273.48 268.52 275.68C266.16 277.87 263.39 279.53 260.22 280.69C257.05 281.84 253.57 282.42 249.77 282.42C245.04 282.42 240.79 281.6 237.02 279.96C233.25 278.31 230.06 276.06 227.47 273.17C224.87 270.29 222.88 266.91 221.51 263.02C220.12 259.13 219.43 254.94 219.43 250.44C219.43 245.94 220.12 241.56 221.51 237.6C222.89 233.65 224.88 230.21 227.47 227.27C230.06 224.33 233.24 222.03 237.02 220.36C240.8 218.69 245.05 217.86 249.77 217.86C253.17 217.86 256.38 218.35 259.41 219.33C262.43 220.31 265.14 221.74 267.53 223.61C269.92 225.48 271.9 227.8 273.45 230.57C275 233.33 275.99 236.51 276.39 240.08H263.25C263.02 238.52 262.5 237.09 261.7 235.8L261.68 235.79Z" fill="white"/>
<path d="M366.859 219.34L392.619 260.74H392.789V219.34H405.489V281.04H391.919L366.249 239.73H366.069V281.04H353.369V219.34H366.849H366.859Z" fill="white"/>
<path d="M210.17 281.04H196.6V219.34H210.17V281.04Z" fill="white"/>
<path fill-rule="evenodd" clip-rule="evenodd" d="M416.901 219.34H443.181C444.901 219.34 446.821 219.54 448.931 219.94C451.031 220.34 452.991 221.16 454.801 222.4C456.611 223.64 458.131 225.4 459.341 227.67C460.551 229.95 461.151 232.93 461.151 236.62C461.151 242.04 459.481 246.21 456.131 249.15C452.791 252.08 448.011 253.55 441.791 253.55H420.701V281.04H416.891V219.33L416.901 219.34ZM420.701 250.27H442.391C445.151 250.27 447.501 249.85 449.431 249.02C451.361 248.19 452.901 247.11 454.061 245.78C455.211 244.46 456.041 242.99 456.561 241.38C457.081 239.77 457.341 238.15 457.341 236.54C457.341 235.39 457.161 234.01 456.821 232.43C456.481 230.85 455.781 229.32 454.741 227.85C453.701 226.38 452.251 225.14 450.381 224.14C448.501 223.13 446.011 222.63 442.901 222.63H420.691V250.28L420.701 250.27Z" fill="white"/>
<path fill-rule="evenodd" clip-rule="evenodd" d="M523.889 250.19C523.889 254.68 523.229 258.91 521.909 262.85C520.579 266.8 518.669 270.23 516.159 273.13C513.649 276.04 510.579 278.34 506.949 280C503.319 281.67 499.199 282.5 494.589 282.5C489.979 282.5 485.849 281.66 482.189 280C478.529 278.33 475.439 276.04 472.939 273.13C470.439 270.22 468.519 266.79 467.189 262.85C465.869 258.9 465.199 254.68 465.199 250.19C465.199 245.7 465.869 241.47 467.189 237.53C468.509 233.58 470.429 230.15 472.939 227.25C475.439 224.34 478.529 222.05 482.189 220.38C485.849 218.71 489.979 217.88 494.589 217.88C499.199 217.88 503.319 218.72 506.949 220.38C510.579 222.05 513.649 224.34 516.159 227.25C518.659 230.16 520.579 233.59 521.909 237.53C523.229 241.48 523.889 245.7 523.889 250.19ZM469.009 250.19C469.009 254.16 469.589 257.91 470.739 261.42C471.889 264.94 473.559 268 475.759 270.63C477.949 273.25 480.629 275.34 483.789 276.9C486.959 278.45 490.559 279.24 494.589 279.24C498.619 279.24 502.209 278.46 505.349 276.9C508.489 275.34 511.149 273.26 513.339 270.63C515.529 268.01 517.199 264.94 518.359 261.42C519.509 257.91 520.089 254.16 520.089 250.19C520.089 246.22 519.509 242.47 518.359 238.96C517.209 235.44 515.529 232.38 513.339 229.75C511.149 227.13 508.489 225.04 505.349 223.48C502.209 221.93 498.619 221.14 494.589 221.14C490.559 221.14 486.959 221.92 483.789 223.48C480.619 225.04 477.939 227.12 475.759 229.75C473.569 232.37 471.899 235.44 470.739 238.96C469.589 242.47 469.009 246.22 469.009 250.19Z" fill="white"/>
<path d="M526.051 219.34H529.941L546.011 276.98H546.191L562.521 219.34H567.271L583.861 276.98H584.041L599.851 219.34H603.921L586.201 281.04H581.881L564.941 222.62H564.771L548.091 281.04H543.861L526.061 219.34H526.051Z" fill="white"/>
<path d="M608.85 219.34H650.34V222.62H612.66V247.34H648.09V250.62H612.66V277.76H650.77V281.04H608.85V219.34Z" fill="white"/>
<path fill-rule="evenodd" clip-rule="evenodd" d="M657.25 219.34H683C685.71 219.34 688.25 219.61 690.6 220.16C692.96 220.71 695.04 221.6 696.83 222.84C698.62 224.08 700.02 225.71 701.02 227.72C702.03 229.74 702.53 232.25 702.53 235.24C702.53 239.39 701.36 242.89 699.03 245.74C696.7 248.6 693.46 250.37 689.31 251.06V251.23C692.13 251.58 694.37 252.33 696.01 253.48C697.66 254.63 698.88 256.05 699.69 257.71C700.49 259.38 701.01 261.23 701.24 263.24C701.47 265.26 701.58 267.28 701.58 269.29V272.84C701.58 273.99 701.64 275.08 701.76 276.08C701.87 277.09 702.06 278.02 702.32 278.89C702.58 279.76 702.94 280.48 703.4 281.05H699.17C698.36 279.62 697.92 277.93 697.83 276C697.74 274.07 697.7 272.07 697.7 269.99C697.7 267.91 697.62 265.85 697.44 263.81C697.27 261.77 696.72 259.93 695.8 258.32C694.88 256.71 693.42 255.41 691.43 254.43C689.45 253.45 686.63 252.96 683 252.96H661.05V281.05H657.25V219.35V219.34ZM683 249.67C685.25 249.67 687.34 249.4 689.27 248.85C691.2 248.3 692.86 247.45 694.24 246.3C695.62 245.15 696.72 243.68 697.52 241.9C698.33 240.11 698.73 237.98 698.73 235.5C698.73 233.2 698.3 231.22 697.44 229.58C696.57 227.93 695.42 226.6 693.99 225.56C692.55 224.53 690.87 223.77 688.97 223.32C687.07 222.86 685.08 222.63 683.01 222.63H661.06V249.68H683.01L683 249.67Z" fill="white"/>
</svg>
