<svg width="900" height="500" viewBox="0 0 900 500" fill="none" xmlns="http://www.w3.org/2000/svg">
<path d="M615.31 289.72C614.37 290.66 613.29 291.07 612.08 291.07C610.87 291.07 609.66 290.67 608.85 289.72C607.91 288.78 607.5 287.7 607.5 286.49C607.5 285.28 607.9 284.2 608.85 283.26C609.79 282.32 610.87 281.91 612.08 281.91C613.29 281.91 614.5 282.31 615.31 283.26C616.25 284.2 616.66 285.28 616.66 286.49C616.66 287.7 616.26 288.78 615.31 289.72ZM609.26 283.67C608.45 284.48 608.05 285.42 608.05 286.5C608.05 287.58 608.45 288.52 609.26 289.33C610.07 290.14 611.01 290.54 612.09 290.54C613.17 290.54 614.11 290.14 614.92 289.33C615.73 288.52 616.13 287.58 616.13 286.5C616.13 285.42 615.73 284.48 614.92 283.67C614.11 282.86 613.17 282.46 612.09 282.46C611.01 282.46 610.07 282.86 609.26 283.67ZM611.95 283.94H613.3C613.84 284.21 614.11 284.61 614.11 285.29C614.11 285.97 613.98 286.1 613.57 286.23C613.44 286.23 613.17 286.23 612.9 286.5C613.3 286.5 613.57 286.77 613.71 287.04C613.84 287.31 613.98 287.58 613.98 287.85V288.93H613.17V288.39C613.17 287.85 613.04 287.45 612.63 287.18H611.02V289.2H610.08V284.09H611.96V283.96L611.95 283.94ZM612.89 284.74H611.01V286.62H612.62C613.02 286.62 613.16 286.22 613.16 285.81C613.29 285.41 613.16 285.14 612.89 285V284.73V284.74Z" fill="white"/>
<path d="M550.721 315.83C549.371 315.83 548.301 316.23 547.621 317.18C546.811 318.12 546.411 319.2 546.411 320.81C546.411 322.42 546.811 323.64 547.491 324.44C548.171 325.24 549.241 325.79 550.591 325.79C551.941 325.79 552.341 325.79 553.421 325.39V326.6C552.611 326.87 551.541 327 550.321 327C548.571 327 547.221 326.46 546.281 325.39C545.341 324.31 544.801 322.83 544.801 320.81C544.801 318.79 545.071 318.52 545.471 317.58C545.871 316.64 546.551 315.97 547.491 315.43C548.301 314.89 549.371 314.62 550.591 314.62C551.811 314.62 553.011 314.89 553.951 315.29L553.411 316.5C552.601 315.96 551.661 315.83 550.721 315.83Z" fill="white"/>
<path d="M563.51 322.15C563.51 323.63 563.11 324.71 562.43 325.65C561.76 326.46 560.68 326.86 559.33 326.86C557.98 326.86 557.85 326.86 557.18 326.32C556.51 325.78 556.1 325.38 555.7 324.71C555.3 324.04 555.16 323.23 555.16 322.29C555.16 320.81 555.56 319.73 556.24 318.93C556.92 318.13 557.99 317.72 559.34 317.72C560.69 317.72 561.63 318.12 562.3 318.93C563.11 319.6 563.51 320.81 563.51 322.16V322.15ZM556.64 322.15C556.64 323.36 556.91 324.17 557.31 324.84C557.71 325.38 558.39 325.78 559.33 325.78C560.27 325.78 560.94 325.51 561.35 324.84C561.75 324.3 562.02 323.36 562.02 322.15C562.02 320.94 561.75 320.13 561.35 319.59C560.95 319.05 560.14 318.65 559.33 318.65C558.52 318.65 557.72 318.92 557.31 319.59C556.9 320.26 556.64 321.07 556.64 322.15Z" fill="white"/>
<path d="M576.961 326.73V320.81C576.961 320.14 576.831 319.6 576.561 319.2C576.291 318.8 575.751 318.66 575.081 318.66C574.411 318.66 573.601 318.93 573.201 319.33C572.801 319.87 572.531 320.54 572.531 321.62V326.6H571.181V320.68C571.181 320.01 571.051 319.47 570.781 319.07C570.511 318.67 569.971 318.53 569.301 318.53C568.631 318.53 567.821 318.8 567.421 319.34C567.021 319.88 566.881 320.69 566.881 321.9V326.61H565.531V317.59H566.611L566.881 318.8C567.151 318.4 567.551 317.99 567.961 317.72C568.361 317.45 568.901 317.32 569.571 317.32C570.921 317.32 571.861 317.86 572.401 318.8C572.671 318.26 573.071 317.99 573.611 317.72C574.151 317.45 574.691 317.32 575.361 317.32C576.441 317.32 577.111 317.59 577.651 318.13C578.191 318.67 578.461 319.48 578.461 320.69V326.61H576.981V326.74L576.961 326.73Z" fill="white"/>
<path d="M585.311 326.86C584.771 326.86 584.231 326.86 583.701 326.59C583.171 326.32 582.761 326.05 582.491 325.65H582.361C582.361 326.19 582.491 326.73 582.491 327.13V330.9H581.141V317.85H582.221V319.06H582.351C582.751 318.52 583.161 318.25 583.561 317.98C583.961 317.71 584.501 317.71 585.171 317.71C586.381 317.71 587.321 318.11 588.001 318.92C588.681 319.73 588.941 320.94 588.941 322.42C588.941 323.9 588.671 325.11 588.001 325.92C587.331 326.73 586.521 326.86 585.311 326.86ZM585.171 318.65C584.231 318.65 583.561 318.92 583.151 319.46C582.741 320 582.481 320.81 582.481 321.88V322.15C582.481 323.36 582.751 324.3 583.151 324.84C583.551 325.38 584.231 325.65 585.171 325.65C586.111 325.65 586.521 325.38 587.051 324.71C587.451 324.04 587.721 323.23 587.721 322.15C587.721 321.07 587.451 320.13 587.051 319.59C586.511 319.05 585.971 318.65 585.171 318.65Z" fill="white"/>
<path d="M597.01 326.73L596.74 325.38C596.34 325.92 595.8 326.32 595.39 326.59C594.99 326.59 594.45 326.86 593.78 326.86C593.11 326.86 592.17 326.59 591.63 326.19C591.09 325.79 590.82 325.11 590.82 324.17C590.82 322.29 592.3 321.34 595.13 321.34H596.61V320.8C596.61 320.13 596.48 319.59 596.21 319.19C595.94 318.92 595.4 318.65 594.73 318.65C594.06 318.65 593.12 318.92 592.17 319.32L591.77 318.24C592.17 317.97 592.71 317.84 593.25 317.7C593.79 317.56 594.33 317.43 594.86 317.43C595.94 317.43 596.74 317.7 597.28 318.1C597.82 318.64 598.09 319.31 598.09 320.39V326.58H597.01V326.71V326.73ZM593.92 325.78C594.73 325.78 595.4 325.51 595.94 325.11C596.48 324.71 596.61 324.03 596.61 323.09V322.28H595.26C594.18 322.28 593.38 322.55 592.97 322.82C592.43 323.09 592.3 323.63 592.3 324.17C592.3 324.71 592.43 324.98 592.7 325.25C592.97 325.52 593.37 325.79 593.91 325.79L593.92 325.78Z" fill="white"/>
<path d="M606.971 326.73V320.94C606.971 320.27 606.841 319.59 606.431 319.33C606.161 318.93 605.621 318.79 604.821 318.79C604.021 318.79 603.211 319.06 602.801 319.6C602.391 320.14 602.131 320.95 602.131 322.16V326.87H600.781V317.85H601.861L602.131 319.06C602.401 318.66 602.801 318.25 603.341 317.98C603.881 317.71 604.421 317.58 605.091 317.58C606.171 317.58 606.971 317.85 607.511 318.39C608.051 318.93 608.321 319.74 608.321 320.95V326.87H606.971V326.74V326.73Z" fill="white"/>
<path d="M609.66 317.71H611.14L613.16 322.82C613.56 324.03 613.83 324.84 613.97 325.38C614.1 325.11 614.24 324.57 614.37 323.9C614.5 323.23 615.31 321.21 616.66 317.71H618.14L614.24 327.94C613.84 329.02 613.43 329.69 612.89 330.09C612.35 330.49 611.81 330.76 611.01 330.76H609.8V329.68H610.88C611.82 329.68 612.49 329.14 612.9 328.07L613.44 326.72L609.67 317.7L609.66 317.71Z" fill="white"/>
<path d="M453.701 326.73L452.221 322.96H447.381L445.901 326.73H444.551L449.261 314.62H450.471L455.181 326.73H453.701ZM451.681 321.61L450.331 317.84C450.331 317.44 449.931 316.76 449.791 316.09C449.791 316.63 449.521 317.17 449.251 317.84L447.901 321.61H451.671H451.681Z" fill="white"/>
<path d="M462.18 314.75H465.54C467.15 314.75 468.23 315.02 469.04 315.42C469.71 315.96 470.12 316.63 470.12 317.71C470.12 318.79 469.99 319.06 469.58 319.46C469.17 319.86 468.64 320.27 467.83 320.4C469.71 320.8 470.52 321.75 470.52 323.36C470.52 324.97 470.12 325.24 469.44 325.92C468.77 326.46 467.69 326.86 466.34 326.86H462.17V314.75H462.18ZM463.52 319.86H465.81C466.75 319.86 467.56 319.86 467.96 319.46C468.36 319.19 468.63 318.65 468.63 317.85C468.63 317.05 468.36 316.64 467.96 316.37C467.42 316.1 466.75 315.97 465.67 315.97H463.65V319.87H463.52V319.86ZM463.52 321.08V325.52H466.08C467.02 325.52 467.83 325.52 468.23 324.98C468.77 324.58 468.9 324.04 468.9 323.23C468.9 322.42 468.63 321.88 468.09 321.62C467.55 321.22 466.88 321.08 465.8 321.08H463.51H463.52Z" fill="white"/>
<path d="M476.979 317.58H478.059V318.79H476.979C476.309 318.79 475.629 319.06 475.099 319.73C474.559 320.27 474.289 321.08 474.289 321.88V326.72H472.939V317.7H474.019V319.31H474.149C474.419 318.77 474.819 318.23 475.359 317.96C475.899 317.69 476.299 317.56 476.969 317.56L476.979 317.58Z" fill="white"/>
<path d="M487.071 322.15C487.071 323.63 486.671 324.71 485.991 325.65C485.321 326.46 484.241 326.86 482.891 326.86C481.541 326.86 481.411 326.86 480.741 326.32C480.071 325.78 479.661 325.38 479.261 324.71C478.861 324.04 478.721 323.23 478.721 322.29C478.721 320.81 479.121 319.73 479.801 318.93C480.481 318.13 481.551 317.72 482.901 317.72C484.251 317.72 485.191 318.12 485.861 318.93C486.801 319.6 487.071 320.81 487.071 322.16V322.15ZM480.211 322.15C480.211 323.36 480.481 324.17 480.881 324.84C481.281 325.38 481.961 325.78 482.901 325.78C483.841 325.78 484.511 325.51 484.921 324.84C485.321 324.3 485.591 323.36 485.591 322.15C485.591 320.94 485.321 320.13 484.921 319.59C484.521 319.05 483.711 318.65 482.901 318.65C482.091 318.65 481.291 318.92 480.881 319.59C480.481 320.26 480.211 321.07 480.211 322.15Z" fill="white"/>
<path d="M496.901 322.15C496.901 323.63 496.501 324.71 495.821 325.65C495.151 326.46 494.071 326.86 492.721 326.86C491.371 326.86 491.241 326.86 490.571 326.32C489.901 325.78 489.491 325.38 489.091 324.71C488.691 324.04 488.551 323.23 488.551 322.29C488.551 320.81 488.951 319.73 489.631 318.93C490.311 318.13 491.381 317.72 492.731 317.72C494.081 317.72 495.021 318.12 495.691 318.93C496.631 319.6 496.901 320.81 496.901 322.16V322.15ZM490.031 322.15C490.031 323.36 490.301 324.17 490.701 324.84C491.101 325.38 491.781 325.78 492.721 325.78C493.661 325.78 494.331 325.51 494.741 324.84C495.141 324.3 495.411 323.36 495.411 322.15C495.411 320.94 495.141 320.13 494.741 319.59C494.341 319.05 493.531 318.65 492.721 318.65C491.911 318.65 491.111 318.92 490.701 319.59C490.291 320.26 490.031 321.07 490.031 322.15Z" fill="white"/>
<path d="M500.389 322.15C500.659 321.88 500.929 321.34 501.469 320.8L504.429 317.7H506.039L502.409 321.6L506.309 326.71H504.699L501.469 322.4L500.389 323.34V326.7H499.039V313.92H500.389V320.65C500.389 321.05 500.259 321.46 500.389 322.13V322.15Z" fill="white"/>
<path d="M521.929 326.86C520.579 326.86 519.509 326.46 518.829 325.65C518.019 324.84 517.619 323.77 517.619 322.29C517.619 320.81 518.019 319.73 518.699 318.79C519.369 317.98 520.309 317.44 521.529 317.44C522.749 317.44 523.549 317.84 524.219 318.52C524.889 319.19 525.159 320.27 525.159 321.48V322.29H518.969C518.969 323.37 519.239 324.17 519.779 324.71C520.319 325.25 520.989 325.52 521.929 325.52C522.869 325.52 523.809 325.25 524.759 324.85V326.06C524.219 326.33 523.819 326.46 523.409 326.46C522.999 326.46 522.469 326.86 521.929 326.86ZM521.519 318.65C520.849 318.65 520.169 318.92 519.769 319.32C519.369 319.86 519.099 320.4 518.959 321.34H523.669C523.669 320.53 523.539 319.86 523.129 319.32C522.719 318.78 522.319 318.65 521.519 318.65Z" fill="white"/>
<path d="M311.87 179.11C309.04 176.28 304.6 174.53 300.7 174.53C296.8 174.53 291.41 176.14 291.41 180.99C291.41 190.81 316.04 190.68 316.04 203.87C316.04 217.06 307.97 218.67 296.8 218.67C285.63 218.67 288.05 218 284.02 216.52L282 207.64C286.17 211.27 292.09 213.56 297.61 213.56C303.13 213.56 307.84 211.14 307.84 206.16C307.84 194.99 283.21 197.01 283.21 181.8C283.21 166.59 292.5 169.29 301.11 169.29C309.72 169.29 308.38 169.83 311.74 170.9V179.11H311.87Z" fill="white"/>
<path d="M335.961 208.31C335.961 212.35 335.961 215.17 339.731 217.46V217.73H325.601V217.46C329.231 216.11 328.701 210.87 328.701 207.64V175.75H322.381C319.281 175.75 316.061 176.56 313.901 178.58H313.631L316.191 170.1H316.461C317.271 170.5 318.211 170.5 319.151 170.64H347.681C348.891 170.64 350.101 170.64 350.911 170.1H351.181L348.891 178.58H348.621C347.681 176.02 344.851 175.75 342.431 175.75H335.971V208.31H335.961Z" fill="white"/>
<path d="M364.889 176.69L357.889 194.72H372.019L364.889 176.69ZM356.009 199.97L352.239 210.06C350.759 214.1 350.219 216.12 353.719 217.46V217.73H340.529V217.46C344.699 215.44 345.909 211.4 347.529 207.23L359.369 177.49C360.309 174.93 361.789 171.97 358.289 170.9V170.63H369.589L384.529 207.37C386.139 211.41 387.489 215.44 391.529 217.6V217.87H376.859V217.6C380.359 215.99 379.819 215.18 377.799 210.2L373.899 200.11H355.999V199.98L356.009 199.97Z" fill="white"/>
<path d="M399.47 208.31C399.47 212.35 399.47 215.17 403.24 217.46V217.73H390.59V217.46C394.36 215.31 394.36 212.35 394.36 208.31V179.78C394.36 175.74 394.36 172.92 390.59 170.76H401.09C401.36 171.7 401.63 172.11 402.17 172.64L403.11 174.12L429.35 207.22V179.77C429.35 175.73 429.35 172.91 425.58 170.75H438.23V171.02C434.46 173.17 434.46 176 434.46 180.04V220.14C429.35 218.39 427.19 216.1 423.96 211.93L399.47 180.85V208.44V208.31Z" fill="white"/>
<path d="M449.129 212.08C450.879 212.48 452.629 212.62 454.379 212.62C465.009 212.62 474.559 207.1 474.559 194.72C474.559 182.34 467.559 175.88 455.589 175.88C443.619 175.88 451.279 176.15 449.129 176.69V212.08ZM441.719 180.32C441.719 177.09 442.259 171.84 438.619 170.77C438.619 170.64 456.109 170.64 456.109 170.64C472.389 170.64 482.619 179.52 482.619 193.79C482.619 208.06 471.849 217.74 455.839 217.74H438.619V217.47C442.249 215.05 441.719 211.55 441.719 207.38V180.33V180.32Z" fill="white"/>
<path d="M500.13 176.69L493.13 194.72H507.26L500.13 176.69ZM491.24 199.97L487.47 210.06C485.99 214.1 485.45 216.12 488.95 217.46V217.73H475.76V217.46C479.93 215.44 481.14 211.4 482.76 207.23L494.74 177.36C495.68 174.8 497.16 171.84 493.66 170.77C493.66 170.64 504.96 170.64 504.96 170.64L519.9 207.38C521.51 211.42 522.86 215.45 526.9 217.61V217.88H512.23V217.61C515.73 216 515.19 215.19 513.17 210.21L509.27 200.12H491.24V199.99V199.97Z" fill="white"/>
<path d="M540.361 170.63C549.911 170.63 555.161 175.61 555.161 182.2C555.161 188.79 549.641 193.5 543.721 194.85L554.081 207.77C557.041 211.54 561.621 215.17 565.651 217.73H559.061C555.291 217.73 552.871 216.79 550.721 214.1L541.971 203.33L535.381 193.24C541.171 192.43 547.761 189.74 547.761 183.01C547.761 176.28 543.321 174.8 538.471 175.07C536.861 175.07 535.241 175.34 533.631 175.61V207.64C533.631 210.87 533.231 216.12 536.861 217.46V217.73H523.131V217.46C526.761 216.11 526.231 210.87 526.231 207.64V180.73C526.231 177.5 526.771 172.25 523.131 170.91V170.64H540.351L540.361 170.63Z" fill="white"/>
<path d="M568.62 212.08C570.37 212.48 572.12 212.62 573.87 212.62C584.5 212.62 594.05 207.1 594.05 194.72C594.05 182.34 587.05 175.88 575.08 175.88C563.11 175.88 570.77 176.15 568.62 176.69V212.08ZM561.35 180.32C561.35 177.09 561.89 171.84 558.25 170.77C558.25 170.64 575.74 170.64 575.74 170.64C592.02 170.64 602.25 179.52 602.25 193.79C602.25 208.06 591.48 217.74 575.47 217.74H558.25V217.47C561.88 215.05 561.35 211.55 561.35 207.38V180.33V180.32Z" fill="white"/>
<path d="M420.599 255.81C416.699 238.59 402.299 226.74 385.879 225.8C398.659 229.57 409.029 240.06 412.389 254.33C417.099 275.19 404.449 296.18 384.129 301.02C380.499 301.83 376.859 302.23 373.359 301.96C379.419 303.71 385.869 303.98 392.469 302.5C412.649 297.52 425.299 276.66 420.589 255.81H420.599Z" fill="white"/>
<path d="M380.629 227.28C379.549 226.88 378.339 226.61 377.129 226.34C370.939 225.13 364.749 225.8 359.099 228.09C349.679 231.99 341.879 240.2 338.509 251.24C334.469 264.02 337.429 277.35 345.099 286.36C348.329 290.26 352.499 293.36 357.349 295.24C346.049 286.63 340.929 270.75 345.639 255.41C347.119 250.7 349.269 246.53 352.099 243.03C360.709 232.13 374.569 227.02 387.759 231.32C388.429 231.59 388.969 231.72 389.639 231.99C386.949 229.97 383.989 228.36 380.619 227.28H380.629Z" fill="white"/>
<path d="M404.319 265.77C403.649 269.81 402.169 273.84 399.609 277.48C399.209 278.02 398.799 278.56 398.259 279.09C389.509 289.45 374.439 291.34 363.539 282.99C357.219 278.15 353.719 271.01 353.179 263.61C351.699 273.03 355.329 282.85 363.269 289.04C369.329 293.62 376.859 295.1 383.719 293.62C389.779 292.41 395.429 288.91 399.329 283.39C403.229 278.14 404.709 271.95 404.309 265.76L404.319 265.77Z" fill="white"/>
<path d="M397.859 250.16C396.509 247.47 394.499 245.05 391.939 243.16C388.979 241.01 385.749 239.66 382.389 239.26C383.869 239.93 385.489 240.74 386.829 241.82C388.169 242.9 388.179 242.9 388.709 243.57C396.109 250.84 397.319 262.81 391.129 271.43C386.549 277.89 379.019 280.72 371.889 279.77C380.369 283.4 390.459 280.71 396.249 272.77C401.229 265.91 401.629 257.16 397.859 250.16Z" fill="white"/>
<path d="M381.978 245.72C377.938 242.62 372.958 241.95 368.518 243.3C367.708 243.57 366.908 243.84 366.098 244.24C364.488 245.05 362.998 246.12 361.788 247.6C361.388 248 360.978 248.54 360.708 248.95C356.938 254.2 356.808 261.06 359.898 266.31C359.228 264.16 359.088 262 359.228 259.72C359.498 257.03 360.438 254.47 362.058 252.18C367.038 245.18 376.588 243.7 383.458 248.95C385.068 250.16 386.418 251.78 387.498 253.53C386.558 250.57 384.668 247.88 381.978 245.73V245.72Z" fill="white"/>
<path d="M328.551 240.61C324.111 236.03 317.111 233.48 310.791 233.48C304.471 233.48 296.261 235.9 296.261 243.71C296.391 259.19 335.151 258.92 335.151 279.77C335.151 300.62 322.501 303.05 304.871 303.05C287.241 303.05 291.141 301.97 284.691 299.69L281.461 285.7C288.051 291.49 297.341 295.12 306.221 295.12C315.101 295.12 322.371 291.35 322.371 283.41C322.371 265.78 283.621 269.01 283.621 245.06C283.621 221.11 298.151 225.41 311.881 225.41C325.611 225.41 323.321 226.22 328.701 227.83V240.61H328.571H328.551Z" fill="white"/>
<path d="M454.64 293.22C462.31 293.62 468.9 291.07 474.56 286.36H474.96L469.04 301.3H422.75V301.03C428.54 299.01 427.86 290.67 427.86 285.55V243.03C427.86 237.78 428.53 229.57 422.75 227.42V227.02H444.28V227.42C438.49 229.57 439.3 237.92 439.3 243.03V292.15L454.64 293.23V293.22Z" fill="white"/>
<path d="M509.41 236.7L498.24 265.09H520.44L509.41 236.7ZM495.28 273.44L489.36 289.32C486.94 295.64 486.26 298.87 491.65 300.89V301.29H470.93V301.02C477.52 297.79 479.41 291.47 481.83 285.01L500.67 238.05C502.28 234.01 504.44 229.3 498.92 227.55V227.15H516.82L540.23 285.01C542.79 291.47 544.81 297.79 551.26 301.02V301.42H528.11V301.02C533.63 298.6 532.69 297.25 529.72 289.45L523.66 273.57H495.27V273.44H495.28Z" fill="white"/>
<path d="M578.58 227.15C593.65 227.15 601.86 235.09 601.86 245.32C601.86 255.55 593.11 263.08 583.96 265.1L600.24 285.55C604.95 291.47 612.08 297.26 618.54 301.29H608.18C602.26 301.29 598.49 299.81 595.13 295.64L581.4 278.55L571.04 262.67C580.06 261.32 590.55 257.15 590.55 246.52C590.55 235.89 583.55 233.6 576.02 234.01C573.46 234.01 570.91 234.41 568.35 234.95V285.41C568.35 290.66 567.68 298.87 573.46 300.89V301.29H551.93V301.02C557.72 299 556.91 290.66 556.91 285.54V243.02C556.91 237.77 557.72 229.56 551.93 227.41V227.01H578.57V227.14L578.58 227.15Z" fill="white"/>
<path d="M528.92 326.73H527.57V313.95H528.92V326.73Z" fill="white"/>
<path d="M537.529 325.52C536.859 326.46 535.919 326.87 534.569 326.87C533.219 326.87 532.419 326.47 531.879 325.66C531.209 324.85 530.939 323.78 530.939 322.16C530.939 320.54 531.209 319.47 531.879 318.66C532.549 317.85 533.489 317.45 534.569 317.45C535.649 317.45 536.719 317.85 537.399 318.8H537.529V313.82H538.879V326.6H537.799L537.529 325.52ZM534.839 325.78C535.779 325.78 536.449 325.51 536.859 324.97C537.269 324.43 537.529 323.62 537.529 322.55V322.28C537.529 321.07 537.259 320.13 536.859 319.59C536.459 319.05 535.779 318.78 534.839 318.78C533.899 318.78 533.489 319.05 532.959 319.72C532.419 320.39 532.289 321.2 532.289 322.41C532.289 323.62 532.559 324.43 532.959 324.97C533.499 325.51 534.039 325.78 534.839 325.78Z" fill="white"/>
<path d="M509.949 317.17C509.949 316.36 510.079 315.82 510.349 315.56C510.619 315.16 511.019 315.02 511.429 315.02H512.239L512.639 313.94H511.429C509.549 313.94 508.469 315.02 508.469 317.3V317.84L506.859 318.38V319.05H508.469V326.99H509.819V319.05H512.109V317.97H509.819V317.16H509.949V317.17Z" fill="white"/>
<path d="M514.519 316.23C514.789 316.23 514.919 316.23 515.059 315.96C515.189 315.96 515.329 315.56 515.329 315.29C515.329 315.02 515.199 314.75 515.059 314.62C514.929 314.62 514.659 314.35 514.519 314.35C514.249 314.35 514.119 314.35 513.979 314.62C513.839 314.89 513.709 315.02 513.709 315.29C513.709 315.56 513.839 315.83 513.979 315.96C513.979 315.96 514.379 316.23 514.519 316.23Z" fill="white"/>
<path d="M515.2 317.71H513.85V326.73H515.2V317.71Z" fill="white"/>
</svg>
