<svg width="270" height="149" viewBox="0 0 270 149" fill="none" xmlns="http://www.w3.org/2000/svg">
<path d="M210.477 53.474C210.324 53.7184 210.15 53.9508 210.021 54.2071C208.797 56.6566 209.472 56.162 206.751 56.0547C205.38 56.001 204.021 55.8699 202.653 56.1202C199.947 56.6179 197.748 58.8082 197.322 61.4812C197.124 62.7269 197.736 63.5166 199.077 63.6418C200.898 63.8146 202.689 63.4898 204.48 63.2097C204.957 63.1352 205.428 62.9534 205.977 63.1888C205.797 63.9964 205.317 64.6758 205.002 65.4238C204.831 65.8291 204.522 66.0019 204.105 66.0764C201.597 66.5324 199.083 66.9317 196.518 66.7499C193.56 66.5413 192.369 64.8159 193.191 61.9491C194.886 56.0338 199.422 52.7796 205.935 52.8452C207.453 52.8601 208.971 52.9287 210.474 53.182V53.474H210.477Z" fill="white"/>
<path d="M125.665 75.4129C124.705 74.9271 124.723 74.1732 125.056 73.309C125.896 71.1217 128.416 70.1055 130.447 71.226C129.844 71.6789 129.187 71.4226 128.599 71.4584C127.348 71.5329 126.454 72.0634 125.971 73.2285C125.557 74.2298 125.86 74.7096 126.973 74.6947C127.633 74.6857 128.407 74.7632 128.593 73.8603C128.521 73.2583 127.717 73.7381 127.621 73.0825C128.308 72.7726 128.992 72.859 129.715 73.014C129.499 74.4026 128.875 75.2966 127.432 75.4129H125.665Z" fill="white"/>
<path d="M145.689 75.4128C145.614 74.4205 146.331 74.6738 146.88 74.6619C147.681 74.647 148.563 74.8853 149.076 73.9764C148.86 73.3119 148.275 73.4758 147.849 73.3417C146.751 72.996 146.601 72.4298 147.384 71.5388C148.08 70.7461 149.481 70.5614 150.966 71.1127C150.075 71.9679 148.539 70.8385 147.858 72.1229C148.086 72.6623 148.578 72.6027 148.98 72.7129C150.189 73.0437 150.345 73.6039 149.55 74.5635C149.145 75.0522 148.53 75.1059 148.044 75.4128H145.689Z" fill="white"/>
<path d="M196.639 75.4128C196.519 74.5248 197.119 74.6887 197.668 74.6738C198.493 74.653 199.447 74.9301 199.978 73.9944C199.729 73.2941 199.135 73.4758 198.706 73.3239C197.659 72.9573 197.476 72.2749 198.331 71.4971C199.324 70.5942 200.524 70.6598 201.931 70.9756C200.965 71.9948 199.432 70.8236 198.763 72.0961C198.898 72.6474 199.402 72.6117 199.81 72.6891C200.257 72.7726 200.734 72.8381 200.869 73.3298C201.028 73.9109 200.659 74.3371 200.281 74.7394C199.927 75.1119 199.39 75.1268 198.997 75.4128H196.642H196.639Z" fill="white"/>
<path d="M182.796 75.413C181.869 74.9064 181.884 74.1524 182.211 73.2942C182.991 71.2469 185.076 70.3231 187.422 71.086C187.005 71.7506 186.369 71.4406 185.874 71.4675C184.455 71.5479 183.561 72.0903 183.123 73.2346C182.757 74.1912 183.018 74.5637 184.068 74.6441C184.641 74.6888 185.208 74.3729 185.826 74.6382C185.601 75.5262 184.686 74.9898 184.269 75.41H182.796V75.413Z" fill="white"/>
<path d="M95.2147 36.5149C95.7276 36.8069 95.6166 37.2033 95.4156 37.6324C93.6126 41.4677 91.7826 45.294 90.0366 49.1561C89.6257 50.065 88.9687 50.0024 88.2367 50.0024C80.8837 50.0054 73.5277 50.0113 66.1747 50.0173C63.7177 50.0173 63.8857 49.8564 63.8797 52.3327C63.8737 55.1041 63.8797 57.8755 63.8797 60.7483C62.4067 60.9241 61.0717 60.8943 59.7697 60.7661C59.4517 60.3042 59.5327 59.8513 59.5327 59.4281C59.5297 55.3872 59.5327 51.3434 59.5447 47.3025C59.5507 45.8185 59.5657 45.8006 61.1527 45.8006C69.1447 45.7946 77.1367 45.7678 85.1287 45.8304C86.4157 45.8393 87.1387 45.4609 87.5287 44.2599C87.8557 43.2586 88.5787 42.4034 88.7947 41.0087C79.0447 40.9253 69.3817 41.0326 59.6197 40.97C59.4787 39.4085 59.5387 37.9632 59.5807 36.5149H95.2147Z" fill="white"/>
<path d="M86.6856 56.612C85.7706 58.543 84.8976 60.3847 84.0276 62.2263C83.0676 64.2527 82.0656 66.2612 81.1686 68.3145C80.7576 69.2561 80.1906 69.5899 79.1586 69.578C74.6466 69.5243 70.1346 69.5482 65.6196 69.5571C63.9876 69.5571 63.9756 69.572 63.9726 71.1604C63.9636 75.4486 63.9696 79.7368 63.9726 84.025C63.9726 84.4035 63.8856 84.8058 64.2576 85.2557C65.8836 84.5763 67.4466 83.6912 69.0246 82.8419C69.6096 82.5261 69.5376 81.9509 69.5406 81.4205C69.5466 79.2779 69.5406 77.1323 69.5556 74.9897C69.5586 74.4592 69.4686 73.9169 69.7176 73.3417C70.8396 73.0407 72.0156 73.2404 73.1796 73.2136C73.7376 73.2017 73.9506 73.5086 73.9506 74.042C73.9446 77.5495 73.9446 81.0569 73.9536 84.5674C73.9536 85.068 73.7526 85.3869 73.3146 85.6134C68.8746 87.896 64.4376 90.1876 59.9976 92.4703C59.9226 92.5091 59.8116 92.4763 59.6406 92.4763V65.4119C60.2886 65.0573 60.8886 65.1855 61.4616 65.1855C66.3666 65.1765 71.2716 65.1378 76.1766 65.2212C77.4216 65.2421 78.1056 64.8368 78.4776 63.7163C78.7956 62.7538 79.4766 61.9343 79.6746 60.9211C79.2156 60.4145 78.6396 60.6052 78.1296 60.5992C75.7266 60.5784 73.3206 60.5545 70.9206 60.6112C69.9156 60.635 69.5166 60.3221 69.5616 59.2851C69.6306 57.7295 69.6036 56.168 69.5676 54.6094C69.5496 53.8048 69.8406 53.4472 70.6776 53.4949C71.6976 53.5545 72.7266 53.4204 73.7076 53.5933C74.0886 54.076 73.9776 54.5886 73.9446 55.0505C73.8696 56.0965 74.3436 56.3825 75.3366 56.3676C78.6726 56.3229 82.0086 56.3468 85.3416 56.3498C85.7316 56.3498 86.1306 56.317 86.6886 56.615L86.6856 56.612Z" fill="white"/>
<path d="M171.637 66.3774C170.185 66.7022 168.871 66.5323 167.569 66.5323C167.083 66.5323 166.939 66.1598 166.822 65.7665C166.558 64.8814 166.249 64.0053 166.009 63.1143C165.844 62.5034 165.664 61.964 164.875 62.0802C164.071 62.1964 163.066 61.6511 162.571 62.8014C162.169 63.7401 161.671 64.64 161.296 65.5877C160.996 66.3416 160.513 66.6158 159.718 66.5651C158.905 66.5144 158.086 66.5532 157.006 66.5532C157.477 65.54 157.834 64.7622 158.2 63.9874C159.73 60.7273 161.281 57.4761 162.781 54.1981C163.129 53.4412 163.54 53.0925 164.431 53.1164C166.879 53.1849 169.333 53.0687 171.781 53.17C175.753 53.3369 176.668 55.2173 174.526 58.5817C173.506 60.1849 171.976 61.067 170.14 61.6809C170.635 63.2335 171.103 64.7056 171.637 66.3744V66.3774ZM164.323 59.1956C165.991 59.3118 167.494 59.3535 168.985 59.1866C169.882 59.0883 170.65 58.6622 171.079 57.7831C171.553 56.8086 171.349 56.2633 170.266 56.1679C168.958 56.0517 167.632 56.1053 166.315 56.0845C165.928 56.0785 165.661 56.2484 165.505 56.5911C165.127 57.4165 164.752 58.2479 164.32 59.1956H164.323Z" fill="white"/>
<path d="M125.641 53.1493C125.857 57.6372 126.061 61.9463 126.274 66.3746C124.864 66.6785 123.526 66.5474 122.224 66.4967C121.789 65.6206 122.17 64.7356 121.705 63.7611C119.626 63.7611 117.445 63.7522 115.264 63.7671C114.703 63.77 114.466 64.2796 114.136 64.6193C112.009 66.8067 111.757 66.8931 108.571 66.4133C108.517 65.8978 108.955 65.6713 109.234 65.3852C112.867 61.696 116.539 58.0484 120.127 54.3205C120.988 53.4265 121.855 53.0033 123.079 53.1374C123.85 53.2208 124.639 53.1523 125.641 53.1523V53.1493ZM121.714 56.6955C120.325 58.1438 119.179 59.3388 117.862 60.7096C119.365 60.8347 120.547 60.939 121.756 60.65C121.9 59.3954 121.819 58.2153 121.714 56.6955Z" fill="white"/>
<path d="M190.149 66.3835C188.679 66.6964 187.377 66.4818 186.096 66.5355C185.67 65.6176 186.006 64.6879 185.568 63.7492C183.513 63.7492 181.413 63.7641 179.316 63.7402C178.653 63.7313 178.32 64.1991 178.05 64.6074C176.673 66.6815 174.696 66.8394 172.476 66.4401C172.362 65.8977 172.839 65.6862 173.112 65.406C176.871 61.5708 180.666 57.7683 184.404 53.9122C185.067 53.2268 185.784 53.1284 186.639 53.1314C189.579 53.1404 189.558 53.1255 189.675 56.0637C189.81 59.4639 189.987 62.8611 190.149 66.3865V66.3835ZM185.601 60.7304V57.5806C184.527 58.4448 183.201 59.5146 181.674 60.7423C183.198 60.8288 184.389 60.8764 185.601 60.7274V60.7304Z" fill="white"/>
<path d="M127.453 66.7679C127.732 65.4805 128.257 64.7534 128.575 63.9488C128.848 63.2545 129.439 63.4452 129.961 63.5018C131.818 63.7015 133.678 63.7581 135.544 63.6657C135.985 63.6448 136.423 63.6299 136.846 63.4631C137.344 63.2634 137.707 62.9177 137.716 62.3903C137.725 61.7972 137.167 61.7913 136.753 61.6989C135.559 61.4337 134.335 61.2609 133.165 60.9122C131.323 60.3639 130.843 59.3149 131.557 57.5567C132.532 55.1608 134.341 53.6917 136.864 53.1702C139.483 52.6278 142.12 52.8394 144.862 53.1433C144.757 54.1714 144.238 54.9343 143.842 55.7359C143.563 56.3021 143.026 56.1829 142.543 56.1174C140.884 55.8998 139.219 55.8432 137.551 55.9177C136.282 55.9743 136.063 56.1353 135.487 57.1812C135.766 57.7623 136.345 57.7236 136.858 57.8249C137.962 58.0425 139.09 58.1885 140.167 58.5103C141.97 59.0467 142.468 60.1344 141.775 61.8926C140.878 64.1723 139.222 65.6564 136.849 66.3388C135.223 66.8066 133.558 66.8007 131.887 66.7649C130.477 66.7351 129.064 66.7589 127.456 66.7589L127.453 66.7679Z" fill="white"/>
<path d="M114.768 53.1375C114.645 54.1179 114.168 54.7079 113.934 55.3874C113.688 56.1085 113.187 56.3052 112.467 56.2933C110.898 56.2635 109.326 56.2933 107.757 56.2903C105.222 56.2844 105.117 56.3678 104.415 59.0796H111.24C111.195 60.1971 110.649 60.96 110.265 61.7676C110.004 62.3189 109.449 62.2175 108.966 62.2175C107.199 62.2235 105.432 62.2444 103.665 62.2086C102.978 62.1937 102.576 62.4232 102.318 63.0609C101.97 63.9191 101.505 64.7267 101.154 65.5849C100.854 66.318 100.395 66.6548 99.5791 66.5624C98.7721 66.473 97.9412 66.6399 97.0352 66.4313C97.3202 65.3883 97.7882 64.5449 98.1962 63.6777C99.6692 60.5458 101.157 57.4197 102.597 54.2729C102.963 53.4742 103.404 53.0958 104.355 53.1136C107.784 53.1732 111.216 53.1375 114.762 53.1375H114.768Z" fill="white"/>
<path d="M145.676 66.3776C147.272 62.9685 148.814 59.6786 150.449 56.186H145.391C145.526 55.143 146.03 54.4129 146.378 53.6262C146.534 53.2716 146.81 53.1375 147.194 53.1375C151.703 53.1434 156.209 53.1404 160.799 53.1404C160.7 54.1477 160.187 54.8718 159.854 55.6556C159.641 56.1532 159.188 56.1592 158.735 56.1592C157.703 56.1562 156.668 56.2277 155.645 56.1353C154.58 56.04 154.088 56.4989 153.68 57.4316C152.546 60.0213 151.25 62.5394 150.131 65.1349C149.648 66.2524 148.988 66.7322 147.791 66.5594C147.17 66.47 146.522 66.6309 145.676 66.3746V66.3776Z" fill="white"/>
<path d="M102.601 72.1796C101.653 73.0795 101.755 74.5904 100.669 75.24C100.555 75.1745 100.444 75.1089 100.33 75.0463C100.876 73.8365 101.386 72.6057 101.986 71.4197C102.349 70.7015 103.024 70.7224 103.387 71.4405C103.774 72.2124 104.08 73.0229 104.467 73.9229C105.421 73.0229 105.34 71.5478 106.513 70.9697C106.285 72.3912 105.616 73.6159 105.004 74.8497C104.695 75.4725 104.065 75.3503 103.705 74.6351C103.315 73.8603 102.988 73.0527 102.598 72.1796H102.601Z" fill="white"/>
<path d="M116.467 75.0792C117.058 73.7799 117.631 72.5253 118.198 71.2678C118.342 70.9459 118.612 70.8953 118.921 70.8983C119.653 70.9072 120.391 70.8655 121.117 70.9281C122.134 71.0175 122.356 71.5032 121.885 72.4091C121.573 73.0111 121.006 73.2882 120.472 73.5832C120.238 74.1077 120.658 74.5339 120.613 75.0375C119.926 75.4726 119.665 75.0017 119.497 74.4564C119.356 74.0034 119.2 73.6726 118.624 73.6726C118.099 73.6726 117.832 73.8902 117.631 74.3461C117.454 74.7514 117.349 75.3206 116.467 75.0792ZM118.462 72.871C120.361 73.1929 120.745 73.0349 121.081 71.7893C119.308 71.1367 118.945 71.2886 118.462 72.871Z" fill="white"/>
<path d="M160.643 75.1327C161.243 73.8155 161.807 72.6086 162.344 71.3898C162.509 71.0173 162.785 70.91 163.154 70.913C163.835 70.916 164.522 70.8743 165.2 70.9249C166.361 71.0113 166.619 71.5805 166.007 72.5639C165.68 73.0884 165.131 73.3059 164.657 73.592C164.411 74.1135 164.879 74.5367 164.789 75.0343C164.084 75.4724 163.841 74.9867 163.685 74.4383C163.55 73.9645 163.349 73.6844 162.794 73.6755C162.257 73.6695 162.017 73.9377 161.816 74.3728C161.645 74.7423 161.561 75.2578 160.643 75.1297V75.1327ZM165.41 71.8636C163.502 71.1633 163.049 71.354 162.689 72.9781C163.718 72.9662 164.849 73.3596 165.41 71.8636Z" fill="white"/>
<path d="M155.328 72.5698C156.105 72.8321 156.774 72.5311 157.425 72.8827C156.825 74.0479 154.677 72.4149 154.572 74.3876C155.271 74.8346 156.147 74.3042 156.966 74.9717C155.691 75.4008 154.572 75.2012 153.342 75.1535C153.681 73.7439 154.386 72.5788 154.941 71.357C155.043 71.1305 155.22 70.9427 155.496 70.9398C156.444 70.9278 157.401 70.7908 158.472 71.0441C157.647 72.2003 155.703 70.6656 155.328 72.5639V72.5698Z" fill="white"/>
<path d="M98.2695 70.9071C97.2675 72.1945 95.3175 70.6419 95.0115 72.561C95.6895 72.8978 96.4335 72.4686 97.0725 72.9305C96.4275 74.0331 94.3035 72.3822 94.1835 74.4384C94.9185 74.8079 95.7615 74.346 96.7665 74.9957C95.3325 75.3563 94.1985 75.246 92.8965 75.1C93.4785 73.7977 94.0125 72.6087 94.5435 71.4167C94.6995 71.068 94.9515 70.8982 95.3445 70.9012C96.2145 70.9101 97.0815 70.9041 98.2725 70.9041L98.2695 70.9071Z" fill="white"/>
<path d="M193.68 72.9425C192.951 73.9855 191.004 72.4449 190.743 74.3759C191.418 74.8706 192.342 74.3372 193.269 74.9481C191.919 75.401 190.797 75.2163 189.543 75.1477C189.933 73.7561 190.611 72.5819 191.163 71.3572C191.265 71.1277 191.436 70.937 191.712 70.934C192.651 70.9251 193.602 70.7701 194.676 71.0919C193.779 72.129 191.976 70.7314 191.556 72.4925C192.207 72.9842 193.038 72.418 193.68 72.9425Z" fill="white"/>
<path d="M114.367 70.9131C113.443 72.2273 111.484 70.6091 111.172 72.5461C111.847 72.9186 112.597 72.4806 113.236 72.9097C112.615 74.0689 110.464 72.3673 110.338 74.4295C111.055 74.8288 111.904 74.3461 112.861 74.9599C111.544 75.4278 110.428 75.1745 109.174 75.1894C109.453 73.7143 110.239 72.5491 110.788 71.2975C110.92 70.9965 111.208 70.9161 111.52 70.9161C112.39 70.9161 113.26 70.9161 114.367 70.9161V70.9131Z" fill="white"/>
<path d="M175.02 71.1813C173.823 72.4299 172.659 73.7143 171.417 74.9152C170.829 75.4844 170.214 75.2937 170.166 74.5666C170.091 73.3775 169.866 72.1706 170.226 70.6389C171.414 71.7147 170.646 73.008 171.171 74.0361C172.629 73.3328 173.193 71.4614 174.771 70.9012C174.855 70.9935 174.936 71.0829 175.02 71.1753V71.1813Z" fill="white"/>
<path d="M134.541 75.106C134.735 74.0491 134.593 72.6932 134.115 71.0383C135.477 70.5377 135.189 72.1558 135.945 72.427C137.049 72.1827 137.64 70.8238 139.263 70.9638C138.615 71.4496 138.186 71.8012 137.727 72.1082C136.71 72.7876 135.648 73.4045 135.315 74.7216C135.234 75.0494 134.979 75.3355 134.544 75.1001L134.541 75.106Z" fill="white"/>
<path d="M179.464 71.2021C178.744 72.5521 178.336 74.0838 177.193 75.1894C177.484 73.5861 178.135 72.1826 178.876 70.8267C179.071 70.9518 179.266 71.077 179.464 71.2021Z" fill="white"/>
</svg>
