<svg width="269" height="150" viewBox="0 0 269 150" fill="none" xmlns="http://www.w3.org/2000/svg">
<path d="M134.628 76.169H124.759C110.962 77.222 97.7125 81.257 85.0605 86.579C87.2305 84.314 90.3688 82.574 93.2621 81.365C89.514 71.321 96.3346 59.375 106.67 56.996C119.394 54.068 129.747 62.492 131.083 75.053L134.625 76.169H134.628ZM128.665 74.675C127.619 61.766 113.918 54.398 102.605 61.127C96.2719 64.895 92.8048 73.202 95.3124 80.267C105.788 75.998 117.284 73.166 128.662 74.678L128.665 74.675Z" fill="white"/>
<path d="M186.626 55.3279C188.408 55.4389 191.31 55.7059 192.915 56.4919C196.947 58.4599 197.73 63.6619 195.01 67.0489C193.145 69.3709 190.258 69.4099 187.559 69.6529L196.875 81.7459L193.306 81.4039L184.465 69.9589L182.711 69.4729V81.7519H180.102V55.3339C182.26 55.4329 184.468 55.1989 186.623 55.3339L186.626 55.3279ZM182.711 66.8629H190.35C191.842 66.8629 193.901 64.1539 193.895 62.5819C193.892 61.1479 192.144 58.3039 190.721 58.3039H182.708V66.8629H182.711Z" fill="white"/>
<path d="M175.628 81.7459C174.902 81.6049 173.204 81.9979 172.708 81.6859C172.301 81.4309 169.668 74.4529 168.96 73.4179L157.36 73.3669C156.714 73.7569 154.47 80.4799 153.459 81.3799C152.67 82.0819 151.295 81.6529 150.285 81.7429L163.143 55.3369L175.628 81.7459ZM167.429 70.5829L163.143 61.2769L158.857 70.5829H167.429Z" fill="white"/>
<path d="M84.5555 69.5989C92.4372 78.0049 81.2557 86.5399 74.4381 80.6299C72.8181 79.2259 70.3851 76.0849 74.0107 75.8149C75.792 79.6009 81.5516 81.9589 83.8919 77.4229C87.4607 70.5109 71.3117 68.0089 73.6789 59.0389C75.1195 53.5879 84.1161 53.7769 86.2771 58.4179C86.7254 59.3839 85.7211 60.5509 84.8723 60.5509C83.7186 60.5509 80.7536 55.2469 77.2028 58.4629C72.7404 62.5099 82.3795 67.2799 84.5555 69.5989Z" fill="white"/>
<path d="M138.359 55.3279V79.1419H148.423V81.7459H135.75V55.3279H138.359Z" fill="white"/>
<path d="M173.77 43.4239C174.323 43.4089 174.317 44.7499 174.395 45.2089C174.76 47.3179 174.939 49.4869 175.253 51.6049C174.431 51.7459 174.506 51.5419 174.323 50.8789C173.932 49.4719 173.872 47.5099 173.761 46.0249L170.596 51.5959L167.613 46.0189C167.323 46.0309 166.917 50.0629 166.734 50.7439C166.564 51.3859 166.998 51.7759 165.939 51.6019L167.06 43.4209L170.596 49.7359L173.77 43.4209V43.4239Z" fill="white"/>
<path d="M120.841 43.4209H125.683C126.287 43.8829 125.677 44.0959 125.133 44.1649C124.472 44.2489 121.708 44.0359 121.582 44.1649V46.7719C122.509 46.7989 123.453 46.7299 124.383 46.7719C124.885 46.7929 125.934 46.4629 125.686 47.3269L121.932 47.6779C119.58 52.2139 125.498 50.4079 125.686 51.0529C125.934 51.9169 124.885 51.5869 124.383 51.6079C123.205 51.6559 122.013 51.5749 120.838 51.6079V43.4209H120.841Z" fill="white"/>
<path d="M187.555 43.4209H192.4C192.023 44.8339 188.61 43.8469 188.299 44.1619V46.7689C189.103 46.7959 189.922 46.7299 190.729 46.7689C191.231 46.7929 192.28 46.4599 192.032 47.3239L188.302 47.5129V50.8669C188.448 51.0109 193.518 50.4799 192.029 51.6079H187.558V43.4239L187.555 43.4209Z" fill="white"/>
<path d="M104.815 43.421L108.915 43.61C109.25 44.777 105.861 43.856 105.556 44.162V46.769C105.687 46.901 110.359 46.409 108.909 47.51H105.556C105.43 47.636 105.642 50.393 105.556 51.053C105.469 51.731 105.681 51.653 104.809 51.605V43.418L104.815 43.421Z" fill="white"/>
<path d="M92.5124 43.4209H91.3945V51.6079H92.5124V43.4209Z" fill="white"/>
<path d="M138.729 44.165H137.053V43.418H141.336C141.626 44.684 140.236 44.036 139.474 44.165V51.608H138.729V44.165Z" fill="white"/>
<path d="M76.4864 43.4209V50.8639C77.3412 51.1369 80.1119 50.1439 79.84 51.6049H75.7422V43.4209H76.4864Z" fill="white"/>
<path d="M153.637 43.4209H152.893V51.6079H153.637V43.4209Z" fill="white"/>
<path d="M109.659 60.911L111.527 68.351L113.757 61.658L113.392 69.095L117.484 62.399L115.628 69.839L120.467 64.259L117.119 70.955L123.452 66.866L118.234 72.44C120.81 71.834 123.449 70.055 126.065 70.025C124.041 70.661 119.911 74.99 117.863 73.742C117.561 73.559 116.952 72.389 116.381 71.879C111.85 67.844 104.7 70.469 104.01 76.472L99.4218 77.282L95.877 76.541C97.5836 76.436 99.5623 76.364 101.236 76.121C101.651 76.061 102.976 75.986 102.955 75.425L95.877 72.821L103.702 73.748L98.4863 69.842L104.449 72.068L99.9807 66.491L105.941 70.58L102.59 63.887L107.8 69.467C107.695 67.598 106.786 65.753 106.398 63.983C106.317 63.608 106.021 62.678 106.679 62.771L109.665 68.723V60.908L109.659 60.911Z" fill="white"/>
</svg>
