<svg width="900" height="500" viewBox="0 0 900 500" fill="none" xmlns="http://www.w3.org/2000/svg">
<path d="M344.77 286.2C346.19 289.11 348.93 291.19 352.96 291.19C356.4 291.19 359.07 289.55 359.07 286.94C359.07 284.33 356.7 283.35 352.32 281.95C346.67 280.13 342.22 278.25 342.27 272.99C342.31 267.56 347.44 264.71 352.39 264.71C357.89 264.71 361.39 267.67 363.06 270.84L359.49 273.34C358.22 271.04 355.81 268.89 352.39 268.89C349.56 268.89 346.89 270.34 346.89 272.96C346.89 275.58 349.32 276.29 353.53 277.71C359.07 279.59 363.69 281.13 363.69 286.89C363.69 292.65 358.15 295.32 353.04 295.32C347.21 295.32 343.03 292.34 341.32 288.57L344.76 286.18L344.77 286.2Z" fill="white"/>
<path d="M392.689 280.07C392.689 271.15 399.279 264.71 408.049 264.71C416.819 264.71 423.429 271.15 423.429 280.07C423.429 288.99 416.879 295.34 408.049 295.34C399.219 295.34 392.689 289.05 392.689 280.07ZM408.049 290.97C414.419 290.97 418.609 286.57 418.609 280.02C418.609 273.47 414.429 269.07 408.049 269.07C401.669 269.07 397.509 273.63 397.509 280.02C397.509 286.41 401.759 290.97 408.049 290.97Z" fill="white"/>
<path d="M475.89 294.9H454.34V265.15H458.96V290.71H475.89V294.89V294.9Z" fill="white"/>
<path d="M501.95 294.9L514.24 265.15H519.23L531.52 294.9H526.61L524.24 288.7H509.21L506.84 294.9H501.93H501.95ZM522.87 284.86L516.74 270.29L510.61 284.86H522.88H522.87Z" fill="white"/>
<path d="M573.52 265.17C579.65 265.17 583.64 268.63 583.64 274.2C583.64 278.27 581.3 281.3 577.62 282.59L584.83 294.9H579.49L572.77 283.22H565.34V294.9H560.74V265.17H573.53H573.52ZM565.32 269.31V279.12H573.29C576.95 279.12 578.83 277.08 578.83 274.19C578.83 271.3 576.95 269.31 573.29 269.31H565.32Z" fill="white"/>
<path d="M318.88 199.99H216.19C212.727 199.99 209.92 202.797 209.92 206.26V217.67C209.92 221.133 212.727 223.94 216.19 223.94H318.88C322.343 223.94 325.15 221.133 325.15 217.67V206.26C325.15 202.797 322.343 199.99 318.88 199.99Z" fill="white"/>
<path d="M318.88 276.06H233.87V261.52H291.21C294.67 261.52 297.48 258.71 297.48 255.25V243.84C297.48 240.38 294.67 237.57 291.21 237.57H216.19C212.73 237.57 209.92 240.38 209.92 243.84V293.73C209.92 297.19 212.73 300 216.19 300H318.88C322.34 300 325.15 297.19 325.15 293.73V282.32C325.15 278.86 322.34 276.05 318.88 276.05V276.06Z" fill="white"/>
<path d="M397.77 203.48H347.94C346.261 203.48 344.9 204.841 344.9 206.52V212.06C344.9 213.739 346.261 215.1 347.94 215.1H397.77C399.449 215.1 400.81 213.739 400.81 212.06V206.52C400.81 204.841 399.449 203.48 397.77 203.48Z" fill="white"/>
<path d="M397.77 240.83H356.52V233.78H384.34C386.02 233.78 387.38 232.42 387.38 230.74V225.21C387.38 223.53 386.02 222.17 384.34 222.17H347.94C346.26 222.17 344.9 223.53 344.9 225.21V249.42C344.9 251.1 346.26 252.46 347.94 252.46H397.76C399.44 252.46 400.8 251.1 400.8 249.42V243.89C400.8 242.21 399.44 240.85 397.76 240.85L397.77 240.83Z" fill="white"/>
<path d="M543.051 218.63C543.051 219.79 542.921 220.95 542.671 222.07C542.421 223.2 542.051 224.3 541.561 225.35C541.351 225.8 541.121 226.23 540.871 226.65C539.691 228.63 538.081 230.28 536.181 231.49C533.881 232.95 531.181 233.77 528.351 233.77H496.581V249.4C496.581 251.08 495.221 252.44 493.541 252.44H488.011C486.331 252.44 484.971 251.08 484.971 249.4V225.19C484.971 223.51 486.331 222.15 488.011 222.15H529.031C533.001 221.79 533.001 215.45 529.031 215.1H488.011C486.331 215.1 484.971 213.74 484.971 212.06V206.53C484.971 204.85 486.331 203.49 488.011 203.49H528.351C533.521 203.49 538.271 206.23 540.871 210.61C541.121 211.03 541.351 211.46 541.561 211.91C542.541 214.02 543.051 216.31 543.051 218.63Z" fill="white"/>
<path d="M690.08 218.63C690.08 219.79 689.95 220.95 689.7 222.07C689.45 223.2 689.08 224.3 688.59 225.35C688.38 225.8 688.15 226.23 687.9 226.65C686.72 228.63 685.11 230.28 683.21 231.49C681.73 232.43 680.08 233.11 678.33 233.47L687.01 248.45C688.04 250.23 686.76 252.45 684.71 252.45H676.83C676.26 252.45 675.73 252.15 675.44 251.65L665.08 233.78H643.61V249.41C643.61 251.09 642.25 252.45 640.57 252.45H635.04C633.36 252.45 632 251.09 632 249.41V225.2C632 223.52 633.36 222.16 635.04 222.16H676.06C680.03 221.8 680.03 215.46 676.06 215.11H635.04C633.36 215.11 632 213.75 632 212.07V206.54C632 204.86 633.36 203.5 635.04 203.5H675.38C680.55 203.5 685.3 206.24 687.9 210.62C688.15 211.04 688.38 211.47 688.59 211.92C689.57 214.03 690.08 216.32 690.08 218.64V218.63Z" fill="white"/>
<path d="M625.59 203.48C627.42 203.48 628.64 205.38 627.88 207.05L608.16 250.94C607.75 251.86 606.84 252.45 605.83 252.45H596.34C595.53 252.45 594.81 251.95 594.53 251.19L586.13 228.69L577.73 251.19C577.45 251.95 576.72 252.45 575.92 252.45H566.43C565.42 252.45 564.51 251.86 564.1 250.94L544.38 207.05C543.62 205.38 544.84 203.48 546.67 203.48H553.9C554.89 203.48 555.78 204.06 556.19 204.95L570.62 236.56L579.89 212.55L580.44 211.14C581.35 208.79 583.6 207.24 586.12 207.24C588.64 207.24 590.89 208.79 591.8 211.14L592.35 212.55L601.62 236.56L616.05 204.95C616.46 204.05 617.36 203.48 618.34 203.48H625.57H625.59Z" fill="white"/>
<path d="M476.961 206.52V249.4C476.961 251.08 475.601 252.44 473.921 252.44H468.391C466.711 252.44 465.351 251.08 465.351 249.4V219.19L448.381 241.78C447.251 243.28 445.481 244.16 443.611 244.16H443.131C441.251 244.16 439.481 243.28 438.361 241.78L421.391 219.19V249.4C421.391 251.08 420.031 252.44 418.351 252.44H412.821C411.141 252.44 409.781 251.08 409.781 249.4V206.52C409.781 204.84 411.141 203.48 412.821 203.48H422.461C423.511 203.48 424.501 203.97 425.131 204.82L442.581 228.06L443.381 229.12L444.171 228.06L461.621 204.82C462.251 203.98 463.241 203.48 464.291 203.48H473.931C475.611 203.48 476.971 204.84 476.971 206.52H476.961Z" fill="white"/>
</svg>
