<svg width="900" height="500" viewBox="0 0 900 500" fill="none" xmlns="http://www.w3.org/2000/svg">
<path d="M248.69 262.93C248.69 266.83 246.54 270.05 242.25 272.56C238.59 274.69 234.67 275.75 230.49 275.75C224.85 275.75 220.27 274.38 216.76 271.65V271.7C216.76 271.63 216.74 271.59 216.71 271.59C216.5 271.7 215.96 272.05 215.11 272.65C213.83 273.4 212.89 273.77 212.29 273.77C211.97 273.77 211.81 273.7 211.81 273.56V273.51C212.45 270.49 212.77 268.26 212.77 266.8C212.77 264.78 212.17 262.65 210.96 260.41C210.89 260.34 210.85 260.2 210.85 259.98C210.85 259.41 211.17 258.79 211.81 258.12L213.46 257.91L215.06 258.12L215.96 259.13C215.96 263.49 216.67 266.76 218.09 268.92C220.29 272.26 224.26 273.92 230.01 273.92C233.38 273.92 236.38 273.1 239.01 271.47C242.03 269.55 243.53 267 243.53 263.8C243.53 260.04 240.85 257.61 235.49 256.51L220.43 254.38C215 253.24 212.29 250.8 212.29 247.03C212.29 243.26 214.29 240.31 218.31 237.93C221.72 235.87 225.39 234.84 229.33 234.84C233.94 234.84 237.79 236.01 240.88 238.35L243.91 236.59L245.4 236.32L247.16 236.96C245.88 238.31 245.24 239.82 245.24 241.48C245.24 242.44 245.47 243.86 245.93 245.74C246.39 247.62 246.62 249.04 246.62 250L245.82 251.06L244.06 251.33L242.3 250.96C241.59 250.11 241.04 248.37 240.65 245.74C240.19 242.83 239.32 240.72 238.04 239.41C236.3 237.64 233.43 236.75 229.42 236.75C227.11 236.75 224.98 237.25 223.03 238.24C220.9 239.3 219.34 240.8 218.35 242.71C217.75 243.88 217.45 245.11 217.45 246.38C217.45 249.96 220.16 252.22 225.59 253.14C227.29 253.6 229.76 253.99 232.99 254.31C236.64 254.67 239.2 254.98 240.66 255.27C246.02 256.26 248.7 258.8 248.7 262.88L248.69 262.93ZM295 248.83C295 255.18 288.04 258.29 274.13 258.15L263.32 258.04V258.94C263.35 259.08 263.39 259.28 263.43 259.53L263.64 265.49C263.78 268.93 264.28 271.29 265.13 272.57L266.46 273.1H272.05L273.22 273.95L272.05 274.8L270.29 274.91C264.82 274.91 258.76 274.48 252.09 273.63L250.87 272.78L251.08 272.3L252.57 272.03C252.75 272.03 254.31 272.24 257.25 272.67L258.42 272.3C258.81 271.52 259.01 267.67 259.01 260.75V241.69C259.01 240.2 258.81 239.13 258.42 238.5L257.25 238.13C254.8 238.49 252.97 238.66 251.77 238.66L250.87 237.91L251.99 236.95C252.91 236.74 254.53 236.58 256.83 236.47L273.97 235.72C274.79 235.69 275.34 235.67 275.62 235.67C280.27 235.67 284.46 236.68 288.18 238.7C292.72 241.18 294.99 244.56 294.99 248.81L295 248.83ZM289.83 248.4C289.83 243.68 287.26 240.38 282.11 238.5C280.55 237.93 278.77 237.65 276.79 237.65H273.97C274.32 237.65 271.91 237.76 266.73 237.97C265.88 238.01 265.22 238.02 264.76 238.02C263.98 238.8 263.59 243.24 263.59 251.33V255.22C263.59 256.11 265.42 256.55 269.07 256.55C275.74 256.55 280.44 256.2 283.18 255.49C287.62 254.35 289.83 252 289.83 248.41V248.4ZM342.37 272.41C341.55 273.33 339.62 273.79 336.57 273.79C333.87 273.79 331.96 273.04 330.82 271.55C330.36 270.95 329.86 269.42 329.33 266.97L327.89 260.48C326.29 257.39 322.74 255.85 317.24 255.85C313.02 255.85 310.14 255.97 308.62 256.22L308.35 257.34C308.35 262.84 308.63 268.36 309.2 273.89C308.06 274.24 306.7 274.42 305.1 274.42C300.1 274.42 296.94 273.87 295.62 272.77L296.63 272.02C297.41 272.09 299.19 272.29 301.95 272.61L303.12 272.24L303.17 269.1C303.45 258.63 303.6 249.3 303.6 241.1C303.6 240.04 303.44 239.18 303.12 238.54L301.95 238.17L296.52 238.7L295.62 237.9C296.4 236.98 298.37 236.52 301.53 236.52H302.38C302.77 236.52 304.1 236.47 306.37 236.36L317.55 235.83C319.08 235.76 320.39 235.72 321.49 235.72C326 235.72 329.95 236.54 333.36 238.17C337.76 240.3 339.96 243.39 339.96 247.43C339.96 249.91 338.43 251.94 335.38 253.5C332.97 254.78 330.36 255.47 327.55 255.58H327.82C329.74 256.64 330.94 257.46 331.44 258.03H331.39C332.03 258.88 332.54 260.55 332.93 263.03C333.39 265.87 333.78 267.66 334.1 268.41C335.13 270.72 336.83 271.83 339.21 271.76L341.45 271.71L342.35 272.4L342.37 272.41ZM334.71 247.34C334.71 243.29 332.83 240.53 329.07 239.04C326.69 238.12 323.06 237.66 318.16 237.66C313.65 237.66 310.83 237.91 309.7 238.41C308.81 238.8 308.37 244.05 308.37 254.17H324.02C326.4 254.17 328.65 253.64 330.78 252.57C333.41 251.26 334.72 249.52 334.72 247.35L334.71 247.34ZM367.55 272.78C366.66 273.99 364.59 274.59 361.32 274.59H352.59C349.18 274.59 347.12 273.99 346.42 272.78L346.85 272.3L347.49 272.19C348.09 272.19 348.96 272.32 350.1 272.59C351.24 272.86 352.07 272.99 352.6 272.99L353.82 272.56C354.53 271.39 354.88 267.47 354.88 260.8V259.2C354.88 258.7 354.86 258.03 354.83 257.18C354.76 256.12 354.72 255.44 354.72 255.16L354.56 249.89C354.49 247.73 354.4 245.76 354.29 243.98C354.11 240.47 353.92 238.55 353.7 238.23L352.48 237.8C350.53 238.16 348.84 238.4 347.42 238.55L346.83 238.39L346.4 237.91C347.11 236.74 349.17 236.14 352.57 236.1L352.46 236.15C352.28 236.15 352.89 236.13 354.27 236.1C355.51 236.07 356.98 236.07 358.69 236.1L361.3 236.15L361.19 236.1C364.67 236.17 366.78 236.77 367.52 237.91L367.2 238.39L366.51 238.55L361.35 237.86L360.18 238.23C359.54 239.44 359.24 243.5 359.28 250.42L359.39 266.55C359.39 269.85 359.66 271.86 360.19 272.57L361.36 273C363.6 272.47 365.3 272.2 366.47 272.2L367.11 272.31L367.54 272.79L367.55 272.78ZM425.04 237.97L424.77 238.5L423.17 238.71C422.64 238.71 421.09 238.55 418.54 238.23L417.26 238.6L416.94 239.56C416.94 239.99 416.98 240.73 417.05 241.8L417.21 244.99C417.25 245.38 417.33 246.61 417.48 248.66L417.85 255.47C417.92 256.39 417.96 257.16 417.96 257.76C417.96 269.04 416.2 274.69 412.69 274.69L410.45 274.16L392.99 252.87C388.55 247.48 385.54 243.64 383.94 241.37C383.34 247.76 383.04 255.03 383.04 263.19C383.04 269.97 384.88 273.27 388.58 273.09L389.75 273.04L390.92 273.94L389.75 274.74L388.1 274.85C382.56 274.85 377.58 274.41 373.14 273.52C371.86 273.27 371.08 273.02 370.8 272.77L371.23 272.13L373.47 272.02C374.07 271.99 375.31 272.16 377.2 272.55L378.37 272.07C378.65 271.18 378.8 270.38 378.8 269.67V240.71C378.8 240.32 378.66 239.63 378.37 238.63L377.36 238.2L372.57 238.73L371.08 238.46L370.81 237.93C372.02 236.76 375.51 236.17 381.3 236.17C382.79 236.17 384.12 236.38 385.29 236.81C391.68 243.02 398.3 250.85 405.15 260.28L411.91 269.54C412.51 264.32 412.81 258.29 412.81 251.44C412.81 243.42 411.82 238.97 409.83 238.08C409.55 237.94 408.93 237.8 407.97 237.65L406.05 237.38L405.68 236.79L406 236.2L408.55 235.72C408.9 235.72 409.05 235.74 408.98 235.77C408.87 235.81 408.73 235.84 408.55 235.88V235.93L408.98 236.04H408.93C409.92 236.15 411.02 236.22 412.23 236.25L416.06 236.41C417.8 236.48 420.37 236.66 423.78 236.94L425.06 237.9L425.04 237.97ZM470.92 257.08C470.92 261.2 470.46 264.85 469.54 268.05C468.44 271.74 467.25 273.69 465.97 273.91L464.27 273.64L463.68 272.52L463.89 271.62C460.45 274.39 455.78 275.77 449.89 275.77C442.61 275.77 436.55 273.48 431.69 268.9C427.36 264.82 425.2 260.35 425.2 255.49C425.2 251.34 426.81 247.45 430.04 243.83C432.88 240.67 436.43 238.28 440.69 236.64C443.71 235.47 446.97 234.88 450.48 234.88C456.23 234.88 460.88 236.55 464.43 239.88L465.71 238.92L466.46 236.9L468.11 236.47L469.76 236.84C468.45 239.15 467.79 241.63 467.79 244.29C467.79 246.95 468.38 249.21 469.55 251.16L468.7 252.38L466.78 252.81L464.97 252.49C464.19 251.64 463.55 249.7 463.05 246.69C462.48 243.39 461.43 241.03 459.91 239.61C457.85 237.73 454.48 236.79 449.8 236.79C443.63 236.79 438.69 239.06 435 243.6C432.02 247.29 430.53 251.32 430.53 255.68C430.53 260.04 432.02 263.9 435 267.44C438.65 271.77 443.57 273.93 449.74 273.93C457.23 273.93 462.02 271.02 464.11 265.2C464.78 263.36 465.12 261.31 465.12 259.08C465.12 258.26 462.1 257.86 456.07 257.86C454.44 257.86 452.61 258.8 450.59 260.68C449.81 260.68 449.17 260.35 448.67 259.7C448.17 259.04 447.92 258.33 447.92 257.54C447.92 256.58 449.43 256.1 452.44 256.1C452.65 256.1 455.74 256.3 461.7 256.69C462.76 256.76 463.54 256.8 464.04 256.8C464.68 256.8 465.63 256.68 466.89 256.43C468.15 256.18 469.1 256.06 469.74 256.06C470.52 256.06 470.91 256.4 470.91 257.07L470.92 257.08ZM530.8 262.33C530.8 269.33 524.61 272.84 512.24 272.84H488.89C485.91 272.84 484.4 271.56 484.4 268.93C484.4 266.3 485.92 265.14 488.89 265.14H512.24C518.02 265.14 520.94 263.91 520.94 261.52V259.13C520.94 256.91 518.43 255.86 513.41 255.86H501.44C490.29 255.86 484.69 252.71 484.69 246.46V242.67C484.69 235.84 490.41 232.45 501.79 232.45H507.28C510.2 232.45 511.66 233.73 511.66 236.3C511.66 238.87 510.2 240.15 507.28 240.15H501.85C497 240.15 494.61 241.2 494.61 243.19V245.58C494.61 247.39 496.83 248.32 501.26 248.32H512.41C524.67 248.32 530.8 251.76 530.8 258.54V262.33ZM553.39 272.84C541.48 272.84 535.53 269.05 535.53 261.46V243.66C535.53 236.19 541.37 232.45 553.1 232.45H566.7C578.37 232.45 584.21 236.19 584.21 243.66V261.46C584.21 269.05 578.26 272.84 566.41 272.84H553.39ZM574.35 243.89C574.35 241.44 571.78 240.15 566.53 240.15H553.28C548.03 240.15 545.4 241.43 545.4 243.89V261.11C545.4 263.8 548.03 265.14 553.28 265.14H566.53C571.78 265.14 574.35 263.8 574.35 261.11V243.89ZM608.44 272.84C596.59 272.84 590.58 269.05 590.58 261.4V236.18C590.58 233.49 592.21 232.15 595.48 232.15C598.75 232.15 600.44 233.49 600.44 236.18V261.05C600.44 263.74 603.3 265.14 609.08 265.14H632.6C635.52 265.14 637.04 266.37 637.04 268.93C637.04 271.49 635.52 272.84 632.6 272.84H608.43H608.44ZM681.229 263.21H654.09L649.36 270.33C648.13 272.2 646.56 273.13 644.57 273.13C641.18 273.13 639.32 271.79 639.32 269.22C639.32 268.17 639.67 267.35 640.72 265.83L662.38 234.72C663.55 233.03 665.36 232.15 667.58 232.15C669.8 232.15 671.489 233.03 672.659 234.72L694.38 265.83C695.43 267.35 695.78 268.16 695.78 269.22C695.78 271.79 694.03 273.13 690.58 273.13C688.77 273.13 687.189 272.2 685.969 270.33L681.24 263.21H681.229ZM658.88 256.03H676.45L667.64 242.84L658.88 256.03ZM709.49 258.07V269.1C709.49 271.79 707.86 273.13 704.53 273.13C701.2 273.13 699.63 271.79 699.63 269.1V235.53C699.63 233.49 700.969 232.44 703.539 232.44H731.03C743.64 232.44 750 236 750 243.24V246.92C750 253.87 743.64 257.31 731.03 257.31H725.539L743.75 265.31C745.73 266.19 746.669 267.24 746.669 269.05C746.669 271.74 744.859 273.14 741.469 273.14C740.129 273.14 739.369 272.91 737.729 272.09L709.479 258.08L709.49 258.07ZM709.49 250.37H731.56C737.28 250.37 740.14 249.2 740.14 246.93V243.6C740.14 241.32 737.28 240.16 731.56 240.16H710.08C709.73 240.16 709.5 240.34 709.5 240.69V250.38L709.49 250.37ZM197.98 256.01C197.58 253.01 196.35 250.18 194.52 247.77C191.98 244.43 187.29 238.59 180.99 232.15C180.99 232.15 175.85 226.79 173.8 220.36C173.8 220.36 169.44 228.84 167.91 239.41C166.24 238.31 161.6 235.02 158.67 230.55C158.67 230.55 156.98 238.64 157.86 248.24C155.82 247.27 152.51 245.43 150 242.79C150 242.79 148.94 284.61 184.03 279.13C184.03 279.13 184.04 279.09 184.06 279.01C185.96 279.31 187.99 279.5 190.17 279.56C190.17 279.56 190.64 278.63 191.18 277.03C191.29 277.07 191.4 277.1 191.52 277.14C191.52 277.14 199.63 268.24 197.98 256V256.01Z" fill="white"/>
</svg>
