<svg width="331" height="182" viewBox="0 0 331 182" fill="none" xmlns="http://www.w3.org/2000/svg">
<path d="M57.8552 82.77C60.2936 81.8964 62.8092 81.2594 65.2843 80.495C65.6448 80.3822 66.0015 80.2548 66.3546 80.1238C66.6341 80.0218 66.7518 80.0874 66.818 80.3931C67.1637 81.9729 67.5388 83.549 67.8992 85.1288C68.0096 85.6092 68.0868 86.0934 68.2633 86.5593C68.3884 86.8978 68.164 87.1053 67.8919 87.2654C67.2078 87.6658 66.487 88.0189 65.8434 88.4739C64.8099 89.2019 63.6588 89.7443 62.6437 90.4941C62.3127 90.738 62.1215 90.6543 61.9265 90.283C60.7202 87.968 59.4845 85.6638 58.2561 83.3597C58.1678 83.1923 58.0281 83.0576 57.8516 82.9739V82.7664L57.8552 82.77Z" fill="white"/>
<path d="M63.9971 92.4595C64.3723 92.4631 64.5488 92.7871 64.821 92.9545C65.7367 93.5187 66.6415 94.0975 67.5756 94.6289C68.3921 95.0948 68.3958 95.0694 68.1714 95.9866C67.7154 97.8285 67.252 99.6703 66.8327 101.519C66.7371 101.949 66.5826 102.004 66.2001 101.883C64.8173 101.443 63.4344 101.013 62.0442 100.599C60.974 100.278 59.8964 99.9833 58.8262 99.6667C58.4952 99.5684 58.1752 99.4264 57.8516 99.3063C57.8516 99.2044 57.8516 99.0988 57.8516 98.9969C58.109 99.0442 58.2414 98.8841 58.315 98.6839C58.9475 97.0095 60.0582 95.579 60.8269 93.9737C60.9961 93.6206 61.1763 93.2712 61.3528 92.9218C61.4595 93.031 61.5808 93.1984 61.7353 93.0492C62.2244 92.5796 62.8313 92.7179 63.4087 92.7034C63.6404 92.6961 63.8684 92.7106 63.9898 92.4631L63.9971 92.4595Z" fill="white"/>
<path d="M232.402 82.6864C232.825 82.7373 233.517 82.4425 233.859 82.8065C234.168 83.1341 233.943 83.7929 233.943 84.3062C233.951 88.9217 233.94 93.5408 233.954 98.1564C233.954 98.9317 233.686 99.6524 233.609 100.406C233.484 101.6 232.814 102.535 232.093 103.438C231.689 103.944 231.122 104.304 230.549 104.592C229.133 105.302 227.636 105.72 226.032 105.837C225.036 105.91 224.039 105.968 223.05 105.902C221.402 105.797 219.732 105.666 218.298 104.719C217.062 103.904 216.102 102.867 215.782 101.381C215.654 100.781 215.679 100.755 216.275 100.752C216.996 100.748 217.713 100.752 218.434 100.733C218.78 100.726 218.953 100.821 219.133 101.174C219.607 102.106 220.365 102.779 221.45 103.023C221.873 103.118 222.288 103.281 222.715 103.325C224.436 103.504 226.15 103.463 227.768 102.79C229.328 102.139 230.361 101.068 230.497 99.2884C230.563 98.4366 230.67 97.5885 230.666 96.7331C230.666 96.6021 230.703 96.431 230.53 96.3837C230.376 96.34 230.262 96.4565 230.185 96.573C229.501 97.6104 228.416 98.0945 227.338 98.6223C225.966 99.2993 224.521 99.0991 223.094 99.0955C220.619 99.0955 218.596 98.0581 216.945 96.3109C216.033 95.3499 215.514 94.1706 215.194 92.8893C214.948 91.9065 215.069 90.9419 215.069 89.9554C215.069 88.6414 215.44 87.473 216.066 86.3664C216.967 84.7648 218.361 83.6983 220.089 83.0431C221.751 82.417 223.48 82.1877 225.245 82.3624C226.724 82.5116 228.118 82.9557 229.361 83.7784C229.659 83.9749 229.909 84.2443 230.174 84.4845C230.28 84.5792 230.402 84.6993 230.53 84.5974C230.619 84.5246 230.729 84.3899 230.652 84.2443C230.42 83.8075 230.847 83.3598 230.608 82.9048C230.512 82.7191 230.78 82.6936 230.931 82.6936C231.387 82.6864 231.843 82.6936 232.413 82.6936L232.402 82.6864ZM224.433 96.4128C224.958 96.391 225.488 96.471 226.007 96.3509C228.302 95.8158 229.912 94.5418 230.464 92.2159C230.747 91.022 230.637 89.7953 230.266 88.6523C229.375 85.9078 226.58 84.7539 223.84 85.0269C223.509 85.0596 223.208 85.1907 222.895 85.2307C221.95 85.3508 221.163 85.7622 220.442 86.33C219.247 87.2764 218.666 88.5249 218.438 90.0064C218.162 91.8155 218.681 93.388 219.868 94.6984C221.053 96.0051 222.649 96.5184 224.436 96.4164L224.433 96.4128Z" fill="white"/>
<path d="M176.931 88.5575C176.931 85.4744 176.934 82.3913 176.931 79.3083C176.931 78.5184 176.901 77.7249 176.865 76.935C176.85 76.6365 176.96 76.5528 177.251 76.5601C178.075 76.5746 178.902 76.5783 179.726 76.5564C180.068 76.5491 180.138 76.6875 180.138 76.9859C180.13 79.1554 180.145 81.3248 180.119 83.4979C180.116 83.8655 180.009 84.2368 180.035 84.6154C180.042 84.7209 179.965 84.8775 180.138 84.9175C180.27 84.9466 180.373 84.852 180.447 84.7537C180.899 84.1313 181.517 83.7054 182.186 83.3487C182.962 82.9301 183.786 82.6825 184.669 82.5297C185.327 82.4132 185.974 82.3986 186.629 82.3477C187.688 82.2639 188.707 82.4678 189.693 82.7735C190.998 83.1776 192.26 83.7563 193.231 84.71C194.301 85.7583 194.97 87.0687 195.327 88.5393C195.503 89.2637 195.691 90.0026 195.691 90.7197C195.695 93.7845 194.665 96.3944 191.885 98.0907C190.502 98.9352 189.012 99.412 187.361 99.5467C185.404 99.7068 183.617 99.3028 181.91 98.4365C181.362 98.1562 180.951 97.6976 180.491 97.3044C180.377 97.2062 180.292 97.1006 180.145 97.1479C179.954 97.2062 180.046 97.3809 180.046 97.501C180.038 97.8795 180.024 98.2618 180.068 98.6367C180.101 98.906 180.035 99.0116 179.763 99.0079C178.939 99.0043 178.111 98.997 177.288 99.0079C176.92 99.0116 176.923 98.8005 176.923 98.5348C176.927 95.2114 176.923 91.8881 176.923 88.5611C176.927 88.5611 176.931 88.5611 176.934 88.5611L176.931 88.5575ZM180.027 90.6396C180.035 91.6915 180.064 92.5397 180.428 93.3951C181.164 95.1277 182.429 96.1833 184.224 96.7002C185.033 96.9332 185.853 96.7948 186.67 96.8167C188.957 96.8786 191.061 95.3971 191.793 93.2713C192.124 92.3067 192.289 91.3239 192.164 90.2756C192.057 89.3401 191.848 88.4556 191.366 87.6657C190.182 85.7329 188.295 84.9721 186.103 84.9612C184.341 84.9503 182.712 85.4271 181.473 86.7885C180.995 87.3126 180.557 87.895 180.289 88.5102C179.983 89.2054 179.932 90.0244 180.02 90.6396H180.027Z" fill="white"/>
<path d="M153.434 91.7497C151.047 91.7497 148.66 91.7497 146.273 91.7497C146.005 91.7497 145.836 91.7133 145.894 92.1428C146.049 93.2239 146.49 94.1485 147.248 94.9092C148.094 95.7646 149.116 96.3798 150.289 96.711C152.621 97.3735 156.074 96.6237 157.299 94.2759C157.406 94.072 157.586 93.9992 157.821 94.0029C158.664 94.0174 159.506 94.032 160.348 94.0247C160.716 94.0247 160.705 94.1885 160.605 94.4433C160.164 95.5572 159.458 96.4781 158.539 97.2534C156.983 98.5638 155.184 99.2554 153.136 99.4265C151.58 99.5539 150.065 99.5029 148.575 99.0188C146.608 98.3782 144.949 97.348 143.85 95.5499C142.754 93.7554 142.323 91.8043 142.555 89.7586C142.731 88.208 143.298 86.7629 144.221 85.4379C144.648 84.8264 145.196 84.426 145.74 83.9783C146.332 83.4942 147.038 83.2357 147.733 82.93C148.583 82.5551 149.48 82.293 150.367 82.2202C151.018 82.1656 151.713 81.9727 152.4 82.2093C152.669 82.3003 152.996 82.2748 153.287 82.242C154.442 82.1037 155.508 82.5405 156.501 82.9336C157.612 83.3741 158.553 84.1931 159.34 85.1322C160.072 86.0058 160.536 87.0213 160.881 88.0624C161.198 89.0197 161.242 90.0535 161.278 91.069C161.304 91.7752 161.29 91.7643 160.594 91.7606C158.487 91.7534 156.383 91.7606 154.276 91.7606C153.997 91.7606 153.713 91.7606 153.434 91.7606V91.7534V91.7497ZM151.941 89.3692C151.941 89.3692 151.941 89.3473 151.941 89.3364C152.871 89.3364 153.802 89.3327 154.728 89.3364C155.659 89.3437 156.586 89.3437 157.516 89.3764C157.847 89.3873 157.983 89.2927 157.906 88.9797C157.483 87.3198 156.53 86.064 154.923 85.3615C153.621 84.7937 152.25 84.6699 150.826 84.8228C148.388 85.0849 146.711 86.7993 146.041 88.8814C145.942 89.1871 145.979 89.3837 146.42 89.3764C148.259 89.3546 150.102 89.3655 151.944 89.3655L151.941 89.3692Z" fill="white"/>
<path d="M113.46 99.5286C110.823 99.4485 108.399 98.7715 106.509 96.8641C105.145 95.4882 104.479 93.7701 104.177 91.8737C103.964 90.5233 104.089 89.2019 104.545 87.968C105.464 85.4673 107.094 83.5672 109.808 82.7664C110.407 82.5881 111.003 82.3951 111.595 82.1877C111.757 82.1294 111.845 82.2605 111.989 82.2532C112.456 82.2313 112.93 82.1731 113.39 82.1658C115.251 82.1476 117.101 82.3151 118.749 83.2797C120.643 84.3899 121.871 85.9951 122.434 88.1063C122.717 89.1692 122.875 90.2321 122.849 91.3277C122.842 91.6881 122.824 91.9429 122.338 91.7754C122.151 91.7099 121.923 91.7536 121.709 91.7536C117.167 91.7536 112.621 91.7536 108.079 91.7427C107.66 91.7427 107.528 91.8446 107.568 92.2632C107.656 93.1331 108.032 93.8575 108.598 94.52C109.356 95.4045 110.253 96.0743 111.353 96.5147C112.298 96.8933 113.269 96.9806 114.258 96.9042C115.777 96.7841 117.156 96.3145 118.234 95.197C118.403 95.0223 118.609 94.8512 118.693 94.6401C118.936 94.0286 119.37 93.9339 119.973 93.9958C120.599 94.0613 121.235 94.0104 121.867 94.0213C122.379 94.0286 122.448 94.1232 122.231 94.5527C121.599 95.8013 120.771 96.9042 119.58 97.6941C118.123 98.6587 116.568 99.3575 114.762 99.4303C114.335 99.4485 113.901 99.5068 113.464 99.525L113.46 99.5286ZM113.585 89.373C113.585 89.373 113.585 89.3657 113.585 89.3621C115.251 89.3621 116.917 89.3439 118.579 89.3694C119.602 89.3839 119.598 89.4094 119.297 88.4412C119.278 88.3757 119.275 88.3065 119.252 88.2446C118.793 86.9633 117.958 85.9551 116.7 85.4091C115.376 84.8376 113.975 84.6592 112.496 84.8194C110.415 85.0451 108.182 86.7013 107.653 88.7943C107.513 89.3403 107.531 89.373 108.116 89.3767C109.94 89.3767 111.761 89.3767 113.585 89.3767V89.373Z" fill="white"/>
<path d="M240.269 84.9902C240.614 84.6335 240.857 84.3896 241.093 84.1385C242.064 83.1011 243.336 82.6388 244.689 82.3622C245.572 82.1838 246.473 82.1074 247.378 82.151C249.029 82.2311 250.625 82.5915 251.957 83.567C252.913 84.2695 253.409 85.3433 253.645 86.5008C253.825 87.3926 253.829 88.3026 253.829 89.209C253.832 92.2921 253.84 95.3715 253.836 98.4546C253.836 98.8186 253.895 99.168 253.229 99.037C252.519 98.8987 251.762 98.9897 251.026 99.0079C250.692 99.0188 250.574 98.9351 250.589 98.582C250.728 95.7792 250.666 92.9691 250.625 90.1663C250.614 89.3073 250.655 88.441 250.43 87.5637C250.099 86.2715 249.316 85.4926 248.095 85.1358C246.664 84.7172 245.186 84.6554 243.733 85.0558C242.06 85.5144 240.968 86.6137 240.364 88.2007C240.236 88.5356 240.276 88.8741 240.276 89.209C240.269 92.2739 240.261 95.3388 240.28 98.4036C240.28 98.8768 240.158 99.0443 239.662 99.0188C238.893 98.9788 238.117 99.0006 237.345 99.0261C236.999 99.037 236.893 98.9314 236.893 98.5893C236.9 91.3748 236.9 84.1603 236.893 76.9458C236.893 76.6546 236.974 76.5636 237.271 76.5709C238.132 76.5891 238.993 76.5964 239.85 76.5709C240.217 76.56 240.272 76.6983 240.272 77.015C240.261 79.4938 240.265 81.9727 240.265 84.4552C240.265 84.5898 240.265 84.7245 240.265 85.0012L240.269 84.9902Z" fill="white"/>
<path d="M132.826 95.419C133.278 95.0041 133.385 94.4034 133.591 93.8793C134.036 92.7509 134.609 91.6844 135.062 90.5632C135.522 89.4276 136.128 88.3501 136.485 87.1671C136.581 86.8504 136.827 86.5774 136.96 86.268C137.416 85.2197 137.864 84.1714 138.295 83.1122C138.405 82.8355 138.57 82.6754 138.861 82.6717C139.839 82.6608 140.818 82.6499 141.792 82.7554C142.108 82.7882 141.958 82.9484 141.902 83.0648C141.461 83.9967 141.001 84.9249 140.564 85.8604C139.95 87.1671 139.35 88.4812 138.743 89.7916C138.401 90.5305 138.048 91.2658 137.706 92.0047C137.074 93.3733 136.441 94.742 135.812 96.1106C135.477 96.8386 135.168 97.5812 134.815 98.3019C134.484 98.9826 134.323 99.019 133.576 98.968C132.896 98.9243 132.208 98.9498 131.524 98.968C131.152 98.9789 130.968 98.826 130.818 98.4985C129.714 96.0888 128.585 93.69 127.471 91.2876C126.445 89.0745 125.426 86.8577 124.393 84.6482C124.142 84.1132 123.867 83.589 123.594 83.0648C123.458 82.8064 123.447 82.6717 123.823 82.679C124.698 82.6936 125.577 82.679 126.452 82.6717C126.927 82.6681 127.199 82.8501 127.397 83.3124C128.192 85.1833 129.034 87.0324 129.861 88.8925C130.652 90.6652 131.443 92.4415 132.237 94.2105C132.417 94.6109 132.528 95.0404 132.818 95.4226L132.826 95.419Z" fill="white"/>
<path d="M258.385 90.7271C258.385 89.0382 258.374 87.3528 258.396 85.6639C258.4 85.2744 258.286 85.1506 257.896 85.1652C257.072 85.1907 256.248 85.1543 255.428 85.2489C255.112 85.2853 254.994 85.1834 255.009 84.8558C255.035 84.2698 255.031 83.6837 255.009 83.1013C254.998 82.821 255.079 82.69 255.38 82.6936C256.204 82.7046 257.028 82.6136 257.848 82.741C258.234 82.8028 258.396 82.7082 258.393 82.3005C258.378 80.9246 258.4 79.545 258.378 78.1691C258.374 77.816 258.473 77.6704 258.841 77.6777C259.665 77.6886 260.489 77.6777 261.313 77.6632C261.655 77.6595 261.761 77.8088 261.758 78.1364C261.743 79.4977 261.769 80.8554 261.743 82.2168C261.736 82.6136 261.861 82.7046 262.251 82.6936C263.461 82.6645 264.671 82.6936 265.881 82.6609C266.326 82.65 266.48 82.8538 266.484 83.2324C266.491 83.731 266.484 84.2297 266.484 84.7284C266.484 85.096 266.315 85.2744 265.936 85.2416C264.748 85.1397 263.556 85.2016 262.365 85.1506C261.92 85.1324 261.728 85.2052 261.732 85.7221C261.761 88.8889 261.776 92.0594 261.725 95.2262C261.71 96.0634 262.548 96.8751 263.361 96.8169C264.299 96.7513 265.244 96.9333 266.178 96.7186C266.425 96.6603 266.476 96.8351 266.476 97.0243C266.476 97.6431 266.495 98.2656 266.476 98.8844C266.465 99.1647 266.355 99.3758 265.98 99.4122C264.671 99.5396 263.365 99.5396 262.052 99.5396C261.453 99.5396 260.956 99.3721 260.434 99.1537C259.176 98.6296 258.694 97.6104 258.477 96.3801C258.393 95.8887 258.374 95.3973 258.374 94.9022C258.374 93.5081 258.374 92.114 258.374 90.7198L258.385 90.7271Z" fill="white"/>
<path d="M199.134 99.0006C198.711 99.0006 198.292 98.9934 197.872 99.0006C197.49 99.0079 197.354 98.8004 197.453 98.4801C197.622 97.9377 197.556 97.3917 197.556 96.8457C197.556 92.2848 197.549 87.7203 197.53 83.1594C197.53 82.8099 197.626 82.6643 198.005 82.6716C198.81 82.6898 199.619 82.6825 200.425 82.6716C200.693 82.668 200.719 82.7189 200.697 83.0028C200.653 83.6253 200.73 84.2586 200.73 84.8847C200.73 85.0303 200.741 85.1759 200.855 85.2269C200.984 85.2815 201.057 85.1213 201.135 85.0376C201.705 84.4152 202.249 83.7672 202.94 83.254C203.941 82.5078 205.096 82.2566 206.313 82.1402C206.865 82.0892 207.387 82.1256 207.931 82.2239C208.31 82.293 208.343 82.5005 208.35 82.7189C208.38 83.6071 208.372 84.4916 208.369 85.3798C208.369 85.58 208.236 85.6964 208.027 85.6746C207.736 85.6455 207.42 85.6564 207.159 85.5508C206.129 85.1322 205.151 85.4598 204.169 85.7074C202.948 86.0168 202.106 86.7411 201.469 87.8404C200.958 88.7213 200.793 89.6313 200.778 90.5704C200.734 93.2203 200.76 95.8739 200.778 98.5238C200.778 98.9096 200.679 99.0407 200.289 99.0079C199.906 98.9751 199.516 99.0006 199.13 99.0006H199.134Z" fill="white"/>
<path d="M163.925 90.7925C163.925 88.2445 163.929 85.6928 163.918 83.1448C163.918 82.8099 164.043 82.668 164.37 82.668C165.124 82.668 165.878 82.6753 166.635 82.6716C166.922 82.6716 167.125 82.7553 167.099 83.0829C167.044 83.7636 167.22 84.4516 167.003 85.1286C166.97 85.2269 166.926 85.3761 167.099 85.4271C167.272 85.4781 167.342 85.3507 167.426 85.2342C167.901 84.5826 168.382 83.9383 169.048 83.4542C169.942 82.8027 170.887 82.3258 172.045 82.2239C172.763 82.162 173.454 82.1657 174.16 82.2457C174.561 82.2894 174.793 82.3913 174.771 82.8682C174.73 83.6581 174.749 84.4516 174.771 85.2451C174.782 85.5873 174.734 85.7074 174.337 85.6055C173.182 85.307 171.99 85.3361 170.835 85.4926C169.813 85.6346 168.945 86.217 168.294 87.036C167.452 88.0952 167.069 89.2964 167.088 90.6505C167.121 93.2859 167.091 95.9176 167.103 98.553C167.103 98.8624 167.025 98.9752 166.691 98.9679C165.988 98.9497 165.286 98.9606 164.587 98.9861C164.105 99.0043 163.907 98.8551 163.91 98.3418C163.932 95.8266 163.921 93.3113 163.921 90.7961L163.925 90.7925Z" fill="white"/>
<path d="M78.0826 75.2316C78.009 75.6684 77.7001 76.007 77.4647 76.3346C76.457 77.7396 75.5891 79.2247 74.677 80.6844C74.4416 81.0629 74.243 81.2231 73.6987 81.0593C72.5512 80.7135 71.3486 80.5533 70.1754 80.2803C69.3663 80.0947 68.5682 79.8654 67.7407 79.7525C67.4685 79.7161 67.1155 79.5924 67.2736 79.1446C68.057 76.9279 68.7852 74.6929 69.4325 72.4325C69.5207 72.1267 69.5722 71.81 69.6605 71.5006C69.815 70.9583 70.0283 70.8527 70.5432 71.1075C71.4957 71.5771 72.4335 72.0721 73.3714 72.5599C74.8388 73.3243 76.3026 74.0996 77.77 74.864C77.9281 74.9441 78.1047 74.995 78.0826 75.2244V75.2316Z" fill="white"/>
<path d="M86.9604 71.0818C87.1737 71.0818 87.2951 71.1072 87.3613 71.3693C87.6592 72.545 87.9792 73.7135 88.3286 74.8746C88.6816 76.054 89.0935 77.2152 89.4466 78.3945C89.5238 78.6457 89.6415 78.8641 89.7592 79.0861C89.899 79.3555 89.8916 79.4683 89.5386 79.5848C88.3139 79.9816 87.0597 80.2364 85.8056 80.4948C84.8751 80.6877 83.941 80.8879 83.0252 81.1354C82.7935 81.1973 82.742 81.1609 82.639 80.9935C81.8299 79.7086 81.0135 78.4236 80.1933 77.146C79.8476 76.6073 79.5019 76.0722 79.1268 75.5553C78.873 75.2059 78.8399 75.053 79.3254 74.82C81.5835 73.7244 83.8123 72.5669 86.0447 71.4203C86.3426 71.2674 86.6331 71.1254 86.9641 71.0781L86.9604 71.0818Z" fill="white"/>
<path d="M90.6238 80.1055C90.8629 80.1965 91.2343 80.222 91.5616 80.3494C92.8599 80.8663 94.2427 81.1102 95.5668 81.5397C96.6443 81.8891 97.7219 82.2313 98.7995 82.5807C99.1342 82.6899 99.1011 82.952 98.9834 83.1668C98.1118 84.7902 97.196 86.3954 96.3464 88.0298C95.9639 88.7724 95.5668 89.504 95.1659 90.2356C94.8386 90.8253 94.8643 90.778 94.3273 90.414C93.5072 89.8571 92.6429 89.3693 91.7933 88.8524C90.918 88.321 90.039 87.7968 89.1674 87.2618C88.8143 87.0434 88.6709 86.7886 88.8254 86.3336C89.366 84.732 89.5904 83.0503 89.9876 81.4123C90.0758 81.0483 90.1862 80.6952 90.2781 80.3312C90.3112 80.1965 90.3186 80.0473 90.6275 80.1019L90.6238 80.1055Z" fill="white"/>
<path d="M74.0843 101.043C74.3491 101.017 74.4705 101.181 74.5882 101.363C75.7025 103.092 76.8132 104.825 77.9349 106.55C78.1556 106.892 78.1262 107.016 77.6995 107.205C76.4601 107.766 75.2612 108.41 74.0586 109.043C72.8706 109.666 71.6496 110.223 70.4985 110.907C70.2116 111.078 69.9799 111.071 69.8585 110.681C69.4466 109.327 69.0421 107.973 68.5824 106.634C68.1668 105.429 67.902 104.173 67.3797 103.005C67.2179 102.641 67.4459 102.51 67.7549 102.44C68.9023 102.189 70.0498 101.938 71.1972 101.691C72.0431 101.505 72.889 101.319 73.7349 101.134C73.8526 101.108 73.9666 101.072 74.0843 101.039V101.043Z" fill="white"/>
<path d="M83.0075 101.05C83.7136 101.334 84.4823 101.381 85.2178 101.567C86.5161 101.895 87.8327 102.135 89.142 102.422C89.7562 102.557 89.804 102.648 89.6201 103.216C88.9287 105.342 88.2594 107.471 87.5275 109.582C87.4061 109.932 87.4944 110.285 87.3068 110.645C87.0567 111.137 86.7956 111.009 86.4793 110.845C85.3502 110.267 84.2322 109.666 83.1031 109.087C81.838 108.439 80.5691 107.795 79.2856 107.184C78.9583 107.027 78.9619 106.871 79.1201 106.63C79.5467 105.979 79.9807 105.338 80.4036 104.683C81.1245 103.565 81.8416 102.444 82.5441 101.316C82.6618 101.13 82.7758 101.025 83.0075 101.05Z" fill="white"/>
<path d="M95.475 92.4561C96.6078 94.4435 97.7258 96.4419 98.7299 98.4985C98.8696 98.7824 99.2705 99.0372 99.0829 99.3502C98.899 99.6596 98.4283 99.5941 98.0863 99.7033C97.2845 99.9581 96.4864 100.242 95.6883 100.475C95.0484 100.661 94.3938 100.854 93.7391 101.025C92.8197 101.265 91.9186 101.567 91.0102 101.844C90.602 101.971 90.3078 101.916 90.2195 101.432C89.9326 99.7943 89.4361 98.2036 89.0867 96.5802C89.0169 96.2635 88.9801 95.9432 88.8624 95.6301C88.73 95.2843 88.9433 95.055 89.2375 94.8767C90.5358 94.0904 91.8267 93.3005 93.1213 92.5107C93.1617 92.5653 93.1948 92.6599 93.239 92.6635C93.912 92.7291 94.5887 92.7218 95.2654 92.6708C95.3721 92.6635 95.4309 92.558 95.4714 92.4597L95.475 92.4561Z" fill="white"/>
<path d="M209.864 90.8541C209.864 88.3571 209.864 85.8637 209.864 83.3667C209.864 82.6896 209.871 82.6896 210.552 82.6823C211.273 82.6787 211.99 82.6824 212.711 82.6787C212.898 82.6787 213.001 82.6787 213.031 82.9408C213.064 83.2466 213.101 83.5232 213.009 83.8326C212.884 84.2694 213.104 84.7062 213.104 85.1503C213.101 89.5729 213.097 93.9955 213.115 98.4217C213.115 98.8731 213.001 99.0187 212.534 98.9968C211.799 98.9641 211.059 98.9786 210.324 99.0077C209.956 99.0223 209.846 98.9131 209.846 98.5455C209.86 95.9829 209.853 93.4167 209.853 90.8541H209.86H209.864Z" fill="white"/>
<path d="M213.097 78.289C213.097 78.7003 213.079 79.1153 213.104 79.5266C213.123 79.8578 213.02 79.9852 212.667 79.978C211.861 79.9634 211.056 79.9743 210.25 79.9925C209.96 79.9998 209.846 79.9124 209.849 79.614C209.864 78.7549 209.857 77.8959 209.846 77.0368C209.842 76.702 209.941 76.5455 210.328 76.56C211.115 76.5891 211.905 76.5855 212.692 76.56C213.045 76.5491 213.145 76.6656 213.119 77.0041C213.086 77.43 213.112 77.8631 213.112 78.2926H213.104L213.097 78.289Z" fill="white"/>
<path d="M269.584 79.3156C269.584 78.9043 269.573 78.4894 269.591 78.078C269.599 77.907 269.661 77.7286 269.882 77.6995C270.073 77.674 270.147 77.8232 270.246 77.9434C270.647 78.4311 270.709 79.0754 271.051 79.5923C271.121 79.6978 271.106 79.8835 271.309 79.8653C271.46 79.8507 271.493 79.716 271.544 79.6141C271.824 79.0972 272.103 78.584 272.364 78.0598C272.456 77.8778 272.567 77.6922 272.758 77.6849C273.001 77.674 273.023 77.9215 273.059 78.0999C273.214 78.8643 273.1 79.6396 273.122 80.4076C273.126 80.5642 273.004 80.5969 272.864 80.5933C272.717 80.586 272.706 80.4804 272.706 80.3749C272.71 79.909 272.721 79.4467 272.725 78.9808C272.725 78.8643 272.747 78.7041 272.6 78.675C272.46 78.6495 272.408 78.7988 272.357 78.908C272.155 79.3266 271.963 79.7488 271.754 80.1638C271.654 80.3567 271.566 80.5896 271.283 80.5896C271.011 80.5896 271.037 80.3312 270.959 80.1783C270.801 79.8726 270.68 79.5486 270.529 79.2428C270.452 79.09 270.33 78.9225 270.139 78.9771C269.974 79.0244 270.062 79.2174 270.058 79.3411C270.044 79.6505 270.062 79.9599 270.04 80.2693C270.029 80.4186 269.974 80.5787 269.76 80.5824C269.488 80.5824 269.58 80.3749 269.577 80.2438C269.562 79.9344 269.573 79.625 269.573 79.3156C269.58 79.3156 269.588 79.3156 269.591 79.3156H269.584Z" fill="white"/>
<path d="M63.9963 92.4599C63.875 92.7074 63.6433 92.6928 63.4152 92.7001C62.8378 92.7183 62.231 92.5763 61.7419 93.0459C61.5874 93.1951 61.4624 93.0277 61.3594 92.9185C61.466 92.4162 61.9147 92.0886 62.0545 91.5936C62.1207 91.3533 62.3561 91.4225 62.5216 91.5244C63.0181 91.8302 63.5072 92.1468 64 92.4599H63.9963Z" fill="white"/>
<path d="M266.473 77.7792C267.462 77.9285 268.374 77.5645 269.316 77.8084C269.132 78.1323 268.856 78.136 268.598 78.1105C268.168 78.0704 268.058 78.2379 268.087 78.6419C268.124 79.2061 268.098 79.774 268.087 80.3418C268.087 80.4947 268.146 80.7204 267.852 80.6985C267.609 80.6803 267.657 80.4947 267.657 80.3491C267.65 79.7812 267.624 79.2134 267.661 78.6492C267.686 78.2306 267.576 78.0522 267.124 78.1178C266.899 78.1505 266.627 78.1978 266.473 77.7792Z" fill="white"/>
<path d="M95.4751 92.4561C95.4346 92.5544 95.3758 92.66 95.2691 92.6673C94.5924 92.7182 93.9157 92.7219 93.2427 92.66C93.1986 92.6563 93.1618 92.5617 93.125 92.5071C93.5847 92.1941 94.0444 91.881 94.5005 91.5607C94.7506 91.3823 94.9492 91.3896 95.0926 91.6808C95.2213 91.9393 95.35 92.1977 95.4788 92.4561H95.4751Z" fill="white"/>
</svg>
