<svg width="900" height="500" viewBox="0 0 900 500" fill="none" xmlns="http://www.w3.org/2000/svg">
<path d="M396.941 346.12V338.42C401.771 338.61 408.201 338.6 412.061 335.22C413.741 333.75 424.251 316.75 423.301 315.96C421.691 316.04 420.051 316.21 419.141 314.65L386.001 255.63L342.941 284.5L389.871 316.59H375.401C372.881 316.59 339.281 290.84 333.751 288.21L326.861 287.71V316.59H317.221V229C319.291 227.45 324.721 227.43 326.861 229V279.37L333.901 279.02L370.541 255.28L395.861 255.09L425.961 307.83L427.781 308.89L454.791 254.99H465.721C455.111 275.91 445.031 297.24 433.911 317.89C429.781 325.55 422.551 340.67 414.461 344.04L407.211 346.11H396.921L396.941 346.12Z" fill="white"/>
<path d="M231.07 296.07H240.72C239.96 303.98 242.85 307.91 250.75 308.83C261.26 310.07 278.83 310.4 289.18 308.83C296.17 307.77 299.97 306.41 299.15 298.39C298.45 291.55 293.55 289.59 287.32 289.03C274.01 287.82 250.17 291.79 238.79 286.77C229.33 282.61 229.58 264.68 237.19 258.86C244.11 253.56 258.8 254.51 267.4 254.36C276.43 254.21 287.01 253.5 296.05 255.3C304.2 256.92 307.14 264.4 306.34 272.03L297.31 272.33C297.58 265.05 293.19 263.19 286.72 262.68C276.33 261.87 259.52 261.17 249.6 263.54C245.1 264.61 241.59 266.19 241.43 271.43C241.07 283.48 254.29 280.31 262.29 280.65C263.81 280.72 265.22 281.3 266.74 281.34C276.66 281.63 295.8 279.28 303.69 284.88C311.44 290.39 311.16 310.07 302.05 314.6C294.58 318.31 264.52 318.47 255.2 317.88C244.7 317.22 233.33 315.93 231.09 303.77V296.07H231.07Z" fill="white"/>
<path d="M668.891 287.73H599.461C599.271 294.61 599.961 302.93 606.741 306.46C614.541 310.52 644.301 310.86 652.421 307.54C656.831 305.74 658.721 302.69 659.261 298H668.901C669.651 312.45 657.921 315.7 646.001 317.17C635.631 318.45 610.361 318.66 601.441 313.68C589.311 306.9 588.771 288.07 590.541 275.94C592.581 261.96 598.831 256.44 612.721 254.44C622.531 253.03 648.241 252.99 656.921 257.01C663.761 260.18 668.891 269.82 668.891 277.14V287.73ZM659.251 279.39C659.081 273.38 658.041 267.71 652.171 264.96C643.541 260.9 614.901 260.78 606.381 264.81C600.781 267.46 598.971 273.56 599.461 279.4H659.251V279.39Z" fill="white"/>
<path d="M582.1 316.61H573.1V276.5C573.1 273.57 570.39 268.09 567.91 266.28C560.3 260.7 540.35 261.79 531.28 263.65C524.2 265.1 519.55 267.88 517.95 275.37C517.78 276.14 517.16 280.46 517.16 280.99V316.6H508.16V255H517.16V266.55C520.55 261.91 522.34 258.05 528.23 256.1C537.11 253.16 560.71 253.15 569.41 256.42C575.22 258.61 582.09 265.49 582.09 272V316.6L582.1 316.61Z" fill="white"/>
<path d="M483.09 228.05H474.09V316.6H483.09V228.05Z" fill="white"/>
<path d="M500.451 255H490.811V316.6H500.451V255Z" fill="white"/>
<path d="M500.451 228.05V239.6H490.811V229.01C493.231 227.01 497.411 228.47 500.451 228.05Z" fill="white"/>
<path d="M466.381 328.48C466.661 327.58 468.641 327.15 469.491 327.64L476.991 338.42L484.491 327.64L487.001 327.8C487.821 328.38 487.871 337.86 487.591 339.39C487.391 340.5 486.901 341.19 485.671 341V329.45L476.991 340.99L468.311 329.45V340.04L467.351 340.99L466.391 340.04V328.49L466.381 328.48Z" fill="white"/>
<path d="M648.16 328.31C648.64 328.78 649.25 331.03 648.96 331.36C647.09 331.55 647.53 329.55 645.81 329.07C643.88 328.53 636.82 328.36 635.45 329.74C634.44 330.76 634.45 338.11 635.42 338.78C639.31 339.16 643.09 339.94 646.91 338.94L647.67 335.85C647.11 335.31 641.66 336.84 640.61 334.88C640.61 333.3 647.63 334.08 648.96 333.91C649.15 337.35 649.49 340.26 645.38 340.93C643.21 341.28 635.39 341.17 633.84 339.69C632.29 338.21 632.47 330.11 634.18 328.47C635.67 327.04 646.82 326.98 648.16 328.3V328.31Z" fill="white"/>
<path d="M458.979 339.07C459.739 338.84 460.059 337.64 459.979 336.84C459.509 332.37 448.279 336.58 446.959 333.02C444.389 326.07 457.799 326.34 460.289 328.78C462.699 331.14 460.179 332.45 459.319 330.88C459.149 330.56 459.629 329.84 458.889 329.42C456.649 328.17 447.039 328.08 448.429 332.27C449.479 335.44 464.619 329.35 461.139 339.62C458.909 341.39 448.669 341.44 447.389 339.73C446.919 339.1 447.069 337.39 446.439 336.51L448.049 336.49L449.329 339.07H458.969H458.979Z" fill="white"/>
<path d="M523.921 327.51C527.001 328.17 528.031 333.28 524.891 334.89C527.331 335.56 525.791 338.8 526.171 340.98C523.711 341.46 525.561 338.15 524.571 336.48C523.271 334.28 515.721 335.52 513.311 335.2L512.671 340.66L511.381 340.01V328.46L512.341 327.5C515.711 327.99 520.811 326.84 523.911 327.5L523.921 327.51ZM513.311 333.93H523.921C524.761 333.93 525.241 331.37 524.791 330.5C524.601 329.95 522.991 328.79 522.631 328.79H513.311V333.92V333.93Z" fill="white"/>
<path d="M587.89 339.07V327.52H589.18V341C587.98 341.16 587.28 341 586.25 340.39C582.94 338.46 578.82 331.57 575.03 329.45V340.04L573.1 341V327.52C579.41 327.94 582.81 335.89 587.89 339.07Z" fill="white"/>
<path d="M607.821 327.51V328.8H596.891V333.29H607.171V334.57H596.891V339.07H607.821V340.99H594.961V327.51H607.821Z" fill="white"/>
<path d="M625.501 327.51C627.451 327.93 628.671 330.8 628.141 332.66C627.911 333.46 626.671 334.35 626.681 334.89C626.681 335.5 628.801 339.04 627.751 340.99C625.291 341.47 627.141 338.16 626.151 336.49C624.851 334.29 617.301 335.53 614.891 335.21L614.251 340.67L612.961 340.02V327.51C616.601 328.04 622.141 326.79 625.501 327.51ZM614.891 333.93H625.501C626.341 333.93 626.821 331.37 626.371 330.5C626.181 329.95 624.571 328.79 624.211 328.79H614.891V333.92V333.93Z" fill="white"/>
<path d="M567.96 327.51V328.79H557.35C555.9 329.83 556.43 331.72 556.39 333.28H567.32V334.56H556.39V339.05H567.96V340.98H555.1V327.5H567.96V327.51Z" fill="white"/>
<path d="M508.161 340.99C506.291 342.66 505.361 337.42 504.001 337.74L494.471 337.78C493.631 337.99 493.001 340.82 492.411 341.01C491.701 341.24 490.361 341.21 490.811 340.04C491.231 338.96 496.731 329.9 497.581 328.83C498.731 327.4 499.851 326.74 501.001 328.56C501.591 329.97 508.681 340.51 508.151 340.99H508.161ZM503.661 336.49L499.481 329.45L495.311 335.54C495.141 336.85 495.361 336.37 496.261 336.49C498.541 336.79 501.311 336.27 503.661 336.49Z" fill="white"/>
<path d="M668.25 327.52C667.22 329.84 662.37 332.7 661.51 334.58C660.59 336.59 661.74 339.01 660.85 340.99C658.25 340.94 659.74 336.39 658.92 334.58C658.07 332.71 653.2 329.83 652.18 327.52C655.9 327.06 657.54 331.46 660.3 333.24C662.01 333.54 665.57 326.72 668.25 327.52Z" fill="white"/>
<path d="M543.849 327.51C544.069 327.57 544.84 328.38 544.81 328.79C542.51 329.1 539.44 327.93 537.74 329.76V340.99H536.45V328.8H530.02V327.52C533.8 328.15 540.47 326.66 543.84 327.52L543.849 327.51Z" fill="white"/>
<path d="M566.391 230.8H359.631C372.941 186.31 414.191 153.88 463.011 153.88C511.831 153.88 553.081 186.31 566.391 230.8Z" fill="url(#paint0_linear_2463_1222)"/>
<defs>
<linearGradient id="paint0_linear_2463_1222" x1="463.011" y1="230.8" x2="463.011" y2="153.88" gradientUnits="userSpaceOnUse">
<stop stop-color="white" stop-opacity="0"/>
<stop offset="0.09" stop-color="white" stop-opacity="0.04"/>
<stop offset="0.23" stop-color="white" stop-opacity="0.14"/>
<stop offset="0.41" stop-color="white" stop-opacity="0.3"/>
<stop offset="0.62" stop-color="white" stop-opacity="0.52"/>
<stop offset="0.85" stop-color="white" stop-opacity="0.8"/>
<stop offset="1" stop-color="white"/>
</linearGradient>
</defs>
</svg>
