<svg width="329" height="183" viewBox="0 0 329 183" fill="none" xmlns="http://www.w3.org/2000/svg">
<path d="M82.9781 63.2485C67.4603 63.2485 54.834 75.9231 54.834 91.5001C54.834 107.077 67.4603 119.752 82.9818 119.752C98.5033 119.752 111.13 107.077 111.13 91.5001C111.13 75.9231 98.496 63.2485 82.9745 63.2485M77.1292 112.959C67.7308 110.375 60.7925 101.744 60.7925 91.5001C60.7925 90.7425 60.8328 89.9885 60.9059 89.2455C62.4266 88.9088 63.9948 88.7039 65.6142 88.7039C70.2495 88.7039 74.5338 90.1715 78.0907 92.6237C76.5443 96.1227 75.678 99.9877 75.678 104.05C75.678 107.165 76.1971 110.159 77.1256 112.959M81.6439 104.058C81.6439 92.0821 91.1191 82.3135 102.934 81.834C103.793 83.6201 104.433 85.538 104.802 87.5473C104.63 87.54 104.458 87.529 104.29 87.529C94.9574 87.529 87.3611 95.1528 87.3611 104.519C87.3611 107.436 88.1142 110.25 89.4887 112.743C87.6938 113.295 85.8112 113.65 83.8555 113.731C82.4408 110.803 81.6439 107.52 81.6439 104.058ZM94.9135 110.214C93.8827 108.508 93.3234 106.55 93.3234 104.511C93.3234 98.4395 98.2438 93.5021 104.29 93.5021C104.553 93.5021 104.809 93.5351 105.065 93.5534C104.414 100.562 100.518 106.612 94.9135 110.214Z" fill="white"/>
<path d="M128.544 100.237H122.98V82.5148H128.544V100.237ZM125.762 73.4307C127.473 73.4307 128.862 74.8288 128.862 76.5417C128.862 78.2545 127.473 79.6563 125.762 79.6563C124.051 79.6563 122.662 78.2582 122.662 76.5417C122.655 74.8251 124.048 73.4307 125.762 73.4307Z" fill="white"/>
<path d="M140.238 95.4052C142.449 95.4052 144.018 93.6118 144.018 91.2548C144.018 88.8977 142.449 87.2068 140.238 87.2068C138.026 87.2068 136.458 89.0002 136.458 91.3207C136.458 93.6411 137.957 95.4016 140.238 95.4016M131.79 105.393L135.712 102.385C136.677 103.743 138.034 104.423 139.777 104.423C142.099 104.423 143.875 103.025 143.875 100.375V98.5199C142.702 99.7021 141.024 100.379 139.134 100.379C134.711 100.379 131.004 96.6935 131.004 91.3975C131.004 86.1015 134.532 82.1963 139.668 82.1963C141.806 82.1963 143.765 83.1955 145.122 84.4838L146.335 82.4818H149.435V100.196C149.435 105.635 145.729 109.247 139.88 109.247C136.454 109.255 133.53 107.714 131.786 105.39" fill="white"/>
<path d="M163.02 87.6021C162.055 86.8481 160.808 86.4199 159.558 86.4199C158.451 86.4199 157.847 86.9213 157.847 87.635C157.847 88.1365 158.206 88.6013 159.021 88.7806L160.553 89.2088C164.548 90.391 166.083 92.2503 166.083 94.9001C166.083 97.8721 163.587 100.591 158.845 100.591C156.064 100.591 153.464 99.7313 151.607 98.1209L154.214 94.5085C155.321 95.5809 157.065 96.2617 158.385 96.2617C159.81 96.2617 160.311 95.548 160.311 94.8306C160.311 94.2194 159.851 93.685 158.886 93.4727L156.784 92.759C154.715 92.1149 152.148 90.757 152.148 87.7156C152.148 84.6741 154.678 82.2036 159.101 82.2036C161.382 82.2036 163.627 82.8478 165.447 84.1397L163.02 87.6094V87.6021Z" fill="white"/>
<path d="M265.323 104.672C264.143 107.608 262.041 109.149 258.977 109.149C258.44 109.149 257.764 109.075 257.266 109.006L257.478 106.323H258.937C260.578 106.323 261.609 105.642 262.22 104.178L263.861 100.207L256.868 82.771H260.293L265.499 96.2618L270.737 82.771H274.162L265.32 104.676L265.323 104.672ZM246.57 97.5501C249.813 97.5501 251.991 94.8271 251.991 91.3903C251.991 88.1732 249.747 85.4502 246.537 85.4502C243.152 85.4502 241.083 88.1732 241.083 91.5001C241.083 94.8271 243.145 97.5501 246.574 97.5501M238.762 105.031L241.368 103.531C242.334 105.104 244.326 106.18 246.362 106.18C249.824 106.18 251.995 104.211 251.995 100.851V97.6343C250.672 99.5302 248.57 100.603 246.362 100.603C241.299 100.603 237.841 96.5217 237.841 91.5111C237.841 86.5006 241.083 82.4197 246.541 82.4197C249.147 82.4197 251.392 83.8178 252.565 85.2855L253.779 82.6722H255.205V100.815C255.205 106.078 251.641 109.229 246.362 109.229C243.039 109.229 240.224 107.546 238.762 105.038M228.815 100.233H225.606V82.6649H227.031L228.245 85.2452C229.243 83.5616 231.239 82.4197 233.45 82.4197C235.125 82.4197 236.803 83.0309 238.192 84.1033L236.517 86.5738C235.446 85.8198 234.481 85.4648 233.308 85.4648C231.129 85.4648 229.21 87.1484 228.815 89.37V100.229V100.233ZM209.518 89.9666H219.574C219.431 87.3534 217.362 85.2818 214.621 85.2818C211.766 85.2745 209.77 87.3204 209.518 89.9666ZM219.859 95.4054L222.568 96.7962C220.784 99.3765 218.075 100.592 215.078 100.592C209.624 100.592 206.092 96.7632 206.092 91.5001C206.092 86.2371 209.269 82.4087 214.58 82.4087C219.892 82.4087 222.886 86.4896 222.886 91.1049C222.886 91.7856 222.853 92.3566 222.816 92.6055H209.408C209.66 95.614 211.729 97.7258 215.081 97.7258C216.825 97.7331 218.576 97.1548 219.859 95.4017M191.192 100.233H187.983V82.6649H189.408L190.732 85.1354C191.945 83.4921 194.084 82.4123 196.222 82.4123C200.393 82.4123 203.713 85.2781 203.713 90.1057V100.229H200.503V90.3912C200.503 87.5656 199.077 85.4538 196.047 85.4538C194.018 85.4538 192.124 86.7421 191.196 88.638V100.229L191.192 100.233ZM171.895 89.9666H181.951C181.808 87.3534 179.739 85.2818 176.998 85.2818C174.143 85.2745 172.147 87.3204 171.895 89.9666ZM182.236 95.4054L184.945 96.7962C183.161 99.3765 180.452 100.592 177.462 100.592C172.008 100.592 168.477 96.7632 168.477 91.5001C168.477 86.2371 171.653 82.4087 176.965 82.4087C182.276 82.4087 185.27 86.4896 185.27 91.1049C185.27 91.7856 185.237 92.3566 185.201 92.6055H171.788C172.041 95.614 174.11 97.7258 177.462 97.7258C179.206 97.7331 180.957 97.1548 182.24 95.4017" fill="white"/>
<path d="M265.323 104.672C264.143 107.608 262.041 109.149 258.977 109.149C258.44 109.149 257.764 109.075 257.266 109.006L257.478 106.323H258.937C260.578 106.323 261.609 105.642 262.22 104.178L263.861 100.207L256.868 82.771H260.293L265.499 96.2618L270.737 82.771H274.162L265.32 104.676L265.323 104.672ZM246.57 97.5501C249.813 97.5501 251.991 94.8271 251.991 91.3903C251.991 88.1732 249.747 85.4502 246.537 85.4502C243.152 85.4502 241.083 88.1732 241.083 91.5001C241.083 94.8271 243.145 97.5501 246.574 97.5501M238.762 105.031L241.368 103.531C242.334 105.104 244.326 106.18 246.362 106.18C249.824 106.18 251.995 104.211 251.995 100.851V97.6343C250.672 99.5302 248.57 100.603 246.362 100.603C241.299 100.603 237.841 96.5217 237.841 91.5111C237.841 86.5006 241.083 82.4197 246.541 82.4197C249.147 82.4197 251.392 83.8178 252.565 85.2855L253.779 82.6722H255.205V100.815C255.205 106.078 251.641 109.229 246.362 109.229C243.039 109.229 240.224 107.546 238.762 105.038M228.815 100.233H225.606V82.6649H227.031L228.245 85.2452C229.243 83.5616 231.239 82.4197 233.45 82.4197C235.125 82.4197 236.803 83.0309 238.192 84.1033L236.517 86.5738C235.446 85.8198 234.481 85.4648 233.308 85.4648C231.129 85.4648 229.21 87.1484 228.815 89.37V100.229V100.233ZM209.518 89.9666H219.574C219.431 87.3534 217.362 85.2818 214.621 85.2818C211.766 85.2745 209.77 87.3204 209.518 89.9666ZM219.859 95.4054L222.568 96.7962C220.784 99.3765 218.075 100.592 215.078 100.592C209.624 100.592 206.092 96.7632 206.092 91.5001C206.092 86.2371 209.269 82.4087 214.58 82.4087C219.892 82.4087 222.886 86.4896 222.886 91.1049C222.886 91.7856 222.853 92.3566 222.816 92.6055H209.408C209.66 95.614 211.729 97.7258 215.081 97.7258C216.825 97.7331 218.576 97.1548 219.859 95.4017M191.192 100.233H187.983V82.6649H189.408L190.732 85.1354C191.945 83.4921 194.084 82.4123 196.222 82.4123C200.393 82.4123 203.713 85.2781 203.713 90.1057V100.229H200.503V90.3912C200.503 87.5656 199.077 85.4538 196.047 85.4538C194.018 85.4538 192.124 86.7421 191.196 88.638V100.229L191.192 100.233ZM171.895 89.9666H181.951C181.808 87.3534 179.739 85.2818 176.998 85.2818C174.143 85.2745 172.147 87.3204 171.895 89.9666ZM182.236 95.4054L184.945 96.7962C183.161 99.3765 180.452 100.592 177.462 100.592C172.008 100.592 168.477 96.7632 168.477 91.5001C168.477 86.2371 171.653 82.4087 176.965 82.4087C182.276 82.4087 185.27 86.4896 185.27 91.1049C185.27 91.7856 185.237 92.3566 185.201 92.6055H171.788C172.041 95.614 174.11 97.7258 177.462 97.7258C179.206 97.7331 180.957 97.1548 182.24 95.4017" fill="white"/>
</svg>
