<svg width="329" height="183" viewBox="0 0 329 183" fill="none" xmlns="http://www.w3.org/2000/svg">
<path d="M138.705 84.6379C138.548 84.4256 138.336 84.1621 138.179 83.9498L138.022 83.7924C137.704 83.4228 137.335 83.0531 136.969 82.7383C136.812 82.581 136.6 82.4748 136.337 82.4748C136.073 82.4748 135.81 82.581 135.649 82.7932L133.697 85.5382C133.591 85.6956 133.54 85.8567 133.54 86.0653C133.54 86.3288 133.646 86.5411 133.803 86.6985C134.278 87.1194 134.648 87.5952 134.962 88.1222C135.488 89.0189 135.858 90.0217 135.964 91.0795C135.964 91.2369 136.015 91.4491 136.015 91.6065V91.7127C136.015 95.4605 132.955 98.5239 129.212 98.5239C126.997 98.5239 124.942 97.4698 123.674 95.6728L116.026 84.9014C113.811 81.7867 110.174 79.9384 106.376 79.8872C99.8358 79.8872 94.5645 85.2198 94.5645 91.7676C94.5645 92.1885 94.5644 92.5581 94.6156 92.9278V92.979C94.6668 93.3999 94.7216 93.7696 94.7728 94.1392V94.1905C95.2992 96.672 96.564 98.8899 98.4649 100.577C98.6221 100.789 98.8853 100.896 99.1522 100.896C99.5214 100.896 99.7846 100.683 99.9418 100.369L101.682 97.8871C101.788 97.7297 101.894 97.5687 101.894 97.36C101.894 97.1514 101.788 96.9391 101.631 96.7269C100.26 95.4056 99.4702 93.561 99.5214 91.6578C99.4702 89.8644 100.154 88.1734 101.419 86.9071C104.054 84.2133 108.379 84.1621 111.069 86.7497C111.387 87.0681 111.651 87.3829 111.859 87.7013L119.609 98.6301C123.407 103.963 130.787 105.178 136.114 101.375C141.44 97.5723 142.653 90.1828 138.855 84.8502C138.804 84.7989 138.749 84.744 138.698 84.6379H138.705Z" fill="white"/>
<path d="M132.01 80.8349C132.01 80.3591 131.64 79.9382 131.165 79.9382H131.114C130.218 79.832 129.323 79.832 128.423 79.8869L127.897 79.9382C124.574 80.3078 121.569 82.1012 119.617 84.8462L111.97 95.7201C110.811 97.5135 108.808 98.6225 106.698 98.6774H106.647C106.384 98.6774 106.172 98.8347 106.015 99.047L105.964 99.0983L103.854 102.056C103.536 102.425 103.642 103.007 104.012 103.322C104.118 103.373 104.169 103.428 104.275 103.479H104.326C105.485 103.585 106.647 103.637 107.806 103.585C111.129 103.216 114.185 101.422 116.137 98.6774L123.73 87.906C124.943 86.2699 126.789 85.2122 128.844 85.0548H128.895C129.213 85.0548 129.527 84.8975 129.633 84.579L131.849 81.4131C131.955 81.2009 132.006 81.0435 132.006 80.8312L132.01 80.8349Z" fill="white"/>
<path d="M90.7744 80.5713H87.9267C87.3455 80.5713 86.8739 81.0471 86.8739 81.6253V82.4159C86.8739 82.6282 86.7167 82.7856 86.5047 82.7856C86.3987 82.7856 86.2927 82.7343 86.2415 82.6794C84.3443 80.9885 81.917 80.0918 79.4385 80.0918C72.8476 80.0918 67.8906 85.267 67.8906 92.0746C67.8906 98.8822 72.7415 103.9 79.4385 103.9C82.5494 103.9 85.3971 102.634 86.9251 100.573C86.8191 106.751 84.3406 109.811 79.3837 109.811C77.0624 109.811 74.902 108.651 73.5823 106.696C73.3191 106.275 72.7379 106.114 72.2627 106.327C71.5754 106.696 70.5738 107.223 69.8902 107.593C69.627 107.75 69.415 107.963 69.3638 108.226C69.3126 108.49 69.3126 108.753 69.4698 108.966C71.5791 112.399 75.3772 114.51 79.3837 114.456C87.6087 114.456 91.776 109.493 91.776 99.6728V81.618C91.776 81.0361 91.3556 80.6152 90.7744 80.5639V80.5713ZM79.8077 98.9957C75.8012 98.9957 72.8987 96.1446 72.8987 92.0271C72.7927 88.2792 75.7464 85.1097 79.4897 85.0072H79.8077C83.1818 85.0072 86.8739 87.2251 86.8739 92.0271C86.8739 96.5691 83.2366 98.9957 79.8077 98.9957Z" fill="white"/>
<path d="M166.075 68.5337H163.227C162.646 68.5337 162.175 69.0095 162.175 69.5878V82.2038C162.175 82.4161 161.963 82.6247 161.754 82.6247C161.648 82.6247 161.542 82.5734 161.491 82.5185C159.857 80.9887 157.378 80.1432 154.688 80.1432C148.046 80.1432 143.246 85.1574 143.246 92.0235C143.246 98.8897 148.148 103.904 154.743 103.904C157.221 103.904 159.645 103.058 161.546 101.422C161.703 101.265 161.966 101.265 162.127 101.422C162.178 101.474 162.233 101.58 162.233 101.686V102.374C162.233 102.956 162.708 103.428 163.286 103.428H166.134C166.715 103.428 167.186 102.952 167.186 102.374V69.5878C167.135 69.0058 166.66 68.5337 166.079 68.5337H166.075ZM162.12 91.9211C162.12 96.7779 158.482 98.9958 155.108 98.9958C151.208 98.9958 148.254 95.9324 148.254 91.9211C148.254 87.9097 151.153 85.0037 155.108 85.0037C158.588 85.0037 162.12 87.379 162.12 91.9211Z" fill="white"/>
<path d="M173.035 68.5337H175.934C176.515 68.5337 176.987 69.0095 176.987 69.5878V102.374C176.987 102.956 176.512 103.428 175.934 103.428H173.035C172.454 103.428 171.982 102.952 171.982 102.374V69.5878C171.982 69.0058 172.458 68.5337 173.035 68.5337Z" fill="white"/>
<path d="M191.382 80.0957C184.634 80.0957 179.729 85.0587 179.729 91.9212C179.729 98.7837 184.631 103.853 191.382 103.853C195.813 103.853 199.501 101.898 201.453 98.5201C201.717 97.9931 201.559 97.3599 201.084 97.0964C201.033 97.0964 200.978 97.0452 200.927 97.0452C200.558 96.939 200.24 96.7816 199.874 96.6755C199.399 96.5181 198.979 96.3571 198.555 96.1997C198.134 95.9874 197.604 96.1485 197.341 96.5181C196.021 98.3664 193.81 99.4205 191.54 99.318C188.166 99.318 185.632 97.4185 184.843 94.41C184.791 94.3038 184.843 94.1977 184.894 94.0915C184.945 93.9854 185.106 93.9342 185.212 93.9342H201.662C202.243 93.9342 202.715 93.5133 202.715 92.9313V91.9285C202.663 84.9598 198.021 80.103 191.379 80.103L191.382 80.0957ZM184.846 89.4397C185.585 86.4824 188.114 84.6341 191.386 84.6341C194.658 84.6341 196.924 86.4275 197.663 89.4397C197.714 89.652 197.557 89.8606 197.345 89.9155H185.216C185.109 89.9155 184.952 89.8642 184.897 89.7581C184.846 89.7069 184.791 89.6007 184.846 89.4397Z" fill="white"/>
<path d="M227.978 80.5713H225.13C224.549 80.5713 224.128 81.0471 224.077 81.6254V82.2586C224.077 82.4159 223.971 82.577 223.865 82.6282C223.708 82.6795 223.547 82.6795 223.445 82.577C221.547 80.941 219.12 80.0955 216.642 80.1467C209.945 80.1467 205.094 85.1609 205.094 92.0271C205.094 98.8933 210.051 103.907 216.642 103.907C219.12 103.907 221.544 103.011 223.445 101.375C223.551 101.269 223.708 101.217 223.865 101.324C224.022 101.375 224.077 101.536 224.077 101.693V102.432C224.077 103.014 224.552 103.487 225.13 103.487H227.978C228.559 103.487 229.03 103.011 229.03 102.432V81.6327C228.979 81.0507 228.555 80.6299 227.978 80.5786V80.5713ZM224.022 91.921C224.022 96.7778 220.385 98.9957 217.011 98.9957C213.11 98.9957 210.102 95.9323 210.102 91.921C209.945 88.2244 212.844 85.1097 216.536 85.0036H217.011C220.491 85.0036 224.022 87.3789 224.022 91.921Z" fill="white"/>
<path d="M244.852 80.0955C242.374 80.0442 239.95 80.9922 238.104 82.6282C237.998 82.7343 237.841 82.7856 237.683 82.6794C237.526 82.6282 237.471 82.4671 237.471 82.3098V81.5704C237.471 80.9885 236.996 80.5164 236.419 80.5164H233.465C232.884 80.5164 232.412 80.9922 232.412 81.5704V113.087C232.412 113.669 232.887 114.141 233.465 114.141H236.364C236.945 114.141 237.417 113.665 237.417 113.087V101.737C237.417 101.58 237.523 101.419 237.629 101.367C237.786 101.316 237.947 101.316 238.049 101.419C239.895 103.055 242.319 103.9 244.797 103.849C251.388 103.849 256.188 98.8859 256.188 92.0234C256.188 85.1609 251.443 80.0918 244.852 80.0918V80.0955ZM251.231 92.1332C251.231 96.1995 248.434 99.0506 244.377 99.0506C240.948 99.0506 237.468 96.6753 237.468 92.1332C237.468 87.2251 241.054 85.0072 244.377 85.0072C248.383 85.0072 251.231 87.9645 251.231 92.1332Z" fill="white"/>
<path d="M261.108 78.7923C261.108 80.1026 260.07 81.164 258.761 81.164C257.453 81.164 256.422 80.1026 256.422 78.7923C256.422 77.482 257.456 76.4097 258.761 76.4097C260.066 76.4097 261.108 77.4747 261.108 78.7923ZM260.787 78.7923C260.787 77.6614 259.884 76.7317 258.761 76.7317C257.639 76.7317 256.736 77.6614 256.736 78.7923C256.736 79.9233 257.628 80.8419 258.761 80.8419C259.895 80.8419 260.787 79.9233 260.787 78.7923ZM259.072 79.1364L259.657 79.9928H259.284L258.71 79.1583H258.337V79.9928H258.001V77.6284H258.893C259.416 77.6284 259.646 77.9944 259.646 78.3824C259.646 78.7704 259.478 79.0632 259.083 79.1437H259.079L259.072 79.1364ZM258.33 77.9359V78.8436H258.875C259.185 78.8436 259.313 78.6166 259.313 78.3934C259.313 78.1701 259.185 77.9359 258.886 77.9359H258.334H258.33Z" fill="white"/>
</svg>
