<svg width="270" height="150" viewBox="0 0 270 150" fill="none" xmlns="http://www.w3.org/2000/svg">
<path d="M68.7158 58.1779C68.7158 56.5429 68.7188 54.9049 68.7128 53.2699C68.7128 53.0089 68.8058 52.7179 68.5958 52.4959C68.4728 52.3639 68.6078 52.3789 68.6588 52.3339C68.7938 52.2109 68.9588 52.2199 69.1238 52.2199C72.0308 52.2169 74.9408 52.1389 77.8448 52.2289C80.1698 52.3009 81.9938 53.3989 83.0558 55.4989C83.5208 56.4199 83.6558 57.4399 83.5148 58.5139C83.4158 59.2639 83.4098 60.0019 83.0018 60.6829C82.3058 61.8409 81.2468 62.6059 80.1068 63.2299C78.5558 64.0819 76.9418 64.8169 75.3548 65.6029C74.1038 66.2239 72.8168 66.7669 71.6078 67.4839C70.5368 68.1199 69.3518 68.5669 68.2148 69.0889C67.6058 69.3679 66.9998 69.6679 66.3698 69.8929C65.2118 70.3069 64.1798 70.9729 63.0577 71.4619C61.9837 71.9299 60.9637 72.5149 59.8897 72.9799C58.7527 73.4689 57.6787 74.0659 56.6197 74.6899C56.4007 74.8189 56.3467 74.6899 56.2957 74.5699C55.9507 73.7899 55.4917 73.0609 55.2577 72.2239C55.0537 71.4859 54.7567 70.7779 54.5737 70.0249C54.1957 68.4679 54.0127 66.8929 53.9677 65.2969C53.9017 62.9749 54.3217 60.7309 54.9967 58.5109C55.4017 57.1759 55.9807 55.9399 56.6017 54.6979C58.1707 51.5509 60.5467 49.1329 63.3037 47.0209C64.6117 46.0219 66.0878 45.3109 67.5368 44.5669C68.3708 44.1409 69.3398 43.9759 70.2398 43.6699C71.8388 43.1269 73.5308 43.1209 75.1748 42.8389C75.9158 42.7129 76.6898 42.7879 77.4578 42.8749C78.4958 42.9889 79.5188 43.1419 80.5448 43.3279C81.4238 43.4869 82.2878 43.6819 83.1308 43.9789C84.7118 44.5369 86.2448 45.1819 87.6998 46.0309C89.6978 47.1949 91.3808 48.7009 92.9078 50.4079C93.2888 50.8339 93.7268 51.2089 94.0388 51.7039C94.5038 52.4449 95.0078 53.1589 95.4878 53.8909C95.5748 54.0259 95.6588 54.1519 95.7698 54.2749C96.0608 54.5929 95.8778 55.1119 95.4728 55.2589C95.1728 55.3669 94.8548 55.4329 94.6088 55.6789C94.3208 55.9639 94.1648 56.0119 93.9398 55.5199C93.4298 54.4039 92.6198 53.4649 91.8668 52.4959C91.4468 51.9559 90.9878 51.4369 90.4988 50.9569C88.9568 49.4419 87.2318 48.1699 85.2908 47.2009C83.4458 46.2769 81.4898 45.6829 79.4618 45.2869C78.0188 45.0049 76.5578 44.9959 75.1178 45.0919C71.3558 45.3409 67.9058 46.4479 64.7528 48.6259C62.3227 50.3059 60.3667 52.3429 58.8937 54.8419C57.7537 56.7799 56.9857 58.8709 56.5507 61.1029C56.1877 62.9749 56.2417 64.8439 56.2927 66.7129C56.3287 67.9849 56.6077 69.2569 56.9617 70.4959C57.2857 71.6299 57.2677 71.6179 58.3387 71.1139C60.0397 70.3129 61.7857 69.5959 63.4537 68.7319C65.6558 67.5919 67.9268 66.5959 70.1228 65.4439C71.1578 64.9009 72.2498 64.4359 73.3238 63.9589C74.5688 63.4069 75.8258 62.8819 77.0408 62.2699C77.6318 61.9729 78.2408 61.7089 78.7988 61.3069C79.1618 61.0459 79.6658 60.9319 80.0768 60.6379C81.0668 59.9329 81.2918 58.8949 81.1298 57.8689C80.8958 56.4199 80.0528 55.3279 78.5138 54.9619C78.1298 54.8689 77.7278 54.8149 77.3318 54.8119C75.4868 54.7939 73.6388 54.8119 71.7938 54.7879C71.3258 54.7819 71.1368 54.9109 71.1788 55.4059C71.3768 57.6559 71.1818 59.9089 71.2388 62.1589C71.2538 62.7259 71.1488 63.1159 70.4678 63.2359C70.0688 63.3049 69.6548 63.4549 69.3068 63.7549C68.9888 64.0309 68.7458 63.8779 68.7428 63.4549C68.7428 61.6909 68.7428 59.9299 68.7428 58.1659H68.7158V58.1779Z" fill="white"/>
<path d="M86.8118 64.7239C87.2648 65.6179 87.6668 66.4879 87.7538 67.4659C88.0208 70.4869 87.1118 73.0699 84.7358 75.0199C83.5178 76.0189 82.0598 76.6909 80.4608 76.7179C76.7318 76.7839 73.0028 76.7329 69.2738 76.7479C68.7788 76.7479 68.6708 76.5739 68.6798 76.1089C68.7068 74.5459 68.6858 72.9829 68.6768 71.4199C68.6768 71.2309 68.6828 71.1079 68.9048 71.0029C69.5708 70.6849 70.2158 70.3189 70.8698 69.9739C71.1368 69.8329 71.2808 69.8839 71.2748 70.2169C71.2598 71.1079 71.2598 71.9989 71.2358 72.8869C71.2298 73.1359 71.2298 73.3879 71.1098 73.6309C71.0348 73.7839 71.0228 73.9969 71.1878 74.1319C71.3468 74.2609 71.5268 74.2639 71.6768 74.1049C71.8838 73.8829 72.0788 74.1229 72.2798 74.1199C74.8748 74.1049 77.4758 74.2009 80.0678 74.0809C82.2278 73.9819 84.3368 72.2899 84.9848 70.0219C85.5308 68.1109 85.2338 66.3679 83.8148 64.8829C83.6018 64.6609 83.2838 64.5799 83.1308 64.2799C82.9838 63.9949 82.9838 63.8479 83.3228 63.7099C84.9368 63.0499 86.4728 62.2279 87.9788 61.3639C89.3498 60.5779 90.8258 60.0199 92.2268 59.3029C93.5888 58.6069 95.0528 58.1209 96.3518 57.2959C96.7808 57.0229 97.1738 57.2149 97.2998 57.6979C97.5458 58.6429 97.8038 59.5819 98.0948 60.5119C98.2328 60.9529 98.2298 61.4089 98.2568 61.8439C98.3288 63.0499 98.5808 64.2409 98.5058 65.4589C98.4188 66.8749 98.2268 68.2729 97.9658 69.6679C97.5728 71.7589 96.8018 73.7059 95.7428 75.5389C94.3658 77.9239 92.7368 80.1199 90.5918 81.8899C89.2688 82.9849 87.8438 83.8999 86.2748 84.6499C84.7178 85.3939 83.1158 85.9129 81.4688 86.3869C80.5058 86.6659 79.5188 86.6449 78.5708 86.8879C77.7818 87.0919 76.9988 87.2599 76.1738 87.2059C74.9378 87.1249 73.7198 86.9209 72.4988 86.7319C71.6468 86.5999 70.8128 86.3929 69.9848 86.1679C69.3278 85.9879 68.6738 85.7749 68.0408 85.5229C66.7418 85.0069 65.5178 84.3409 64.3238 83.6239C63.0248 82.8439 61.8578 81.9019 60.8138 80.8039C60.2618 80.2219 59.6468 79.6999 59.1188 79.0999C58.5848 78.4939 58.0988 77.8459 57.6428 77.1829C57.3938 76.8229 57.5978 76.4509 58.0388 76.3999C58.2698 76.3729 58.4528 76.2859 58.6388 76.1659C59.1998 75.8119 59.5028 75.8689 59.8808 76.3999C61.2068 78.2629 62.8628 79.8169 64.6358 81.2389C65.3138 81.7849 66.1598 82.1179 66.9188 82.5709C68.1938 83.3329 69.5948 83.8039 71.0048 84.2059C72.4058 84.6049 73.8458 84.8599 75.3278 84.7849C76.5668 84.7219 77.8208 84.7999 79.0508 84.6679C80.5538 84.5089 82.0328 84.1489 83.4218 83.5399C85.4258 82.6579 87.3608 81.6319 89.0498 80.2249C90.0908 79.3549 91.0298 78.3889 91.8668 77.2999C92.6378 76.2979 93.4028 75.2929 93.9548 74.1679C94.8788 72.2779 95.6978 70.3279 95.9648 68.2249C96.1448 66.8149 96.3218 65.3899 96.1958 63.9589C96.1028 62.9209 95.9678 61.8889 95.8598 60.8509C95.8178 60.4609 95.6828 60.3949 95.3198 60.5809C93.7208 61.3909 92.1128 62.1859 90.4958 62.9629C89.2778 63.5479 88.0958 64.2049 86.8178 64.7179L86.8118 64.7239Z" fill="white"/>
<path d="M109.606 59.2399C109.606 56.6419 109.612 54.0439 109.597 51.4459C109.597 51.0859 109.711 50.9659 110.062 50.9659C112.018 50.9719 113.974 50.9299 115.927 50.9779C116.755 50.9989 117.556 51.2419 118.282 51.6949C118.993 52.1389 119.314 52.8109 119.437 53.5759C119.623 54.7519 119.95 55.9459 119.611 57.1249C119.371 57.9559 119.719 58.4269 120.268 58.9519C120.82 59.4799 120.946 60.2629 121.084 60.9799C121.312 62.1439 121.264 63.3469 121.045 64.4869C120.919 65.1409 120.802 65.8999 120.169 66.4309C119.59 66.9139 119.05 67.3489 118.276 67.5139C116.56 67.8799 114.829 67.7809 113.101 67.7959C112.225 67.8049 111.346 67.8079 110.47 67.8169C109.798 67.8229 109.543 67.5499 109.525 66.8719C109.459 64.3279 109.516 61.7839 109.603 59.2399H109.606ZM114.94 59.9509C114.022 59.9509 113.236 59.9509 112.45 59.9509C111.859 59.9509 111.688 60.1099 111.829 60.6559C111.922 61.0159 111.916 61.3699 111.919 61.7269C111.931 62.7979 111.943 63.8719 111.919 64.9429C111.91 65.3119 112.018 65.4079 112.381 65.4019C113.788 65.3809 115.195 65.3779 116.602 65.3959C117.211 65.4049 117.772 65.2639 118.33 65.0509C118.483 64.9909 118.573 64.9129 118.582 64.7419C118.618 63.9259 118.921 63.1519 118.915 62.3209C118.915 61.9009 118.666 61.5739 118.663 61.1719C118.657 60.4879 118.396 60.1969 117.7 60.0469C116.743 59.8399 115.771 60.0199 114.94 59.9479V59.9509ZM111.913 55.4149C111.913 55.4149 111.898 55.4149 111.892 55.4149C111.892 55.9759 111.904 56.5399 111.886 57.1009C111.877 57.4189 111.97 57.5509 112.321 57.5479C113.599 57.5479 114.877 57.5749 116.152 57.6019C116.404 57.6079 116.677 57.4999 116.908 57.6259C117.244 57.8149 117.352 57.6559 117.355 57.3649C117.364 56.4709 117.391 55.5739 117.334 54.6829C117.289 53.9689 116.911 53.4859 116.473 53.4199C115.135 53.2129 113.785 53.3149 112.441 53.2729C112.075 53.2609 111.88 53.4259 111.904 53.8369C111.934 54.3619 111.91 54.8899 111.91 55.4149H111.913Z" fill="white"/>
<path d="M123.073 59.3988C123.073 56.9268 123.073 54.4548 123.073 51.9828C123.073 51.1848 123.268 50.9688 124.054 50.9658C126.139 50.9568 128.224 50.9268 130.306 50.9928C131.434 51.0288 132.559 51.2568 133.537 51.8778C133.921 52.1208 134.065 52.5918 134.266 52.9938C134.497 53.4558 134.533 53.9748 134.575 54.4578C134.683 55.6908 134.725 56.9358 134.491 58.1598C134.269 59.3238 133.492 60.0918 132.505 60.6678C132.247 60.8178 132.154 60.8718 132.328 61.2228C132.682 61.9338 133.138 62.6088 133.318 63.4038C133.354 63.5658 133.51 63.6978 133.6 63.8538C134.083 64.6968 134.65 65.5038 134.74 66.5148C134.746 66.5808 134.8 66.6438 134.836 66.7068C134.983 66.9558 135.358 67.2288 135.076 67.4898C134.812 67.7298 134.407 67.9188 133.981 67.7328C133.933 67.7118 133.867 67.6938 133.822 67.7118C132.796 68.0628 132.682 67.1538 132.403 66.6168C131.599 65.0748 130.969 63.4548 130.213 61.8858C129.85 61.1298 129.448 61.1358 128.854 61.1388C127.849 61.1388 126.844 61.1448 125.836 61.1268C125.5 61.1208 125.416 61.2198 125.422 61.5678C125.452 63.4368 125.449 65.3088 125.452 67.1778C125.452 67.6758 125.02 67.7268 124.69 67.7898C124.336 67.8558 123.955 67.8528 123.598 67.7928C123.127 67.7178 123.052 67.3188 123.052 66.9228C123.049 64.5948 123.052 62.2698 123.052 59.9418C123.052 59.7588 123.052 59.5788 123.052 59.3958C123.061 59.3958 123.067 59.3958 123.076 59.3958L123.073 59.3988ZM125.422 56.0178C125.422 56.0178 125.446 56.0178 125.458 56.0178C125.458 56.5818 125.455 57.1428 125.458 57.7068C125.464 58.8078 125.467 58.8288 126.544 58.8168C128.074 58.7988 129.61 58.9278 131.134 58.7208C131.683 58.6458 132.274 58.1688 132.322 57.7668C132.451 56.6868 132.421 55.6098 132.373 54.5268C132.346 53.8998 132.022 53.4888 131.404 53.4288C130.879 53.3778 130.363 53.2848 129.829 53.2818C128.497 53.2728 127.165 53.3808 125.836 53.2248C125.515 53.1858 125.416 53.3268 125.419 53.6238C125.428 54.4218 125.422 55.2198 125.422 56.0178Z" fill="white"/>
<path d="M192.976 56.366C192.976 57.488 192.928 58.589 192.988 59.684C193.096 61.7 193 63.713 193.036 65.729C193.042 66.128 193.03 66.527 193.024 66.926C193.015 67.493 192.754 67.805 192.178 67.781C191.857 67.766 191.572 67.97 191.203 67.772C190.579 67.439 190.69 66.944 190.699 66.419C190.777 62.135 190.762 57.851 190.735 53.57C190.732 52.886 190.675 52.193 190.837 51.512C190.918 51.164 191.161 50.984 191.473 50.99C191.86 50.999 192.298 50.759 192.616 51.236C193.39 52.397 194.089 53.594 194.761 54.815C195.175 55.568 195.583 56.333 196.126 57.005C196.351 57.284 196.339 57.635 196.519 57.935C197.296 59.213 198.034 60.515 198.772 61.814C198.868 61.982 198.979 62.093 199.234 62.186C199.234 61.691 199.234 61.229 199.234 60.767C199.234 57.95 199.192 55.136 199.249 52.319C199.282 50.615 199.327 50.996 200.647 50.96C201.481 50.936 201.553 51.011 201.553 51.818C201.55 56.906 201.535 61.994 201.532 67.082C201.532 67.574 201.349 67.802 200.824 67.811C199.936 67.826 199.447 67.511 198.988 66.593C198.49 65.594 198.052 64.547 197.422 63.632C196.936 62.927 196.6 62.162 196.171 61.439C195.238 59.87 194.239 58.343 193.396 56.72C193.324 56.582 193.261 56.42 192.979 56.363L192.976 56.366Z" fill="white"/>
<path d="M187.927 61.019C187.927 62.618 187.921 64.217 187.93 65.816C187.933 66.359 187.75 66.884 187.822 67.433C187.849 67.652 187.702 67.763 187.486 67.775C187.231 67.79 186.976 67.805 186.721 67.814C185.75 67.85 185.608 67.739 185.599 66.749C185.581 65.132 185.575 63.515 185.608 61.898C185.641 60.413 185.566 60.719 184.462 60.704C182.947 60.683 181.43 60.692 179.912 60.698C179.063 60.701 179.05 60.746 179.131 61.598C179.179 62.102 179.138 62.615 179.141 63.122C179.144 64.466 179.147 65.813 179.159 67.157C179.159 67.379 179.123 67.49 178.886 67.598C178.397 67.826 177.898 67.835 177.388 67.811C176.924 67.79 176.75 67.463 176.789 67.064C176.972 65.087 176.846 63.107 176.87 61.13C176.897 58.97 176.786 56.807 176.879 54.65C176.93 53.48 177.434 52.388 178.442 51.653C178.93 51.293 179.57 51.26 180.14 51.131C181.517 50.822 182.935 50.837 184.324 51.059C185.266 51.209 186.23 51.383 186.928 52.184C187.474 52.811 187.711 53.57 187.792 54.332C188.029 56.552 187.93 58.784 187.93 61.013L187.927 61.019ZM182.32 58.319C182.32 58.319 182.32 58.31 182.32 58.307C183.196 58.307 184.075 58.295 184.951 58.313C185.383 58.322 185.593 58.169 185.584 57.716C185.56 56.663 185.563 55.61 185.542 54.56C185.533 54.08 185.113 53.552 184.651 53.441C183.433 53.147 182.183 53.027 180.962 53.273C179.63 53.54 179.156 53.474 179.141 55.349C179.135 56.111 179.162 56.876 179.123 57.638C179.096 58.157 179.276 58.349 179.801 58.331C180.641 58.301 181.48 58.322 182.32 58.322V58.319Z" fill="white"/>
<path d="M210.169 50.954C211.906 50.954 213.64 50.969 215.377 50.945C215.887 50.939 216.094 51.119 216.04 51.608C216.001 51.962 216.02 52.319 215.972 52.679C215.885 53.321 215.483 53.405 214.994 53.408C213.842 53.417 212.693 53.417 211.541 53.399C211.145 53.393 210.965 53.516 211.004 53.933C211.187 55.889 211.07 57.854 211.091 59.813C211.118 62.228 211.075 64.646 211.099 67.061C211.102 67.436 210.946 67.598 210.658 67.664C210.292 67.748 209.911 67.799 209.534 67.811C208.895 67.832 208.663 67.622 208.666 67.001C208.675 64.259 208.702 61.517 208.72 58.772C208.732 57.137 208.729 55.502 208.756 53.87C208.762 53.498 208.625 53.405 208.28 53.411C207.128 53.426 205.979 53.42 204.827 53.411C204.023 53.405 203.777 53.132 203.822 52.34C203.828 52.25 203.824 52.157 203.824 52.067C203.836 51.014 203.87 50.972 204.965 50.966C206.702 50.957 208.436 50.966 210.173 50.966V50.96L210.169 50.954Z" fill="white"/>
<path d="M144.145 57.6379C144.145 55.6039 144.154 53.5729 144.139 51.5389C144.139 51.1429 144.292 50.9749 144.67 50.9749C144.688 50.9749 144.706 50.9749 144.724 50.9749C146.596 50.9809 146.581 50.8159 146.575 52.7689C146.563 56.4199 146.584 60.0709 146.587 63.7219C146.587 63.8119 146.599 63.9109 146.569 63.9919C146.311 64.6369 146.803 64.8259 147.223 65.0239C148.24 65.5009 149.344 65.4259 150.427 65.4469C151.888 65.4769 153.349 65.4769 154.81 65.4619C155.242 65.4589 155.41 65.6029 155.365 66.0319C155.338 66.2839 155.359 66.5389 155.362 66.7939C155.362 67.5379 155.158 67.8109 154.417 67.7959C152.209 67.7539 149.998 67.8949 147.793 67.6939C146.233 67.5499 145.075 66.7459 144.526 65.3389C144.292 64.7389 144.1 64.0309 144.118 63.3049C144.169 61.4179 144.136 59.5279 144.136 57.6379C144.136 57.6379 144.139 57.6379 144.142 57.6379H144.145Z" fill="white"/>
<path d="M159.406 57.9049C159.406 60.0109 159.406 62.1199 159.406 64.2259C159.406 64.6819 159.604 64.9099 160.06 65.0719C161.323 65.5219 162.619 65.4679 163.921 65.4589C165.163 65.4499 166.405 65.4709 167.647 65.4499C167.95 65.4439 168.043 65.5609 168.121 65.8219C168.304 66.4219 168.142 67.0039 168.052 67.5859C168.013 67.8319 167.746 67.7959 167.548 67.7959C165.796 67.7959 164.041 67.7779 162.289 67.8079C161.338 67.8229 160.42 67.6549 159.502 67.4659C158.785 67.3189 158.419 66.6829 157.945 66.2209C157.153 65.4499 157.081 64.4149 157.072 63.4039C157.03 59.5009 157.027 55.5949 156.988 51.6919C156.982 51.1399 157.189 50.9509 157.72 50.9539C159.79 50.9719 159.37 50.7889 159.397 52.5619C159.424 54.3409 159.403 56.1229 159.403 57.9019H159.412L159.406 57.9049Z" fill="white"/>
<path d="M173.273 59.4978C173.273 61.9308 173.264 64.3638 173.279 66.7938C173.282 67.3458 173.144 67.6788 172.508 67.7358C172.208 67.7628 171.899 67.8468 171.599 67.8048C171.197 67.7508 170.891 67.5528 170.891 67.0758C170.891 62.2398 170.891 57.4068 170.897 52.5708C170.897 52.1808 170.858 51.7878 171.014 51.3978C171.125 51.1188 171.293 51.0048 171.557 50.9808C171.737 50.9628 171.923 50.9778 172.106 50.9778C173.159 50.9778 173.27 51.0798 173.273 52.1418C173.279 54.5928 173.273 57.0438 173.273 59.4948V59.4978Z" fill="white"/>
<path d="M140.557 59.4319C140.557 61.8679 140.56 64.3009 140.557 66.7369C140.557 67.6189 140.299 67.7809 139.408 67.8289C138.403 67.8829 138.331 67.5709 138.334 66.6799C138.349 61.9549 138.34 57.2299 138.34 52.5049C138.34 52.2799 138.385 52.0489 138.343 51.8299C138.229 51.2389 138.523 51.0229 139.054 50.9989C139.435 50.9839 139.819 50.9809 140.203 50.9749C140.434 50.9719 140.506 51.1129 140.542 51.3169C140.614 51.7099 140.635 52.1059 140.635 52.5049C140.635 54.8119 140.635 57.1189 140.635 59.4259C140.611 59.4259 140.587 59.4259 140.563 59.4259L140.557 59.4319Z" fill="white"/>
<path d="M139.314 70.724C140.043 70.7 140.907 70.718 141.747 71.006C142.536 71.276 142.887 71.678 142.95 72.503C143.007 73.247 142.995 73.973 142.641 74.675C142.476 75.005 142.197 75.161 141.942 75.371C141.777 75.509 141.663 75.605 141.873 75.842C142.41 76.445 142.578 77.255 142.998 77.933C143.127 78.143 143.154 78.5 142.968 78.644C142.746 78.818 142.44 78.671 142.227 78.473C141.72 78.002 141.549 77.348 141.288 76.745C141.168 76.466 141.051 76.187 140.919 75.914C140.814 75.698 140.643 75.605 140.385 75.623C139.965 75.653 139.545 75.716 139.122 75.638C138.738 75.569 138.663 75.776 138.678 76.112C138.705 76.673 138.693 77.237 138.696 77.801C138.696 78.089 138.654 78.416 138.429 78.56C137.958 78.863 137.544 78.611 137.511 78.032C137.481 77.507 137.496 76.979 137.493 76.451C137.481 74.639 137.475 72.83 137.457 71.018C137.457 70.751 137.61 70.721 137.802 70.718C138.258 70.712 138.717 70.718 139.314 70.718V70.724ZM140.013 74.447C140.286 74.447 140.559 74.453 140.832 74.447C141.711 74.429 141.84 74.3 141.84 73.448C141.84 73.175 141.825 72.902 141.846 72.632C141.882 72.119 141.636 71.897 141.138 71.9C140.736 71.903 140.337 71.897 139.935 71.906C139.131 71.922 138.718 72.324 138.696 73.112C138.67 74.018 139.109 74.464 140.013 74.45V74.447Z" fill="white"/>
<path d="M130.665 75.356C130.665 74.468 130.626 73.574 130.674 72.689C130.734 71.621 131.259 71.018 132.234 70.94C132.777 70.898 133.308 70.796 133.863 70.829C134.976 70.892 136.002 71.846 135.942 73.028C135.861 74.639 135.927 76.259 135.918 77.873C135.918 78.263 135.849 78.644 135.342 78.692C135.105 78.716 134.952 78.677 134.904 78.368C134.778 77.57 134.841 76.772 134.838 75.977C134.838 75.548 134.745 75.35 134.259 75.383C133.623 75.425 132.981 75.398 132.342 75.383C131.973 75.374 131.823 75.503 131.835 75.893C131.862 76.73 131.856 77.567 131.844 78.401C131.838 78.704 131.577 78.71 131.358 78.698C131.046 78.677 130.656 78.758 130.656 78.245C130.656 77.282 130.656 76.322 130.656 75.359H130.659L130.665 75.356ZM133.296 74.165C133.296 74.165 133.296 74.153 133.296 74.144C133.698 74.144 134.097 74.144 134.499 74.144C134.643 74.144 134.826 74.156 134.814 73.946C134.781 73.385 134.76 72.821 134.625 72.269C134.583 72.092 134.472 72.077 134.34 72.014C133.818 71.759 133.269 71.891 132.732 71.864C132.273 71.843 132.003 72.098 131.907 72.497C131.811 72.893 131.799 73.31 131.748 73.718C131.703 74.066 131.91 74.162 132.201 74.165C132.564 74.168 132.93 74.165 133.293 74.165H133.296Z" fill="white"/>
<path d="M116.725 74.6778C116.725 73.9608 116.734 73.4508 116.725 72.9438C116.695 71.4498 117.52 70.9938 118.78 70.8558C119.551 70.7718 120.337 70.8108 121.111 70.9488C121.786 71.0718 122.338 71.6238 122.431 72.4098C122.56 73.5318 122.53 74.6598 122.464 75.7848C122.446 76.0728 122.425 76.3638 122.431 76.6518C122.449 77.7348 122.077 78.3318 121.021 78.5028C119.992 78.6678 118.921 78.7488 117.904 78.3948C117.259 78.1698 116.899 77.6868 116.815 76.9758C116.716 76.1418 116.758 75.3048 116.728 74.6808L116.725 74.6778ZM117.928 74.6778C117.928 74.6778 117.928 74.6778 117.931 74.6778C117.931 75.3678 117.922 76.0578 117.934 76.7478C117.943 77.2068 118.294 77.5818 118.741 77.5938C119.344 77.6088 119.947 77.6088 120.547 77.5818C120.967 77.5638 121.303 77.3478 121.312 76.9068C121.348 75.4938 121.357 74.0778 121.345 72.6618C121.342 72.2208 121.096 71.9448 120.598 71.9058C119.92 71.8518 119.248 71.8698 118.576 71.9208C118.12 71.9538 117.913 72.2028 117.922 72.6618C117.937 73.3338 117.925 74.0058 117.925 74.6778H117.928Z" fill="white"/>
<path d="M112.377 78.5868C112.053 78.5658 111.588 78.5658 111.117 78.4968C110.283 78.3738 109.569 77.3208 109.704 76.4328C109.728 76.2678 109.776 76.0518 110.028 76.0818C110.259 76.1088 110.556 75.9378 110.703 76.2618C110.778 76.4238 110.868 76.6008 110.874 76.7718C110.889 77.4168 111.381 77.5908 111.849 77.6928C112.554 77.8458 113.247 77.6208 113.925 77.4408C114.27 77.3478 114.423 76.6578 114.294 76.0728C114.189 75.5988 113.772 75.3528 112.962 75.3168C112.596 75.3018 112.23 75.3168 111.867 75.3168C110.613 75.3168 109.74 74.4558 109.692 73.2108C109.638 71.7198 110.094 71.1048 111.909 70.8318C112.641 70.7208 113.328 70.8768 114.03 70.9698C114.768 71.0688 115.215 71.5728 115.293 72.3228C115.302 72.3948 115.287 72.4758 115.314 72.5358C115.422 72.7608 115.512 73.0428 115.311 73.1838C115.08 73.3488 114.738 73.2828 114.468 73.2108C114.168 73.1298 114.282 72.7848 114.267 72.5928C114.234 72.1158 113.937 72.0048 113.571 71.9478C112.827 71.8338 112.077 71.8788 111.33 71.9358C111.231 71.9448 111.111 71.9838 111.042 72.0528C110.829 72.2688 110.829 73.6488 111.03 73.8858C111.18 74.0628 111.372 74.1018 111.603 74.1108C112.32 74.1348 113.037 74.1708 113.742 74.3238C115.431 74.6868 115.473 75.5928 115.341 76.9788C115.23 78.1338 114.588 78.5568 113.4 78.5958C113.109 78.6048 112.815 78.5958 112.377 78.5958V78.5868Z" fill="white"/>
<path d="M124.069 74.4409C124.003 73.6999 124.183 72.7939 123.964 71.8969C123.883 71.5699 124.024 71.2579 124.093 70.9459C124.159 70.6459 124.438 70.7449 124.642 70.7269C124.837 70.7089 125.011 70.754 125.053 70.985C125.095 71.213 125.164 71.441 125.167 71.669C125.176 73.0699 125.17 74.4679 125.17 75.8689C125.17 75.9049 125.17 75.9409 125.17 75.9769C125.029 77.3029 125.278 77.5669 126.622 77.6029C127.42 77.6239 128.221 77.5069 129.016 77.7049C129.301 77.7769 129.322 77.9749 129.34 78.1879C129.358 78.4009 129.241 78.5599 129.031 78.5659C127.834 78.6019 126.622 78.7309 125.443 78.4789C124.519 78.2809 124.081 77.6209 124.072 76.6759C124.066 75.9859 124.072 75.2929 124.072 74.4439L124.069 74.4409Z" fill="white"/>
</svg>
