<svg width="269" height="148" viewBox="0 0 269 148" fill="none" xmlns="http://www.w3.org/2000/svg">
<path d="M129.52 47.6667C131.609 48.3831 132.29 49.9045 132.216 51.9824C132.135 54.2261 132.204 56.4757 132.195 58.7223C132.186 61.1999 131.191 62.3779 128.722 62.6147C125.927 62.8811 123.12 62.6769 120.317 62.7124C119.151 62.7272 117.983 62.7627 116.82 62.6029C114.787 62.3217 113.7 61.1555 113.682 59.116C113.661 56.7273 113.747 54.3327 113.652 51.9469C113.565 49.8512 114.252 48.3505 116.366 47.6697H129.523L129.52 47.6667ZM122.917 50.4432C121.545 50.4432 120.173 50.4225 118.805 50.4491C117.806 50.4699 117.325 50.9109 117.31 51.8699C117.277 54.0574 117.28 56.2419 117.31 58.4293C117.322 59.3735 117.833 59.8767 118.796 59.8856C121.536 59.9123 124.28 59.9152 127.024 59.8856C128.022 59.8738 128.462 59.412 128.474 58.4293C128.495 56.2419 128.495 54.0574 128.474 51.8699C128.465 50.828 128.1 50.4728 127.036 50.4491C125.664 50.4195 124.295 50.4432 122.923 50.4432H122.917Z" fill="white"/>
<path d="M152.153 47.6667C152.01 49.425 150.99 50.3751 149.095 50.4225C147.371 50.4639 145.646 50.4343 143.922 50.4373C142.547 50.4373 141.175 50.4225 139.8 50.4491C138.811 50.4669 138.485 50.7895 138.473 51.7693C138.452 53.9035 138.461 56.0347 138.464 58.1688C138.464 59.6163 138.748 59.9004 140.197 59.9034C143.763 59.9093 147.329 59.9034 150.898 59.9123C151.286 59.9123 151.803 59.7199 152.03 60.1343C152.276 60.5783 151.956 61.0193 151.72 61.4159C151.209 62.2595 150.393 62.6651 149.448 62.6769C145.533 62.7154 141.614 62.8811 137.705 62.594C135.753 62.4519 134.773 61.3212 134.752 59.3913C134.722 56.7687 134.797 54.1432 134.722 51.5207C134.668 49.6144 135.32 48.2676 137.238 47.6697H152.15L152.153 47.6667Z" fill="white"/>
<path d="M173.507 73.7857C173.507 72.0008 173.495 70.2129 173.51 68.4281C173.528 66.5455 174.491 65.4562 176.389 65.2638C179.183 64.9797 181.99 65.178 184.793 65.1513C186.279 65.1365 187.773 65.0329 189.256 65.2549C190.983 65.5125 191.853 66.3413 192.068 68.0521C192.269 69.6565 192.131 71.2726 192.146 72.8858C192.167 75.017 192.134 77.1482 192.158 79.2794C192.164 79.9632 191.949 80.3036 191.202 80.2474C190.592 80.203 189.973 80.2059 189.363 80.2474C188.616 80.2977 188.395 79.9632 188.419 79.2735C188.455 78.1813 188.41 77.0861 188.434 75.9909C188.446 75.4492 188.254 75.2124 187.675 75.2154C184.405 75.2302 181.132 75.2302 177.862 75.2154C177.309 75.2154 177.178 75.4137 177.199 75.9346C177.243 77.0861 177.208 78.2375 177.22 79.3889C177.225 80.0046 176.962 80.2799 176.32 80.2444C175.68 80.2089 175.035 80.2089 174.392 80.2444C173.684 80.2858 173.489 79.9602 173.498 79.3149C173.525 77.4709 173.507 75.6297 173.507 73.7857ZM182.719 72.871C184.351 72.871 185.986 72.8533 187.618 72.8799C188.228 72.8888 188.452 72.6638 188.431 72.0718C188.398 71.1246 188.422 70.1745 188.419 69.2243C188.419 68.4517 187.971 67.9959 187.244 67.987C184.3 67.9485 181.353 67.9574 178.406 67.9811C177.665 67.987 177.22 68.3985 177.225 69.1858C177.228 70.1064 177.291 71.0329 177.196 71.9445C177.109 72.7645 177.438 72.9065 178.167 72.8829C179.682 72.8355 181.201 72.8681 182.716 72.8681L182.719 72.871Z" fill="white"/>
<path d="M194.712 72.7526C194.712 70.5356 194.732 68.3156 194.7 66.0985C194.688 65.3852 194.948 65.1306 195.662 65.1336C200.044 65.1513 204.425 65.1336 208.807 65.1513C209.477 65.1513 210.149 65.2372 210.795 65.4385C212.212 65.8825 213.022 66.9037 213.078 68.3748C213.111 69.2953 213.102 70.2189 213.09 71.1394C213.063 73.0279 212.113 74.1734 210.236 74.499C209.638 74.6026 209.617 74.7181 209.982 75.1561C211.15 76.5562 212.289 77.9829 213.434 79.4037C213.589 79.5961 213.885 79.7737 213.733 80.0638C213.586 80.3421 213.264 80.2296 213.016 80.2355C210.981 80.2868 209.327 79.5123 208.054 77.9119C207.349 77.0298 206.625 76.1625 205.935 75.2686C205.606 74.8394 205.218 74.65 204.668 74.6589C202.856 74.6796 201.045 74.6885 199.234 74.6589C198.549 74.647 198.298 74.8897 198.319 75.5646C198.358 76.8019 198.301 78.0421 198.34 79.2794C198.361 79.9721 198.137 80.2473 197.396 80.2562C194.712 80.2917 194.712 80.3154 194.712 77.681C194.712 76.0382 194.712 74.3984 194.712 72.7556V72.7526ZM203.55 72.2021C204.602 72.2021 205.654 72.2021 206.703 72.2021C209.396 72.2021 209.614 71.9771 209.477 69.3575C209.429 68.4281 209.01 67.9574 208.069 67.9485C205.062 67.9219 202.052 67.9396 199.045 67.9278C198.516 67.9278 198.316 68.1557 198.328 68.6619C198.346 69.5558 198.367 70.4497 198.319 71.3407C198.283 72.0481 198.6 72.2287 199.255 72.2139C200.686 72.1813 202.118 72.205 203.547 72.205L203.55 72.2021Z" fill="white"/>
<path d="M143.174 80.2415C141.39 80.2415 139.609 80.2504 137.824 80.2415C135.245 80.2267 133.888 78.8799 133.876 76.3195C133.867 73.8982 133.867 71.4769 133.876 69.0556C133.885 66.7054 134.931 65.477 137.274 65.258C140.245 64.9797 143.234 65.1958 146.214 65.1484C147.236 65.1336 148.258 65.1218 149.278 65.2639C151.274 65.5392 152.371 66.7054 152.389 68.6797C152.41 71.3319 152.407 73.984 152.389 76.6362C152.377 78.874 151.074 80.1882 148.787 80.2326C146.916 80.2681 145.045 80.2385 143.174 80.2385V80.2415ZM143.138 77.4176C143.138 77.4176 143.138 77.4176 143.138 77.4147C144.54 77.4147 145.942 77.4384 147.341 77.4058C148.288 77.3851 148.749 76.9411 148.761 76.0146C148.787 73.8272 148.787 71.6397 148.761 69.4523C148.749 68.4637 148.297 67.9841 147.32 67.9752C144.546 67.9456 141.773 67.9456 139.002 67.9782C138.054 67.99 137.621 68.4666 137.612 69.396C137.591 71.5835 137.591 73.7709 137.612 75.9584C137.621 77.0328 137.998 77.391 139.112 77.4117C140.454 77.4354 141.799 77.4176 143.141 77.4176H143.138Z" fill="white"/>
<path d="M121.19 80.2386C119 80.2386 116.809 80.2474 114.618 80.2386C113.7 80.2356 113.524 79.9662 113.897 79.1315C114.468 77.8558 115.544 77.4236 116.877 77.4236C119.771 77.4266 122.661 77.4236 125.554 77.4236C127.386 77.4236 127.712 77.1039 127.715 75.3279C127.715 75.1266 127.715 74.9254 127.715 74.7241C127.697 73.3862 127.285 72.954 125.94 72.9481C123.253 72.9362 120.563 72.954 117.876 72.9362C117.266 72.9333 116.647 72.883 116.049 72.7705C114.537 72.4834 113.724 71.5066 113.682 69.9881C113.664 69.3842 113.667 68.7774 113.682 68.1736C113.718 66.5693 114.567 65.5747 116.163 65.3113C116.767 65.2136 117.383 65.1574 117.992 65.1544C121.878 65.1396 125.763 65.1455 129.649 65.1485C130.838 65.1485 131.042 65.5066 130.447 66.5545C129.876 67.5609 128.97 67.9664 127.823 67.9634C124.756 67.9546 121.687 67.9546 118.62 67.9634C117.559 67.9664 117.281 68.2476 117.269 69.2155C117.26 70.2426 117.472 70.4765 118.563 70.4824C121.22 70.4972 123.88 70.4854 126.537 70.4913C126.947 70.4913 127.359 70.4913 127.76 70.5446C130.357 70.8909 131.314 71.9772 131.32 74.5583C131.32 75.2214 131.326 75.8844 131.32 76.5474C131.296 78.8089 129.906 80.203 127.587 80.2356C125.456 80.2652 123.321 80.2415 121.187 80.2415L121.19 80.2386Z" fill="white"/>
<path d="M55.2285 74.6738C55.5722 65.8175 58.9288 58.382 66.407 53.128C75.2959 46.8854 87.0482 46.5657 95.8684 52.2548C104.1 57.5621 108.105 65.1811 108.195 74.8396C107.531 67.7238 104.626 61.6883 99.1681 56.9375C93.6776 52.1601 87.1648 49.7654 79.9406 50.5587C65.3997 52.1542 57.5479 60.7352 55.2315 74.6709L55.2285 74.6738Z" fill="white"/>
<path d="M154.959 72.7055C154.959 70.518 154.977 68.3276 154.947 66.1402C154.938 65.3883 155.237 65.1427 155.985 65.1308C158.684 65.0864 158.684 65.0687 158.684 67.7504C158.684 70.6305 158.707 73.5106 158.669 76.3906C158.657 77.175 158.905 77.4474 159.715 77.4415C163.071 77.4059 166.431 77.4237 169.79 77.4296C170.992 77.4296 171.198 77.7818 170.594 78.8326C170.086 79.7206 169.315 80.2416 168.251 80.2416C164.132 80.2446 160.017 80.2298 155.898 80.2564C155.142 80.2623 154.947 79.9456 154.953 79.2737C154.974 77.0863 154.962 74.8959 154.962 72.7084L154.959 72.7055Z" fill="white"/>
<path d="M101.082 63.3902C101.662 63.4435 102.615 63.0912 102.783 63.5234C102.998 64.0858 102.107 64.4647 101.68 64.8939C96.7213 69.8163 91.7328 74.7092 86.7712 79.6287C86.3199 80.0757 85.8716 80.2888 85.235 80.2503C84.4788 80.2059 83.7166 80.2414 82.9574 80.2355C82.787 80.2355 82.5808 80.2681 82.4822 80.0964C82.3447 79.8596 82.5719 79.7323 82.7004 79.5902C82.8558 79.4186 83.0262 79.2617 83.1935 79.0989C88.0654 74.2948 92.9582 69.5114 97.7913 64.6689C98.7388 63.7187 99.6623 63.0379 101.085 63.3902H101.082Z" fill="white"/>
<path d="M62.7973 80.2326C62.0591 80.2326 61.5629 80.2445 61.0667 80.2297C60.6453 80.2149 60.5317 80.0254 60.8276 79.6939C61.001 79.4985 61.1923 79.3209 61.3776 79.1374C66.4348 74.1498 71.504 69.1711 76.5402 64.1628C77.1231 63.5826 77.7059 63.2778 78.5368 63.3518C79.1735 63.411 79.8191 63.3547 80.4617 63.3695C80.6799 63.3754 80.9787 63.2718 81.0953 63.5234C81.2208 63.7958 80.916 63.9142 80.7665 64.0651C79.5949 65.2314 78.4143 66.3887 77.2367 67.549C73.375 71.3556 69.4954 75.1444 65.6696 78.9835C64.776 79.8804 63.9152 80.5908 62.7973 80.2356V80.2326Z" fill="white"/>
<path d="M73.4672 80.2415C73.1175 80.2415 72.7648 80.2563 72.4151 80.2355C72.1371 80.2178 71.7575 80.3687 71.6111 80.0757C71.4467 79.7501 71.8472 79.6051 72.0205 79.3949C72.167 79.2173 72.3463 79.0663 72.5137 78.9035C77.4513 74.0343 82.4039 69.174 87.3177 64.2782C87.9902 63.6063 88.6686 63.2511 89.6221 63.3547C90.1422 63.4109 90.6742 63.3517 91.2002 63.3695C91.4722 63.3813 91.8518 63.2274 91.9833 63.553C92.0969 63.8312 91.7293 63.9615 91.5649 64.1479C91.3736 64.364 91.1554 64.5594 90.9492 64.7607C86.1341 69.5085 81.301 74.2415 76.5158 79.019C75.6401 79.8922 74.8032 80.5937 73.4701 80.2444L73.4672 80.2415Z" fill="white"/>
</svg>
