<svg width="270" height="150" viewBox="0 0 270 150" fill="none" xmlns="http://www.w3.org/2000/svg">
<path d="M62.4688 47.8941C65.0337 47.8941 67.6017 47.9091 70.1667 47.8761C70.7487 47.8701 71.0127 48.0741 71.1987 48.6081C72.6327 52.7241 74.0907 56.8281 75.5427 60.9381C75.9177 61.997 76.2987 63.056 76.7397 64.295C77.0247 63.524 77.2557 62.915 77.4747 62.303C79.1097 57.713 80.7507 53.1231 82.3677 48.5241C82.5357 48.0471 82.7787 47.8761 83.2797 47.8821C85.5567 47.9031 87.8367 47.8911 90.1167 47.8911C90.9837 47.8911 90.9837 47.8911 90.9837 48.7461C90.9837 55.6851 90.9837 62.6211 90.9837 69.56C90.9837 69.788 90.9837 70.016 90.9837 70.262C91.1937 70.262 91.1997 70.106 91.2447 70.001C94.2687 62.9991 97.2837 55.9941 100.317 48.9981C100.893 47.6691 100.617 47.9121 101.967 47.8941C102.906 47.8821 103.845 47.9091 104.781 47.8851C105.246 47.8731 105.501 48.0201 105.693 48.4671C107.661 53.0301 109.653 57.5811 111.639 62.138C112.83 64.871 114.015 67.607 115.209 70.34C115.272 70.484 115.29 70.676 115.488 70.751C115.593 70.526 115.539 70.295 115.542 70.076C115.545 62.9661 115.542 55.8561 115.545 48.7461C115.545 47.8971 115.545 47.8971 116.412 47.8971C117.732 47.8971 119.055 47.8971 120.375 47.8971C121.167 47.8971 121.182 47.9121 121.182 48.6951C121.182 54.755 121.182 60.812 121.182 66.872C121.182 67.064 121.191 67.256 121.182 67.445C121.167 67.808 121.326 67.961 121.695 67.961C124.491 67.955 127.287 67.952 130.083 67.961C130.464 67.961 130.62 67.745 130.749 67.445C131.841 64.898 132.942 62.354 134.037 59.81C135.624 56.123 137.226 52.4421 138.789 48.7461C139.056 48.1101 139.386 47.8311 140.103 47.8791C141.153 47.9481 142.209 47.9121 143.262 47.8911C143.691 47.8821 143.922 48.0531 144.09 48.4371C146.643 54.329 149.205 60.218 151.767 66.107C152.361 67.469 152.958 68.831 153.69 70.181V69.539C153.69 62.621 153.69 55.7001 153.69 48.7821C153.69 48.1941 153.987 47.8991 154.581 47.8971C156.861 47.8971 159.138 47.9091 161.418 47.8881C161.931 47.8821 162.204 48.0201 162.384 48.5361C163.881 52.8321 165.411 57.116 166.929 61.403C167.253 62.315 167.58 63.227 168.033 64.139C168.264 63.506 168.501 62.873 168.726 62.237C170.325 57.734 171.933 53.2341 173.505 48.7221C173.724 48.0921 174.024 47.8701 174.699 47.8821C176.94 47.9241 179.178 47.8971 181.419 47.9001C182.202 47.9001 182.217 47.9151 182.217 48.7071C182.217 55.6641 182.217 62.6211 182.217 69.578V70.337C182.463 70.184 182.508 69.977 182.583 69.803C185.622 62.7681 188.664 55.7331 191.682 48.6891C191.94 48.0861 192.273 47.8521 192.933 47.8881C194.001 47.9421 195.078 47.9121 196.149 47.9001C196.521 47.8941 196.746 48.0231 196.899 48.3771C199.194 53.672 201.501 58.9641 203.805 64.256C204.996 66.989 206.184 69.725 207.372 72.458C207.648 73.091 207.618 73.148 206.946 73.151C205.26 73.157 203.577 73.142 201.891 73.16C201.459 73.166 201.24 73.004 201.084 72.605C200.532 71.201 199.929 69.815 199.377 68.408C199.221 68.009 198.999 67.853 198.57 67.856C195.717 67.871 192.864 67.871 190.011 67.856C189.549 67.856 189.33 68.039 189.174 68.456C188.658 69.833 188.1 71.195 187.581 72.575C187.425 72.992 187.194 73.166 186.732 73.163C183.63 73.145 180.528 73.157 177.426 73.154C176.679 73.154 176.661 73.133 176.661 72.374C176.661 66.545 176.661 60.716 176.661 54.887C176.661 54.662 176.661 54.4401 176.661 54.2151C176.619 54.2061 176.58 54.1971 176.538 54.1881C176.286 54.8931 176.025 55.5981 175.782 56.3061C173.925 61.709 172.065 67.115 170.223 72.524C170.058 73.007 169.812 73.181 169.311 73.163C168.336 73.13 167.358 73.13 166.383 73.163C165.876 73.181 165.639 73.001 165.483 72.518C163.902 67.685 162.3 62.861 160.701 58.034C160.323 56.891 159.942 55.7481 159.558 54.6081C159.525 54.5091 159.534 54.3741 159.339 54.3171C159.339 54.5571 159.339 54.779 159.339 55.001C159.339 60.773 159.339 66.5451 159.339 72.317C159.339 73.145 159.339 73.145 158.508 73.148C155.388 73.151 152.265 73.142 149.145 73.166C148.65 73.169 148.389 73.016 148.209 72.542C147.684 71.168 147.099 69.815 146.562 68.444C146.4 68.027 146.169 67.856 145.713 67.856C142.878 67.871 140.046 67.874 137.211 67.856C136.722 67.853 136.494 68.048 136.332 68.48C135.828 69.821 135.27 71.144 134.772 72.488C134.595 72.968 134.349 73.166 133.812 73.166C126.114 73.148 118.416 73.151 110.718 73.166C110.244 73.166 109.992 73.013 109.818 72.569C109.278 71.18 108.69 69.809 108.144 68.423C107.979 68.003 107.73 67.859 107.277 67.862C104.442 67.88 101.61 67.88 98.7747 67.862C98.3127 67.862 98.0997 68.027 97.9407 68.453C97.4277 69.833 96.8517 71.189 96.3387 72.566C96.1707 73.016 95.9247 73.172 95.4477 73.169C92.3637 73.151 89.2827 73.16 86.1987 73.16C85.4517 73.16 85.4307 73.139 85.4307 72.383C85.4307 66.554 85.4307 60.725 85.4307 54.8961C85.4307 54.6711 85.4307 54.4491 85.4307 54.2241C85.3917 54.2151 85.3497 54.2091 85.3107 54.2001C84.9597 55.1961 84.6027 56.1891 84.2607 57.1881C82.5207 62.27 80.7747 67.349 79.0557 72.437C78.8727 72.977 78.6297 73.205 78.0417 73.178C77.0877 73.13 76.1247 73.136 75.1707 73.178C74.6247 73.202 74.4057 72.986 74.2407 72.488C72.3147 66.623 70.3677 60.764 68.4237 54.9051C68.3607 54.7131 68.2827 54.5241 68.1957 54.2841C68.0487 54.5331 68.1087 54.7431 68.1087 54.9411C68.1057 60.731 68.1087 66.524 68.1057 72.314C68.1057 73.163 68.1057 73.166 67.2387 73.166C65.6488 73.166 64.0587 73.16 62.4688 73.154V47.9241V47.8941ZM141.342 55.379C140.361 57.875 139.452 60.203 138.537 62.528C138.399 62.882 138.519 63.023 138.888 63.023C140.55 63.02 142.215 63.017 143.877 63.026C144.27 63.026 144.342 62.888 144.201 62.54C143.931 61.889 143.685 61.226 143.424 60.569C142.752 58.889 142.077 57.209 141.345 55.379H141.342ZM102.963 55.37C101.979 57.896 101.052 60.2571 100.146 62.621C99.9687 63.083 100.365 63.014 100.608 63.014C101.964 63.023 103.323 63.02 104.679 63.02C105.577 63.02 105.858 62.598 105.522 61.754C104.694 59.684 103.863 57.614 102.966 55.37H102.963ZM194.274 55.502C194.193 55.55 194.166 55.553 194.16 55.568C193.239 57.896 192.321 60.224 191.397 62.552C191.241 62.945 191.43 63.023 191.766 63.023C193.431 63.023 195.099 63.02 196.764 63.023C197.097 63.023 197.223 62.927 197.085 62.579C196.149 60.236 195.222 57.893 194.274 55.502Z" fill="white"/>
<path d="M109.001 43.4241C109.004 43.9972 108.992 44.5674 109.016 45.1406C109.034 45.5877 108.851 45.7468 108.41 45.7438C106.691 45.7288 104.972 45.7378 103.253 45.7378C101.381 45.7378 99.5092 45.7228 97.6372 45.7468C97.0942 45.7528 96.8692 45.5757 96.9112 45.0235C96.9502 44.4924 96.9322 43.9552 96.9382 43.4241H109.001Z" fill="white"/>
<path d="M115.698 77.129C118.38 77.129 120.405 79.172 120.372 81.869C120.333 84.815 118.014 86.654 115.587 86.573C112.914 86.483 110.955 84.56 110.955 81.842C110.955 79.082 112.926 77.126 115.701 77.126L115.698 77.129ZM112.002 81.821C111.99 84.008 113.61 85.727 115.674 85.718C117.708 85.712 119.322 83.99 119.316 81.836C119.31 79.673 117.696 77.963 115.662 77.966C113.616 77.969 112.017 79.655 112.005 81.821H112.002Z" fill="white"/>
<path d="M176.223 81.8092C176.223 80.5492 176.238 79.2862 176.217 78.0262C176.208 77.5432 176.358 77.3302 176.871 77.3482C177.711 77.3782 178.554 77.3602 179.397 77.3542C179.727 77.3542 180.045 77.4142 180.357 77.5042C181.401 77.8012 181.971 78.5332 181.983 79.5862C181.998 80.8192 181.512 81.5752 180.402 81.8662C179.859 82.0072 179.826 82.1632 180.108 82.6072C180.732 83.5912 181.317 84.5992 181.896 85.6102C182.01 85.8082 182.382 86.0932 182.067 86.2582C181.779 86.4112 181.311 86.4622 181.014 86.1022C180.882 85.9402 180.786 85.7512 180.678 85.5682C180.093 84.5602 179.511 83.5492 178.929 82.5412C178.689 82.1272 177.825 81.8932 177.432 82.1302C177.207 82.2652 177.255 82.4962 177.255 82.6972C177.249 83.6722 177.252 84.6442 177.252 85.6192C177.252 85.9702 177.282 86.3182 176.748 86.3212C176.226 86.3272 176.223 86.0062 176.223 85.6402C176.226 84.3592 176.223 83.0812 176.223 81.8002V81.8092ZM177.252 79.4632C177.252 80.0212 177.249 80.4022 177.252 80.7862C177.252 80.9812 177.267 81.2152 177.513 81.2272C178.446 81.2722 179.397 81.3772 180.261 80.8972C180.756 80.6212 180.966 80.1712 180.924 79.5982C180.882 79.0462 180.603 78.6742 180.108 78.4522C179.682 78.2602 179.226 78.1912 178.767 78.1912C176.976 78.1912 177.279 77.9872 177.249 79.4632H177.252Z" fill="white"/>
<path d="M161.453 86.3181C161.075 86.3751 160.847 86.2101 160.718 85.8471C160.562 85.4181 160.337 85.0101 160.202 84.5751C160.049 84.0741 159.767 83.8881 159.236 83.9061C158.165 83.9421 157.094 83.9331 156.023 83.9091C155.588 83.9001 155.354 84.0621 155.213 84.4641C155.042 84.9501 154.832 85.4211 154.625 85.8951C154.46 86.2791 153.944 86.4741 153.581 86.2971C153.269 86.1441 153.482 85.9281 153.551 85.7661C154.079 84.5181 154.619 83.2731 155.159 82.0311C155.768 80.6301 156.392 79.2381 156.992 77.8311C157.13 77.5071 157.307 77.3481 157.673 77.3481C158.03 77.3481 158.225 77.4801 158.366 77.8101C159.515 80.4741 160.67 83.1351 161.843 85.7901C162.056 86.2671 161.897 86.3721 161.45 86.3181H161.453ZM157.766 78.7581C157.712 78.7581 157.655 78.7641 157.601 78.7671C157.052 80.0811 156.503 81.3951 155.954 82.7091C155.864 82.9251 155.864 83.0871 156.161 83.0871C157.172 83.0871 158.183 83.0871 159.194 83.0841C159.419 83.0841 159.512 82.9702 159.422 82.7512C158.87 81.4191 158.318 80.0871 157.766 78.7581Z" fill="white"/>
<path d="M94.074 77.1291C94.842 77.0871 95.562 77.3061 96.168 77.8281C96.324 77.9631 96.693 78.1221 96.348 78.3951C96.105 78.5871 95.895 79.0461 95.457 78.6051C94.794 77.9361 93.996 77.8251 93.126 78.1401C92.526 78.3591 92.202 78.8031 92.133 79.4271C92.064 80.0511 92.358 80.4831 92.886 80.7921C93.456 81.1221 94.089 81.2781 94.701 81.5001C95.79 81.8961 96.654 82.4991 96.708 83.7981C96.762 85.1061 95.847 86.2371 94.44 86.4921C93.243 86.7081 92.106 86.5371 91.206 85.6011C91.047 85.4361 90.756 85.2501 91.101 85.0071C91.365 84.8211 91.605 84.4191 92.004 84.8811C92.634 85.6161 93.435 85.8741 94.38 85.5981C95.094 85.3881 95.58 84.8421 95.643 84.1881C95.703 83.5551 95.313 82.9371 94.587 82.6371C93.969 82.3821 93.315 82.2141 92.7 81.9531C91.014 81.2421 90.501 79.4121 91.617 78.0681C92.238 77.3241 93.096 77.0901 94.074 77.1261V77.1291Z" fill="white"/>
<path d="M135.086 81.8121C135.086 80.6091 135.077 79.4061 135.089 78.2031C135.092 77.8341 134.939 77.3481 135.614 77.3571C136.25 77.3661 136.106 77.8251 136.109 78.1761C136.118 80.3541 136.112 82.5321 136.115 84.7071C136.115 85.4961 136.121 85.4991 136.922 85.4991C137.84 85.4991 138.758 85.4991 139.676 85.4991C139.979 85.4991 140.267 85.5051 140.255 85.9341C140.243 86.3331 139.961 86.3211 139.688 86.3241C138.35 86.3241 137.009 86.3121 135.671 86.3331C135.206 86.3391 135.077 86.1321 135.083 85.7091C135.095 84.4101 135.089 83.1111 135.086 81.8121Z" fill="white"/>
</svg>
