<svg width="329" height="183" viewBox="0 0 329 183" fill="none" xmlns="http://www.w3.org/2000/svg">
<path d="M111.592 97.7255V69.829H123.93C129.552 69.829 133.076 73.3572 133.076 78.7777C133.076 84.1981 129.552 87.6019 123.93 87.6019H118.096V97.7255H111.592ZM123.217 82.3937C125.988 82.3937 127.37 80.9224 127.37 78.7374C127.37 76.6805 125.984 75.2092 123.217 75.2092H118.099V82.3937H123.217ZM133.372 87.3933C133.372 80.8382 137.485 76.5121 144.116 76.5121C150.747 76.5121 154.732 80.798 154.732 87.3933C154.732 93.9886 150.619 98.2745 144.116 98.2745C137.613 98.2745 133.372 93.8203 133.372 87.3933ZM148.605 87.3933C148.605 83.4442 147.135 81.68 144.116 81.68C141.096 81.68 139.627 83.4442 139.627 87.3933C139.627 91.3425 141.096 93.1908 144.116 93.1908C147.135 93.1908 148.605 91.3425 148.605 87.3933ZM168.327 83.3161C168.159 81.6361 167.321 80.626 164.971 80.626C162.957 80.626 161.992 81.3836 161.992 82.3498C161.992 83.4405 163.165 83.9456 164.887 84.4068C166.861 84.9118 169.292 85.373 171.35 86.3392C173.28 87.2652 174.622 88.6487 174.622 91.5072C174.622 95.5405 171.935 98.2708 165.56 98.2708C159.184 98.2708 155.573 95.4563 155.448 91.0863H161.659C161.659 92.7259 163.044 93.9008 165.603 93.9008C167.325 93.9008 168.707 93.3555 168.707 91.9683C168.707 90.8776 167.826 90.497 165.98 90.0358C162.412 89.1538 161.279 88.8171 159.897 88.1436C157.126 86.7565 156.205 84.7837 156.205 82.639C156.205 79.2791 158.512 76.5048 165.103 76.5048C171.145 76.5048 173.748 78.8582 174.04 83.3124H168.334L168.327 83.3161ZM175.795 97.7255V77.0538H181.878V97.7255H175.795ZM181.882 71.4211C181.882 73.0717 180.544 74.4113 178.895 74.4113C177.246 74.4113 175.908 73.0717 175.908 71.4211C175.908 69.7704 177.246 68.4308 178.895 68.4308C180.544 68.4308 181.882 69.7704 181.882 71.4211ZM204.246 97.7255L203.994 95.5405C202.652 97.473 199.673 98.6917 196.105 98.6917C188.425 98.6917 183.391 92.1367 183.391 83.7333C183.391 75.3299 187.88 68.903 197.282 68.903C204.25 68.903 209.159 72.8521 209.576 78.4409H203.113C202.821 76.0876 200.554 74.2832 197.279 74.2832C192.998 74.2832 190.019 77.5589 190.019 84.0298C190.019 89.1135 192.578 93.231 197.279 93.231C200.51 93.231 203.53 90.8374 203.53 87.7703H197.864V82.5621H209.613V97.7292H204.243L204.246 97.7255ZM216.832 88.9452C217.001 91.5511 218.594 93.4396 220.901 93.4396C222.411 93.4396 223.796 92.7259 224.089 91.6316H230.34C229.082 95.8735 225.639 98.2708 221.194 98.2708C214.226 98.2708 210.746 94.4901 210.746 87.0127C210.746 80.626 214.438 76.5085 220.817 76.5085C227.196 76.5085 230.596 80.4173 230.596 88.0631V88.9452H216.832ZM224.513 85.2925C224.345 82.5621 222.835 81.3433 220.737 81.3433C218.638 81.3433 217.169 82.6865 216.96 85.2925H224.513ZM244.863 97.7255V84.9118C244.863 82.3059 243.898 81.4678 241.716 81.4678C239.325 81.4678 238.108 82.6866 238.108 85.2486V97.7255H232.025V77.0538H237.815V79.6597C238.989 77.5589 241.003 76.5085 244.026 76.5085C248.055 76.5085 250.994 79.0705 250.994 83.1038V97.7255H244.867H244.863ZM253.512 81.0835C252.094 81.0835 250.953 79.9452 250.953 78.5215C250.953 77.0977 252.09 75.9485 253.512 75.9485C254.934 75.9485 256.082 77.1014 256.082 78.5215C256.082 79.9415 254.931 81.0835 253.512 81.0835ZM253.512 76.3877C252.335 76.3877 251.37 77.3393 251.37 78.5178C251.37 79.6963 252.335 80.6479 253.512 80.6479C254.689 80.6479 255.64 79.6963 255.64 78.5178C255.64 77.3393 254.689 76.3877 253.512 76.3877ZM253.984 79.5682V78.9643C253.984 78.7374 253.903 78.6569 253.637 78.6569H253.169V79.5682H252.646V77.2368H253.838C254.28 77.2368 254.547 77.504 254.547 77.9066C254.547 78.203 254.412 78.3641 254.225 78.4446C254.412 78.5251 254.492 78.6313 254.492 78.9021V79.5719H253.984V79.5682ZM253.165 77.6614V78.2396H253.754C253.98 78.2396 254.075 78.1335 254.075 77.9578C254.075 77.7712 253.98 77.6614 253.768 77.6614H253.165ZM74.2874 111.472C74.6896 111.472 75.0149 111.429 75.2671 111.341C75.7424 111.172 75.98 110.854 75.98 110.393C75.98 110.122 75.863 109.913 75.6254 109.767C75.3878 109.624 75.0186 109.496 74.5141 109.386L73.6514 109.192C72.8033 109.002 72.2147 108.79 71.8894 108.566C71.3411 108.189 71.0632 107.6 71.0632 106.799C71.0632 106.067 71.3301 105.459 71.8602 104.976C72.3902 104.493 73.1725 104.251 74.2034 104.251C75.0624 104.251 75.7972 104.478 76.404 104.936C77.0108 105.393 77.3289 106.056 77.3581 106.923H75.7204C75.6912 106.433 75.4755 106.081 75.0771 105.876C74.8102 105.741 74.4812 105.671 74.0864 105.671C73.6477 105.671 73.2968 105.759 73.0336 105.939C72.7704 106.114 72.6388 106.363 72.6388 106.682C72.6388 106.974 72.7667 107.19 73.0263 107.337C73.1908 107.432 73.5454 107.545 74.09 107.673L75.4974 108.01C76.1152 108.157 76.5795 108.354 76.8939 108.603C77.3801 108.987 77.625 109.544 77.625 110.272C77.625 111 77.3398 111.637 76.7696 112.131C76.1993 112.625 75.3951 112.871 74.3532 112.871C73.3114 112.871 72.456 112.629 71.8455 112.142C71.2351 111.655 70.9316 110.989 70.9316 110.14H72.5584C72.6095 110.514 72.7119 110.792 72.8618 110.978C73.1396 111.315 73.6112 111.483 74.2838 111.483L74.2874 111.472ZM83.6786 107.377C84.1867 108.017 84.4426 108.771 84.4426 109.642C84.4426 110.514 84.1867 111.289 83.6786 111.919C83.1705 112.549 82.3955 112.863 81.3573 112.863C80.3191 112.863 79.5478 112.549 79.036 111.919C78.5279 111.289 78.272 110.532 78.272 109.642C78.272 108.753 78.5279 108.014 79.036 107.377C79.5441 106.736 80.3191 106.418 81.3573 106.418C82.3955 106.418 83.1668 106.736 83.6786 107.377ZM81.3537 107.754C80.893 107.754 80.5385 107.919 80.2862 108.244C80.0376 108.57 79.9134 109.039 79.9134 109.642C79.9134 110.246 80.0376 110.715 80.2862 111.044C80.5348 111.374 80.8894 111.538 81.3537 111.538C81.8179 111.538 82.1688 111.374 82.4174 111.044C82.666 110.715 82.7866 110.246 82.7866 109.642C82.7866 109.039 82.6623 108.57 82.4174 108.244C82.1688 107.919 81.8143 107.754 81.3537 107.754ZM85.4917 104.482H87.0709V112.651H85.4917V104.482ZM88.7196 107.267C89.1363 106.736 89.8528 106.469 90.8691 106.469C91.5307 106.469 92.1156 106.601 92.6311 106.865C93.1428 107.128 93.4024 107.622 93.4024 108.351V111.121C93.4024 111.315 93.4024 111.546 93.4133 111.82C93.4243 112.029 93.4572 112.168 93.5084 112.241C93.5596 112.314 93.6363 112.377 93.7423 112.424V112.658H92.0279C91.9804 112.538 91.9475 112.42 91.9292 112.314C91.9109 112.208 91.8963 112.084 91.8853 111.948C91.666 112.186 91.4174 112.387 91.1323 112.552C90.7923 112.75 90.4085 112.845 89.9808 112.845C89.4361 112.845 88.9828 112.688 88.6282 112.377C88.2736 112.065 88.0945 111.623 88.0945 111.048C88.0945 110.305 88.3796 109.767 88.9536 109.434C89.2679 109.255 89.7285 109.123 90.339 109.046L90.8764 108.98C91.1688 108.943 91.3772 108.896 91.5015 108.841C91.7281 108.746 91.8378 108.596 91.8378 108.391C91.8378 108.142 91.7537 107.974 91.5819 107.878C91.4101 107.783 91.1579 107.736 90.8252 107.736C90.4523 107.736 90.1891 107.827 90.0319 108.014C89.9223 108.149 89.8492 108.336 89.809 108.566H88.2882C88.3211 108.039 88.4674 107.604 88.7306 107.263L88.7196 107.267ZM89.893 111.513C90.0393 111.634 90.222 111.696 90.4341 111.696C90.774 111.696 91.0848 111.597 91.3735 111.396C91.6587 111.194 91.8086 110.832 91.8195 110.305V109.716C91.7208 109.778 91.6185 109.829 91.5161 109.869C91.4138 109.91 91.2748 109.943 91.0994 109.979L90.7448 110.045C90.4121 110.104 90.1745 110.177 90.0319 110.261C89.787 110.404 89.6664 110.627 89.6664 110.931C89.6664 111.202 89.7432 111.396 89.893 111.513ZM97.7196 108.069C97.0835 108.069 96.6595 108.277 96.4402 108.691C96.3195 108.925 96.2574 109.284 96.2574 109.767V112.655H94.6672V106.612H96.1733V107.666C96.4182 107.263 96.6302 106.989 96.8094 106.839C97.1055 106.59 97.4893 106.469 97.9609 106.469C97.9901 106.469 98.0157 106.469 98.034 106.469C98.0559 106.469 98.0998 106.473 98.1692 106.477V108.094C98.0705 108.083 97.9828 108.076 97.9024 108.072C97.8256 108.069 97.7635 108.065 97.7159 108.065L97.7196 108.069ZM107.827 109.083H103.865V111.183H108.383V112.651H102.198V104.482H108.182V105.928H103.865V107.662H107.827V109.083ZM112.309 107.783C111.775 107.783 111.406 108.01 111.209 108.464C111.106 108.706 111.055 109.009 111.055 109.383V112.651H109.483V106.619H111.004V107.501C111.209 107.19 111.399 106.967 111.578 106.832C111.903 106.586 112.313 106.466 112.813 106.466C113.439 106.466 113.947 106.63 114.345 106.956C114.744 107.282 114.941 107.827 114.941 108.581V112.651H113.325V108.976C113.325 108.658 113.281 108.416 113.197 108.244C113.044 107.933 112.748 107.78 112.313 107.78L112.309 107.783ZM121.448 110.88C121.408 111.238 121.221 111.601 120.889 111.97C120.373 112.56 119.649 112.852 118.717 112.852C117.949 112.852 117.273 112.603 116.685 112.109C116.096 111.615 115.804 110.81 115.804 109.694C115.804 108.647 116.067 107.845 116.597 107.289C117.127 106.733 117.814 106.451 118.659 106.451C119.159 106.451 119.613 106.546 120.015 106.733C120.417 106.919 120.75 107.22 121.013 107.626C121.25 107.985 121.404 108.402 121.473 108.874C121.514 109.152 121.532 109.551 121.525 110.071H117.394C117.416 110.678 117.606 111.103 117.964 111.344C118.183 111.494 118.443 111.571 118.75 111.571C119.075 111.571 119.339 111.48 119.543 111.293C119.653 111.194 119.752 111.055 119.836 110.876H121.448V110.88ZM119.887 109.028C119.861 108.61 119.733 108.292 119.507 108.076C119.28 107.86 118.999 107.75 118.662 107.75C118.297 107.75 118.015 107.864 117.814 108.094C117.613 108.325 117.485 108.632 117.434 109.024H119.887V109.028ZM125.509 108.069C124.873 108.069 124.449 108.277 124.23 108.691C124.109 108.925 124.047 109.284 124.047 109.767V112.655H122.457V106.612H123.963V107.666C124.208 107.263 124.42 106.989 124.599 106.839C124.895 106.59 125.279 106.469 125.75 106.469C125.78 106.469 125.805 106.469 125.824 106.469C125.845 106.469 125.889 106.473 125.959 106.477V108.094C125.86 108.083 125.772 108.076 125.692 108.072C125.615 108.069 125.553 108.065 125.506 108.065L125.509 108.069ZM128.477 113.712C128.646 113.855 128.934 113.928 129.337 113.928C129.903 113.928 130.283 113.738 130.477 113.357C130.601 113.112 130.664 112.702 130.664 112.128V111.74C130.514 112 130.349 112.194 130.177 112.322C129.863 112.563 129.457 112.68 128.953 112.68C128.178 112.68 127.56 112.409 127.096 111.864C126.631 111.319 126.401 110.579 126.401 109.65C126.401 108.72 126.624 107.995 127.07 107.384C127.516 106.773 128.148 106.466 128.967 106.466C129.271 106.466 129.534 106.513 129.761 106.605C130.144 106.762 130.455 107.055 130.689 107.479V106.608H132.221V112.34C132.221 113.119 132.089 113.709 131.826 114.104C131.376 114.785 130.514 115.125 129.234 115.125C128.463 115.125 127.834 114.975 127.348 114.671C126.862 114.368 126.591 113.917 126.54 113.313H128.255C128.298 113.496 128.371 113.632 128.47 113.712H128.477ZM128.211 110.59C128.426 111.099 128.81 111.355 129.362 111.355C129.731 111.355 130.042 111.216 130.298 110.938C130.554 110.66 130.678 110.213 130.678 109.606C130.678 109.035 130.558 108.596 130.316 108.299C130.075 107.999 129.75 107.849 129.344 107.849C128.792 107.849 128.408 108.109 128.2 108.632C128.09 108.91 128.035 109.251 128.035 109.657C128.035 110.008 128.094 110.32 128.211 110.594V110.59ZM136.037 111.07L137.284 106.612H138.962L136.893 112.552C136.494 113.698 136.18 114.408 135.946 114.682C135.712 114.957 135.248 115.096 134.549 115.096C134.41 115.096 134.297 115.096 134.213 115.096C134.129 115.096 134.001 115.089 133.833 115.078V113.815L134.034 113.826C134.187 113.833 134.337 113.826 134.476 113.808C134.615 113.789 134.736 113.745 134.831 113.679C134.922 113.617 135.01 113.485 135.087 113.284C135.167 113.083 135.2 112.962 135.185 112.918L132.97 106.612H134.725L136.041 111.07H136.037ZM143.041 107.267C143.458 106.736 144.174 106.469 145.191 106.469C145.852 106.469 146.437 106.601 146.953 106.865C147.464 107.128 147.72 107.622 147.72 108.351V111.121C147.72 111.315 147.72 111.546 147.731 111.82C147.742 112.029 147.775 112.168 147.826 112.241C147.878 112.314 147.954 112.377 148.06 112.424V112.658H146.346C146.298 112.538 146.265 112.42 146.247 112.314C146.229 112.208 146.214 112.084 146.203 111.948C145.984 112.186 145.735 112.387 145.45 112.552C145.11 112.75 144.726 112.845 144.299 112.845C143.754 112.845 143.301 112.688 142.946 112.377C142.592 112.065 142.412 111.623 142.412 111.048C142.412 110.305 142.698 109.767 143.272 109.434C143.586 109.255 144.047 109.123 144.657 109.046L145.194 108.98C145.487 108.943 145.695 108.896 145.819 108.841C146.046 108.746 146.156 108.596 146.156 108.391C146.156 108.142 146.072 107.974 145.9 107.878C145.728 107.783 145.476 107.736 145.143 107.736C144.77 107.736 144.507 107.827 144.35 108.014C144.24 108.149 144.167 108.336 144.127 108.566H142.606C142.639 108.039 142.785 107.604 143.049 107.263L143.041 107.267ZM144.215 111.513C144.361 111.634 144.544 111.696 144.756 111.696C145.096 111.696 145.406 111.597 145.695 111.396C145.98 111.194 146.13 110.832 146.141 110.305V109.716C146.042 109.778 145.94 109.829 145.838 109.869C145.735 109.91 145.596 109.943 145.421 109.979L145.066 110.045C144.734 110.104 144.496 110.177 144.354 110.261C144.109 110.404 143.988 110.627 143.988 110.931C143.988 111.202 144.065 111.396 144.215 111.513ZM151.844 107.783C151.31 107.783 150.941 108.01 150.744 108.464C150.641 108.706 150.59 109.009 150.59 109.383V112.651H149.018V106.619H150.539V107.501C150.744 107.19 150.934 106.967 151.116 106.832C151.442 106.586 151.851 106.466 152.352 106.466C152.977 106.466 153.485 106.63 153.884 106.956C154.282 107.282 154.479 107.827 154.479 108.581V112.651H152.864V108.976C152.864 108.658 152.82 108.416 152.736 108.244C152.582 107.933 152.286 107.78 151.851 107.78L151.844 107.783ZM161.308 104.493V112.651H159.776V111.813C159.55 112.172 159.294 112.431 159.009 112.596C158.72 112.757 158.362 112.841 157.934 112.841C157.228 112.841 156.636 112.556 156.154 111.985C155.671 111.414 155.43 110.682 155.43 109.789C155.43 108.757 155.668 107.948 156.143 107.355C156.618 106.762 157.25 106.469 158.044 106.469C158.409 106.469 158.735 106.55 159.02 106.711C159.305 106.872 159.535 107.095 159.711 107.377V104.497H161.312L161.308 104.493ZM157.057 109.672C157.057 110.228 157.166 110.675 157.389 111.008C157.609 111.344 157.938 111.513 158.387 111.513C158.837 111.513 159.173 111.348 159.407 111.015C159.641 110.682 159.754 110.254 159.754 109.723C159.754 108.984 159.568 108.457 159.195 108.138C158.965 107.948 158.702 107.849 158.398 107.849C157.938 107.849 157.598 108.025 157.382 108.372C157.166 108.72 157.057 109.156 157.057 109.672ZM171.474 109.083H167.512V111.183H172.03V112.651H165.845V104.482H171.829V105.928H167.512V107.662H171.474V109.083ZM175.956 107.783C175.422 107.783 175.053 108.01 174.856 108.464C174.753 108.706 174.702 109.009 174.702 109.383V112.651H173.13V106.619H174.651V107.501C174.856 107.19 175.046 106.967 175.228 106.832C175.554 106.586 175.963 106.466 176.464 106.466C177.089 106.466 177.597 106.63 177.996 106.956C178.394 107.282 178.592 107.827 178.592 108.581V112.651H176.976V108.976C176.976 108.658 176.932 108.416 176.848 108.244C176.694 107.933 176.398 107.78 175.963 107.78L175.956 107.783ZM185.091 110.88C185.051 111.238 184.865 111.601 184.532 111.97C184.016 112.56 183.293 112.852 182.36 112.852C181.593 112.852 180.917 112.603 180.328 112.109C179.739 111.615 179.447 110.81 179.447 109.694C179.447 108.647 179.71 107.845 180.24 107.289C180.77 106.733 181.458 106.451 182.302 106.451C182.803 106.451 183.256 106.546 183.658 106.733C184.06 106.919 184.393 107.22 184.656 107.626C184.894 107.985 185.047 108.402 185.117 108.874C185.157 109.152 185.175 109.551 185.168 110.071H181.037C181.059 110.678 181.249 111.103 181.607 111.344C181.827 111.494 182.086 111.571 182.393 111.571C182.719 111.571 182.982 111.48 183.187 111.293C183.296 111.194 183.395 111.055 183.479 110.876H185.091V110.88ZM183.53 109.028C183.505 108.61 183.377 108.292 183.15 108.076C182.923 107.86 182.642 107.75 182.306 107.75C181.94 107.75 181.659 107.864 181.458 108.094C181.257 108.325 181.129 108.632 181.077 109.024H183.53V109.028ZM189.153 108.069C188.516 108.069 188.092 108.277 187.873 108.691C187.752 108.925 187.69 109.284 187.69 109.767V112.655H186.1V106.612H187.606V107.666C187.851 107.263 188.063 106.989 188.242 106.839C188.538 106.59 188.922 106.469 189.394 106.469C189.423 106.469 189.449 106.469 189.467 106.469C189.489 106.469 189.533 106.473 189.602 106.477V108.094C189.503 108.083 189.412 108.076 189.335 108.072C189.259 108.069 189.196 108.065 189.149 108.065L189.153 108.069ZM192.124 113.712C192.293 113.855 192.581 113.928 192.984 113.928C193.55 113.928 193.93 113.738 194.124 113.357C194.248 113.112 194.314 112.702 194.314 112.128V111.74C194.164 112 194 112.194 193.828 112.322C193.514 112.563 193.108 112.68 192.603 112.68C191.828 112.68 191.211 112.409 190.746 111.864C190.282 111.319 190.052 110.579 190.052 109.65C190.052 108.72 190.275 107.995 190.721 107.384C191.167 106.773 191.799 106.466 192.618 106.466C192.921 106.466 193.185 106.513 193.411 106.605C193.795 106.762 194.106 107.055 194.34 107.479V106.608H195.871V112.34C195.871 113.119 195.74 113.709 195.477 114.104C195.027 114.785 194.164 115.125 192.885 115.125C192.114 115.125 191.485 114.975 190.999 114.671C190.512 114.368 190.242 113.917 190.191 113.313H191.905C191.949 113.496 192.022 113.632 192.121 113.712H192.124ZM191.858 110.59C192.073 111.099 192.457 111.355 193.009 111.355C193.378 111.355 193.689 111.216 193.945 110.938C194.201 110.66 194.325 110.213 194.325 109.606C194.325 109.035 194.204 108.596 193.963 108.299C193.722 107.999 193.397 107.849 192.991 107.849C192.439 107.849 192.055 108.109 191.847 108.632C191.737 108.91 191.682 109.251 191.682 109.657C191.682 110.008 191.741 110.32 191.858 110.594V110.59ZM199.681 111.07L200.927 106.612H202.605L200.536 112.552C200.137 113.698 199.823 114.408 199.589 114.682C199.355 114.957 198.891 115.096 198.193 115.096C198.054 115.096 197.94 115.096 197.856 115.096C197.772 115.096 197.644 115.089 197.476 115.078V113.815L197.677 113.826C197.831 113.833 197.981 113.826 198.12 113.808C198.258 113.789 198.379 113.745 198.474 113.679C198.566 113.617 198.653 113.485 198.73 113.284C198.811 113.083 198.843 112.962 198.829 112.918L196.614 106.612H198.368L199.684 111.07H199.681ZM212.267 109.083H208.304V111.183H212.822V112.651H206.637V104.482H212.621V105.928H208.304V107.662H212.267V109.083ZM216.737 104.434V105.719C216.65 105.708 216.5 105.701 216.291 105.693C216.083 105.686 215.94 105.734 215.86 105.832C215.78 105.931 215.739 106.037 215.739 106.158V106.667H216.774V107.78H215.739V112.651H214.168V107.78H213.287V106.667H214.149V106.279C214.149 105.631 214.259 105.188 214.475 104.943C214.705 104.581 215.257 104.401 216.131 104.401C216.229 104.401 216.321 104.401 216.401 104.409C216.481 104.416 216.591 104.423 216.734 104.434H216.737ZM220.397 104.434V105.719C220.309 105.708 220.159 105.701 219.951 105.693C219.742 105.686 219.6 105.734 219.519 105.832C219.439 105.931 219.399 106.037 219.399 106.158V106.667H220.433V107.78H219.399V112.651H217.827V107.78H216.946V106.667H217.808V106.279C217.808 105.631 217.918 105.188 218.134 104.943C218.364 104.581 218.916 104.401 219.79 104.401C219.888 104.401 219.98 104.401 220.06 104.409C220.141 104.416 220.25 104.423 220.393 104.434H220.397ZM222.853 104.434V105.891H221.252V104.434H222.853ZM222.853 106.612V112.655H221.252V106.612H222.853ZM229.488 108.779H227.872C227.843 108.552 227.766 108.351 227.646 108.168C227.47 107.922 227.192 107.802 226.819 107.802C226.289 107.802 225.924 108.065 225.73 108.596C225.628 108.878 225.577 109.251 225.577 109.716C225.577 110.181 225.628 110.517 225.73 110.784C225.916 111.286 226.271 111.538 226.794 111.538C227.163 111.538 227.426 111.44 227.58 111.238C227.733 111.037 227.828 110.781 227.861 110.462H229.473C229.437 110.942 229.261 111.396 228.954 111.828C228.461 112.519 227.726 112.863 226.757 112.863C225.789 112.863 225.072 112.574 224.615 112C224.158 111.421 223.928 110.675 223.928 109.756C223.928 108.717 224.18 107.911 224.685 107.333C225.189 106.755 225.887 106.469 226.776 106.469C227.532 106.469 228.15 106.638 228.633 106.978C229.115 107.318 229.4 107.919 229.488 108.779ZM232.083 104.434V105.891H230.482V104.434H232.083ZM232.083 106.612V112.655H230.482V106.612H232.083ZM238.66 110.88C238.62 111.238 238.433 111.601 238.1 111.97C237.585 112.56 236.861 112.852 235.929 112.852C235.161 112.852 234.485 112.603 233.897 112.109C233.308 111.615 233.016 110.81 233.016 109.694C233.016 108.647 233.279 107.845 233.809 107.289C234.339 106.733 235.026 106.451 235.871 106.451C236.371 106.451 236.825 106.546 237.227 106.733C237.629 106.919 237.962 107.22 238.225 107.626C238.462 107.985 238.616 108.402 238.685 108.874C238.726 109.152 238.744 109.551 238.737 110.071H234.606C234.628 110.678 234.818 111.103 235.176 111.344C235.395 111.494 235.655 111.571 235.962 111.571C236.287 111.571 236.551 111.48 236.755 111.293C236.865 111.194 236.964 111.055 237.048 110.876H238.66V110.88ZM237.099 109.028C237.073 108.61 236.945 108.292 236.719 108.076C236.492 107.86 236.211 107.75 235.874 107.75C235.509 107.75 235.227 107.864 235.026 108.094C234.825 108.325 234.697 108.632 234.646 109.024H237.099V109.028ZM242.527 107.783C241.994 107.783 241.624 108.01 241.427 108.464C241.325 108.706 241.274 109.009 241.274 109.383V112.651H239.702V106.619H241.222V107.501C241.427 107.19 241.617 106.967 241.8 106.832C242.125 106.586 242.535 106.466 243.035 106.466C243.661 106.466 244.169 106.63 244.567 106.956C244.966 107.282 245.163 107.827 245.163 108.581V112.651H243.547V108.976C243.547 108.658 243.503 108.416 243.419 108.244C243.266 107.933 242.97 107.78 242.535 107.78L242.527 107.783ZM251.721 108.779H250.105C250.076 108.552 249.999 108.351 249.879 108.168C249.703 107.922 249.425 107.802 249.053 107.802C248.522 107.802 248.157 108.065 247.963 108.596C247.861 108.878 247.81 109.251 247.81 109.716C247.81 110.181 247.861 110.517 247.963 110.784C248.15 111.286 248.504 111.538 249.027 111.538C249.396 111.538 249.659 111.44 249.813 111.238C249.966 111.037 250.061 110.781 250.094 110.462H251.706C251.67 110.942 251.494 111.396 251.187 111.828C250.694 112.519 249.959 112.863 248.99 112.863C248.022 112.863 247.305 112.574 246.848 112C246.391 111.421 246.161 110.675 246.161 109.756C246.161 108.717 246.413 107.911 246.918 107.333C247.422 106.755 248.12 106.469 249.009 106.469C249.765 106.469 250.383 106.638 250.866 106.978C251.348 107.318 251.633 107.919 251.721 108.779ZM255.146 111.07L256.393 106.612H258.071L256.002 112.552C255.603 113.698 255.289 114.408 255.055 114.682C254.821 114.957 254.357 115.096 253.659 115.096C253.52 115.096 253.406 115.096 253.322 115.096C253.238 115.096 253.11 115.089 252.942 115.078V113.815L253.143 113.826C253.297 113.833 253.447 113.826 253.585 113.808C253.724 113.789 253.845 113.745 253.94 113.679C254.031 113.617 254.119 113.485 254.196 113.284C254.276 113.083 254.309 112.962 254.295 112.918L252.079 106.612H253.834L255.15 111.07H255.146ZM83.3752 67.8745H78.2793C77.9174 67.8745 77.6213 68.171 77.6213 68.5333V73.6317C77.6213 73.994 77.3252 74.2905 76.9633 74.2905H71.8675C71.5056 74.2905 71.2095 74.587 71.2095 74.9493V80.0513C71.2095 80.4137 71.5056 80.7101 71.8675 80.7101H83.3715C83.7334 80.7101 84.0295 80.4137 84.0295 80.0513V68.5333C84.0295 68.171 83.7334 67.8745 83.3715 67.8745H83.3752ZM89.9662 99.3432H95.062C95.4239 99.3432 95.72 99.0468 95.72 98.6844V93.586C95.72 93.2237 96.0161 92.9272 96.378 92.9272H101.474C101.836 92.9272 102.132 92.6308 102.132 92.2684V87.1664C102.132 86.8041 101.836 86.5076 101.474 86.5076H89.9698C89.6079 86.5076 89.3118 86.8041 89.3118 87.1664V98.6844C89.3118 99.0468 89.6079 99.3432 89.9698 99.3432H89.9662ZM84.0332 98.6844V87.1664C84.0332 86.8041 83.7371 86.5076 83.3752 86.5076H71.8711C71.5092 86.5076 71.2131 86.8041 71.2131 87.1664V92.2684C71.2131 92.6308 71.5092 92.9272 71.8711 92.9272H76.967C77.3289 92.9272 77.625 93.2237 77.625 93.586V98.6844C77.625 99.0468 77.9211 99.3432 78.283 99.3432H83.3788C83.7407 99.3432 84.0368 99.0468 84.0368 98.6844H84.0332ZM89.3081 68.5333V80.0513C89.3081 80.4137 89.6043 80.7101 89.9662 80.7101H101.47C101.832 80.7101 102.128 80.4137 102.128 80.0513V74.9493C102.128 74.587 101.832 74.2905 101.47 74.2905H96.3744C96.0125 74.2905 95.7163 73.994 95.7163 73.6317V68.5333C95.7163 68.171 95.4203 67.8745 95.0584 67.8745H89.9625C89.6006 67.8745 89.3045 68.171 89.3045 68.5333H89.3081Z" fill="white"/>
</svg>
