<svg width="900" height="500" viewBox="0 0 900 500" fill="none" xmlns="http://www.w3.org/2000/svg">
<path d="M263.52 241.47C243.81 239.84 240.36 238.42 240.36 233.95C240.36 229.99 243.81 227.45 259.26 227.45C275.51 227.45 282.52 229.89 282.52 236.29H304.46C303.85 220.14 287.8 211.71 259.86 211.71C234.77 211.71 218.41 218.52 218.41 233.65C218.41 249.7 231.41 255.59 260.77 257.62C282.31 259.04 285.56 259.96 285.56 265.24C285.56 269.81 281.29 272.55 263.82 272.55C244.72 272.55 238.73 268.59 238.73 262.49H216.69C217.71 281.59 235.18 288.29 264.54 288.29C290.34 288.29 307.51 282.91 307.51 264.31C307.51 245.31 290.14 243.48 263.52 241.45V241.47Z" fill="white"/>
<path d="M384.92 240.86V261.91L337.35 213.33H313.06V288.09H333.72V260.66L333.63 239.72L381.18 288.09H405.47V213.33H384.8L384.92 240.86Z" fill="white"/>
<path d="M457.75 241.47C438.04 239.84 434.59 238.42 434.59 233.95C434.59 229.99 438.04 227.45 453.49 227.45C469.74 227.45 476.75 229.89 476.75 236.29H498.69C498.08 220.14 482.03 211.71 454.09 211.71C429 211.71 412.64 218.52 412.64 233.65C412.64 249.7 425.64 255.59 455 257.62C476.54 259.04 479.79 259.96 479.79 265.24C479.79 269.81 475.52 272.55 458.05 272.55C438.95 272.55 432.96 268.59 432.96 262.49H410.92C411.94 281.59 429.41 288.29 458.77 288.29C484.57 288.29 501.74 282.91 501.74 264.31C501.74 245.31 484.37 243.48 457.75 241.45V241.47Z" fill="white"/>
<path d="M533.14 212.62H511.49V287.38H583.85V269.15H533.14V212.62Z" fill="white"/>
<path d="M682.08 285.5C680.24 281.63 679.27 276.03 678.72 266.16C678.36 259.66 675.85 255.24 671.08 252.76C677.58 249.06 681.22 242.91 681.22 235.37C681.22 228.52 678.33 222.85 672.86 218.98C667.63 215.28 660.09 213.33 651.08 213.33H590.99V288.1H612.82V260.87H648.17C651.64 260.87 653.87 261.35 655.19 262.39C656.01 263.03 657.11 264.31 657.22 268.05C657.52 277.15 658.01 282.58 659.85 286.97L660.33 288.1H683.33L682.09 285.5H682.08ZM612.81 229.58H649.3C653.18 229.58 659.7 230.57 659.7 237.2C659.7 243.83 653.19 244.82 649.3 244.82H612.81V229.58Z" fill="white"/>
</svg>
