<svg width="270" height="150" viewBox="0 0 270 150" fill="none" xmlns="http://www.w3.org/2000/svg">
<path d="M206.18 54.2479V72.6469C204.911 72.5359 203.399 72.7939 202.157 72.6469C201.776 72.6019 201.566 72.3739 201.569 71.9869C201.341 67.7689 201.884 63.2149 201.575 59.0389C201.425 56.9989 200.159 54.9229 197.945 54.7909C194.963 54.6109 193.961 56.8669 193.607 59.4289L193.568 72.4099L193.184 72.6499C191.924 72.5329 190.427 72.7939 189.197 72.6499C188.834 72.6079 188.684 72.4399 188.687 72.0679C188.468 67.9489 188.99 63.5119 188.693 59.4319C188.507 56.8579 187.232 54.6169 184.355 54.7939C181.907 54.9439 180.851 57.2689 180.725 59.4319C180.485 63.5599 180.908 67.9159 180.731 72.0679C180.743 72.4969 180.533 72.6079 180.143 72.6499C178.973 72.7729 177.551 72.5929 176.36 72.6109L176.105 72.3199C176.021 66.6139 175.973 60.8689 176.135 55.1599C176.789 49.4599 185.015 48.4129 189.125 50.5879C189.776 50.9329 190.265 51.6079 190.805 51.9499C191.411 52.3339 191.96 51.4699 192.446 51.1039C194.816 49.3069 198.944 49.3279 201.71 50.1019C203.399 50.5759 204.845 51.8119 205.619 53.3689C205.772 53.6779 205.775 54.1879 206.177 54.2539L206.18 54.2479Z" fill="white"/>
<path d="M206.181 76.1539V76.8559C205.932 76.8019 205.746 77.0119 205.518 77.0149C205.266 77.0179 203.961 76.3819 204.003 77.1289C204.036 77.7319 204.921 77.6059 205.323 77.7529C205.611 77.8579 205.83 78.2059 206.181 78.1819V79.9759C205.662 80.2189 205.428 80.4649 204.813 80.5189C204.198 80.5729 202.092 80.4679 202.71 79.4329C203.139 78.7129 203.43 79.3579 203.757 79.4719C204.162 79.6129 205.365 79.6549 205.047 78.9619C204.828 78.4849 203.34 78.7729 202.869 77.9419C202.242 76.8439 203.211 75.7519 204.342 75.6829C204.66 75.6649 205.116 75.6829 205.416 75.7849C205.716 75.8869 205.863 76.1539 206.178 76.1539H206.181Z" fill="white"/>
<path d="M145.047 49.5919C145.878 49.4809 147.846 49.4869 148.692 49.5709C148.893 49.5919 149.277 49.6459 149.34 49.8589L149.352 64.8169C149.364 66.4639 150.375 67.6189 152.046 67.7389C156.039 67.5079 160.353 68.0359 164.307 67.7389C165.789 67.6279 166.758 66.8689 166.923 65.3599L166.935 49.8589C167.028 49.6609 167.22 49.5919 167.424 49.5679C168.282 49.4689 170.628 49.4689 171.486 49.5679C171.783 49.6009 172.026 49.7359 171.996 50.0719V68.7109C171.648 70.9249 170.205 72.4819 167.895 72.6469H148.374C146.283 72.4819 144.654 70.8499 144.432 68.7889V49.9939C144.423 49.6459 144.777 49.6279 145.044 49.5919H145.047Z" fill="white"/>
<path d="M125.607 49.5889C126.303 49.4599 128.808 49.4929 129.567 49.5709C129.801 49.5949 130.128 49.6279 130.197 49.8769C130.308 54.7759 130.167 59.6809 130.236 64.5799C130.251 65.6569 130.116 66.6079 131.193 67.2799C132.657 68.1949 137.511 67.5499 139.485 67.7299C140.265 67.7989 139.986 68.2069 139.986 68.7049C139.986 69.6409 139.971 70.5829 139.986 71.5189C139.992 71.9539 140.229 72.2779 139.755 72.6049L129.345 72.6349C127.158 72.4219 125.505 70.8169 125.235 68.6329C125.175 62.5789 125.322 56.5159 125.241 50.4619C125.235 50.0569 124.971 49.7059 125.607 49.5859V49.5889Z" fill="white"/>
<path d="M116.553 49.589C117.147 49.484 119.985 49.481 120.588 49.574C121.377 49.697 121.029 50.501 121.017 51.008C120.861 57.983 121.089 65.018 121.107 71.984C121.107 72.272 120.96 72.557 120.669 72.644H116.538C116.298 72.614 116.139 72.455 116.109 72.212L116.175 49.757C116.238 49.673 116.445 49.607 116.553 49.589Z" fill="white"/>
<path d="M84.7825 43.895C85.4395 43.757 86.1895 44.543 86.7295 44.876C88.2895 45.839 89.8585 46.796 91.4305 47.741L91.6585 47.987C91.7005 48.143 91.3345 48.953 91.2385 49.178C90.9115 49.94 90.4855 50.675 90.1315 51.422C89.8705 51.974 88.8535 54.569 88.4125 54.698C87.7735 54.719 87.1615 54.44 86.5345 54.344C85.5835 54.2 84.3955 54.185 83.4415 54.332C82.9315 54.41 81.8275 54.893 81.4105 54.629C81.3445 54.587 80.8105 53.609 80.7265 53.441C79.8805 51.779 79.1935 49.922 78.3535 48.245C78.2545 47.993 78.3775 47.885 78.5605 47.741L84.7795 43.895H84.7825Z" fill="white"/>
<path d="M88.1419 75.3111C88.2079 75.3051 88.2709 75.2841 88.3369 75.3111C88.7929 75.4311 89.8729 78.1881 90.1339 78.7461C90.5059 79.5411 90.9979 80.3331 91.3189 81.1461C91.4239 81.4131 91.7059 81.9711 91.5139 82.1961C91.4749 82.2441 90.8029 82.6911 90.6829 82.7691C89.3929 83.5881 88.0339 84.3351 86.7289 85.1361C85.4869 85.8951 85.3459 86.6301 83.8399 85.6521C82.3339 84.6741 80.6629 83.6901 79.0789 82.6881C77.8999 81.9441 78.3139 81.9321 78.7519 80.9091C79.3129 79.6011 79.9009 78.2721 80.5189 76.9821C80.6209 76.7691 81.2749 75.4551 81.3649 75.4131C81.7699 75.2211 83.3209 75.7191 83.9029 75.7641C84.7339 75.8241 85.9489 75.8001 86.7709 75.6681C87.1999 75.5991 87.7309 75.3561 88.1389 75.3111H88.1419Z" fill="white"/>
<path d="M77.7596 48.341L80.1836 55.046L79.9586 55.451C78.2906 56.354 76.9406 57.602 75.8726 59.165C75.5786 59.594 75.4856 60.362 74.7896 60.155C73.2836 59.678 71.8286 59.045 70.3616 58.499C70.0766 58.394 68.3666 57.917 68.2946 57.833C68.1956 57.719 68.1716 57.425 68.1926 57.269C68.2916 56.546 68.6846 55.553 68.8556 54.809C69.0266 54.065 69.1346 53.333 69.3056 52.607C69.4136 52.145 69.7376 50.456 69.9266 50.189C70.1006 49.946 70.8836 49.754 71.2046 49.673C73.2386 49.157 75.3116 48.758 77.3576 48.251L77.7566 48.344L77.7596 48.341Z" fill="white"/>
<path d="M94.8534 69.8511C95.1144 69.8061 95.2524 69.9801 95.4774 70.0551C96.8814 70.5141 98.2254 71.0481 99.5934 71.5581C100.19 71.7801 100.889 71.9691 101.507 72.1431C102.092 72.4371 101.414 73.8651 101.297 74.3451C100.898 75.9831 100.679 77.9631 100.16 79.5261C99.8694 80.4021 98.6934 80.3001 97.9314 80.4951C96.2904 80.9181 94.5534 81.5151 92.8644 81.7521C91.9194 81.8841 92.0604 81.4041 91.8324 80.7921C91.4814 79.8471 91.1874 78.8961 90.8514 77.9511C90.5874 77.2071 89.9514 76.0311 89.8164 75.3201C89.6574 74.4741 90.6144 74.2641 91.1964 73.8501C92.2884 73.0731 93.4134 71.9181 94.1574 70.8051C94.3434 70.5261 94.4424 69.9261 94.8504 69.8541L94.8534 69.8511Z" fill="white"/>
<path d="M92.43 48.338C92.556 48.311 92.67 48.314 92.796 48.326C94.266 48.488 96.171 49.133 97.632 49.502C98.16 49.637 99.738 49.811 100.062 50.195C100.197 50.354 100.602 52.304 100.692 52.685C100.923 53.687 101.085 54.716 101.325 55.715C101.448 56.222 102.06 57.488 101.592 57.878L94.851 60.236L94.557 60.056C93.9 58.715 92.772 57.38 91.587 56.474C91.161 56.15 89.79 55.523 89.793 54.989C89.793 54.638 90.258 53.777 90.396 53.402C90.963 51.848 91.482 50.276 92.022 48.71C92.088 48.53 92.241 48.38 92.43 48.338Z" fill="white"/>
<path d="M74.7901 69.857C74.9671 69.821 75.1711 69.8 75.3241 69.911C75.4111 69.974 75.9421 71.009 76.1041 71.237C76.5841 71.921 77.4481 72.86 78.0961 73.379C78.6121 73.79 79.3831 74.135 79.8481 74.516C80.1091 74.729 80.1721 74.99 80.1031 75.317C79.9981 75.815 79.5391 76.586 79.3621 77.072C78.9481 78.212 78.6481 79.478 78.2041 80.594C78.0901 80.879 77.7751 81.722 77.4991 81.767L73.2451 80.873C72.3091 80.396 71.1451 80.441 70.2031 80.09C69.9451 79.994 69.8401 79.769 69.7591 79.52C69.3691 78.356 69.1981 76.823 68.9191 75.602C68.7661 74.93 68.0971 72.989 68.1811 72.452C68.1961 72.35 68.2411 72.191 68.3341 72.134L70.3621 71.51C71.5651 70.88 72.9601 70.511 74.2651 70.106C74.4421 70.052 74.6131 69.887 74.7901 69.851V69.857Z" fill="white"/>
<path d="M101.723 58.394C101.819 58.385 101.876 58.379 101.975 58.409C102.149 58.463 102.872 59.597 103.037 59.849C103.712 60.884 104.369 61.964 105.02 63.014C105.263 63.407 105.911 64.358 106.049 64.715C106.16 65.003 106.136 65.264 105.971 65.528C104.939 67.037 104.066 68.66 103.07 70.193C102.866 70.505 102.377 71.345 102.164 71.549C101.915 71.789 101.423 71.636 101.138 71.495C100.952 71.402 100.829 71.21 100.601 71.096C99.8686 70.739 98.9986 70.445 98.2546 70.088C97.2616 69.614 96.2686 69.095 95.2996 68.594C95.1616 68.312 95.4826 67.763 95.5516 67.439C95.8306 66.122 95.8336 63.968 95.5516 62.651C95.4526 62.198 94.9546 61.577 95.5546 61.283C97.3006 60.443 99.1246 59.723 100.859 58.862C101.174 58.706 101.237 58.436 101.726 58.394H101.723Z" fill="white"/>
<path d="M63.8184 65.5399V64.4689L64.1994 64.2649C65.3844 62.5039 66.4014 60.2719 67.6764 58.6159C67.9704 58.2319 68.3664 58.3519 68.7534 58.5439C69.0384 58.6849 69.2334 58.8319 69.5604 58.9879C71.1474 59.7469 72.7314 60.5149 74.3394 61.2319C74.6454 61.3999 74.5974 61.6909 74.5704 61.9939C74.4444 63.4249 74.0784 64.3729 74.1864 65.9809C74.2134 66.4009 74.6844 68.3629 74.6214 68.5069C74.4654 68.8609 73.3434 69.1699 72.9654 69.3529C71.7354 69.9529 70.4814 70.5049 69.2544 71.1019C68.7714 71.3359 68.3064 71.9689 67.7094 71.4349C66.9624 70.3399 66.3414 69.1669 65.6364 68.0479C65.2104 67.3699 64.6464 66.3379 64.2024 65.7409C64.0974 65.5999 63.9834 65.5639 63.8214 65.5369L63.8184 65.5399Z" fill="white"/>
<path d="M150.66 56.0571L154.974 56.0811L155.214 56.4651C155.103 57.9771 155.346 59.6601 155.214 61.1511C155.199 61.3251 155.196 61.4901 155.055 61.6161L150.81 61.7061C150.534 61.6491 150.405 61.5951 150.366 61.3071C150.168 59.8551 150.525 57.9651 150.366 56.4651L150.66 56.0571Z" fill="white"/>
<path d="M161.318 56.138C161.438 56.051 161.582 56.051 161.726 56.039C162.695 55.961 164.519 55.952 165.479 56.039C165.923 56.078 166.022 56.174 166.064 56.624C166.202 58.13 165.989 59.9 166.019 61.421L165.635 61.661C164.351 61.562 162.908 61.778 161.645 61.661C161.513 61.649 161.387 61.667 161.291 61.547L161.318 56.141V56.138Z" fill="white"/>
<path d="M150.819 49.5889C151.776 49.6189 152.733 49.6669 153.693 49.6519C154.299 49.6429 155.133 49.2589 155.214 50.1499C155.352 51.6529 155.136 53.4259 155.169 54.9469L154.785 55.1869C153.543 55.0579 152.001 55.3459 150.795 55.1869C150.552 55.1539 150.381 55.0159 150.366 54.7579C150.522 53.2819 150.174 51.4249 150.366 49.9939C150.405 49.6969 150.54 49.6549 150.816 49.5889H150.819Z" fill="white"/>
<path d="M161.588 49.586C162.599 49.622 163.607 49.67 164.618 49.652C165.152 49.643 165.881 49.313 166.061 50.072C165.953 51.533 166.193 53.162 166.061 54.602C166.022 55.043 165.926 55.145 165.476 55.187C164.615 55.265 162.392 55.295 161.567 55.187C161.309 55.154 161.249 55.091 161.216 54.836C161.024 53.375 161.369 51.5 161.216 49.994C161.21 49.766 161.387 49.646 161.588 49.586Z" fill="white"/>
<path d="M156.203 56.0571L160.127 56.0811L160.367 56.4651C160.247 57.9921 160.514 59.7261 160.367 61.2291C160.34 61.5201 160.331 61.6161 160.016 61.6581C159.248 61.7571 157.22 61.7301 156.419 61.6581C156.278 61.6461 156.032 61.6311 155.954 61.4991C155.918 61.4391 155.843 60.3381 155.834 60.1371C155.792 59.2071 155.717 57.4131 155.834 56.5431C155.867 56.3061 156.008 56.1771 156.206 56.0571H156.203Z" fill="white"/>
<path d="M156.363 49.5859C157.188 49.6399 158.016 49.6639 158.844 49.6489C159.333 49.6399 159.915 49.3789 160.323 49.7989C160.323 50.4259 160.476 54.8719 160.284 55.0639C160.206 55.1449 160.044 55.1689 159.933 55.1809C159.108 55.2709 157.251 55.2589 156.414 55.1809C155.97 55.1389 155.871 55.0429 155.829 54.5959C155.733 53.5639 155.715 51.1579 155.829 50.1469C155.868 49.8049 156.021 49.6459 156.357 49.5829L156.363 49.5859Z" fill="white"/>
<path d="M150.737 62.4501C151.961 62.5251 153.431 62.2941 154.625 62.4321C154.985 62.4741 155.168 62.6571 155.21 63.0171C155.288 63.6981 155.3 65.7861 155.21 66.4521C155.171 66.7521 154.991 66.8451 154.7 66.8781C154.172 66.9381 152.132 66.9321 151.715 66.7371C150.836 66.3231 150.431 65.5191 150.362 64.5801C150.329 64.1181 150.224 62.5971 150.731 62.4501H150.737Z" fill="white"/>
<path d="M161.588 62.45C162.812 62.522 164.279 62.294 165.476 62.432C165.896 62.48 166.016 62.702 166.061 63.095C166.214 64.469 166.037 66.098 164.633 66.737C164.198 66.935 162.188 66.938 161.648 66.878C161.384 66.848 161.249 66.812 161.216 66.53C161.129 65.786 161.132 63.686 161.216 62.939C161.246 62.687 161.321 62.516 161.585 62.45H161.588Z" fill="white"/>
<path d="M156.359 62.4501C157.439 62.5281 158.816 62.2911 159.86 62.4291C160.076 62.4591 160.148 62.5461 160.289 62.7021V66.7611C160.181 66.8421 160.064 66.8631 159.935 66.8781C159.128 66.9651 157.316 66.9561 156.494 66.8781C156.179 66.8481 155.957 66.8001 155.909 66.4491C155.828 65.8551 155.828 63.5211 155.918 62.9421C155.957 62.6961 156.122 62.5161 156.359 62.4471V62.4501Z" fill="white"/>
<path d="M126.312 80.4229C126.114 80.6119 125.196 80.6299 124.923 80.5609C124.11 80.3509 123.648 78.1429 122.697 77.8669C122.559 77.8669 122.526 77.9479 122.505 78.0619C122.445 78.3889 122.496 79.0939 122.502 79.4689C122.505 79.6579 122.595 79.8319 122.589 80.0089C122.565 80.6149 121.497 80.9599 121.41 80.0149C121.32 79.0429 121.329 77.1649 121.41 76.1869C121.422 76.0459 121.422 75.9019 121.509 75.7789C121.662 75.6259 122.892 75.6409 123.096 75.7549C123.231 75.8329 123.621 76.4179 123.741 76.5919C124.005 76.9759 124.515 78.0589 124.767 78.2959C124.827 78.3529 124.878 78.4099 124.971 78.4129C125.064 78.4219 125.139 78.3949 125.208 78.3379C125.508 78.0949 125.154 76.3399 125.355 75.9139C125.496 75.6199 126.147 75.6019 126.336 75.8689L126.312 80.4169V80.4229Z" fill="white"/>
<path d="M196.901 77.7199C196.772 77.8069 196.808 79.3429 196.811 79.6249C196.814 79.9069 196.991 80.0629 196.772 80.3599C196.472 80.7679 195.782 80.5969 195.746 80.0779C195.836 78.9409 195.8 77.7949 195.803 76.6549C195.803 76.3429 195.608 75.9169 196.034 75.7249C196.292 75.6079 197.228 75.6589 197.48 75.8389L199.154 78.2989C199.298 78.4759 199.499 78.4729 199.547 78.2179C199.655 77.6089 199.406 76.5229 199.565 75.9739C199.685 75.5539 200.648 75.4519 200.723 76.2649C200.804 77.1379 200.819 79.1569 200.723 80.0119C200.669 80.4709 200.405 80.5699 199.982 80.5969C199.016 80.6629 198.806 80.2279 198.314 79.5289C197.927 78.9799 197.588 78.3709 197.249 77.7859C197.183 77.7019 196.973 77.6689 196.904 77.7169L196.901 77.7199Z" fill="white"/>
<path d="M133.877 75.7009C134.24 75.6199 136.025 75.6379 136.418 75.7009C137.045 75.8059 137.72 76.7059 137.63 77.3389C137.603 77.5219 137.462 77.7739 137.366 77.9389C137.072 78.4339 136.607 78.4999 136.847 79.1719C136.964 79.4989 138.098 80.7469 136.832 80.5939C135.941 80.4889 135.695 78.6859 135.101 78.6469C134.024 78.5809 135.254 80.6809 134.015 80.5999C133.616 80.5729 133.535 80.3749 133.502 80.0149C133.424 79.1659 133.394 76.9219 133.502 76.1089C133.532 75.8839 133.643 75.7519 133.874 75.7009H133.877ZM134.972 76.7929C134.711 76.8499 134.648 77.0449 134.609 77.2879C134.639 77.8189 136.352 77.7529 136.466 77.3449C136.658 76.6579 135.371 76.7059 134.972 76.7929Z" fill="white"/>
<path d="M190.628 75.707C191.777 75.539 192.665 75.821 193.418 76.7C194.096 77.492 194.201 78.251 193.703 79.169C192.248 81.848 187.691 80.267 188.576 77.48C188.807 76.757 189.884 75.815 190.625 75.707H190.628ZM191.102 76.718C189.707 76.796 189.194 78.536 190.376 79.352C190.844 79.673 191.684 79.649 192.134 79.313C193.496 78.305 192.629 76.631 191.102 76.718Z" fill="white"/>
<path d="M163.778 75.7071C164.741 75.5841 165.497 75.7821 166.217 76.4241C166.802 76.9461 166.988 77.6961 166.919 78.4581C166.652 81.3741 161.192 81.3501 161.609 77.6751C161.717 76.7211 162.884 75.8241 163.778 75.7101V75.7071ZM164.24 76.7301C163.265 76.7451 162.413 77.7231 162.875 78.6741C163.493 79.9491 165.167 79.8591 165.767 78.6231C166.238 77.6511 165.218 76.7121 164.243 76.7271L164.24 76.7301Z" fill="white"/>
<path d="M141.845 75.7071C142.277 75.6531 144.065 75.5481 144.194 76.0521C144.212 76.3191 143.966 76.5471 143.759 76.6851C142.841 76.6101 141.458 76.3941 140.993 77.4261C140.51 78.4941 141.179 79.4751 142.304 79.5741C142.745 79.6131 143.522 79.6671 143.429 79.0041C143.366 78.5481 142.763 78.7371 142.577 78.4461C142.358 78.1041 142.502 77.6841 142.916 77.6301C143.351 77.5731 144.371 77.5041 144.446 78.0591C144.488 78.3681 144.476 79.2171 144.422 79.5261C144.341 80.0121 143.942 80.3661 143.459 80.4351C142.019 80.6361 139.712 80.4501 139.526 78.6081C139.454 77.9061 139.556 77.1021 140.069 76.5801C140.387 76.2531 141.395 75.7671 141.851 75.7101L141.845 75.7071Z" fill="white"/>
<path d="M119.108 77.636C119.393 77.696 119.516 78.05 119.402 78.317C119.057 79.109 117.173 78.119 117.221 79.142C117.263 80.102 119.465 79.1 119.615 79.859C119.729 80.432 119.456 80.555 118.955 80.6C118.517 80.639 116.708 80.651 116.393 80.501C116.309 80.459 116.237 80.402 116.174 80.33L116.117 76.052C116.168 75.833 116.318 75.725 116.534 75.689C116.924 75.626 118.964 75.623 119.321 75.701C119.93 75.836 119.618 76.775 119.261 76.775H117.467C117.206 76.775 117.206 77.633 117.467 77.633C117.887 77.633 118.757 77.558 119.105 77.633L119.108 77.636Z" fill="white"/>
<path d="M128.571 75.7009C128.955 75.6139 130.848 75.6319 131.289 75.6829C131.793 75.7429 131.952 76.1989 131.64 76.5829C131.253 77.0599 129.654 76.4929 129.369 76.9639C128.583 78.2749 131.901 76.9339 131.466 78.3559C131.259 79.0339 129.135 78.1699 129.237 79.1389C129.321 79.9309 131.082 79.3909 131.559 79.6159C131.853 79.7569 131.862 80.2909 131.556 80.4709C131.25 80.6509 129.291 80.6389 128.868 80.5909C128.664 80.5669 128.328 80.4829 128.211 80.3089C128.061 80.0839 128.205 79.9279 128.208 79.6969C128.217 78.6559 128.208 77.6119 128.208 76.5709C128.208 76.2049 127.986 75.8269 128.571 75.6949V75.7009Z" fill="white"/>
<path d="M174.468 75.704C174.78 75.632 175.113 75.659 175.254 75.977C175.407 76.874 175.098 78.221 175.287 79.061C175.446 79.775 176.979 79.727 177.126 79.061C177.288 78.335 176.949 76.451 177.183 75.923C177.33 75.587 178.044 75.584 178.194 75.923C178.17 76.988 178.368 78.3501 178.227 79.3851C178.056 80.6481 176.634 80.693 175.62 80.6C174.615 80.507 174.162 80.0991 174.126 79.0671C174.102 78.3111 174.189 77.447 174.177 76.661C174.171 76.319 173.913 75.836 174.462 75.707L174.468 75.704Z" fill="white"/>
<path d="M157.532 75.707C158.474 75.569 160.46 75.971 159.134 77.081C158.618 76.925 158.168 76.679 157.601 76.79C157.406 76.856 157.427 77.438 157.547 77.522C157.676 77.612 158.507 77.663 158.828 77.801C160.418 78.482 159.974 80.36 158.288 80.519C157.733 80.57 155.654 80.495 156.104 79.508C156.41 78.839 157.094 79.472 157.505 79.508C157.832 79.538 158.84 79.52 158.489 78.995C158.09 78.395 157.037 78.851 156.422 78.017C155.744 77.096 156.479 75.857 157.529 75.704L157.532 75.707Z" fill="white"/>
<path d="M146.522 75.7011C146.681 75.6531 147.251 75.6591 147.401 75.7251C147.794 75.9021 148.4 77.3361 148.85 77.3211C149.072 77.3151 149.786 75.8691 150.137 75.7251C150.488 75.5811 151.418 75.6201 151.061 76.1811C150.683 76.8321 149.507 78.0771 149.432 78.7641C149.393 79.1181 149.549 80.2671 149.309 80.4351C149.225 80.4951 148.58 80.5971 148.472 80.5821C147.806 80.4891 148.115 79.5651 148.109 79.1511C148.097 78.3171 147.584 77.6811 147.122 77.0181C146.978 76.8141 146.282 76.0401 146.318 75.8961C146.339 75.8151 146.441 75.7251 146.522 75.7011Z" fill="white"/>
<path d="M180.324 75.7009C180.96 75.7789 183.234 75.5029 183.657 75.7699C183.975 75.9709 183.888 76.5289 183.591 76.7029C183.27 76.8889 182.67 76.6189 182.487 77.0839C182.304 78.0049 182.616 79.2919 182.451 80.1649C182.352 80.6929 181.488 80.7409 181.374 80.1469C181.332 79.9279 181.44 79.7539 181.443 79.5439C181.452 78.9349 181.527 77.4919 181.344 76.9849C181.188 76.5499 180.456 76.9669 180.156 76.6129C179.943 76.3669 179.979 75.7969 180.327 75.6979L180.324 75.7009Z" fill="white"/>
<path d="M169.004 75.7011C169.25 75.6291 169.784 75.6861 169.871 75.9741L169.925 79.3521C170.171 79.7571 171.683 79.3551 172.229 79.6251C172.472 79.7451 172.43 80.3571 172.229 80.4801C171.92 80.6691 169.4 80.6421 169.01 80.5011C168.932 80.4741 168.875 80.4381 168.836 80.3631V75.8391C168.875 75.7731 168.932 75.7221 169.007 75.7011H169.004Z" fill="white"/>
<path d="M185.864 75.704C186.227 75.599 186.695 75.7041 186.749 76.1121C186.914 77.327 186.62 78.911 186.743 80.168C186.554 80.741 185.651 80.729 185.57 80.096C185.414 78.89 185.699 77.357 185.57 76.1121C185.564 75.9501 185.711 75.749 185.864 75.704Z" fill="white"/>
</svg>
