<svg width="900" height="500" viewBox="0 0 900 500" fill="none" xmlns="http://www.w3.org/2000/svg">
<path d="M208.23 192.98C216.78 192.98 225.34 193.03 233.89 192.92C235.83 192.9 236.71 193.58 237.33 195.36C242.11 209.08 246.97 222.76 251.81 236.46C253.06 239.99 254.33 243.52 255.8 247.65C256.75 245.08 257.52 243.05 258.25 241.01C263.7 225.71 269.17 210.41 274.56 195.08C275.12 193.49 275.93 192.92 277.6 192.94C285.19 193.01 292.79 192.97 300.39 192.97C303.28 192.97 303.28 192.97 303.28 195.82C303.28 218.95 303.28 242.07 303.28 265.2C303.28 265.96 303.28 266.72 303.28 267.54C303.98 267.54 304 267.02 304.15 266.67C314.23 243.33 324.28 219.98 334.39 196.66C336.31 192.23 335.39 193.04 339.89 192.98C343.02 192.94 346.15 193.03 349.27 192.95C350.82 192.91 351.67 193.4 352.31 194.89C358.87 210.1 365.51 225.27 372.13 240.46C376.1 249.57 380.05 258.69 384.03 267.8C384.24 268.28 384.3 268.92 384.96 269.17C385.31 268.42 385.13 267.65 385.14 266.92C385.15 243.22 385.14 219.52 385.15 195.82C385.15 192.99 385.15 192.99 388.04 192.99C392.44 192.99 396.85 192.99 401.25 192.99C403.89 192.99 403.94 193.04 403.94 195.65C403.94 215.85 403.94 236.04 403.94 256.24C403.94 256.88 403.97 257.52 403.94 258.15C403.89 259.36 404.42 259.87 405.65 259.87C414.97 259.85 424.29 259.84 433.61 259.87C434.88 259.87 435.4 259.15 435.83 258.15C439.47 249.66 443.14 241.18 446.79 232.7C452.08 220.41 457.42 208.14 462.63 195.82C463.52 193.7 464.62 192.77 467.01 192.93C470.51 193.16 474.03 193.04 477.54 192.97C478.97 192.94 479.74 193.51 480.3 194.79C488.81 214.43 497.351 234.06 505.891 253.69C507.871 258.23 509.86 262.77 512.3 267.27V265.13C512.3 242.07 512.3 219 512.3 195.94C512.3 193.98 513.291 192.997 515.271 192.99C522.871 192.99 530.46 193.03 538.06 192.96C539.77 192.94 540.681 193.4 541.281 195.12C546.271 209.44 551.37 223.72 556.43 238.01C557.51 241.05 558.6 244.09 560.11 247.13C560.88 245.02 561.67 242.91 562.42 240.79C567.75 225.78 573.11 210.78 578.35 195.74C579.08 193.64 580.081 192.9 582.331 192.94C589.801 193.08 597.26 192.99 604.73 193C607.34 193 607.391 193.05 607.391 195.69C607.391 218.88 607.391 242.07 607.391 265.26V267.79C608.211 267.28 608.36 266.59 608.61 266.01C618.74 242.56 628.88 219.11 638.94 195.63C639.8 193.62 640.91 192.84 643.11 192.96C646.67 193.14 650.261 193.04 653.831 193C655.071 192.98 655.821 193.41 656.331 194.59C663.981 212.24 671.67 229.88 679.35 247.52C683.32 256.63 687.28 265.75 691.24 274.86C692.16 276.97 692.06 277.16 689.82 277.17C684.2 277.19 678.59 277.14 672.97 277.2C671.53 277.22 670.801 276.68 670.281 275.35C668.441 270.67 666.431 266.05 664.591 261.36C664.071 260.03 663.331 259.51 661.901 259.52C652.391 259.57 642.88 259.57 633.37 259.52C631.83 259.52 631.101 260.13 630.581 261.52C628.861 266.11 627.001 270.65 625.271 275.25C624.751 276.64 623.98 277.22 622.44 277.21C612.1 277.15 601.76 277.19 591.42 277.18C588.93 277.18 588.87 277.11 588.87 274.58C588.87 255.15 588.87 235.72 588.87 216.29C588.87 215.54 588.87 214.8 588.87 214.05C588.73 214.02 588.601 213.99 588.461 213.96C587.621 216.31 586.75 218.66 585.94 221.02C579.75 239.03 573.55 257.05 567.41 275.08C566.86 276.69 566.04 277.27 564.37 277.21C561.12 277.1 557.86 277.1 554.61 277.21C552.92 277.27 552.13 276.67 551.61 275.06C546.34 258.95 541 242.87 535.67 226.78C534.41 222.97 533.14 219.16 531.86 215.36C531.75 215.03 531.78 214.58 531.13 214.39C531.13 215.19 531.13 215.93 531.13 216.67C531.13 235.91 531.13 255.15 531.13 274.39C531.13 277.15 531.13 277.15 528.36 277.16C517.96 277.17 507.55 277.14 497.15 277.22C495.5 277.23 494.63 276.72 494.03 275.14C492.28 270.56 490.33 266.05 488.54 261.48C488 260.09 487.23 259.52 485.71 259.52C476.26 259.57 466.82 259.58 457.37 259.52C455.74 259.51 454.98 260.16 454.44 261.6C452.76 266.07 450.9 270.48 449.24 274.96C448.65 276.56 447.83 277.22 446.04 277.22C420.38 277.16 394.72 277.17 369.06 277.22C367.48 277.22 366.64 276.71 366.06 275.23C364.26 270.6 362.3 266.03 360.48 261.41C359.93 260.01 359.1 259.53 357.59 259.54C348.14 259.6 338.7 259.6 329.25 259.54C327.71 259.54 327 260.09 326.47 261.51C324.76 266.11 322.84 270.63 321.13 275.22C320.57 276.72 319.75 277.24 318.16 277.23C307.88 277.17 297.61 277.2 287.33 277.2C284.84 277.2 284.77 277.13 284.77 274.61C284.77 255.18 284.77 235.75 284.77 216.32C284.77 215.57 284.77 214.83 284.77 214.08C284.64 214.05 284.5 214.03 284.37 214C283.2 217.32 282.01 220.63 280.87 223.96C275.07 240.9 269.25 257.83 263.52 274.79C262.91 276.59 262.1 277.35 260.14 277.26C256.96 277.1 253.75 277.12 250.57 277.26C248.75 277.34 248.02 276.62 247.47 274.96C241.05 255.41 234.56 235.88 228.08 216.35C227.87 215.71 227.61 215.08 227.32 214.28C226.83 215.11 227.03 215.81 227.03 216.47C227.02 235.77 227.03 255.08 227.02 274.38C227.02 277.21 227.02 277.22 224.13 277.22C218.83 277.22 213.53 277.2 208.23 277.18V193.08V192.98ZM471.141 217.93C467.871 226.25 464.84 234.01 461.79 241.76C461.33 242.94 461.73 243.41 462.96 243.41C468.5 243.4 474.05 243.39 479.59 243.42C480.9 243.42 481.14 242.96 480.67 241.8C479.77 239.63 478.95 237.42 478.08 235.23C475.84 229.63 473.59 224.03 471.15 217.93H471.141ZM343.21 217.9C339.93 226.32 336.84 234.19 333.82 242.07C333.23 243.61 334.55 243.38 335.36 243.38C339.88 243.41 344.41 243.4 348.93 243.4C351.924 243.4 352.86 241.994 351.74 239.18C348.98 232.28 346.21 225.38 343.22 217.9H343.21ZM647.581 218.34C647.311 218.5 647.221 218.51 647.201 218.56C644.131 226.32 641.07 234.08 637.99 241.84C637.47 243.15 638.1 243.41 639.22 243.41C644.77 243.41 650.33 243.4 655.88 243.41C656.99 243.41 657.411 243.09 656.951 241.93C653.831 234.12 650.741 226.31 647.581 218.34Z" fill="white"/>
<path d="M363.34 178.08C363.35 179.99 363.31 181.89 363.39 183.8C363.45 185.29 362.84 185.82 361.37 185.81C355.64 185.76 349.91 185.79 344.18 185.79C337.94 185.79 331.7 185.74 325.46 185.82C323.65 185.84 322.9 185.25 323.04 183.41C323.17 181.64 323.11 179.85 323.13 178.08H363.34Z" fill="white"/>
<path d="M385.66 290.43C394.6 290.43 401.35 297.24 401.24 306.23C401.11 316.05 393.38 322.18 385.29 321.91C376.38 321.61 369.85 315.2 369.85 306.14C369.85 296.94 376.42 290.42 385.67 290.42L385.66 290.43ZM373.34 306.07C373.3 313.36 378.7 319.09 385.58 319.06C392.36 319.04 397.74 313.3 397.72 306.12C397.7 298.91 392.32 293.21 385.54 293.22C378.72 293.23 373.39 298.85 373.35 306.07H373.34Z" fill="white"/>
<path d="M587.41 306.03C587.41 301.83 587.46 297.62 587.39 293.42C587.36 291.81 587.86 291.1 589.57 291.16C592.37 291.26 595.18 291.2 597.99 291.18C599.09 291.18 600.15 291.38 601.19 291.68C604.67 292.67 606.57 295.11 606.61 298.62C606.66 302.73 605.04 305.25 601.34 306.22C599.53 306.69 599.42 307.21 600.36 308.69C602.44 311.97 604.39 315.33 606.32 318.7C606.7 319.36 607.94 320.31 606.89 320.86C605.93 321.37 604.37 321.54 603.38 320.34C602.94 319.8 602.62 319.17 602.26 318.56C600.31 315.2 598.37 311.83 596.43 308.47C595.63 307.09 592.75 306.31 591.44 307.1C590.69 307.55 590.85 308.32 590.85 308.99C590.83 312.24 590.84 315.48 590.84 318.73C590.84 319.9 590.94 321.06 589.16 321.07C587.42 321.09 587.41 320.02 587.41 318.8C587.42 314.53 587.41 310.27 587.41 306V306.03ZM590.84 298.21C590.84 300.07 590.83 301.34 590.84 302.62C590.84 303.27 590.89 304.05 591.71 304.09C594.82 304.24 597.99 304.59 600.87 302.99C602.52 302.07 603.22 300.57 603.08 298.66C602.94 296.82 602.01 295.58 600.36 294.84C598.94 294.2 597.42 293.97 595.89 293.97C589.92 293.97 590.93 293.29 590.83 298.21H590.84Z" fill="white"/>
<path d="M538.181 321.06C536.921 321.25 536.161 320.7 535.731 319.49C535.211 318.06 534.461 316.7 534.011 315.25C533.501 313.58 532.561 312.96 530.791 313.02C527.221 313.14 523.651 313.11 520.081 313.03C518.631 313 517.851 313.54 517.381 314.88C516.811 316.5 516.111 318.07 515.421 319.65C514.871 320.93 513.151 321.58 511.941 320.99C510.901 320.48 511.611 319.76 511.841 319.22C513.601 315.06 515.401 310.91 517.201 306.77C519.231 302.1 521.311 297.46 523.311 292.77C523.771 291.69 524.361 291.16 525.581 291.16C526.771 291.16 527.421 291.6 527.891 292.7C531.721 301.58 535.571 310.45 539.481 319.3C540.191 320.89 539.661 321.24 538.171 321.06H538.181ZM525.891 295.86C525.711 295.86 525.521 295.88 525.341 295.89C523.511 300.27 521.681 304.65 519.851 309.03C519.551 309.75 519.551 310.29 520.541 310.29C523.911 310.29 527.281 310.29 530.651 310.28C531.401 310.28 531.711 309.9 531.411 309.17C529.571 304.73 527.731 300.29 525.891 295.86Z" fill="white"/>
<path d="M313.581 290.43C316.141 290.29 318.541 291.02 320.561 292.76C321.081 293.21 322.311 293.74 321.161 294.65C320.351 295.29 319.651 296.82 318.191 295.35C315.981 293.12 313.321 292.75 310.421 293.8C308.421 294.53 307.341 296.01 307.111 298.09C306.881 300.17 307.861 301.61 309.621 302.64C311.521 303.74 313.631 304.26 315.671 305C319.301 306.32 322.181 308.33 322.361 312.66C322.541 317.02 319.491 320.79 314.801 321.64C310.811 322.36 307.021 321.79 304.021 318.67C303.491 318.12 302.521 317.5 303.671 316.69C304.551 316.07 305.351 314.73 306.681 316.27C308.781 318.72 311.451 319.58 314.601 318.66C316.981 317.96 318.601 316.14 318.811 313.96C319.011 311.85 317.711 309.79 315.291 308.79C313.231 307.94 311.051 307.38 309.001 306.51C303.381 304.14 301.671 298.04 305.391 293.56C307.461 291.08 310.321 290.3 313.581 290.42V290.43Z" fill="white"/>
<path d="M450.291 306.04C450.291 302.03 450.261 298.02 450.301 294.01C450.311 292.78 449.801 291.16 452.051 291.19C454.171 291.22 453.691 292.75 453.701 293.92C453.731 301.18 453.711 308.44 453.721 315.69C453.721 318.32 453.741 318.33 456.411 318.33C459.471 318.33 462.531 318.33 465.591 318.33C466.601 318.33 467.561 318.35 467.521 319.78C467.481 321.11 466.541 321.07 465.631 321.08C461.171 321.08 456.701 321.04 452.241 321.11C450.691 321.13 450.261 320.44 450.281 319.03C450.321 314.7 450.301 310.37 450.291 306.04Z" fill="white"/>
</svg>
