<svg width="331" height="182" viewBox="0 0 331 182" fill="none" xmlns="http://www.w3.org/2000/svg">
<path d="M207.724 96.1401C208.54 97.1156 209.294 98.022 210.052 98.9283C210.736 99.7437 211.416 100.559 212.1 101.378C212.155 101.444 212.207 101.509 212.262 101.575C212.354 101.68 212.435 101.8 212.358 101.939C212.288 102.062 212.144 102.015 212.034 102.015C210.861 102.015 209.687 102.008 208.514 102.026C208.235 102.03 208.084 101.906 207.93 101.709C206.672 100.1 205.399 98.5024 204.149 96.8863C203.91 96.5769 203.663 96.424 203.259 96.4531C202.751 96.4895 202.24 96.4568 201.729 96.464C201.346 96.4677 201.335 96.475 201.335 96.8681C201.332 98.3823 201.335 99.8966 201.335 101.407C201.335 102.07 201.405 102.019 200.692 102.019C199.772 102.019 198.856 102.022 197.937 102.019C197.547 102.019 197.547 102.008 197.532 101.622C197.532 101.538 197.532 101.454 197.532 101.371C197.532 96.1728 197.532 90.9786 197.532 85.7806C197.532 85.0927 197.474 85.1109 198.187 85.1109C200.552 85.1109 202.913 85.1109 205.278 85.1109C206.377 85.1109 207.451 85.2565 208.448 85.7406C210.497 86.738 211.556 88.3796 211.659 90.6255C211.685 91.2152 211.651 91.8012 211.519 92.38C211.206 93.7632 210.386 94.7605 209.165 95.463C208.728 95.7142 208.261 95.9071 207.724 96.1401ZM201.339 90.7674C201.339 91.4736 201.335 92.1761 201.339 92.8823C201.339 93.2645 201.35 93.2681 201.743 93.2754C202.269 93.2827 202.795 93.279 203.321 93.2754C204.119 93.2754 204.917 93.2936 205.712 93.2536C206.591 93.2062 207.256 92.7731 207.657 91.9905C208.411 90.5308 207.488 88.376 205.487 88.3432C204.233 88.3214 202.976 88.3359 201.721 88.3432C201.346 88.3432 201.339 88.3578 201.335 88.7545C201.328 89.4243 201.335 90.0977 201.335 90.7674H201.339Z" fill="white"/>
<path d="M167.253 88.7979C168.011 89.373 168.776 89.959 169.544 90.5378C169.721 90.6688 169.662 90.7817 169.548 90.9127C169.184 91.3349 168.823 91.7608 168.467 92.1867C168.213 92.4888 168.209 92.4925 168.441 92.8128C169.559 94.3634 169.721 96.0305 169.04 97.7923C168.709 98.6513 168.121 99.3138 167.352 99.8271C167.227 99.9108 167.073 99.9545 166.962 100.14C167.157 100.253 167.352 100.366 167.547 100.482C168.599 101.097 169.324 101.967 169.482 103.183C169.739 105.156 169.118 106.801 167.437 107.981C166.547 108.603 165.539 108.953 164.469 109.116C162.932 109.353 161.413 109.28 159.942 108.767C157.724 107.992 156.749 106.252 156.698 104.119C156.69 103.776 156.709 103.762 157.08 103.758C157.897 103.751 158.713 103.755 159.53 103.758C159.934 103.758 159.942 103.766 160.011 104.162C160.129 104.847 160.453 105.393 161.063 105.753C161.372 105.939 161.711 106.048 162.067 106.102C162.99 106.244 163.903 106.226 164.759 105.811C165.602 105.4 166.039 104.737 165.973 103.784C165.929 103.125 165.62 102.634 165.043 102.317C164.462 102 163.822 101.913 163.171 101.909C162.523 101.906 161.88 101.865 161.247 101.727C158.382 101.108 156.701 99.1791 156.543 96.289C156.444 94.418 156.952 92.7582 158.386 91.4587C159.316 90.6142 160.431 90.141 161.659 89.9263C162.516 89.777 163.384 89.7697 164.248 89.8899C164.726 89.9554 165.19 90.0609 165.602 90.3012C165.837 90.4395 165.958 90.3813 166.102 90.1847C166.352 89.8425 166.613 89.5149 166.878 89.1837C166.981 89.0563 167.054 88.8925 167.249 88.8051L167.253 88.7979ZM163.005 92.8892C161.376 92.8965 160.243 93.7665 159.96 95.2297C159.688 96.6348 160.309 97.9124 161.549 98.4439C162.494 98.8516 163.461 98.8697 164.417 98.4803C165.127 98.1927 165.642 97.694 165.892 96.9733C166.639 94.8111 165.072 92.8201 163.001 92.8892H163.005Z" fill="white"/>
<path d="M175.554 91.3169C175.727 91.3606 175.771 91.2768 175.826 91.2186C176.775 90.2176 177.974 89.8427 179.32 89.8536C179.813 89.8572 180.306 89.8973 180.784 90.021C182.196 90.3887 183.116 91.2768 183.601 92.6236C183.914 93.4863 184.028 94.3854 184.032 95.299C184.035 97.3848 184.032 99.4668 184.032 101.553C184.032 102.011 184.024 102.015 183.55 102.018C182.7 102.018 181.851 102.018 181.001 102.018C180.556 102.018 180.552 102.011 180.552 101.571C180.552 99.6525 180.552 97.7378 180.552 95.8196C180.552 95.5174 180.545 95.2153 180.486 94.9168C180.207 93.4827 179.074 92.7401 177.632 93.0604C176.4 93.3334 175.613 94.3053 175.551 95.6558C175.528 96.1435 175.543 96.6313 175.543 97.119C175.543 98.5969 175.543 100.078 175.543 101.556C175.543 102.011 175.536 102.015 175.109 102.018C174.208 102.022 173.307 102.022 172.406 102.018C172.046 102.018 172.046 102.008 172.031 101.647C172.027 101.545 172.031 101.447 172.031 101.345C172.031 96.1654 172.031 90.9893 172.031 85.8096C172.031 85.744 172.031 85.6749 172.031 85.6094C172.038 85.1252 172.038 85.118 172.505 85.118C173.373 85.1143 174.238 85.1143 175.106 85.118C175.554 85.118 175.562 85.1289 175.562 85.5693C175.562 87.3165 175.562 89.0674 175.562 90.8146C175.562 90.9929 175.562 91.1676 175.562 91.3278L175.554 91.3169Z" fill="white"/>
<path d="M237.278 91.2949C237.355 91.0073 237.381 90.7052 237.392 90.4067C237.399 90.2102 237.458 90.0937 237.686 90.0973C238.605 90.1046 239.521 90.101 240.44 90.0973C240.606 90.0973 240.694 90.1628 240.698 90.3339C240.698 90.4504 240.705 90.5705 240.705 90.687C240.705 94.2688 240.705 97.8505 240.705 101.432C240.705 101.483 240.705 101.534 240.705 101.585C240.694 102.007 240.694 102.015 240.286 102.018C239.503 102.022 238.723 102.022 237.94 102.018C237.539 102.018 237.542 102.007 237.487 101.596C237.45 101.298 237.403 101.003 237.362 100.712C237.303 100.712 237.255 100.704 237.241 100.722C236.196 102.022 234.784 102.473 233.173 102.382C231.32 102.277 229.745 101.589 228.605 100.082C227.914 99.1682 227.568 98.1199 227.443 97.0024C227.278 95.4991 227.458 94.0431 228.227 92.7108C229.157 91.0983 230.606 90.2174 232.434 89.919C233.317 89.7734 234.196 89.7988 235.064 90.0172C235.836 90.2138 236.524 90.5596 237.057 91.1675C237.112 91.2294 237.153 91.3058 237.274 91.3058L237.278 91.2949ZM234.085 99.2046C235.873 99.2046 237.285 97.8724 237.296 96.1725C237.307 94.2469 235.972 92.8856 234.078 92.8892C232.202 92.8892 230.915 94.1632 230.904 96.0269C230.889 97.916 232.18 99.201 234.085 99.2046Z" fill="white"/>
<path d="M259.675 91.3277C259.826 91.3604 259.87 91.2804 259.925 91.2221C260.871 90.2211 262.07 89.8426 263.416 89.8535C264.026 89.8571 264.633 89.9263 265.221 90.1228C266.24 90.4686 266.979 91.1166 267.458 92.063C267.851 92.8419 268.068 93.6755 268.079 94.5382C268.105 96.9078 268.097 99.2774 268.097 101.647C268.097 102 268.086 102.011 267.726 102.011C266.858 102.018 265.994 102.015 265.126 102.011C264.651 102.011 264.648 102.007 264.648 101.542C264.648 99.6269 264.648 97.7086 264.648 95.794C264.648 95.4918 264.644 95.1897 264.578 94.8912C264.273 93.4389 263.118 92.7145 261.658 93.0749C260.47 93.3661 259.742 94.2834 259.639 95.6156C259.62 95.8668 259.62 96.1179 259.62 96.3727C259.62 98.0544 259.62 99.7361 259.62 101.414C259.62 101.531 259.613 101.651 259.62 101.767C259.624 101.938 259.539 102.007 259.374 102.007C258.388 102.007 257.403 102.007 256.417 102.007C256.226 102.007 256.134 101.931 256.141 101.738C256.141 101.622 256.141 101.501 256.141 101.385C256.141 96.1725 256.141 90.9637 256.141 85.7512C256.141 85.7002 256.141 85.6493 256.141 85.5983C256.148 85.1033 256.148 85.0996 256.652 85.096C257.502 85.0924 258.351 85.0924 259.201 85.096C259.642 85.096 259.65 85.1069 259.653 85.551C259.653 87.2982 259.653 89.049 259.653 90.7962C259.653 90.9746 259.668 91.1493 259.675 91.3131V91.3277Z" fill="white"/>
<path d="M216.886 97.3048C216.89 97.738 217.103 98.0765 217.364 98.3859C217.725 98.8082 218.192 99.0884 218.729 99.2304C220.075 99.5798 221.388 99.4852 222.653 98.8919C222.866 98.7936 223.046 98.5279 223.26 98.5716C223.491 98.6225 223.624 98.9028 223.793 99.0884C224.26 99.598 224.723 100.111 225.19 100.625C225.014 100.905 224.76 101.047 224.525 101.207C223.683 101.778 222.734 102.099 221.737 102.266C220.347 102.499 218.957 102.488 217.592 102.091C215.547 101.494 214.175 100.206 213.576 98.1639C213.197 96.879 213.175 95.5795 213.491 94.2763C214.025 92.0741 215.775 90.2614 218.644 89.9156C219.766 89.7809 220.887 89.8319 221.98 90.1595C224.135 90.8038 225.371 92.2416 225.735 94.4256C225.867 95.2264 225.874 96.0308 225.764 96.8389C225.705 97.2575 225.709 97.2612 225.264 97.2612C222.678 97.2612 220.093 97.2612 217.508 97.2612C217.305 97.2612 217.099 97.2357 216.879 97.3048H216.886ZM216.875 94.6367C216.978 94.7532 217.066 94.7386 217.147 94.7423C217.64 94.7423 218.129 94.7423 218.622 94.7423C219.81 94.7423 220.994 94.7423 222.182 94.7423C222.583 94.7423 222.623 94.684 222.498 94.3018C222.333 93.7959 221.98 93.4392 221.505 93.2098C220.549 92.7512 219.552 92.6675 218.541 92.9914C217.702 93.2608 217.147 93.825 216.875 94.6367Z" fill="white"/>
<path d="M137.931 93.5738C137.931 90.9858 137.931 88.3941 137.931 85.806C137.931 85.6896 137.942 85.5694 137.931 85.453C137.905 85.18 138.048 85.1035 138.298 85.1035C139.317 85.1072 140.34 85.1035 141.358 85.1072C141.708 85.1072 141.726 85.1399 141.737 85.4894C141.745 85.675 141.737 85.8606 141.737 86.0426C141.737 89.9447 141.737 93.8431 141.737 97.7452C141.737 97.8617 141.737 97.9818 141.737 98.0983C141.745 98.5715 141.745 98.5751 142.212 98.5788C143.216 98.5788 144.216 98.5788 145.22 98.5788C146.276 98.5788 147.327 98.5788 148.383 98.5788C148.802 98.5788 148.806 98.5861 148.81 98.9974C148.813 99.871 148.813 100.745 148.81 101.622C148.81 102.004 148.799 102.011 148.409 102.015C147.625 102.022 146.846 102.015 146.062 102.015C143.58 102.015 141.097 102.015 138.618 102.015C138.482 102.015 138.346 102.008 138.21 102.015C138.019 102.022 137.927 101.938 137.934 101.746C137.938 101.611 137.934 101.476 137.934 101.342C137.934 98.7535 137.934 96.1618 137.934 93.5738H137.931Z" fill="white"/>
<path d="M194.476 99.0154C194.723 99.8963 194.958 100.752 195.205 101.607C195.271 101.833 195.157 101.913 194.977 101.975C194.201 102.248 193.395 102.361 192.575 102.393C192.064 102.411 191.556 102.375 191.056 102.259C189.692 101.938 188.831 101.087 188.427 99.7761C188.221 99.1137 188.147 98.4257 188.147 97.7341C188.147 96.4055 188.147 95.0769 188.147 93.7483C188.147 93.6318 188.147 93.5117 188.147 93.3952C188.136 92.9912 188.136 92.9875 187.706 92.9839C187.279 92.9766 186.856 92.9839 186.429 92.9839C185.999 92.9766 185.992 92.973 185.988 92.5689C185.984 91.8628 185.996 91.1566 185.984 90.4505C185.981 90.1884 186.076 90.0937 186.338 90.101C186.83 90.1156 187.323 90.0937 187.816 90.1083C188.062 90.1156 188.147 90.0137 188.147 89.7807C188.14 89.0745 188.143 88.3684 188.147 87.6622C188.147 87.2291 188.154 87.2218 188.585 87.1745C189.478 87.0726 190.376 86.9706 191.269 86.8833C191.634 86.8469 191.648 86.8687 191.652 87.2254C191.659 88.0153 191.652 88.8052 191.652 89.5987C191.652 90.101 191.656 90.1047 192.148 90.1083C192.847 90.1083 193.542 90.1083 194.241 90.1083C194.701 90.1083 194.704 90.1156 194.708 90.5415C194.712 91.2294 194.715 91.921 194.708 92.609C194.708 92.9693 194.697 92.9839 194.337 92.9875C193.59 92.9948 192.84 92.9875 192.093 92.9912C191.648 92.9912 191.641 92.9985 191.641 93.4389C191.641 94.8694 191.641 96.2999 191.641 97.7268C191.641 97.8287 191.648 97.927 191.659 98.0289C191.755 98.8589 192.307 99.3175 193.156 99.2702C193.594 99.2447 194.02 99.1282 194.476 99.0263V99.0154Z" fill="white"/>
<path d="M249.625 102.401C248.536 102.423 247.54 102.248 246.583 101.855C244.95 101.181 243.84 100.02 243.318 98.3422C242.906 97.0099 242.869 95.6558 243.233 94.3127C243.729 92.4781 244.884 91.1641 246.646 90.4179C248.385 89.6826 250.173 89.6243 251.971 90.1922C252.648 90.4069 253.203 90.8183 253.722 91.2915C253.902 91.4589 253.891 91.5717 253.729 91.7465C253.225 92.2925 252.74 92.8567 252.243 93.4099C251.997 93.6829 251.993 93.6829 251.662 93.4937C250.78 92.995 249.835 92.8821 248.856 93.1078C247.65 93.3845 246.87 94.127 246.616 95.3282C246.212 97.2574 247.198 98.6515 248.794 99.0374C249.812 99.2813 250.783 99.0956 251.684 98.5569C251.773 98.506 251.857 98.4477 251.935 98.3822C252.049 98.2839 252.14 98.3058 252.24 98.4077C252.865 99.0483 253.487 99.6926 254.119 100.33C254.292 100.501 254.218 100.606 254.075 100.741C253.398 101.378 252.622 101.844 251.729 102.117C251.022 102.332 250.305 102.43 249.621 102.404L249.625 102.401Z" fill="white"/>
<path d="M154.205 96.1035C154.205 97.8689 154.205 99.6343 154.205 101.4C154.205 101.516 154.197 101.636 154.205 101.753C154.216 101.953 154.109 102.015 153.925 102.015C152.94 102.015 151.954 102.015 150.968 102.015C150.766 102.015 150.7 101.913 150.704 101.735C150.704 101.618 150.704 101.498 150.704 101.381C150.704 97.8325 150.704 94.2871 150.704 90.7382C150.704 90.6362 150.711 90.5343 150.704 90.436C150.682 90.1667 150.81 90.0902 151.068 90.0939C151.987 90.1048 152.903 90.0939 153.822 90.1012C154.201 90.1012 154.209 90.1121 154.212 90.5052C154.212 92.3725 154.212 94.2362 154.212 96.1035H154.205Z" fill="white"/>
<path d="M154.441 86.9125C154.441 88.0736 153.639 88.8635 152.455 88.8635C151.274 88.8635 150.465 88.07 150.465 86.9125C150.465 85.7513 151.27 84.9614 152.455 84.9614C153.642 84.9614 154.441 85.744 154.441 86.9125Z" fill="white"/>
<path d="M120.799 115.232L116.857 117.885L115.467 116.997L110.873 114.067L107.232 111.744L102.153 108.505L97.4603 105.513L85.7907 98.0689L81.1052 95.0805L79.1743 93.8465L76.0446 95.8412L72.4146 98.1526L67.8284 101.076L63.0215 104.137L62.8965 98.3856L66.9751 95.8085L72.0431 92.6089L76.2983 89.9262L79.1743 88.1099L81.5943 89.686L85.1066 91.9755L90.2739 95.3426L97.9936 100.373L103.165 103.74L106.673 106.03L111.112 108.92L114.466 111.104L118.81 113.936L120.799 115.232Z" fill="white"/>
<path d="M124.453 82.2167C122.945 78.6823 120.786 75.5155 118.042 72.8001C115.299 70.0846 112.095 67.9479 108.528 66.4555C104.821 64.9049 100.896 64.1187 96.8619 64.1187C92.8274 64.1187 88.9032 64.9049 85.196 66.4555C81.6249 67.9479 78.4253 70.0846 75.6816 72.8001C72.938 75.5155 70.7792 78.6859 69.2713 82.2167C67.7046 85.8859 66.9102 89.7698 66.9102 93.7628C66.9102 94.4472 66.9322 95.1315 66.98 95.8085C67.1014 97.5958 67.3883 99.3539 67.8296 101.076L72.4158 98.1527C72.151 96.7112 72.0186 95.2443 72.0186 93.7592C72.0186 93.3734 72.0259 92.9912 72.0443 92.609C72.1804 89.7006 72.8277 86.8723 73.9752 84.186C75.2256 81.2558 77.0167 78.6277 79.2932 76.3745C81.5698 74.1214 84.2251 72.3523 87.1857 71.1111C90.2567 69.8262 93.5152 69.1746 96.8619 69.1746C100.209 69.1746 103.464 69.8262 106.535 71.1111C109.495 72.3487 112.15 74.1214 114.427 76.3745C116.704 78.6277 118.491 81.2558 119.745 84.186C121.043 87.2254 121.705 90.4468 121.705 93.7592C121.705 97.0716 121.047 100.293 119.745 103.332C118.502 106.244 116.726 108.858 114.467 111.1C114.453 111.115 114.442 111.129 114.427 111.14C113.327 112.229 112.139 113.204 110.874 114.059L115.468 116.99C116.365 116.287 117.222 115.526 118.042 114.718C118.303 114.46 118.561 114.198 118.811 113.928C121.19 111.395 123.088 108.498 124.453 105.302C126.019 101.633 126.814 97.7486 126.814 93.7556C126.814 89.7625 126.019 85.8786 124.453 82.2095V82.2167Z" fill="white"/>
<path d="M116.13 85.6964C115.074 83.2321 113.57 81.019 111.65 79.1226C109.734 77.2261 107.498 75.7337 105.004 74.6891C102.419 73.6043 99.6754 73.0547 96.8545 73.0547C94.0337 73.0547 91.2937 73.6043 88.7046 74.6891C86.2147 75.7337 83.9786 77.2225 82.0625 79.1226C80.1464 81.019 78.6385 83.2321 77.583 85.6964C76.9982 87.0651 76.5679 88.481 76.2921 89.9261C76.053 91.1819 75.9316 92.4632 75.9316 93.7627C75.9316 94.4616 75.9647 95.1531 76.0346 95.8411L79.1644 93.8464L81.0952 95.0804C81.0585 94.6435 81.0401 94.2031 81.0401 93.7627C81.0401 92.3722 81.224 91.0072 81.5844 89.6859C81.7719 89.0015 82.0073 88.3281 82.2868 87.6657C83.0849 85.802 84.2213 84.1312 85.6704 82.6971C87.1194 81.2629 88.8112 80.1345 90.6906 79.3483C92.6435 78.5293 94.714 78.1143 96.8472 78.1143C98.9803 78.1143 101.051 78.5293 103.004 79.3483C104.887 80.1381 106.575 81.2629 108.024 82.6971C109.473 84.1312 110.613 85.8056 111.407 87.6657C112.235 89.5985 112.654 91.6515 112.654 93.759C112.654 95.8666 112.235 97.9196 111.407 99.8524C110.609 101.716 109.473 103.387 108.024 104.821C107.59 105.251 107.138 105.651 106.659 106.026C105.545 106.899 104.32 107.62 103 108.173C102.717 108.294 102.426 108.403 102.139 108.505L107.218 111.744C108.616 110.954 109.914 110.012 111.099 108.92C111.282 108.752 111.463 108.577 111.639 108.403C113.555 106.506 115.063 104.293 116.119 101.829C117.215 99.2664 117.77 96.5546 117.77 93.7627C117.77 90.9708 117.215 88.259 116.119 85.6964H116.13Z" fill="white"/>
<path d="M105.267 85.4417C103.023 83.2213 100.037 81.9946 96.8629 81.9946C93.689 81.9946 90.7026 83.2177 88.4555 85.4417C86.6424 87.2362 85.4876 89.5112 85.1087 91.9755C85.0205 92.5615 84.9727 93.1585 84.9727 93.7627C84.9727 95.2624 85.2522 96.7148 85.7891 98.0688L97.4587 105.513C99.5036 105.414 101.456 104.803 103.163 103.74C103.917 103.274 104.619 102.717 105.263 102.08C107.51 99.8597 108.746 96.904 108.746 93.7627C108.746 90.6214 107.51 87.6657 105.263 85.4417H105.267ZM97.9957 100.373C97.6279 100.435 97.2454 100.468 96.8593 100.468C93.6743 100.468 90.9932 98.28 90.2723 95.3425C90.1473 94.8365 90.0811 94.3051 90.0811 93.7627C90.0811 90.0645 93.119 87.0579 96.8556 87.0579C100.592 87.0579 103.63 90.0645 103.63 93.7627C103.63 97.0788 101.188 99.8379 97.992 100.373H97.9957Z" fill="white"/>
</svg>
