<svg width="270" height="150" viewBox="0 0 270 150" fill="none" xmlns="http://www.w3.org/2000/svg">
<path d="M207.349 73.5648C205.738 73.8408 205.282 73.0548 205.525 71.5998C205.573 71.3148 205.534 71.0149 205.531 70.7209C205.513 67.7329 205.015 67.2169 202.066 67.2259C200.485 67.2289 198.439 66.6918 197.455 67.4718C196.414 68.2938 197.242 70.4328 197.104 71.9898C197.044 72.6588 197.479 73.5948 196.12 73.5378C194.842 73.4838 195.328 72.5748 195.322 72.0108C195.283 67.5498 195.328 63.0859 195.28 58.6219C195.268 57.6439 195.514 57.3019 196.537 57.3409C198.652 57.4189 200.77 57.3379 202.885 57.3739C204.67 57.4039 206.359 57.7008 207.346 59.4618V64.7538C206.878 65.3538 206.524 66.0678 205.351 66.4668C206.698 66.6618 206.896 67.5768 207.346 68.2818V73.5738L207.349 73.5648ZM200.638 65.4498C201.634 65.4498 202.627 65.4708 203.623 65.4438C204.64 65.4168 205.207 64.8378 205.453 63.8748C206.299 60.5449 205.228 59.1318 201.847 59.1288C201.202 59.1288 200.56 59.1288 199.915 59.1288C198.047 59.1288 197.113 60.0769 197.113 61.9729C197.113 64.3249 198.289 65.4838 200.641 65.4498H200.638Z" fill="white"/>
<path d="M96.5313 74.963C96.8703 76.031 97.1283 76.982 97.4763 77.894C97.8033 78.749 98.2293 79.565 98.7363 80.663C96.3663 80.003 94.2843 79.334 92.0883 79.091C87.8013 78.614 85.4103 80.198 84.4293 84.392C84.3003 84.944 84.1593 85.493 83.9823 86.222C82.9053 83.78 81.5103 81.767 79.8663 79.919C77.6583 77.435 75.4893 77.015 72.5073 78.548C71.6373 78.995 70.8303 79.559 69.7833 80.198C70.3353 77.825 70.6803 75.653 70.8273 73.436C71.0973 69.329 68.9643 67.778 65.0823 67.226C64.4613 67.139 63.8163 67.214 62.6523 67.214C64.4763 65.957 65.9043 64.991 67.1553 63.806C71.7723 59.4319 71.9613 56.8399 67.9173 51.8359C68.6943 51.4999 69.3813 51.8539 70.0863 51.9289C72.0783 52.1389 74.0883 52.1809 76.0713 51.9289C79.0623 51.5509 80.7873 49.7179 81.2553 46.6009C81.3843 45.7369 81.4713 44.8669 81.6063 43.7839C83.0883 45.5839 84.4383 47.2459 86.0913 48.6379C89.8443 51.7969 92.3493 51.7219 95.8593 48.2209C96.0993 47.9809 96.2313 47.6359 96.6033 47.4499C96.2223 50.4439 96.8133 53.2579 97.1493 56.3959C94.1013 53.4859 90.6363 51.9499 86.6103 52.1629C82.5423 52.3789 79.1553 54.1249 76.6083 57.3379C72.5613 62.447 72.9873 69.782 77.6133 74.516C81.5853 78.581 89.2113 80.864 96.5283 74.969L96.5313 74.963Z" fill="white"/>
<path d="M120.483 62.2279C120.483 65.4409 120.417 68.6599 120.516 71.8699C120.555 73.1749 120.231 73.7299 118.878 73.5169C118.362 73.4359 117.819 73.4749 117.294 73.5109C116.55 73.5589 116.256 73.2889 116.262 72.5029C116.295 67.8049 116.292 63.1069 116.274 58.4059C116.274 57.6799 116.463 57.2719 117.261 57.3679C117.378 57.3829 117.495 57.3709 117.615 57.3679C121.021 57.2699 123.38 58.8099 124.692 61.9879C125.583 64.1329 126.507 66.2599 127.425 68.3929C127.461 68.4769 127.59 68.5189 127.848 68.7049C127.848 65.3299 127.89 62.0779 127.824 58.8319C127.803 57.7309 128.034 57.1699 129.252 57.3559C129.768 57.4339 130.311 57.4069 130.836 57.3619C131.607 57.2929 131.844 57.6019 131.841 58.3669C131.82 63.0649 131.823 67.7659 131.865 72.4639C131.874 73.3459 131.517 73.6189 130.716 73.5169C130.659 73.5109 130.599 73.5169 130.539 73.5169C127.207 73.6129 124.896 72.1059 123.606 68.9959C122.733 66.8929 121.848 64.7929 120.969 62.6929C120.903 62.5369 120.822 62.3869 120.747 62.2339C120.66 62.2339 120.573 62.2339 120.483 62.2339V62.2279Z" fill="white"/>
<path d="M98.9132 63.7039C98.9132 62.0029 98.9732 60.2959 98.8892 58.5979C98.8382 57.5599 99.2222 57.3469 100.188 57.3439C103.167 57.3319 103.164 57.2869 103.167 60.2569C103.167 62.6059 103.143 64.9519 103.185 67.3009C103.221 69.3589 103.875 69.9349 106.029 69.9619C108.225 69.9889 108.867 69.4969 108.927 67.4029C109.008 64.5889 109.008 61.7689 108.936 58.9519C108.906 57.7789 109.155 57.3019 110.46 57.3319C113.322 57.3979 113.352 57.3229 113.304 60.2359C113.253 63.3439 113.52 66.4579 113.118 69.5569C112.809 71.9269 111.363 73.4119 108.972 73.5589C107.04 73.6759 105.09 73.6819 103.158 73.5499C100.647 73.3759 99.0752 71.6389 98.9432 68.9869C98.8562 67.2319 98.9282 65.4649 98.9282 63.7069C98.9222 63.7069 98.9162 63.7069 98.9102 63.7069L98.9132 63.7039Z" fill="white"/>
<path d="M89.5709 73.6161C88.4339 73.5261 86.9609 73.7931 85.5179 73.3011C84.6299 72.9981 83.8679 72.5481 83.5049 71.7231C83.0729 70.7361 82.5119 69.5721 83.3879 68.6361C83.9639 68.0181 86.8559 68.7711 87.3569 69.4761C88.0589 70.4601 91.1369 70.646 91.8929 69.749C92.6369 68.87 92.0909 67.433 90.8909 67.238C89.2769 66.977 87.6479 66.8151 86.0309 66.5631C84.2639 66.2901 83.4419 65.1411 83.2109 63.4401C83.0489 62.2581 83.0789 61.1001 83.3819 59.9481C83.7449 58.5681 84.6659 57.5421 86.0219 57.4311C88.2989 57.2391 90.6089 57.2991 92.8949 57.4071C93.8189 57.4521 94.7159 57.962 95.2829 58.7691C95.9399 59.702 96.3629 60.7851 95.8889 61.8891C95.6489 62.4471 92.2619 61.9401 91.7759 61.3491C91.1189 60.5541 88.6109 60.2691 87.8759 60.9321C87.4379 61.3281 87.4469 61.8741 87.5429 62.4051C87.6509 63.0141 88.0949 63.2661 88.6649 63.3471C90.1739 63.5631 91.6919 63.7311 93.1919 63.9981C95.9999 64.5021 96.7379 65.8161 96.5039 69.7251C96.3659 71.9961 94.8569 73.493 92.5349 73.6131C91.6559 73.6581 90.7709 73.6191 89.5679 73.6191L89.5709 73.6161Z" fill="white"/>
<path d="M169.614 64.58C169.614 66.518 169.665 68.456 169.593 70.391C169.554 71.423 169.785 71.864 170.937 71.813C173.109 71.72 175.287 71.723 177.459 71.813C178.515 71.858 179.004 71.516 179.355 70.523C180.753 66.56 182.259 62.636 183.675 58.682C184.005 57.764 184.386 57.257 185.505 57.317C186.504 57.374 187.194 57.41 187.599 58.562C189.213 63.131 190.944 67.655 192.621 72.2C192.777 72.626 193.344 73.208 192.525 73.4601C191.937 73.643 191.19 73.667 191.013 72.746C191.001 72.692 190.941 72.644 190.935 72.59C190.545 69.464 188.508 68.927 185.85 69.353C185.679 69.38 185.493 69.38 185.322 69.353C182.703 68.933 180.738 69.461 180.405 72.566C180.327 73.283 179.841 73.5501 179.04 73.535C175.749 73.475 172.458 73.481 169.167 73.529C168.198 73.544 167.829 73.289 167.838 72.257C167.886 67.679 167.868 63.098 167.85 58.52C167.847 57.761 167.976 57.311 168.897 57.338C169.938 57.368 169.59 58.097 169.599 58.589C169.632 60.584 169.614 62.582 169.614 64.577V64.58ZM185.874 59.075C185.727 59.072 185.577 59.069 185.43 59.063C184.419 61.754 183.411 64.448 182.4 67.139C182.178 67.733 182.493 67.838 182.994 67.835C184.752 67.826 186.51 67.823 188.268 67.835C188.769 67.838 189.123 67.691 188.922 67.145C187.926 64.445 186.894 61.76 185.874 59.069V59.075Z" fill="white"/>
<path d="M150.859 64.712C150.931 63.743 150.637 62.147 151.03 60.581C151.552 58.508 152.554 57.512 154.669 57.368C156.658 57.23 158.674 57.23 160.663 57.365C162.895 57.515 164.02 58.637 164.32 60.914C164.713 63.89 164.701 66.893 164.335 69.869C164.044 72.236 162.907 73.364 160.579 73.541C158.65 73.685 156.691 73.688 154.762 73.544C152.311 73.364 151.063 71.975 150.874 69.377C150.775 68.033 150.856 66.677 150.856 64.715L150.859 64.712ZM162.694 65.39C162.64 59.042 161.386 57.98 155.365 58.991C153.595 59.288 152.746 60.248 152.695 61.907C152.623 64.31 152.617 66.716 152.71 69.119C152.77 70.703 153.61 71.672 155.317 71.888C157.027 72.104 158.71 72.107 160.396 71.81C161.713 71.579 162.466 70.817 162.517 69.431C162.565 68.084 162.634 66.737 162.694 65.393V65.39Z" fill="white"/>
<path d="M141.531 73.6009C140.649 73.6009 139.767 73.6399 138.888 73.5949C136.236 73.4569 134.715 71.6149 135.006 68.9989C135.06 68.4979 135.192 68.2099 135.72 68.2669C136.134 68.3119 136.587 68.0719 136.845 68.7589C138.093 72.0739 138.12 72.0649 141.684 72.0709C142.038 72.0709 142.389 72.0859 142.743 72.0679C145.722 71.9179 146.907 70.0819 145.842 67.3069C145.494 66.3979 144.648 66.3949 143.937 66.3079C142.188 66.0979 140.424 66.0349 138.672 65.8489C136.014 65.5669 135.171 64.3129 135.303 60.9529C135.399 58.4869 136.521 57.3559 139.035 57.2989C140.796 57.2599 142.566 57.2389 144.324 57.3499C146.592 57.4909 147.768 58.8799 147.687 61.0309C147.663 61.6819 147.528 61.9909 146.808 61.9669C146.202 61.9459 145.827 61.8889 145.842 61.1269C145.869 59.6959 145.092 59.0629 143.664 58.9789C142.134 58.8859 140.631 58.8559 139.098 59.0329C137.433 59.2249 137.16 60.3049 137.112 61.6249C137.064 63.0049 137.457 64.0699 139.065 64.2139C140.937 64.3789 142.809 64.5199 144.678 64.7209C146.745 64.9429 147.582 65.8009 147.741 67.8649C147.804 68.6779 147.789 69.5089 147.723 70.3219C147.552 72.4369 146.508 73.4509 144.351 73.5799C143.415 73.6369 142.47 73.5889 141.531 73.5889C141.531 73.5919 141.531 73.5979 141.531 73.6009Z" fill="white"/>
<path d="M166.957 79.361C166.411 80.219 167.425 81.665 166.162 81.617C165.16 81.581 165.778 80.174 165.718 79.394C165.673 78.809 165.328 77.987 166.012 77.63C166.543 77.354 167.275 77.33 167.641 78.128C167.872 78.629 167.779 79.325 168.46 79.58C168.544 79.52 168.664 79.472 168.706 79.388C169.006 78.809 168.358 77.621 169.213 77.624C170.338 77.63 169.66 78.818 169.798 79.475C169.882 79.868 169.828 80.294 169.81 80.702C169.789 81.128 170.017 81.716 169.261 81.746C168.688 81.767 168.073 81.89 167.785 81.14C167.563 80.564 167.266 80.018 166.957 79.361Z" fill="white"/>
<path d="M126.513 79.7811C126.732 81.1251 126.282 81.8031 124.764 81.8301C123.159 81.8571 122.823 81.1251 122.838 79.7031C122.856 78.3231 123.135 77.4591 124.737 77.4741C126.375 77.4861 126.687 78.4161 126.51 79.7841L126.513 79.7811ZM125.412 79.5981C125.412 79.0671 125.46 78.5001 124.665 78.5271C123.831 78.5571 124.029 79.1931 124.02 79.6761C124.008 80.1771 123.891 80.8371 124.656 80.8581C125.526 80.8791 125.397 80.1651 125.412 79.6011V79.5981Z" fill="white"/>
<path d="M161.584 79.7419C161.716 81.1309 161.224 81.8449 159.625 81.8239C158.065 81.8029 157.813 81.0589 157.825 79.7389C157.837 78.3859 158.062 77.4649 159.694 77.4559C161.311 77.4469 161.683 78.3529 161.584 79.7419ZM160.447 79.6039C160.312 79.2469 160.609 78.5629 159.76 78.5239C158.965 78.4879 158.968 79.0249 158.983 79.5769C158.998 80.1439 158.845 80.8639 159.724 80.8639C160.492 80.8639 160.366 80.1919 160.444 79.6039H160.447Z" fill="white"/>
<path d="M140.878 77.987C141.508 79.343 141.622 80.462 140.941 81.395C140.407 82.124 139.42 81.761 138.622 81.734C137.881 81.707 137.59 81.149 137.587 80.543C137.584 79.574 137.164 78.479 137.83 77.675C138.223 77.201 138.601 77.687 138.694 78.257C138.838 79.151 138.055 80.597 139.399 80.792C140.812 80.996 139.759 79.196 140.536 78.65C140.656 78.566 140.692 78.362 140.878 77.99V77.987Z" fill="white"/>
<path d="M176.292 80.6271C175.857 80.0661 175.368 80.0181 174.909 79.9911C174.084 79.9371 173.748 79.4781 173.805 78.7281C173.868 77.8881 174.408 77.5011 175.224 77.4831C175.995 77.4651 176.808 77.4111 177.165 78.3051C177.381 78.8451 176.928 78.8571 176.586 78.8451C176.094 78.8301 175.683 78.1821 175.11 78.6981C175.218 79.5051 176.037 79.2351 176.478 79.4241C177.231 79.7481 177.42 80.2041 177.339 80.8881C177.249 81.6321 176.691 81.7851 176.055 81.7911C175.704 81.7941 175.35 81.7971 174.999 81.7791C174.363 81.7491 173.67 81.5391 173.868 80.8131C174.018 80.2611 174.63 80.5851 175.047 80.8011C175.431 80.9991 175.809 80.9871 176.289 80.6301L176.292 80.6271Z" fill="white"/>
<path d="M116.34 78.6171C116.715 79.2771 117.219 79.1721 117.675 79.2051C118.431 79.2591 118.89 79.6311 118.845 80.4261C118.8 81.2031 118.473 81.7791 117.582 81.7761C117.057 81.7761 116.529 81.7461 116.013 81.6741C115.599 81.6171 115.407 81.2751 115.485 80.9031C115.584 80.4111 116.007 80.5131 116.322 80.6331C116.781 80.8071 117.39 81.3111 117.57 80.5521C117.705 79.9851 116.904 80.0301 116.502 80.0001C115.497 79.9311 115.446 79.3071 115.461 78.5361C115.482 77.5761 116.169 77.8281 116.709 77.7891C117.057 77.7651 117.405 77.7351 117.756 77.7081C118.347 77.6601 118.71 78.0861 118.65 78.5181C118.572 79.0941 118.038 78.9051 117.699 78.6921C117.249 78.4131 116.82 78.4671 116.343 78.6111L116.34 78.6171Z" fill="white"/>
<path d="M132.534 81.617C130.92 82.007 130.512 81.467 130.689 80.333C130.716 80.162 130.65 79.967 130.704 79.808C130.95 79.067 130.122 77.687 131.283 77.654C132.285 77.627 131.616 78.977 131.799 79.691C131.907 80.111 131.667 80.648 132.36 80.789C132.813 80.882 133.677 80.528 133.596 81.311C133.512 82.13 132.624 81.584 132.534 81.617Z" fill="white"/>
<path d="M144.904 78.185C145.786 77.636 146.386 77.801 146.947 77.81C147.43 77.819 148.126 77.507 148.357 78.071C148.6 78.668 147.646 78.335 147.577 78.713C147.463 79.334 147.481 79.976 147.418 80.609C147.373 81.077 147.64 81.782 146.755 81.722C146.011 81.671 146.281 81.056 146.248 80.645C146.176 79.703 146.662 78.551 144.904 78.188V78.185Z" fill="white"/>
<path d="M153.763 79.6099C153.4 80.2939 154.225 81.6079 153.16 81.6349C152.041 81.6619 152.623 80.3569 152.629 79.6849C152.635 78.9859 152.086 77.6719 153.1 77.6479C154.234 77.6209 153.373 78.9619 153.763 79.6099Z" fill="white"/>
</svg>
