<svg width="900" height="500" viewBox="0 0 900 500" fill="none" xmlns="http://www.w3.org/2000/svg">
<path d="M531.681 377.27H522.611L517.111 359.93C516.711 358.83 515.561 359.15 514.591 359.14V377.27H505.871V331.59H520.001C521.551 331.59 525.351 333.35 526.621 334.39C531.991 338.74 532.421 349.41 527.991 354.58C527.301 355.38 525.451 356.51 525.421 357.21L531.681 377.28V377.27ZM514.591 351.12C518.741 351.3 521.721 350.84 521.931 346.08C522.181 340.44 519.811 339.61 514.591 339.96V351.12Z" fill="white"/>
<path d="M415.439 330.99C424.169 330.44 428.859 335.51 429.479 343.95C429.919 349.99 430.159 365.95 427.989 371.08C423.779 381.04 407.259 380.17 404.449 368.97C403.049 363.4 402.939 343.21 405.039 338.03C406.869 333.49 410.649 331.29 415.439 330.99ZM415.779 339.33C413.109 339.77 412.639 342.42 412.419 344.71C411.949 349.73 411.999 358.44 412.359 363.51C412.549 366.12 413.059 369.58 416.379 369.6C419.069 369.62 420.409 367.67 420.709 365.2C421.299 360.29 421.159 349.71 420.759 344.65C420.519 341.65 419.409 338.74 415.779 339.33Z" fill="white"/>
<path d="M468.541 377.27L477.221 331.79L487.561 331.57L497.141 377.28H488.421L486.671 367.87L478.971 368.02L477.251 377.28H468.531L468.541 377.27ZM484.941 359.48L482.501 347.28L480.401 359.48H484.941Z" fill="white"/>
<path d="M395.28 343.79L387.12 345.91C386.78 345.86 386 342.75 385.65 342.08C382.47 335.95 375.38 340.94 379.93 346.31C384.48 351.67 394.08 355.08 395.19 363.24C396.72 374.48 387.02 380.32 376.95 376.94C371.15 374.99 368.83 369.31 368.07 363.68L376.43 361.59C377.05 365.42 378.78 370.72 383.71 369.37C386.94 368.48 386.82 364.63 385 362.28C380.69 356.69 372.27 353.84 370.06 346.53C367.02 336.45 375.87 329.06 385.53 331.41C391.3 332.81 394.3 338.32 395.28 343.8V343.79Z" fill="white"/>
<path d="M448.66 331.59V368.9H461.91V377.27H439.93V331.59H448.66Z" fill="white"/>
<path d="M345.571 243.01C345.451 242.98 345.041 242.54 345.051 242.32L384.431 235.99C385.361 224.24 389.861 212.61 396.611 203C424.251 163.65 482.771 163.76 510.351 203.14C517.251 212.99 521.191 224.39 522.691 236.32L561.001 242.31C561.031 242.53 560.541 243 560.481 243H511.641C510.611 241.63 511.271 239.34 511.111 237.6C507.981 202.24 472.891 177.9 438.481 186.96C416.701 192.7 399.011 212.44 396.031 234.84C395.741 237.02 396.001 240.21 395.651 242.13C395.581 242.52 395.471 242.78 395.131 243H345.591L345.571 243.01Z" fill="white"/>
<path d="M480.962 218.03C458.032 192.68 416.322 209.45 416.212 243.01C415.202 242.81 411.692 243.52 411.352 242.44C411.892 227.85 419.502 214.18 432.162 206.82C452.522 194.97 478.812 202.12 490.102 222.68C493.432 228.75 494.942 235.27 495.392 242.17L494.832 242.96L490.682 242.69C490.262 233.6 487.092 224.81 480.972 218.04L480.962 218.03Z" fill="white"/>
<path d="M399.102 183.35C398.072 183.95 396.942 185.08 396.132 185.95C395.112 187.04 392.552 190.46 391.652 191.06C391.292 191.3 390.882 191.59 390.462 191.34L366.342 160.7L398.202 182.03L399.112 183.34L399.102 183.35Z" fill="white"/>
<path d="M542.152 160.71L518.032 191.35C517.622 191.59 517.172 191.31 516.832 191.07C515.952 190.45 513.812 187.37 512.852 186.33C511.902 185.29 510.632 183.84 509.352 183.37L542.142 160.71H542.152Z" fill="white"/>
<path d="M406.801 132.11L427.691 165.13C427.821 165.6 427.451 165.68 427.131 165.87C424.451 167.43 420.351 168.13 417.711 170.07C416.481 170.39 416.251 168.35 415.971 167.41C413.111 157.8 410.521 147.44 408.021 137.7C407.551 135.87 407.021 134 406.811 132.12L406.801 132.11Z" fill="white"/>
<path d="M459.471 161.06H447.781L453.361 122L459.471 161.06Z" fill="white"/>
<path d="M567.612 202.91L532.382 221.39L528.902 210.24L567.612 202.91Z" fill="white"/>
<path d="M491.911 170.12L481.351 165.87L480.781 165.12L501.681 132.11L491.911 170.12Z" fill="white"/>
<path d="M379.571 210.24C378.461 213.67 377.451 217.58 376.121 220.89C375.971 221.26 376.341 221.48 375.581 221.38L340.861 202.9L379.571 210.24Z" fill="white"/>
<path d="M444.291 242.66L453.361 292.18L461.241 243.9C461.201 243.52 461.891 242.65 462.091 242.65H474.651L475.131 243.23L461.261 316.73L445.561 316.9L431.561 243.54C431.541 243.25 431.911 242.66 432.101 242.66H444.311H444.291Z" fill="white"/>
<path d="M558.891 316.94H545.461L544.941 316.42V275.62C544.941 275.3 544.101 273.91 543.741 273.68C541.861 272.46 538.361 274.2 536.911 275.62V316.94H523.481L522.961 316.42V264.46L523.481 263.94H536.911V268.82C543.791 262.29 555.841 259.33 558.811 271.17C558.731 285.24 560.361 301.09 559.261 315.05C559.211 315.72 559.061 316.31 558.891 316.95V316.94Z" fill="white"/>
<path d="M297.611 294.63L310.291 292.56L310.811 293.11C311.121 298.17 311.651 306.68 318.661 306.1C322.801 305.76 323.061 301.24 322.721 297.94C321.421 285.29 298.521 280.44 297.611 262.36C296.861 247.49 307.151 240.74 321.111 242.01C332.131 243.01 336.161 252.7 336.181 262.56L323.631 264.59L323.141 264.05C322.621 260.11 323.111 253.39 317.631 253.14C312.601 252.91 311.731 259.11 312.801 262.88C314.601 269.28 328.531 278.09 333.281 284.95C344.971 301.79 333.861 321.45 312.881 317.55C301.561 315.45 297.701 305.03 297.631 294.62L297.611 294.63Z" fill="white"/>
<path d="M357.95 263.93V304.56C357.95 304.8 358.62 306.49 358.84 306.81C360.32 309.08 364.38 307.5 365.98 305.95V264.45L366.5 263.93H379.76L380.28 264.45V316.06C380.28 316.18 379.82 316.59 379.93 316.93H366.5C365.34 315.76 366.4 313.82 365.8 312.4C361.68 316.12 357.51 318.18 351.83 317.64C348.45 317.32 345.94 314.4 344.87 311.35C344.74 310.98 344 308.21 344 308.04V264.45L344.52 263.93H357.95Z" fill="white"/>
<path d="M425.282 316.94H411.852L411.332 316.42V275.62C411.332 275.52 410.462 274.05 410.272 273.89C408.302 272.21 405.262 274.4 403.302 275.1V316.42L402.782 316.94H389.352V263.93H402.782C403.962 265.21 402.862 267.28 403.482 268.81C408.972 262.94 420.902 259.45 424.412 269.17C424.552 269.57 425.292 271.97 425.292 272.13V316.94H425.282Z" fill="white"/>
<path d="M514.941 291.13H494.531L494.011 291.65V303.16C494.011 303.68 494.791 306 495.211 306.49C497.151 308.76 500.581 307.83 501.521 305.08C501.601 304.84 502.041 302.92 502.041 302.81V296.71H514.951V304.21C514.951 310.87 508.551 316.86 502.181 317.6C489.671 319.06 480.881 314.35 480.051 301.09C479.641 294.57 479.321 277.85 481.641 272.31C485.451 263.19 497.831 261.07 506.221 264.47C511.001 266.4 514.951 272.62 514.951 277.71V291.14L514.941 291.13ZM494.011 284.51H501.511L502.031 283.99V278.76C502.031 278.1 501.331 275.25 500.941 274.62C499.641 272.58 495.641 272.76 494.681 275.24C494.561 275.56 494.011 277.86 494.011 278.06V284.51Z" fill="white"/>
<path d="M589.942 316.94L588.892 310.66C587.162 313.09 585.102 316.66 581.932 317.47C574.102 319.46 567.252 314.15 566.582 306.29C565.402 292.66 577.242 287.91 587.872 283.92C587.502 281.02 589.292 273.65 584.872 273.35C579.872 273.02 581.382 281.33 580.552 281.9L567.952 281.55C566.882 275.93 569.682 268.6 574.712 265.59C584.632 259.67 601.342 263.26 601.482 276.98C601.672 290.04 600.812 303.16 602.452 316.14L601.992 316.93H589.952L589.942 316.94ZM587.852 291.13C583.452 293.01 579.432 297.01 579.452 302.11C579.452 305.16 581.132 308.8 584.732 307.7C585.262 307.54 587.852 305.57 587.852 305.25V291.13Z" fill="white"/>
</svg>
