<svg width="270" height="150" viewBox="0 0 270 150" fill="none" xmlns="http://www.w3.org/2000/svg">
<path d="M58.851 73.7779H57.162C57.069 73.2739 57 72.5269 56.964 71.2459C56.04 73.2529 54.318 74.0329 51.813 74.0329C47.226 74.0329 45 70.1029 45 65.0839C45 60.0649 47.643 55.9729 52.554 55.9729C56.277 55.9729 58.374 57.9709 58.893 61.0579H56.745C56.22 59.1559 55.032 57.8179 52.455 57.8179C48.831 57.8179 47.259 61.0369 47.259 65.0929C47.259 68.8579 48.732 72.1969 52.194 72.1969C55.956 72.1969 56.703 69.5899 56.703 66.3499V66.2419H52.152V64.3159H58.851V73.7809V73.7779Z" fill="white"/>
<path d="M61.8876 65.7861V73.7751H59.7246V56.2131H65.9406C69.0426 56.2131 71.2206 57.7521 71.2206 60.7401C71.2206 63.2781 69.7116 64.4061 68.3376 64.8441C70.1736 65.4321 70.9566 66.8781 70.9566 69.2691V69.5871C70.9566 71.2131 70.9926 72.7431 71.2026 73.7751H69.0486C68.8116 73.0701 68.7516 71.4441 68.7516 69.6081V69.2571C68.7516 66.7671 67.8516 65.7861 64.9596 65.7861H61.8936H61.8876ZM61.8876 63.9831H65.1276C67.4196 63.9831 68.9976 63.3291 68.9976 60.8661C68.9976 58.9851 67.7376 58.0161 65.6436 58.0161H61.8876V63.9801V63.9831Z" fill="white"/>
<path d="M81.8661 65.5041H73.9671V71.9211H82.6521L82.3581 73.7781H71.8281V56.2161H82.2351V58.0821H73.9671V63.6231H81.8661V65.5041Z" fill="white"/>
<path d="M92.4989 65.5041H84.5999V71.9211H93.2849L92.9909 73.7781H82.4609V56.2161H92.8679V58.0821H84.5999V63.6231H92.4989V65.5041Z" fill="white"/>
<path d="M93.0938 73.7781V56.2161H95.9827C102.991 68.6811 103.936 70.3641 104.257 71.1381H104.29C104.128 68.8011 104.104 65.9691 104.104 63.1191V56.2161H106.168V73.7781H103.489C95.9947 60.2751 95.4397 59.1711 95.0648 58.4361H95.0407C95.1667 60.7071 95.1428 63.6501 95.1428 66.8031V73.7781H93.0938Z" fill="white"/>
<path d="M110.545 56.2131H112.72V71.9181H121.171L120.862 73.7751H110.545V56.2131Z" fill="white"/>
<path d="M122.739 56.2131V73.7751H120.564V56.2131H122.739Z" fill="white"/>
<path d="M137.04 73.7779H135.351C135.258 73.2739 135.189 72.5269 135.153 71.2459C134.229 73.2529 132.507 74.0329 130.002 74.0329C125.415 74.0329 123.189 70.1029 123.189 65.0839C123.189 60.0649 125.832 55.9729 130.743 55.9729C134.466 55.9729 136.563 57.9709 137.085 61.0579H134.937C134.412 59.1559 133.224 57.8179 130.647 57.8179C127.026 57.8179 125.451 61.0369 125.451 65.0929C125.451 68.8579 126.924 72.1969 130.386 72.1969C134.148 72.1969 134.895 69.5899 134.895 66.3499V66.2419H130.344V64.3159H137.043V73.7809L137.04 73.7779Z" fill="white"/>
<path d="M137.91 56.2131H140.085V63.6021H148.287V56.2131H150.477V73.7751H148.287V65.4831H140.085V73.7751H137.91V56.2131Z" fill="white"/>
<path d="M154.998 58.0971H149.859V56.2161H162.351V58.0971H157.197V73.7781H154.998V58.0971Z" fill="white"/>
<path d="M166.32 68.8189C166.665 71.0989 168.204 72.1969 170.289 72.1969C172.374 72.1969 173.784 71.1199 173.784 69.1639C173.784 67.2079 172.866 66.3949 169.785 65.4379C166.107 64.3189 164.703 63.0979 164.703 60.5779C164.703 57.7879 166.809 55.9849 170.073 55.9849C173.853 55.9849 175.461 58.2139 175.65 60.6919H173.487C173.217 58.8979 172.191 57.7579 170.016 57.7579C167.958 57.7579 166.935 58.7629 166.935 60.3769C166.935 61.9909 167.85 62.6749 170.667 63.5269C174.996 64.8409 176.043 66.4999 176.043 68.9179C176.043 71.8399 174.021 73.9699 170.193 73.9699C166.365 73.9699 164.4 72.0139 164.148 68.8159H166.32V68.8189Z" fill="white"/>
<path d="M190.107 64.886C190.107 69.929 187.764 74.03 182.619 74.03C177.765 74.03 175.32 70.163 175.32 64.901C175.32 60.302 177.708 55.97 182.823 55.97C187.665 55.97 190.104 59.825 190.104 64.886H190.107ZM177.591 64.862C177.591 68.984 179.259 72.197 182.739 72.197C186.219 72.197 187.878 69.032 187.878 64.904C187.878 60.776 186.303 57.806 182.742 57.806C179.181 57.806 177.588 60.974 177.588 64.862H177.591Z" fill="white"/>
<path d="M190.562 56.2131H192.737V71.9181H201.188L200.879 73.7751H190.562V56.2131Z" fill="white"/>
<path d="M203.498 68.4321L201.788 73.7781H199.607C200.84 70.1151 203.942 60.3711 205.322 56.2161H208.082L214.046 73.7781H211.709L209.945 68.4321H203.495H203.498ZM209.426 66.5511C207.941 62.0301 206.999 59.4141 206.657 58.0131H206.615C206.126 60.0861 205.214 62.7891 203.999 66.5511H209.426Z" fill="white"/>
<path d="M215.667 65.7861V73.7751H213.504V56.2131H219.72C222.822 56.2131 225 57.7521 225 60.7401C225 63.2781 223.491 64.4061 222.117 64.8441C223.953 65.4321 224.736 66.8781 224.736 69.2691V69.5871C224.736 71.2131 224.772 72.7431 224.982 73.7751H222.828C222.591 73.0701 222.531 71.4441 222.531 69.6081V69.2571C222.531 66.7671 221.631 65.7861 218.739 65.7861H215.673H215.667ZM215.667 63.9831H218.907C221.199 63.9831 222.777 63.3291 222.777 60.8661C222.777 58.9851 221.517 58.0161 219.423 58.0161H215.667V63.9801V63.9831Z" fill="white"/>
</svg>
