<svg width="271" height="149" viewBox="0 0 271 149" fill="none" xmlns="http://www.w3.org/2000/svg">
<path d="M173.296 85.7354C169.899 85.1841 169.959 80.7737 170.239 78.0888C170.526 75.3472 171.573 74.2356 174.362 73.9763C177.647 73.6724 185.9 73.6039 189.053 74.0747C191.655 74.4651 192.058 76.2799 192.203 78.6132L188.074 78.6401L187.879 77.5494H174.554V81.8197H188.779C188.893 81.8197 190.673 82.4425 190.896 82.5736C193.019 83.8103 192.808 89.7793 192.1 91.8683C191.471 93.7278 189.881 94.136 188.071 94.291C184.729 94.583 175.786 94.7052 172.657 94.1927C169.731 93.7099 169.414 91.5315 169.508 88.9389L173.245 88.9866C174.033 89.2548 173.747 90.3663 173.829 90.3663H188.234V85.7384C183.72 85.2169 177.599 86.4387 173.29 85.7384L173.296 85.7354Z" fill="white"/>
<path d="M119.638 85.7355C116.494 85.1187 116.635 79.844 116.967 77.4034C117.316 74.8436 118.59 74.191 121.062 73.9764C124.133 73.7112 132.938 73.5711 135.756 74.0748C138.27 74.5247 138.535 76.4677 138.9 78.6163L134.774 78.6431L134.579 77.5524H121.255V81.8228H135.479C135.777 81.8228 137.713 82.5886 138.017 82.8717C139.237 84.0131 139.255 91.3081 138.496 92.6372C137.831 93.8054 136.042 94.1838 134.771 94.2941C131.435 94.5861 122.483 94.7083 119.358 94.1928C116.446 93.713 115.994 91.5435 116.208 88.939H120.174V90.3635H134.937V85.7355H119.632H119.638Z" fill="white"/>
<path d="M98.2114 87.8691V73.9883H102.532V94.2761L98.9461 94.0854L82.3669 80.3953V94.2761H78.4043V73.9883L81.0902 74.0062L98.2114 87.8691Z" fill="white"/>
<path d="M151.149 53.1672C150.628 49.5405 146.988 44.8142 143.835 42.9547C131.324 35.5703 117.045 46.3996 119.816 60.1076L117.816 59.4192L117.663 57.2557L96.4102 56.3677L117.503 55.1459L118.37 50.5179L110.457 46.5843L119.219 48.7389L121.953 44.3166L109.734 30.9245L123.287 42.9964L127.334 40.3174L124.501 31.6337L128.864 39.4204L134.425 38.4162L134.946 22.9142L135.66 17.3953L136.383 38.7499L141.068 39.3072L145.383 31.2761L142.908 39.9568L147.37 42.9279L161.408 30.2033L162.67 29.497L149.041 44.3166L151.679 48.2442L160.508 45.5145L152.408 50.1186L153.609 55.9415L151.146 58.3255C150.984 56.7044 151.372 54.7317 151.146 53.1642L151.149 53.1672Z" fill="white"/>
<path d="M126.842 66.16C126.507 66.1421 124.725 65.1498 124.502 66.157C127.829 66.9855 130.889 68.0851 134.421 67.954C143.876 67.5994 152.641 60.1881 157.453 52.6338C157.386 54.6334 155.664 57.2617 154.544 59.017C148.778 68.0404 139.708 72.4389 128.805 70.2754C122.656 69.0566 117.089 65.0336 114.424 59.4014C122.93 64.7117 135.101 54.9493 141.792 64.5598C141.798 64.8458 137.058 66.166 136.568 66.166C133.394 66.166 129.982 66.3388 126.845 66.166L126.842 66.16Z" fill="white"/>
<path d="M156.91 73.9883H151.869V94.2761H156.91V73.9883Z" fill="white"/>
<path d="M109.25 81.5696C112.357 81.4087 112.917 85.9621 110.259 86.4449C105.896 87.2376 105.92 81.7424 109.25 81.5696Z" fill="white"/>
<path d="M163.266 81.5695C166.244 81.4145 166.702 85.7385 164.582 86.3762C160.078 87.7321 159.74 81.7543 163.266 81.5695Z" fill="white"/>
<path d="M145.262 81.5696C148.752 81.3878 149.032 87.2852 144.5 86.4448C142.134 86.0068 142.344 81.7215 145.262 81.5696Z" fill="white"/>
<path d="M174.193 56.1979C174.277 56.8177 173.377 56.5316 172.937 56.5495C171.137 56.621 169.315 56.4631 167.517 56.5346C166.665 56.5674 165.879 56.8892 165.027 56.919C162.591 57.0055 159.929 56.5495 157.635 57.2588L158.231 55.4678L174.193 56.1949V56.1979Z" fill="white"/>
<path d="M134.944 51.564L134.785 54.7914C134.324 55.444 132.177 55.0119 131.34 55.1251V51.561H134.944V51.564Z" fill="white"/>
<path d="M139.626 51.564C139.948 54.6691 139.572 56.0071 136.181 54.7913L136.021 51.564H139.626Z" fill="white"/>
<path d="M139.626 56.1919V59.753L136.073 59.3448C136.009 58.6117 135.781 56.7462 136.359 56.3469L139.626 56.189V56.1919Z" fill="white"/>
<path d="M134.944 46.936H131.34V50.1425H134.944V46.936Z" fill="white"/>
<path d="M139.626 46.936H136.021V50.1425H139.626V46.936Z" fill="white"/>
<path d="M129.902 51.564H126.656V55.128H129.902V51.564Z" fill="white"/>
<path d="M144.308 51.564H141.062V55.128H144.308V51.564Z" fill="white"/>
<path d="M144.308 56.1919H141.062V59.756H144.308V56.1919Z" fill="white"/>
<path d="M134.944 59.0408L131.68 58.8858L131.34 56.1919L134.607 56.3498L134.944 59.0408Z" fill="white"/>
<path d="M129.902 56.1919V59.0408L126.662 59.3954L126.656 56.1919H129.902Z" fill="white"/>
<path d="M125.222 55.1279H121.982C121.473 54.675 124.71 52.0436 125.044 51.5698L125.225 55.1279H125.222Z" fill="white"/>
<path d="M148.984 55.125H145.744L145.75 51.5669C146.259 51.853 149.445 54.7197 148.987 55.125H148.984Z" fill="white"/>
<path d="M125.221 56.1919L125.04 59.75C124.706 59.2762 121.469 56.6419 121.978 56.1949H125.218L125.221 56.1919Z" fill="white"/>
<path d="M134.94 42.314C134.85 43.0858 135.241 44.9215 134.606 45.3596L131.342 45.5115C131.631 45.0079 134.534 41.8581 134.94 42.314Z" fill="white"/>
<path d="M139.261 45.5146H136.021L136.024 42.3141C136.407 41.8879 139.692 45.1361 139.261 45.5146Z" fill="white"/>
<path d="M129.904 50.1454L126.664 49.9666L129.898 46.939L129.904 50.1454Z" fill="white"/>
<path d="M144.305 50.1395L141.062 50.1454L141.069 46.939L144.305 50.1395Z" fill="white"/>
<path d="M148.987 56.1979L145.75 59.3954L145.744 56.1919L148.987 56.1979Z" fill="white"/>
</svg>
