<svg width="269" height="149" viewBox="0 0 269 149" fill="none" xmlns="http://www.w3.org/2000/svg">
<path d="M189.303 53.9122C190.23 54.085 191.147 54.2727 192.023 54.6363C193.218 55.134 194.27 55.8432 195.221 56.7104C195.442 56.913 195.478 57.065 195.239 57.2885C194.677 57.816 194.13 58.3613 193.586 58.9066C193.38 59.1123 193.221 59.1361 192.988 58.9186C191.625 57.6491 189.984 57.0233 188.131 56.9667C183.794 56.8355 180.785 60.2953 180.432 63.5405C180.019 67.3341 182.222 70.1383 184.709 71.2677C187.133 72.3703 189.539 72.2272 191.861 70.8922C192.133 70.7343 192.253 70.5435 192.25 70.2217C192.232 68.979 192.232 67.7334 192.25 66.4907C192.256 66.1272 192.142 66.005 191.769 66.008C190.277 66.0259 188.786 66.002 187.297 66.0229C186.882 66.0288 186.756 65.8828 186.768 65.4895C186.789 64.7772 186.78 64.065 186.774 63.3528C186.774 63.0608 186.873 62.9267 187.193 62.9296C189.781 62.9386 192.37 62.9386 194.955 62.9296C195.284 62.9296 195.4 63.0429 195.4 63.3677C195.391 66.1629 195.394 68.9582 195.4 71.7534C195.4 71.9829 195.32 72.1527 195.152 72.3047C193.278 74.0123 191.084 74.9599 188.532 75.0702C186.281 75.1685 184.153 74.7513 182.264 73.4937C179.23 71.4733 177.497 68.7079 177.27 65.0127C176.932 59.452 180.997 55.2234 185.157 54.2012C185.633 54.085 186.12 54.0045 186.601 53.9092C187.501 53.9092 188.4 53.9092 189.303 53.9092V53.9122Z" fill="white"/>
<path d="M53.4883 54.4993C57.7206 54.4993 61.9528 54.4993 66.1821 54.5023C66.6125 54.5023 66.8277 54.7208 66.8277 55.1579C66.8277 56.192 66.8128 57.226 66.8337 58.2601C66.8426 58.6624 66.7022 58.7905 66.2987 58.7875C63.6415 58.7756 60.9844 58.7816 58.3273 58.7816C57.9248 58.7816 57.7225 58.9832 57.7205 59.3865C57.7205 60.1971 57.7205 61.0076 57.7205 61.8182C57.7205 62.3427 57.7474 62.3695 58.2675 62.3695C60.3059 62.3695 62.3444 62.3695 64.3828 62.3695C64.9686 62.3695 64.9776 62.3814 64.9806 62.9476C64.9806 63.9817 64.9626 65.0157 64.9895 66.0498C65.0015 66.4789 64.8431 66.5981 64.4276 66.5951C62.3892 66.5773 60.3508 66.5862 58.3124 66.5892C57.7385 66.5892 57.7235 66.6041 57.7235 67.1822C57.7235 69.4172 57.7235 71.6522 57.7235 73.8872C57.7235 74.4385 57.7056 74.4564 57.1586 74.4564C55.9362 74.4564 54.7137 74.4564 53.4883 74.4564V54.4963V54.4993Z" fill="white"/>
<path d="M94.0049 53.9122C94.4472 53.9867 94.8896 54.0493 95.329 54.1357C99.6509 54.985 103.097 58.6802 103.647 63.034C103.719 63.6061 103.707 64.1753 103.719 64.7475C103.728 65.0753 103.608 65.2362 103.255 65.2332C102.102 65.2243 100.948 65.2273 99.7943 65.2332C99.4984 65.2332 99.4088 65.12 99.4387 64.822C99.7495 61.4427 96.8084 58.2749 93.3951 58.1766C90.3106 58.0872 87.9763 60.0719 87.1424 62.3545C86.8644 63.1174 86.7837 63.9071 86.8286 64.7058C86.8525 65.1081 86.709 65.2481 86.3025 65.2422C85.2056 65.2243 84.1087 65.2273 83.0117 65.2422C82.6531 65.2481 82.5216 65.12 82.5096 64.7564C82.3333 59.4043 86.2607 54.7556 91.6078 54.0046C91.814 53.9748 92.0322 54.0195 92.2265 53.9062C92.8183 53.9062 93.4071 53.9062 93.9989 53.9062L94.0049 53.9122Z" fill="white"/>
<path d="M125.165 60.8436V61.3383C125.165 65.5043 125.165 69.6673 125.165 73.8334C125.165 74.2685 124.95 74.487 124.522 74.489C123.82 74.489 123.114 74.48 122.412 74.489C122.125 74.492 121.993 74.3817 122.011 74.0956C122.017 73.9973 122.011 73.8989 122.011 73.8036C122.011 67.5843 122.011 61.3651 122.011 55.1458C122.011 54.4783 122.023 54.5588 122.678 54.4604C123.93 54.2727 124.674 54.8001 125.41 55.7865C128.327 59.6903 131.343 63.5226 134.32 67.3787C134.43 67.5217 134.547 67.6588 134.681 67.8287C134.798 67.6499 134.753 67.483 134.753 67.328C134.756 63.2603 134.753 59.1956 134.753 55.1279C134.753 54.6929 134.968 54.4743 135.399 54.4723C136.059 54.4723 136.723 54.4932 137.38 54.4664C137.79 54.4485 137.912 54.6005 137.912 54.9968C137.9 57.8606 137.906 60.7274 137.906 63.5911C137.906 67.0151 137.906 70.4392 137.906 73.8632C137.906 74.483 137.894 74.4115 137.273 74.5009C136.191 74.6559 135.557 74.1999 134.917 73.3536C131.806 69.2263 128.623 65.1556 125.464 61.0641C125.398 60.9777 125.323 60.8942 125.251 60.8108C125.218 60.8197 125.189 60.8317 125.156 60.8406L125.165 60.8436Z" fill="white"/>
<path d="M159.058 64.4821C159.058 61.3502 159.058 58.2212 159.058 55.0892C159.058 54.6799 159.269 54.4753 159.691 54.4753C162.068 54.4753 164.447 54.4693 166.823 54.4753C170.912 54.4902 174.268 57.8457 174.31 61.9104C174.337 64.5596 173.264 66.6397 171.157 68.2131C170.888 68.4157 170.891 68.5647 171.025 68.83C171.91 70.5613 172.783 72.3017 173.656 74.039C173.865 74.4532 173.844 74.483 173.393 74.483C172.535 74.486 171.677 74.4711 170.819 74.489C170.505 74.4949 170.338 74.3757 170.2 74.1046C169.519 72.7248 168.817 71.354 168.135 69.9743C168.01 69.718 167.86 69.5839 167.552 69.6107C165.953 69.7508 164.348 69.6495 162.746 69.6763C162.223 69.6852 162.202 69.7001 162.199 70.2246C162.199 71.4673 162.187 72.7129 162.205 73.9556C162.211 74.3459 162.095 74.5068 161.676 74.489C160.974 74.4592 160.268 74.4592 159.566 74.489C159.148 74.5068 159.046 74.343 159.049 73.9556C159.061 70.7968 159.055 67.638 159.055 64.4792L159.058 64.4821ZM162.199 62.0713C162.199 63.4004 162.208 64.7265 162.193 66.0556C162.187 66.434 162.31 66.5681 162.701 66.5622C164.022 66.5413 165.346 66.5592 166.668 66.5532C169.193 66.5413 171.154 64.5864 171.16 62.0773C171.166 59.5622 169.265 57.6371 166.733 57.6073C165.397 57.5924 164.061 57.6162 162.725 57.5954C162.319 57.5894 162.187 57.7324 162.193 58.1288C162.211 59.443 162.199 60.7571 162.199 62.0713Z" fill="white"/>
<path d="M105.63 64.4972C105.63 61.3533 105.63 58.2065 105.63 55.0626C105.63 54.4785 105.63 54.4755 106.21 54.4755C110.119 54.4755 114.032 54.4815 117.941 54.4666C118.369 54.4666 118.515 54.5947 118.497 55.0178C118.47 55.6883 118.491 56.3588 118.488 57.0293C118.488 57.5657 118.455 57.6015 117.914 57.6015C115.102 57.6015 112.286 57.6015 109.474 57.6015C109.01 57.6015 108.777 57.831 108.777 58.2899C108.777 59.6726 108.789 61.0583 108.771 62.441C108.765 62.8225 108.885 62.9476 109.277 62.9446C111.345 62.9268 113.413 62.9357 115.481 62.9387C116.04 62.9387 116.049 62.9476 116.049 63.4989C116.049 64.1426 116.049 64.7863 116.049 65.427C116.049 66.014 116.043 66.017 115.47 66.017C113.416 66.017 111.363 66.026 109.309 66.0111C108.915 66.0081 108.765 66.1124 108.771 66.5266C108.792 67.951 108.777 69.3785 108.78 70.8029C108.78 71.3453 108.792 71.3542 109.36 71.3542C112.188 71.3542 115.015 71.3542 117.843 71.3542C118.473 71.3542 118.488 71.3721 118.491 71.98C118.491 72.6654 118.482 73.3508 118.494 74.0332C118.5 74.3431 118.405 74.4862 118.061 74.4862C114.065 74.4772 110.072 74.4772 106.075 74.4862C105.666 74.4862 105.624 74.2925 105.627 73.9677C105.633 70.8089 105.63 67.6501 105.63 64.4913V64.4972Z" fill="white"/>
<path d="M142.678 64.4405C142.678 61.3234 142.678 58.2064 142.678 55.0893C142.678 54.4754 142.678 54.4724 143.27 54.4724C147.152 54.4724 151.035 54.4724 154.917 54.4724C155.482 54.4724 155.482 54.4724 155.485 55.0267C155.485 55.7121 155.464 56.3975 155.494 57.0799C155.512 57.4941 155.354 57.6074 154.959 57.6044C152.105 57.5925 149.247 57.5984 146.393 57.5984C145.984 57.5984 145.78 57.7961 145.78 58.1915C145.78 59.6159 145.792 61.0433 145.771 62.4678C145.765 62.8403 145.888 62.9446 146.255 62.9416C148.351 62.9267 150.446 62.9416 152.544 62.9267C152.963 62.9237 153.127 63.0399 153.109 63.469C153.082 64.1515 153.088 64.8398 153.109 65.5223C153.121 65.9067 152.971 66.0259 152.589 66.0229C150.494 66.008 148.398 66.0229 146.3 66.008C145.897 66.005 145.768 66.1153 145.774 66.5265C145.798 67.9659 145.798 69.4052 145.774 70.8445C145.768 71.2617 145.921 71.3631 146.312 71.3601C149.167 71.3482 152.024 71.3541 154.878 71.3541C155.491 71.3541 155.491 71.3541 155.491 71.9561C155.491 72.6266 155.47 73.3001 155.5 73.9676C155.518 74.3758 155.375 74.4921 154.971 74.4891C151.384 74.4772 147.798 74.4831 144.211 74.4831C143.873 74.4831 143.533 74.4593 143.198 74.4891C142.779 74.5248 142.675 74.3461 142.681 73.9557C142.696 72.0962 142.687 70.2366 142.687 68.3801C142.687 67.0659 142.687 65.7517 142.687 64.4375L142.678 64.4405Z" fill="white"/>
<path d="M69.7834 64.4643C69.7834 61.3621 69.7834 58.2599 69.7834 55.1577C69.7834 54.517 69.7983 54.5051 70.4499 54.5051C71.4632 54.5051 72.4764 54.5051 73.4866 54.5051C74.0844 54.5051 74.0874 54.5081 74.0874 55.122C74.0874 59.9168 74.0874 64.7087 74.0874 69.5035C74.0874 69.9545 74.3086 70.1799 74.7509 70.1799C77.157 70.1799 79.5601 70.1799 81.9661 70.1799C82.522 70.1799 82.534 70.1948 82.537 70.7432C82.537 71.8189 82.528 72.8947 82.543 73.9705C82.549 74.3281 82.4294 74.4652 82.0588 74.4652C78.1344 74.4562 74.2099 74.4562 70.2855 74.4652C69.8521 74.4652 69.7744 74.2655 69.7774 73.896C69.7864 70.7521 69.7834 67.6082 69.7804 64.4613L69.7834 64.4643Z" fill="white"/>
<path d="M206.597 63.7969C207.132 62.8731 207.664 61.9583 208.196 61.0404C209.395 58.9693 210.596 56.9012 211.786 54.8271C211.926 54.5798 212.094 54.4666 212.387 54.4725C213.301 54.4874 214.216 54.4725 215.127 54.4785C215.57 54.4785 215.594 54.5321 215.361 54.9314C213.711 57.7743 212.058 60.6173 210.405 63.4602C209.724 64.6343 209.048 65.8114 208.358 66.9796C208.196 67.2537 208.127 67.5368 208.127 67.8527C208.136 69.8791 208.133 71.9055 208.13 73.9289C208.13 74.4743 208.116 74.4862 207.56 74.4862C206.884 74.4862 206.209 74.4862 205.536 74.4862C204.986 74.4862 204.983 74.4832 204.983 73.914C204.983 71.9025 204.98 69.891 204.986 67.8795C204.986 67.5636 204.92 67.2865 204.759 67.0094C202.446 63.046 200.144 59.0766 197.84 55.1102C197.481 54.4934 197.49 54.4785 198.207 54.4785C198.981 54.4785 199.756 54.5053 200.527 54.4666C200.972 54.4457 201.205 54.6156 201.417 54.9881C203.028 57.7893 204.657 60.5815 206.28 63.3738C206.364 63.5138 206.412 63.6837 206.6 63.7999L206.597 63.7969Z" fill="white"/>
<path d="M93.0377 65.1467C91.9826 65.1467 90.9275 65.1348 89.8724 65.1527C89.457 65.1586 89.3404 64.9858 89.3524 64.5984C89.4122 62.8462 91.0411 61.2995 92.8045 61.1863C94.7772 61.0582 96.4032 62.575 96.6602 64.1335C96.6692 64.1872 96.6841 64.2438 96.6931 64.2974C96.8007 65.0603 96.726 65.1437 95.9488 65.1437C94.9775 65.1437 94.0091 65.1437 93.0377 65.1437V65.1467Z" fill="white"/>
<path d="M93.0784 69.0982C96.0583 69.0982 99.0383 69.0982 102.018 69.0982C102.227 69.0982 102.44 69.1191 102.646 69.1519C102.78 69.1728 102.87 69.2712 102.855 69.4203C102.843 69.5694 102.744 69.6439 102.607 69.6618C102.496 69.6767 102.383 69.6767 102.269 69.6767C97.2509 69.6737 92.2326 69.6886 87.2142 69.6528C86.1053 69.6439 84.9965 69.62 83.8846 69.6021C83.6843 69.5992 83.4004 69.6499 83.4004 69.3457C83.4004 69.0416 83.6813 69.0863 83.8816 69.0863C86.9452 69.0833 90.0118 69.0863 93.0754 69.0863V69.0982H93.0784Z" fill="white"/>
<path d="M93.0164 70.7671C95.5869 70.7671 98.1603 70.7671 100.731 70.77C100.997 70.77 101.391 70.6865 101.397 71.0801C101.406 71.5036 100.997 71.435 100.719 71.432C95.563 71.3515 90.4071 71.3694 85.2513 71.3604C85.1258 71.3604 84.9972 71.3545 84.8777 71.3187C84.7312 71.277 84.6446 71.1607 84.6625 70.9996C84.6804 70.8535 84.785 70.782 84.9225 70.77C85.063 70.7581 85.2035 70.7551 85.344 70.7551C87.9024 70.7551 90.4579 70.7551 93.0164 70.7551V70.7671Z" fill="white"/>
<path d="M93.1772 68.0794C89.9851 68.0794 86.7929 68.0794 83.6038 68.0794C83.4484 68.0794 83.293 68.0824 83.1405 68.0675C82.9851 68.0526 82.8088 68.0287 82.8028 67.826C82.7998 67.6173 82.9731 67.5994 83.1316 67.5874C83.2152 67.5815 83.2989 67.5815 83.3856 67.5815C87.0679 67.5815 90.7532 67.5367 94.4355 67.6053C97.275 67.659 100.114 67.6202 102.954 67.656C103.026 67.656 103.094 67.656 103.166 67.659C103.322 67.6709 103.507 67.6769 103.498 67.8886C103.489 68.0705 103.322 68.0794 103.178 68.0854C103.053 68.0914 102.924 68.0884 102.798 68.0884C99.5944 68.0884 96.3873 68.0884 93.1832 68.0884V68.0735L93.1772 68.0794Z" fill="white"/>
<path d="M93.0731 66.8307C89.7704 66.8307 86.4647 66.8307 83.162 66.8247C82.9647 66.8247 82.624 66.944 82.627 66.616C82.63 66.3476 82.9558 66.4192 83.15 66.4192C89.7854 66.4162 96.4207 66.4162 103.056 66.4192C103.25 66.4192 103.567 66.3387 103.573 66.6189C103.579 66.9112 103.256 66.8247 103.065 66.8247C99.7324 66.8307 96.3998 66.8277 93.0702 66.8277L93.0731 66.8307Z" fill="white"/>
<path d="M93.1175 73.0383C91.2913 73.0383 89.4621 73.0383 87.6359 73.0383C87.4954 73.0383 87.355 73.0383 87.2145 73.0293C86.9903 73.0084 86.8379 72.8981 86.8379 72.6626C86.8379 72.4419 86.9933 72.3286 87.1906 72.3167C87.5403 72.2928 87.896 72.269 88.2427 72.2958C89.6893 72.4091 91.1359 72.3405 92.5825 72.3524C94.606 72.3703 96.6295 72.3584 98.653 72.3614C98.7516 72.3614 98.8502 72.3614 98.9489 72.3614C99.1999 72.3644 99.4689 72.3882 99.463 72.7132C99.457 73.0383 99.182 73.0472 98.9339 73.0472C96.9941 73.0472 95.0544 73.0472 93.1146 73.0472V73.0413L93.1175 73.0383Z" fill="white"/>
<path d="M93.1416 74.8024C92.2868 74.8024 91.4289 74.8024 90.5741 74.8024C90.4605 74.8024 90.35 74.8024 90.2364 74.7964C89.9823 74.7845 89.791 74.6831 89.797 74.3998C89.803 74.1434 89.9823 74.045 90.2214 74.0301C90.2902 74.0271 90.3619 74.0271 90.4307 74.0271C92.2389 74.0271 94.0502 74.0271 95.8585 74.0301C95.9272 74.0301 95.999 74.0301 96.0677 74.0331C96.3307 74.039 96.5071 74.1643 96.5101 74.4326C96.5101 74.695 96.3218 74.7845 96.0856 74.7964C95.9751 74.8024 95.8615 74.8024 95.7479 74.8024C94.8781 74.8024 94.0084 74.8024 93.1386 74.8024H93.1416Z" fill="white"/>
</svg>
