<svg width="900" height="500" viewBox="0 0 900 500" fill="none" xmlns="http://www.w3.org/2000/svg">
<path d="M687.27 214.16V275.49C683.04 275.12 678 275.98 673.86 275.49C672.59 275.34 671.89 274.58 671.9 273.29C671.14 259.23 672.95 244.05 671.92 230.13C671.42 223.33 667.2 216.41 659.82 215.97C649.88 215.37 646.54 222.89 645.36 231.43L645.23 274.7L643.95 275.5C639.75 275.11 634.76 275.98 630.66 275.5C629.45 275.36 628.95 274.8 628.96 273.56C628.23 259.83 629.97 245.04 628.98 231.44C628.36 222.86 624.11 215.39 614.52 215.98C606.36 216.48 602.84 224.23 602.42 231.44C601.62 245.2 603.03 259.72 602.44 273.56C602.48 274.99 601.78 275.36 600.48 275.5C596.58 275.91 591.84 275.31 587.87 275.37L587.02 274.4C586.74 255.38 586.58 236.23 587.12 217.2C589.3 198.2 616.72 194.71 630.42 201.96C632.59 203.11 634.22 205.36 636.02 206.5C638.04 207.78 639.87 204.9 641.49 203.68C649.39 197.69 663.15 197.76 672.37 200.34C678 201.92 682.82 206.04 685.4 211.23C685.91 212.26 685.92 213.96 687.26 214.18L687.27 214.16Z" fill="white"/>
<path d="M687.271 287.18V289.52C686.441 289.34 685.82 290.04 685.06 290.05C684.22 290.06 679.87 287.94 680.01 290.43C680.12 292.44 683.07 292.02 684.41 292.51C685.37 292.86 686.101 294.02 687.271 293.94V299.92C685.541 300.73 684.761 301.55 682.711 301.73C680.661 301.92 673.64 301.56 675.7 298.11C677.13 295.71 678.1 297.86 679.19 298.24C680.54 298.71 684.55 298.85 683.49 296.54C682.76 294.95 677.8 295.91 676.23 293.14C674.14 289.48 677.37 285.84 681.14 285.61C682.2 285.55 683.72 285.61 684.72 285.95C685.72 286.29 686.21 287.18 687.26 287.18H687.271Z" fill="white"/>
<path d="M483.49 198.64C486.26 198.27 492.82 198.29 495.64 198.57C496.31 198.64 497.59 198.82 497.8 199.53L497.84 249.39C497.88 254.88 501.25 258.73 506.82 259.13C520.13 258.36 534.51 260.12 547.69 259.13C552.63 258.76 555.86 256.23 556.41 251.2L556.45 199.53C556.76 198.87 557.4 198.64 558.08 198.56C560.94 198.23 568.76 198.23 571.62 198.56C572.61 198.67 573.42 199.12 573.32 200.24V262.37C572.16 269.75 567.35 274.94 559.65 275.49H494.58C487.61 274.94 482.18 269.5 481.44 262.63V199.98C481.41 198.82 482.59 198.76 483.48 198.64H483.49Z" fill="white"/>
<path d="M418.691 198.63C421.011 198.2 429.361 198.31 431.891 198.57C432.671 198.65 433.761 198.76 433.991 199.59C434.361 215.92 433.891 232.27 434.121 248.6C434.171 252.19 433.721 255.36 437.311 257.6C442.191 260.65 458.371 258.5 464.951 259.1C467.551 259.33 466.621 260.69 466.621 262.35C466.621 265.47 466.571 268.61 466.621 271.73C466.641 273.18 467.431 274.26 465.851 275.35L431.151 275.45C423.861 274.74 418.351 269.39 417.451 262.11C417.251 241.93 417.741 221.72 417.471 201.54C417.451 200.19 416.571 199.02 418.691 198.62V198.63Z" fill="white"/>
<path d="M388.511 198.63C390.491 198.28 399.951 198.27 401.961 198.58C404.591 198.99 403.431 201.67 403.391 203.36C402.871 226.61 403.631 250.06 403.691 273.28C403.691 274.24 403.201 275.19 402.231 275.48H388.461C387.661 275.38 387.131 274.85 387.031 274.04L387.251 199.19C387.461 198.91 388.151 198.69 388.511 198.63Z" fill="white"/>
<path d="M282.61 179.65C284.8 179.19 287.3 181.81 289.1 182.92C294.3 186.13 299.53 189.32 304.77 192.47L305.53 193.29C305.67 193.81 304.45 196.51 304.13 197.26C303.04 199.8 301.62 202.25 300.44 204.74C299.57 206.58 296.18 215.23 294.71 215.66C292.58 215.73 290.54 214.8 288.45 214.48C285.28 214 281.32 213.95 278.14 214.44C276.44 214.7 272.76 216.31 271.37 215.43C271.15 215.29 269.37 212.03 269.09 211.47C266.27 205.93 263.98 199.74 261.18 194.15C260.85 193.31 261.26 192.95 261.87 192.47L282.6 179.65H282.61Z" fill="white"/>
<path d="M293.811 284.37C294.031 284.35 294.241 284.28 294.461 284.37C295.981 284.77 299.581 293.96 300.451 295.82C301.691 298.47 303.331 301.11 304.401 303.82C304.751 304.71 305.691 306.57 305.051 307.32C304.921 307.48 302.681 308.97 302.281 309.23C297.981 311.96 293.451 314.45 289.101 317.12C284.961 319.65 284.491 322.1 279.471 318.84C274.241 315.45 268.881 312.3 263.601 308.96C259.671 306.48 261.051 306.44 262.511 303.03C264.381 298.67 266.341 294.24 268.401 289.94C268.741 289.23 270.921 284.85 271.221 284.71C272.571 284.07 277.741 285.73 279.681 285.88C282.451 286.08 286.501 286 289.241 285.56C290.671 285.33 292.441 284.52 293.801 284.37H293.811Z" fill="white"/>
<path d="M259.2 194.47L267.28 216.82L266.53 218.17C260.97 221.18 256.47 225.34 252.91 230.55C251.93 231.98 251.62 234.54 249.3 233.85C244.28 232.26 239.43 230.15 234.54 228.33C233.59 227.98 227.89 226.39 227.65 226.11C227.32 225.73 227.24 224.75 227.31 224.23C227.64 221.82 228.95 218.51 229.52 216.03C230.08 213.61 230.45 211.11 231.02 208.69C231.38 207.15 232.46 201.52 233.09 200.63C233.67 199.82 236.28 199.18 237.35 198.91C244.13 197.19 251.04 195.86 257.86 194.17L259.19 194.48L259.2 194.47Z" fill="white"/>
<path d="M316.181 266.17C317.051 266.02 317.511 266.6 318.261 266.85C322.941 268.38 327.421 270.16 331.981 271.86C333.971 272.6 336.301 273.23 338.361 273.81C340.311 274.79 338.051 279.55 337.661 281.15C336.331 286.61 335.601 293.21 333.871 298.42C332.901 301.34 328.981 301 326.441 301.65C320.971 303.06 315.181 305.05 309.551 305.84C306.401 306.28 306.871 304.68 306.111 302.64C304.941 299.49 303.961 296.32 302.841 293.17C301.961 290.69 299.841 286.77 299.391 284.4C298.861 281.58 302.051 280.88 303.991 279.5C307.631 276.91 311.381 273.06 313.861 269.35C314.481 268.42 314.811 266.42 316.171 266.18L316.181 266.17Z" fill="white"/>
<path d="M308.101 194.46C308.521 194.37 308.901 194.38 309.321 194.42C314.221 194.96 320.571 197.11 325.441 198.34C327.201 198.79 332.461 199.37 333.541 200.65C333.991 201.18 335.341 207.68 335.641 208.95C336.411 212.29 336.951 215.72 337.751 219.05C338.161 220.74 340.201 224.96 338.641 226.26L316.171 234.12L315.191 233.52C313.001 229.05 309.241 224.6 305.291 221.58C303.871 220.5 299.301 218.41 299.311 216.63C299.311 215.46 300.861 212.59 301.321 211.34C303.211 206.16 304.941 200.92 306.741 195.7C306.961 195.1 307.471 194.6 308.101 194.46Z" fill="white"/>
<path d="M249.3 266.19C249.89 266.07 250.57 266 251.08 266.37C251.37 266.58 253.14 270.03 253.68 270.79C255.28 273.07 258.16 276.2 260.32 277.93C262.04 279.3 264.61 280.45 266.16 281.72C267.03 282.43 267.24 283.3 267.01 284.39C266.66 286.05 265.13 288.62 264.54 290.24C263.16 294.04 262.16 298.26 260.68 301.98C260.3 302.93 259.25 305.74 258.33 305.89L244.15 302.91C241.03 301.32 237.15 301.47 234.01 300.3C233.15 299.98 232.8 299.23 232.53 298.4C231.23 294.52 230.66 289.41 229.73 285.34C229.22 283.1 226.99 276.63 227.27 274.84C227.32 274.5 227.47 273.97 227.78 273.78L234.54 271.7C238.55 269.6 243.2 268.37 247.55 267.02C248.14 266.84 248.71 266.29 249.3 266.17V266.19Z" fill="white"/>
<path d="M339.081 227.98C339.401 227.95 339.591 227.93 339.921 228.03C340.501 228.21 342.911 231.99 343.461 232.83C345.711 236.28 347.901 239.88 350.071 243.38C350.881 244.69 353.041 247.86 353.501 249.05C353.871 250.01 353.791 250.88 353.241 251.76C349.801 256.79 346.891 262.2 343.571 267.31C342.891 268.35 341.261 271.15 340.551 271.83C339.721 272.63 338.081 272.12 337.131 271.65C336.511 271.34 336.101 270.7 335.341 270.32C332.901 269.13 330.001 268.15 327.521 266.96C324.211 265.38 320.901 263.65 317.671 261.98C317.211 261.04 318.281 259.21 318.511 258.13C319.441 253.74 319.451 246.56 318.511 242.17C318.181 240.66 316.521 238.59 318.521 237.61C324.341 234.81 330.421 232.41 336.201 229.54C337.251 229.02 337.461 228.12 339.091 227.98H339.081Z" fill="white"/>
<path d="M212.73 251.8V248.23L214 247.55C217.95 241.68 221.34 234.24 225.59 228.72C226.57 227.44 227.89 227.84 229.18 228.48C230.13 228.95 230.78 229.44 231.87 229.96C237.16 232.49 242.44 235.05 247.8 237.44C248.82 238 248.66 238.97 248.57 239.98C248.15 244.75 246.93 247.91 247.29 253.27C247.38 254.67 248.95 261.21 248.74 261.69C248.22 262.87 244.48 263.9 243.22 264.51C239.12 266.51 234.94 268.35 230.85 270.34C229.24 271.12 227.69 273.23 225.7 271.45C223.21 267.8 221.14 263.89 218.79 260.16C217.37 257.9 215.49 254.46 214.01 252.47C213.66 252 213.28 251.88 212.74 251.79L212.73 251.8Z" fill="white"/>
<path d="M502.201 220.19L516.581 220.27L517.381 221.55C517.011 226.59 517.821 232.2 517.381 237.17C517.331 237.75 517.321 238.3 516.851 238.72L502.701 239.02C501.781 238.83 501.351 238.65 501.221 237.69C500.561 232.85 501.751 226.55 501.221 221.55L502.201 220.19Z" fill="white"/>
<path d="M537.731 220.46C538.131 220.17 538.611 220.17 539.091 220.13C542.321 219.87 548.401 219.84 551.601 220.13C553.081 220.26 553.411 220.58 553.551 222.08C554.011 227.1 553.301 233 553.401 238.07L552.121 238.87C547.841 238.54 543.031 239.26 538.821 238.87C538.381 238.83 537.961 238.89 537.641 238.49L537.731 220.47V220.46Z" fill="white"/>
<path d="M502.73 198.63C505.92 198.73 509.11 198.89 512.31 198.84C514.33 198.81 517.11 197.53 517.38 200.5C517.84 205.51 517.12 211.42 517.23 216.49L515.95 217.29C511.81 216.86 506.67 217.82 502.65 217.29C501.84 217.18 501.27 216.72 501.22 215.86C501.74 210.94 500.58 204.75 501.22 199.98C501.35 198.99 501.8 198.85 502.72 198.63H502.73Z" fill="white"/>
<path d="M538.631 198.62C542.001 198.74 545.361 198.9 548.731 198.84C550.511 198.81 552.941 197.71 553.541 200.24C553.181 205.11 553.981 210.54 553.541 215.34C553.411 216.81 553.091 217.15 551.591 217.29C548.721 217.55 541.311 217.65 538.561 217.29C537.701 217.18 537.501 216.97 537.391 216.12C536.751 211.25 537.901 205 537.391 199.98C537.371 199.22 537.961 198.82 538.631 198.62Z" fill="white"/>
<path d="M520.681 220.19L533.761 220.27L534.561 221.55C534.161 226.64 535.051 232.42 534.561 237.43C534.471 238.4 534.441 238.72 533.391 238.86C530.831 239.19 524.071 239.1 521.401 238.86C520.931 238.82 520.111 238.77 519.851 238.33C519.731 238.13 519.481 234.46 519.451 233.79C519.311 230.69 519.061 224.71 519.451 221.81C519.561 221.02 520.031 220.59 520.691 220.19H520.681Z" fill="white"/>
<path d="M521.211 198.62C523.961 198.8 526.721 198.88 529.481 198.83C531.111 198.8 533.051 197.93 534.411 199.33C534.411 201.42 534.921 216.24 534.281 216.88C534.021 217.15 533.481 217.23 533.111 217.27C530.361 217.57 524.171 217.53 521.381 217.27C519.901 217.13 519.571 216.81 519.431 215.32C519.111 211.88 519.051 203.86 519.431 200.49C519.561 199.35 520.071 198.82 521.191 198.61L521.211 198.62Z" fill="white"/>
<path d="M502.461 241.5C506.541 241.75 511.441 240.98 515.421 241.44C516.621 241.58 517.231 242.19 517.371 243.39C517.631 245.66 517.671 252.62 517.371 254.84C517.241 255.84 516.641 256.15 515.671 256.26C513.911 256.46 507.111 256.44 505.721 255.79C502.791 254.41 501.441 251.73 501.211 248.6C501.101 247.06 500.751 241.99 502.441 241.5H502.461Z" fill="white"/>
<path d="M538.63 241.5C542.71 241.74 547.6 240.98 551.59 241.44C552.99 241.6 553.39 242.34 553.54 243.65C554.05 248.23 553.46 253.66 548.78 255.79C547.33 256.45 540.63 256.46 538.83 256.26C537.95 256.16 537.5 256.04 537.39 255.1C537.1 252.62 537.11 245.62 537.39 243.13C537.49 242.29 537.74 241.72 538.62 241.5H538.63Z" fill="white"/>
<path d="M521.201 241.5C524.801 241.76 529.391 240.97 532.871 241.43C533.591 241.53 533.831 241.82 534.301 242.34V255.87C533.941 256.14 533.551 256.21 533.121 256.26C530.431 256.55 524.391 256.52 521.651 256.26C520.601 256.16 519.861 256 519.701 254.83C519.431 252.85 519.431 245.07 519.731 243.14C519.861 242.32 520.411 241.72 521.201 241.49V241.5Z" fill="white"/>
<path d="M421.04 301.41C420.38 302.04 417.32 302.1 416.41 301.87C413.7 301.17 412.16 293.81 408.99 292.89C408.53 292.89 408.42 293.16 408.35 293.54C408.15 294.63 408.32 296.98 408.34 298.23C408.35 298.86 408.65 299.44 408.63 300.03C408.55 302.05 404.99 303.2 404.7 300.05C404.4 296.81 404.43 290.55 404.7 287.29C404.74 286.82 404.74 286.34 405.03 285.93C405.54 285.42 409.64 285.47 410.32 285.85C410.77 286.11 412.07 288.06 412.47 288.64C413.35 289.92 415.05 293.53 415.89 294.32C416.09 294.51 416.26 294.7 416.57 294.71C416.88 294.74 417.13 294.65 417.36 294.46C418.36 293.65 417.18 287.8 417.85 286.38C418.32 285.4 420.49 285.34 421.12 286.23L421.04 301.39V301.41Z" fill="white"/>
<path d="M656.34 292.4C655.91 292.69 656.03 297.81 656.04 298.75C656.05 299.73 656.64 300.21 655.91 301.2C654.91 302.56 652.61 301.99 652.49 300.26C652.79 296.47 652.67 292.65 652.68 288.85C652.68 287.81 652.03 286.39 653.45 285.75C654.31 285.36 657.43 285.53 658.27 286.13L663.85 294.33C664.33 294.92 665 294.91 665.16 294.06C665.52 292.03 664.69 288.41 665.22 286.58C665.62 285.18 668.83 284.84 669.08 287.55C669.35 290.46 669.4 297.19 669.08 300.04C668.9 301.57 668.02 301.9 666.61 301.99C663.39 302.21 662.69 300.76 661.05 298.43C659.76 296.6 658.63 294.57 657.5 292.62C657.28 292.34 656.58 292.23 656.35 292.39L656.34 292.4Z" fill="white"/>
<path d="M446.261 285.67C447.471 285.4 453.421 285.46 454.731 285.67C456.821 286.02 459.071 289.02 458.771 291.13C458.681 291.74 458.211 292.58 457.891 293.13C456.911 294.78 455.361 295 456.161 297.24C456.551 298.33 460.331 302.49 456.111 301.98C453.141 301.63 452.321 295.62 450.341 295.49C446.751 295.27 450.851 302.27 446.721 302C445.391 301.91 445.121 301.25 445.011 300.05C444.751 297.22 444.651 289.74 445.011 287.03C445.111 286.28 445.481 285.84 446.251 285.67H446.261ZM449.911 289.31C449.041 289.5 448.831 290.15 448.701 290.96C448.801 292.73 454.511 292.51 454.891 291.15C455.531 288.86 451.241 289.02 449.911 289.31Z" fill="white"/>
<path d="M635.43 285.69C639.26 285.13 642.22 286.07 644.73 289C646.99 291.64 647.34 294.17 645.68 297.23C640.83 306.16 625.64 300.89 628.59 291.6C629.36 289.19 632.95 286.05 635.42 285.69H635.43ZM637.01 289.06C632.36 289.32 630.65 295.12 634.59 297.84C636.15 298.91 638.95 298.83 640.45 297.71C644.99 294.35 642.1 288.77 637.01 289.06Z" fill="white"/>
<path d="M545.931 285.69C549.141 285.28 551.661 285.94 554.061 288.08C556.011 289.82 556.631 292.32 556.401 294.86C555.511 304.58 537.311 304.5 538.701 292.25C539.061 289.07 542.951 286.08 545.931 285.7V285.69ZM547.471 289.1C544.221 289.15 541.381 292.41 542.921 295.58C544.981 299.83 550.561 299.53 552.561 295.41C554.131 292.17 550.731 289.04 547.481 289.09L547.471 289.1Z" fill="white"/>
<path d="M472.82 285.69C474.26 285.51 480.22 285.16 480.65 286.84C480.71 287.73 479.89 288.49 479.2 288.95C476.14 288.7 471.53 287.98 469.98 291.42C468.37 294.98 470.6 298.25 474.35 298.58C475.82 298.71 478.41 298.89 478.1 296.68C477.89 295.16 475.88 295.79 475.26 294.82C474.53 293.68 475.01 292.28 476.39 292.1C477.84 291.91 481.24 291.68 481.49 293.53C481.63 294.56 481.59 297.39 481.41 298.42C481.14 300.04 479.81 301.22 478.2 301.45C473.4 302.12 465.71 301.5 465.09 295.36C464.85 293.02 465.19 290.34 466.9 288.6C467.96 287.51 471.32 285.89 472.84 285.7L472.82 285.69Z" fill="white"/>
<path d="M397.031 292.12C397.981 292.32 398.391 293.5 398.011 294.39C396.861 297.03 390.581 293.73 390.741 297.14C390.881 300.34 398.221 297 398.721 299.53C399.101 301.44 398.191 301.85 396.521 302C395.061 302.13 389.031 302.17 387.981 301.67C387.701 301.53 387.461 301.34 387.251 301.1L387.061 286.84C387.231 286.11 387.731 285.75 388.451 285.63C389.751 285.42 396.551 285.41 397.741 285.67C399.771 286.12 398.731 289.25 397.541 289.25H391.561C390.691 289.25 390.691 292.11 391.561 292.11C392.961 292.11 395.861 291.86 397.021 292.11L397.031 292.12Z" fill="white"/>
<path d="M428.57 285.67C429.85 285.38 436.16 285.44 437.63 285.61C439.31 285.81 439.84 287.33 438.8 288.61C437.51 290.2 432.18 288.31 431.23 289.88C428.61 294.25 439.67 289.78 438.22 294.52C437.53 296.78 430.45 293.9 430.79 297.13C431.07 299.77 436.94 297.97 438.53 298.72C439.51 299.19 439.54 300.97 438.52 301.57C437.54 302.14 430.97 302.13 429.56 301.97C428.88 301.89 427.76 301.61 427.37 301.03C426.87 300.28 427.35 299.76 427.36 298.99C427.39 295.52 427.36 292.04 427.36 288.57C427.36 287.35 426.62 286.09 428.57 285.65V285.67Z" fill="white"/>
<path d="M581.56 285.68C582.6 285.44 583.71 285.53 584.18 286.59C584.69 289.58 583.66 294.07 584.29 296.87C584.82 299.25 589.93 299.09 590.42 296.87C590.96 294.45 589.83 288.17 590.61 286.41C591.1 285.29 593.48 285.28 593.98 286.41C593.9 289.96 594.56 294.5 594.09 297.95C593.52 302.16 588.78 302.31 585.4 302C582.05 301.69 580.54 300.33 580.42 296.89C580.34 294.37 580.63 291.49 580.59 288.87C580.57 287.73 579.71 286.12 581.54 285.69L581.56 285.68Z" fill="white"/>
<path d="M525.11 285.69C528.25 285.23 534.87 286.57 530.45 290.27C528.73 289.75 527.23 288.93 525.34 289.3C524.69 289.52 524.76 291.46 525.16 291.74C525.59 292.04 528.36 292.21 529.43 292.67C534.73 294.94 533.25 301.2 527.63 301.73C525.78 301.9 518.85 301.65 520.35 298.36C521.37 296.13 523.65 298.24 525.02 298.36C526.11 298.46 529.47 298.4 528.3 296.65C526.97 294.65 523.46 296.17 521.41 293.39C519.15 290.32 521.6 286.19 525.1 285.68L525.11 285.69Z" fill="white"/>
<path d="M488.411 285.67C488.941 285.51 490.841 285.53 491.341 285.75C492.651 286.34 494.671 291.12 496.171 291.07C496.911 291.05 499.291 286.23 500.461 285.75C501.631 285.27 504.731 285.4 503.541 287.27C502.281 289.44 498.361 293.59 498.111 295.88C497.981 297.06 498.501 300.89 497.701 301.45C497.421 301.65 495.271 301.99 494.911 301.94C492.691 301.63 493.721 298.55 493.701 297.17C493.661 294.39 491.951 292.27 490.411 290.06C489.931 289.38 487.611 286.8 487.731 286.32C487.801 286.05 488.141 285.75 488.411 285.67Z" fill="white"/>
<path d="M601.08 285.67C603.2 285.93 610.78 285.01 612.19 285.9C613.25 286.57 612.96 288.43 611.97 289.01C610.9 289.63 608.9 288.73 608.29 290.28C607.68 293.35 608.72 297.64 608.17 300.55C607.84 302.31 604.96 302.47 604.58 300.49C604.44 299.76 604.8 299.18 604.81 298.48C604.84 296.45 605.09 291.64 604.48 289.95C603.96 288.5 601.52 289.89 600.52 288.71C599.81 287.89 599.93 285.99 601.09 285.66L601.08 285.67Z" fill="white"/>
<path d="M563.351 285.67C564.171 285.43 565.951 285.62 566.241 286.58L566.421 297.84C567.241 299.19 572.281 297.85 574.101 298.75C574.911 299.15 574.771 301.19 574.101 301.6C573.071 302.23 564.671 302.14 563.371 301.67C563.111 301.58 562.921 301.46 562.791 301.21V286.13C562.921 285.91 563.111 285.74 563.361 285.67H563.351Z" fill="white"/>
<path d="M619.55 285.68C620.76 285.33 622.32 285.68 622.5 287.04C623.05 291.09 622.07 296.37 622.48 300.56C621.85 302.47 618.84 302.43 618.57 300.32C618.05 296.3 619 291.19 618.57 287.04C618.55 286.5 619.04 285.83 619.55 285.68Z" fill="white"/>
</svg>
