<svg width="269" height="149" viewBox="0 0 269 149" fill="none" xmlns="http://www.w3.org/2000/svg">
<path d="M212.881 54.824C212.549 55.4259 212.199 56.019 211.888 56.6328C209.697 60.9509 207.51 65.2719 205.34 69.5988C205.154 69.9683 204.933 70.0548 204.536 70.1203C203.319 70.32 202.736 69.8074 202.213 68.7197C200.04 64.205 197.754 59.7469 195.512 55.265C195.431 55.1011 195.357 54.9342 195.246 54.6929C195.748 54.6929 196.185 54.6452 196.6 54.7137C196.779 54.7435 196.968 54.9849 197.066 55.1756C199.293 59.5801 201.505 63.9934 203.723 68.4009C203.812 68.5797 203.914 68.7555 204.051 69.0058C204.183 68.7704 204.287 68.6065 204.377 68.4307C206.565 64.068 208.762 59.7112 210.929 55.3365C211.168 54.8508 211.419 54.5886 211.984 54.6809C212.28 54.7286 212.585 54.7018 212.887 54.7078V54.821L212.881 54.824Z" fill="white"/>
<path d="M79.7825 61.0431C80.6134 61.0431 81.3487 61.0312 82.081 61.0461C82.7565 61.061 83.154 61.3679 83.2347 61.9013C83.3333 62.542 82.9149 63.0397 82.2424 63.0516C81.4533 63.0635 80.6613 63.0516 79.8333 63.0516V65.0631C80.6045 65.0631 81.3875 65.0542 82.1736 65.0631C82.7923 65.072 83.1839 65.3998 83.2437 65.9273C83.3124 66.559 82.891 67.0329 82.2035 67.0478C81.4324 67.0656 80.6583 67.0508 79.8214 67.0508V69.4228C79.2565 69.3185 78.7543 69.2709 78.2851 69.1278C76.1809 68.4841 74.5968 67.2832 73.993 65.0601C73.9572 64.932 73.7569 64.7562 73.6314 64.7562C70.6305 64.7413 67.6297 64.7502 64.6289 64.7562C64.596 64.7562 64.5631 64.7889 64.4944 64.8277C64.5721 66.8094 65.0413 68.7166 65.9948 70.4658C68.8372 75.6719 73.2697 78.3479 79.2236 78.2257C85.4285 78.0976 89.6429 74.0269 91.4332 68.8417C94.44 60.1282 88.6954 50.8783 79.5315 49.5492C79.3312 49.5194 79.125 49.5045 78.9277 49.4509C80.7778 49.3019 82.5622 49.6267 84.2898 50.2555C90.2735 52.4368 94.0634 57.9379 94.0515 64.3807C94.0365 71.7592 88.2829 78.3062 80.9452 79.2926C72.648 80.4071 65.2745 75.2666 63.5529 67.1252C63.3078 65.966 63.2839 64.7591 63.1523 63.5105H73.8526C74.8 60.5007 76.9341 58.7812 79.7855 58.7425V61.0371L79.7825 61.0431Z" fill="white"/>
<path d="M171.759 64.5149H166.113V61.9789H174.392C174.404 62.1548 174.425 62.3336 174.425 62.5124C174.425 64.5984 174.425 66.6814 174.425 68.7674C174.425 69.0237 174.473 69.2621 174.108 69.3872C170.417 70.6388 166.666 71.0173 162.876 69.9892C160.189 69.2591 158.145 67.6737 157.404 64.8874C156.369 61.0104 157.75 56.9249 162.482 55.3872C166.328 54.1385 170.109 54.5379 173.783 56.1441C173.917 56.2037 174.07 56.4034 174.073 56.5434C174.099 57.4791 174.085 58.4149 174.085 59.4668C173.681 59.2224 173.352 59.0317 173.029 58.8321C169.945 56.91 166.651 56.6894 163.25 57.7563C161.038 58.4476 159.845 60.1045 159.759 62.3693C159.672 64.6341 160.757 66.3625 162.843 67.2804C164.882 68.1773 167.025 68.1595 169.18 67.9658C170.038 67.8883 170.889 67.7244 171.756 67.5992V64.5179L171.759 64.5149Z" fill="white"/>
<path d="M109.403 65.4207V70.7757H106.809V55.536C106.91 55.5181 107.015 55.4854 107.119 55.4854C110.12 55.4883 113.121 55.4764 116.119 55.5092C117.294 55.5241 118.441 55.7625 119.502 56.3049C120.722 56.9307 121.535 57.8992 121.696 59.258C121.801 60.1371 121.822 61.0729 121.628 61.9281C121.176 63.9188 119.64 64.8008 117.772 65.1733C116.983 65.3313 116.164 65.3909 115.357 65.4088C113.602 65.4415 111.848 65.4207 110.093 65.4207H109.4H109.403ZM109.472 58.0362V62.8519C111.785 62.8519 114.045 62.8698 116.304 62.84C116.821 62.834 117.35 62.7089 117.853 62.5599C118.486 62.3692 118.955 61.9192 119.069 61.2666C119.437 59.1597 118.785 58.4564 117.108 58.1882C116.812 58.1405 116.511 58.0929 116.212 58.0899C114.084 58.0541 111.955 58.0303 109.827 58.0035C109.72 58.0035 109.609 58.0243 109.475 58.0392L109.472 58.0362Z" fill="white"/>
<path d="M138.559 54.961H141.187V55.5868C141.187 58.7039 141.187 61.821 141.19 64.938C141.19 65.2748 141.216 65.6145 141.279 65.9423C141.497 67.0807 142.107 67.6856 143.255 67.8912C146.049 68.3919 148.527 67.5455 150.906 66.1658C151.764 65.6681 152.099 65.09 152.069 64.0679C151.985 61.2548 152.039 58.4357 152.039 55.6166C152.039 55.4139 152.039 55.2083 152.039 54.9699H154.64V70.2305H152.066V68.3829C151.803 68.52 151.63 68.6005 151.462 68.6958C149.257 69.9385 146.925 70.7192 144.355 70.6C142.415 70.5106 140.675 69.9742 139.462 68.3323C138.84 67.4889 138.535 66.5204 138.529 65.4864C138.511 62.0683 138.523 58.6502 138.523 55.2322C138.523 55.1577 138.538 55.0861 138.556 54.958L138.559 54.961Z" fill="white"/>
<path d="M137.319 67.6944V70.1976C137.274 70.2215 137.241 70.2572 137.211 70.2572C134.175 70.2274 131.138 70.2096 128.101 70.1559C127.638 70.147 127.169 70.0158 126.72 69.8788C124.849 69.3096 123.833 68.0133 123.755 65.9511C123.678 63.9813 123.701 62.0086 123.69 60.0358C123.681 58.5518 123.69 57.0677 123.69 55.5837V54.9639H126.353V55.5867C126.353 58.7038 126.353 61.8238 126.353 64.9409C126.353 65.1465 126.353 65.3551 126.368 65.5608C126.478 66.8064 126.855 67.2802 128.089 67.4978C128.863 67.6348 129.661 67.6766 130.45 67.6855C132.528 67.7093 134.602 67.6944 136.679 67.6944H137.322H137.319Z" fill="white"/>
<path d="M179.79 64.1812V70.0607H178.373V54.7376C178.445 54.7227 178.514 54.6959 178.582 54.6959C181.676 54.6988 184.772 54.6512 187.863 54.7406C188.894 54.7704 189.949 55.0535 190.935 55.3932C192.325 55.873 193.156 56.9368 193.35 58.397C193.578 60.1165 193.434 61.7585 191.907 62.9326C190.968 63.6567 189.853 64.0054 188.7 64.0531C186.309 64.1484 183.911 64.1454 181.517 64.1812C180.973 64.1901 180.426 64.1812 179.79 64.1812ZM179.817 62.8462C181.619 62.8462 183.37 62.8611 185.119 62.8402C186.38 62.8253 187.651 62.8521 188.897 62.7061C191.539 62.3962 192.218 60.7274 191.88 58.4834C191.733 57.5149 191.162 56.7997 190.215 56.5345C189.354 56.2931 188.452 56.1084 187.561 56.0816C185.131 56.0041 182.701 56.0249 180.271 56.0071C180.128 56.0071 179.984 56.0309 179.817 56.0458V62.8432V62.8462Z" fill="white"/>
<path d="M94.7168 59.863H100.907C100.922 59.9197 100.94 59.9763 100.955 60.0329C99.0776 60.9746 97.1976 61.9133 95.3116 62.8579C95.1024 61.812 94.9081 60.8286 94.7168 59.863Z" fill="white"/>
<path d="M70.9688 85.6311C71.181 83.56 71.3932 81.486 71.6054 79.397C72.6037 79.7844 73.5392 80.145 74.5315 80.5294C73.3868 82.2339 72.233 83.9534 71.0793 85.6699C71.0435 85.655 71.0046 85.6431 70.9688 85.6282V85.6311Z" fill="white"/>
<path d="M94.4434 69.724C94.6825 68.7972 94.9335 67.8228 95.2055 66.7798C97.0317 67.7006 98.8908 68.6393 100.753 69.578C100.741 69.6257 100.732 69.6763 100.72 69.724H94.4463H94.4434Z" fill="white"/>
<path d="M90.7578 75.7972C91.4363 74.9538 92.0669 74.1701 92.7245 73.3506C94.0247 74.9598 95.3368 76.5809 96.6459 78.202C96.628 78.2318 96.6101 78.2586 96.5951 78.2884C94.6493 77.457 92.7036 76.6286 90.7578 75.7972Z" fill="white"/>
<path d="M63.0059 80.6664C64.034 78.8575 65.0622 77.0487 65.9947 75.4097C66.7151 76.1278 67.4414 76.852 68.1587 77.5702C66.5895 78.5655 64.847 79.6711 63.1075 80.7766C63.0746 80.7409 63.0387 80.7051 63.0059 80.6664Z" fill="white"/>
<path d="M80.804 42.0725C81.1477 44.1257 81.4944 46.1819 81.8411 48.262C80.798 48.1517 79.8027 48.0474 78.7207 47.9342C79.3812 45.9674 80.0358 44.0125 80.6934 42.0576C80.7292 42.0636 80.7651 42.0666 80.804 42.0725Z" fill="white"/>
<path d="M64.1273 72.5372C62.0948 72.9365 60.0504 73.3418 58.006 73.7441C57.9881 73.7143 57.9701 73.6845 57.9492 73.6547C59.5871 72.3256 61.225 70.9995 62.86 69.6704C63.2934 70.6508 63.6998 71.5716 64.1273 72.5342V72.5372Z" fill="white"/>
<path d="M78.5293 81.0568C79.5933 80.9704 80.5827 80.887 81.6587 80.8005C81.3897 82.8299 81.1177 84.8772 80.8457 86.9215C80.8068 86.9274 80.768 86.9364 80.7291 86.9423C79.9968 84.9845 79.2676 83.0296 78.5293 81.0598V81.0568Z" fill="white"/>
<path d="M85.123 79.7666C86.0735 79.2629 86.9493 78.7981 87.8997 78.2944C88.4527 80.2583 89.0086 82.2399 89.5675 84.2246C89.5317 84.2485 89.4928 84.2723 89.4569 84.2932C88.0163 82.7883 86.5756 81.2804 85.123 79.7666Z" fill="white"/>
<path d="M62.1746 63.3646V66.5055C60.1781 66.133 58.1606 65.7545 56.1431 65.3761C56.1341 65.3314 56.1251 65.2896 56.1191 65.2449C58.1157 64.6251 60.1093 64.0053 62.1776 63.3616L62.1746 63.3646Z" fill="white"/>
<path d="M93.182 56.1084C92.5484 55.2353 91.9656 54.4366 91.3379 53.5724C93.2358 52.7529 95.1487 51.9304 97.0586 51.105C97.0825 51.1348 97.1035 51.1616 97.1274 51.1914C95.8123 52.8304 94.4971 54.4724 93.182 56.1084Z" fill="white"/>
<path d="M88.3843 50.8755C87.4428 50.342 86.5641 49.8444 85.6465 49.3259C87.0184 47.812 88.4022 46.2863 89.7831 44.7605C89.822 44.7754 89.8638 44.7933 89.9027 44.8082C89.3975 46.8227 88.8954 48.8371 88.3843 50.8755Z" fill="white"/>
</svg>
