<svg width="329" height="183" viewBox="0 0 329 183" fill="none" xmlns="http://www.w3.org/2000/svg">
<path d="M230.351 121.556L229.408 120.491C228.541 121.157 227.73 121.45 226.721 121.45C225.511 121.45 224.286 120.89 223.449 119.956C222.744 119.17 222.385 118.13 222.385 116.893C222.385 114.229 224.246 112.245 226.761 112.245C229.276 112.245 231.097 114.203 231.097 116.813C231.097 117.998 230.804 118.891 230.139 119.784L231.122 120.85L230.351 121.556ZM229.393 118.972C229.781 118.266 229.938 117.68 229.938 116.867C229.938 114.803 228.582 113.284 226.746 113.284C225.774 113.284 224.831 113.749 224.231 114.536C223.778 115.122 223.526 115.934 223.526 116.842C223.526 118.921 224.871 120.41 226.706 120.41C227.478 120.41 228.022 120.209 228.647 119.678L227.997 118.946L228.753 118.28L229.393 118.972ZM239.479 119.935C238.565 120.762 237.666 121.131 236.488 121.131C234.167 121.131 232.515 119.371 232.515 116.904C232.515 114.437 234.185 112.626 236.562 112.626C237.724 112.626 238.671 113.013 239.515 113.841L238.653 114.704C238.038 114.141 237.351 113.859 236.594 113.859C234.993 113.859 233.886 115.092 233.886 116.853C233.886 118.613 234.993 119.898 236.576 119.898C237.369 119.898 238.002 119.634 238.653 119.016L239.479 119.931V119.935ZM241.676 117.31C241.745 117.998 241.869 118.35 242.202 118.789C242.729 119.51 243.503 119.898 244.384 119.898C245.386 119.898 246.337 119.353 246.812 118.507L247.989 118.946C247.32 120.301 245.931 121.131 244.384 121.131C241.975 121.131 240.25 119.371 240.25 116.904C240.25 114.437 241.957 112.626 244.33 112.626C246.702 112.626 248.446 114.404 248.446 116.78C248.446 116.886 248.446 117.113 248.428 117.307H241.672L241.676 117.31ZM247.024 116.326C246.973 115.693 246.848 115.341 246.567 114.935C246.055 114.247 245.229 113.826 244.333 113.826C243.438 113.826 242.626 114.247 242.151 114.953C241.906 115.341 241.8 115.674 241.694 116.326H247.024ZM250.277 120.937V111.004H251.615V120.937H250.277ZM254.306 120.937V111.004H255.644V120.937H254.306ZM262.077 115.037V114.95C262.077 114.192 261.463 113.716 260.531 113.716C259.599 113.716 259.073 114.174 259.073 114.88C259.073 115.586 259.423 115.85 260.886 116.253C261.924 116.534 262.469 116.798 262.856 117.186C263.243 117.574 263.507 118.17 263.507 118.771C263.507 120.18 262.344 121.131 260.622 121.131C258.776 121.131 257.738 120.268 257.596 118.632H258.915C259.003 119.547 259.603 120.041 260.622 120.041C261.536 120.041 262.136 119.565 262.136 118.844C262.136 118.123 261.679 117.786 260.29 117.435C258.531 116.959 257.738 116.22 257.738 114.986C257.738 113.577 258.882 112.626 260.586 112.626C262.289 112.626 263.346 113.508 263.419 115.037H262.081H262.077ZM208.768 120.399H207.822V112.073H208.768V115.63C209.342 114.843 209.953 114.507 210.79 114.507C212.398 114.507 213.521 115.755 213.521 117.541C213.521 119.327 212.409 120.538 210.841 120.538C209.956 120.538 209.331 120.202 208.772 119.415V120.399H208.768ZM208.757 117.53C208.757 118.84 209.507 119.715 210.629 119.715C211.751 119.715 212.523 118.855 212.523 117.567C212.523 116.278 211.751 115.356 210.666 115.356C209.58 115.356 208.757 116.267 208.757 117.526V117.53ZM218.222 114.646H219.256L215.827 123.17H214.793L215.988 120.224L213.945 114.642H214.954L216.5 118.91L218.222 114.642V114.646ZM157.346 99.4861V105.562H132.046V72.8487H156.739V78.9243H139.561V86.0283H154.732V91.9172H139.561V99.4898H157.346V99.4861ZM188.528 91.1669V105.562H181.246V92.2906C181.246 88.2243 179.378 86.3541 176.157 86.3541C172.655 86.3541 170.136 88.5025 170.136 93.1287V105.558H162.855V80.4139H169.811V83.3565C171.77 81.2081 174.713 80.0369 178.12 80.0369C184.049 80.0369 188.528 83.4956 188.528 91.1596V91.1669ZM203.183 78.9243V87.5692H218.306V93.6448H203.183V105.562H195.619V72.8487H220.313V78.9243H203.183ZM223.804 76.3769C223.804 74.309 225.376 72.7059 227.708 72.7059C230.04 72.7059 231.612 74.2248 231.612 76.2488C231.612 78.4411 230.04 80.0442 227.708 80.0442C225.376 80.0442 223.804 78.4411 223.804 76.3732V76.3769ZM224.465 82.7343H231.747V105.565H224.465V82.7343ZM264.187 91.1669V105.562H256.905V92.2906C256.905 88.2243 255.037 86.3541 251.816 86.3541C248.314 86.3541 245.796 88.5025 245.796 93.1287V105.558H238.514V80.4139H245.47V83.3565C247.43 81.2081 250.372 80.0369 253.779 80.0369C259.709 80.0369 264.187 83.4956 264.187 91.1596V91.1669ZM84.5927 86.764L73.6443 104.537H86.3255L91.9002 96.8656L93.0809 98.4906L84.5927 86.7603V86.764ZM104.563 85.5049L104.669 85.655L104.79 85.6404L104.559 85.5013L104.563 85.5049ZM106.837 88.2316L106.68 88.5025L106.888 88.7989L106.833 88.2353L106.837 88.2316ZM84.5927 86.764L73.6443 104.537H86.3255L91.9002 96.8656L93.0809 98.4906L84.5927 86.7603V86.764ZM86.9177 73.0573C86.3145 72.0105 84.8047 72.0105 84.2016 73.0573L64.8125 104.537H70.5663L88.9904 75.9853L86.9177 73.0573ZM118.037 104.537L108.113 90.5191L107.974 99.8375L106.895 88.7989L106.687 88.5025L102.743 95.4052L101.094 98.2893L102.49 95.0465L105.532 87.9827L99.8145 91.2694L96.2284 93.3337L99.5476 90.8924L105.144 86.7749L96.6853 86.8518L94.0204 86.8774L96.4989 86.5919L104.665 85.6513L104.559 85.5013L95.4826 80.0552L102.874 83.1186L95.7495 73.0536C95.1463 72.0069 93.6366 72.0069 93.0334 73.0536L90.1894 77.6725L84.5927 86.7566L93.0809 98.4869L97.4713 104.53L97.899 105.119H118.454L118.037 104.53V104.537ZM84.5927 86.764L73.6443 104.537H86.3255L91.9002 96.8656L84.5927 86.764Z" fill="white"/>
</svg>
