<svg width="900" height="500" viewBox="0 0 900 500" fill="none" xmlns="http://www.w3.org/2000/svg">
<path d="M231.13 342.04C234.74 333.96 238.35 325.88 241.97 317.81C244.56 312.03 247.18 306.26 249.77 300.48C250.02 299.93 250.38 299.67 251 299.67C253.58 299.69 256.15 299.68 258.73 299.67C259.33 299.67 259.67 299.88 259.93 300.47C262.42 306.09 264.94 311.68 267.46 317.29C269.24 321.26 271.03 325.23 272.82 329.2C274.69 333.34 276.56 337.49 278.45 341.62C278.92 342.64 278.67 343.04 277.55 343.03C274.49 343.01 271.43 343.01 268.36 343.03C267.59 343.03 267.07 342.79 266.74 342.08C264.27 336.77 261.79 331.47 259.3 326.17C257.89 323.16 256.45 320.15 254.94 316.97C253.44 319.54 252.53 322.14 251.39 324.64C248.75 330.45 246.19 336.3 243.61 342.14C243.37 342.67 243.14 343.04 242.47 343.03C238.68 342.98 234.89 342.96 231.1 342.93C231.1 342.64 231.1 342.35 231.1 342.06L231.13 342.04Z" fill="white"/>
<path d="M475.05 155.76C479.93 165.04 484.82 174.32 489.7 183.6C489.95 184.07 490.18 184.55 490.43 185.03C490.77 185.69 490.57 186.06 489.82 186.07C489.04 186.09 488.27 186.09 487.49 186.09C481.22 186.09 474.95 186.08 468.69 186.09C467.69 186.09 466.95 185.89 466.43 184.9C461.35 175.17 456.24 165.47 451.13 155.76C459.11 155.76 467.08 155.76 475.06 155.76H475.05Z" fill="white"/>
<path d="M439.74 155.76C438.41 158.35 437.09 160.94 435.74 163.52C432.01 170.61 428.25 177.69 424.55 184.79C424.06 185.73 423.44 186.11 422.38 186.1C415.48 186.07 408.58 186.09 401.68 186.08C400.09 186.08 400.04 185.97 400.79 184.55C405.61 175.4 410.43 166.25 415.25 157.1C415.47 156.67 415.63 156.21 415.82 155.77C423.8 155.77 431.77 155.77 439.75 155.77L439.74 155.76Z" fill="white"/>
<path d="M398.06 343.89C385.27 344.43 375.46 334.57 375.72 321.13C375.95 308.84 384.84 298.7 398.79 299.08C411.18 299.42 420.84 308.56 420.59 322.19C420.37 334.35 411.58 344.36 398.06 343.89ZM398.08 333.48C401.65 333.48 404.84 332.19 406.36 330.07C409.94 325.05 410.35 319.8 407.14 314.48C403.68 308.74 396.78 308.22 392.41 310.99C388.24 313.62 386.85 317.77 387.05 322.52C387.31 328.51 391.49 333.83 398.09 333.48H398.08Z" fill="white"/>
<path d="M437.719 304.9C440.149 302.77 442.739 300.84 445.869 300.02C456.099 297.33 465.529 302.3 468.439 312.58C469.329 315.72 469.599 318.94 469.599 322.19C469.599 328.55 469.569 334.92 469.619 341.28C469.629 342.58 469.269 343.09 467.899 343.04C465.279 342.95 462.649 342.95 460.029 343.04C458.699 343.08 458.269 342.65 458.279 341.31C458.339 334.41 458.349 327.51 458.279 320.62C458.249 317.61 457.549 314.77 455.429 312.45C453.339 310.17 450.659 309.46 447.699 309.64C444.089 309.86 441.409 311.65 439.599 314.76C438.629 316.42 438.089 318.21 438.089 320.14C438.089 327.14 438.049 334.13 438.109 341.13C438.119 342.56 437.769 343.12 436.249 343.05C433.579 342.93 430.899 342.98 428.229 343.03C427.169 343.05 426.779 342.69 426.779 341.61C426.809 328.2 426.799 314.8 426.779 301.39C426.779 300.32 427.139 299.93 428.209 299.95C430.689 300 433.169 299.99 435.649 299.95C436.479 299.94 436.839 300.25 437.039 301.05C437.349 302.3 436.999 303.66 437.719 304.9Z" fill="white"/>
<path d="M301.92 344.18C297.06 344.53 292.58 343.31 288.51 340.73C283.67 337.67 280.72 333.24 279.68 327.63C278.44 320.94 278.76 314.37 282.44 308.4C285.81 302.95 291 300.12 297.2 299.13C302.99 298.21 308.62 298.62 313.68 301.98C314.84 302.75 315.89 303.7 317 304.55C317.75 305.12 317.53 305.74 317.04 306.29C315.17 308.39 312.97 310.18 311.19 312.37C310.68 313 310.17 312.46 309.69 312.11C305.89 309.32 301.79 308.68 297.33 310.33C293.79 311.63 290.61 315.93 290.44 319.67C290.34 321.84 290.29 323.98 291.02 326.09C292.44 330.22 296.34 333.26 300.69 333.47C304.17 333.64 307.46 333.12 310.2 330.71C310.87 330.12 311.54 330.07 312.21 330.73C314.18 332.67 316.13 334.62 318.13 336.53C318.81 337.18 318.49 337.57 317.98 338.06C314.03 341.88 309.37 344.07 303.81 344.18C303.18 344.19 302.55 344.18 301.91 344.18H301.92Z" fill="white"/>
<path d="M326.719 320.58C326.719 317.03 326.679 314.12 326.739 311.2C326.759 310.13 326.409 309.72 325.319 309.76C323.619 309.83 321.919 309.74 320.219 309.79C319.239 309.82 318.809 309.48 318.839 308.45C318.889 306.12 318.889 303.79 318.839 301.46C318.819 300.3 319.339 299.92 320.429 299.95C322.079 299.99 323.739 299.92 325.389 299.97C326.399 300 326.769 299.64 326.749 298.62C326.699 295.95 326.749 293.28 326.719 290.61C326.709 289.69 326.939 289.25 327.959 289.08C331.009 288.56 334.109 288.5 337.169 288.07C338.059 287.95 338.009 288.68 338.009 289.26C338.019 292.32 338.069 295.38 337.989 298.44C337.959 299.61 338.199 300.04 339.479 299.99C342.249 299.88 345.019 300.02 347.789 299.93C349.209 299.88 349.819 300.24 349.719 301.78C349.589 303.86 349.629 305.96 349.719 308.04C349.769 309.33 349.389 309.86 348.009 309.81C345.239 309.72 342.469 309.86 339.699 309.75C338.299 309.7 337.989 310.21 337.999 311.51C338.059 316.8 338.119 322.1 337.999 327.39C337.889 331.67 340.769 334.29 345.489 333.05C346.469 332.79 347.519 331.7 348.389 332.41C349.069 332.97 349.189 334.22 349.509 335.18C350.109 337.02 350.659 338.87 351.279 340.7C351.489 341.33 351.389 341.77 350.769 341.98C345.419 343.85 339.989 344.55 334.629 342.2C329.809 340.09 327.759 335.95 327.029 330.97C326.489 327.29 326.909 323.61 326.749 320.57L326.719 320.58Z" fill="white"/>
<path d="M448.439 261.27C445.039 261.27 441.629 261.28 438.229 261.27C436.609 261.27 436.479 261.05 437.229 259.61C442.069 250.41 446.929 241.22 451.759 232.01C452.219 231.14 452.799 230.7 453.809 230.71C460.759 230.73 467.719 230.71 474.669 230.73C476.109 230.73 476.249 230.98 475.579 232.26C470.699 241.55 465.789 250.82 460.919 260.12C460.439 261.04 459.759 261.31 458.799 261.3C455.349 261.28 451.899 261.3 448.439 261.3V261.27Z" fill="white"/>
<path d="M428.87 231.04C425.42 231.04 421.97 231.04 418.52 231.04C416.98 231.04 416.86 230.84 417.59 229.46C422.45 220.22 427.32 210.99 432.18 201.75C432.57 201.02 433.08 200.68 433.9 200.68C440.95 200.69 447.99 200.68 455.04 200.69C456.44 200.69 456.55 200.96 455.77 202.43C451.29 210.93 446.69 219.38 442.37 227.96C441.17 230.35 439.83 231.33 437.17 231.09C434.42 230.84 431.64 231.03 428.87 231.03V231.04Z" fill="white"/>
<path d="M387.489 231.04C383.989 231.04 380.489 231.02 376.989 231.05C375.859 231.06 375.589 230.74 376.139 229.7C381.069 220.39 385.979 211.06 390.889 201.73C391.279 200.99 391.839 200.68 392.649 200.68C399.699 200.68 406.749 200.67 413.799 200.68C415.119 200.68 415.229 200.97 414.599 202.18C409.929 211.03 405.229 219.86 400.639 228.75C399.779 230.42 398.799 231.19 396.839 231.08C393.739 230.9 390.619 231.03 387.509 231.03L387.489 231.04Z" fill="white"/>
<path d="M503.239 231.04C499.839 231.04 496.429 231.02 493.029 231.05C492.049 231.06 491.419 230.77 490.939 229.85C486.189 220.77 481.389 211.71 476.609 202.64C475.669 200.85 475.769 200.68 477.739 200.68C484.349 200.68 490.969 200.71 497.579 200.65C498.979 200.64 499.789 201.14 500.439 202.38C505.109 211.34 509.849 220.27 514.559 229.21C515.449 230.91 515.379 231.03 513.449 231.04C510.049 231.04 506.639 231.04 503.239 231.04Z" fill="white"/>
<path d="M625.5 308.17C625.5 305.68 625.53 303.5 625.49 301.32C625.47 300.33 625.82 299.93 626.84 299.95C631.09 300.03 630.35 299.47 630.36 303.35C630.4 315.93 630.37 328.51 630.37 341.1C630.37 343.01 630.37 343.03 628.43 343.02C625.09 342.99 625.54 343.4 625.51 340.04C625.49 338.45 625.51 336.86 625.51 335.11C616.31 347.48 599.67 345.08 592.49 337.2C583.45 327.27 585.1 312.88 592.97 305.39C603.18 295.67 619.39 298.45 625.51 308.18L625.5 308.17ZM591.57 321.52C591.21 331.26 598.96 338.46 607.58 338.81C618.81 339.26 625.71 331.08 625.78 321.68C625.85 311.57 618.73 304.44 608.98 304.19C598.89 303.93 591.18 311.7 591.57 321.52Z" fill="white"/>
<path d="M541.81 343.6C529.06 343.81 519.81 334.38 519.9 321.49C519.98 308.41 529.1 298.98 542.29 299.09C554.21 299.18 564.29 308.17 563.89 322.41C563.54 334.56 554.7 343.86 541.82 343.6H541.81ZM541.84 303.95C531.85 303.76 524.73 311.46 524.82 321.67C524.92 331.86 531.65 338.41 541.42 338.72C551.82 339.05 559 331.68 558.98 321.54C558.96 311.29 551.77 303.71 541.84 303.96V303.95Z" fill="white"/>
<path d="M495.73 343.57C490.69 343.86 486.17 342.67 481.95 340.23C480.01 339.11 478.62 337.43 477.11 335.87C476.47 335.21 476.55 334.63 477.27 333.93C479.73 331.55 479.69 331.53 482.04 333.85C485.14 336.91 488.97 338.26 493.24 338.76C496.52 339.14 499.7 338.84 502.81 337.84C504.87 337.18 506.68 336.1 507.69 334C509.37 330.52 508.03 326.99 504.46 325.55C500.75 324.05 496.8 323.6 492.9 322.9C488.85 322.17 484.78 321.45 481.41 318.81C479.44 317.27 478.4 315.18 478.17 312.72C477.57 306.36 481.07 302.36 486.44 300.63C494.97 297.87 503.13 298.6 510.54 304.1C511.57 304.86 511.64 305.5 510.74 306.42C508.86 308.36 508.87 308.41 506.62 306.93C501.74 303.71 496.37 303.46 490.82 304.32C488.99 304.6 487.29 305.28 485.7 306.25C482.21 308.37 482.06 313.32 485.41 315.61C488.36 317.63 491.81 317.98 495.17 318.61C499.44 319.41 503.74 320.01 507.74 321.92C513.42 324.64 514.52 330.7 512.49 335.64C510.67 340.07 506.83 341.91 502.5 343.02C500.23 343.6 497.91 343.74 495.74 343.59L495.73 343.57Z" fill="white"/>
<path d="M368.07 321.49C368.07 328.09 368.04 334.7 368.1 341.3C368.11 342.63 367.7 343.08 366.36 343.04C363.64 342.95 360.92 342.98 358.2 343.03C357.12 343.05 356.77 342.65 356.77 341.59C356.79 328.09 356.79 314.59 356.77 301.09C356.77 300.02 357.13 299.63 358.21 299.65C360.98 299.7 363.75 299.71 366.52 299.65C367.73 299.62 368.11 300.05 368.1 301.25C368.06 308 368.08 314.75 368.08 321.5L368.07 321.49Z" fill="white"/>
<path d="M645.839 306.36C648.329 302.61 651.609 300.71 655.529 299.86C659.829 298.92 663.979 299.31 667.929 301.38C668.959 301.92 669.089 302.56 668.619 303.5C668.599 303.54 668.589 303.59 668.569 303.64C667.683 305.367 666.319 305.837 664.479 305.05C658.429 302.45 650.139 305.82 647.519 311.83C646.549 314.06 646.099 316.3 646.119 318.72C646.169 326.2 646.099 333.68 646.169 341.16C646.179 342.62 645.779 343.11 644.289 343.06C640.429 342.91 640.989 343.54 640.989 339.71C640.959 327.13 640.979 314.55 640.989 301.98C640.989 299.98 640.989 299.97 642.999 299.98C646.249 300 645.829 299.63 645.859 302.87C645.869 303.89 645.859 304.91 645.859 306.38L645.839 306.36Z" fill="white"/>
<path d="M577.85 312.71C577.85 322.18 577.82 331.66 577.88 341.13C577.88 342.57 577.52 343.1 576.01 343.04C572.14 342.89 572.7 343.51 572.7 339.7C572.68 321.34 572.7 302.97 572.7 284.61C572.7 282.18 572.7 282.16 575.1 282.18C578.17 282.2 577.86 281.86 577.86 284.88C577.87 294.16 577.86 303.44 577.86 312.72L577.85 312.71Z" fill="white"/>
<path d="M368.949 288.47C369.409 291.47 366.309 295.03 362.449 294.93C358.619 294.83 355.899 292.18 355.909 288.32C355.909 284.58 358.669 281.89 362.449 281.87C366.479 281.84 369.399 285.26 368.949 288.47Z" fill="white"/>
</svg>
