<svg width="270" height="150" viewBox="0 0 270 150" fill="none" xmlns="http://www.w3.org/2000/svg">
<path d="M158.886 82.316C157.776 82.184 158.649 81.65 158.772 81.449C160.896 78.014 163.053 74.597 165.207 71.18C169.512 64.343 173.838 57.515 178.113 50.657C178.998 49.238 180.054 48.095 181.608 47.477C182.091 47.456 182.808 47.426 183.291 47.405C185.064 47.927 186.162 49.124 187.095 50.696C192.03 59.012 197.034 67.283 202.02 75.569C202.71 76.715 203.097 78.017 203.142 79.352C203.142 79.37 203.142 79.388 203.142 79.406C203.202 81.095 201.858 82.514 200.166 82.523C198.081 82.532 171.069 82.325 158.883 82.319L158.886 82.316ZM161.973 80.447C162.522 80.447 162.867 80.48 163.209 80.441C168.315 79.892 173.421 79.337 178.527 78.773C182.763 78.302 186.996 77.789 191.235 77.345C193.446 77.114 194.382 75.965 193.467 74.291C190.743 69.296 187.983 64.322 185.163 59.381C184.212 57.716 182.745 57.602 181.323 58.904C181.02 59.18 180.771 59.513 180.498 59.819C174.384 66.626 168.273 73.433 161.976 80.444L161.973 80.447Z" fill="white"/>
<path d="M66.8516 48.956C67.4216 48.734 68.0006 48.629 68.6246 48.635C72.2216 48.659 75.8156 48.647 79.4126 48.65C80.1686 48.65 81.1916 48.476 81.2096 49.541C81.2276 50.756 80.1236 50.456 79.3436 50.507C77.9756 50.594 76.1036 49.904 75.3746 50.795C74.6846 51.635 75.1406 53.432 75.1316 54.809C75.1076 58.043 75.1046 61.274 75.0956 64.508C75.0956 65.303 75.0836 66.224 74.0216 66.197C72.9716 66.17 73.0226 65.252 73.0226 64.46C73.0316 60.2 72.9956 55.94 73.0496 51.683C73.0616 50.738 72.8156 50.477 71.8586 50.477C70.1906 50.477 68.4926 50.786 66.8546 50.195V48.962L66.8516 48.956Z" fill="white"/>
<path d="M147.483 82.595C146.955 81.17 147.174 79.688 147.162 78.23C147.138 75.617 147.204 73.001 147.147 70.388C147.123 69.326 147.462 68.9 148.551 68.954C149.985 69.026 151.422 68.972 152.859 68.987C155.484 69.017 156.942 70.106 157.302 72.293C157.644 74.381 156.486 76.028 153.945 76.901C154.779 77.975 155.529 79.058 156.402 80.027C157.143 80.849 157.497 81.62 156.747 82.595H156.129C155.541 81.098 154.227 80.099 153.462 78.74C152.622 77.255 151.452 76.793 149.799 76.937C148.923 77.015 148.692 77.24 148.695 78.089C148.701 79.607 149.049 81.194 148.098 82.592H147.48L147.483 82.595ZM151.383 70.277C151.383 70.277 151.383 70.262 151.383 70.256C150.768 70.256 150.15 70.28 149.535 70.25C148.962 70.22 148.668 70.394 148.719 71.021C148.842 72.533 148.068 74.522 149.049 75.431C149.937 76.253 151.884 75.734 153.36 75.536C154.947 75.323 155.805 74.345 155.763 72.878C155.724 71.45 154.764 70.442 153.231 70.286C152.622 70.226 151.998 70.277 151.383 70.277Z" fill="white"/>
<path d="M134.478 81.122C134.556 78.713 134.394 76.289 134.577 73.889C134.868 70.079 137.979 67.952 141.477 68.993C143.55 69.611 144.972 71.483 145.032 73.847C145.092 76.208 144.972 78.572 145.101 80.927C145.146 81.716 144.363 81.938 144.393 82.592H143.775C143.394 81.245 143.472 79.862 143.511 78.488C143.532 77.711 143.31 77.396 142.476 77.417C140.631 77.465 138.783 77.42 136.935 77.411C136.512 77.411 136.083 77.402 136.08 78.005C136.071 79.532 136.059 81.062 136.05 82.589C135.534 82.589 134.46 81.614 134.475 81.116L134.478 81.122ZM139.77 76.109C140.745 76.109 141.717 76.115 142.692 76.106C143.034 76.103 143.46 76.19 143.481 75.647C143.544 74.054 143.634 72.434 142.353 71.195C141.249 70.127 139.896 69.944 138.504 70.439C136.845 71.027 136.275 72.449 136.107 74.054C135.894 76.109 135.918 76.112 137.925 76.112C138.54 76.112 139.155 76.112 139.77 76.112V76.109Z" fill="white"/>
<path d="M122.261 52.8469C120.584 55.5289 118.913 58.2109 117.227 60.8869C116.129 62.6269 115.529 62.6149 114.425 60.8419C112.757 58.1569 111.092 55.4719 109.148 52.8289C109.148 56.4919 109.178 60.1549 109.127 63.8179C109.115 64.7209 109.658 66.2329 108.059 66.1819C106.607 66.1339 107.15 64.6879 107.141 63.8239C107.108 59.4559 107.141 55.0849 107.18 50.7169C107.186 49.9399 106.913 48.9619 107.996 48.6259C109.202 48.2509 109.607 49.2409 110.078 50.0149C111.971 53.1229 113.846 56.2399 115.829 59.5219C117.257 57.2119 118.616 55.0159 119.972 52.8139C120.428 52.0729 120.818 51.2809 121.334 50.5849C121.952 49.7479 122.156 48.1789 123.698 48.6679C125.099 49.1119 124.589 50.4709 124.598 51.4759C124.634 55.3819 124.598 59.2909 124.589 63.1969C124.589 63.6079 124.616 64.0219 124.58 64.4299C124.514 65.2069 124.757 66.2749 123.494 66.2359C122.366 66.1999 122.534 65.2279 122.528 64.4809C122.519 62.5279 122.54 60.5749 122.543 58.6219C122.546 56.7229 122.543 54.8239 122.543 52.9219C122.45 52.8979 122.354 52.8739 122.261 52.8499V52.8469Z" fill="white"/>
<path d="M153.936 59.2669C155.289 61.0099 156.531 62.6359 157.806 64.2379C158.286 64.8439 158.739 65.5039 157.986 66.0949C157.248 66.6769 156.654 66.1279 156.189 65.5129C154.95 63.8779 153.585 62.3179 152.52 60.5779C151.647 59.1529 150.432 59.3749 149.184 59.3689C147.066 59.3599 147.066 59.3689 147.066 61.4809C147.066 62.6119 147.075 63.7399 147.06 64.8709C147.051 65.5759 146.937 66.2659 146.019 66.2809C145.086 66.2959 144.999 65.6299 145.002 64.9009C145.011 60.0229 145.026 55.1449 144.996 50.2669C144.99 49.1839 145.467 48.7879 146.478 48.8029C148.791 48.8419 151.107 48.7909 153.414 48.9139C156.225 49.0609 157.992 50.5699 158.313 52.9009C158.742 56.0059 157.569 58.0369 154.752 59.0689C154.563 59.1379 154.356 59.1649 153.939 59.2639L153.936 59.2669ZM147.108 54.0379C147.108 54.9109 147.126 55.7869 147.102 56.6599C147.084 57.2479 147.171 57.6349 147.915 57.6139C149.664 57.5719 151.419 57.6679 153.162 57.5629C155.091 57.4459 156.261 56.1529 156.369 54.2569C156.471 52.4539 155.481 51.1789 153.648 50.6929C152.631 50.4229 151.602 50.5219 150.579 50.5159C147.108 50.5009 147.108 50.5099 147.108 54.0379Z" fill="white"/>
<path d="M141.665 60.0199C141.665 61.6639 141.662 63.3079 141.665 64.9519C141.665 65.6119 141.602 66.2299 140.747 66.2659C139.799 66.3079 139.688 65.6539 139.691 64.9279C139.7 63.6949 139.637 62.4559 139.733 61.2289C139.811 60.2299 139.421 60.0289 138.509 60.0499C135.989 60.1069 133.466 60.1069 130.949 60.0439C130.04 60.0229 129.818 60.3469 129.86 61.1869C129.923 62.4169 129.869 63.6529 129.878 64.8859C129.884 65.6329 129.716 66.2569 128.813 66.2449C128.021 66.2359 127.757 65.6689 127.778 64.9879C127.883 61.4989 127.529 57.9949 127.991 54.5209C128.501 50.6869 131.315 48.4519 135.293 48.5959C138.743 48.7219 141.434 51.4339 141.626 55.0849C141.713 56.7229 141.641 58.3729 141.641 60.0169C141.647 60.0169 141.656 60.0169 141.662 60.0169L141.665 60.0199ZM134.792 58.2109C134.792 58.2109 134.792 58.2169 134.792 58.2199H136.337C139.997 58.2199 140.435 57.6199 139.418 54.0079C138.815 51.8659 137.099 50.5189 134.924 50.4829C132.548 50.4439 130.901 51.6409 130.181 53.8639C129.791 55.0729 129.923 56.3029 129.872 57.5299C129.842 58.2529 130.295 58.2109 130.775 58.2109C132.113 58.2049 133.451 58.2109 134.789 58.2109H134.792Z" fill="white"/>
<path d="M99.4308 48.461C100.73 48.578 101.987 48.782 103.154 49.373C103.757 49.679 104.21 50.162 103.895 50.849C103.565 51.572 102.929 51.44 102.32 51.143C100.559 50.294 98.7408 49.886 96.8118 50.51C95.7588 50.849 95.0418 51.476 94.9308 52.673C94.8168 53.867 95.3688 54.602 96.3708 55.139C97.7418 55.871 99.2718 56.123 100.718 56.624C103.808 57.701 105.035 59.354 104.63 61.985C104.246 64.493 102.137 66.128 99.2118 66.251C97.3248 66.332 95.5368 65.969 93.8508 65.147C93.1668 64.814 92.3118 64.421 92.7888 63.437C93.3228 62.342 94.0638 63.005 94.6968 63.401C96.2508 64.373 97.9488 64.643 99.7248 64.373C101.156 64.154 102.188 63.428 102.446 61.871C102.698 60.341 101.939 59.384 100.646 58.847C99.2328 58.262 97.7508 57.845 96.3168 57.308C93.4908 56.249 92.4978 54.815 92.7948 52.298C93.0348 50.273 94.7868 48.869 97.4418 48.599C98.1018 48.533 98.7678 48.503 99.4308 48.458V48.461Z" fill="white"/>
<path d="M117.87 82.0279C117.117 82.0309 116.367 82.0339 115.614 82.0369C112.101 81.5449 109.602 78.5569 109.794 75.0799C109.989 71.5399 113.016 68.7199 116.643 68.7049C120.36 68.6869 123.321 71.4349 123.585 75.1429C123.825 78.4879 121.356 81.4609 117.87 82.0279ZM121.899 75.4729C121.899 72.4609 119.637 70.1839 116.667 70.1989C113.76 70.2139 111.363 72.6499 111.429 75.5299C111.492 78.4039 113.814 80.7199 116.646 80.7409C119.613 80.7619 121.905 78.4639 121.902 75.4759L121.899 75.4729Z" fill="white"/>
<path d="M165.385 58.364C165.385 56.207 165.334 54.05 165.409 51.896C165.442 50.906 165.193 50.513 164.146 50.576C162.865 50.654 161.578 50.588 160.291 50.57C159.733 50.564 159.244 50.414 159.235 49.733C159.223 49.055 159.703 48.866 160.264 48.866C164.377 48.866 168.487 48.881 172.6 48.89C173.14 48.89 173.5 49.109 173.524 49.682C173.554 50.342 173.155 50.588 172.552 50.588C171.319 50.588 170.08 50.663 168.853 50.573C167.719 50.489 167.338 50.831 167.356 52.016C167.419 55.967 167.359 59.924 167.347 63.875C167.347 64.235 167.341 64.595 167.347 64.952C167.353 65.684 167.224 66.341 166.291 66.299C165.472 66.26 165.361 65.666 165.367 64.982C165.382 62.774 165.373 60.566 165.373 58.358C165.376 58.358 165.382 58.358 165.385 58.358V58.364Z" fill="white"/>
<path d="M105.5 82.01C104.756 82.016 104.009 82.022 103.265 82.028C102.317 82.028 101.459 81.674 100.625 81.284C100.088 81.032 99.5988 80.633 99.9648 79.964C100.325 79.304 100.847 79.655 101.27 79.934C102.446 80.711 103.739 80.891 105.101 80.741C106.244 80.615 107.012 79.979 107.261 78.863C107.516 77.714 106.829 76.97 105.887 76.556C104.723 76.043 103.472 75.728 102.29 75.251C100.427 74.498 99.7578 73.481 99.8958 71.777C100.016 70.265 100.946 69.296 102.806 68.864C104.339 68.51 105.866 68.633 107.342 69.182C107.909 69.392 108.632 69.647 108.293 70.454C107.969 71.228 107.375 70.781 106.862 70.58C105.755 70.145 104.642 69.806 103.421 70.094C102.386 70.34 101.567 70.814 101.486 71.969C101.408 73.085 102.215 73.604 103.115 73.94C104.072 74.297 105.062 74.555 106.028 74.885C108.176 75.62 109.025 76.751 108.899 78.674C108.782 80.492 107.672 81.575 105.494 82.01H105.5Z" fill="white"/>
<path d="M81.4612 55.703C83.1802 54.149 85.0972 53.867 86.6422 54.824C87.1882 55.163 87.5122 55.604 87.2572 56.222C86.9542 56.954 86.3512 56.783 85.8352 56.495C83.5822 55.232 81.5842 56.504 81.3922 59.414C81.2782 61.154 81.3322 62.906 81.3202 64.652C81.3142 65.408 81.2842 66.224 80.2942 66.203C79.3462 66.185 79.4422 65.357 79.4422 64.694C79.4452 61.766 79.4572 58.835 79.4632 55.907C79.4632 55.247 79.3132 54.443 80.2372 54.323C81.1132 54.209 81.2902 54.956 81.4582 55.706L81.4612 55.703Z" fill="white"/>
<path d="M125.162 75.3231C125.162 73.6311 125.15 71.9421 125.168 70.2501C125.174 69.6711 124.961 68.8251 125.816 68.7651C126.761 68.6991 126.713 69.5511 126.71 70.2201C126.707 73.0911 126.77 75.9621 126.647 78.8271C126.587 80.2581 126.896 80.8761 128.462 80.7051C129.83 80.5581 131.228 80.6691 132.614 80.6811C133.091 80.6841 133.604 80.7291 133.553 81.3951C133.514 81.9261 133.085 81.9951 132.647 81.9921C130.493 81.9891 128.336 81.9561 126.182 81.9921C125.207 82.0071 125.114 81.4341 125.117 80.7021C125.123 78.9081 125.117 77.1141 125.117 75.3201C125.129 75.3201 125.144 75.3201 125.156 75.3201L125.162 75.3231Z" fill="white"/>
<path d="M88.3201 60.1609C88.3201 58.6249 88.3261 57.0889 88.3201 55.5499C88.3171 54.9229 88.4761 54.3709 89.1841 54.3319C89.9731 54.2869 90.2431 54.8539 90.2401 55.5409C90.2281 58.7179 90.2011 61.8919 90.1711 65.0689C90.1651 65.6839 89.9821 66.2269 89.2441 66.2299C88.5151 66.2299 88.2991 65.6959 88.2931 65.0839C88.2751 63.4459 88.2871 61.8049 88.2871 60.1639C88.2991 60.1639 88.3111 60.1639 88.3231 60.1639L88.3201 60.1609Z" fill="white"/>
<path d="M90.3407 49.1421C90.2627 49.7601 89.8727 50.1771 89.2427 50.1621C88.5317 50.1441 88.1147 49.6881 88.1687 48.9411C88.2197 48.2451 88.6697 47.9661 89.3267 47.9961C90.0227 48.0261 90.3167 48.4431 90.3407 49.1421Z" fill="white"/>
</svg>
