<svg width="900" height="500" viewBox="0 0 900 500" fill="none" xmlns="http://www.w3.org/2000/svg">
<path d="M182.24 239.15C182.79 240.26 182.3 241.48 182.67 242.74C183.29 240.82 183.13 238.87 183.65 236.9H193.52C189.59 262.77 196.76 285.27 215.17 303.87C228.87 317.72 245.9 325.1 265.4 326.21C301.39 328.25 329.72 304.3 339.26 281.2C337.15 280.94 335.08 281.11 333.03 281.08C330.94 281.05 328.84 281.08 326.75 281.08C324.66 281.08 322.56 281.08 320.47 281.08C318.32 281.08 316.17 281.08 314.02 281.08C311.93 281.08 309.83 281.08 307.74 281.08C305.65 281.08 303.55 281.08 301.46 281.08C299.38 281.08 297.3 281.08 295.25 281.08C295 279.84 294.88 216.92 295.12 215.71H333.29V227.99C325.18 227.8 317.22 228.15 309.33 227.69C308.83 228.87 308.65 236.77 309.04 239.61C317.06 239.68 325.12 239.66 333.31 239.61V252.23C325.2 252.15 317.19 252.37 309.43 252C308.7 252.54 308.75 253.07 308.74 253.57C308.66 258.3 308.74 263.02 308.9 267.75C308.9 267.85 308.99 267.95 309.17 268.28H354.43C349.42 286.45 341.21 302.36 326.91 314.64C312.72 326.83 296.25 333.94 277.57 335.86C277.62 336.24 278.12 336.12 278.08 336.49H260.75C260.83 336.29 260.91 336.1 261.03 335.81C259.65 335.6 258.31 335.21 256.99 335.22C253.65 335.27 250.53 334.2 247.37 333.44C242.71 332.32 238.22 330.64 233.8 328.76C229.05 326.74 224.6 324.19 220.35 321.33C214.57 317.45 209.44 312.79 204.75 307.64C200.9 303.41 197.55 298.82 194.61 293.96C191.99 289.64 189.79 285.08 188.01 280.32C185.59 273.81 183.78 267.18 183.27 260.22C183.15 258.58 183.17 256.86 182.26 255.36V239.14L182.24 239.15Z" fill="white"/>
<path d="M259.711 336.49C259.821 336.37 259.941 336.27 260.051 336.49H259.711Z" fill="white"/>
<path d="M278.73 336.49C278.84 336.22 278.96 336.28 279.07 336.49H278.73Z" fill="white"/>
<path d="M201.38 215.53H218.93C219.64 216.23 219.87 217.08 220.11 217.85C221.28 221.6 223.01 225.14 224.18 228.88C225.55 233.27 227.58 237.4 229.06 241.75C230.05 244.66 230.97 247.61 232.27 250.41C232.63 251.19 232.65 251.18 233.59 251.27C233.66 251.19 233.79 251.1 233.79 251.01C233.68 248.66 234.7 246.62 235.72 244.64C237.6 240.99 238.91 237.08 240.78 233.44C243.17 228.79 244.8 223.81 247.1 219.12C247.32 218.67 247.47 218.19 247.61 217.7C247.76 217.13 247.94 216.49 248.62 216.24C249.38 216.44 249.66 217.08 249.94 217.68C252.76 223.92 255.48 230.2 258.41 236.39C259.85 239.44 261.23 242.51 262.67 245.55C263.3 246.87 263.79 248.24 264.09 249.67C264.22 250.27 264.38 250.87 264.98 251.28C265.75 250.64 266.2 249.76 266.48 248.89C267.83 244.68 269.17 240.47 270.82 236.37C273.25 230.34 275.24 224.16 277.58 218.1C277.9 217.27 278.32 216.47 278.71 215.62H292.24C292.28 216.24 292.27 216.81 292.04 217.4C291.66 218.33 291.39 219.31 290.97 220.23C289.73 222.92 289.16 225.86 287.9 228.55C287.14 230.17 286.7 231.93 286.07 233.61C284.11 238.85 282.08 244.07 280.15 249.33C278.3 254.37 276.22 259.33 274.47 264.41C273.67 266.73 272.71 269.01 271.82 271.32C270.34 275.18 268.89 279.06 267.48 282.94C267.08 284.04 266.36 285.02 266.35 286.18C266.08 286.51 265.8 286.45 265.63 286.42C260.14 272.54 254.67 258.71 249.18 244.82C248.36 244.65 247.97 245.11 247.83 245.87C247.37 248.44 246.13 250.72 245.22 253.12C244.19 255.84 243.11 258.54 242.01 261.23C240.86 264.03 239.76 266.84 238.76 269.69C237.63 272.9 235.88 275.85 234.98 279.17C234.62 280.49 233.97 281.78 233.41 283.06C232.92 284.19 232.38 285.29 232.38 286.51C231.77 286.74 231.43 286.68 231.27 286.08C230.33 282.62 229 279.3 227.62 276C226.9 274.29 226.56 272.47 225.82 270.77C225.17 269.29 224.69 267.73 224.11 266.21C221.66 259.77 219.21 253.33 216.73 246.9C214.82 241.94 213.2 236.86 211.1 231.97C210.82 231.31 210.69 230.58 210.55 229.87C210.44 229.31 210.27 228.79 209.79 228.23H185C185.66 225.57 186.53 223.16 187.45 220.77C189.99 214.14 193.06 207.75 197.01 201.85C201.7 194.85 207.22 188.57 213.92 183.31C218.28 179.89 222.75 176.68 227.63 174.04C230.26 172.62 232.98 171.38 235.77 170.31C238.65 169.2 241.53 168.07 244.51 167.24C248.18 166.21 251.86 165.17 255.69 164.79C259.33 164.44 262.95 163.87 266.59 163.57C268.49 163.42 270.41 163.48 272.34 163.66C274.81 163.89 277.27 164.23 279.74 164.43C283.29 164.72 286.76 165.36 290.21 166.18C296.2 167.6 302.04 169.59 307.53 172.27C313.59 175.24 319.41 178.68 324.53 183.22C327.18 185.57 329.91 187.83 332.42 190.35C336.78 194.74 340.3 199.74 343.63 204.9C345.77 208.22 347.36 211.83 349.01 215.38C350.32 218.21 351.2 221.24 352.18 224.22C353.08 227 353.65 229.85 354.36 232.66C355.03 235.31 355.37 238.05 355.76 240.76C356.48 245.8 356.13 250.87 356.06 255.92C356.04 257 355.78 258.12 355.8 259.2C354.69 259.73 349.98 259.94 345.62 259.66C345.24 258.71 345.34 257.67 345.5 256.72C345.94 254.05 346.11 251.38 346.1 248.68C346.1 247.55 345.96 246.44 345.76 245.34C345.32 242.91 345.39 240.43 345.08 237.99C344.88 236.37 344.28 234.85 343.98 233.26C342.75 226.71 340.31 220.56 337.23 214.69C334.38 209.26 330.84 204.25 326.71 199.66C322.2 194.64 317.18 190.22 311.55 186.51C306.46 183.16 301.02 180.43 295.31 178.25C291.46 176.78 287.49 175.76 283.47 174.94C281.17 174.48 278.82 174.2 276.44 174.04C273.97 173.88 271.52 173.45 269.03 173.54C261.7 173.79 254.46 174.63 247.42 176.84C240.01 179.17 233.08 182.52 226.59 186.74C221.17 190.26 216.56 194.75 212.03 199.33C208.18 203.23 205.39 207.83 202.63 212.48C202.23 213.16 201.77 213.79 201.35 214.46C201.19 214.72 201.17 214.98 201.39 215.51L201.38 215.53Z" fill="white"/>
<path d="M401.88 217.55C406.35 217.36 410.28 218.58 414.02 220.57C414.89 221.03 415.58 221.71 416.25 222.37C418.87 224.93 421.53 227.49 422.47 231.21C423.07 233.59 423.86 235.96 423.78 238.45C423.63 242.92 422.21 247.03 419.82 250.78C419.04 252.01 417.93 253.06 416.77 253.93C413.93 256.06 410.9 257.82 407.37 258.73C404.85 259.38 402.3 259.61 399.82 259.27C395.62 258.7 391.54 257.61 388.35 254.5C386.37 252.57 384.36 250.68 382.96 248.25C381.4 245.53 380.52 242.65 380.42 239.47C380.25 234.44 381.71 229.97 384.58 225.88C386.86 222.63 390.12 220.63 393.65 219.04C396.3 217.85 399.13 217.34 401.89 217.54L401.88 217.55ZM387.36 238.34C386.73 245.8 394.1 253.36 402 253.41C410.19 253.46 417.08 245.89 417.04 238.56C416.99 230.1 410.37 223.44 402.23 223.17C394.88 222.93 386.84 230.12 387.35 238.33L387.36 238.34Z" fill="white"/>
<path d="M534.291 244.55C535.531 239.78 537.481 235.37 539.141 230.85C540.801 226.35 542.231 221.76 544.211 217.38L544.621 217.36C545.801 220.33 546.921 223.33 548.161 226.28C549.401 229.23 550.391 232.29 551.741 235.2C553.101 238.12 553.581 241.4 555.361 244.53C555.601 244.11 555.721 243.98 555.751 243.83C556.861 238.82 559.021 234.16 560.691 229.33C561.831 226.04 563.331 222.88 564.181 219.49C564.391 218.65 564.951 218.25 565.761 218.23C567.451 218.2 569.141 218.23 571.051 218.23C569.951 221.85 568.461 225.15 567.151 228.51C565.821 231.91 564.541 235.33 563.261 238.75C562.001 242.12 560.881 245.54 559.521 248.87C558.151 252.22 557.241 255.75 555.681 259.02C555.531 259.02 555.381 259.02 555.231 259.02C554.371 256.75 553.531 254.47 552.651 252.21C551.771 249.96 550.861 247.72 549.961 245.48C549.041 243.19 548.171 240.87 547.161 238.61C546.191 236.46 545.811 234.03 544.081 231.76C541.041 241.27 536.511 249.85 533.821 259.19C533.231 259.32 533.081 258.82 532.901 258.34C531.461 254.5 529.951 250.69 528.581 246.82C527.591 244.01 526.491 241.24 525.451 238.45C523.751 233.87 522.071 229.27 520.351 224.7C519.581 222.65 518.641 220.67 517.971 218.39C519.161 218.04 520.341 218.24 521.481 218.26C524.371 218.31 524.191 217.93 525.211 220.8C526.881 225.51 528.791 230.14 530.431 234.87C531.421 237.73 532.751 240.48 533.361 243.47C533.431 243.82 533.571 244.25 534.291 244.56V244.55Z" fill="white"/>
<path d="M617.171 237.34C617.201 242.26 616.061 246.4 613.531 250.07C610.541 254.42 606.301 257.12 601.261 258.53C593.161 260.8 586.091 258.61 580.241 252.91C573.751 246.58 572.231 237.14 576.371 228.96C580.921 219.96 591.771 215.36 601.491 218.06C606.841 219.54 610.941 222.51 614.041 226.95C615.231 228.65 616.131 230.54 616.441 232.66C616.691 234.37 617.481 236.02 617.161 237.34H617.171ZM610.351 238.21C610.271 237.15 610.411 236.09 610.131 235.02C609.281 231.82 607.541 229.21 605.111 226.97C600.001 222.26 593.031 222.31 587.851 225.55C581.921 229.26 577.631 238.93 583.661 247.16C587.181 251.96 593.041 254.19 598.381 253.15C605.951 251.67 610.671 244.57 610.351 238.2V238.21Z" fill="white"/>
<path d="M683.51 258.17V218.48C684.03 218.07 684.49 218.22 684.93 218.23C690.31 218.24 695.69 218.1 701.06 218.5C705.06 218.8 708.66 220.13 711.71 222.77C714.44 225.14 716.14 228.13 716.95 231.62C717.51 234.04 717.84 236.48 717.75 238.98C717.71 240.01 717.48 240.98 717.33 241.98C716.55 247.24 714.45 251.79 709.89 254.89C706.98 256.87 703.68 257.79 700.2 258.1C695.34 258.52 690.48 258.43 685.61 258.42C684.94 258.42 684.26 258.51 683.52 258.18L683.51 258.17ZM689.95 252.26C690.36 252.6 690.7 252.64 691.04 252.6C693.86 252.24 696.7 252.35 699.52 252.36C703.39 252.38 708.08 249.35 709.68 245.13C711.21 241.09 711.25 237.01 710.32 232.86C709.37 228.59 706 225.46 701.68 224.57C698.66 223.95 695.62 223.89 692.57 223.9C691.74 223.9 690.89 223.75 689.95 224.07V252.25V252.26Z" fill="white"/>
<path d="M458.101 218.31H464.231C464.631 218.79 464.481 219.32 464.491 219.81C464.501 227.8 464.611 235.8 464.441 243.79C464.381 246.83 464.001 249.89 462.321 252.66C460.321 255.95 457.461 257.8 453.771 258.71C450.651 259.48 447.481 259.58 444.361 259.27C441.391 258.98 438.541 257.94 436.211 255.91C433.841 253.84 432.381 251.28 431.671 248.21C431.111 245.77 431.041 243.33 431.041 240.86C431.061 233.99 431.041 227.13 431.041 220.26C431.041 219.7 431.041 219.14 431.041 218.42H437.591C437.881 218.66 437.661 219.14 437.661 219.56C437.661 227.67 437.681 235.77 437.651 243.88C437.641 247.33 439.241 249.92 441.961 251.82C445.611 254.37 451.461 254.02 454.761 251.18C455.051 250.93 455.321 250.62 455.531 250.29C456.921 248.15 457.931 245.92 457.901 243.25C457.821 235.65 457.861 228.05 457.881 220.46C457.881 219.8 457.751 219.11 458.081 218.33L458.101 218.31Z" fill="white"/>
<path d="M501.09 258.34C498.95 258.34 496.8 258.34 494.66 258.34C494.09 258.34 493.74 258.02 493.36 257.66C492.63 256.94 492.14 256.05 491.54 255.24C488.22 250.83 484.83 246.48 481.64 241.98C481.24 241.42 480.96 240.62 479.86 240.66V258.22H473.74V218.26C475.3 218.26 476.65 218.24 477.99 218.26C481.32 218.32 484.65 218.15 487.98 218.55C491.57 218.99 494.24 220.6 495.76 223.95C496.13 224.78 496.37 225.67 496.42 226.54C496.53 228.67 496.63 230.79 496.23 232.93C496.02 234.04 495.6 234.91 494.94 235.78C493.53 237.63 491.88 239.03 489.52 239.51C489.02 239.61 488.38 239.62 487.85 240.32C489.07 242.35 490.77 244.13 492.18 246.08C493.66 248.13 495.22 250.13 496.81 252.1C498.35 254.02 499.72 256.06 501.32 257.92C501.25 258.05 501.18 258.19 501.11 258.32L501.09 258.34ZM480.14 234.97C481.94 235.31 484.34 235.26 485.96 234.89C488.39 234.33 489.74 233.02 490.05 230.63C490.41 227.83 489.35 225.53 486.75 224.49C485.03 223.8 483.17 223.58 481.31 223.53C480.92 223.52 480.51 223.47 480.14 223.94V234.97Z" fill="white"/>
<path d="M631.04 240.31V258.21C628.96 258.52 627.08 258.36 625.07 258.28V218.41C625.28 218.32 625.43 218.21 625.58 218.21C629.48 218.22 633.39 218.23 637.29 218.28C638.83 218.3 640.32 218.6 641.76 219.16C645.75 220.7 647.55 223.81 647.96 227.86C648.13 229.55 648.05 231.25 647.62 232.9C646.7 236.4 644.43 238.62 640.92 239.61C640.3 239.79 639.53 239.66 639.08 240.54C643.44 246.3 648 251.98 652.2 257.86C652.08 258.04 652.05 258.12 652.01 258.13C649.9 258.61 647.78 258.44 645.66 258.23C645.14 258.18 644.87 257.61 644.57 257.22C641.71 253.53 638.87 249.82 636.18 245.99C635.02 244.34 633.63 242.85 632.54 241.13C632.27 240.71 631.98 240.09 631.03 240.33L631.04 240.31ZM631.49 235.34C634.15 235.64 636.51 235.26 638.83 234.52C639.54 234.29 640.03 233.77 640.5 233.17C641.6 231.77 641.33 230.18 641.25 228.64C641.15 226.57 639.96 225.18 638.06 224.5C636.31 223.88 634.47 223.55 632.59 223.57C632.2 223.57 631.79 223.55 631.49 223.96V235.34Z" fill="white"/>
<path d="M717.5 276.64C717.8 277.97 717.73 278.9 717.66 279.8C716.04 280.12 610.61 280.17 608.73 279.87C607.95 278.91 608.54 277.86 608.37 276.65C644.86 276.63 681.15 276.63 717.5 276.65V276.64Z" fill="white"/>
<path d="M489.52 276.84C489.87 277.88 490.09 278.83 489.37 280.04C453.27 280.09 417.07 280.05 381.05 280.06C380.44 279.46 380.59 278.93 380.6 278.44C380.6 277.94 380.66 277.44 380.7 276.95C381.99 276.58 487.22 276.46 489.52 276.84Z" fill="white"/>
<path d="M663.351 252.67C668.281 252.61 673.011 252.02 677.841 252.67V258.27H656.751C656.621 257.53 656.611 219.16 656.741 218.35H663.341C663.361 222.21 663.341 225.96 663.341 229.71C663.341 233.54 663.341 237.37 663.341 241.19C663.341 244.95 663.341 248.72 663.341 252.68L663.351 252.67Z" fill="white"/>
<path d="M509.681 267.58C515.001 272.82 520.461 277.91 526.161 283.21C526.661 281.31 526.261 279.71 526.291 278.12C526.321 276.49 526.261 274.86 526.331 273.23C526.401 271.61 526.231 269.99 526.191 268.38C527.411 267.69 528.581 267.99 529.751 268.04C529.921 275.83 529.631 283.56 529.901 291.48C527.721 289.87 526.111 287.77 524.221 285.98C522.341 284.19 520.511 282.35 518.631 280.56C516.711 278.74 514.771 276.96 512.791 274.85C512.271 276.73 512.611 278.39 512.581 280.02C512.541 281.76 512.551 283.51 512.551 285.26C512.551 286.94 512.551 288.62 512.551 290.34C511.571 290.72 510.691 290.52 509.831 290.47C509.411 289.25 509.221 275.21 509.691 267.59L509.681 267.58Z" fill="white"/>
<path d="M588.231 282.1C586.481 281.77 584.721 282.2 582.981 281.95C582.581 281.03 582.731 280.15 582.841 279.17H591.421C591.831 281.29 591.611 283.3 590.901 285.18C589.501 288.9 586.571 290.64 582.681 290.89C581.041 291 579.381 291.08 577.781 290.68C574.351 289.83 571.761 287.86 570.311 284.62C568.511 280.61 568.621 276.59 570.941 272.83C573.531 268.64 579.361 266.59 584.201 267.96C585.671 268.38 587.071 268.94 588.241 269.98C588.671 270.37 589.061 270.74 589.171 271.36C588.621 272.12 588.071 272.9 587.151 273.27C586.651 273.16 586.321 272.85 585.991 272.55C581.431 268.39 574.221 271.58 573.061 277.02C571.931 282.32 573.981 286.33 579.521 287.9C581.801 288.54 586.331 287.96 587.661 284.92C588.021 284.09 588.421 283.29 588.231 282.09V282.1Z" fill="white"/>
<path d="M551.92 268.51C552.43 268.1 552.7 268.03 552.99 268.04C555.14 268.1 557.29 268.11 559.44 268.22C562.88 268.4 564.8 270.43 564.84 273.87C564.84 274.54 564.84 275.22 564.76 275.89C564.54 277.9 563.4 279.15 561.47 279.71C560.99 279.85 560.47 279.92 560.04 280.59C562.24 283.91 564.9 287 567.43 290.35C565.21 290.82 563.54 290.55 562.25 288.66C560.67 286.34 558.87 284.16 557.18 281.91C556.71 281.28 556.24 280.67 555.32 280.23C555.53 283.65 555.68 286.94 555.54 290.27C554.43 290.88 553.32 290.49 551.95 290.44C551.89 283.03 551.92 275.65 551.91 268.49L551.92 268.51ZM556 277.63C557.56 277.88 558.79 277.46 560.02 277.05C560.47 276.9 560.83 276.66 561.04 276.22C562.02 274.11 560.88 271.7 558.6 271.27C557.8 271.12 556.98 270.78 556 271.02C555.85 273.21 555.88 275.37 556 277.62V277.63Z" fill="white"/>
<path d="M496.06 279.96V287.45H504.73C505.08 288.61 505.08 289.58 504.69 290.61C500.63 290.4 496.63 290.61 492.51 290.54V268.4C493.46 268.07 503.22 268 504.79 268.33C505.16 269.12 505.02 269.92 504.82 270.81C503.32 271.09 501.86 270.93 500.41 270.95C499 270.97 497.6 270.95 496.05 270.95C495.76 272.92 495.99 274.81 495.86 276.85C498.87 277.22 501.8 276.33 504.67 276.99C505.25 277.96 505 278.87 504.84 279.95H496.06V279.96Z" fill="white"/>
<path d="M547.62 270.91H538.93C538.41 272.9 538.43 274.8 538.75 276.88C541.74 277.16 544.681 276.6 547.651 277.05C547.921 277.93 547.89 278.8 547.69 279.77C544.75 280.41 541.751 279.62 538.701 280.03V287.38H547.43C548 288.47 547.75 289.4 547.74 290.45H535.23V268.23H547.63C547.87 269.14 547.86 269.9 547.6 270.9L547.62 270.91Z" fill="white"/>
<path d="M610.901 268.45C610.891 268.99 610.541 269.39 610.241 269.77C608.011 272.62 606.411 275.87 604.321 278.81C603.791 279.56 603.591 280.43 603.601 281.37C603.631 283.79 603.621 286.21 603.621 288.63C603.621 289.19 603.711 289.75 603.491 290.38C602.501 290.81 601.451 290.47 600.481 290.46C600.011 290.04 600.121 289.57 600.121 289.13C600.121 286.88 600.041 284.62 600.171 282.38C600.271 280.75 599.721 279.38 598.861 278.12C596.761 275.06 595.131 271.7 592.831 268.76C592.651 268.53 592.561 268.27 592.581 267.87C593.031 267.9 593.501 267.95 593.971 267.96C595.561 268 596.671 268.57 597.411 270.16C598.341 272.2 599.871 273.93 600.821 275.98C601.041 276.46 601.411 276.78 601.831 276.97C602.541 276.92 602.751 276.41 602.981 275.98C604.151 273.8 605.551 271.75 606.951 269.71C608.171 267.93 608.561 267.82 610.911 268.45H610.901Z" fill="white"/>
</svg>
