<svg width="270" height="149" viewBox="0 0 270 149" fill="none" xmlns="http://www.w3.org/2000/svg">
<path d="M66.8164 44.8739C67.8694 40.2996 71.6764 38.9079 76.0924 39.5993C80.7034 40.3204 81.9604 44.2332 81.5284 48.3783H74.9914C74.8414 47.3711 75.3184 45.5175 74.7364 44.7219C73.7974 43.4375 73.1974 45.7083 73.1164 46.3877C72.7384 49.5495 72.8044 56.3439 73.0744 59.5831C73.3204 62.5363 75.2644 61.836 75.2644 60.3818V55.9326H74.1754V50.807H81.5314V66.1809H76.8994V64.5627C74.5654 67.2805 70.2544 67.659 67.9534 64.6521L66.8194 61.5947V44.8739H66.8164Z" fill="white"/>
<path d="M178.789 89.6453H177.7C176.755 88.5695 176.752 86.7517 174.976 87.2166V89.6453H173.887V82.9015C175.204 82.8598 177.868 82.6602 178.399 84.2366C179.014 86.0693 177.484 86.7875 177.481 87.0825C177.478 87.3775 179.029 88.9092 178.792 89.6483L178.789 89.6453ZM177.118 85.8339L176.902 84.3677L174.976 84.2485C174.724 86.1527 175.396 86.552 177.118 85.8309V85.8339Z" fill="white"/>
<path d="M147.46 89.6453C147.061 88.7364 146.995 83.3307 147.442 83.0208L151.003 82.9045L150.745 84.1323L148.543 84.4065V85.6014C148.813 85.8726 152.059 84.8356 150.28 86.9097L148.546 86.9454V88.2954C148.804 88.5576 152.215 87.5504 151 89.6423H147.457L147.46 89.6453Z" fill="white"/>
<path d="M157.267 89.6454L157.033 83.3457C159.451 81.6501 163.564 84.3738 158.356 84.2516V85.6016H160.537L160.504 86.5105C160.255 87.2465 158.911 86.9754 158.359 86.6774V88.2955L160.651 88.2895L160.807 89.6425H157.264L157.267 89.6454Z" fill="white"/>
<path d="M163.803 89.6452C160.506 87.896 160.995 82.8925 165.027 82.8806C165.936 82.8806 167.055 83.0445 167.325 84.0816L166.668 84.7282C162.786 81.8108 161.436 88.8794 165.204 88.4264C165.954 88.337 166.485 87.586 167.343 88.0301C167.529 89.0909 166.662 89.1774 165.981 89.6452H163.803Z" fill="white"/>
<path d="M184.509 89.6453C180.846 88.2417 181.374 82.8985 185.463 82.8807C186.372 82.8777 187.491 83.0416 187.761 84.0816L187.104 84.7283C183.864 82.0522 181.647 87.7649 185.115 88.3847C186.204 88.5784 186.741 87.5742 187.782 88.0301C187.968 89.091 187.101 89.1774 186.42 89.6453H184.512H184.509Z" fill="white"/>
<path d="M152.362 89.6454C151.963 88.7394 151.897 83.3248 152.344 83.0208L153.451 82.9016V88.2954H155.905V89.6454H152.362Z" fill="white"/>
<path d="M170.071 89.6454L170.074 84.2486L168.436 84.2516V82.9016H172.795L172.54 84.1324L171.16 84.2486V89.6454H170.071Z" fill="white"/>
<path d="M179.877 89.6454L179.88 82.9016H180.831L180.969 89.6454H179.877Z" fill="white"/>
<path d="M153.724 61.5915L153.913 61.1058C153.058 60.8018 153.667 59.431 154.267 58.9006L152.908 58.3493C153.742 57.1305 152.371 56.7133 152.368 56.603C152.365 56.5017 153.253 55.7209 152.23 54.8508C151.54 56.2544 150.583 56.2246 150.874 57.95C150.922 58.2301 151.357 58.4894 151.261 58.6145C151.228 58.6592 150.868 58.5847 150.811 58.6801C150.748 58.7844 150.976 59.0109 150.919 59.1092C150.853 59.2195 150.217 59.0377 150.46 59.6992L151.276 60.2416L149.641 60.2476L150.73 61.5915L149.371 61.0551L149.482 62.6822L150.73 63.2097L148.828 62.9385L148.549 64.0173L149.641 64.5566L148.018 64.8278L146.923 62.4021C146.245 63.4958 146.503 64.7623 145.561 65.6354C145.642 63.9517 144.334 61.8031 144.205 60.3429C144.088 59.0407 144.256 56.7997 144.862 55.6405C145.231 54.9342 145.954 54.4664 146.104 53.6379L145.015 53.4979C145.261 52.6277 145.396 52.0555 145.039 51.1764C144.928 50.9023 145.18 50.7115 144.601 50.795L135.208 59.8423L136.297 60.6558L135.469 62.56C135.412 63.0488 136.009 62.864 136.183 63.466C136.396 64.2139 136.39 65.692 135.208 65.3642C135.589 64.5119 135.55 63.755 134.518 63.764C134.557 62.4766 134.359 61.9223 133.435 61.0551C133.339 61.5677 132.571 62.1071 132.541 62.1786C132.391 62.5392 133.444 63.2305 131.119 63.2067L131.935 62.4021L131.125 62.271L131.401 61.7495L130.849 61.5915L131.389 61.0581L130.303 60.781L130.933 60.5187L131.116 59.9764L130.597 59.8572L130.864 59.0645L130.027 58.2152L130.576 57.953C129.28 56.8712 130.873 54.514 128.398 55.9325C129.256 56.7759 128.548 56.9785 128.248 57.8218C128.149 58.099 128.362 58.3851 128.347 58.4894C128.299 58.7844 127.267 58.686 127.852 59.7052C127.171 59.2463 126.931 57.6073 126.841 56.7997C125.611 46.1194 135.007 37.823 145.561 40.6958C153.004 42.7222 157.162 49.8086 156.067 57.2944C155.95 58.093 154.861 62.3693 153.736 61.5945L153.724 61.5915ZM153.721 52.1539C154.777 46.0627 149.284 41.9116 143.647 44.6055C143.914 45.2462 145.162 44.4178 145.708 44.3552C149.581 43.9171 152.365 46.0449 153.385 49.6566L153.721 52.1539Z" fill="white"/>
<path d="M195.816 39.7482C196.995 39.8316 199.089 40.1088 200.13 40.6005C203.871 42.3736 204.354 50.7891 200.586 52.8274C204.528 55.5422 202.527 62.0296 203.037 66.1808H196.77C196.029 64.506 197.079 56.0994 196.05 55.3693C195.708 55.128 195.018 55.125 194.589 55.122V66.1808H188.322V39.7482C190.77 39.8763 193.383 39.5753 195.813 39.7482H195.816ZM194.589 50.5358C197.061 50.9709 196.677 47.7882 196.512 46.0688C196.38 44.686 196.011 44.5072 194.589 44.5996V50.5328V50.5358Z" fill="white"/>
<path d="M85.9835 65.0037C85.1165 64.1425 84.3845 62.4051 84.2495 61.1923C83.8355 57.4852 83.8925 49.0339 84.2405 45.2672C84.9545 37.5043 98.0045 37.0751 98.9315 45.8512C99.2615 48.9773 99.3395 59.9019 98.4335 62.5541C96.8465 67.2059 89.0915 68.085 85.9865 65.0067L85.9835 65.0037ZM92.1155 61.5558C92.3525 61.1088 92.4035 60.6231 92.4395 60.1225C92.7995 55.2442 92.2535 49.7699 92.2955 44.8678C91.1735 43.9649 90.6575 44.5669 90.5225 45.8095C90.1355 49.3736 90.2405 56.466 90.5105 60.1195C90.5465 60.6171 90.5975 61.1059 90.8345 61.5529H92.1185L92.1155 61.5558Z" fill="white"/>
<path d="M186.417 66.1808H179.88L179.451 60.7811H177.426L177.156 66.1808H170.619L173.598 39.8674L183.576 40.0045L186.42 66.1838L186.417 66.1808ZM179.331 55.3903L178.785 47.4366L178.245 45.142L177.696 55.3903H179.331Z" fill="white"/>
<path d="M124.846 48.1101H119.125C118.945 46.8764 119.752 44.7546 118.177 44.3345C115.723 47.6721 120.745 50.1097 122.656 52.297C125.26 55.2741 126.067 59.8245 124.435 63.484C122.32 68.2281 112.777 67.9867 111.34 62.1519C111.061 61.0195 110.653 58.415 111.358 57.5508H116.806C117.94 58.6802 116.251 61.3056 118.162 61.8658C120.73 58.0902 115.477 55.3903 113.407 52.8275C111.094 49.9607 110.617 46.495 111.961 43.0471C113.464 39.194 119.047 38.4937 122.305 40.5081C124.84 42.0756 124.906 45.4639 124.84 48.1131L124.846 48.1101Z" fill="white"/>
<path d="M163.803 61.0553H169.797L169.254 66.1809H157.266V40.1536L157.674 39.7483H163.395L163.803 40.1536V61.0553Z" fill="white"/>
<path d="M126.208 89.3742C126.148 88.9839 126.688 88.9958 126.97 88.9183C129.805 88.1346 132.745 88.0034 135.439 86.5134C140.482 83.7242 132.184 82.9732 132.736 80.0766C133.006 78.6582 137.959 77.8804 137.653 75.7795C137.515 74.8289 136.276 74.3789 136.666 72.9068C136.828 72.2929 138.907 71.0711 139.555 71.4406C135.187 73.7769 140.197 75.1567 140.044 76.7927C139.924 78.0771 136.789 78.4913 137.419 80.5564C137.824 81.8855 144.046 83.7361 145.192 85.1397C146.692 86.9783 142.339 89.3772 141.055 89.3772H126.208V89.3742Z" fill="white"/>
<path d="M94.062 76.4291C94.767 76.5036 94.497 76.4291 94.614 76.0327C94.893 75.094 96.09 69.8075 96.501 69.5393C96.912 69.2711 98.271 69.286 98.562 69.6764L100.461 76.4231L102.543 69.4469L105.231 69.4112L101.991 80.5802L99.369 80.4759L97.467 74.2656L95.565 80.4759L92.961 80.616L89.541 70.2277L89.694 69.5363C90.48 69.3605 91.911 69.131 92.409 69.8373C93.114 70.8356 93.645 75.0195 94.065 76.4261L94.062 76.4291Z" fill="white"/>
<path d="M148.957 69.4171C150.118 69.6198 151.429 70.9459 151.699 72.0932C152.392 75.0255 150.169 75.9046 150.226 76.5125C150.301 77.3141 152.662 80.16 152.092 80.7411C151.273 80.6696 150.163 80.9796 149.482 80.4938C148.864 80.0498 147.91 77.1443 147.688 77.0102C147.346 76.8016 146.314 77.0519 145.822 76.9655L145.567 80.6249L143.098 80.7441V69.4171C144.862 69.6347 147.286 69.1221 148.954 69.4171H148.957ZM148.753 74.206C149.263 73.7083 149.077 72.6892 148.549 72.2452L145.822 72.1111V74.5398C146.581 74.4861 148.207 74.7364 148.753 74.203V74.206Z" fill="white"/>
<path d="M109.788 71.0979C117.861 69.6257 118.026 81.1851 111.099 81.0212C105 80.8782 104.676 72.0306 109.788 71.0979ZM110.61 73.2494C107.805 73.7858 108.003 78.1634 110.559 78.5687C114.843 79.2481 114.648 72.4776 110.61 73.2494Z" fill="white"/>
<path d="M183.828 71.0352C185.895 71.3242 187.425 73.2642 186.783 75.3055C186.537 76.0923 185.616 76.5839 185.604 77.0965L187.233 80.744C184.365 81.3311 184.398 79.3822 183.237 77.4988L181.785 77.5077C181.902 79.6772 182.139 81.8317 179.334 80.3417V71.4405L179.742 71.0352C181.029 71.1603 182.586 70.8623 183.828 71.0352ZM184.17 75.2847C185.562 73.9228 182.493 72.5907 181.908 73.449L181.785 75.6214C182.43 75.6035 183.699 75.7436 184.17 75.2847Z" fill="white"/>
<path d="M176.745 71.0352L177.111 71.4822L177.156 73.1957L173.607 73.3506V74.8168L176.568 74.8525L176.637 76.8134L173.61 76.9683V78.5895L177.171 78.7057C177.624 79.0216 177.57 80.4371 177.018 80.747H171.57L171.162 80.3417V71.4404L171.57 71.0352H176.745Z" fill="white"/>
<path d="M164.352 78.3182C165.069 78.3987 164.781 78.3063 164.898 77.9219C165.216 76.8759 166.563 71.7414 166.932 71.3003C167.373 70.7759 168.612 71.1186 169.251 71.0351L165.993 80.6188C165.138 80.7797 163.545 81.042 163.008 80.3148L159.729 71.4344C160.236 70.7937 161.676 70.8504 162.186 71.4195C163.056 72.394 163.785 76.8759 164.349 78.3153L164.352 78.3182Z" fill="white"/>
<path d="M131.794 71.0352L132.16 71.4822L132.205 73.1957L128.509 73.446L128.389 75.082C133.255 74.2953 133.261 78.2915 128.389 77.5077V80.747H126.211V71.4404L126.619 71.0352H131.794Z" fill="white"/>
<path d="M120.486 78.5864H124.029V80.744H118.443L118.035 80.3387V71.4374C118.578 70.8086 119.943 70.8086 120.486 71.4374V78.5835V78.5864Z" fill="white"/>
<path d="M155.631 71.4405C155.814 70.8594 157.734 70.8147 158.082 71.4405V80.3418C157.539 80.9706 156.174 80.9706 155.631 80.3418V71.4405Z" fill="white"/>
</svg>
