<svg width="271" height="149" viewBox="0 0 271 149" fill="none" xmlns="http://www.w3.org/2000/svg">
<path d="M103.814 75.2876C104.242 76.1548 105.067 76.7746 106.28 76.7746C107.316 76.7746 108.12 76.2859 108.12 75.5081C108.12 74.7303 107.406 74.4383 106.088 74.0211C104.386 73.4787 103.046 72.9185 103.061 71.351C103.073 69.7328 104.618 68.8835 106.109 68.8835C107.765 68.8835 108.819 69.7656 109.322 70.7103L108.247 71.4553C107.864 70.7699 107.138 70.1292 106.109 70.1292C105.257 70.1292 104.453 70.5613 104.453 71.342C104.453 72.1228 105.184 72.3344 106.452 72.7575C108.12 73.3178 109.511 73.7767 109.511 75.4932C109.511 77.2097 107.843 78.0053 106.304 78.0053C104.549 78.0053 103.29 77.1173 102.775 75.9938L103.811 75.2816L103.814 75.2876Z" fill="white"/>
<path d="M118.244 73.4608C118.244 70.8027 120.228 68.8835 122.869 68.8835C125.51 68.8835 127.5 70.8027 127.5 73.4608C127.5 76.119 125.528 78.0113 122.869 78.0113C120.21 78.0113 118.244 76.1369 118.244 73.4608ZM122.869 76.709C124.787 76.709 126.049 75.3978 126.049 73.4459C126.049 71.494 124.79 70.1828 122.869 70.1828C120.948 70.1828 119.695 71.5417 119.695 73.4459C119.695 75.3501 120.975 76.709 122.869 76.709Z" fill="white"/>
<path d="M143.296 77.8801H136.807V69.0146H138.198V76.6315H143.296V77.8772V77.8801Z" fill="white"/>
<path d="M151.143 77.8801L154.843 69.0146H156.346L160.047 77.8801H158.568L157.855 76.0326H153.329L152.615 77.8801H151.137H151.143ZM157.442 74.8882L155.596 70.5464L153.75 74.8882H157.445H157.442Z" fill="white"/>
<path d="M172.694 69.0208C174.54 69.0208 175.741 70.0518 175.741 71.7117C175.741 72.9246 175.037 73.8275 173.928 74.2119L176.099 77.8803H174.492L172.468 74.3996H170.231V77.8803H168.846V69.0208H172.697H172.694ZM170.225 70.2545V73.1778H172.625C173.727 73.1778 174.293 72.5699 174.293 71.7087C174.293 70.8475 173.727 70.2545 172.625 70.2545H170.225Z" fill="white"/>
<path d="M96.018 49.5969H65.097C64.0543 49.5969 63.209 50.4335 63.209 51.4654V54.8656C63.209 55.8975 64.0543 56.734 65.097 56.734H96.018C97.0607 56.734 97.906 55.8975 97.906 54.8656V51.4654C97.906 50.4335 97.0607 49.5969 96.018 49.5969Z" fill="white"/>
<path d="M96.018 72.2659H70.4206V67.933H87.6863C88.7281 67.933 89.5743 67.0956 89.5743 66.0645V62.6644C89.5743 61.6333 88.7281 60.7959 87.6863 60.7959H65.097C64.0551 60.7959 63.209 61.6333 63.209 62.6644V77.5316C63.209 78.5627 64.0551 79.4001 65.097 79.4001H96.018C97.0599 79.4001 97.906 78.5627 97.906 77.5316V74.1314C97.906 73.1003 97.0599 72.2629 96.018 72.2629V72.2659Z" fill="white"/>
<path d="M119.773 50.637H104.769C104.263 50.637 103.854 51.0426 103.854 51.5429V53.1938C103.854 53.6941 104.263 54.0997 104.769 54.0997H119.773C120.279 54.0997 120.689 53.6941 120.689 53.1938V51.5429C120.689 51.0426 120.279 50.637 119.773 50.637Z" fill="white"/>
<path d="M119.773 61.7672H107.352V59.6663H115.729C116.235 59.6663 116.645 59.261 116.645 58.7604V57.1125C116.645 56.6118 116.235 56.2065 115.729 56.2065H104.769C104.263 56.2065 103.854 56.6118 103.854 57.1125V64.327C103.854 64.8277 104.263 65.233 104.769 65.233H119.77C120.276 65.233 120.686 64.8277 120.686 64.327V62.6791C120.686 62.1785 120.276 61.7732 119.77 61.7732L119.773 61.7672Z" fill="white"/>
<path d="M163.518 55.1516C163.518 55.4973 163.479 55.843 163.403 56.1767C163.328 56.5135 163.217 56.8413 163.069 57.1542C163.006 57.2883 162.937 57.4164 162.861 57.5416C162.506 58.1316 162.021 58.6233 161.449 58.9839C160.757 59.419 159.944 59.6633 159.091 59.6633H149.525V64.3211C149.525 64.8217 149.116 65.227 148.61 65.227H146.945C146.439 65.227 146.029 64.8217 146.029 64.3211V57.1065C146.029 56.6059 146.439 56.2006 146.945 56.2006H159.296C160.492 56.0933 160.492 54.204 159.296 54.0997H146.945C146.439 54.0997 146.029 53.6944 146.029 53.1938V51.5458C146.029 51.0452 146.439 50.6399 146.945 50.6399H159.091C160.648 50.6399 162.079 51.4564 162.861 52.7617C162.937 52.8868 163.006 53.015 163.069 53.1491C163.364 53.7778 163.518 54.4603 163.518 55.1516Z" fill="white"/>
<path d="M207.791 55.1516C207.791 55.4972 207.752 55.8429 207.677 56.1767C207.602 56.5134 207.49 56.8412 207.343 57.1541C207.279 57.2882 207.21 57.4164 207.135 57.5415C206.78 58.1316 206.295 58.6233 205.723 58.9839C205.277 59.264 204.78 59.4666 204.253 59.5739L206.867 64.0379C207.177 64.5684 206.792 65.2299 206.174 65.2299H203.802C203.63 65.2299 203.47 65.1405 203.383 64.9915L200.263 59.6663H193.799V64.324C193.799 64.8247 193.389 65.2299 192.883 65.2299H191.218C190.712 65.2299 190.303 64.8247 190.303 64.324V57.1094C190.303 56.6088 190.712 56.2035 191.218 56.2035H203.57C204.765 56.0962 204.765 54.2069 203.57 54.1026H191.218C190.712 54.1026 190.303 53.6973 190.303 53.1967V51.5487C190.303 51.0481 190.712 50.6428 191.218 50.6428H203.365C204.922 50.6428 206.352 51.4593 207.135 52.7646C207.21 52.8897 207.279 53.0179 207.343 53.152C207.638 53.7808 207.791 54.4632 207.791 55.1545V55.1516Z" fill="white"/>
<path d="M188.372 50.637C188.923 50.637 189.29 51.2032 189.062 51.7008L183.124 64.7801C183 65.0542 182.726 65.23 182.422 65.23H179.564C179.321 65.23 179.104 65.081 179.019 64.8546L176.49 58.1496L173.961 64.8546C173.876 65.081 173.657 65.23 173.416 65.23H170.558C170.254 65.23 169.98 65.0542 169.857 64.7801L163.919 51.7008C163.69 51.2032 164.057 50.637 164.608 50.637H166.785C167.083 50.637 167.351 50.8098 167.475 51.075L171.82 60.4948L174.611 53.3398L174.777 52.9196C175.051 52.2193 175.728 51.7574 176.487 51.7574C177.246 51.7574 177.923 52.2193 178.197 52.9196L178.363 53.3398L181.154 60.4948L185.499 51.075C185.623 50.8068 185.894 50.637 186.189 50.637H188.366H188.372Z" fill="white"/>
<path d="M143.617 51.5429V64.3211C143.617 64.8218 143.208 65.2271 142.702 65.2271H141.037C140.531 65.2271 140.121 64.8218 140.121 64.3211V55.3185L135.012 62.0504C134.671 62.4974 134.138 62.7596 133.575 62.7596H133.431C132.865 62.7596 132.332 62.4974 131.994 62.0504L126.885 55.3185V64.3211C126.885 64.8218 126.475 65.2271 125.969 65.2271H124.304C123.798 65.2271 123.389 64.8218 123.389 64.3211V51.5429C123.389 51.0422 123.798 50.637 124.304 50.637H127.207C127.523 50.637 127.821 50.783 128.011 51.0363L133.265 57.9618L133.506 58.2777L133.744 57.9618L138.998 51.0363C139.188 50.786 139.486 50.637 139.802 50.637H142.705C143.211 50.637 143.62 51.0422 143.62 51.5429H143.617Z" fill="white"/>
</svg>
