<svg width="270" height="150" viewBox="0 0 270 150" fill="none" xmlns="http://www.w3.org/2000/svg">
<path d="M69.3391 92.6121C70.4221 90.1881 71.5051 87.7641 72.5911 85.3431C73.3681 83.6091 74.1541 81.8781 74.9311 80.1441C75.0061 79.9791 75.1141 79.9011 75.3001 79.9011C76.0741 79.9071 76.8451 79.9041 77.6191 79.9011C77.7991 79.9011 77.9011 79.9641 77.9791 80.1411C78.7261 81.8271 79.4821 83.5041 80.2381 85.1871C80.7721 86.3781 81.3091 87.5691 81.8461 88.7601C82.4071 90.0021 82.9681 91.2471 83.5351 92.4861C83.6761 92.7921 83.6011 92.9121 83.2651 92.9091C82.3471 92.9031 81.4291 92.9031 80.5081 92.9091C80.2771 92.9091 80.1211 92.8371 80.0221 92.6241C79.2811 91.0311 78.5371 89.4411 77.7901 87.8511C77.3671 86.9481 76.9351 86.0451 76.4821 85.0911C76.0321 85.8621 75.7591 86.6421 75.4171 87.3921C74.6251 89.1351 73.8571 90.8901 73.0831 92.6421C73.0111 92.8011 72.9421 92.9121 72.7411 92.9091C71.6041 92.8941 70.4671 92.8881 69.3301 92.8791C69.3301 92.7921 69.3301 92.7051 69.3301 92.6181L69.3391 92.6121Z" fill="white"/>
<path d="M142.516 36.728C143.98 39.512 145.447 42.296 146.911 45.08C146.986 45.221 147.055 45.365 147.13 45.509C147.232 45.707 147.172 45.818 146.947 45.821C146.713 45.827 146.482 45.827 146.248 45.827C144.367 45.827 142.486 45.824 140.608 45.827C140.308 45.827 140.086 45.767 139.93 45.47C138.406 42.551 136.873 39.641 135.34 36.728C137.734 36.728 140.125 36.728 142.519 36.728H142.516Z" fill="white"/>
<path d="M131.921 36.728C131.522 37.505 131.126 38.282 130.721 39.056C129.602 41.183 128.474 43.307 127.364 45.437C127.217 45.719 127.031 45.833 126.713 45.83C124.643 45.821 122.573 45.827 120.503 45.824C120.026 45.824 120.011 45.791 120.236 45.365C121.682 42.62 123.128 39.875 124.574 37.13C124.64 37.001 124.688 36.863 124.745 36.731C127.139 36.731 129.53 36.731 131.924 36.731L131.921 36.728Z" fill="white"/>
<path d="M119.418 93.167C115.581 93.329 112.638 90.371 112.716 86.3391C112.785 82.6521 115.452 79.6101 119.637 79.7241C123.354 79.8261 126.252 82.5681 126.177 86.657C126.111 90.305 123.474 93.308 119.418 93.167ZM119.424 90.044C120.495 90.044 121.452 89.657 121.908 89.021C122.982 87.515 123.105 85.9401 122.142 84.3441C121.104 82.6221 119.034 82.466 117.723 83.297C116.472 84.086 116.055 85.331 116.115 86.756C116.193 88.553 117.447 90.149 119.427 90.044H119.424Z" fill="white"/>
<path d="M131.315 81.4701C132.044 80.8311 132.821 80.2521 133.76 80.0061C136.829 79.1991 139.658 80.6901 140.531 83.7741C140.798 84.7161 140.879 85.6821 140.879 86.6571C140.879 88.5651 140.87 90.4761 140.885 92.3841C140.888 92.7741 140.78 92.9271 140.369 92.9121C139.583 92.8851 138.794 92.8851 138.008 92.9121C137.609 92.9241 137.48 92.7951 137.483 92.3931C137.501 90.3231 137.504 88.2531 137.483 86.1861C137.474 85.2831 137.264 84.4311 136.628 83.7351C136.001 83.0511 135.197 82.8381 134.309 82.8921C133.226 82.9581 132.422 83.4951 131.879 84.4281C131.588 84.9261 131.426 85.4631 131.426 86.0421C131.426 88.1421 131.414 90.2391 131.432 92.3391C131.435 92.7681 131.33 92.9361 130.874 92.9151C130.073 92.8791 129.269 92.8941 128.468 92.9091C128.15 92.9151 128.033 92.8071 128.033 92.4831C128.042 88.4601 128.039 84.4401 128.033 80.4171C128.033 80.0961 128.141 79.9791 128.462 79.9851C129.206 80.0001 129.95 79.9971 130.694 79.9851C130.943 79.9821 131.051 80.0751 131.111 80.3151C131.204 80.6901 131.099 81.0981 131.315 81.4701Z" fill="white"/>
<path d="M90.577 93.2539C89.119 93.3589 87.775 92.9929 86.554 92.2189C85.102 91.3009 84.217 89.9719 83.905 88.2889C83.533 86.2819 83.629 84.3109 84.733 82.5199C85.744 80.8849 87.301 80.0359 89.161 79.7389C90.898 79.4629 92.587 79.5859 94.105 80.5939C94.453 80.8249 94.768 81.1099 95.101 81.3649C95.326 81.5359 95.26 81.7219 95.113 81.8869C94.552 82.5169 93.892 83.0539 93.358 83.7109C93.205 83.8999 93.052 83.7379 92.908 83.6329C91.768 82.7959 90.538 82.6039 89.2 83.0989C88.138 83.4889 87.184 84.7789 87.133 85.9009C87.103 86.5519 87.088 87.1939 87.307 87.8269C87.733 89.0659 88.903 89.9779 90.208 90.0409C91.252 90.0919 92.239 89.9359 93.061 89.2129C93.262 89.0359 93.463 89.0209 93.664 89.2189C94.255 89.8009 94.84 90.3859 95.44 90.9589C95.644 91.1539 95.548 91.2709 95.395 91.4179C94.21 92.5639 92.812 93.2209 91.144 93.2539C90.955 93.2569 90.766 93.2539 90.574 93.2539H90.577Z" fill="white"/>
<path d="M98.0168 86.1742C98.0168 85.1092 98.0048 84.2362 98.0228 83.3602C98.0288 83.0392 97.9238 82.9162 97.5968 82.9282C97.0868 82.9492 96.5768 82.9222 96.0668 82.9372C95.7728 82.9462 95.6438 82.8442 95.6528 82.5352C95.6678 81.8362 95.6678 81.1372 95.6528 80.4382C95.6468 80.0902 95.8028 79.9762 96.1298 79.9852C96.6248 79.9972 97.1228 79.9762 97.6178 79.9912C97.9208 80.0002 98.0318 79.8922 98.0258 79.5862C98.0108 78.7852 98.0258 77.9842 98.0168 77.1832C98.0138 76.9072 98.0828 76.7752 98.3888 76.7242C99.3038 76.5682 100.234 76.5502 101.152 76.4212C101.419 76.3852 101.404 76.6042 101.404 76.7782C101.407 77.6962 101.422 78.6142 101.398 79.5322C101.389 79.8832 101.461 80.0122 101.845 79.9972C102.676 79.9642 103.507 80.0062 104.338 79.9792C104.764 79.9642 104.947 80.0722 104.917 80.5342C104.878 81.1582 104.89 81.7882 104.917 82.4122C104.932 82.7992 104.818 82.9582 104.404 82.9432C103.573 82.9162 102.742 82.9582 101.911 82.9252C101.491 82.9102 101.398 83.0632 101.401 83.4532C101.419 85.0402 101.437 86.6302 101.401 88.2172C101.368 89.5012 102.232 90.2872 103.648 89.9152C103.942 89.8372 104.257 89.5102 104.518 89.7232C104.722 89.8912 104.758 90.2662 104.854 90.5542C105.034 91.1062 105.199 91.6612 105.385 92.2102C105.448 92.3992 105.418 92.5312 105.232 92.5942C103.627 93.1552 101.998 93.3652 100.39 92.6602C98.9438 92.0272 98.3288 90.7852 98.1098 89.2912C97.9478 88.1872 98.0738 87.0832 98.0258 86.1712L98.0168 86.1742Z" fill="white"/>
<path d="M134.532 68.3809C133.512 68.3809 132.489 68.3839 131.469 68.3809C130.983 68.3809 130.944 68.3149 131.169 67.8829C132.621 65.1229 134.079 62.3659 135.528 59.6029C135.666 59.3419 135.84 59.2099 136.143 59.2129C138.228 59.2189 140.316 59.2129 142.401 59.2189C142.833 59.2189 142.875 59.2939 142.674 59.6779C141.21 62.4649 139.737 65.2459 138.276 68.0359C138.132 68.3119 137.928 68.3929 137.64 68.3899C136.605 68.3839 135.57 68.3899 134.532 68.3899V68.3809Z" fill="white"/>
<path d="M128.66 59.3121C127.625 59.3121 126.59 59.3121 125.555 59.3121C125.093 59.3121 125.057 59.2521 125.276 58.8381C126.734 56.0661 128.195 53.2971 129.653 50.5251C129.77 50.3061 129.923 50.2041 130.169 50.2041C132.284 50.2071 134.396 50.2041 136.511 50.2071C136.931 50.2071 136.964 50.2881 136.73 50.7291C135.386 53.2791 134.006 55.8141 132.71 58.3881C132.35 59.1051 131.948 59.3991 131.15 59.3271C130.325 59.2521 129.491 59.3091 128.66 59.3091V59.3121Z" fill="white"/>
<path d="M116.247 59.312C115.197 59.312 114.147 59.306 113.097 59.315C112.758 59.318 112.677 59.222 112.842 58.91C114.321 56.117 115.794 53.318 117.267 50.519C117.384 50.297 117.552 50.204 117.795 50.204C119.91 50.204 122.025 50.201 124.14 50.204C124.536 50.204 124.569 50.291 124.38 50.654C122.979 53.309 121.569 55.958 120.192 58.625C119.934 59.126 119.64 59.357 119.052 59.324C118.122 59.27 117.186 59.309 116.253 59.309L116.247 59.312Z" fill="white"/>
<path d="M150.972 59.3121C149.952 59.3121 148.929 59.3061 147.909 59.3151C147.615 59.3181 147.426 59.2311 147.282 58.9551C145.857 56.2311 144.417 53.5131 142.983 50.7921C142.701 50.2551 142.731 50.2041 143.322 50.2041C145.305 50.2041 147.291 50.2131 149.274 50.1951C149.694 50.1921 149.937 50.3421 150.132 50.7141C151.533 53.4021 152.955 56.0811 154.368 58.7631C154.635 59.2731 154.614 59.3091 154.035 59.3121C153.015 59.3121 151.992 59.3121 150.972 59.3121Z" fill="white"/>
<path d="M187.649 82.4511C187.649 81.7041 187.658 81.0501 187.646 80.3961C187.64 80.0991 187.745 79.9791 188.051 79.9851C189.326 80.0091 189.104 79.8411 189.107 81.0051C189.119 84.7791 189.11 88.5531 189.11 92.3301C189.11 92.9031 189.11 92.9091 188.528 92.9061C187.526 92.8971 187.661 93.0201 187.652 92.0121C187.646 91.5351 187.652 91.0581 187.652 90.5331C184.892 94.2441 179.9 93.5241 177.746 91.1601C175.034 88.1811 175.529 83.8641 177.89 81.6171C180.953 78.7011 185.816 79.5351 187.652 82.4541L187.649 82.4511ZM177.47 86.4561C177.362 89.3781 179.687 91.5381 182.273 91.6431C185.642 91.7781 187.712 89.3241 187.733 86.5041C187.754 83.4711 185.618 81.3321 182.693 81.2571C179.666 81.1791 177.353 83.5101 177.47 86.4561Z" fill="white"/>
<path d="M162.544 93.0801C158.719 93.1431 155.944 90.3141 155.971 86.4471C155.995 82.5231 158.731 79.6941 162.688 79.7271C166.264 79.7541 169.288 82.4511 169.168 86.7231C169.063 90.3681 166.411 93.1581 162.547 93.0801H162.544ZM162.553 81.1851C159.556 81.1281 157.42 83.4381 157.447 86.5011C157.477 89.5581 159.496 91.5231 162.427 91.6161C165.547 91.7151 167.701 89.5041 167.695 86.4621C167.689 83.3871 165.532 81.1131 162.553 81.1881V81.1851Z" fill="white"/>
<path d="M148.718 93.0711C147.206 93.1581 145.85 92.8011 144.584 92.0691C144.002 91.7331 143.585 91.2291 143.132 90.7611C142.94 90.5631 142.964 90.3891 143.18 90.1791C143.918 89.4651 143.906 89.4591 144.611 90.1551C145.541 91.0731 146.69 91.4781 147.971 91.6281C148.955 91.7421 149.909 91.6521 150.842 91.3521C151.46 91.1541 152.003 90.8301 152.306 90.2001C152.81 89.1561 152.408 88.0971 151.337 87.6651C150.224 87.2151 149.039 87.0801 147.869 86.8701C146.654 86.6511 145.433 86.4351 144.422 85.6431C143.831 85.1811 143.519 84.5541 143.45 83.8161C143.27 81.9081 144.32 80.7081 145.931 80.1891C148.49 79.3611 150.938 79.5801 153.161 81.2301C153.47 81.4581 153.491 81.6501 153.221 81.9261C152.657 82.5081 152.66 82.5231 151.985 82.0791C150.521 81.1131 148.91 81.0381 147.245 81.2961C146.696 81.3801 146.186 81.5841 145.709 81.8751C144.662 82.5111 144.617 83.9961 145.622 84.6831C146.507 85.2891 147.542 85.3941 148.55 85.5831C149.831 85.8231 151.121 86.0031 152.321 86.5761C154.025 87.3921 154.355 89.2101 153.746 90.6921C153.2 92.0211 152.048 92.5731 150.749 92.9061C150.068 93.0801 149.372 93.1221 148.721 93.0771L148.718 93.0711Z" fill="white"/>
<path d="M110.421 86.447C110.421 88.427 110.412 90.41 110.43 92.39C110.433 92.789 110.31 92.924 109.908 92.912C109.092 92.885 108.276 92.894 107.46 92.909C107.136 92.915 107.031 92.795 107.031 92.477C107.037 88.427 107.037 84.377 107.031 80.327C107.031 80.006 107.139 79.889 107.463 79.895C108.294 79.91 109.125 79.913 109.956 79.895C110.319 79.886 110.433 80.015 110.43 80.375C110.418 82.4 110.424 84.425 110.424 86.45L110.421 86.447Z" fill="white"/>
<path d="M193.753 81.9081C194.5 80.7831 195.484 80.2131 196.66 79.9581C197.95 79.6761 199.195 79.7931 200.38 80.4141C200.689 80.5761 200.728 80.7681 200.587 81.0501C200.581 81.0621 200.578 81.0771 200.572 81.0921C200.306 81.6101 199.897 81.7511 199.345 81.5151C197.53 80.7351 195.043 81.7461 194.257 83.5491C193.966 84.2181 193.831 84.8901 193.837 85.6161C193.852 87.8601 193.831 90.1041 193.852 92.3481C193.855 92.7861 193.735 92.9331 193.288 92.9181C192.13 92.8731 192.298 93.0621 192.298 91.9131C192.289 88.1391 192.295 84.3651 192.298 80.5941C192.298 79.9941 192.298 79.9911 192.901 79.9941C193.876 80.0001 193.75 79.8891 193.759 80.8611C193.762 81.1671 193.759 81.4731 193.759 81.9141L193.753 81.9081Z" fill="white"/>
<path d="M173.354 83.8129C173.354 86.6539 173.345 89.4979 173.363 92.3389C173.363 92.7709 173.255 92.9299 172.802 92.9119C171.641 92.8669 171.809 93.0529 171.809 91.9099C171.803 86.4019 171.809 80.8909 171.809 75.3829C171.809 74.6539 171.809 74.6479 172.529 74.6539C173.45 74.6599 173.357 74.5579 173.357 75.4639C173.36 78.2479 173.357 81.0319 173.357 83.8159L173.354 83.8129Z" fill="white"/>
<path d="M110.685 76.5411C110.823 77.4411 109.893 78.5091 108.735 78.4791C107.586 78.4491 106.77 77.6541 106.773 76.4961C106.773 75.3741 107.601 74.5671 108.735 74.5611C109.944 74.5521 110.82 75.5781 110.685 76.5411Z" fill="white"/>
</svg>
