<svg width="900" height="500" viewBox="0 0 900 500" fill="none" xmlns="http://www.w3.org/2000/svg">
<path d="M433.341 194.82C440.331 197.24 442.611 202.38 442.361 209.4C442.091 216.98 442.321 224.58 442.291 232.17C442.261 240.54 438.931 244.52 430.671 245.32C421.321 246.22 411.931 245.53 402.551 245.65C398.651 245.7 394.741 245.82 390.851 245.28C384.051 244.33 380.411 240.39 380.351 233.5C380.281 225.43 380.571 217.34 380.251 209.28C379.961 202.2 382.261 197.13 389.331 194.83H433.351L433.341 194.82ZM411.251 204.2C406.661 204.2 402.071 204.13 397.491 204.22C394.151 204.29 392.541 205.78 392.491 209.02C392.381 216.41 392.391 223.79 392.491 231.18C392.531 234.37 394.241 236.07 397.461 236.1C406.631 236.19 415.811 236.2 424.991 236.1C428.331 236.06 429.801 234.5 429.841 231.18C429.911 223.79 429.911 216.41 429.841 209.02C429.811 205.5 428.591 204.3 425.031 204.22C420.441 204.12 415.861 204.2 411.271 204.2H411.251Z" fill="white"/>
<path d="M509.061 194.82C508.581 200.76 505.171 203.97 498.831 204.13C493.061 204.27 487.291 204.17 481.521 204.18C476.921 204.18 472.331 204.13 467.731 204.22C464.421 204.28 463.331 205.37 463.291 208.68C463.221 215.89 463.251 223.09 463.261 230.3C463.261 235.19 464.211 236.15 469.061 236.16C480.991 236.18 492.921 236.16 504.861 236.19C506.161 236.19 507.891 235.54 508.651 236.94C509.471 238.44 508.401 239.93 507.611 241.27C505.901 244.12 503.171 245.49 500.011 245.53C486.911 245.66 473.801 246.22 460.721 245.25C454.191 244.77 450.911 240.95 450.841 234.43C450.741 225.57 450.991 216.7 450.741 207.84C450.561 201.4 452.741 196.85 459.161 194.83H509.051L509.061 194.82Z" fill="white"/>
<path d="M580.51 283.06C580.51 277.03 580.47 270.99 580.52 264.96C580.58 258.6 583.8 254.92 590.15 254.27C599.5 253.31 608.89 253.98 618.27 253.89C623.24 253.84 628.24 253.49 633.2 254.24C638.98 255.11 641.89 257.91 642.61 263.69C643.28 269.11 642.82 274.57 642.87 280.02C642.94 287.22 642.829 294.42 642.909 301.62C642.929 303.93 642.21 305.08 639.71 304.89C637.67 304.74 635.6 304.75 633.56 304.89C631.06 305.06 630.32 303.93 630.4 301.6C630.52 297.91 630.37 294.21 630.45 290.51C630.49 288.68 629.849 287.88 627.909 287.89C616.969 287.94 606.02 287.94 595.08 287.89C593.23 287.89 592.79 288.56 592.86 290.32C593.01 294.21 592.89 298.1 592.93 301.99C592.95 304.07 592.069 305 589.919 304.88C587.779 304.76 585.619 304.76 583.469 304.88C581.099 305.02 580.449 303.92 580.479 301.74C580.569 295.51 580.51 289.29 580.51 283.06ZM611.33 279.97C616.79 279.97 622.259 279.91 627.719 280C629.759 280.03 630.51 279.27 630.44 277.27C630.33 274.07 630.41 270.86 630.4 267.65C630.4 265.04 628.899 263.5 626.469 263.47C616.619 263.34 606.76 263.37 596.9 263.45C594.42 263.47 592.93 264.86 592.95 267.52C592.96 270.63 593.169 273.76 592.849 276.84C592.559 279.61 593.659 280.09 596.099 280.01C601.169 279.85 606.25 279.96 611.32 279.96L611.33 279.97Z" fill="white"/>
<path d="M651.45 279.57C651.45 272.08 651.52 264.58 651.41 257.09C651.37 254.68 652.24 253.82 654.63 253.83C669.29 253.89 683.95 253.83 698.61 253.89C700.85 253.89 703.1 254.18 705.26 254.86C710 256.36 712.71 259.81 712.9 264.78C713.01 267.89 712.98 271.01 712.94 274.12C712.85 280.5 709.67 284.37 703.39 285.47C701.39 285.82 701.32 286.21 702.54 287.69C706.45 292.42 710.26 297.24 714.09 302.04C714.61 302.69 715.6 303.29 715.09 304.27C714.6 305.21 713.52 304.83 712.69 304.85C705.883 305.023 700.35 302.407 696.09 297C693.73 294.02 691.31 291.09 689 288.07C687.9 286.62 686.6 285.98 684.76 286.01C678.7 286.08 672.64 286.11 666.58 286.01C664.29 285.97 663.45 286.79 663.52 289.07C663.65 293.25 663.46 297.44 663.59 301.62C663.66 303.96 662.91 304.89 660.43 304.92C651.45 305.04 651.45 305.12 651.45 296.22C651.45 290.67 651.45 285.13 651.45 279.58V279.57ZM681.02 277.71C684.54 277.71 688.06 277.71 691.57 277.71C700.58 277.71 701.31 276.95 700.85 268.1C700.69 264.96 699.29 263.37 696.14 263.34C686.08 263.25 676.01 263.31 665.95 263.27C664.18 263.27 663.51 264.04 663.55 265.75C663.61 268.77 663.68 271.79 663.52 274.8C663.4 277.19 664.46 277.8 666.65 277.75C671.44 277.64 676.23 277.72 681.01 277.72L681.02 277.71Z" fill="white"/>
<path d="M479.021 304.87C473.051 304.87 467.091 304.9 461.121 304.87C452.491 304.82 447.951 300.27 447.911 291.62C447.881 283.44 447.881 275.26 447.911 267.08C447.941 259.14 451.441 254.99 459.281 254.25C469.221 253.31 479.221 254.04 489.191 253.88C492.611 253.83 496.031 253.79 499.441 254.27C506.121 255.2 509.791 259.14 509.851 265.81C509.921 274.77 509.911 283.73 509.851 292.69C509.811 300.25 505.451 304.69 497.801 304.84C491.541 304.96 485.281 304.86 479.021 304.86V304.87ZM478.901 295.33C478.901 295.33 478.901 295.33 478.901 295.32C483.591 295.32 488.281 295.4 492.961 295.29C496.131 295.22 497.671 293.72 497.711 290.59C497.801 283.2 497.801 275.81 497.711 268.42C497.671 265.08 496.161 263.46 492.891 263.43C483.611 263.33 474.331 263.33 465.061 263.44C461.891 263.48 460.441 265.09 460.411 268.23C460.341 275.62 460.341 283.01 460.411 290.4C460.441 294.03 461.701 295.24 465.431 295.31C469.921 295.39 474.421 295.33 478.911 295.33H478.901Z" fill="white"/>
<path d="M405.47 304.86C398.14 304.86 390.81 304.89 383.48 304.86C380.41 304.85 379.82 303.94 381.07 301.12C382.98 296.81 386.58 295.35 391.04 295.35C400.72 295.36 410.39 295.35 420.07 295.35C426.2 295.35 427.29 294.27 427.3 288.27C427.3 287.59 427.3 286.91 427.3 286.23C427.24 281.71 425.86 280.25 421.36 280.23C412.37 280.19 403.37 280.25 394.38 280.19C392.34 280.18 390.27 280.01 388.27 279.63C383.21 278.66 380.49 275.36 380.35 270.23C380.29 268.19 380.3 266.14 380.35 264.1C380.47 258.68 383.31 255.32 388.65 254.43C390.67 254.1 392.73 253.91 394.77 253.9C407.77 253.85 420.77 253.87 433.77 253.88C437.75 253.88 438.43 255.09 436.44 258.63C434.53 262.03 431.5 263.4 427.66 263.39C417.4 263.36 407.13 263.36 396.87 263.39C393.32 263.4 392.39 264.35 392.35 267.62C392.32 271.09 393.03 271.88 396.68 271.9C405.57 271.95 414.47 271.91 423.36 271.93C424.73 271.93 426.11 271.93 427.45 272.11C436.14 273.28 439.34 276.95 439.36 285.67C439.36 287.91 439.38 290.15 439.36 292.39C439.28 300.03 434.63 304.74 426.87 304.85C419.74 304.95 412.6 304.87 405.46 304.87L405.47 304.86Z" fill="white"/>
<path d="M184.78 286.06C185.93 256.14 197.16 231.02 222.18 213.27C251.92 192.18 291.24 191.1 320.75 210.32C348.29 228.25 361.69 253.99 361.99 286.62C359.77 262.58 350.05 242.19 331.79 226.14C313.42 210 291.63 201.91 267.46 204.59C218.81 209.98 192.54 238.97 184.79 286.05L184.78 286.06Z" fill="white"/>
<path d="M518.451 279.41C518.451 272.02 518.511 264.62 518.411 257.23C518.381 254.69 519.381 253.86 521.881 253.82C530.911 253.67 530.911 253.61 530.911 262.67C530.911 272.4 530.991 282.13 530.861 291.86C530.821 294.51 531.651 295.43 534.361 295.41C545.591 295.29 556.831 295.35 568.071 295.37C572.091 295.37 572.781 296.56 570.761 300.11C569.061 303.11 566.481 304.87 562.921 304.87C549.141 304.88 535.371 304.83 521.591 304.92C519.061 304.94 518.411 303.87 518.431 301.6C518.501 294.21 518.461 286.81 518.461 279.42L518.451 279.41Z" fill="white"/>
<path d="M338.19 247.94C340.13 248.12 343.32 246.93 343.88 248.39C344.6 250.29 341.62 251.57 340.19 253.02C323.6 269.65 306.91 286.18 290.31 302.8C288.8 304.31 287.3 305.03 285.17 304.9C282.64 304.75 280.09 304.87 277.55 304.85C276.98 304.85 276.29 304.96 275.96 304.38C275.5 303.58 276.26 303.15 276.69 302.67C277.21 302.09 277.78 301.56 278.34 301.01C294.64 284.78 311.01 268.62 327.18 252.26C330.35 249.05 333.44 246.75 338.2 247.94H338.19Z" fill="white"/>
<path d="M210.1 304.84C207.63 304.84 205.97 304.88 204.31 304.83C202.9 304.78 202.52 304.14 203.51 303.02C204.09 302.36 204.73 301.76 205.35 301.14C222.27 284.29 239.23 267.47 256.08 250.55C258.03 248.59 259.98 247.56 262.76 247.81C264.89 248.01 267.05 247.82 269.2 247.87C269.93 247.89 270.93 247.54 271.32 248.39C271.74 249.31 270.72 249.71 270.22 250.22C266.3 254.16 262.35 258.07 258.41 261.99C245.49 274.85 232.51 287.65 219.71 300.62C216.72 303.65 213.84 306.05 210.1 304.85V304.84Z" fill="white"/>
<path d="M245.801 304.87C244.631 304.87 243.451 304.92 242.281 304.85C241.351 304.79 240.081 305.3 239.591 304.31C239.041 303.21 240.381 302.72 240.961 302.01C241.451 301.41 242.051 300.9 242.611 300.35C259.131 283.9 275.701 267.48 292.141 250.94C294.391 248.67 296.661 247.47 299.851 247.82C301.591 248.01 303.371 247.81 305.131 247.87C306.041 247.91 307.311 247.39 307.751 248.49C308.131 249.43 306.901 249.87 306.351 250.5C305.711 251.23 304.981 251.89 304.291 252.57C288.181 268.61 272.011 284.6 256.001 300.74C253.071 303.69 250.271 306.06 245.811 304.88L245.801 304.87Z" fill="white"/>
</svg>
