<svg width="270" height="149" viewBox="0 0 270 149" fill="none" xmlns="http://www.w3.org/2000/svg">
<path d="M54.6719 61.2666C54.8369 61.5974 54.6899 61.961 54.8009 62.3364C54.9869 61.7643 54.9389 61.1832 55.0949 60.5961H58.0559C56.8769 68.3054 59.0279 75.0104 64.5509 80.5532C68.6609 84.6805 73.7699 86.8797 79.6199 87.2105C90.4169 87.8184 98.9159 80.6813 101.778 73.7975C101.145 73.7201 100.524 73.7707 99.9089 73.7618C99.2819 73.7528 98.6519 73.7618 98.0249 73.7618C97.3979 73.7618 96.7679 73.7618 96.1409 73.7618C95.4959 73.7618 94.8509 73.7618 94.2059 73.7618C93.5789 73.7618 92.9489 73.7618 92.3219 73.7618C91.6949 73.7618 91.0649 73.7618 90.4379 73.7618C89.8139 73.7618 89.1899 73.7618 88.5749 73.7618C88.4999 73.3922 88.4639 54.6421 88.5359 54.2815H99.9869V57.9409C97.5539 57.8843 95.1659 57.9886 92.7989 57.8515C92.6489 58.2032 92.5949 60.5574 92.7119 61.4037C95.1179 61.4246 97.5359 61.4186 99.9929 61.4037V65.1645C97.5599 65.1406 95.1569 65.2062 92.8289 65.0959C92.6099 65.2568 92.6249 65.4148 92.6219 65.5638C92.5979 66.9733 92.6219 68.3799 92.6699 69.7894C92.6699 69.8192 92.6969 69.849 92.7509 69.9474H106.329C104.826 75.362 102.363 80.1032 98.0729 83.7627C93.8159 87.3953 88.8749 89.5141 83.2709 90.0862C83.2859 90.1995 83.4359 90.1637 83.4239 90.274H78.2249C78.2489 90.2144 78.2729 90.1577 78.3089 90.0713C77.8949 90.0087 77.4929 89.8925 77.0969 89.8955C76.0949 89.9104 75.1589 89.5915 74.2109 89.3651C72.8129 89.0313 71.4659 88.5307 70.1399 87.9704C68.7149 87.3685 67.3799 86.6086 66.1049 85.7563C64.3709 84.6 62.8319 83.2114 61.4249 81.6767C60.2699 80.4161 59.2649 79.0483 58.3829 77.6C57.5969 76.3127 56.9369 74.9538 56.4029 73.5353C55.6769 71.5953 55.1339 69.6196 54.9809 67.5455C54.9449 67.0568 54.9509 66.5442 54.6779 66.0972V61.2636L54.6719 61.2666Z" fill="white"/>
<path d="M77.9121 90.265C77.9372 90.2374 77.9646 90.2145 77.9897 90.265H77.9121Z" fill="white"/>
<path d="M83.6191 90.2617C83.6442 90.1997 83.6716 90.2135 83.6967 90.2617H83.6191Z" fill="white"/>
<path d="M60.414 54.2279H65.679C65.892 54.4365 65.961 54.6898 66.033 54.9193C66.384 56.0368 66.903 57.0917 67.254 58.2062C67.665 59.5144 68.274 60.7452 68.718 62.0415C69.015 62.9087 69.291 63.7878 69.681 64.6222C69.789 64.8546 69.795 64.8516 70.077 64.8784C70.098 64.8546 70.137 64.8278 70.137 64.801C70.104 64.1007 70.41 63.4927 70.716 62.9027C71.28 61.815 71.673 60.6498 72.234 59.5651C72.951 58.1794 73.44 56.6954 74.13 55.2977C74.196 55.1636 74.241 55.0206 74.283 54.8746C74.328 54.7047 74.382 54.514 74.586 54.4395C74.814 54.4991 74.898 54.6898 74.982 54.8686C75.828 56.7281 76.644 58.5996 77.523 60.4442C77.955 61.3531 78.369 62.268 78.801 63.1739C78.99 63.5672 79.137 63.9755 79.227 64.4016C79.266 64.5804 79.314 64.7592 79.494 64.8814C79.725 64.6907 79.86 64.4285 79.944 64.1692C80.349 62.9146 80.751 61.66 81.246 60.4382C81.975 58.6413 82.572 56.7997 83.274 54.9938C83.37 54.7464 83.496 54.508 83.613 54.2547H87.672C87.684 54.4395 87.681 54.6094 87.612 54.7852C87.498 55.0623 87.417 55.3544 87.291 55.6285C86.919 56.4301 86.748 57.3063 86.37 58.1079C86.142 58.5906 86.01 59.1151 85.821 59.6158C85.233 61.1773 84.624 62.7328 84.045 64.3003C83.49 65.8022 82.866 67.2803 82.341 68.7942C82.101 69.4855 81.813 70.165 81.546 70.8533C81.102 72.0036 80.667 73.1599 80.244 74.3161C80.124 74.6439 79.908 74.9359 79.905 75.2816C79.824 75.38 79.74 75.3621 79.689 75.3531C78.042 71.2169 76.401 67.0956 74.754 62.9563C74.508 62.9057 74.391 63.0428 74.349 63.2692C74.211 64.0351 73.839 64.7145 73.566 65.4297C73.257 66.2403 72.933 67.0449 72.603 67.8465C72.258 68.6809 71.928 69.5183 71.628 70.3676C71.289 71.3242 70.764 72.2033 70.494 73.1926C70.386 73.586 70.191 73.9704 70.023 74.3519C69.876 74.6886 69.714 75.0164 69.714 75.38C69.531 75.4485 69.429 75.4306 69.381 75.2518C69.099 74.2207 68.7 73.2314 68.286 72.248C68.07 71.7384 67.968 71.196 67.746 70.6894C67.551 70.2484 67.407 69.7835 67.233 69.3306C66.498 67.4114 65.763 65.4923 65.019 63.5762C64.446 62.0981 63.96 60.5843 63.33 59.127C63.246 58.9304 63.207 58.7128 63.165 58.5012C63.132 58.3344 63.081 58.1794 62.937 58.0125H55.5C55.698 57.2198 55.959 56.5017 56.235 55.7894C56.997 53.8137 57.918 51.9095 59.103 50.1513C60.51 48.0653 62.166 46.1938 64.176 44.6264C65.484 43.6072 66.825 42.6506 68.289 41.8639C69.078 41.4407 69.894 41.0712 70.731 40.7524C71.595 40.4216 72.459 40.0848 73.353 39.8375C74.454 39.5306 75.558 39.2206 76.707 39.1074C77.799 39.0031 78.885 38.8332 79.977 38.7438C80.547 38.6991 81.123 38.717 81.702 38.7707C82.443 38.8392 83.181 38.9405 83.922 39.0001C84.987 39.0865 86.028 39.2773 87.063 39.5216C88.86 39.9448 90.612 40.5378 92.2591 41.3364C94.0771 42.2215 95.8231 43.2466 97.3591 44.5995C98.1541 45.2998 98.9731 45.9733 99.7261 46.7243C101.034 48.0325 102.09 49.5225 103.089 51.0602C103.731 52.0495 104.208 53.1253 104.703 54.1832C105.096 55.0266 105.36 55.9295 105.654 56.8175C105.924 57.646 106.095 58.4953 106.308 59.3327C106.509 60.1224 106.611 60.9389 106.728 61.7465C106.944 63.2484 106.839 64.7592 106.818 66.2641C106.812 66.586 106.734 66.9197 106.74 67.2416C106.407 67.3995 104.994 67.4621 103.686 67.3787C103.572 67.0956 103.602 66.7856 103.65 66.5025C103.782 65.7069 103.833 64.9112 103.83 64.1066C103.83 63.7699 103.788 63.4391 103.728 63.1113C103.596 62.3872 103.617 61.6481 103.524 60.921C103.464 60.4382 103.284 59.9853 103.194 59.5115C102.825 57.5596 102.093 55.7269 101.169 53.9776C100.314 52.3595 99.2521 50.8665 98.0131 49.4987C96.6601 48.0027 95.1541 46.6855 93.465 45.58C91.938 44.5817 90.306 43.7681 88.593 43.1185C87.438 42.6804 86.247 42.3765 85.041 42.1321C84.351 41.995 83.646 41.9116 82.932 41.8639C82.191 41.8162 81.456 41.6881 80.709 41.7149C78.51 41.7894 76.338 42.0397 74.226 42.6983C72.003 43.3926 69.924 44.3909 67.977 45.6485C66.351 46.6975 64.968 48.0355 63.609 49.4003C62.454 50.5625 61.617 51.9333 60.789 53.319C60.669 53.5217 60.531 53.7094 60.405 53.9091C60.357 53.9865 60.351 54.064 60.417 54.222L60.414 54.2279Z" fill="white"/>
<path d="M120.563 54.8298C121.904 54.7732 123.083 55.1367 124.205 55.7298C124.466 55.8669 124.673 56.0695 124.874 56.2662C125.66 57.029 126.458 57.7919 126.74 58.9005C126.92 59.6097 127.157 60.316 127.133 61.058C127.088 62.3901 126.662 63.6149 125.945 64.7324C125.711 65.0989 125.378 65.4118 125.03 65.6711C124.178 66.3058 123.269 66.8303 122.21 67.1015C121.454 67.2952 120.689 67.3637 119.945 67.2624C118.685 67.0925 117.461 66.7677 116.504 65.8409C115.91 65.2658 115.307 64.7026 114.887 63.9784C114.419 63.1679 114.155 62.3096 114.125 61.362C114.074 59.863 114.512 58.531 115.373 57.3122C116.057 56.3436 117.035 55.7476 118.094 55.2738C118.889 54.9192 119.738 54.7672 120.566 54.8268L120.563 54.8298ZM116.207 61.0252C116.018 63.2483 118.229 65.5012 120.599 65.5161C123.056 65.531 125.123 63.2751 125.111 61.0908C125.096 58.5697 123.11 56.585 120.668 56.5046C118.463 56.433 116.051 58.5757 116.204 61.0223L116.207 61.0252Z" fill="white"/>
<path d="M160.287 62.8758C160.659 61.4544 161.244 60.1402 161.742 58.7932C162.24 57.4522 162.669 56.0844 163.263 54.7792L163.386 54.7732C163.74 55.6583 164.076 56.5523 164.448 57.4314C164.82 58.3105 165.117 59.2223 165.522 60.0895C165.93 60.9597 166.074 61.9371 166.608 62.8699C166.68 62.7447 166.716 62.706 166.725 62.6613C167.058 61.1683 167.706 59.7796 168.207 58.3403C168.549 57.3598 168.999 56.4182 169.254 55.4079C169.317 55.1576 169.485 55.0384 169.728 55.0325C170.235 55.0235 170.742 55.0325 171.315 55.0325C170.985 56.1112 170.538 57.0946 170.145 58.0959C169.746 59.1091 169.362 60.1283 168.978 61.1474C168.6 62.1517 168.264 63.1708 167.856 64.1632C167.445 65.1615 167.172 66.2134 166.704 67.1879C166.659 67.1879 166.614 67.1879 166.569 67.1879C166.311 66.5114 166.059 65.832 165.795 65.1585C165.531 64.488 165.258 63.8205 164.988 63.153C164.712 62.4705 164.451 61.7792 164.148 61.1057C163.857 60.465 163.743 59.7409 163.224 59.0644C162.312 61.8984 160.953 64.4552 160.146 67.2385C159.969 67.2773 159.924 67.1283 159.87 66.9852C159.438 65.8409 158.985 64.7055 158.574 63.5523C158.277 62.7149 157.947 61.8894 157.635 61.058C157.125 59.6932 156.621 58.3224 156.105 56.9605C155.874 56.3496 155.592 55.7596 155.391 55.0801C155.748 54.9758 156.102 55.0354 156.444 55.0414C157.311 55.0563 157.257 54.9431 157.563 55.7983C158.064 57.2019 158.637 58.5816 159.129 59.9912C159.426 60.8435 159.825 61.663 160.008 62.554C160.029 62.6583 160.071 62.7864 160.287 62.8788V62.8758Z" fill="white"/>
<path d="M185.151 60.7274C185.16 62.1935 184.818 63.4272 184.059 64.5209C183.162 65.8172 181.89 66.6218 180.378 67.042C177.948 67.7184 175.827 67.0658 174.072 65.3672C172.125 63.4809 171.669 60.6678 172.911 58.2301C174.276 55.5481 177.531 54.1773 180.447 54.9819C182.052 55.423 183.282 56.308 184.212 57.6311C184.569 58.1377 184.839 58.701 184.932 59.3327C185.007 59.8423 185.244 60.334 185.148 60.7274H185.151ZM183.105 60.9866C183.081 60.6707 183.123 60.3549 183.039 60.036C182.784 59.0824 182.262 58.3046 181.533 57.6371C180 56.2335 177.909 56.2484 176.355 57.2139C174.576 58.3195 173.289 61.2012 175.098 63.6537C176.154 65.0841 177.912 65.7487 179.514 65.4387C181.785 64.9977 183.201 62.8819 183.105 60.9836V60.9866Z" fill="white"/>
<path d="M205.053 66.9347V55.1071C205.209 54.9849 205.347 55.0296 205.479 55.0326C207.093 55.0356 208.707 54.9939 210.318 55.1131C211.518 55.2025 212.598 55.5988 213.513 56.3855C214.332 57.0918 214.842 57.9828 215.085 59.0228C215.253 59.744 215.352 60.4711 215.325 61.2161C215.313 61.5231 215.244 61.8121 215.199 62.1101C214.965 63.6776 214.335 65.0335 212.967 65.9573C212.094 66.5473 211.104 66.8215 210.06 66.9139C208.602 67.039 207.144 67.0122 205.683 67.0092C205.482 67.0092 205.278 67.0361 205.056 66.9377L205.053 66.9347ZM206.985 65.1736C207.108 65.2749 207.21 65.2868 207.312 65.2749C208.158 65.1676 209.01 65.2004 209.856 65.2034C211.017 65.2093 212.424 64.3064 212.904 63.0488C213.363 61.8449 213.375 60.6291 213.096 59.3924C212.811 58.1199 211.8 57.1872 210.504 56.9219C209.598 56.7372 208.686 56.7193 207.771 56.7223C207.522 56.7223 207.267 56.6776 206.985 56.7729V65.1706V65.1736Z" fill="white"/>
<path d="M137.431 55.0564H139.27C139.39 55.1994 139.345 55.3574 139.348 55.5034C139.351 57.8844 139.384 60.2684 139.333 62.6494C139.315 63.5554 139.201 64.4672 138.697 65.2927C138.097 66.2731 137.239 66.8244 136.132 67.0956C135.196 67.3251 134.245 67.3549 133.308 67.2625C132.417 67.1761 131.562 66.8661 130.863 66.2612C130.152 65.6443 129.715 64.8815 129.502 63.9666C129.334 63.2395 129.312 62.5124 129.312 61.7763C129.319 59.729 129.312 57.6848 129.312 55.6375C129.312 55.4706 129.312 55.3037 129.312 55.0892H131.277C131.364 55.1607 131.299 55.3037 131.299 55.4289C131.299 57.8457 131.304 60.2595 131.295 62.6763C131.292 63.7044 131.772 64.4762 132.588 65.0424C133.684 65.8023 135.439 65.698 136.429 64.8517C136.516 64.7772 136.597 64.6848 136.66 64.5864C137.077 63.9487 137.38 63.2842 137.371 62.4885C137.347 60.2237 137.359 57.9589 137.365 55.6971C137.365 55.5004 137.326 55.2948 137.425 55.0624L137.431 55.0564Z" fill="white"/>
<path d="M150.326 66.9853C149.684 66.9853 149.039 66.9853 148.397 66.9853C148.226 66.9853 148.121 66.8899 148.007 66.7827C147.788 66.5681 147.641 66.3029 147.461 66.0615C146.465 64.7473 145.448 63.451 144.491 62.11C144.371 61.9431 144.287 61.7047 143.957 61.7167V66.9495H142.121V55.0415C142.589 55.0415 142.994 55.0355 143.396 55.0415C144.395 55.0593 145.394 55.0087 146.393 55.1279C147.47 55.259 148.271 55.7388 148.727 56.7371C148.838 56.9844 148.91 57.2496 148.925 57.5089C148.958 58.1436 148.988 58.7754 148.868 59.4131C148.805 59.7439 148.679 60.0032 148.481 60.2624C148.058 60.8137 147.563 61.2309 146.855 61.374C146.705 61.4038 146.513 61.4067 146.354 61.6153C146.72 62.2203 147.23 62.7507 147.653 63.3318C148.097 63.9427 148.565 64.5387 149.042 65.1258C149.504 65.6979 149.915 66.3059 150.395 66.8601C150.374 66.8989 150.353 66.9406 150.332 66.9793L150.326 66.9853ZM144.041 60.021C144.581 60.1224 145.301 60.1075 145.787 59.9972C146.516 59.8303 146.921 59.4399 147.014 58.7277C147.122 57.8933 146.804 57.2079 146.024 56.898C145.508 56.6924 144.95 56.6268 144.392 56.6119C144.275 56.6089 144.152 56.594 144.041 56.7341V60.021Z" fill="white"/>
<path d="M189.312 61.6124V66.9466C188.688 67.039 188.124 66.9913 187.521 66.9675V55.0862C187.584 55.0594 187.629 55.0266 187.674 55.0266C188.844 55.0296 190.017 55.0326 191.187 55.0475C191.649 55.0534 192.096 55.1428 192.528 55.3097C193.725 55.7686 194.265 56.6954 194.388 57.9023C194.439 58.4059 194.415 58.9125 194.286 59.4042C194.01 60.4472 193.329 61.1088 192.276 61.4038C192.09 61.4574 191.859 61.4187 191.724 61.6809C193.032 63.3974 194.4 65.0901 195.66 66.8423C195.624 66.8959 195.615 66.9198 195.603 66.9228C194.97 67.0658 194.334 67.0151 193.698 66.9526C193.542 66.9377 193.461 66.7678 193.371 66.6516C192.513 65.552 191.661 64.4464 190.854 63.305C190.506 62.8133 190.089 62.3693 189.762 61.8568C189.681 61.7316 189.594 61.5468 189.309 61.6184L189.312 61.6124ZM189.447 60.1313C190.245 60.2207 190.953 60.1075 191.649 59.887C191.862 59.8184 192.009 59.6635 192.15 59.4847C192.48 59.0675 192.399 58.5937 192.375 58.1347C192.345 57.5179 191.988 57.1037 191.418 56.901C190.893 56.7163 190.341 56.6179 189.777 56.6239C189.66 56.6239 189.537 56.6179 189.447 56.7401V60.1313Z" fill="white"/>
<path d="M215.25 72.4388C215.34 72.8351 215.319 73.1122 215.298 73.3804C214.812 73.4758 183.183 73.4907 182.619 73.4013C182.385 73.1152 182.562 72.8023 182.511 72.4417C193.458 72.4358 204.345 72.4358 215.25 72.4417V72.4388Z" fill="white"/>
<path d="M146.857 72.4983C146.962 72.8082 147.028 73.0913 146.812 73.4519C135.982 73.4668 125.122 73.4549 114.316 73.4579C114.133 73.2791 114.178 73.1211 114.181 72.9751C114.181 72.8261 114.199 72.6771 114.211 72.5311C114.598 72.4208 146.167 72.3851 146.857 72.4983Z" fill="white"/>
<path d="M199.005 65.2957C200.484 65.2778 201.903 65.102 203.352 65.2957V66.9645H197.025C196.986 66.744 196.983 55.3097 197.022 55.0684H199.002C199.008 56.2186 199.002 57.3361 199.002 58.4536C199.002 59.595 199.002 60.7363 199.002 61.8747C199.002 62.9952 199.002 64.1186 199.002 65.2987L199.005 65.2957Z" fill="white"/>
<path d="M152.904 69.7388C154.5 71.3003 156.138 72.8171 157.848 74.3965C157.998 73.8303 157.878 73.3535 157.887 72.8797C157.896 72.394 157.878 71.9082 157.899 71.4225C157.92 70.9397 157.869 70.457 157.857 69.9772C158.223 69.7716 158.574 69.861 158.925 69.8759C158.976 72.1973 158.889 74.5008 158.97 76.861C158.316 76.3812 157.833 75.7554 157.266 75.222C156.702 74.6886 156.153 74.1402 155.589 73.6068C155.013 73.0645 154.431 72.534 153.837 71.9052C153.681 72.4655 153.783 72.9602 153.774 73.4459C153.762 73.9644 153.765 74.4859 153.765 75.0074C153.765 75.5081 153.765 76.0087 153.765 76.5213C153.471 76.6345 153.207 76.5749 152.949 76.56C152.823 76.1964 152.766 72.0125 152.907 69.7418L152.904 69.7388Z" fill="white"/>
<path d="M176.469 74.0657C175.944 73.9674 175.416 74.0955 174.894 74.021C174.774 73.7469 174.819 73.4846 174.852 73.1926H177.426C177.549 73.8243 177.483 74.4233 177.27 74.9835C176.85 76.0921 175.971 76.6106 174.804 76.6851C174.312 76.7179 173.814 76.7417 173.334 76.6225C172.305 76.3692 171.528 75.7822 171.093 74.8167C170.553 73.6217 170.586 72.4237 171.282 71.3032C172.059 70.0546 173.808 69.4437 175.26 69.852C175.701 69.9771 176.121 70.144 176.472 70.4539C176.601 70.5702 176.718 70.6804 176.751 70.8652C176.586 71.0917 176.421 71.3241 176.145 71.4344C175.995 71.4016 175.896 71.3092 175.797 71.2198C174.429 69.9801 172.266 70.9307 171.918 72.5519C171.579 74.1313 172.194 75.3262 173.856 75.7941C174.54 75.9848 175.899 75.812 176.298 74.9061C176.406 74.6587 176.526 74.4203 176.469 74.0627V74.0657Z" fill="white"/>
<path d="M165.575 70.0161C165.728 69.8939 165.809 69.873 165.896 69.876C166.541 69.8939 167.186 69.8969 167.831 69.9296C168.863 69.9833 169.439 70.5882 169.451 71.6133C169.451 71.813 169.451 72.0156 169.427 72.2153C169.361 72.8143 169.019 73.1868 168.44 73.3537C168.296 73.3954 168.14 73.4162 168.011 73.6159C168.671 74.6053 169.469 75.5261 170.228 76.5244C169.562 76.6644 169.061 76.584 168.674 76.0208C168.2 75.3294 167.66 74.6798 167.153 74.0093C167.012 73.8215 166.871 73.6397 166.595 73.5086C166.658 74.5278 166.703 75.5082 166.661 76.5005C166.328 76.6823 165.995 76.5661 165.584 76.5512C165.566 74.343 165.575 72.1438 165.572 70.0101L165.575 70.0161ZM166.799 72.7338C167.267 72.8083 167.636 72.6832 168.005 72.561C168.14 72.5163 168.248 72.4448 168.311 72.3136C168.605 71.6849 168.263 70.9667 167.579 70.8385C167.339 70.7938 167.093 70.6925 166.799 70.764C166.754 71.4167 166.763 72.0603 166.799 72.7308V72.7338Z" fill="white"/>
<path d="M148.817 73.4281V75.6601H151.418C151.523 76.0058 151.523 76.2948 151.406 76.6018C150.188 76.5392 148.988 76.6018 147.752 76.5809V69.9832C148.037 69.8849 150.965 69.864 151.436 69.9623C151.547 70.1978 151.505 70.4362 151.445 70.7014C150.995 70.7848 150.557 70.7371 150.122 70.7431C149.699 70.7491 149.279 70.7431 148.814 70.7431C148.727 71.3302 148.796 71.8934 148.757 72.5013C149.66 72.6116 150.539 72.3463 151.4 72.543C151.574 72.8321 151.499 73.1033 151.451 73.4251H148.817V73.4281Z" fill="white"/>
<path d="M164.285 70.7313H161.678C161.522 71.3243 161.528 71.8905 161.624 72.5103C162.521 72.5938 163.403 72.4269 164.294 72.561C164.375 72.8232 164.366 73.0825 164.306 73.3715C163.424 73.5622 162.524 73.3268 161.609 73.449V75.6393H164.228C164.399 75.9641 164.324 76.2413 164.321 76.5542H160.568V69.9326H164.288C164.36 70.2038 164.357 70.4303 164.279 70.7283L164.285 70.7313Z" fill="white"/>
<path d="M183.27 69.998C183.267 70.159 183.162 70.2782 183.072 70.3914C182.403 71.2407 181.923 72.2092 181.296 73.0853C181.137 73.3088 181.077 73.5681 181.08 73.8482C181.089 74.5694 181.086 75.2905 181.086 76.0117C181.086 76.1786 181.113 76.3454 181.047 76.5332C180.75 76.6613 180.435 76.56 180.144 76.557C180.003 76.4319 180.036 76.2918 180.036 76.1607C180.036 75.4902 180.012 74.8167 180.051 74.1492C180.081 73.6634 179.916 73.2552 179.658 72.8797C179.028 71.9678 178.539 70.9665 177.849 70.0904C177.795 70.0219 177.768 69.9444 177.774 69.8252C177.909 69.8341 178.05 69.849 178.191 69.852C178.668 69.8639 179.001 70.0338 179.223 70.5076C179.502 71.1155 179.961 71.6311 180.246 72.242C180.312 72.385 180.423 72.4804 180.549 72.537C180.762 72.5221 180.825 72.3701 180.894 72.242C181.245 71.5923 181.665 70.9814 182.085 70.3735C182.451 69.8431 182.568 69.8103 183.273 69.998H183.27Z" fill="white"/>
</svg>
