<svg width="900" height="500" viewBox="0 0 900 500" fill="none" xmlns="http://www.w3.org/2000/svg">
<path d="M173.46 209.54C173.91 209.42 174.24 209.14 174.5 208.77C174.89 208.22 175.45 207.9 176.08 207.79C177.17 207.6 178.26 207.48 179.4 206.83C178.86 207.85 177.93 208.06 177.29 208.61C172.95 212.33 168.73 216.17 165.82 221.15C162.66 226.56 160.3 232.33 159.55 238.56C159.01 243.08 158.94 247.71 159.59 252.22C160.29 257.16 161.89 261.91 164.12 266.44C166.53 271.34 169.6 275.74 173.68 279.38C178.83 283.96 184.64 287.52 191.35 289.36C194.44 290.21 197.61 290.8 200.87 290.9C205.76 291.04 210.65 291 215.5 290.5C220.9 289.94 225.98 288.26 230.67 285.47C235.93 282.33 240.17 278.08 243.94 273.35C246.53 270.1 248.58 266.53 250.19 262.71C251.81 258.86 253.16 254.93 253.4 250.71C253.47 249.35 253.88 248.04 253.87 246.66C253.84 242.53 253.42 238.47 252.35 234.44C251.86 232.59 250.75 230.86 250.98 228.84C251.01 228.56 251.03 228.28 251.08 227.65C254.09 230.77 254.07 234.99 256.18 238.19C255.66 232.94 253.78 228.09 251.73 223.28C252.46 223.72 252.89 224.41 253.24 225.1C255.02 228.59 256.19 232.28 257.2 236.07C258.3 240.19 258.4 244.3 258.25 248.45C258 255.74 255.99 262.57 252.31 268.9C252.14 269.19 251.95 269.5 251.87 269.82C251.1 273.06 249.01 275.5 246.81 277.83C243.1 281.76 239.29 285.61 234.45 288.21C232.36 289.34 230.22 290.34 227.85 290.91C226.15 291.31 224.54 292.11 222.77 292.65C223.95 293.03 224.96 293.65 226.12 293.92C226.25 293.95 226.42 293.92 226.55 293.86C231.89 291.53 237.32 289.34 242.1 285.96C244.52 284.25 246.62 282.16 248.46 279.78C251.33 276.07 253.86 272.18 255.88 267.96C258.03 263.47 259.54 258.79 260.35 253.88C260.8 251.15 261.35 248.44 261.23 245.65C261.23 245.47 261.23 245.26 261.46 245.17C261.55 245.19 261.69 245.19 261.71 245.23C262.7 248.82 264.18 252.17 263.22 256.22C262.09 260.94 260.8 265.59 259.44 270.24C259.26 270.85 259.02 271.43 259.27 272.07C259.81 272.31 260.08 271.96 260.39 271.64C261.74 270.22 262.87 268.64 263.87 266.97C264.14 266.52 264.36 266.13 264.98 266.3C265.28 266.76 265.2 267.27 265.01 267.7C262.06 274.15 258.8 280.33 253.89 285.67C250.66 289.18 246.99 292.08 243.41 295.13C241.34 296.9 238.74 297.74 236.47 299.17C235 300.1 233.46 301.03 231.73 301.39C226.39 302.51 221.1 303.89 215.67 304.53C214.89 304.62 214.11 304.6 213.33 304.57C211.43 304.5 209.52 304.29 207.62 304.7C207.2 304.79 206.74 304.78 206.3 304.72C201.89 304.17 197.48 303.6 193.17 302.43C192.17 302.16 191.36 301.5 190.44 301.05C189.58 300.63 188.79 300.3 187.82 300.34C187.35 300.36 186.82 300.27 186.4 300.06C182.18 298.01 177.97 295.95 174.2 293.14C169.17 289.39 164.46 285.28 160.99 280.04C158.32 276.01 155.68 271.91 154.5 267.11C154.05 265.28 153.08 263.61 152.48 261.83C151.66 259.4 151.08 256.89 150.83 254.32C150.69 252.87 150.46 251.43 150.21 250C149.59 246.42 150.47 242.94 150.87 239.44C151.44 234.48 152.92 229.74 154.95 225.22C155.96 222.97 157.37 220.82 158.65 218.65C162.32 212.42 167.33 207.34 172.9 202.82C176.9 199.58 181.49 197.29 186.31 195.46C186.96 195.21 187.63 195.21 188.39 195.26C188.12 195.85 187.68 196.15 187.19 196.33C180.88 198.74 175.2 202.14 170.41 206.91C169.79 207.52 169.03 208.08 168.88 209.09C175.02 203.81 181.51 199.18 189.85 197.45C189.66 198.83 188.74 199.28 187.91 199.65C185.31 200.79 182.79 202.07 180.38 203.55C178.14 204.92 175.86 206.24 174.01 208.14C173.6 208.56 173.36 208.97 173.47 209.55C173.41 209.58 173.35 209.6 173.29 209.63C173.32 209.63 173.36 209.64 173.37 209.63C173.4 209.6 173.42 209.56 173.45 209.53L173.46 209.54ZM255.49 252.85C254.19 254.43 254.84 256.47 254.02 258.2C253.24 259.84 252.93 261.69 252.15 263.35C251.35 265.04 250.54 266.73 249.69 268.4C248.87 270 247.87 271.5 246.74 272.95C247.47 272.52 248.23 272.21 248.66 271.47C249.92 269.35 251.36 267.34 252.38 265.08C253.27 263.12 253.98 261.08 254.79 259.09C255.64 257 255.53 254.96 255.49 252.85ZM200.4 295.99C202.79 296.91 204.88 297.85 207.21 297.71C209.46 297.57 211.8 298.19 214.14 297.11C213.35 296.79 212.73 296.73 212.09 296.74C210.23 296.75 208.38 296.74 206.52 296.74C205.45 296.74 204.43 296.73 203.37 296.3C202.57 295.98 201.62 295.69 200.39 295.99H200.4ZM180.55 288.37C182.31 290.08 188.17 292.98 189.49 292.78C186.57 291.43 183.92 289.52 180.55 288.37ZM170.99 280.16C170.14 278.27 167.6 275.14 166.67 274.9C168.02 276.74 168.97 278.7 170.99 280.16Z" fill="white"/>
<path d="M248.23 248.98C248.04 250.96 247.35 252.8 246.19 254.45C245.63 255.25 245.16 256.09 244.63 256.91C244.14 257.68 243.89 258.48 243.93 259.38C243.96 260.06 243.88 260.74 243.95 261.42C244.1 263 243.56 264.26 242.33 265.27C241.47 265.98 240.84 266.82 241 268.03C241.02 268.22 241 268.44 240.92 268.6C238.94 272.13 236.87 275.58 232.21 276.16C232.21 275.04 231.34 274.03 231.18 273.03C230.85 270.96 230 269.02 229.82 266.94C229.76 266.23 229.93 265.6 230.43 265.06C231.05 264.39 231.13 263.58 230.95 262.74C230.61 261.08 230.31 259.43 228.96 258.16C228.35 257.59 228.59 256.72 228.83 255.96C229.06 255.23 229.48 254.53 229.15 253.69C228.31 253.37 227.41 253.67 226.57 253.48C226.09 252.06 226.1 252.09 224.61 252.34C223.83 252.47 223.1 252.69 222.4 253.05C221.92 253.3 221.38 253.44 220.84 253.35C220.15 253.23 219.51 253.32 218.83 253.49C217.96 253.71 217.15 253.51 216.37 252.92C214.43 251.46 213.04 249.51 211.48 247.72C210.69 246.82 210.77 245.73 211.23 244.7C211.54 243.99 211.66 243.36 211.25 242.63C210.89 242 211.02 241.32 211.31 240.67C212.05 239 212.95 237.46 214.57 236.49C215.22 236.1 215.7 235.66 215.78 234.81C215.88 233.76 216.88 233.41 217.62 232.88C218 232.61 218.62 232.46 218.44 231.84C218.28 231.3 218.07 230.72 217.4 230.53C216.95 230.4 216.35 230.4 216.33 229.75C216.3 228.83 216.15 227.89 216.43 227C216.56 226.59 217.1 226.69 217.48 226.69C218.8 226.69 220.12 226.69 221.52 226.69C221.79 225.55 220.8 225.02 220.25 224.45C219.43 223.6 218.76 222.92 219.15 221.58C219.35 220.89 218.96 220.08 218.03 219.86C217.65 220.31 217.83 220.77 217.74 221.18C217.65 221.58 217.55 221.99 217.06 222C216.52 222.02 215.79 222.36 215.52 221.63C215.26 220.91 215.68 220.47 216.41 220.24C217.22 219.99 218.26 219.91 217.94 218.64C219.47 218.56 222.21 221.19 222.75 223.27C223.89 222.49 225.15 222.02 226.34 221.44C227.11 221.07 226.85 220.17 225.88 219.71C224.94 219.27 224.14 218.72 223.98 217.59C224.63 217.27 225.22 217.4 225.8 217.36C226.4 217.32 226.96 217.22 227.42 216.79C228.14 216.1 229.04 215.93 229.99 215.97C231.77 216.05 233.35 216.48 234.84 217.63C238.8 220.71 241.89 224.45 244.29 228.8C245.21 230.47 245.19 232.55 246.41 234.02C247.58 235.42 247.72 237.11 248.31 238.67C248.46 239.06 248.72 239.58 248.11 239.78C247.56 239.96 247.53 239.44 247.42 239.08C247.31 238.72 247.13 238.46 246.48 238.66C247.22 239.5 247.37 240.62 248.16 241.37C249.54 242.67 249.75 244.76 248.47 246.12C247.86 246.77 247.19 247.44 246.23 247.72C245.05 244.41 243.55 241.31 241.96 238.26C241.53 238.67 241.63 238.98 241.79 239.2C242.82 240.66 243.28 242.36 243.74 244.03C244.19 245.67 245.44 246.85 246.05 248.38C246.19 248.75 246.54 248.8 246.9 248.81C247.32 248.81 247.77 248.55 248.2 248.97L248.23 248.98ZM228.04 230.13C227.52 229.44 227.93 228.98 228.21 228.48C228.61 227.73 228.36 226.97 227.68 227.08C226.1 227.33 224.27 227.03 223.16 228.61C222.36 229.75 221.44 230.72 220.02 231.06C219.72 231.13 219.45 231.3 219.51 231.66C219.58 232.07 219.94 232.22 220.29 232.16C220.76 232.08 221.22 231.89 221.68 231.73C224.19 230.84 226.7 231.17 229.22 231.47C229.32 232.53 228.87 233.66 230.06 234.05C231.54 234.54 232.96 235.13 234.23 235.99C235.5 234.45 235.51 234.44 237.28 235.43C238.37 236.05 239.62 236.09 240.78 236.42C241.07 236.5 241.46 236.45 241.51 236.12C241.61 235.42 242.36 234.91 242.19 234.33C240.51 233.01 237.88 233.41 237.35 230.83C237.33 230.74 237.24 230.67 237.18 230.6C236.99 230.34 236.71 230.24 236.41 230.31C236.06 230.39 236.03 230.69 235.99 230.99C235.94 231.44 236.14 231.94 235.74 232.4C234.3 231.69 234.39 230.05 233.43 229.08C232.42 228.07 231.02 227.78 229.96 226.88C230.41 228.57 232.34 228.86 233.22 230.27C232.37 230.72 231.69 230.62 231.22 229.95C230.58 229.05 229.57 228.71 228.78 228.01C228.44 228.75 228.96 229.61 228.04 230.15V230.13ZM227.27 219.74C226.96 220.57 227.41 220.95 228.06 221.33C229.43 222.13 231 221.91 232.45 222.24C232.89 222.34 233.35 222.38 233.68 222C234.08 221.56 233.88 221.07 233.64 220.65C233.17 219.82 232.75 218.97 232.71 217.82C231.93 218.4 231.07 218.69 231.26 219.74C231.4 220.54 230.99 220.91 230.3 221.11C229.65 221.3 229.06 221.29 228.62 220.66C228.3 220.2 228 219.66 227.25 219.73L227.27 219.74ZM238.15 230.29C240.06 229.62 241.47 231.14 243.23 231.2C242.45 229.88 241.34 229.04 239.97 228.55C238.34 227.97 238.01 228.24 238.15 230.29ZM219.53 222.57C220.356 223.443 221.036 223.597 221.57 223.03C220.99 222.65 220.43 222.35 219.53 222.57Z" fill="white"/>
<path d="M307.889 250.8C308.079 251.37 308.569 251.73 309.049 252.01C313.539 254.68 314.249 258.87 313.719 263.52C313.099 268.92 309.019 272.42 304.189 273.46C301.219 274.1 298.209 274.47 295.169 274.47C290.279 274.47 285.379 274.47 280.489 274.44C278.379 274.43 278.239 274.16 278.249 272.03C278.289 263.68 278.279 255.33 278.299 246.98C278.299 243.58 278.309 240.18 278.359 236.78C278.409 233.25 280.249 231.43 283.839 231.4C289.269 231.36 294.709 231.24 300.139 231.44C304.669 231.6 308.809 232.84 311.399 237.06C311.939 237.94 312.159 238.86 312.239 239.8C312.499 242.61 312.659 245.43 310.949 247.96C310.339 248.86 309.679 249.67 308.629 250.1C308.319 250.23 307.999 250.39 307.899 250.8H307.889ZM287.219 266.33C291.309 266.33 295.269 266.33 299.229 266.33C299.969 266.33 300.669 266.06 301.359 265.81C305.179 264.45 306.029 259.68 302.959 257C301.279 255.54 299.229 255.43 297.189 255.36C294.309 255.26 291.419 255.4 288.539 255.24C287.259 255.17 287.079 255.35 287.069 256.63C287.049 259.64 287.069 262.65 287.079 265.65C287.079 265.83 287.159 266.01 287.229 266.33H287.219ZM287.159 247.6C287.409 247.64 287.599 247.7 287.779 247.7C291.689 247.7 295.609 247.7 299.519 247.7C300.619 247.7 301.499 247.2 302.289 246.52C304.439 244.64 303.849 240.59 301.289 239.7C300.189 239.32 299.039 239.03 297.859 239C294.679 238.92 291.499 239.12 288.319 238.83C287.459 238.75 287.049 239.19 287.059 240.03C287.059 241 287.059 241.97 287.079 242.94C287.119 244.48 286.949 246.02 287.149 247.6H287.159Z" fill="white"/>
<path d="M375.481 271.02C374.881 270.98 374.621 271.13 374.451 271.38C373.491 272.86 371.951 273.53 370.431 274.18C368.821 274.87 367.031 274.69 365.361 274.58C361.141 274.3 358.001 272.1 355.631 268.69C352.921 264.8 352.511 260.4 352.731 255.88C352.851 253.47 353.201 251.11 354.191 248.81C355.331 246.16 357.051 244.07 359.321 242.41C360.501 241.55 361.981 241.17 363.411 240.9C368.201 240.01 372.801 240.51 377.241 242.69C381.441 244.75 383.411 248.15 383.751 252.62C384.301 259.94 383.971 267.27 383.951 274.6C383.951 277.11 383.451 279.5 382.031 281.65C380.421 284.1 378.201 285.68 375.411 286.64C371.091 288.14 366.721 288.61 362.311 287.3C357.911 285.99 355.121 282.98 353.751 278.66C353.441 277.7 353.661 277.45 354.711 277.43C356.811 277.41 358.921 277.45 361.021 277.43C362.041 277.42 362.761 277.97 363.491 278.55C365.171 279.9 366.991 280.86 369.251 280.58C372.541 280.17 375.211 277.21 375.461 273.65C375.521 272.8 375.461 271.93 375.461 271.04L375.481 271.02ZM361.411 258.22C361.411 259.09 361.331 259.98 361.421 260.84C362.031 266.35 365.791 268.52 370.791 267.21C372.241 266.83 373.511 265.88 374.131 264.52C376.181 259.98 376.211 255.42 373.781 250.96C372.341 248.33 369.971 247.61 367.181 247.97C364.831 248.27 363.431 249.79 362.451 251.83C361.471 253.87 361.251 256 361.421 258.21L361.411 258.22Z" fill="white"/>
<path d="M611.189 260.74C612.169 260.74 613.149 260.77 614.119 260.74C614.799 260.71 615.199 260.97 615.449 261.61C615.779 262.47 616.089 263.36 616.599 264.11C617.969 266.1 619.999 267.13 622.349 267.5C624.229 267.8 626.119 267.83 628.039 267.56C629.729 267.32 631.119 266.65 632.259 265.47C633.549 264.13 633.429 261.92 632.149 260.6C630.649 259.06 628.789 258.1 626.799 257.41C623.479 256.26 620.019 255.6 616.629 254.7C614.309 254.09 611.949 253.27 610.339 251.5C607.839 248.76 606.819 245.37 607.289 241.68C607.569 239.46 608.329 237.36 609.679 235.5C611.149 233.46 613.269 232.36 615.539 231.58C620.569 229.85 625.659 229.74 630.819 231.14C635.059 232.3 637.849 235 639.529 238.9C640.089 240.19 640.129 241.64 640.269 243.04C640.329 243.64 640.039 243.93 639.409 243.92C637.699 243.9 635.979 243.87 634.289 243.58C633.159 243.38 632.239 242.67 631.609 241.69C628.979 237.63 623.699 236.68 619.629 238.08C617.089 238.96 615.989 240.81 616.279 243.34C616.409 244.46 617.099 245.09 617.909 245.61C619.269 246.48 620.769 247.07 622.329 247.49C625.679 248.38 629.109 248.93 632.419 249.99C634.869 250.77 637.069 251.99 639.069 253.57C639.459 253.88 639.699 254.3 639.949 254.72C642.609 258.98 642.449 263.33 640.449 267.77C639.199 270.55 637.009 272.24 634.249 273.41C629.149 275.58 623.869 275.61 618.579 274.63C612.719 273.54 608.759 270.12 607.059 264.36C606.819 263.54 606.869 262.63 606.819 261.76C606.779 261.09 607.159 260.81 607.819 260.82C608.939 260.83 610.069 260.82 611.199 260.82V260.76L611.189 260.74Z" fill="white"/>
<path d="M441.47 274.5C441.18 274.03 441.3 273.58 441.3 273.16C441.3 260.74 441.3 248.32 441.3 235.9C441.3 233.45 443.36 231.4 445.84 231.4C450.97 231.39 456.11 231.27 461.24 231.43C469.51 231.68 473.94 236.01 474.45 243.95C474.63 246.74 474.35 249.5 473.17 252.06C471.29 256.14 468.02 258.36 463.5 258.82C459.64 259.21 455.78 259.08 451.92 259.03C450.45 259.01 450.24 259.21 450.25 260.68C450.27 264.61 450.28 268.54 450.29 272.47C450.29 272.86 450.24 273.24 450.21 273.63C450.16 274.27 449.81 274.62 449.15 274.52C446.58 274.12 444 274.32 441.46 274.52L441.47 274.5ZM455.77 251.2C457.19 251.2 458.61 251.24 460.03 251.18C461.83 251.11 463.46 250.33 464.39 248.89C465.84 246.64 465.99 244.07 464.7 241.67C463.54 239.52 461.41 238.91 459.09 238.89C456.74 238.87 454.39 238.85 452.04 238.85C450.58 238.85 450.23 239.18 450.24 240.67C450.28 243.83 450.36 246.98 450.21 250.14C450.17 250.99 450.57 251.23 451.36 251.2C452.83 251.16 454.3 251.19 455.76 251.19L455.77 251.2Z" fill="white"/>
<path d="M388.54 231.39C389.99 231.39 391.35 231.35 392.72 231.4C394.64 231.48 396.62 233.51 396.65 235.43C396.68 238.05 396.65 240.67 396.65 243.29C396.65 243.86 396.56 244.43 396.79 244.99C397.19 244.96 397.41 244.66 397.62 244.43C400.78 240.9 404.76 239.84 409.3 240.73C412.3 241.32 414.54 243.21 416.51 245.44C418.49 247.67 419.13 250.35 419.27 253.23C419.57 259.87 419.39 266.52 419.52 273.17C419.55 274.5 419.46 274.54 418.11 274.52C416.25 274.5 414.39 274.49 412.53 274.44C411.16 274.4 410.88 274.1 410.93 272.78C411.13 267.64 410.99 262.49 411.02 257.35C411.03 255.26 410.88 253.16 409.65 251.34C408.28 249.31 406.57 247.82 403.9 247.98C401.06 248.15 399.01 249.53 397.86 252.1C397.05 253.93 396.64 255.87 396.65 257.9C396.67 262.95 396.67 267.99 396.67 273.04C396.67 273.47 396.77 273.91 396.53 274.42H388.59C388.26 273.28 388.19 234.4 388.53 231.39H388.54Z" fill="white"/>
<path d="M586.85 259.84C586.04 260.05 585.31 259.96 584.58 259.96C578.56 259.96 572.54 259.94 566.52 259.94C564.82 259.94 564.69 260.09 565.18 261.69C565.48 262.66 565.83 263.63 566.31 264.52C568.41 268.42 574.23 268.26 576.35 265.95C577.65 264.53 579.24 263.91 581.2 264.02C582.9 264.11 584.61 264.04 586.45 264.04C585.88 266.76 584.62 268.92 582.74 270.67C579.74 273.46 576.19 274.81 572 274.89C567.84 274.97 564.17 274.03 561.06 271.24C559.44 269.79 558.21 268.07 557.45 266.02C555.47 260.63 555.49 255.2 557.24 249.78C559.11 243.99 564.06 240.8 569.79 240.49C572.9 240.32 575.98 240.64 578.82 241.97C582.05 243.48 584.26 246.05 585.59 249.31C586.72 252.1 587.19 256.61 586.84 259.86L586.85 259.84ZM571.25 254.33C571.25 254.33 571.25 254.34 571.25 254.35C572.96 254.35 574.67 254.33 576.37 254.35C577.23 254.37 577.59 254.07 577.58 253.17C577.57 251.82 576.99 250.72 576.19 249.74C574.66 247.85 571.95 247.22 569.38 248.05C567.24 248.74 565.12 251.34 564.98 253.44C564.93 254.21 565.38 254.32 565.98 254.32C567.74 254.32 569.49 254.32 571.25 254.32V254.33Z" fill="white"/>
<path d="M519.731 256.4C519.621 259 519.971 262.19 519.181 265.37C518.211 269.27 515.871 271.83 512.181 273.34C507.921 275.08 503.501 275.23 499.071 274.46C495.991 273.93 493.571 272.06 492.141 269.32C491.221 267.55 491.241 265.47 491.291 263.47C491.401 258.66 494.121 256.31 498.921 254.74C501.421 253.92 504.091 253.72 506.681 253.23C507.791 253.02 508.871 252.69 509.831 252.1C510.641 251.61 511.341 250.98 511.231 249.89C511.141 248.99 510.291 248.02 509.181 247.87C507.361 247.63 505.541 247.15 503.661 247.63C502.731 247.87 501.881 248.13 501.241 248.86C500.731 249.44 500.111 249.74 499.311 249.74C497.251 249.74 495.201 249.78 493.141 249.76C492.061 249.75 491.831 249.4 492.191 248.39C493.751 244.07 496.911 241.51 501.391 240.77C505.571 240.09 509.741 240.26 513.821 241.73C517.501 243.05 519.581 245.62 519.711 249.54C519.781 251.63 519.721 253.72 519.721 256.39L519.731 256.4ZM511.441 257.88C510.631 258.09 510.031 258.24 509.431 258.4C508.021 258.76 506.701 259.45 505.231 259.59C504.041 259.7 502.961 260.13 501.891 260.6C500.111 261.38 499.251 263.11 499.711 265.01C499.931 265.93 500.031 267 501.091 267.42C505.331 269.09 510.191 266.76 511.151 262.35C511.451 260.97 511.381 259.58 511.421 257.88H511.441Z" fill="white"/>
<path d="M723.5 255.95C723.43 258.9 723.79 261.89 723.21 264.81C722.39 268.94 720.08 271.88 716.02 273.43C711.97 274.97 707.74 275.09 703.62 274.45C700.07 273.9 697.2 271.96 695.87 268.2C694.82 265.24 695.13 262.5 696.26 259.72C697.53 256.6 700.45 255.71 703.25 254.73C705.66 253.89 708.19 253.57 710.71 253.28C711.84 253.15 712.89 252.74 713.9 252.24C714.59 251.9 715 251.39 715.01 250.53C715.03 248.65 714.57 248.03 712.69 247.71C711.58 247.52 710.47 247.33 709.34 247.41C707.81 247.51 706.34 247.7 705.2 248.91C704.54 249.62 703.67 249.86 702.67 249.81C700.91 249.72 699.15 249.76 697.39 249.67C696.14 249.6 695.95 249.24 696.45 248.08C698.33 243.78 701.52 241.21 706.31 240.68C710.34 240.24 714.31 240.26 718.11 241.85C721.39 243.22 723.44 245.55 723.48 249.26C723.51 251.49 723.48 253.72 723.48 255.95H723.5ZM715.55 260.06C715.58 258.06 715.22 257.79 713.06 258.39C712.69 258.49 712.32 258.63 711.95 258.75C711.4 258.94 710.86 259.26 710.29 259.29C708.53 259.39 706.99 260.12 705.47 260.88C703.1 262.06 702.82 265.63 704.94 267.12C707.87 269.17 713.41 267.63 714.75 264.33C715.28 263.04 715.57 261.65 715.55 260.06Z" fill="white"/>
<path d="M523.739 274.33C523.459 273.88 523.519 273.53 523.519 273.2C523.519 266.46 523.419 259.71 523.559 252.97C523.659 248.17 525.659 244.41 530.309 242.3C536.479 239.5 542.469 239.87 548.219 243.28C550.179 244.44 551.449 246.28 552.029 248.58C552.729 251.34 552.929 254.11 552.899 256.94C552.839 262.28 552.889 267.61 552.879 272.95C552.879 274.49 552.869 274.5 551.349 274.43C550.129 274.37 548.899 274.36 547.689 274.19C545.519 273.89 544.389 272.73 544.139 270.59C544.019 269.58 544.059 268.56 544.059 267.54C544.059 263.27 544.059 259 544.059 254.73C544.059 253.76 543.999 252.79 543.789 251.84C543.249 249.36 541.559 247.9 539.009 247.7C537.689 247.6 536.379 247.61 535.159 248.26C532.909 249.45 532.369 251.54 532.359 253.79C532.309 259.9 532.359 266.02 532.339 272.13C532.339 274.28 532.879 274.73 529.899 274.38C527.879 274.14 525.799 274.33 523.739 274.33Z" fill="white"/>
<path d="M186.84 276.39C186.65 276.86 187.27 277.14 186.95 277.55C185.744 277.743 184.757 278.527 183.99 279.9C182.19 278.66 180.54 277.31 180.22 275.05C179.88 272.66 179.11 270.33 179.22 267.87C179.28 266.54 178.67 265.47 177.52 264.68C176.57 264.03 176.02 263.08 175.67 261.96C175.34 260.9 174.75 259.92 174.44 258.86C173.92 257.1 173.42 255.31 174.47 253.53C174.81 252.96 174.59 252.29 174.62 251.67C174.67 250.79 173.93 250.76 173.37 250.5C173.11 250.38 172.8 250.2 172.7 249.97C172.12 248.65 171.04 247.73 170.15 246.65C169.19 245.49 169.37 244.82 170.69 243.94C171.04 243.71 171.31 243.29 171.82 243.33C172.14 243.59 171.95 243.85 171.8 244.08C171.26 244.93 171 245.68 172.3 246.1C172.71 246.23 172.61 246.66 172.61 246.99C172.61 247.47 172.58 247.95 172.78 248.42C173.47 250.02 174.56 250.31 175.81 249.16C176.41 248.61 177.06 248.45 177.83 248.7C178.89 249.05 179.91 249.54 181.09 249.21C181.57 249.08 181.88 249.51 182.19 249.81C182.75 250.35 183.29 250.92 183.86 251.44C184.41 251.94 185.08 252.23 185.83 252.32C187.6 252.52 187.76 252.66 188.08 254.42C188.21 255.13 188.21 255.85 188.29 256.77C189.97 256.36 191.21 257.61 192.68 257.86C194.43 258.16 195.84 259.04 197.36 259.79C198.46 260.33 198.72 260.94 198.22 262.1C197.83 263 197.22 263.78 196.54 264.47C195.94 265.09 195.74 265.73 195.79 266.56C195.85 267.58 195.82 268.59 195.24 269.51C194.68 270.41 194.13 271.12 192.86 271.07C191.73 271.02 191.1 271.73 190.71 272.87C190.1 274.65 189.03 276.12 186.83 276.36L186.84 276.39Z" fill="white"/>
<path d="M603.4 267.52C603.4 269.46 603.38 271.24 603.4 273.03C603.41 274.15 602.65 274.46 601.77 274.48C599.86 274.54 597.949 274.59 596.049 274.41C595.269 274.34 594.489 274.25 593.719 274.14C590.989 273.76 589.35 271.9 589.33 269.14C589.26 256.71 589.299 244.28 589.309 231.85C589.309 231.76 589.349 231.67 589.409 231.45C591.119 231.45 592.87 231.3 594.59 231.49C596.67 231.71 597.939 233.29 598.059 235.55C598.129 236.91 598.06 238.27 598.08 239.63C598.09 241.24 598.199 241.33 599.869 241.28C600.649 241.26 601.439 241.29 602.219 241.25C603.139 241.2 603.369 241.66 603.409 242.48C603.509 245.01 602.239 246.64 599.669 247.17C598.259 247.46 598.059 247.71 598.059 249.09C598.069 254.19 598.07 259.29 598.08 264.38C598.08 264.77 598.049 265.16 598.099 265.54C598.279 267 598.9 267.53 600.39 267.53C601.32 267.53 602.25 267.53 603.39 267.53L603.4 267.52Z" fill="white"/>
<path d="M667.97 273.42C670.36 273.54 671.8 271.82 673.63 271.11C672.48 273.66 664.43 276.66 659.27 275.59C650.91 273.86 643.09 267.33 643.21 257.08C643.33 247.02 649.98 240.83 659.25 238.49C664.28 237.22 673.91 241.15 675.3 244.56C673.43 245.62 672.96 245.74 671.95 244.03C670.65 241.84 668.37 241.69 666.45 240.78C665.83 240.48 665.12 240.55 664.62 241.43C664.03 242.48 663.21 243.41 661.69 243.11C660.98 242.97 660.41 243.49 660.31 244.15C660.19 244.93 660.9 245.05 661.5 245.09C662.31 245.15 662.98 245.52 663.7 245.85C664.64 246.27 665.08 246.01 665.18 244.98C665.23 244.41 665.15 243.82 665.12 243.24C665.05 241.96 665.76 241.38 666.89 242.02C667.78 242.52 668.84 243.08 668.84 244.35C668.84 245 669.27 245.11 669.71 245.34C670.62 245.81 671.44 246.38 671.6 247.51C671.14 247.88 670.69 247.91 670.43 247.49C670.11 246.98 669.84 246.28 669.17 246.8C668.57 247.26 669.39 247.71 669.54 248.36C666.67 249.01 665.14 251.04 664.25 253.65C663.81 253.83 663.59 253.57 663.33 253.33C662.1 252.22 659.39 252.89 658.74 254.44C658.56 254.88 658.77 255.19 658.98 255.51C659.22 255.89 659.72 255.99 659.9 256.41C660.51 256.19 661.18 255.37 661.6 255.86C662.4 256.79 663.74 257.5 663.53 259.17C662.51 259.01 661.85 258.26 661.04 257.81C660.39 257.45 659.75 257.1 658.99 257.12C658.08 257.14 657.29 256.8 656.87 256.05C655.98 254.46 654.26 253.74 653.15 252.39C652.27 251.33 651.36 250.39 651.49 248.84C651.56 248.01 650.31 246.73 649.49 246.58C648.84 246.45 648.25 246.48 647.87 247.19C646.95 248.89 645.84 250.48 645.62 252.49C645.5 253.59 644.8 254.54 644.78 255.71C644.68 263.58 648.07 269.4 655.13 273.03C658.03 274.52 661.2 274.71 664.41 274.56C664.97 274.53 665.33 274.28 665.49 273.75C665.99 272.08 666.85 270.55 667.29 268.85C667.48 268.09 667.37 267.54 666.81 267.02C666.35 266.59 665.91 266.13 665.48 265.67C664.31 264.42 664.13 263.35 664.88 261.85C665.05 261.5 665.22 261.16 665.23 260.76C665.25 259.38 665.89 258.79 667.35 258.84C669.56 258.92 671.58 259.49 673.19 261.11C673.91 261.84 674.68 262.48 675.75 262.72C676.52 262.89 676.81 263.48 676.42 264.16C675.63 265.51 675.16 266.97 673.9 268.15C672.19 269.75 670.6 271.43 668.47 272.5C668.35 272.56 668.25 272.7 668.18 272.82C668.11 272.94 668.1 273.09 667.99 273.47L667.97 273.42ZM659 242.82C659.35 240.96 659.35 240.95 661.1 241.19C661.77 241.28 662.1 241.04 662.14 240.29C660.91 240.07 659.63 239.34 658.56 239.91C657.53 240.46 656.23 240.57 655.34 241.59C656.75 241.44 657.67 242.53 658.99 242.82H659Z" fill="white"/>
<path d="M437.709 267.52V274.45C434.369 274.66 431.119 274.48 427.919 273.81C426.199 273.45 424.989 272.32 424.499 270.56C424.199 269.48 423.949 268.4 423.949 267.27C423.949 255.48 423.949 243.69 423.969 231.9C423.969 231.81 424.009 231.71 424.069 231.41C425.799 231.38 427.609 231.16 429.359 231.53C431.339 231.94 432.629 233.72 432.769 235.94C432.849 237.15 432.799 238.36 432.809 239.58C432.829 241.08 433.029 241.28 434.479 241.28C434.769 241.28 435.069 241.23 435.359 241.28C436.139 241.4 437.319 240.8 437.619 241.67C438.009 242.81 438.079 244.17 437.259 245.3C436.469 246.39 435.369 246.99 434.029 247.05C433.079 247.09 432.759 247.54 432.769 248.43C432.809 254.01 432.799 259.59 432.849 265.17C432.869 267.25 433.199 267.5 435.259 267.51C436.029 267.51 436.809 267.51 437.699 267.51L437.709 267.52Z" fill="white"/>
<path d="M478.879 231.41C480.779 231.41 482.529 231.31 484.269 231.44C486.239 231.58 487.719 233.24 487.979 235.35C488.039 235.83 488.019 236.32 488.019 236.8C488.019 248.78 488.019 260.77 488.019 272.75C488.019 273.757 487.502 274.263 486.469 274.27C484.419 274.28 482.359 274.31 480.309 274.29C478.889 274.28 478.879 274.25 478.879 272.79C478.879 260.76 478.879 248.73 478.879 236.7V231.41Z" fill="white"/>
<path d="M683.27 274.51V231.44C684.94 231.44 686.53 231.23 688.03 231.49C690.26 231.87 691.85 233.12 691.83 235.86C691.77 243.29 691.789 250.71 691.789 258.14C691.789 263.04 691.699 267.94 691.859 272.85C691.909 274.54 691.89 274.53 690.18 274.53C687.94 274.52 685.7 274.53 683.27 274.53V274.51Z" fill="white"/>
<path d="M749.999 241.64C748.629 244.54 747.639 247.25 746.549 250.04C745.369 250.04 744.199 250.04 743.039 250.04C739.869 250.07 737.429 251.96 736.649 255.01C736.299 256.38 736.179 257.78 736.189 259.19C736.229 263.95 736.259 268.7 736.279 273.46C736.279 273.74 736.209 274.03 736.179 274.3C735.659 274.67 735.109 274.5 734.589 274.5C732.729 274.52 730.869 274.5 729.019 274.5C727.709 274.5 727.619 274.45 727.609 273.11C727.599 271.46 727.629 269.81 727.639 268.16C727.649 264.28 727.619 260.4 727.669 256.51C727.709 253.23 728.709 250.25 730.509 247.49C732.349 244.67 735.079 243.1 738.179 242.25C741.939 241.22 745.829 241.59 750.009 241.64H749.999Z" fill="white"/>
<path d="M326.17 264.08C326.17 266.8 326.17 269.52 326.17 272.23C326.17 274.08 325.77 274.49 323.96 274.48C322.25 274.48 320.53 274.48 318.82 274.42C317.05 274.36 316.75 274.05 316.77 272.36C316.82 267.46 316.59 262.56 317.02 257.67C317.22 255.45 317.39 253.18 318.12 251.09C319.33 247.63 321.7 245.04 325.01 243.32C328.03 241.75 331.39 241.58 334.65 241.03C335.55 240.88 335.91 241.25 335.91 242.12C335.91 244.45 335.93 246.78 335.96 249.11C335.96 249.91 335.5 250.05 334.82 250.05C333.46 250.05 332.09 249.95 330.74 250.3C327.83 251.05 326.18 253.08 326.18 256.08C326.18 258.75 326.18 261.42 326.18 264.09L326.17 264.08Z" fill="white"/>
<path d="M340.44 241.01C342.22 241.06 344 240.96 345.7 241.39C347.44 241.83 348.6 242.93 348.88 244.8C349.02 245.72 349.01 246.64 349.02 247.56C349.04 255.96 349.06 264.36 349.08 272.76C349.08 274.47 349 274.53 347.25 274.51C345.39 274.49 343.53 274.48 341.67 274.48C340.3 274.48 340.28 274.48 340.28 273.12C340.28 267.15 340.28 261.18 340.28 255.2C340.28 251.07 340.28 246.95 340.28 242.82C340.28 242.29 340.2 241.75 340.45 241.01H340.44Z" fill="white"/>
<path d="M212.52 210.01C210.76 209.95 209.31 210.61 208.24 211.92C206.96 213.5 205.15 213.86 203.34 214.16C202.26 214.34 201.26 214.59 200.33 215.18C199.85 215.48 199.26 215.63 198.71 215.82C197.41 216.27 196.22 216.81 195.3 217.94C194.24 219.26 190.84 218.72 190.02 217.23C189.55 216.37 190.32 216.07 190.78 215.65C190.19 215.07 189.39 215.32 188.85 214.9C191.12 211.04 206.45 207.82 212.53 210.01H212.52Z" fill="white"/>
<path d="M181.33 220.65C182.3 219.25 183.26 218.03 185.27 218.01C184.84 218.86 184.24 219.34 183.57 219.77C182.99 220.14 182.84 220.53 183.59 220.91C184.58 221.41 185.21 222.48 186.41 222.67C186.52 222.69 186.68 222.86 186.69 222.96C186.72 224.17 187.84 224.71 188.34 225.72C187.49 226.2 186.36 225.58 185.57 226.39C185.34 225.91 185.72 225.69 185.77 225.38C185.86 224.87 185.57 224.56 185.12 224.71C184.03 225.06 182.96 225.51 181.89 225.94C181.84 225.96 181.84 226.12 181.82 226.22C182.19 226.99 183.28 226.47 183.68 227.35C183.41 228.04 182.69 228.34 182.02 228.44C179.49 228.82 178.23 230.74 177.01 232.57C176.16 233.84 175.65 235.35 174.67 236.58C174.19 237.18 173.79 237.81 174.3 238.68C174.53 239.08 174.45 239.7 174.22 240.24C173.47 239.86 173.68 239.06 173.43 238.5C172.57 238.09 171.81 238.84 170.91 238.67C170.71 237.89 171.05 237.16 171.31 236.49C171.98 234.73 172.79 233.01 173.51 231.26C173.84 230.46 174.65 230.24 175.2 229.74C174.88 227.86 175.02 227.54 176.73 226.66C177.45 226.29 177.75 225.67 178.08 225.01C178.81 223.56 179.27 221.89 181.11 221.17C181.42 221.77 181.85 222.29 182.65 221.98C182.9 221.88 182.93 221.57 182.88 221.34C182.7 220.54 181.95 221.08 181.36 220.66L181.33 220.65Z" fill="white"/>
<path d="M340.33 238.38V231.38C342.51 231.54 344.65 230.98 346.72 231.95C347.94 232.53 348.65 233.38 348.77 234.72C348.84 235.59 348.89 236.46 348.94 237.33C348.98 238.05 348.66 238.39 347.9 238.38C345.41 238.36 342.93 238.38 340.33 238.38Z" fill="white"/>
<path d="M238.37 208.06C237.77 208.12 237.4 207.7 236.95 207.41C234.6 205.86 232.1 204.57 229.57 203.34C227.16 202.17 224.66 201.27 222.09 200.58C219.61 199.91 217.06 199.47 214.54 198.94C213.59 198.74 212.64 198.58 211.51 198.37C214.74 197.82 218.3 198.45 222.35 199.57C227.85 201.1 232.77 203.75 237.39 207.02C237.8 207.31 238.13 207.64 238.35 208.08L238.37 208.06Z" fill="white"/>
<path d="M240.979 203.14C242.279 203.01 242.86 204.12 243.6 204.79C246.09 207.04 248.49 209.39 250.66 211.96C250.86 212.2 251.119 212.45 251.109 213.11C247.669 209.66 244.209 206.52 240.999 203.12L240.979 203.14Z" fill="white"/>
<path d="M254.939 223.88C256.759 226.34 258.179 230.63 258.399 233.11C256.979 230.01 256.019 226.91 254.939 223.88Z" fill="white"/>
<path d="M206.81 214.73C208.51 214.97 209.95 214.85 211.4 214.76C211.78 214.74 212.25 214.67 212.36 215.17C212.47 215.68 212 215.78 211.66 215.93C209.96 216.67 208 216.24 206.82 214.72L206.81 214.73Z" fill="white"/>
<path d="M246.69 262.27C246.39 264.6 245.12 266.38 244.22 268.31C243.68 266.59 245.07 263.27 246.69 262.27Z" fill="white"/>
<path d="M680.301 258.88C679.521 257.42 679.701 255.47 680.611 254.64C681.111 256.14 681.011 257.87 680.301 258.88Z" fill="white"/>
<path d="M178.43 244.25C176.55 244.1 175.1 242.96 173.42 242.22C173.66 242.19 173.9 242.11 174.13 242.14C175.54 242.32 176.71 243.3 178.18 243.31C178.34 243.31 178.5 243.65 178.44 244.24L178.43 244.25Z" fill="white"/>
<path d="M244 213.77C245.46 214.45 246.35 215.64 246.54 217.05C245.36 216.1 244.54 215.04 244 213.77Z" fill="white"/>
<path d="M266.35 266.41C266.06 264.66 266.71 263.35 267.91 262.23C267.3 263.55 267.49 265.16 266.35 266.41Z" fill="white"/>
<path d="M241.01 203.12C240.82 203.09 240.61 203.08 240.58 202.83C240.58 202.79 240.71 202.67 240.76 202.69C240.99 202.75 241.01 202.94 240.99 203.14L241.01 203.12Z" fill="white"/>
<path d="M268.199 261.42C268.199 261.42 268.159 261.48 268.139 261.51C268.139 261.48 268.109 261.44 268.109 261.41C268.109 261.38 268.139 261.35 268.159 261.32C268.159 261.36 268.179 261.39 268.189 261.43L268.199 261.42Z" fill="white"/>
<path d="M238.35 208.08C238.35 208.08 238.43 208.16 238.47 208.2C238.45 208.19 238.41 208.18 238.4 208.17C238.38 208.14 238.38 208.1 238.37 208.07L238.35 208.09V208.08Z" fill="white"/>
</svg>
