<svg width="269" height="148" viewBox="0 0 269 148" fill="none" xmlns="http://www.w3.org/2000/svg">
<path d="M195.884 62.6148C195.767 62.6621 195.576 62.6828 195.546 62.7628C193.558 68.1766 189.09 70.2634 183.842 70.9146C178.961 71.5214 174.02 71.0774 168.972 71.1484C169.247 70.0177 169.456 69.0853 169.698 68.1618C170.134 66.4983 169.857 64.1658 171.175 63.3488C172.445 62.5615 174.567 63.112 176.318 63.0943C178.201 63.0765 180.087 63.1446 181.964 63.0617C184.385 62.9581 186.065 61.4367 186.041 59.5097C186.017 57.5265 184.356 56.0702 181.896 56.0672C161.9 56.0465 141.901 56.0554 121.906 56.0584C120.483 56.0584 119.213 56.381 119.195 58.0978C119.177 59.9093 120.525 60.2793 121.995 60.2852C127.71 60.3059 133.422 60.2941 139.137 60.2971C141.346 60.2971 143.539 60.4096 145.67 61.0637C148.901 62.0583 151.158 63.9645 151.505 67.481C151.905 71.5628 151.095 75.1681 147.078 77.3319C144.439 78.7527 141.546 79.1611 138.626 79.1671C117.33 79.2055 96.034 79.1789 74.7411 79.2144C73.4888 79.2144 73.1152 78.9214 73.1212 77.6397C73.178 68.1914 73.163 58.746 73.1331 49.2977C73.1301 48.3061 73.2616 47.8325 74.4632 47.8384C86.4755 47.8828 98.4849 47.8651 110.497 47.868C110.724 47.868 110.952 47.9065 111.549 47.9628C108.892 50.0229 107.449 52.4294 107.048 55.3983C106.902 56.4816 106.071 56.0376 105.545 56.0376C98.6642 56.0702 91.7808 56.0968 84.9004 56.0288C83.4567 56.014 82.9397 56.2833 82.9068 57.8728C82.8739 59.6192 83.666 59.6666 84.993 59.6548C90.1877 59.6074 95.3824 59.7317 100.574 59.5837C102.4 59.5304 102.816 60.1195 102.639 61.7415C102.508 62.9492 102.541 64.1865 102.633 65.4001C102.723 66.6078 102.248 66.9067 101.076 66.8949C95.6245 66.8387 90.1668 66.9748 84.7181 66.815C82.6468 66.7558 83.0353 67.9102 82.9695 69.0942C82.8978 70.3877 82.9576 71.1425 84.736 71.1366C102.654 71.0596 120.573 71.0922 138.494 71.0774C139.197 71.0774 139.914 70.9827 140.601 70.8287C141.716 70.5742 142.164 69.7987 142.141 68.6916C142.12 67.626 141.531 67.0015 140.565 66.7617C139.884 66.593 139.158 66.5545 138.452 66.5515C132.349 66.5249 126.249 66.5427 120.145 66.4924C117.431 66.4687 114.843 65.8175 112.682 64.1421C107.924 60.4539 108.91 52.24 114.413 49.5316C115.626 48.9336 116.899 48.4689 118.265 48.2528C118.839 48.1611 122.826 47.8473 123.305 47.8473C142.218 47.8621 161.129 47.8621 180.043 47.8473C180.521 47.8473 182.939 47.9302 183.208 47.9628C188.988 48.6524 193.663 50.8872 195.713 56.7717C195.725 56.8072 195.83 56.8102 195.893 56.828V62.6118L195.884 62.6148Z" fill="white"/>
<path d="M154.502 80.4102C154.992 75.7394 155.449 71.3497 155.916 66.957C156.137 64.8525 156.427 62.7538 156.576 60.6463C156.657 59.4978 157.114 59.1338 158.268 59.1574C161.508 59.2255 164.754 59.2462 167.994 59.1515C169.5 59.1071 169.551 59.6903 169.252 60.8802C168.203 65.0419 167.279 69.2333 166.2 73.3832C165.887 74.5879 166.224 74.7685 167.259 74.4873C168.879 74.0462 170.498 73.5963 172.118 73.1523C172.615 73.0162 173.188 72.7409 173.58 73.1938C173.909 73.5756 173.535 74.0403 173.368 74.4399C168.902 85.164 164.434 95.8881 159.957 106.609C159.819 106.938 159.718 107.382 159.102 107.284C160.196 98.2887 161.254 89.2903 162.414 80.3007C162.635 78.5869 162.348 78.1251 160.587 78.7438C158.707 79.4068 156.738 79.8094 154.511 80.4043L154.502 80.4102Z" fill="white"/>
</svg>
