<svg width="329" height="183" viewBox="0 0 329 183" fill="none" xmlns="http://www.w3.org/2000/svg">
<path d="M224.082 86.5407C224.082 89.8932 224.082 93.2458 224.082 96.5983C224.082 96.8728 224.056 97.14 224.009 97.4072C223.95 97.7549 223.91 98.1062 223.873 98.4539C223.833 98.8273 223.738 99.1896 223.639 99.5519C223.57 99.8155 223.501 100.079 223.427 100.339C223.38 100.5 223.329 100.661 223.259 100.815C223.102 101.162 222.938 101.506 222.766 101.85C222.685 102.015 222.59 102.172 222.492 102.326C222.119 102.901 221.698 103.443 221.271 103.981C220.927 104.412 220.554 104.822 220.086 105.133C219.944 105.229 219.812 105.331 219.677 105.434C219.15 105.832 218.558 106.122 217.97 106.414C217.626 106.586 217.282 106.755 216.921 106.887C216.405 107.073 215.879 107.22 215.356 107.373C215.012 107.476 214.665 107.523 214.31 107.556C213.985 107.589 213.663 107.63 213.349 107.71C213.016 107.794 212.68 107.831 212.336 107.827C212.004 107.827 211.671 107.853 211.339 107.871C210.567 107.915 209.8 107.911 209.032 107.827C208.988 107.824 208.944 107.82 208.9 107.824C208.414 107.849 207.942 107.769 207.471 107.67C207.043 107.582 206.612 107.531 206.181 107.461C206.071 107.443 205.961 107.421 205.855 107.392C205.541 107.307 205.226 107.227 204.912 107.135C204.755 107.092 204.601 107.037 204.451 106.978C204.144 106.854 203.837 106.726 203.53 106.597C202.949 106.352 202.393 106.067 201.86 105.73C201.673 105.613 201.505 105.463 201.337 105.32C201.085 105.104 200.829 104.892 200.591 104.658C200.35 104.42 200.123 104.167 199.897 103.915C199.696 103.688 199.502 103.457 199.308 103.227C199.279 103.194 199.25 103.161 199.228 103.12C198.917 102.597 198.603 102.074 198.361 101.51C198.131 100.972 197.952 100.423 197.791 99.8667C197.696 99.5373 197.641 99.1933 197.557 98.8602C197.44 98.41 197.385 97.9525 197.371 97.4877C197.352 96.796 197.338 96.1079 197.323 95.4161C197.268 92.7187 197.301 90.0213 197.298 87.3202C197.294 84.5496 197.298 81.7753 197.298 79.0047C197.298 78.108 197.298 77.2113 197.301 76.3146C197.301 76.2268 197.316 76.1389 197.319 76.0511C197.334 75.7546 197.502 75.5607 197.751 75.4252C197.828 75.385 197.919 75.3703 198.003 75.352C198.047 75.3411 198.091 75.352 198.135 75.352C199.845 75.352 201.556 75.352 203.267 75.352C203.399 75.352 203.538 75.3594 203.662 75.396C203.914 75.4728 204.115 75.6156 204.144 75.9084C204.155 76.0255 204.166 76.1426 204.166 76.2597C204.166 81.0104 204.166 85.7611 204.166 90.5117C204.166 92.4076 204.166 94.3072 204.166 96.203C204.166 97.0778 204.375 97.9049 204.737 98.6992C204.996 99.2665 205.347 99.7752 205.764 100.236C205.954 100.445 206.181 100.61 206.418 100.763C206.839 101.031 207.295 101.225 207.763 101.386C207.88 101.426 208.008 101.448 208.129 101.477C208.235 101.503 208.348 101.521 208.451 101.561C208.787 101.693 209.134 101.744 209.489 101.781C210.012 101.836 210.538 101.825 211.064 101.828C211.518 101.832 211.964 101.785 212.41 101.693C212.984 101.572 213.546 101.422 214.088 101.195C214.541 101.005 214.954 100.745 215.316 100.412C215.626 100.127 215.919 99.8228 216.146 99.4678C216.274 99.2701 216.398 99.0652 216.493 98.8529C216.785 98.1977 216.968 97.5133 217.074 96.8033C217.209 95.8919 217.209 94.9696 217.209 94.0546C217.217 88.6635 217.209 83.2759 217.209 77.8848C217.209 77.2955 217.202 76.7099 217.202 76.1206C217.202 75.9889 217.224 75.8571 217.25 75.729C217.279 75.5826 217.377 75.4838 217.52 75.4289C217.659 75.374 217.805 75.3557 217.955 75.3557C218.661 75.3557 219.362 75.3557 220.068 75.3557C221.143 75.3557 222.217 75.3557 223.289 75.3557C223.347 75.3557 223.406 75.3557 223.468 75.3557C223.837 75.3374 224.016 75.6082 224.049 75.8461C224.071 76.0145 224.089 76.1829 224.089 76.3512C224.089 79.7477 224.089 83.1442 224.089 86.5443L224.082 86.5407Z" fill="white"/>
<path d="M164.733 96.1155C164.733 99.1679 164.733 102.217 164.733 105.269C164.733 105.749 164.722 106.224 164.711 106.704C164.711 106.777 164.711 106.85 164.696 106.923C164.634 107.268 164.349 107.513 163.991 107.502C162.156 107.443 160.317 107.487 158.482 107.472C158.168 107.472 157.985 107.326 157.923 107.019C157.871 106.766 157.861 106.51 157.861 106.25C157.861 104.676 157.864 103.102 157.864 101.529C157.864 96.9609 157.864 92.3969 157.864 87.8292C157.864 87.573 157.853 87.3132 157.857 87.057C157.864 86.6068 157.791 86.1639 157.692 85.7284C157.601 85.3368 157.513 84.9415 157.415 84.5499C157.338 84.2424 157.213 83.9496 157.053 83.6788C156.749 83.1774 156.369 82.7455 155.908 82.3722C155.466 82.0135 154.973 81.7536 154.457 81.5304C154.424 81.5157 154.388 81.5011 154.355 81.4901C153.872 81.373 153.393 81.2559 152.911 81.1461C152.776 81.1168 152.633 81.1095 152.49 81.0985C151.968 81.0619 151.441 80.996 150.915 81.0399C150.261 81.0948 149.603 81.1461 148.97 81.351C148.871 81.384 148.769 81.4059 148.67 81.4279C148.027 81.5816 147.449 81.8671 146.934 82.2807C146.872 82.3319 146.806 82.3831 146.744 82.4344C146.17 82.8919 145.768 83.4665 145.475 84.1326C145.132 84.9159 144.975 85.743 144.85 86.5812C144.817 86.8117 144.828 87.0497 144.828 87.2876C144.828 93.4107 144.828 99.5376 144.828 105.661C144.828 105.866 144.828 106.074 144.828 106.279C144.821 106.492 144.814 106.704 144.796 106.916C144.77 107.22 144.54 107.443 144.233 107.472C144.181 107.476 144.13 107.472 144.075 107.472C142.262 107.472 140.445 107.472 138.632 107.472C138.475 107.472 138.325 107.451 138.183 107.377C138.077 107.322 138.004 107.246 137.985 107.128C137.971 107.041 137.952 106.956 137.949 106.869C137.941 106.642 137.941 106.411 137.941 106.184C137.941 99.7791 137.941 93.3741 137.941 86.9728C137.941 86.6141 137.956 86.2518 137.967 85.8931C137.971 85.776 137.993 85.6588 138.004 85.5417C138.011 85.4758 138.029 85.41 138.025 85.3441C138.015 85.033 138.073 84.7292 138.128 84.4254C138.19 84.0924 138.256 83.763 138.329 83.4336C138.369 83.2469 138.417 83.0602 138.486 82.8846C138.687 82.3539 138.888 81.8268 139.111 81.3071C139.235 81.018 139.4 80.7435 139.564 80.4726C140.01 79.7479 140.537 79.0855 141.125 78.4706C141.443 78.1375 141.802 77.8557 142.185 77.5995C142.35 77.4897 142.514 77.3726 142.675 77.2555C143.056 76.9846 143.45 76.7394 143.882 76.5564C144.434 76.3258 144.982 76.0879 145.534 75.8537C145.596 75.8281 145.658 75.8025 145.72 75.7842C146.207 75.6597 146.693 75.5206 147.183 75.4218C147.797 75.2974 148.418 75.1839 149.04 75.1034C149.544 75.0375 150.052 74.9826 150.568 74.9936C151.131 75.0082 151.694 75.0009 152.257 74.9936C152.969 74.9863 153.675 75.0595 154.373 75.1949C154.72 75.2644 155.075 75.3047 155.426 75.3559C155.872 75.4218 156.307 75.5499 156.742 75.6707C157.162 75.7878 157.583 75.9049 157.992 76.0513C158.442 76.216 158.88 76.4064 159.283 76.6809C159.655 76.9334 160.054 77.1493 160.445 77.3689C160.642 77.4787 160.818 77.6105 160.975 77.7679C161.249 78.046 161.527 78.3242 161.798 78.606C161.962 78.7744 162.123 78.9464 162.276 79.1257C162.408 79.2831 162.532 79.4478 162.649 79.6162C162.839 79.887 163.037 80.1579 163.194 80.447C163.388 80.7947 163.545 81.157 163.717 81.5157C163.947 82.0025 164.09 82.5222 164.239 83.0346C164.305 83.2579 164.331 83.4958 164.375 83.7264C164.47 84.2241 164.568 84.7219 164.663 85.2196C164.685 85.3331 164.693 85.4539 164.696 85.571C164.744 87.3278 164.733 89.0846 164.733 90.8414C164.733 92.5982 164.733 94.355 164.733 96.1118V96.1155Z" fill="white"/>
<path d="M130.21 86.7127C130.21 89.8896 130.21 93.0665 130.21 96.2433C130.21 96.9424 130.181 97.6378 130.027 98.3259C129.954 98.6553 129.921 98.992 129.863 99.3251C129.837 99.4751 129.793 99.6252 129.749 99.7716C129.698 99.9546 129.636 100.138 129.581 100.321C129.406 100.906 129.168 101.466 128.883 102.008C128.543 102.659 128.101 103.238 127.618 103.787C127.319 104.131 127.008 104.464 126.686 104.793C126.536 104.943 126.361 105.068 126.193 105.199C125.626 105.646 125.008 106.008 124.358 106.312C123.769 106.586 123.166 106.828 122.566 107.081C122.446 107.132 122.314 107.165 122.186 107.201C121.868 107.293 121.546 107.388 121.225 107.469C121.016 107.52 120.804 107.542 120.589 107.567C120.282 107.604 119.967 107.608 119.667 107.688C119.51 107.732 119.349 107.765 119.192 107.791C119.068 107.813 118.944 107.831 118.819 107.827C118.315 107.82 117.814 107.864 117.31 107.889C116.615 107.922 115.917 107.915 115.222 107.849C115.047 107.831 114.868 107.831 114.689 107.835C114.407 107.835 114.129 107.802 113.851 107.736C113.471 107.644 113.084 107.582 112.693 107.556C112.444 107.538 112.199 107.465 111.958 107.403C111.658 107.326 111.358 107.242 111.066 107.139C110.642 106.993 110.221 106.828 109.797 106.671C109.381 106.513 108.993 106.297 108.606 106.081C108.16 105.833 107.732 105.554 107.363 105.199C106.994 104.841 106.613 104.489 106.252 104.12C105.875 103.735 105.546 103.311 105.25 102.857C104.947 102.392 104.709 101.898 104.471 101.4C104.332 101.107 104.212 100.807 104.146 100.493C104.135 100.434 104.113 100.379 104.091 100.324C103.864 99.8228 103.795 99.2811 103.678 98.7504C103.645 98.6077 103.612 98.465 103.59 98.3186C103.51 97.7586 103.455 97.1949 103.455 96.6313C103.455 90.1897 103.455 83.7481 103.455 77.3102C103.455 76.9588 103.455 76.6038 103.466 76.2524C103.47 76.1207 103.488 75.9889 103.528 75.8645C103.62 75.568 103.901 75.3704 104.212 75.3667C105.966 75.3667 107.721 75.3667 109.479 75.3667C109.574 75.3667 109.673 75.3777 109.765 75.4033C109.984 75.4655 110.141 75.6083 110.211 75.8279C110.269 76.0109 110.291 76.2012 110.291 76.3915C110.291 80.487 110.291 84.5826 110.291 88.6781C110.291 91.1267 110.291 93.5752 110.291 96.0237C110.291 96.5105 110.331 96.9936 110.43 97.4694C110.459 97.6195 110.532 97.7622 110.565 97.9123C110.682 98.454 110.927 98.9334 111.245 99.3836C111.373 99.563 111.49 99.7496 111.618 99.9289C111.83 100.229 112.1 100.467 112.411 100.661C112.813 100.91 113.215 101.159 113.665 101.32C113.866 101.393 114.067 101.462 114.283 101.492C114.363 101.503 114.444 101.521 114.52 101.55C115.105 101.763 115.712 101.839 116.33 101.843C116.706 101.843 117.087 101.85 117.463 101.843C117.862 101.832 118.26 101.777 118.648 101.686C118.863 101.635 119.079 101.583 119.291 101.525C119.858 101.371 120.406 101.17 120.899 100.851C121.455 100.489 121.923 100.035 122.292 99.4824C122.709 98.8566 122.943 98.1685 123.089 97.4438C123.177 97.0046 123.25 96.5617 123.305 96.1189C123.338 95.8627 123.352 95.6065 123.352 95.3503C123.352 88.9892 123.352 82.6318 123.352 76.2707C123.352 76.1682 123.349 76.0658 123.352 75.9633C123.36 75.8754 123.378 75.7913 123.396 75.7034C123.429 75.5497 123.531 75.4619 123.681 75.4253C123.787 75.3996 123.901 75.3813 124.01 75.3813C125.838 75.3813 127.669 75.3813 129.497 75.3813C129.673 75.3813 129.83 75.4253 129.98 75.5204C130.115 75.6083 130.181 75.7327 130.192 75.8864C130.199 75.9743 130.192 76.0621 130.192 76.1499C130.192 79.6782 130.192 83.2101 130.192 86.7383L130.21 86.7127Z" fill="white"/>
<path d="M231.813 96.1923C231.813 92.8398 231.813 89.4872 231.813 86.1346C231.813 85.9004 231.812 85.6625 231.827 85.4283C231.834 85.2892 231.86 85.1501 231.875 85.011C231.922 84.4693 232.057 83.9423 232.185 83.4153C232.299 82.9431 232.474 82.4893 232.635 82.0354C232.723 81.7792 232.851 81.5377 232.979 81.2961C233.18 80.9191 233.395 80.5531 233.6 80.1762C233.772 79.8541 234.017 79.5869 234.236 79.3014C234.609 78.8146 235.055 78.3901 235.516 77.9875C235.848 77.6983 236.221 77.4531 236.587 77.2042C237.106 76.8492 237.661 76.5564 238.243 76.3112C238.663 76.1319 239.083 75.9415 239.522 75.8098C240.122 75.6268 240.728 75.4584 241.35 75.3523C241.715 75.2901 242.077 75.2242 242.443 75.162C242.648 75.129 242.852 75.1071 243.061 75.0851C243.309 75.0558 243.561 75.0302 243.81 75.0082C243.876 75.0009 243.942 75.0009 244.011 75.0009C244.87 75.0009 245.729 74.9936 246.588 75.0046C246.943 75.0119 247.297 75.0485 247.648 75.0997C248.248 75.1876 248.844 75.2937 249.443 75.3925C249.516 75.4035 249.589 75.4218 249.659 75.4365C250.076 75.5389 250.496 75.6268 250.905 75.7476C251.26 75.85 251.604 75.9891 251.951 76.1136C252.09 76.1648 252.225 76.2234 252.364 76.2783C252.854 76.4722 253.314 76.7248 253.749 77.0176C254.086 77.2445 254.422 77.4714 254.747 77.7166C255.431 78.229 256.034 78.822 256.462 79.5723C256.546 79.7187 256.645 79.8577 256.736 80.0005C257.251 80.7727 257.624 81.6072 257.884 82.4966C257.986 82.848 258.103 83.1993 258.187 83.5543C258.308 84.0558 258.352 84.5682 258.407 85.0806C258.451 85.4832 258.498 85.8821 258.542 86.2847C258.557 86.4238 258.571 86.5629 258.571 86.7019C258.571 93.3046 258.571 99.9072 258.571 106.51C258.571 106.649 258.553 106.788 258.524 106.923C258.472 107.154 258.312 107.308 258.125 107.432C258.085 107.458 258.026 107.465 257.979 107.469C257.899 107.476 257.814 107.469 257.734 107.469C255.943 107.469 254.148 107.469 252.357 107.469C252.254 107.469 252.148 107.469 252.046 107.45C251.918 107.432 251.841 107.363 251.816 107.224C251.757 106.912 251.735 106.598 251.735 106.283C251.735 100.753 251.739 95.2261 251.743 89.6958C251.743 89.4177 251.757 89.1358 251.754 88.8577C251.75 88.305 251.754 87.756 251.724 87.2034C251.695 86.6397 251.618 86.0797 251.498 85.5234C251.457 85.3368 251.414 85.1501 251.381 84.9634C251.311 84.5828 251.165 84.2314 251 83.8837C250.92 83.7117 250.821 83.5434 250.704 83.3933C250.332 82.9065 249.911 82.46 249.403 82.1086C248.946 81.7902 248.453 81.545 247.904 81.4169C247.517 81.3291 247.129 81.2302 246.738 81.1497C246.581 81.1168 246.416 81.1021 246.256 81.0912C245.894 81.0655 245.532 81.0326 245.17 81.0326C244.801 81.0326 244.431 81.0729 244.062 81.0985C243.616 81.1278 243.185 81.2229 242.761 81.362C242.622 81.4096 242.472 81.4279 242.33 81.4645C242.011 81.5487 241.723 81.6987 241.434 81.8451C241.072 82.0318 240.728 82.2477 240.425 82.5222C239.964 82.9395 239.632 83.4482 239.379 84.0118C239.365 84.0448 239.354 84.0814 239.336 84.1143C239.043 84.6267 238.923 85.1977 238.791 85.7613C238.765 85.8748 238.762 85.9956 238.747 86.109C238.674 86.7825 238.659 87.4559 238.659 88.133C238.663 94.2708 238.659 100.412 238.659 106.55C238.659 106.682 238.652 106.814 238.63 106.945C238.583 107.205 238.301 107.447 238.038 107.469C237.979 107.472 237.921 107.469 237.859 107.469C236.053 107.469 234.243 107.469 232.438 107.469C232.343 107.469 232.244 107.469 232.149 107.454C232.003 107.436 231.9 107.355 231.864 107.213C231.838 107.114 231.82 107.011 231.816 106.909C231.809 106.631 231.816 106.349 231.816 106.071C231.816 102.777 231.816 99.4826 231.816 96.1887L231.813 96.1923Z" fill="white"/>
<path d="M83.7997 108.127C83.4158 108.149 83.0466 108.124 82.6774 108.102C82.2205 108.076 81.7635 108.032 81.3066 107.999C80.835 107.966 80.3598 107.959 79.8882 107.911C79.5373 107.878 79.1864 107.82 78.8427 107.725C78.532 107.637 78.2067 107.586 77.8923 107.509C77.3696 107.377 76.8431 107.253 76.3314 107.092C75.9658 106.978 75.6149 106.817 75.2639 106.656C74.7449 106.422 74.2331 106.177 73.725 105.92C73.3777 105.741 73.0377 105.543 72.7087 105.335C72.504 105.203 72.3249 105.035 72.1384 104.877C71.7839 104.577 71.422 104.284 71.0783 103.973C70.8992 103.812 70.7384 103.626 70.5848 103.435C70.3618 103.161 70.3838 102.722 70.6214 102.458C71.1259 101.898 71.6449 101.353 72.1348 100.782C72.6356 100.2 73.1803 99.6581 73.6994 99.0945C73.8054 98.981 73.915 98.8712 74.0284 98.7651C74.16 98.6443 74.3098 98.6406 74.4451 98.7541C74.5401 98.8346 74.6352 98.9151 74.7266 99.003C75.0227 99.2921 75.348 99.5446 75.688 99.7825C75.8159 99.8704 75.9402 99.9619 76.0609 100.057C76.664 100.526 77.3147 100.917 78.0275 101.203C78.2944 101.309 78.5686 101.4 78.8391 101.499C78.861 101.506 78.883 101.506 78.9049 101.517C79.4752 101.77 80.0966 101.861 80.6888 102.044C81.0141 102.143 81.3541 102.18 81.6977 102.187C82.0523 102.194 82.4069 102.227 82.7615 102.246C83.4634 102.279 84.1689 102.301 84.8671 102.209C84.9914 102.194 85.1193 102.18 85.2436 102.18C85.7993 102.194 86.3293 102.052 86.8521 101.898C87.214 101.792 87.5686 101.66 87.9085 101.499C88.5483 101.195 89.0929 100.774 89.4768 100.174C89.8643 99.5703 89.9849 98.9115 89.8496 98.2087C89.8387 98.1502 89.8131 98.0989 89.7911 98.044C89.7619 97.9708 89.718 97.8976 89.6924 97.8208C89.5206 97.2974 89.1551 96.9168 88.7566 96.5581C88.4532 96.2799 88.1096 96.0713 87.7331 95.9102C87.3675 95.7529 87.0093 95.5735 86.6437 95.4162C86.428 95.3247 86.1977 95.2551 85.9784 95.1673C85.5799 95.0062 85.1632 94.9001 84.7611 94.761C84.3626 94.6256 83.9605 94.4975 83.5548 94.3913C83.3427 94.3364 83.138 94.2413 82.9297 94.1644C82.8821 94.1461 82.8346 94.1242 82.7834 94.1168C82.3521 94.04 81.9463 93.8753 81.5296 93.7545C81.047 93.6118 80.5791 93.4288 80.1076 93.2641C79.9687 93.2165 79.8297 93.1579 79.6945 93.103C79.4971 93.0225 79.2997 92.942 79.0986 92.8615C78.6709 92.6931 78.2396 92.5394 77.8302 92.3344C77.5523 92.1953 77.2745 92.0563 77.0077 91.9026C76.6275 91.6866 76.2473 91.4743 75.8854 91.2328C75.3407 90.8668 74.7997 90.4934 74.3318 90.025C74.1453 89.8383 73.9626 89.6443 73.7798 89.454C73.7432 89.4174 73.714 89.3735 73.6847 89.3332C73.4837 89.0258 73.257 88.7293 73.0889 88.4036C72.8951 88.0266 72.6356 87.6789 72.5003 87.2726C72.4821 87.2177 72.4565 87.1628 72.4272 87.1116C72.2956 86.8774 72.2152 86.6285 72.1604 86.3686C72.0873 86.0246 72.0032 85.6805 71.9264 85.3365C71.9118 85.2706 71.9045 85.2047 71.9008 85.1389C71.8899 84.5496 71.8789 83.964 71.8752 83.3747C71.8752 83.0673 71.8899 82.7562 71.8972 82.4488C71.9045 82.1596 71.9959 81.8851 72.0617 81.607C72.1019 81.4423 72.1567 81.2812 72.1896 81.1165C72.2737 80.7212 72.4674 80.3735 72.6466 80.0222C72.8367 79.6489 73.045 79.2829 73.2753 78.9315C73.6189 78.4118 74.0211 77.9433 74.5292 77.5736C74.8399 77.3467 75.1397 77.1052 75.4504 76.8819C75.8306 76.6111 76.2473 76.4024 76.675 76.2194C77.1977 75.9962 77.7241 75.7802 78.2652 75.6046C78.7587 75.4435 79.2631 75.3337 79.7639 75.2056C80.1368 75.1104 80.5206 75.0738 80.9008 75.0043C80.9666 74.9933 81.0324 74.997 81.0982 74.9897C81.2225 74.9787 81.3505 74.9714 81.4711 74.9494C81.8001 74.8909 82.1364 74.9018 82.4691 74.8908C82.7944 74.8799 83.1197 74.8652 83.4414 74.8579C83.5657 74.8579 83.69 74.8689 83.8143 74.8726C84.0812 74.8799 84.348 74.8835 84.6149 74.8982C84.8415 74.9092 85.0718 74.9348 85.2985 74.9458C85.5726 74.9604 85.8468 74.9897 86.1173 74.9823C86.6766 74.9714 87.2213 75.0556 87.766 75.1727C88.1279 75.2495 88.4898 75.3154 88.8517 75.3923C89.0893 75.4435 89.3232 75.5131 89.5608 75.5753C89.5682 75.5753 89.5755 75.5826 89.5828 75.5826C90.292 75.707 90.928 76.0181 91.5751 76.3073C92.0941 76.5415 92.5913 76.8197 93.0738 77.1198C93.253 77.2333 93.4138 77.3797 93.571 77.5224C93.8781 77.8006 94.1742 78.0897 94.4739 78.3715C94.759 78.6424 94.9967 78.9498 95.2379 79.2572C95.4134 79.4805 95.3951 79.6818 95.1904 79.8868C94.5799 80.509 93.9658 81.1238 93.3553 81.746C93.0775 82.0315 92.7997 82.317 92.5218 82.6025C92.361 82.7672 92.2002 82.9246 92.032 83.0819C91.9808 83.1332 91.915 83.1698 91.8529 83.21C91.608 83.3601 91.385 83.3418 91.1547 83.1698C90.7526 82.8697 90.3504 82.5695 89.9447 82.2767C89.8021 82.1743 89.6449 82.0901 89.4877 82.0059C89.1697 81.8339 88.8553 81.6509 88.5227 81.5118C88.0474 81.3105 87.5759 81.0946 87.0677 80.9811C87.0312 80.9738 86.9946 80.9628 86.9617 80.9482C86.5231 80.7761 86.0625 80.7103 85.6019 80.6371C85.4483 80.6114 85.2948 80.5822 85.1413 80.5602C84.7757 80.5016 84.4102 80.465 84.0373 80.4577C83.467 80.4504 82.8968 80.4797 82.3338 80.5822C81.9865 80.6444 81.6356 80.6993 81.2847 80.7688C81.0141 80.8201 80.7583 80.9262 80.517 81.0506C80.2026 81.2117 79.8955 81.391 79.5885 81.5667C79.3509 81.7021 79.1937 81.9181 79.0438 82.1377C78.9743 82.2401 78.9122 82.3499 78.8574 82.4634C78.7221 82.7269 78.6307 83.0051 78.6453 83.3089C78.6527 83.4772 78.6527 83.6492 78.6453 83.8176C78.6161 84.3373 78.8062 84.7802 79.1133 85.1864C79.5629 85.783 80.1587 86.1966 80.8167 86.5333C81.6685 86.9689 82.5678 87.2836 83.4743 87.5837C84.0336 87.7704 84.6076 87.9241 85.1705 88.0998C85.6567 88.2535 86.1392 88.4146 86.6254 88.5719C86.7461 88.6122 86.8667 88.6378 86.9873 88.6781C87.4004 88.8098 87.8171 88.9379 88.2302 89.0843C88.7822 89.2783 89.3269 89.4833 89.8752 89.6846C90.482 89.9078 91.0487 90.2116 91.6226 90.4971C92.0722 90.7204 92.5072 90.9729 92.9057 91.2767C93.1872 91.4926 93.4759 91.6976 93.7538 91.9172C94.0097 92.1185 94.229 92.36 94.4227 92.6199C94.6311 92.9054 94.8358 93.1945 95.0405 93.4837C95.4097 94.0034 95.6766 94.5707 95.8776 95.1782C96.0166 95.5991 96.1518 96.0164 96.2359 96.4483C96.2871 96.7155 96.3419 96.9826 96.3894 97.2498C96.4114 97.3706 96.4223 97.4987 96.426 97.6231C96.426 98.1978 96.4296 98.7687 96.426 99.3433C96.426 99.4897 96.4077 99.6361 96.3894 99.7825C96.3675 99.9582 96.3309 100.13 96.3127 100.306C96.2688 100.694 96.1591 101.067 96.0129 101.43C95.9179 101.66 95.8301 101.894 95.7387 102.129C95.5596 102.59 95.3439 103.029 95.0369 103.421C94.8322 103.68 94.6384 103.951 94.4447 104.218C94.0608 104.753 93.5637 105.166 93.03 105.543C92.7229 105.759 92.4122 105.975 92.0759 106.151C91.8346 106.279 91.608 106.433 91.3667 106.557C90.8184 106.839 90.2335 107.018 89.6595 107.238C89.1953 107.414 88.7164 107.534 88.2266 107.619C87.8976 107.674 87.5795 107.769 87.2542 107.838C86.8703 107.919 86.4792 107.963 86.0881 107.996C85.6384 108.032 85.1888 108.08 84.7392 108.116C84.5929 108.127 84.4431 108.127 84.2968 108.127C84.125 108.127 83.9569 108.127 83.7997 108.127Z" fill="white"/>
<path d="M180.734 96.708C180.734 99.5591 180.734 102.414 180.734 105.265C180.734 105.781 180.723 106.293 180.712 106.81C180.701 107.241 180.464 107.472 180.032 107.476C178.19 107.476 176.344 107.476 174.501 107.476C174.147 107.476 173.949 107.315 173.902 106.96C173.876 106.769 173.865 106.579 173.865 106.389C173.865 104.065 173.865 101.744 173.865 99.42C173.865 95.3464 173.865 91.2728 173.865 87.2029C173.865 86.7454 173.88 86.2916 173.938 85.8414C173.96 85.6694 173.938 85.4901 173.946 85.3144C173.953 85.1753 173.964 85.0362 173.99 84.9008C174.092 84.3591 174.198 83.8211 174.308 83.2794C174.326 83.1916 174.355 83.1111 174.381 83.0269C174.68 82.0423 175.126 81.1273 175.678 80.2599C176.102 79.5938 176.578 78.9643 177.152 78.4153C177.36 78.2176 177.583 78.0346 177.806 77.8553C178.683 77.1599 179.63 76.5743 180.672 76.1497C180.946 76.0399 181.228 75.9411 181.509 75.8606C181.97 75.7252 182.43 75.5897 182.898 75.4799C183.359 75.3738 183.83 75.3152 184.291 75.2164C184.814 75.1066 185.351 75.0957 185.877 75.0188C185.958 75.0078 186.038 75.0078 186.122 75.0078C187.343 75.0078 188.568 75.0078 189.789 75.0078C190.019 75.0078 190.249 75.0261 190.476 75.0517C190.889 75.0993 191.182 75.3336 191.386 75.6813C191.456 75.7984 191.459 75.9338 191.463 76.0656C191.463 76.4316 191.474 76.8012 191.47 77.1672C191.467 78.0493 191.459 78.9313 191.445 79.8134C191.445 79.9964 191.426 80.183 191.383 80.3587C191.313 80.6662 190.981 80.9663 190.662 80.9992C190.414 81.0248 190.162 81.0175 189.909 81.0212C189.807 81.0212 189.701 81.0066 189.599 81.0066C188.97 81.0066 188.341 80.9992 187.709 81.0139C187.281 81.0249 186.853 81.0688 186.426 81.1017C186.338 81.109 186.25 81.12 186.159 81.1273C185.812 81.1456 185.468 81.1859 185.132 81.2957C184.773 81.4128 184.397 81.4567 184.046 81.6068C183.593 81.7971 183.18 82.0496 182.796 82.3534C182.511 82.5803 182.24 82.8146 182.017 83.1037C181.619 83.6234 181.312 84.1871 181.151 84.8239C181.085 85.0874 181.019 85.351 180.95 85.6145C180.866 85.9439 180.814 86.2769 180.785 86.6137C180.73 87.2871 180.727 87.9642 180.727 88.6413C180.727 91.3314 180.727 94.0215 180.727 96.7153L180.734 96.708Z" fill="white"/>
</svg>
