<svg width="900" height="500" viewBox="0 0 900 500" fill="none" xmlns="http://www.w3.org/2000/svg">
<path fill-rule="evenodd" clip-rule="evenodd" d="M353.721 251.46V273.72H363.921V260.56V247.4L364.651 248.17C365.051 248.59 365.381 249.04 365.381 249.18C365.381 249.32 365.711 249.74 366.111 250.13C366.511 250.52 366.841 250.96 366.841 251.11C366.841 251.26 367.031 251.51 367.261 251.68C367.491 251.84 367.681 252.06 367.681 252.15C367.681 252.33 367.921 252.65 368.671 253.45C368.931 253.73 369.141 254.05 369.141 254.17C369.141 254.29 369.211 254.39 369.301 254.39C369.391 254.39 369.581 254.67 369.731 255.01C369.881 255.35 370.141 255.63 370.301 255.63C370.461 255.63 370.591 255.77 370.591 255.94C370.591 256.11 370.681 256.25 370.801 256.25C370.921 256.25 371.011 256.39 371.011 256.57C371.011 256.75 371.341 257.22 371.741 257.62C372.141 258.02 372.471 258.45 372.471 258.57C372.471 258.69 372.751 259.05 373.091 259.38C373.431 259.7 373.711 260.1 373.711 260.27C373.711 260.44 374.041 260.86 374.441 261.2C374.841 261.54 375.171 261.95 375.171 262.11C375.171 262.48 376.081 263.54 376.391 263.54C376.521 263.54 376.631 263.71 376.631 263.93C376.631 264.15 376.911 264.61 377.251 264.97C377.591 265.33 377.871 265.7 377.871 265.79C377.871 265.88 378.201 266.3 378.601 266.73C379.001 267.16 379.331 267.64 379.331 267.81C379.331 267.98 379.421 268.12 379.541 268.12C379.661 268.12 379.751 268.26 379.751 268.43C379.751 268.6 379.851 268.74 379.971 268.74C380.301 268.74 380.791 269.29 380.791 269.66C380.791 269.84 380.881 269.99 381.001 269.99C381.121 269.99 381.211 270.09 381.211 270.21C381.211 270.33 381.421 270.65 381.681 270.93C382.401 271.7 382.671 272.04 382.671 272.2C382.671 272.28 382.841 272.49 383.051 272.68C383.261 272.86 383.491 273.18 383.561 273.38C383.681 273.71 384.101 273.74 388.191 273.74H392.691L393.511 272.89C393.961 272.42 394.331 271.95 394.331 271.85C394.331 271.75 394.611 271.36 394.951 271C395.291 270.64 395.571 270.17 395.571 269.96C395.571 269.75 395.681 269.57 395.811 269.57C396.111 269.57 397.031 268.51 397.031 268.16C397.031 268.01 397.361 267.56 397.761 267.17C398.161 266.77 398.491 266.35 398.491 266.24C398.491 266.13 398.771 265.74 399.111 265.38C399.451 265.02 399.731 264.65 399.731 264.56C399.731 264.47 400.061 264.05 400.461 263.63C400.861 263.21 401.191 262.73 401.191 262.58C401.191 262.43 401.281 262.3 401.401 262.3C401.521 262.3 401.611 262.17 401.611 262.01C401.611 261.85 401.751 261.67 401.921 261.6C402.091 261.53 402.231 261.36 402.231 261.21C402.231 261.06 402.421 260.8 402.651 260.64C402.881 260.48 403.071 260.22 403.071 260.07C403.071 259.92 403.161 259.8 403.281 259.8C403.401 259.8 403.491 259.67 403.491 259.52C403.491 259.37 403.721 259.06 404.011 258.85C404.301 258.64 404.531 258.34 404.531 258.2C404.531 258.06 404.621 257.94 404.741 257.94C404.861 257.94 404.951 257.79 404.951 257.61C404.951 257.43 405.281 256.96 405.681 256.57C406.081 256.18 406.411 255.77 406.411 255.65C406.411 255.53 406.691 255.14 407.031 254.78C407.371 254.42 407.651 253.95 407.651 253.74C407.651 253.53 407.761 253.35 407.891 253.35C408.201 253.35 409.111 252.29 409.111 251.93C409.111 251.78 409.441 251.35 409.841 250.97C410.241 250.59 410.571 250.18 410.571 250.05C410.571 249.92 410.851 249.52 411.191 249.17C411.531 248.82 411.861 248.35 411.931 248.13C412.361 246.77 412.441 248.75 412.441 260.74V273.74H423.051V229.21H418.071C413.271 229.21 413.091 229.22 412.961 229.63C412.891 229.86 412.741 230.05 412.631 230.05C412.521 230.05 412.441 230.19 412.441 230.36C412.441 230.53 412.351 230.67 412.231 230.67C412.111 230.67 412.021 230.8 412.021 230.95C412.021 231.1 411.791 231.41 411.501 231.62C411.211 231.83 410.981 232.13 410.981 232.27C410.981 232.41 410.891 232.53 410.771 232.53C410.651 232.53 410.561 232.68 410.561 232.86C410.561 233.04 410.231 233.5 409.831 233.87C409.431 234.25 409.101 234.69 409.101 234.85C409.101 235.01 408.911 235.28 408.681 235.44C408.451 235.6 408.261 235.82 408.261 235.91C408.261 236.09 408.021 236.41 407.271 237.21C407.011 237.49 406.801 237.81 406.801 237.93C406.801 238.05 406.711 238.15 406.591 238.15C406.471 238.15 406.381 238.31 406.381 238.52C406.381 238.73 406.151 239.06 405.861 239.28C405.571 239.49 405.341 239.78 405.341 239.92C405.341 240.06 405.061 240.47 404.721 240.83C404.381 241.19 404.101 241.67 404.101 241.9C404.101 242.13 404.001 242.32 403.881 242.32C403.551 242.32 402.641 243.3 402.641 243.66C402.641 243.84 402.551 243.98 402.431 243.98C402.311 243.98 402.221 244.12 402.221 244.29C402.221 244.46 402.091 244.6 401.931 244.6C401.771 244.6 401.511 244.88 401.361 245.22C401.211 245.56 401.011 245.84 400.931 245.84C400.851 245.84 400.771 245.94 400.771 246.06C400.771 246.18 400.561 246.5 400.301 246.78C399.601 247.53 399.311 247.89 399.311 248.03C399.311 248.1 399.121 248.35 398.891 248.6C398.661 248.85 398.471 249.17 398.471 249.32C398.471 249.47 398.381 249.59 398.261 249.59C398.141 249.59 398.051 249.73 398.051 249.9C398.051 250.07 397.911 250.21 397.741 250.21C397.571 250.21 397.431 250.33 397.431 250.48C397.431 250.63 397.241 250.95 397.011 251.2C396.781 251.45 396.591 251.74 396.591 251.86C396.591 251.98 396.501 252.08 396.381 252.08C396.261 252.08 396.171 252.27 396.171 252.5C396.171 252.73 396.071 252.92 395.951 252.92C395.661 252.92 395.131 253.45 395.131 253.74C395.131 253.86 395.041 253.96 394.921 253.96C394.801 253.96 394.711 254.11 394.711 254.29C394.711 254.47 394.381 254.92 393.981 255.3C393.581 255.68 393.251 256.12 393.251 256.28C393.251 256.44 393.061 256.71 392.831 256.87C392.601 257.03 392.411 257.25 392.411 257.34C392.411 257.52 392.171 257.84 391.421 258.64C391.161 258.91 390.951 259.29 390.951 259.46C390.951 259.63 390.861 259.78 390.741 259.78C390.621 259.78 390.531 259.9 390.531 260.06C390.531 260.22 390.301 260.46 390.011 260.62C389.721 260.77 389.491 261.07 389.491 261.28C389.491 261.49 389.401 261.66 389.281 261.66C389.161 261.66 389.071 261.8 389.071 261.97C389.071 262.14 389.031 262.28 388.971 262.28C388.771 262.28 387.611 261.03 387.611 260.82C387.611 260.69 387.491 260.47 387.351 260.33C387.211 260.19 386.901 259.81 386.671 259.49C386.441 259.17 386.041 258.69 385.791 258.42C385.531 258.15 385.321 257.84 385.321 257.72C385.321 257.6 385.231 257.5 385.111 257.5C384.991 257.5 384.901 257.35 384.901 257.17C384.901 256.8 384.411 256.25 384.081 256.25C383.961 256.25 383.861 256.11 383.861 255.94C383.861 255.77 383.771 255.63 383.651 255.63C383.531 255.63 383.441 255.46 383.441 255.26C383.441 255.06 383.251 254.75 383.021 254.59C382.791 254.43 382.601 254.18 382.601 254.05C382.601 253.92 382.461 253.75 382.291 253.69C382.121 253.63 381.981 253.46 381.981 253.33C381.981 253.2 381.811 252.94 381.601 252.75C381.391 252.57 381.091 252.11 380.921 251.74C380.751 251.37 380.551 251.06 380.451 251.06C380.161 251.06 379.681 250.49 379.681 250.14C379.681 249.96 379.591 249.81 379.471 249.81C379.351 249.81 379.261 249.71 379.261 249.59C379.261 249.47 379.051 249.15 378.791 248.87C378.041 248.07 377.801 247.76 377.801 247.57C377.801 247.48 377.611 247.26 377.381 247.1C377.151 246.94 376.961 246.69 376.961 246.55C376.961 246.41 376.631 245.96 376.231 245.55C375.831 245.14 375.501 244.66 375.501 244.49C375.501 244.32 375.411 244.18 375.291 244.18C375.171 244.18 375.081 244.08 375.081 243.96C375.081 243.67 374.551 243.14 374.261 243.14C374.141 243.14 374.041 242.95 374.041 242.72C374.041 242.49 373.951 242.3 373.831 242.3C373.711 242.3 373.621 242.18 373.621 242.03C373.621 241.88 373.431 241.63 373.201 241.46C372.971 241.29 372.781 241.04 372.781 240.89C372.781 240.74 372.641 240.56 372.471 240.5C372.301 240.44 372.161 240.27 372.161 240.14C372.161 240.01 371.971 239.76 371.741 239.6C371.511 239.44 371.321 239.17 371.321 239C371.321 238.83 370.991 238.38 370.591 238C370.191 237.61 369.861 237.2 369.861 237.08C369.861 236.96 369.741 236.75 369.601 236.6C369.461 236.46 369.151 236.08 368.921 235.76C368.691 235.44 368.321 234.98 368.091 234.74C367.861 234.5 367.531 234.02 367.361 233.67C366.981 232.92 366.631 232.53 366.341 232.53C366.221 232.53 366.121 232.34 366.121 232.11C366.121 231.88 366.031 231.69 365.911 231.69C365.791 231.69 365.701 231.57 365.701 231.42C365.701 231.27 365.511 231.02 365.281 230.85C365.051 230.69 364.861 230.45 364.861 230.34C364.831 229.27 364.391 229.19 358.851 229.19H353.631V251.45M466.901 229.52C466.901 229.7 466.671 230.06 466.381 230.32C466.091 230.58 465.861 230.93 465.861 231.1C465.861 231.27 465.671 231.53 465.441 231.69C465.211 231.85 465.021 232.2 465.021 232.46C465.021 232.72 464.921 232.93 464.801 232.93C464.451 232.93 463.981 233.49 463.981 233.91C463.981 234.12 463.791 234.43 463.561 234.59C463.331 234.75 463.141 235.06 463.141 235.26C463.141 235.46 463.001 235.63 462.831 235.63C462.661 235.63 462.521 235.77 462.521 235.94C462.521 236.11 462.431 236.25 462.311 236.25C462.191 236.25 462.101 236.42 462.101 236.62C462.101 236.82 461.911 237.13 461.681 237.29C461.451 237.45 461.261 237.8 461.261 238.06C461.261 238.32 461.161 238.53 461.041 238.53C460.711 238.53 460.221 239.08 460.221 239.45C460.221 239.63 460.131 239.78 460.011 239.78C459.891 239.78 459.801 239.92 459.801 240.09C459.801 240.26 459.711 240.4 459.591 240.4C459.471 240.4 459.381 240.56 459.381 240.77C459.381 240.98 459.151 241.31 458.861 241.53C458.571 241.75 458.341 242.07 458.341 242.26C458.341 242.45 458.151 242.74 457.921 242.9C457.691 243.06 457.501 243.37 457.501 243.57C457.501 243.77 457.411 243.94 457.291 243.94C457.171 243.94 457.081 244.08 457.081 244.25C457.081 244.42 456.941 244.56 456.771 244.56C456.601 244.56 456.461 244.7 456.461 244.88C456.461 245.06 456.271 245.4 456.041 245.65C455.811 245.9 455.621 246.24 455.621 246.42C455.621 246.6 455.391 246.92 455.101 247.14C454.811 247.36 454.581 247.68 454.581 247.87C454.581 248.06 454.391 248.35 454.161 248.51C453.931 248.67 453.741 248.98 453.741 249.18C453.741 249.38 453.651 249.55 453.531 249.55C453.411 249.55 453.321 249.68 453.321 249.84C453.321 250 453.181 250.18 453.011 250.25C452.841 250.31 452.701 250.49 452.701 250.64C452.701 250.79 452.511 251.05 452.281 251.21C452.051 251.37 451.861 251.7 451.861 251.94C451.861 252.18 451.671 252.5 451.441 252.67C451.211 252.83 451.021 253.07 451.021 253.19C451.021 253.31 450.791 253.66 450.501 253.97C450.211 254.28 449.981 254.66 449.981 254.81C449.981 254.96 449.791 255.22 449.561 255.39C449.331 255.55 449.141 255.9 449.141 256.16C449.141 256.42 449.041 256.63 448.921 256.63C448.571 256.63 448.101 257.19 448.101 257.61C448.101 257.82 447.911 258.13 447.681 258.29C447.451 258.45 447.261 258.76 447.261 258.96C447.261 259.16 447.121 259.33 446.951 259.33C446.781 259.33 446.641 259.47 446.641 259.64C446.641 259.81 446.551 259.95 446.431 259.95C446.311 259.95 446.221 260.12 446.221 260.32C446.221 260.52 446.031 260.83 445.801 260.99C445.571 261.15 445.381 261.5 445.381 261.76C445.381 262.02 445.281 262.23 445.161 262.23C444.831 262.23 444.341 262.78 444.341 263.15C444.341 263.33 444.251 263.48 444.131 263.48C444.011 263.48 443.921 263.62 443.921 263.79C443.921 263.96 443.831 264.1 443.711 264.1C443.591 264.1 443.501 264.25 443.501 264.43C443.501 264.61 443.271 264.95 442.981 265.17C442.691 265.39 442.461 265.74 442.461 265.93C442.461 266.12 442.271 266.42 442.041 266.59C441.811 266.75 441.621 267.06 441.621 267.26C441.621 267.46 441.531 267.63 441.411 267.63C441.291 267.63 441.201 267.77 441.201 267.94C441.201 268.11 441.061 268.25 440.891 268.25C440.721 268.25 440.581 268.39 440.581 268.57C440.581 268.75 440.391 269.09 440.161 269.34C439.931 269.59 439.741 269.93 439.741 270.11C439.741 270.29 439.511 270.61 439.221 270.83C438.931 271.05 438.701 271.37 438.701 271.56C438.701 271.75 438.511 272.04 438.281 272.2C438.041 272.38 437.861 272.74 437.861 273.08V273.66H449.851L450.301 273.14C450.551 272.85 450.751 272.52 450.751 272.4C450.751 272.28 450.981 271.97 451.271 271.7C451.561 271.44 451.791 271.11 451.791 270.97C451.791 270.83 451.981 270.52 452.211 270.28C452.441 270.03 452.631 269.66 452.631 269.46C452.631 269.26 452.741 269.08 452.871 269.08C453.171 269.08 453.661 268.45 453.671 268.03C453.671 267.86 453.861 267.58 454.091 267.41C454.321 267.25 454.511 266.94 454.511 266.74C454.511 266.54 454.601 266.37 454.721 266.37C454.841 266.37 455.091 266.04 455.281 265.64C455.471 265.24 455.701 264.91 455.801 264.91C455.901 264.91 455.971 264.72 455.971 264.49C455.971 264.26 456.061 264.07 456.181 264.07C456.301 264.07 456.391 263.93 456.391 263.76C456.391 263.59 456.491 263.45 456.601 263.45C456.711 263.45 456.881 263.29 456.951 263.09C457.031 262.89 457.261 262.54 457.461 262.32C457.671 262.1 457.831 261.77 457.831 261.58C457.831 261.39 458.021 261.11 458.251 260.95C458.481 260.79 458.671 260.44 458.671 260.18C458.671 259.92 458.771 259.71 458.891 259.71C459.221 259.71 459.711 259.16 459.711 258.79C459.711 258.61 459.801 258.46 459.921 258.46C460.041 258.46 460.131 258.32 460.131 258.15C460.131 257.98 460.221 257.84 460.341 257.84C460.461 257.84 460.551 257.65 460.551 257.42C460.551 257.19 460.671 257 460.821 257C460.971 257 461.221 256.67 461.381 256.27C461.541 255.87 461.741 255.54 461.831 255.54C461.921 255.54 462.001 255.41 462.001 255.25C462.001 255.09 462.231 254.74 462.521 254.47C462.801 254.2 463.041 253.84 463.041 253.66C463.041 253.49 463.231 253.21 463.461 253.04C463.691 252.88 463.881 252.57 463.881 252.36C463.881 252.15 464.091 251.76 464.351 251.48C465.131 250.65 465.341 250.36 465.341 250.14C465.341 250.02 465.431 249.92 465.551 249.92C465.671 249.92 465.761 249.73 465.761 249.5C465.761 249.27 465.841 249.08 465.931 249.08C466.021 249.08 466.281 248.75 466.501 248.35C466.711 247.95 466.961 247.62 467.051 247.62C467.141 247.62 467.211 247.5 467.211 247.35C467.211 247.2 467.401 246.88 467.631 246.63C467.861 246.39 468.051 246.05 468.051 245.88C468.051 245.71 468.281 245.36 468.571 245.09C468.851 244.82 469.091 244.46 469.091 244.28C469.091 244.11 469.281 243.83 469.511 243.66C469.741 243.5 469.931 243.19 469.931 242.99C469.931 242.79 470.021 242.62 470.141 242.62C470.261 242.62 470.351 242.49 470.351 242.33C470.351 242.17 470.491 241.99 470.661 241.92C470.831 241.85 470.971 241.66 470.971 241.48C470.971 241.3 471.051 241.16 471.141 241.16C471.361 241.16 472.221 242.14 472.221 242.4C472.221 242.51 472.451 242.83 472.741 243.12C473.031 243.41 473.261 243.81 473.261 244.02C473.261 244.23 473.451 244.53 473.681 244.7C473.911 244.87 474.101 245.17 474.101 245.37C474.101 245.57 474.241 245.74 474.411 245.74C474.581 245.74 474.721 245.91 474.721 246.12C474.721 246.33 474.911 246.7 475.141 246.94C475.371 247.19 475.561 247.53 475.561 247.71C475.561 247.89 475.651 248.03 475.771 248.03C475.891 248.03 475.981 248.17 475.981 248.34C475.981 248.51 476.121 248.65 476.291 248.65C476.461 248.65 476.601 248.79 476.601 248.97C476.601 249.15 476.791 249.49 477.021 249.74C477.251 249.99 477.441 250.36 477.441 250.56C477.441 250.76 477.521 250.94 477.611 250.94C477.701 250.94 477.941 251.27 478.131 251.67C478.321 252.07 478.571 252.4 478.691 252.4C478.811 252.4 478.901 252.57 478.901 252.77C478.901 252.97 479.091 253.28 479.321 253.44C479.551 253.6 479.741 253.91 479.741 254.13C479.741 254.55 480.211 255.11 480.561 255.11C480.681 255.11 480.781 255.29 480.781 255.51C480.781 255.73 480.871 255.97 480.991 256.04C481.711 256.48 480.621 256.56 473.581 256.56C466.141 256.56 465.961 256.56 465.861 256.98C465.801 257.21 465.671 257.4 465.571 257.4C465.471 257.4 465.391 257.49 465.391 257.61C465.391 257.8 464.861 258.49 464.191 259.19C464.051 259.34 463.931 259.56 463.931 259.68C463.931 259.8 463.841 259.9 463.721 259.9C463.601 259.9 463.511 260.05 463.511 260.23C463.511 260.41 463.181 260.87 462.781 261.24C462.381 261.62 462.051 262.06 462.051 262.22C462.051 262.38 461.861 262.65 461.631 262.81C461.401 262.97 461.211 263.19 461.211 263.29C461.211 263.39 461.091 263.6 460.951 263.76C459.451 265.43 458.461 265.31 473.691 265.31H487.211V265.83C487.211 266.12 487.291 266.35 487.391 266.35C487.491 266.35 487.691 266.63 487.831 266.97C487.971 267.31 488.221 267.59 488.381 267.59C488.541 267.59 488.671 267.8 488.671 268.06C488.671 268.32 488.861 268.67 489.091 268.83C489.321 268.99 489.511 269.27 489.511 269.45C489.511 269.86 490.001 270.5 490.311 270.5C490.441 270.5 490.551 270.69 490.551 270.92C490.551 271.15 490.641 271.34 490.761 271.34C490.881 271.34 490.971 271.53 490.971 271.76C490.971 271.99 491.061 272.18 491.181 272.18C491.301 272.18 491.391 272.32 491.391 272.49C491.391 272.66 491.471 272.8 491.571 272.8C491.671 272.8 491.801 272.99 491.861 273.22C491.971 273.62 492.141 273.64 498.231 273.64H504.491V273.02C504.491 272.6 504.391 272.4 504.181 272.4C504.011 272.4 503.871 272.22 503.871 271.98C503.871 271.74 503.781 271.56 503.661 271.56C503.541 271.56 503.451 271.42 503.451 271.25C503.451 271.08 503.361 270.94 503.241 270.94C503.121 270.94 503.031 270.81 503.031 270.66C503.031 270.51 502.821 270.15 502.561 269.87C502.301 269.59 501.961 269.11 501.801 268.8C501.641 268.49 501.431 268.24 501.331 268.24C501.231 268.24 501.161 268.05 501.161 267.82C501.161 267.59 501.071 267.4 500.951 267.4C500.831 267.4 500.741 267.3 500.741 267.18C500.741 267.06 500.621 266.83 500.481 266.67C499.861 265.98 499.701 265.75 499.701 265.54C499.701 265.42 499.611 265.32 499.491 265.32C499.371 265.32 499.281 265.15 499.281 264.95C499.281 264.75 499.091 264.45 498.861 264.28C498.631 264.12 498.441 263.86 498.441 263.72C498.441 263.58 498.211 263.23 497.921 262.94C497.631 262.65 497.401 262.28 497.401 262.1C497.401 261.92 497.311 261.78 497.191 261.78C497.071 261.78 496.981 261.64 496.981 261.47C496.981 261.3 496.891 261.16 496.771 261.16C496.651 261.16 496.561 261.02 496.561 260.84C496.561 260.66 496.421 260.47 496.251 260.4C496.081 260.34 495.941 260.15 495.941 259.99C495.941 259.83 495.851 259.7 495.731 259.7C495.611 259.7 495.521 259.53 495.521 259.33C495.521 259.13 495.331 258.83 495.101 258.66C494.871 258.5 494.681 258.21 494.681 258.02C494.681 257.83 494.451 257.5 494.161 257.29C493.871 257.08 493.641 256.73 493.641 256.53C493.641 256.33 493.551 256.16 493.431 256.16C493.311 256.16 493.221 256.02 493.221 255.85C493.221 255.68 493.131 255.54 493.011 255.54C492.891 255.54 492.801 255.39 492.801 255.21C492.801 254.84 492.311 254.29 491.981 254.29C491.861 254.29 491.761 254.08 491.761 253.82C491.761 253.56 491.571 253.21 491.341 253.05C491.111 252.89 490.921 252.62 490.921 252.46C490.921 252.3 490.691 251.95 490.401 251.68C490.111 251.41 489.881 251.07 489.881 250.92C489.881 250.77 489.691 250.51 489.461 250.34C489.231 250.18 489.041 249.87 489.041 249.65C489.041 249.23 488.581 248.67 488.221 248.67C488.101 248.67 488.001 248.46 488.001 248.2C488.001 247.94 487.811 247.59 487.581 247.43C487.351 247.27 487.161 247 487.161 246.84C487.161 246.68 486.931 246.33 486.641 246.06C486.351 245.79 486.121 245.45 486.121 245.3C486.121 245.15 485.931 244.89 485.701 244.72C485.471 244.56 485.281 244.25 485.281 244.04C485.281 243.83 485.071 243.43 484.811 243.16C484.141 242.45 483.971 242.2 483.611 241.5C483.441 241.16 483.131 240.69 482.931 240.47C482.731 240.25 482.561 239.97 482.561 239.85C482.561 239.73 482.321 239.41 482.041 239.14C481.761 238.87 481.521 238.52 481.521 238.35C481.521 238.18 481.331 237.85 481.101 237.6C480.871 237.35 480.681 237.03 480.681 236.88C480.681 236.73 480.561 236.61 480.411 236.61C480.261 236.61 480.011 236.28 479.851 235.88C479.691 235.48 479.511 235.15 479.431 235.15C479.351 235.15 479.141 234.82 478.951 234.42C478.761 234.02 478.511 233.69 478.391 233.69C478.271 233.69 478.181 233.52 478.181 233.32C478.181 233.12 477.991 232.81 477.761 232.65C477.531 232.49 477.341 232.18 477.341 231.98C477.341 231.78 477.251 231.61 477.131 231.61C477.011 231.61 476.921 231.47 476.921 231.3C476.921 231.13 476.781 230.99 476.611 230.99C476.441 230.99 476.301 230.81 476.301 230.57C476.301 230.33 476.211 230.15 476.091 230.15C475.971 230.15 475.881 230.05 475.881 229.93C475.881 229.2 475.351 229.11 471.011 229.11C467.281 229.11 466.731 229.15 466.731 229.43M500.401 229.57C500.401 229.93 501.661 231.48 501.951 231.48C502.131 231.48 502.691 232.03 502.691 232.21C502.691 232.37 503.631 233.27 504.431 233.87C504.731 234.1 504.981 234.38 504.981 234.5C504.981 234.62 505.231 234.9 505.531 235.13C505.831 235.36 506.571 236.01 507.181 236.58C508.931 238.24 509.771 238.97 509.901 238.97C510.081 238.97 511.431 240.48 511.431 240.68C511.431 240.77 511.531 240.85 511.641 240.85C511.921 240.85 513.301 242.23 513.301 242.51C513.301 242.63 513.381 242.72 513.481 242.72C513.581 242.72 514.321 243.35 515.131 244.12C516.701 245.62 517.651 246.46 517.791 246.46C517.841 246.46 519.091 247.68 520.581 249.17C522.071 250.66 523.321 251.88 523.361 251.88C523.441 251.88 523.981 252.37 526.281 254.53C526.921 255.13 527.541 255.62 527.651 255.62C527.761 255.62 527.861 255.76 527.861 255.93C527.861 256.1 527.951 256.24 528.071 256.24C528.201 256.24 528.281 259.29 528.281 264.98V273.72H538.891V264.98C538.891 259.29 538.961 256.24 539.101 256.24C539.211 256.24 539.311 256.1 539.311 255.93C539.311 255.76 539.401 255.62 539.521 255.62C539.731 255.62 540.451 255.06 541.311 254.22C541.571 253.96 541.841 253.75 541.901 253.75C541.961 253.75 543.771 251.99 545.931 249.84C548.091 247.69 550.171 245.7 550.561 245.42C550.951 245.14 552.181 244 553.301 242.88C554.421 241.76 555.421 240.85 555.541 240.85C555.661 240.85 555.751 240.78 555.751 240.68C555.751 240.47 557.111 238.97 557.301 238.97C557.481 238.97 558.041 238.42 558.041 238.25C558.041 238.1 559.021 237.1 559.171 237.1C559.301 237.1 560.421 236.1 562.021 234.55C562.701 233.89 563.321 233.35 563.411 233.35C563.501 233.35 563.751 233.11 563.971 232.82C564.621 231.96 565.061 231.48 565.211 231.48C565.441 231.48 566.371 230.48 566.371 230.24C566.371 230.12 566.461 230.02 566.581 230.02C566.701 230.02 566.791 229.83 566.791 229.6C566.791 229.19 566.651 229.18 559.911 229.18H553.041L552.531 229.69C552.251 229.97 552.021 230.26 552.021 230.33C552.021 230.5 551.461 231.05 551.301 231.05C551.231 231.05 550.951 231.26 550.681 231.52C550.411 231.78 549.871 232.24 549.491 232.55C548.121 233.67 547.861 233.91 547.861 234.05C547.861 234.23 547.311 234.79 547.141 234.79C546.931 234.79 545.571 236.22 545.571 236.45C545.571 236.57 545.471 236.66 545.361 236.66C545.081 236.66 543.701 238.04 543.701 238.32C543.701 238.44 543.601 238.53 543.491 238.53C543.211 238.53 541.831 239.91 541.831 240.19C541.831 240.31 541.741 240.4 541.621 240.4C541.231 240.4 539.731 241.73 536.291 245.13C534.871 246.53 533.661 247.68 533.611 247.68C533.561 247.68 532.291 246.46 530.811 244.98C529.321 243.49 528.071 242.27 528.021 242.27C527.971 242.27 527.661 242.01 527.331 241.7C526.451 240.86 525.841 240.4 525.611 240.4C525.501 240.4 525.401 240.3 525.401 240.19C525.401 239.91 524.021 238.53 523.741 238.53C523.621 238.53 523.521 238.43 523.521 238.32C523.521 238.04 522.141 236.66 521.861 236.66C521.741 236.66 521.641 236.56 521.641 236.45C521.641 236.2 520.281 234.79 520.031 234.79C519.941 234.79 519.681 234.54 519.451 234.23C519.221 233.92 518.861 233.52 518.651 233.35C518.441 233.17 518.141 232.91 517.991 232.77C517.841 232.63 517.641 232.51 517.541 232.51C517.441 232.51 517.091 232.18 516.741 231.79C516.401 231.39 516.041 231.06 515.951 231.06C515.751 231.06 515.181 230.52 515.181 230.33C515.181 230.26 514.951 229.97 514.671 229.69L514.161 229.18H507.291C500.801 229.18 500.411 229.2 500.411 229.56M582.171 251.46V273.72H629.191V264.98H592.991V237.93H629.191V229.19H582.171V251.45M646.881 251.13C646.881 263.19 646.941 273.21 647.011 273.39C647.121 273.68 647.811 273.72 652.631 273.72H658.121V237.93H687.561L688.181 238.67C688.521 239.08 688.921 239.54 689.061 239.69C689.371 240.03 689.431 243.54 689.131 243.54C689.021 243.54 688.871 243.75 688.791 244C688.601 244.59 688.191 245 687.781 245C687.601 245 687.451 245.09 687.451 245.21C687.451 245.35 683.251 245.42 675.271 245.42H663.091L663.151 249.84L663.211 254.26L670.741 254.36C674.881 254.42 678.301 254.51 678.351 254.57C678.391 254.63 678.601 255.07 678.821 255.56C679.031 256.05 679.281 256.44 679.381 256.44C679.481 256.44 679.561 256.62 679.561 256.84C679.561 257.06 679.651 257.3 679.771 257.37C679.881 257.44 679.981 257.68 679.981 257.9C679.981 258.12 680.051 258.3 680.141 258.3C680.231 258.3 680.471 258.72 680.681 259.24C680.891 259.75 681.151 260.18 681.251 260.18C681.351 260.18 681.441 260.37 681.441 260.6C681.441 260.83 681.531 261.02 681.651 261.02C681.771 261.02 681.861 261.14 681.861 261.29C681.861 261.64 682.881 263.68 683.131 263.84C683.231 263.9 683.321 264.14 683.321 264.36C683.321 264.58 683.411 264.76 683.531 264.76C683.651 264.76 683.751 264.92 683.761 265.12C683.761 265.32 684.041 265.95 684.371 266.52C685.441 268.42 686.031 269.61 686.031 269.89C686.031 270.04 686.121 270.16 686.241 270.16C686.361 270.16 686.451 270.35 686.451 270.58C686.451 270.81 686.521 271 686.611 271C686.701 271 687.051 271.61 687.391 272.35L688.011 273.7H699.561V272.87C699.561 272.41 699.471 272.04 699.351 272.04C699.231 272.04 699.141 271.81 699.141 271.52C699.141 271.2 699.021 271 698.831 271C698.661 271 698.521 270.82 698.521 270.58C698.521 270.34 698.431 270.16 698.311 270.16C698.191 270.16 698.101 269.93 698.101 269.64C698.101 269.35 698.011 269.12 697.891 269.12C697.771 269.12 697.681 268.93 697.681 268.7C697.681 268.47 697.591 268.28 697.471 268.28C697.351 268.28 697.261 268.09 697.261 267.86C697.261 267.63 697.121 267.38 696.951 267.32C696.781 267.26 696.641 267.02 696.641 266.81C696.641 266.6 696.551 266.42 696.431 266.42C696.311 266.42 696.221 266.19 696.221 265.9C696.221 265.61 696.131 265.38 696.011 265.38C695.891 265.38 695.801 265.19 695.801 264.96C695.801 264.73 695.711 264.54 695.591 264.54C695.471 264.54 695.381 264.37 695.381 264.15C695.381 263.93 695.241 263.64 695.071 263.5C694.901 263.36 694.761 263.11 694.761 262.95C694.761 262.79 694.671 262.66 694.551 262.66C694.431 262.66 694.341 262.43 694.341 262.14C694.341 261.85 694.251 261.62 694.131 261.62C694.011 261.62 693.921 261.43 693.921 261.2C693.921 260.97 693.831 260.78 693.711 260.78C693.591 260.78 693.501 260.59 693.501 260.36C693.501 260.13 693.411 259.94 693.291 259.94C693.171 259.94 693.081 259.75 693.081 259.52C693.081 259.29 692.941 259.04 692.771 258.98C692.601 258.91 692.461 258.68 692.461 258.47C692.461 258.26 692.371 258.08 692.251 258.08C692.131 258.08 692.041 257.85 692.041 257.56C692.041 257.27 691.951 257.04 691.831 257.04C691.711 257.04 691.621 256.85 691.621 256.62C691.621 256.39 691.531 256.2 691.411 256.2C691.291 256.2 691.201 256.01 691.201 255.78C691.201 255.55 691.061 255.3 690.891 255.24C690.721 255.17 690.581 254.94 690.581 254.73C690.581 254.52 690.491 254.34 690.371 254.34C690.251 254.34 690.161 254.2 690.161 254.03C690.161 253.79 690.431 253.72 691.301 253.72C691.931 253.72 692.441 253.63 692.441 253.51C692.441 253.39 692.771 253.3 693.171 253.3C693.571 253.3 693.901 253.21 693.901 253.09C693.901 252.97 694.091 252.88 694.321 252.88C694.551 252.88 694.741 252.79 694.741 252.67C694.741 252.55 694.971 252.46 695.261 252.46C695.581 252.46 695.781 252.34 695.781 252.15C695.781 251.98 695.961 251.84 696.201 251.84C696.441 251.84 696.621 251.75 696.621 251.63C696.621 251.51 696.721 251.42 696.841 251.42C697.121 251.42 698.081 250.46 698.081 250.18C698.081 250.06 698.171 249.96 698.291 249.96C698.411 249.96 698.501 249.77 698.501 249.54C698.501 249.31 698.641 249.12 698.811 249.12C698.981 249.12 699.121 248.95 699.121 248.75C699.121 248.55 699.241 248.26 699.381 248.12C699.581 247.92 699.641 246.33 699.641 241.59C699.641 236.85 699.581 235.3 699.381 235.24C699.241 235.19 699.121 234.97 699.121 234.75C699.121 234.53 698.981 234.35 698.811 234.35C698.641 234.35 698.501 234.16 698.501 233.93C698.501 233.43 696.601 231.44 696.121 231.44C695.941 231.44 695.791 231.35 695.791 231.23C695.791 231.11 695.651 231.02 695.481 231.02C695.311 231.02 695.171 230.93 695.171 230.81C695.171 230.69 694.891 230.6 694.551 230.6C694.161 230.6 693.931 230.49 693.931 230.31C693.931 230.01 693.251 229.81 691.591 229.63C691.051 229.57 690.601 229.44 690.601 229.33C690.601 229.22 681.621 229.14 668.751 229.14H646.901V251.07M598.081 245.69C598.021 245.84 598.001 247.92 598.031 250.32L598.091 254.68L612.411 254.73C624.621 254.78 626.771 254.73 627.031 254.49C627.471 254.05 627.471 246.16 627.031 245.72C626.611 245.3 598.241 245.27 598.081 245.69Z" fill="white"/>
<path fill-rule="evenodd" clip-rule="evenodd" d="M260.3 190.29C260.3 190.4 260.07 190.5 259.78 190.5C259.49 190.5 259.26 190.6 259.26 190.72C259.26 190.84 259.02 191.17 258.74 191.46C258.45 191.75 258.26 192.06 258.32 192.16C258.38 192.25 258.29 192.39 258.12 192.45C257.58 192.66 257.7 195.27 258.29 196.14C258.55 196.53 258.83 197.01 258.91 197.21C258.99 197.41 259.19 197.57 259.37 197.57C259.55 197.57 259.69 197.66 259.69 197.78C259.69 197.9 259.92 197.99 260.21 197.99C260.5 197.99 260.73 198.08 260.73 198.2C260.73 198.32 261.35 198.41 262.17 198.41C262.99 198.41 263.67 198.32 263.74 198.2C263.81 198.09 264.03 197.99 264.23 197.99C264.69 197.99 265.71 196.94 265.71 196.47C265.71 196.28 265.8 196.12 265.92 196.12C266.51 196.12 266.15 192.15 265.5 191.54C265.16 191.22 264.88 190.85 264.88 190.73C264.88 190.61 264.74 190.5 264.57 190.5C264.4 190.5 264.26 190.41 264.26 190.29C264.26 190.17 263.46 190.08 262.28 190.08C261.1 190.08 260.3 190.16 260.3 190.29ZM241.16 200.62C241.16 200.8 240.9 200.9 240.43 200.9C240.03 200.9 239.7 200.99 239.7 201.11C239.7 201.23 239.51 201.32 239.28 201.32C239.05 201.32 238.86 201.41 238.86 201.53C238.86 201.65 238.76 201.74 238.64 201.74C238.35 201.74 237.82 202.27 237.82 202.56C237.82 202.68 237.73 202.78 237.61 202.78C237.49 202.78 237.4 202.97 237.4 203.2C237.4 203.43 237.31 203.62 237.19 203.62C237.07 203.62 236.98 204.03 236.98 204.53C236.98 205.15 236.88 205.48 236.67 205.56C236.27 205.71 236.28 206.51 236.67 207.03C236.84 207.25 236.97 207.62 236.97 207.85C236.97 208.41 237.43 209.65 237.64 209.65C237.73 209.65 237.81 209.78 237.81 209.93C237.81 210.08 238.05 210.39 238.35 210.61C238.65 210.83 239.02 211.12 239.17 211.26C239.32 211.4 239.59 211.52 239.77 211.52C239.95 211.52 240.1 211.61 240.1 211.73C240.1 211.86 241.04 211.94 242.51 211.94C244.06 211.94 244.87 211.87 244.79 211.73C244.72 211.62 244.86 211.52 245.1 211.52C245.55 211.52 245.82 211.35 246.62 210.54C247.39 209.77 247.6 209.47 247.6 209.13C247.6 208.95 247.69 208.81 247.81 208.81C247.93 208.81 248.02 208.44 248.02 207.99C248.02 207.54 248.11 207.11 248.23 207.04C248.34 206.97 248.44 206.59 248.44 206.19C248.44 205.79 248.35 205.47 248.23 205.47C248.11 205.47 248.02 205.14 248.02 204.73C248.02 204.32 247.87 203.76 247.68 203.48C247.5 203.2 247.42 202.97 247.52 202.97C247.62 202.97 247.29 202.6 246.8 202.14C246.31 201.68 245.78 201.31 245.61 201.31C245.44 201.31 245.32 201.22 245.32 201.1C245.32 200.98 245 200.89 244.61 200.89C244.16 200.89 243.86 200.77 243.78 200.57C243.62 200.14 241.15 200.18 241.15 200.61M277.49 200.59C277.32 200.76 276.94 200.9 276.64 200.9C276.34 200.9 276.11 200.99 276.11 201.11C276.11 201.23 275.9 201.32 275.64 201.32C275.38 201.32 274.99 201.56 274.75 201.87C274.52 202.17 274.24 202.53 274.13 202.65C273.33 203.51 273.2 204.02 273.2 206.3C273.2 207.69 273.28 208.6 273.41 208.6C273.52 208.6 273.62 208.83 273.62 209.12C273.62 209.41 273.72 209.64 273.84 209.64C274.07 209.64 275.08 210.58 275.08 210.79C275.08 211.08 275.7 211.51 276.11 211.51C276.35 211.51 276.54 211.6 276.54 211.72C276.54 211.85 277.44 211.93 278.83 211.93C280.22 211.93 281.12 211.85 281.12 211.72C281.12 211.61 281.26 211.51 281.44 211.51C282.02 211.51 283.41 210.49 283.41 210.06C283.41 209.93 283.64 209.58 283.93 209.27C284.26 208.91 284.45 208.47 284.45 208.03C284.45 207.66 284.55 207.35 284.67 207.35C284.8 207.35 284.87 206.9 284.84 206.21C284.81 205.58 284.72 205.07 284.62 205.07C284.52 205.07 284.45 204.74 284.45 204.34C284.45 203.83 284.36 203.61 284.14 203.61C283.97 203.61 283.83 203.43 283.83 203.19C283.83 202.95 283.74 202.77 283.62 202.77C283.5 202.77 283.41 202.67 283.41 202.55C283.41 202.17 282.41 201.31 281.96 201.31C281.73 201.31 281.53 201.22 281.53 201.1C281.53 200.98 281.2 200.89 280.79 200.89C280.38 200.89 280.1 200.81 280.16 200.7C280.47 200.2 277.99 200.08 277.5 200.57M220.14 205.69C220.14 205.8 220.01 205.9 219.84 205.9C219.4 205.9 218.26 207.12 218.26 207.58C218.26 207.8 218.17 207.98 218.05 207.98C217.93 207.98 217.84 208.64 217.84 209.54C217.84 210.44 217.93 211.1 218.05 211.1C218.16 211.1 218.26 211.28 218.26 211.51C218.26 211.74 218.59 212.25 219 212.65C219.4 213.05 219.92 213.39 220.14 213.39C220.36 213.39 220.55 213.48 220.55 213.6C220.55 213.72 221.24 213.81 222.21 213.81C223.18 213.81 223.87 213.72 223.87 213.6C223.87 213.49 223.99 213.39 224.14 213.39C224.55 213.39 225.74 212.26 225.74 211.86C225.74 211.67 225.83 211.51 225.95 211.51C226.07 211.51 226.16 210.7 226.16 209.51V207.51L225.09 206.49L224.03 205.47H222.08C220.92 205.47 220.13 205.55 220.13 205.68M299.83 207.56C299.83 207.67 299.62 207.77 299.36 207.77C299.1 207.77 298.71 208.01 298.47 208.33C298.24 208.63 297.92 209.02 297.75 209.19C296.98 209.97 296.54 212.51 297.12 212.87C297.23 212.94 297.33 213.17 297.33 213.37C297.33 213.57 297.56 214.01 297.85 214.35C298.14 214.68 298.37 215.03 298.37 215.12C298.37 215.21 298.46 215.23 298.56 215.17C298.67 215.11 298.89 215.19 299.07 215.37C299.44 215.74 303.37 215.84 303.37 215.48C303.37 215.37 303.51 215.27 303.68 215.27C303.85 215.27 303.99 215.19 303.99 215.09C303.99 214.99 304.28 214.61 304.62 214.25C305.25 213.59 305.61 208.98 305 209.35C304.9 209.41 304.82 209.36 304.82 209.24C304.82 208.85 303.73 207.77 303.33 207.77C303.12 207.77 302.95 207.68 302.95 207.56C302.95 207.44 302.29 207.35 301.39 207.35C300.49 207.35 299.83 207.44 299.83 207.56ZM257.8 209.01C257.8 209.12 257.52 209.22 257.18 209.22C256.84 209.22 256.56 209.31 256.56 209.43C256.56 209.55 256.39 209.64 256.17 209.64C255.78 209.64 254.69 210.58 254.69 210.92C254.69 211.02 254.59 211.1 254.47 211.1C254.19 211.1 253.23 212.06 253.23 212.34C253.23 212.46 253.14 212.56 253.02 212.56C252.9 212.56 252.81 212.71 252.81 212.9C252.81 213.09 252.67 213.35 252.5 213.47C252.33 213.6 252.17 213.96 252.14 214.27C252.12 214.58 252.02 214.84 251.93 214.84C251.84 214.84 251.77 216.01 251.77 217.44C251.77 220.09 252.06 221.7 252.55 221.7C252.69 221.7 252.81 221.93 252.81 222.22C252.81 222.51 252.9 222.74 253.02 222.74C253.14 222.74 253.23 222.87 253.23 223.03C253.23 223.19 253.47 223.54 253.77 223.81C254.07 224.08 254.46 224.46 254.65 224.66C254.84 224.86 255.11 225.02 255.25 225.02C255.39 225.02 255.52 225.11 255.52 225.23C255.52 225.35 255.66 225.44 255.83 225.44C256 225.44 256.14 225.53 256.14 225.65C256.14 225.77 256.42 225.86 256.76 225.86C257.1 225.86 257.38 225.95 257.38 226.07C257.38 226.19 257.7 226.28 258.08 226.28C258.46 226.28 258.9 226.42 259.04 226.59C259.22 226.81 259.71 226.9 260.74 226.9C261.83 226.9 262.21 226.82 262.3 226.59C262.38 226.38 262.71 226.28 263.33 226.28C263.83 226.28 264.25 226.19 264.25 226.07C264.25 225.95 264.39 225.86 264.57 225.86C265.21 225.86 268 223.71 268 223.21C268 223.12 268.23 222.79 268.52 222.48C268.81 222.17 269.04 221.68 269.04 221.39C269.04 221.1 269.13 220.86 269.25 220.86C269.37 220.86 269.46 220.39 269.46 219.81C269.46 219.16 269.54 218.81 269.67 218.89C269.8 218.97 269.88 218.51 269.88 217.67C269.88 216.93 269.79 216.26 269.67 216.19C269.56 216.12 269.46 215.7 269.46 215.25C269.46 214.8 269.37 214.38 269.25 214.31C269.14 214.24 269.04 214 269.04 213.78C269.04 213.56 268.96 213.38 268.85 213.38C268.74 213.38 268.61 213.14 268.53 212.85C268.46 212.56 268.31 212.38 268.19 212.45C268.07 212.52 267.99 212.43 267.99 212.25C267.99 212.07 267.9 211.93 267.78 211.93C267.66 211.93 267.57 211.8 267.57 211.64C267.57 211.48 267.36 211.21 267.1 211.04C266.84 210.87 266.4 210.52 266.12 210.28C265.84 210.03 265.28 209.69 264.87 209.51C264.47 209.34 263.97 209.11 263.77 209C263.27 208.74 257.79 208.75 257.79 209.02M235.7 218.22C235.65 218.36 235.3 218.49 234.91 218.51C234.52 218.53 234.17 218.65 234.13 218.78C234.09 218.91 233.87 219.01 233.65 219.01C233.43 219.01 233.25 219.1 233.25 219.22C233.25 219.34 233.06 219.43 232.82 219.43C232.43 219.43 231.37 220.27 231.37 220.58C231.37 220.75 230.81 221.3 230.64 221.3C230.35 221.3 229.91 221.92 229.91 222.32C229.91 222.56 229.82 222.75 229.7 222.75C229.58 222.75 229.49 222.94 229.49 223.17C229.49 223.4 229.4 223.59 229.28 223.59C229.16 223.59 229.07 223.92 229.07 224.32C229.07 224.81 228.97 225.05 228.78 225.05C228.55 225.05 228.49 225.47 228.52 227.18C228.54 228.76 228.62 229.3 228.81 229.26C228.95 229.23 229.06 229.28 229.04 229.36C228.94 229.98 229.1 231.08 229.27 230.97C229.38 230.9 229.48 231.02 229.48 231.23C229.48 231.44 229.67 231.82 229.9 232.07C230.13 232.32 230.32 232.6 230.32 232.71C230.32 233 231.49 234.2 231.77 234.2C231.9 234.2 232.23 234.43 232.49 234.72C232.76 235.01 233.13 235.24 233.31 235.24C233.49 235.24 233.65 235.33 233.65 235.45C233.65 235.57 233.98 235.66 234.38 235.66C234.78 235.66 235.11 235.75 235.11 235.87C235.11 236 236.15 236.08 237.82 236.08C239.49 236.08 240.53 236 240.53 235.87C240.53 235.76 240.76 235.66 241.05 235.66C241.34 235.66 241.57 235.57 241.57 235.45C241.57 235.33 241.76 235.24 241.99 235.24C242.22 235.24 242.41 235.16 242.41 235.06C242.41 234.96 242.65 234.81 242.94 234.74C243.23 234.67 243.41 234.52 243.34 234.41C243.27 234.3 243.32 234.21 243.44 234.21C243.74 234.21 245.19 232.73 245.28 232.33C245.32 232.16 245.43 231.99 245.54 231.95C245.65 231.91 245.73 231.7 245.73 231.48C245.73 231.26 245.82 231.08 245.94 231.08C246.06 231.08 246.15 230.76 246.15 230.37C246.15 229.94 246.27 229.62 246.46 229.54C246.71 229.44 246.77 228.99 246.77 227.24C246.77 225.49 246.7 224.99 246.46 224.75C246.29 224.58 246.15 224.15 246.15 223.8C246.15 223.45 246.06 223.16 245.94 223.16C245.82 223.16 245.73 222.98 245.73 222.76C245.73 222.54 245.4 222.04 245 221.64C244.6 221.24 244.27 220.81 244.27 220.68C244.27 220.55 244.18 220.45 244.07 220.45C243.96 220.45 243.66 220.24 243.39 219.98C243.13 219.72 242.68 219.4 242.39 219.27C240.79 218.53 240.29 218.35 240.12 218.45C240.02 218.51 239.82 218.42 239.68 218.25C239.35 217.85 235.81 217.8 235.68 218.2M281.66 218.25C281.59 218.43 281.38 218.51 281.15 218.45C280.93 218.39 280.6 218.49 280.42 218.67C280.24 218.85 279.9 219 279.66 219C279.42 219 279.23 219.09 279.23 219.21C279.23 219.33 279.04 219.42 278.81 219.42C278.58 219.42 278.39 219.5 278.39 219.59C278.39 219.68 278.16 219.89 277.87 220.04C277.58 220.19 277.35 220.4 277.35 220.5C277.35 220.6 277.02 221.01 276.62 221.41C276.22 221.81 275.89 222.28 275.89 222.44C275.89 222.6 275.8 222.74 275.68 222.74C275.56 222.74 275.47 222.93 275.47 223.16C275.47 223.39 275.38 223.58 275.26 223.58C275.14 223.58 275.05 223.91 275.05 224.31C275.05 224.71 274.96 225.04 274.84 225.04C274.71 225.04 274.63 225.9 274.63 227.21C274.63 228.43 274.72 229.44 274.84 229.51C274.95 229.58 275.05 229.81 275.05 230.02C275.05 230.23 275.19 230.66 275.35 230.98C275.52 231.3 275.6 231.64 275.55 231.73C275.49 231.82 275.59 231.9 275.78 231.9C275.97 231.9 276.06 231.99 275.99 232.11C275.92 232.22 276.01 232.37 276.18 232.44C276.36 232.51 276.51 232.73 276.51 232.92C276.51 233.11 276.74 233.4 277.02 233.55C277.3 233.7 277.48 233.9 277.42 234C277.36 234.1 277.46 234.18 277.65 234.18C277.84 234.18 278.2 234.41 278.47 234.7C278.73 234.99 279.11 235.22 279.29 235.22C279.47 235.22 279.63 235.31 279.63 235.43C279.63 235.55 279.96 235.64 280.36 235.64C280.76 235.64 281.09 235.73 281.09 235.85C281.09 235.98 282.13 236.06 283.79 236.06C285.45 236.06 286.5 235.98 286.5 235.85C286.5 235.74 286.73 235.64 287.02 235.64C287.31 235.64 287.54 235.55 287.54 235.43C287.54 235.31 287.77 235.22 288.06 235.22C288.35 235.22 288.58 235.13 288.58 235.01C288.58 234.89 288.67 234.8 288.79 234.8C289.17 234.8 291.29 232.73 291.29 232.36C291.29 232.1 291.43 231.88 292.07 231.17C292.21 231.01 292.33 230.59 292.33 230.24C292.33 229.89 292.42 229.6 292.54 229.6C292.67 229.6 292.75 228.67 292.75 227.22C292.75 225.86 292.66 224.78 292.54 224.71C292.43 224.64 292.33 224.32 292.33 223.99C292.33 223.66 292.19 223.29 292.02 223.14C291.85 223 291.71 222.78 291.71 222.65C291.71 222.44 291.34 221.95 290.28 220.75C289.7 220.1 288.96 219.53 288.28 219.22C287.94 219.06 287.4 218.8 287.08 218.63C286.76 218.46 286.36 218.38 286.19 218.44C286.02 218.51 285.83 218.44 285.77 218.28C285.61 217.85 281.83 217.81 281.67 218.23M303.58 226.08C303.58 226.19 303.42 226.29 303.22 226.29C303.02 226.29 302.59 226.43 302.26 226.6C301.93 226.77 301.57 226.91 301.46 226.91C301.22 226.91 299.84 228.36 299.84 228.62C299.84 228.71 299.7 228.79 299.53 228.79C299.34 228.79 299.22 228.98 299.22 229.3C299.22 229.58 299.12 229.87 299 229.94C298.74 230.1 298.77 234.2 299.04 234.2C299.14 234.2 299.22 234.35 299.22 234.53C299.22 234.71 299.64 235.28 300.16 235.79C300.67 236.31 301.1 236.81 301.1 236.92C301.1 237.03 301.33 237.11 301.62 237.11C301.91 237.11 302.14 237.2 302.14 237.32C302.14 237.45 303.11 237.53 304.64 237.53C306.01 237.53 307.14 237.46 307.14 237.36C307.14 237.26 307.47 237.08 307.87 236.93C308.27 236.79 308.6 236.55 308.6 236.41C308.6 236.27 308.79 236.02 309.02 235.86C309.25 235.7 309.44 235.44 309.44 235.29C309.44 235.14 309.58 234.96 309.75 234.9C309.92 234.84 310.06 234.56 310.06 234.28C310.06 234 310.15 233.78 310.27 233.78C310.39 233.78 310.48 233.06 310.48 232.02C310.48 231.05 310.39 230.21 310.27 230.13C310.15 230.05 310.06 229.82 310.06 229.59C310.06 229.36 309.92 229.13 309.75 229.06C309.58 228.99 309.44 228.76 309.44 228.53C309.44 228.3 309.35 228.18 309.23 228.25C309.12 228.32 309.02 228.27 309.02 228.13C309.02 227.78 307.95 226.9 307.51 226.9C307.31 226.9 307.15 226.81 307.15 226.71C307.15 226.61 306.78 226.46 306.32 226.38C305.86 226.3 305.49 226.15 305.49 226.05C305.49 225.95 305.07 225.86 304.55 225.86C304.03 225.86 303.61 225.95 303.61 226.07M214.84 226.42C214.61 226.48 214.34 226.62 214.23 226.72C214.12 226.82 213.86 226.91 213.66 226.91C213.46 226.91 213.29 227 213.29 227.12C213.29 227.24 213.19 227.33 213.07 227.33C212.78 227.33 212.25 227.86 212.25 228.15C212.25 228.27 212.16 228.37 212.04 228.37C211.92 228.37 211.83 228.56 211.83 228.79C211.83 229.02 211.74 229.21 211.62 229.21C211.5 229.21 211.41 229.54 211.41 229.94C211.41 230.45 211.32 230.67 211.1 230.67C210.86 230.67 210.79 230.93 210.79 231.8C210.79 232.53 210.9 233.04 211.1 233.24C211.27 233.41 211.41 233.84 211.41 234.19C211.41 234.54 211.5 234.83 211.62 234.83C211.74 234.83 211.83 234.97 211.83 235.15C211.83 235.57 213.37 237.12 213.79 237.12C213.97 237.12 214.12 237.21 214.12 237.33C214.12 237.45 214.54 237.54 215.04 237.54C215.54 237.54 216.02 237.63 216.09 237.75C216.16 237.86 216.59 237.96 217.05 237.96C217.55 237.96 217.83 237.88 217.75 237.75C217.67 237.62 217.99 237.54 218.57 237.54C219.09 237.54 219.52 237.45 219.52 237.33C219.52 237.21 219.62 237.12 219.74 237.12C219.98 237.12 220.33 236.85 221.04 236.14C221.84 235.34 222.02 235.07 222.02 234.63C222.02 234.4 222.11 234.21 222.23 234.21C222.36 234.21 222.44 233.31 222.44 231.92C222.44 230.53 222.36 229.63 222.23 229.63C222.12 229.63 222.02 229.44 222.02 229.21C222.02 228.98 221.93 228.79 221.81 228.79C221.69 228.79 221.6 228.65 221.6 228.48C221.6 228.31 221.53 228.17 221.44 228.17C221.35 228.17 220.98 227.89 220.62 227.55C220.25 227.21 219.82 226.93 219.65 226.93C219.48 226.93 219.31 226.82 219.26 226.68C219.17 226.42 215.63 226.23 214.83 226.44M225.22 241.47C225.11 241.58 224.76 241.7 224.45 241.72C224.14 241.75 223.89 241.89 223.89 242.03C223.89 242.17 223.7 242.3 223.47 242.3C223.24 242.3 223.05 242.39 223.05 242.51C223.05 242.63 222.95 242.72 222.82 242.72C222.56 242.72 221.18 244.16 221.18 244.43C221.18 244.52 221.08 244.6 220.96 244.6C220.67 244.6 220.14 245.13 220.14 245.42C220.14 245.54 220.05 245.83 219.93 246.06C219.82 246.29 219.63 246.66 219.51 246.89C219.4 247.12 219.3 248.66 219.3 250.32C219.3 252.2 219.38 253.34 219.51 253.34C219.62 253.34 219.72 253.57 219.72 253.86C219.72 254.15 219.81 254.38 219.93 254.38C220.05 254.38 220.14 254.54 220.14 254.75C220.14 254.96 220.37 255.29 220.66 255.51C220.95 255.72 221.18 256.02 221.18 256.16C221.18 256.51 222.21 257.51 222.57 257.51C222.73 257.51 223.12 257.74 223.42 258.03C223.73 258.32 224.14 258.55 224.34 258.55C224.54 258.55 224.75 258.64 224.82 258.76C224.89 258.87 225.31 258.97 225.76 258.97C226.21 258.97 226.63 259.06 226.7 259.18C226.77 259.29 227.43 259.39 228.17 259.39C228.91 259.39 229.51 259.3 229.51 259.18C229.51 259.06 229.93 258.97 230.45 258.97C230.97 258.97 231.39 258.88 231.39 258.76C231.39 258.64 231.63 258.55 231.92 258.55C232.21 258.55 232.5 258.41 232.57 258.24C232.64 258.07 232.82 257.93 232.98 257.93C233.14 257.93 233.27 257.84 233.27 257.72C233.27 257.6 233.41 257.51 233.59 257.51C234.01 257.51 235.56 255.97 235.56 255.55C235.56 255.37 235.65 255.22 235.77 255.22C235.89 255.22 235.98 255.07 235.98 254.9C235.98 254.73 236.07 254.63 236.19 254.71C236.31 254.78 236.4 254.57 236.4 254.2C236.4 253.83 236.53 253.51 236.71 253.44C236.92 253.36 237.02 253.03 237.02 252.41C237.02 251.91 237.12 251.49 237.24 251.49C237.37 251.49 237.44 250.97 237.41 250.14C237.39 249.4 237.29 248.79 237.19 248.79C237.09 248.79 237.01 248.41 237.01 247.95C237.01 247.4 236.9 247.07 236.7 246.99C236.53 246.92 236.39 246.7 236.39 246.49C236.39 246.28 236.3 246.05 236.18 245.98C236.07 245.91 235.97 245.72 235.97 245.55C235.97 245.38 235.84 245.09 235.67 244.89C235.51 244.69 235.12 244.22 234.82 243.85C234.52 243.48 234.16 243.17 234.02 243.17C233.88 243.17 233.64 242.98 233.47 242.75C233.31 242.52 232.96 242.33 232.7 242.33C232.44 242.33 232.23 242.24 232.23 242.14C232.23 241.41 225.9 240.83 225.24 241.5M290.36 241.47C290.29 241.58 290 241.68 289.72 241.68C289.44 241.68 289.15 241.82 289.09 241.99C289.03 242.16 288.79 242.3 288.58 242.3C288.37 242.3 288.19 242.39 288.19 242.51C288.19 242.63 288.09 242.72 287.98 242.72C287.87 242.72 287.44 243.04 287.04 243.44C286.64 243.84 286.32 244.26 286.32 244.38C286.32 244.5 286.17 244.59 286 244.59C285.83 244.59 285.73 244.68 285.81 244.8C285.88 244.91 285.78 245.01 285.58 245.01C285.38 245.01 285.28 245.07 285.35 245.14C285.42 245.21 285.37 245.47 285.23 245.71C284.61 246.82 284.46 247.72 284.45 250.35C284.45 251.96 284.53 253.15 284.65 253.22C284.76 253.29 284.86 253.58 284.86 253.86C284.86 254.14 284.95 254.37 285.07 254.37C285.19 254.37 285.28 254.5 285.28 254.65C285.28 254.8 285.49 255.16 285.75 255.43C286.01 255.7 286.35 256.18 286.51 256.5C286.67 256.82 286.93 257.07 287.08 257.07C287.23 257.07 287.36 257.16 287.36 257.28C287.36 257.4 287.51 257.49 287.69 257.49C287.87 257.49 288.16 257.63 288.33 257.8C288.5 257.97 288.73 258.06 288.84 257.99C288.95 257.92 289.01 257.99 288.98 258.14C288.95 258.3 289.15 258.44 289.5 258.48C289.81 258.52 290.07 258.63 290.07 258.74C290.07 258.85 290.49 258.93 291.01 258.93C291.53 258.93 291.95 259.02 291.95 259.14C291.95 259.26 292.54 259.35 293.3 259.35C294.06 259.35 294.65 259.26 294.65 259.14C294.65 259.02 295.07 258.93 295.59 258.93C296.11 258.93 296.53 258.84 296.53 258.72C296.53 258.6 296.77 258.51 297.06 258.51C297.35 258.51 297.64 258.37 297.71 258.2C297.77 258.03 297.96 257.89 298.12 257.89C298.28 257.89 298.41 257.8 298.41 257.68C298.41 257.56 298.56 257.47 298.75 257.47C299.1 257.47 300.7 255.9 300.7 255.56C300.7 255.46 300.89 255.17 301.12 254.92C301.35 254.67 301.54 254.21 301.54 253.89C301.54 253.51 301.65 253.3 301.85 253.3C302.08 253.3 302.16 253.06 302.16 252.36C302.16 251.85 302.25 251.42 302.37 251.42C302.49 251.42 302.58 250.83 302.58 250.07C302.58 249.31 302.49 248.72 302.37 248.72C302.25 248.72 302.16 248.3 302.16 247.78C302.16 247.09 302.08 246.84 301.85 246.84C301.66 246.84 301.54 246.64 301.54 246.32C301.54 246.03 301.45 245.8 301.33 245.8C301.21 245.8 301.12 245.65 301.12 245.47C301.12 245.29 301 245.02 300.86 244.88C300.72 244.73 300.33 244.27 300 243.85C299.67 243.43 299.3 243.09 299.16 243.09C299.02 243.09 298.78 242.9 298.62 242.67C298.46 242.44 298.11 242.25 297.85 242.25C297.57 242.25 297.38 242.12 297.38 241.94C297.38 241.77 297.2 241.63 296.98 241.63C296.76 241.63 296.52 241.54 296.45 241.42C296.37 241.3 295.13 241.21 293.43 241.21C291.73 241.21 290.49 241.29 290.41 241.42M202.87 244.8C202.87 244.91 202.72 245.01 202.53 245.01C202.34 245.01 201.83 245.4 201.39 245.87L200.58 246.73V248.54C200.58 250.23 200.87 251.46 201.27 251.47C201.52 251.47 202.04 252.03 202.04 252.29C202.04 252.41 202.23 252.51 202.46 252.51C202.69 252.51 202.88 252.6 202.88 252.72C202.88 253.23 206.4 252.96 207 252.41C207.31 252.12 207.65 251.89 207.75 251.89C208.05 251.89 208.49 251.2 208.5 250.71C208.5 250.46 208.6 250.2 208.71 250.13C208.82 250.06 208.92 249.35 208.92 248.54C208.92 247.62 208.84 247.13 208.71 247.21C208.53 247.32 208.4 246.74 208.48 246.22C208.49 246.13 208.41 246.06 208.3 246.06C208.19 246.06 208.09 245.94 208.09 245.79C208.09 245.64 207.76 245.39 207.36 245.23C206.96 245.07 206.63 244.87 206.63 244.78C206.63 244.69 205.79 244.61 204.76 244.61C203.65 244.61 202.89 244.69 202.89 244.82M314.66 247.58C314.4 247.71 314.19 247.93 314.19 248.07C314.19 248.21 314.11 248.33 314.01 248.33C313.67 248.33 312.73 249.42 312.73 249.82C312.73 250.03 312.64 250.21 312.52 250.21C312.4 250.21 312.31 250.8 312.31 251.58C312.31 252.44 312.39 252.9 312.52 252.82C312.64 252.75 312.73 252.92 312.73 253.22C312.73 253.52 312.82 253.75 312.94 253.75C313.06 253.75 313.15 253.88 313.15 254.03C313.15 254.18 313.34 254.48 313.57 254.69C313.8 254.9 313.99 254.99 313.99 254.9C313.99 254.81 314.16 254.93 314.38 255.18C314.95 255.83 318.52 255.86 318.99 255.21C319.15 254.98 319.39 254.79 319.52 254.79C319.65 254.79 319.88 254.56 320.03 254.27C320.18 253.98 320.39 253.75 320.48 253.75C320.57 253.75 320.65 253.42 320.65 253.02C320.65 252.62 320.74 252.29 320.86 252.29C320.98 252.29 321.07 251.92 321.07 251.46C321.07 251 320.98 250.63 320.86 250.63C320.74 250.63 320.65 250.34 320.65 250C320.65 249.38 319.88 248.34 319.41 248.34C319.29 248.34 319.19 248.2 319.19 248.03C319.19 247.86 319.01 247.72 318.77 247.72C318.53 247.72 318.35 247.63 318.35 247.51C318.35 247.23 315.25 247.29 314.66 247.58ZM303.99 262.49C303.99 262.6 303.57 262.7 303.05 262.7C302.53 262.7 302.11 262.79 302.11 262.91C302.11 263.03 301.92 263.12 301.68 263.12C301.25 263.12 300.66 263.56 300.65 263.89C300.65 263.98 300.32 264.34 299.92 264.68C299.52 265.02 299.2 265.47 299.2 265.67C299.2 265.87 299.11 266.04 298.99 266.04C298.65 266.04 298.74 270.23 299.09 270.7C299.25 270.92 299.34 271.17 299.28 271.27C299.22 271.37 299.32 271.45 299.49 271.45C299.66 271.45 299.81 271.55 299.81 271.67C299.81 272.05 301.24 273.33 301.68 273.33C301.91 273.33 302.1 273.42 302.1 273.52C302.1 273.62 302.49 273.78 302.98 273.86C303.46 273.94 304.02 274.11 304.23 274.24C304.5 274.41 304.7 274.41 304.97 274.24C305.17 274.11 305.74 273.94 306.22 273.86C306.7 273.78 307.1 273.63 307.1 273.52C307.1 273.41 307.29 273.33 307.52 273.33C308 273.33 309.39 272.04 309.39 271.59C309.39 271.43 309.53 271.24 309.7 271.17C309.87 271.11 310.01 270.87 310.01 270.64C310.01 270.41 310.1 270.17 310.22 270.1C310.34 270.03 310.43 269.18 310.43 268.21C310.43 267.18 310.34 266.45 310.22 266.45C310.11 266.45 310.01 266.24 310.01 265.97C310.01 265.7 309.68 265.15 309.28 264.72C308.88 264.29 308.55 263.89 308.55 263.83C308.55 263.55 307.92 263.12 307.52 263.12C307.28 263.12 307.09 263.03 307.09 262.91C307.09 262.79 306.67 262.7 306.15 262.7C305.63 262.7 305.21 262.61 305.21 262.49C305.21 262.37 304.93 262.28 304.59 262.28C304.25 262.28 303.97 262.37 303.97 262.49M213.75 263.23C213.38 263.52 213.07 263.69 213.07 263.59C213.07 263.49 212.79 263.75 212.45 264.15C212.11 264.55 211.83 265 211.83 265.14C211.83 265.28 211.74 265.4 211.62 265.4C211.5 265.4 211.41 265.73 211.41 266.14C211.41 266.55 211.29 266.92 211.13 266.98C210.71 267.14 210.67 269.33 211.08 269.49C211.28 269.57 211.4 269.87 211.4 270.32C211.4 270.71 211.49 271.03 211.61 271.03C211.73 271.03 211.82 271.22 211.82 271.45C211.82 271.68 211.9 271.87 211.99 271.87C212.08 271.87 212.29 272.1 212.44 272.39C212.59 272.68 212.84 272.91 212.99 272.91C213.14 272.91 213.27 273 213.27 273.12C213.27 273.24 213.45 273.33 213.67 273.33C213.89 273.33 214.1 273.4 214.14 273.49C214.37 274.01 217.48 274.6 217.74 274.18C217.81 274.07 218.28 273.92 218.79 273.84C219.3 273.76 219.68 273.64 219.63 273.56C219.58 273.48 219.83 273.29 220.19 273.13C221.09 272.73 221.59 272.26 221.59 271.83C221.59 271.63 221.66 271.46 221.75 271.46C221.84 271.46 222.02 271.21 222.17 270.9C222.49 270.22 222.53 266.05 222.22 266.05C222.11 266.05 222.01 265.86 222.01 265.63C222.01 265.08 220.05 263.14 219.5 263.14C219.27 263.14 219.13 263.05 219.2 262.93C219.53 262.39 214.45 262.7 213.74 263.26M235.54 264.36C235.54 264.47 235.26 264.57 234.92 264.57C234.58 264.57 233.97 264.76 233.56 264.99C233.15 265.22 232.68 265.41 232.51 265.41C232.34 265.41 232.2 265.51 232.2 265.63C232.2 265.75 231.73 266.29 231.15 266.84C230.04 267.89 229.08 269.52 229.08 270.36C229.08 270.63 228.94 271 228.77 271.17C228.54 271.4 228.46 271.96 228.46 273.32C228.46 274.76 228.53 275.18 228.77 275.28C228.98 275.36 229.08 275.68 229.08 276.24C229.08 276.7 229.17 277.08 229.29 277.08C229.41 277.08 229.5 277.27 229.5 277.5C229.5 277.73 229.59 277.92 229.71 277.92C229.83 277.92 229.92 278.02 229.92 278.14C229.92 278.61 232.14 280.84 232.62 280.84C232.74 280.84 232.84 280.93 232.84 281.05C232.84 281.17 233.02 281.26 233.24 281.26C233.46 281.26 233.67 281.36 233.71 281.48C233.75 281.6 234.06 281.73 234.39 281.76C234.73 281.79 235.04 281.93 235.08 282.06C235.13 282.22 235.96 282.3 237.62 282.3C239.28 282.3 240.11 282.22 240.16 282.06C240.2 281.93 240.51 281.79 240.85 281.76C241.19 281.72 241.49 281.6 241.53 281.48C241.57 281.36 241.78 281.26 242 281.26C242.22 281.26 242.4 281.18 242.4 281.09C242.4 281 242.73 280.79 243.13 280.64C243.53 280.49 243.86 280.3 243.86 280.24C243.86 280.18 244.19 279.75 244.59 279.3C244.99 278.85 245.32 278.35 245.32 278.2C245.32 278.05 245.41 277.97 245.53 278.04C245.65 278.11 245.74 277.94 245.74 277.64C245.74 277.34 245.83 277.11 245.95 277.11C246.07 277.11 246.16 276.79 246.16 276.4C246.16 275.98 246.28 275.65 246.46 275.58C246.69 275.49 246.76 274.98 246.76 273.27C246.76 271.56 246.68 270.99 246.46 270.78C246.3 270.62 246.16 270.2 246.16 269.84C246.16 269.48 246.07 269.2 245.95 269.2C245.83 269.2 245.74 269.03 245.74 268.83C245.74 268.63 245.55 268.33 245.32 268.16C245.09 267.99 244.9 267.78 244.9 267.69C244.9 267.4 243.6 266.08 243.31 266.08C243.16 266.08 243.03 265.94 243.03 265.77C243.03 265.6 242.89 265.46 242.72 265.46C242.55 265.46 242.41 265.36 242.41 265.24C242.41 265.12 242.33 265.07 242.23 265.13C242.13 265.19 241.87 265.11 241.66 264.94C241.44 264.78 240.97 264.64 240.6 264.64C240.24 264.64 239.88 264.54 239.81 264.43C239.74 264.31 238.77 264.22 237.61 264.22C236.37 264.22 235.54 264.3 235.54 264.43M281.52 264.36C281.52 264.47 281.24 264.57 280.91 264.57C280.58 264.57 280.24 264.66 280.17 264.78C280.1 264.89 279.86 264.99 279.64 264.99C279.42 264.99 279.24 265.08 279.24 265.2C279.24 265.32 279.05 265.41 278.82 265.41C278.59 265.41 278.4 265.55 278.4 265.72C278.4 265.89 278.29 266.03 278.15 266.03C277.36 266.03 275.07 269.36 275.07 270.5C275.07 270.79 274.98 271.02 274.86 271.02C274.59 271.02 274.58 275.24 274.86 275.51C274.97 275.62 275.08 276.01 275.11 276.38C275.14 276.75 275.23 277.05 275.32 277.05C275.41 277.05 275.48 277.2 275.48 277.39C275.48 277.58 275.69 277.93 275.95 278.17C276.21 278.41 276.54 278.85 276.69 279.15C276.84 279.44 277.26 279.86 277.63 280.07C277.99 280.28 278.44 280.62 278.63 280.83C278.81 281.04 279.11 281.21 279.29 281.21C279.47 281.21 279.64 281.3 279.68 281.4C279.72 281.51 280.03 281.62 280.37 281.66C280.71 281.7 281.12 281.84 281.27 281.99C281.64 282.34 286.02 282.36 286.14 282.01C286.18 281.88 286.49 281.74 286.83 281.71C287.17 281.67 287.47 281.55 287.51 281.43C287.55 281.31 287.79 281.21 288.04 281.21C288.29 281.21 288.63 281.03 288.79 280.8C288.95 280.58 289.16 280.44 289.25 280.5C289.44 280.62 290.88 279.19 290.88 278.87C290.88 278.75 291.05 278.5 291.27 278.32C291.48 278.14 291.72 277.77 291.8 277.51C291.88 277.25 292.04 277.04 292.14 277.04C292.24 277.04 292.33 276.71 292.33 276.31C292.33 275.91 292.42 275.58 292.54 275.58C292.67 275.58 292.75 274.61 292.75 273.08C292.75 271.55 292.67 270.58 292.54 270.58C292.43 270.58 292.33 270.38 292.33 270.14C292.33 269.69 291.72 268.45 291.44 268.32C291.36 268.28 291.28 268.16 291.28 268.05C291.28 267.94 291.16 267.72 291.02 267.57C290.88 267.42 290.53 267 290.24 266.65C289.96 266.3 289.56 266 289.35 266C289.14 266 288.98 265.89 288.98 265.76C288.98 265.44 288.34 264.97 287.89 264.96C287.69 264.96 287.53 264.86 287.53 264.75C287.53 264.64 287.11 264.54 286.59 264.54C286.07 264.54 285.65 264.45 285.65 264.33C285.65 264.21 284.82 264.12 283.57 264.12C282.32 264.12 281.49 264.2 281.49 264.33M257.23 274.21C256.86 274.33 256.55 274.51 256.55 274.6C256.55 274.69 256.36 274.76 256.12 274.76C255.68 274.76 254.67 275.62 254.67 276C254.67 276.12 254.57 276.22 254.44 276.22C254.09 276.22 252.8 277.71 252.8 278.11C252.8 278.3 252.66 278.52 252.49 278.58C252.32 278.65 252.18 278.88 252.18 279.11C252.18 279.34 252.09 279.58 251.97 279.65C251.85 279.73 251.76 281 251.76 282.78C251.76 284.56 251.84 285.78 251.97 285.78C252.08 285.78 252.18 286.01 252.18 286.3C252.18 286.62 252.3 286.82 252.49 286.82C252.66 286.82 252.8 286.99 252.8 287.2C252.8 287.41 252.99 287.78 253.22 288.02C253.45 288.27 253.64 288.55 253.64 288.65C253.64 288.75 253.89 289.01 254.19 289.23C254.49 289.45 254.96 289.83 255.22 290.09C255.49 290.35 255.9 290.56 256.13 290.56C256.36 290.56 256.56 290.65 256.56 290.77C256.56 290.89 256.75 290.98 256.98 290.98C257.21 290.98 257.4 291.07 257.4 291.19C257.4 291.31 257.81 291.4 258.32 291.4C258.86 291.4 259.27 291.5 259.32 291.66C259.45 292.04 261.76 292.08 261.91 291.7C261.98 291.51 262.34 291.4 262.94 291.4C263.44 291.4 263.85 291.31 263.85 291.19C263.85 291.07 264.11 290.98 264.44 290.98C264.77 290.98 265.22 290.8 265.45 290.59C265.68 290.37 266.05 290.16 266.27 290.11C266.49 290.06 266.64 289.91 266.61 289.78C266.58 289.65 266.65 289.53 266.77 289.53C267.08 289.53 268.01 288.56 268.01 288.24C268.01 288.09 268.25 287.75 268.53 287.48C268.81 287.21 269.05 286.77 269.05 286.49C269.05 286.21 269.14 285.99 269.26 285.99C269.38 285.99 269.47 285.57 269.47 285.07C269.47 284.57 269.56 284.09 269.68 284.02C269.79 283.95 269.89 283.34 269.89 282.67C269.89 282 269.8 281.39 269.68 281.32C269.56 281.25 269.47 280.78 269.47 280.27C269.47 279.76 269.38 279.35 269.26 279.35C269.14 279.35 269.05 279.21 269.05 279.03C269.05 278.63 268.61 277.84 268.27 277.62C268.13 277.53 268.01 277.31 268.01 277.14C268.01 276.97 267.92 276.88 267.8 276.95C267.68 277.02 267.59 276.93 267.59 276.74C267.59 276.33 267.29 276.02 266.39 275.49C266.02 275.27 265.71 275.02 265.71 274.93C265.71 274.84 265.52 274.77 265.29 274.77C265.06 274.77 264.87 274.68 264.87 274.56C264.87 274.44 264.64 274.35 264.35 274.35C264.06 274.35 263.83 274.26 263.83 274.14C263.83 273.86 258.11 273.92 257.22 274.21M218.27 284.75C218.27 284.86 218.12 284.96 217.94 284.96C217.51 284.96 216.39 286.08 216.39 286.5C216.39 286.68 216.3 286.83 216.18 286.83C216.06 286.83 215.97 287.59 215.97 288.7C215.97 289.81 216.05 290.57 216.18 290.57C216.29 290.57 216.39 290.72 216.39 290.9C216.39 291.33 217.51 292.45 217.94 292.45C218.12 292.45 218.27 292.54 218.27 292.66C218.27 293.27 222.21 292.8 222.68 292.14C222.76 292.03 222.95 291.93 223.1 291.93C223.25 291.93 223.37 291.81 223.37 291.66C223.37 291.51 223.46 291.33 223.58 291.24C224.24 290.77 224.71 286.83 224.1 286.83C223.99 286.83 223.89 286.71 223.89 286.56C223.89 286.15 222.76 284.96 222.36 284.96C222.17 284.96 222.01 284.87 222.01 284.75C222.01 284.63 221.25 284.54 220.14 284.54C219.03 284.54 218.27 284.62 218.27 284.75ZM297.65 286.62C297.58 286.73 297.34 286.83 297.11 286.83C296.88 286.83 296.65 286.97 296.58 287.14C296.51 287.31 296.38 287.4 296.27 287.34C296.17 287.28 296.08 287.37 296.08 287.55C296.08 287.73 296 287.87 295.91 287.87C295.16 287.87 294.68 291.91 295.35 292.58C295.52 292.75 295.61 292.98 295.55 293.09C295.49 293.19 295.58 293.28 295.76 293.28C295.94 293.28 296.08 293.38 296.08 293.5C296.08 293.76 296.44 294.11 297.07 294.47C297.62 294.78 300.99 294.82 301.17 294.52C301.24 294.41 301.44 294.31 301.61 294.31C301.97 294.31 302.52 293.82 302.52 293.49C302.52 293.37 302.61 293.27 302.73 293.27C302.85 293.27 302.94 293.08 302.94 292.85C302.94 292.62 303.03 292.43 303.15 292.43C303.27 292.43 303.36 291.67 303.36 290.56C303.36 289.45 303.28 288.69 303.15 288.69C303.04 288.69 302.94 288.54 302.94 288.36C302.94 288.18 302.66 287.75 302.32 287.41C301.98 287.07 301.7 286.85 301.7 286.93C301.7 287.01 301.47 286.93 301.19 286.74C300.61 286.36 297.86 286.26 297.65 286.61M240.12 288.49C240.12 288.6 239.97 288.7 239.79 288.7C239.42 288.7 238.87 289.19 238.87 289.52C238.87 289.64 238.77 289.74 238.65 289.74C238.32 289.74 237.41 290.72 237.41 291.07C237.41 291.24 237.32 291.44 237.2 291.51C236.77 291.78 236.95 296.37 237.41 296.86C237.64 297.11 237.83 297.44 237.83 297.59C237.83 297.93 238.33 298.47 238.65 298.47C238.77 298.47 238.87 298.56 238.87 298.68C238.87 298.8 239.06 298.89 239.29 298.89C239.52 298.89 239.71 298.98 239.71 299.1C239.71 299.22 240.04 299.31 240.44 299.31C240.95 299.31 241.17 299.4 241.17 299.62C241.17 299.86 241.46 299.93 242.51 299.93C243.42 299.93 243.95 299.83 244.16 299.62C244.33 299.45 244.67 299.31 244.9 299.31C245.13 299.31 245.33 299.22 245.33 299.1C245.33 298.98 245.52 298.89 245.75 298.89C245.98 298.89 246.17 298.81 246.17 298.72C246.17 298.63 246.4 298.42 246.69 298.27C246.98 298.12 247.21 297.87 247.21 297.72C247.21 297.57 247.3 297.44 247.42 297.44C247.54 297.44 247.63 297.25 247.63 297.02C247.63 296.79 247.72 296.6 247.84 296.6C247.96 296.6 248.05 296.27 248.05 295.87C248.05 295.47 248.14 295.14 248.26 295.14C248.38 295.14 248.47 294.63 248.47 294C248.47 293.37 248.38 292.86 248.26 292.86C248.14 292.86 248.05 292.5 248.05 292.07C248.05 291.56 247.9 291.11 247.63 290.83C247.4 290.58 247.21 290.33 247.21 290.26C247.21 290.15 246.67 289.63 245.81 288.91C245.67 288.79 245.42 288.7 245.25 288.7C245.08 288.7 244.88 288.61 244.81 288.49C244.74 288.37 243.7 288.28 242.41 288.28C241.03 288.28 240.13 288.36 240.13 288.49M276.53 288.49C276.53 288.6 276.34 288.7 276.1 288.7C275.7 288.7 275.07 289.14 275.07 289.42C275.07 289.63 274.06 290.57 273.83 290.57C273.71 290.57 273.61 290.8 273.61 291.09C273.61 291.38 273.52 291.61 273.4 291.61C273.27 291.61 273.19 292.51 273.19 293.9C273.19 295.29 273.27 296.19 273.4 296.19C273.51 296.19 273.61 296.38 273.61 296.61C273.61 296.84 273.75 297.03 273.92 297.03C274.12 297.03 274.23 297.23 274.23 297.59C274.23 297.89 274.29 298.09 274.36 298.01C274.43 297.94 274.67 298.11 274.9 298.39C275.12 298.67 275.48 298.9 275.7 298.9C275.92 298.9 276.1 298.99 276.1 299.11C276.1 299.23 276.38 299.32 276.73 299.32C277.1 299.32 277.41 299.45 277.48 299.63C277.57 299.85 277.91 299.94 278.7 299.94C279.93 299.94 280.52 299.78 280.35 299.5C280.29 299.4 280.52 299.31 280.87 299.31C281.22 299.31 281.51 299.22 281.51 299.1C281.51 298.98 281.67 298.89 281.87 298.89C282.29 298.89 283.38 298.01 283.38 297.67C283.38 297.54 283.47 297.43 283.59 297.43C283.71 297.43 283.8 297.24 283.8 297.01C283.8 296.78 283.94 296.59 284.11 296.59C284.32 296.59 284.42 296.38 284.42 295.98C284.42 295.64 284.51 295.31 284.63 295.24C284.74 295.17 284.84 294.51 284.84 293.77C284.84 293.03 284.75 292.43 284.63 292.43C284.51 292.43 284.42 292.16 284.42 291.83C284.42 291.5 284.29 291.18 284.11 291.11C283.94 291.05 283.8 290.87 283.8 290.72C283.8 290.08 282.14 288.69 281.38 288.69C281.22 288.69 281.09 288.6 281.09 288.48C281.09 288.35 280.19 288.27 278.8 288.27C277.41 288.27 276.51 288.35 276.51 288.48M257.8 302.02C257.8 302.13 257.67 302.23 257.52 302.23C256.92 302.23 255.94 302.9 255.68 303.49C255.53 303.83 255.34 304.11 255.25 304.11C255.16 304.11 255.09 304.95 255.09 305.98C255.09 307.09 255.17 307.85 255.3 307.85C255.41 307.85 255.51 308 255.51 308.18C255.51 308.55 256 309.1 256.33 309.1C256.45 309.1 256.55 309.22 256.55 309.38C256.55 309.87 257.57 310.14 259.42 310.14C261.2 310.14 261.96 309.9 261.96 309.34C261.96 309.21 262.06 309.1 262.18 309.1C262.44 309.1 262.79 308.74 263.15 308.11C263.45 307.58 263.51 304.18 263.22 304.08C263.11 304.04 263 303.88 262.96 303.71C262.86 303.26 262.31 302.66 262.01 302.66C261.86 302.66 261.74 302.57 261.74 302.45C261.74 302.33 261.51 302.24 261.23 302.24C260.95 302.24 260.66 302.15 260.59 302.03C260.52 301.92 259.86 301.82 259.12 301.82C258.38 301.82 257.78 301.91 257.78 302.03" fill="white"/>
</svg>
