<svg width="272" height="151" viewBox="0 0 272 151" fill="none" xmlns="http://www.w3.org/2000/svg">
<path d="M54.7467 61.1995C51.9239 58.3456 49.0981 55.4887 46.2754 52.6348C54.4414 52.6348 62.6045 52.6348 70.7705 52.6348C70.9247 53.0757 71.0002 53.5196 71.0002 53.9968C70.9911 61.5015 70.9942 69.0092 70.9911 76.5139C70.9911 76.6589 70.9458 76.8038 70.8975 77.1089C67.7332 74.264 65.0494 71.0779 61.8912 68.3931L61.9245 68.4324C62.955 68.3327 63.6411 69.3656 64.8439 69.3112C64.3362 68.2814 63.5655 67.5868 62.816 66.5419C64.4541 67.1942 65.8503 67.7469 67.2466 68.3025C66.2886 66.9194 64.8167 66.2218 63.5504 65.0017C65.1129 64.9473 66.4548 64.5638 67.8692 64.5124C66.5817 63.5521 64.9588 63.6366 63.496 62.9632C64.2999 62.0753 65.4998 61.8246 66.4306 60.828C64.8893 60.7586 63.7227 61.3807 62.3264 61.5347C62.9158 59.6804 64.2274 58.1614 64.5508 56.1712C63.2905 57.5936 62.0302 59.0191 60.5977 60.6317C60.4557 59.3029 60.4194 58.1402 59.9902 56.9201C59.1712 57.8805 59.277 59.1217 58.6665 60.1606C57.5211 58.6869 57.0919 56.8296 55.7531 55.1021C55.9435 57.2373 56.5419 58.9405 56.8502 60.8401C55.8317 60.5683 55.3088 59.5808 54.3417 59.3603C54.0999 60.061 54.7467 60.5411 54.7165 61.1602L54.7497 61.1995H54.7467Z" fill="white"/>
<path d="M45.3331 70.8333C47.6814 70.2836 50.0659 70.6853 52.4293 70.6007C52.8584 70.5856 53.1214 70.8484 53.1032 71.2772C53.0156 73.6388 53.4206 76.0186 52.8675 78.3651H45.9587C45.7502 78.1568 45.5386 77.9453 45.3301 77.737C45.3301 75.4357 45.3301 73.1345 45.3301 70.8333H45.3331Z" fill="white"/>
<path d="M54.7528 78.3651C54.2209 77.2749 54.4929 76.1122 54.4808 74.9857C54.4657 73.5935 54.3448 72.1892 54.6138 70.5886C56.8472 70.5886 59.0685 70.5886 61.2868 70.5886C61.6404 70.5886 61.9548 70.7547 61.9517 71.105C61.9306 73.5271 62.4051 75.9703 61.6646 78.3651H54.7558H54.7528Z" fill="white"/>
<path d="M45.332 62.0481C46.0936 61.5649 46.9489 61.7431 47.7679 61.734C49.4755 61.7129 51.183 61.728 53.0085 61.728V69.2085C50.4456 69.1421 47.8858 69.583 45.332 68.9549V62.0511V62.0481Z" fill="white"/>
<path d="M45.332 53.574C47.4808 55.8299 49.6327 58.0828 51.8449 60.4052C49.7082 60.2935 47.5171 60.7042 45.332 60.1636V53.574Z" fill="white"/>
<path d="M63.8626 78.3653C63.4154 78.018 63.2824 77.571 63.2914 77.0033C63.3247 75.2819 63.3035 73.5605 63.3035 71.3831C65.7274 73.8987 68.0696 75.9946 70.1428 78.3653H63.8626Z" fill="white"/>
<path d="M82.572 77.9634C82.436 76.4172 82.43 74.9827 82.5751 73.3912C84.056 74.122 85.7786 73.3549 87.0117 74.7502C87.3925 75.179 88.2266 74.874 88.7555 74.4844C89.1454 74.1975 89.1242 73.7415 88.9852 73.3368C88.7464 72.6482 88.142 72.6633 87.5557 72.6664C85.3616 72.6664 83.1674 72.6784 80.9703 72.6603C77.9632 72.6362 76.4369 70.2715 77.8936 67.6864C78.4376 66.723 77.9722 66.1341 77.7184 65.3972C76.718 62.4769 78.3168 59.1458 81.206 58.1522C84.2887 57.0922 87.6705 58.7351 88.6528 61.7762C89.6501 64.8506 88.0151 68.088 84.9868 69.0424C83.6631 69.4591 82.1489 69.2688 79.7009 68.3749C78.7671 69.8396 79.1177 70.7487 80.798 70.948C82.8773 71.1926 84.9687 70.8966 87.057 70.948C87.6282 70.9601 88.2024 70.8936 88.7676 71.0567C90.1064 71.4372 90.9285 72.609 90.8076 73.9952C90.6776 75.4689 89.774 76.3659 88.2719 76.4353C87.5375 76.4685 86.8334 76.4142 86.368 77.1903C86.1564 77.5437 85.697 77.6675 85.2528 77.6433C84.3793 77.595 83.515 77.6916 82.572 77.9634ZM83.1856 67.481C85.4099 67.5022 87.1175 65.9016 87.1688 63.7453C87.2232 61.4863 85.5459 59.7468 83.3004 59.7317C81.0851 59.7166 79.2295 61.4984 79.2416 63.6305C79.2537 65.7173 81.0368 67.4599 83.1856 67.478V67.481ZM84.4488 74.581C83.6842 75.7196 83.7054 76.1243 84.5728 76.8672C84.6906 76.079 84.8145 75.3632 84.4488 74.581Z" fill="white"/>
<path d="M138.725 67.1941C138.381 67.62 138.665 68.1183 138.299 68.4716C137.662 68.5864 137.003 68.6649 136.277 68.3629V53.6041C136.924 53.2145 137.625 53.3776 138.411 53.4833C138.704 55.4101 138.323 57.3368 138.662 59.4448C139.974 58.1945 141.294 57.2432 143.032 57.4969C144.295 57.6811 145.41 58.2308 146.266 59.2515C148.079 61.4108 148.046 65.0952 146.163 67.2062C144.241 69.3625 141.905 69.3716 138.731 67.1941H138.725ZM141.79 66.868C143.83 66.9072 145.232 65.4758 145.281 63.3134C145.329 61.1753 143.945 59.5173 142.056 59.4448C140.076 59.3693 138.559 60.8703 138.508 62.9601C138.447 65.2674 139.762 66.8287 141.79 66.868Z" fill="white"/>
<path d="M120.856 64.2013H113.279C113.409 66.7955 115.812 67.9491 118.205 66.5901C119.157 66.0496 119.713 66.1522 120.245 67.016C118.825 68.7464 116.73 69.3263 114.506 68.6105C112.378 67.925 111.124 66.3395 110.97 64.1379C110.777 61.3655 111.946 59.2274 114.104 58.4029C117.431 57.1315 121.2 59.3089 120.856 64.1983V64.2013ZM118.562 62.7517C118.465 60.9276 117.564 59.8948 116.108 59.8072C114.582 59.7136 113.469 60.7797 113.2 62.7366C114.999 62.8755 116.776 62.8393 118.562 62.7547V62.7517Z" fill="white"/>
<path d="M108.683 64.2317H101.021C101.456 67.2819 103.602 67.8889 107.042 66.0829C107.468 66.2943 107.809 66.5993 108.036 67.0221C106.67 68.7526 104.56 69.3355 102.306 68.6076C100.196 67.9281 98.8906 66.2551 98.7576 64.132C98.6186 61.8881 99.2079 59.9644 101.236 58.7594C102.943 57.7477 104.763 57.7205 106.434 58.8047C108.281 60.0006 108.809 61.861 108.686 64.2317H108.683ZM100.961 62.7609C102.88 62.8123 104.666 62.9029 106.473 62.7096C106.111 60.7315 105.243 59.8285 103.811 59.8043C102.324 59.7802 101.36 60.7194 100.961 62.7609Z" fill="white"/>
<path d="M226.578 64.1682H219.162C219.482 67.2607 222.039 68.0188 225.085 66.098C225.557 66.246 225.838 66.6084 226.107 67.0342C226.037 67.1581 225.995 67.3211 225.892 67.4148C224.124 69.0274 221.661 69.3264 219.515 68.1909C217.663 67.2124 216.659 65.1286 216.898 62.7609C217.128 60.4748 218.663 58.7534 220.972 58.1886C224.336 57.3642 227.213 60.3208 226.578 64.1652V64.1682ZM219.053 62.5465C220.362 63.0992 223.266 63.1143 224.632 62.5797C224.366 60.8191 223.493 59.8617 222.063 59.7741C220.543 59.6805 219.555 60.5926 219.053 62.5465Z" fill="white"/>
<path d="M188.172 62.8212C188.807 60.4505 186.752 59.4177 182.829 60.4052C182.382 60.0609 182.267 59.5868 182.352 58.9133C184.141 58.1161 186.048 58.0557 187.943 58.5056C189.266 58.8197 190.2 59.8193 190.279 61.1632C190.418 63.549 190.318 65.9469 190.318 68.4414C189.393 68.4928 188.423 69.1119 188.212 67.4871C186.649 68.5743 185.138 69.284 183.316 68.5773C181.953 68.0488 181.1 66.9737 181.115 65.654C181.131 64.3161 181.959 63.238 183.343 62.7548C184.929 62.1991 186.522 62.4135 188.172 62.8212ZM185.579 67.4358C187 67.4086 188.206 66.4724 188.459 65.2312C188.595 64.5698 188.456 64.0383 187.755 63.8993C186.849 63.7181 185.957 63.4041 184.984 63.7393C183.796 64.15 183.083 64.8899 183.21 65.7899C183.34 66.717 184.407 67.4569 185.579 67.4358Z" fill="white"/>
<path d="M195.738 68.3328C194.916 68.6439 194.366 68.5653 193.74 68.4506V58.4967C194.834 58.24 195.813 58.0859 195.956 59.762C196.829 59.1731 197.415 58.5118 198.298 58.249C200.422 57.6209 202.68 58.847 202.834 61.0214C203.006 63.4525 202.873 65.9017 202.873 68.2966C202.224 68.6861 201.661 68.5563 200.867 68.4476C200.867 66.8258 200.876 65.1739 200.861 63.5219C200.855 62.9028 200.924 62.2807 200.682 61.6677C200.22 60.4929 199.57 60.0248 198.31 60.058C197.116 60.0882 196.342 60.656 196.001 61.7854C195.599 63.1112 195.759 64.4763 195.738 65.8292C195.726 66.6567 195.738 67.4812 195.738 68.3328Z" fill="white"/>
<path d="M125.527 68.508C124.88 68.5895 124.315 68.6832 123.684 68.4144V58.4756C124.3 58.2309 124.865 58.3517 125.328 58.3457C125.938 58.6024 125.612 59.2819 126.101 59.6141C126.784 59.0705 127.398 58.4544 128.28 58.2007C130.541 57.5484 132.765 58.9557 132.868 61.2993C132.971 63.6367 132.889 65.9863 132.889 68.2815C132.236 68.7889 131.62 68.508 130.792 68.5624C130.792 66.5631 130.828 64.6515 130.78 62.7398C130.737 60.9912 129.879 60.0943 128.371 60.0882C127.05 60.0822 126.243 60.7255 125.953 62.0512C125.636 63.4948 125.835 64.9655 125.772 66.4212C125.742 67.0856 125.908 67.7741 125.521 68.508H125.527Z" fill="white"/>
<path d="M214.913 59.7741C214.659 60.2996 214.245 60.6771 213.755 60.9791C211.362 59.5687 209.817 59.608 208.584 61.1059C207.457 62.477 207.484 64.7269 208.72 65.9953C209.739 67.0402 211.328 67.8133 213.797 65.9802C214.335 66.107 214.65 66.5117 214.946 66.9375C213.284 69.2055 209.92 69.5408 207.608 67.6774C205.232 65.7627 204.97 62.1538 207.007 59.8617C208.929 57.7024 212.933 57.3369 214.91 59.7711L214.913 59.7741Z" fill="white"/>
<path d="M93.4022 68.3661C92.6104 68.6741 92.0452 68.6017 91.3652 68.496V58.4635C91.9395 58.2551 92.5379 58.3095 93.0939 58.3971C93.6531 58.9256 93.1483 59.6806 93.6863 60.2725C94.5355 59.2095 95.3787 58.1343 97.0107 58.1162C97.2797 58.7716 97.1649 59.4692 97.0893 60.1547C94.0157 61.3778 93.4143 62.2838 93.4022 65.6813C93.3992 66.5632 93.4022 67.448 93.4022 68.3661Z" fill="white"/>
<path d="M170.504 54.4376C171.151 54.2111 171.704 54.2836 172.375 54.3923V68.2994C171.788 68.7071 171.193 68.5803 170.504 68.4142V54.4346V54.4376Z" fill="white"/>
<path d="M164.848 54.4377C165.491 54.2353 166.044 54.2323 166.691 54.4407V68.3538C166.138 68.677 165.549 68.5894 164.848 68.4142V54.4377Z" fill="white"/>
<path d="M156.366 60.2694C153.649 60.8281 152.657 62.0119 152.639 64.5819C152.63 65.8262 152.639 67.0704 152.639 68.2875C150.708 68.7948 150.536 68.6831 150.53 66.8862C150.518 64.132 150.527 61.3777 150.527 58.708C151.255 58.2158 151.856 58.3517 152.458 58.4634C152.83 58.9919 152.473 59.6201 152.845 60.3147C153.736 59.2245 154.607 58.1222 156.266 58.1282C156.532 58.7805 156.366 59.4812 156.363 60.2633L156.366 60.2694Z" fill="white"/>
<path d="M161.039 58.4724V68.3629C160.425 68.6619 159.869 68.5743 159.313 68.4595C158.878 67.9612 159.017 67.3633 159.011 66.8046C158.996 64.5607 158.996 62.3199 159.008 60.076C159.017 58.2942 159.026 58.2972 161.039 58.4694V58.4724Z" fill="white"/>
<path d="M176.361 58.5661C177.111 58.3064 177.661 58.3094 178.301 58.5208V68.36C177.745 68.6771 177.153 68.5895 176.409 68.4083C176.243 65.1497 176.331 61.8942 176.358 58.5661H176.361Z" fill="white"/>
<path d="M60.238 69.1844H54.6016V63.5581C56.3484 65.3037 58.3673 67.318 60.238 69.1844Z" fill="white"/>
<path d="M161.033 54.498C161.16 55.0715 161.154 55.5786 161.039 56.146C160.374 56.4479 159.676 56.3241 158.981 56.2396C158.679 55.654 158.818 55.0956 158.86 54.4799C159.597 54.2384 160.323 54.2173 161.036 54.495L161.033 54.498Z" fill="white"/>
<path d="M176.155 56.2426C176.074 55.5513 176.004 55.0352 176.192 54.4949C176.829 54.19 177.491 54.3168 178.162 54.3983C178.588 54.9296 178.31 55.5121 178.389 56.0856C177.654 56.481 176.95 56.2999 176.152 56.2426H176.155Z" fill="white"/>
<path d="M81.8026 76.7916C81.0924 77.1508 80.633 77.1478 79.9258 76.8278C80.6148 76.4898 81.0773 76.5199 81.8026 76.7916Z" fill="white"/>
<path d="M79.8496 74.6202C80.6203 74.2912 81.0766 74.2912 81.7566 74.5961C81.0917 74.9492 80.6293 74.919 79.8496 74.6202Z" fill="white"/>
<path d="M61.8887 68.3799C62.0281 68.2833 61.9865 68.5039 61.94 68.3403C61.9278 68.2932 61.8691 68.3304 61.9156 68.4122L61.8887 68.3799Z" fill="white"/>
<path d="M54.7148 61.1554C54.8575 61.244 54.6592 61.3031 54.7777 61.1898C54.8285 61.1406 54.7753 61.0938 54.7414 61.1874L54.7148 61.1554Z" fill="white"/>
</svg>
