<svg width="272" height="151" viewBox="0 0 272 151" fill="none" xmlns="http://www.w3.org/2000/svg">
<path d="M71.3102 58.6657C71.5096 58.6717 71.6456 58.7079 71.7575 58.5781C72.374 57.8472 73.196 57.355 73.9244 56.757C74.0302 56.6694 74.1299 56.5698 74.2266 56.4731C74.8431 55.842 75.5352 55.3014 76.2394 54.7699C76.4328 54.6249 76.593 54.4377 76.7653 54.2625C76.8801 54.1447 76.995 54.0481 77.1854 54.1326V82.2217C76.9043 82.3334 76.6353 82.1885 76.3996 82.1069C75.9704 81.9589 75.5413 81.8563 75.091 81.8321C75.0063 81.8261 74.9247 81.7959 74.8431 81.7657C73.7128 81.3489 72.5342 81.059 71.4703 80.4671C70.4911 79.9204 69.5301 79.3587 68.6567 78.64C67.9767 78.0813 67.2271 77.5981 66.6529 76.9276C65.7614 75.8827 64.8638 74.8438 64.2079 73.6177C63.8271 72.905 63.4494 72.1772 63.1774 71.4373C62.9114 70.7155 62.5971 69.9726 62.5699 69.1662C62.5578 68.7797 62.4218 68.3961 62.3432 68.0096C62.2495 67.5384 62.1589 67.0703 62.1619 66.5871C62.1679 65.7536 62.1559 64.9231 62.1619 64.0896C62.177 62.6038 62.4823 61.1783 62.9265 59.7589C63.1895 58.9194 63.5128 58.113 63.8755 57.3278C64.1535 56.7238 64.5434 56.1651 64.9393 55.6245C65.5528 54.791 66.2238 54.0058 66.9582 53.2689C67.5747 52.6528 68.3061 52.1968 68.98 51.6623C70.059 50.8076 71.292 50.2308 72.5493 49.7204C73.1114 49.4939 73.6977 49.2704 74.3143 49.1708C74.8975 49.0741 75.4657 48.8929 76.0551 48.7419C75.227 49.5 74.2901 50.1251 73.3985 50.8016C72.4828 51.4962 71.5278 52.1485 70.6151 52.8491C69.7144 53.5407 68.7624 54.1628 67.889 54.9118C67.8165 55.1866 67.9011 55.4071 68.1519 55.5671C68.2094 55.6034 68.2668 55.6487 68.3121 55.697C69.1281 56.5758 70.065 57.3278 70.9112 58.1734C71.0593 58.3184 71.2195 58.4543 71.2951 58.6687L71.3102 58.6657Z" fill="white"/>
<path d="M82.9143 48.9988C83.4613 49.0713 83.9448 49.1498 84.4042 49.328C84.918 49.5273 85.4318 49.7266 85.9365 49.9501C86.4502 50.1766 86.9822 50.3668 87.4385 50.7232C87.8556 51.0494 88.327 51.3121 88.7743 51.599C90.0285 52.3993 91.0591 53.4533 92.0504 54.5344C92.8634 55.4193 93.5585 56.4099 94.1629 57.4518C94.5165 58.0588 94.7734 58.7111 95.0545 59.3513C95.3779 60.0943 95.526 60.8885 95.8161 61.6375C95.8947 61.8428 95.94 62.0633 95.934 62.2928C95.9189 62.7579 96.0881 63.2109 96.1032 63.6669C96.1304 64.5035 96.3601 65.3309 96.1697 66.1826C96.0609 66.6658 96.1546 67.1731 96.0488 67.6714C95.9309 68.2211 95.9763 68.816 95.801 69.3445C95.5894 69.9878 95.4474 70.6582 95.1663 71.2834C95.0001 71.6518 94.8943 72.0444 94.7069 72.4159C94.2657 73.3068 93.8003 74.1705 93.223 74.9889C92.4917 76.0248 91.6515 76.9549 90.7478 77.8337C89.9439 78.6159 89.0645 79.2954 88.1094 79.8934C87.499 80.2769 86.825 80.5366 86.2085 80.9081C85.8821 81.1044 85.465 81.1588 85.0872 81.2735C84.5281 81.4396 84.0053 81.7114 83.4159 81.802C83.2437 81.8292 83.0805 81.8292 82.9082 81.8292V48.9988H82.9143Z" fill="white"/>
<path d="M193.999 68.1999V78.4649H191.022C191.037 78.4769 191.049 78.486 191.022 78.4649C191.01 78.4528 190.992 78.4377 190.992 78.4256C190.913 69.5317 190.983 60.6378 190.956 51.7439C190.956 51.6593 190.944 51.5718 191.007 51.4963C191.092 51.4147 191.201 51.4389 191.303 51.4389C194.637 51.4419 197.967 51.451 201.301 51.448C202.407 51.448 203.495 51.5718 204.559 51.8557C206.505 52.3721 208.046 53.411 208.838 55.3317C209.207 56.2286 209.476 57.1648 209.512 58.1433C209.567 59.5295 209.627 60.9096 209.322 62.2837C208.76 64.8054 207.297 66.5208 204.828 67.3664C204.782 67.3815 204.737 67.4086 204.622 67.463C206.33 71.1444 208.101 74.7865 209.833 78.48H206.569C204.921 75.0492 203.277 71.6246 201.633 68.1999H193.999ZM194.026 65.4064C194.153 65.4215 194.223 65.4396 194.289 65.4366C196.257 65.352 198.227 65.3732 200.198 65.4064C201.156 65.4245 202.114 65.4215 203.054 65.1799C204.55 64.7933 205.58 63.8722 206.103 62.4498C206.671 60.9036 206.726 59.2939 206.342 57.6933C205.919 55.9296 204.788 54.8545 203.011 54.4257C202.31 54.2566 201.603 54.1841 200.887 54.1962C198.608 54.2324 196.326 54.2264 194.023 54.1901V65.4003L194.026 65.4064Z" fill="white"/>
<path d="M141.678 65.1135C141.756 67.1671 141.545 69.1965 141.134 71.2048C140.901 72.3433 140.526 73.4366 140.022 74.4875C139.067 76.4807 137.444 77.6616 135.352 78.2595C133.436 78.8061 131.478 78.8877 129.498 78.7306C128.468 78.6491 127.461 78.477 126.476 78.175C124.067 77.432 122.444 75.8647 121.55 73.5362C120.988 72.0715 120.716 70.5464 120.501 69.0002C120.235 67.0825 120.226 65.1588 120.32 63.2411C120.438 60.816 120.806 58.4272 121.752 56.1531C122.768 53.7099 124.536 52.1395 127.117 51.5053C129.664 50.8772 132.227 50.853 134.775 51.4721C137.558 52.1486 139.396 53.8942 140.408 56.5397C140.952 57.9561 141.233 59.4238 141.451 60.9187C141.654 62.3139 141.666 63.7152 141.678 65.1165V65.1135ZM123.327 64.7178C123.281 65.3611 123.387 66.3456 123.436 67.3332C123.52 69.0697 123.795 70.7699 124.391 72.4128C124.965 74.0013 126.056 75.0583 127.673 75.5717C129.828 76.2573 131.995 76.2301 134.161 75.6502C135.827 75.2063 136.948 74.1493 137.58 72.5668C137.74 72.1652 137.888 71.7605 138 71.3437C138.523 69.3686 138.646 67.3483 138.704 65.3218C138.746 63.8481 138.595 62.3773 138.39 60.9187C138.22 59.7167 137.939 58.545 137.468 57.4185C136.77 55.7635 135.576 54.6582 133.832 54.1841C132.034 53.6948 130.214 53.6797 128.401 54.1297C126.633 54.5646 125.352 55.5944 124.617 57.2645C124.442 57.6601 124.3 58.0678 124.167 58.4785C123.559 60.3992 123.448 62.3864 123.324 64.7209L123.327 64.7178Z" fill="white"/>
<path d="M186.239 78.3985C185.184 78.2988 184.232 78.3773 183.268 78.329C182.639 76.0519 181.893 73.8685 181.237 71.685C180.617 71.685 180.046 71.685 179.475 71.685C176.44 71.676 173.406 71.7333 170.372 71.6488C170.021 71.6387 169.794 71.7998 169.689 72.132C169.124 73.9289 168.619 75.7439 168.117 77.5589C168.054 77.7915 168.008 78.03 167.957 78.2596C167.782 78.4559 167.552 78.4649 167.325 78.4649C166.543 78.4649 165.76 78.4649 164.893 78.4649C167.353 69.4895 169.837 60.5473 172.318 51.5205C172.379 51.454 172.536 51.454 172.693 51.454C174.627 51.448 176.564 51.4419 178.499 51.4389C178.62 51.4389 178.743 51.4299 178.934 51.5325C181.349 60.4204 183.778 69.3657 186.233 78.3985H186.239ZM174.567 54.0995C173.213 58.9164 171.952 63.6941 170.577 68.4385C170.553 68.5201 170.559 68.6076 170.556 68.6952C170.556 68.7103 170.562 68.7315 170.571 68.7435C170.58 68.7556 170.599 68.7647 170.611 68.7737C171.306 68.8674 180.239 68.8372 180.617 68.7194C179.272 63.8481 177.927 58.9768 176.58 54.1026C175.884 54.0271 175.25 54.1388 174.57 54.0995H174.567Z" fill="white"/>
<path d="M115.989 51.756C115.877 52.6891 115.865 53.5649 115.663 54.4407C115.246 54.3834 114.874 54.323 114.496 54.2837C112.296 54.0481 110.093 53.8096 107.875 53.8216C106.895 53.8277 105.922 53.9243 104.988 54.2354C103.973 54.5766 103.093 55.1051 102.574 56.0897C102.41 56.4007 102.302 56.7269 102.235 57.0651C102.039 58.0889 102.093 59.1097 102.422 60.0912C102.713 60.9519 103.335 61.5438 104.166 61.9243C105.327 62.4558 106.554 62.7729 107.787 63.0779C109.44 63.4856 111.114 63.8239 112.683 64.5124C112.843 64.5819 112.997 64.6574 113.16 64.7208C115.004 65.4426 116.08 66.7926 116.415 68.7163C116.663 70.1266 116.663 71.5521 116.397 72.9564C116.171 74.1553 115.702 75.2697 114.889 76.221C114.076 77.1723 113.046 77.7763 111.87 78.184C110.223 78.7548 108.518 78.7669 106.808 78.7246C105.254 78.6853 103.713 78.5434 102.178 78.2988C101.492 78.19 100.793 78.1357 100.101 78.0572C99.9291 78.039 99.7508 78.0421 99.5543 77.8729C99.6359 77.0455 99.7236 76.1757 99.8143 75.2697C100.231 75.3361 100.618 75.4116 101.011 75.4539C102.014 75.5626 103.021 75.6593 104.027 75.7559C105.294 75.8797 106.563 75.9643 107.835 75.9915C108.842 76.0126 109.815 75.8405 110.764 75.5294C112.323 75.013 113.163 73.8745 113.46 72.3131C113.629 71.4252 113.662 70.5223 113.499 69.6253C113.308 68.5502 112.743 67.7529 111.755 67.2486C110.74 66.7321 109.655 66.4241 108.545 66.2006C106.926 65.8745 105.321 65.4879 103.758 64.9353C102.936 64.6453 102.147 64.2769 101.437 63.7756C100.147 62.8696 99.509 61.5619 99.2944 60.0549C99.1161 58.8167 99.101 57.5695 99.3367 56.3282C99.7085 54.3743 100.806 52.9519 102.568 52.0519C103.888 51.3785 105.324 51.0976 106.796 51.0281C108.911 50.9285 111.012 51.0795 113.106 51.3785C114.034 51.5113 114.968 51.6231 115.986 51.7529L115.989 51.756Z" fill="white"/>
<path d="M150.127 75.5868C151.523 75.5868 152.844 75.5868 154.164 75.5868C155.506 75.5868 156.851 75.5807 158.193 75.5868C159.511 75.5958 160.831 75.5596 162.149 75.62V78.4648H147.141V51.4932C148.117 51.4811 149.102 51.5022 150.127 51.4358V75.5868Z" fill="white"/>
</svg>
