<svg width="900" height="500" viewBox="0 0 900 500" fill="none" xmlns="http://www.w3.org/2000/svg">
<path d="M229.05 227.26C229.05 221.81 229.06 216.35 229.04 210.9C229.04 210.03 229.35 209.06 228.65 208.32C228.24 207.88 228.69 207.93 228.86 207.78C229.31 207.37 229.86 207.4 230.41 207.4C240.1 207.39 249.8 207.13 259.48 207.43C267.23 207.67 273.31 211.33 276.85 218.33C278.4 221.4 278.85 224.8 278.38 228.38C278.05 230.88 278.03 233.34 276.67 235.61C274.35 239.47 270.82 242.02 267.02 244.1C261.85 246.94 256.47 249.39 251.18 252.01C247.01 254.08 242.72 255.89 238.69 258.28C235.12 260.4 231.17 261.89 227.38 263.63C225.35 264.56 223.33 265.56 221.23 266.31C217.37 267.69 213.93 269.91 210.19 271.54C206.61 273.1 203.21 275.05 199.63 276.6C195.84 278.23 192.26 280.22 188.73 282.3C188 282.73 187.82 282.3 187.65 281.9C186.5 279.3 184.97 276.87 184.19 274.08C183.51 271.62 182.52 269.26 181.91 266.75C180.65 261.56 180.04 256.31 179.89 250.99C179.67 243.25 181.07 235.77 183.32 228.37C184.67 223.92 186.6 219.8 188.67 215.66C193.9 205.17 201.82 197.11 211.01 190.07C215.37 186.74 220.29 184.37 225.12 181.89C227.9 180.47 231.13 179.92 234.13 178.9C239.46 177.09 245.1 177.07 250.58 176.13C253.05 175.71 255.63 175.96 258.19 176.25C261.65 176.63 265.06 177.14 268.48 177.76C271.41 178.29 274.29 178.94 277.1 179.93C282.37 181.79 287.48 183.94 292.33 186.77C298.99 190.65 304.6 195.67 309.69 201.36C310.96 202.78 312.42 204.03 313.46 205.68C315.01 208.15 316.69 210.53 318.29 212.97C318.58 213.42 318.86 213.84 319.23 214.25C320.2 215.31 319.59 217.04 318.24 217.53C317.24 217.89 316.18 218.11 315.36 218.93C314.4 219.88 313.88 220.04 313.13 218.4C311.43 214.68 308.73 211.55 306.22 208.32C304.82 206.52 303.29 204.79 301.66 203.19C296.52 198.14 290.77 193.9 284.3 190.67C278.15 187.59 271.63 185.61 264.87 184.29C260.06 183.35 255.19 183.32 250.39 183.64C237.85 184.47 226.35 188.16 215.84 195.42C207.74 201.02 201.22 207.81 196.31 216.14C192.51 222.6 189.95 229.57 188.5 237.01C187.29 243.25 187.47 249.48 187.64 255.71C187.76 259.95 188.69 264.19 189.87 268.32C190.95 272.1 190.89 272.06 194.46 270.38C200.13 267.71 205.95 265.32 211.51 262.44C218.85 258.64 226.42 255.32 233.74 251.48C237.19 249.67 240.83 248.12 244.41 246.53C248.56 244.69 252.75 242.94 256.8 240.9C258.77 239.91 260.8 239.03 262.66 237.69C263.87 236.82 265.55 236.44 266.92 235.46C270.22 233.11 270.97 229.65 270.43 226.23C269.65 221.4 266.84 217.76 261.71 216.54C260.43 216.23 259.09 216.05 257.77 216.04C251.62 215.98 245.46 216.04 239.31 215.96C237.75 215.94 237.12 216.37 237.26 218.02C237.92 225.52 237.27 233.03 237.46 240.53C237.51 242.42 237.16 243.72 234.89 244.12C233.56 244.35 232.18 244.85 231.02 245.85C229.96 246.77 229.15 246.26 229.14 244.85C229.14 238.97 229.14 233.1 229.14 227.22H229.05V227.26Z" fill="white"/>
<path d="M289.37 249.08C290.88 252.06 292.22 254.96 292.51 258.22C293.4 268.29 290.37 276.9 282.45 283.4C278.39 286.73 273.53 288.97 268.2 289.06C255.77 289.28 243.34 289.11 230.91 289.16C229.26 289.16 228.9 288.58 228.93 287.03C229.02 281.82 228.95 276.61 228.92 271.4C228.92 270.77 228.94 270.36 229.68 270.01C231.9 268.95 234.05 267.73 236.23 266.58C237.12 266.11 237.6 266.28 237.58 267.39C237.53 270.36 237.53 273.33 237.45 276.29C237.43 277.12 237.43 277.96 237.03 278.77C236.78 279.28 236.74 279.99 237.29 280.44C237.82 280.87 238.42 280.88 238.92 280.35C239.61 279.61 240.26 280.41 240.93 280.4C249.58 280.35 258.25 280.67 266.89 280.27C274.09 279.94 281.12 274.3 283.28 266.74C285.1 260.37 284.11 254.56 279.38 249.61C278.67 248.87 277.61 248.6 277.1 247.6C276.61 246.65 276.61 246.16 277.74 245.7C283.12 243.5 288.24 240.76 293.26 237.88C297.83 235.26 302.75 233.4 307.42 231.01C311.96 228.69 316.84 227.07 321.17 224.32C322.6 223.41 323.91 224.05 324.33 225.66C325.15 228.81 326.01 231.94 326.98 235.04C327.44 236.51 327.43 238.03 327.52 239.48C327.76 243.5 328.6 247.47 328.35 251.53C328.06 256.25 327.42 260.91 326.55 265.56C325.24 272.53 322.67 279.02 319.14 285.13C314.55 293.08 309.12 300.4 301.97 306.3C297.56 309.95 292.81 313 287.58 315.5C282.39 317.98 277.05 319.71 271.56 321.29C268.35 322.22 265.06 322.15 261.9 322.96C259.27 323.64 256.66 324.2 253.91 324.02C249.79 323.75 245.73 323.07 241.66 322.44C238.82 322 236.04 321.31 233.28 320.56C231.09 319.96 228.91 319.25 226.8 318.41C222.47 316.69 218.39 314.47 214.41 312.08C210.08 309.48 206.19 306.34 202.71 302.68C200.87 300.74 198.82 299 197.06 297C195.28 294.98 193.66 292.82 192.14 290.61C191.31 289.41 191.99 288.17 193.46 288C194.23 287.91 194.84 287.62 195.46 287.22C197.33 286.04 198.34 286.23 199.6 288C204.02 294.21 209.54 299.39 215.45 304.13C217.71 305.95 220.53 307.06 223.06 308.57C227.31 311.11 231.98 312.68 236.68 314.02C241.35 315.35 246.15 316.2 251.09 315.95C255.22 315.74 259.4 316 263.5 315.56C268.51 315.03 273.44 313.83 278.07 311.8C284.75 308.86 291.2 305.44 296.83 300.75C300.3 297.85 303.43 294.63 306.22 291C308.79 287.66 311.34 284.31 313.18 280.56C316.26 274.26 318.99 267.76 319.88 260.75C320.48 256.05 321.07 251.3 320.65 246.53C320.34 243.07 319.89 239.63 319.53 236.17C319.39 234.87 318.94 234.65 317.73 235.27C312.4 237.97 307.04 240.62 301.65 243.21C297.59 245.16 293.65 247.35 289.39 249.06L289.37 249.08Z" fill="white"/>
<path d="M365.35 230.8C365.35 222.14 365.37 213.48 365.32 204.82C365.32 203.62 365.7 203.22 366.87 203.22C373.39 203.24 379.91 203.1 386.42 203.26C389.18 203.33 391.85 204.14 394.27 205.65C396.64 207.13 397.71 209.37 398.12 211.92C398.74 215.84 399.83 219.82 398.7 223.75C397.9 226.52 399.06 228.09 400.89 229.84C402.73 231.6 403.15 234.21 403.61 236.6C404.37 240.48 404.21 244.49 403.48 248.29C403.06 250.47 402.67 253 400.56 254.77C398.63 256.38 396.83 257.83 394.25 258.38C388.53 259.6 382.76 259.27 377 259.32C374.08 259.35 371.15 259.36 368.23 259.39C365.99 259.41 365.14 258.5 365.08 256.24C364.86 247.76 365.05 239.28 365.34 230.8H365.35ZM383.13 233.17C380.07 233.17 377.45 233.17 374.83 233.17C372.86 233.17 372.29 233.7 372.76 235.52C373.07 236.72 373.05 237.9 373.06 239.09C373.1 242.66 373.14 246.24 373.06 249.81C373.03 251.04 373.39 251.36 374.6 251.34C379.29 251.27 383.98 251.26 388.67 251.32C390.7 251.35 392.57 250.88 394.43 250.17C394.94 249.97 395.24 249.71 395.27 249.14C395.39 246.42 396.4 243.84 396.38 241.07C396.38 239.67 395.55 238.58 395.54 237.24C395.52 234.96 394.65 233.99 392.33 233.49C389.14 232.8 385.9 233.4 383.13 233.16V233.17ZM373.04 218.05C373.04 218.05 372.99 218.05 372.97 218.05C372.97 219.92 373.01 221.8 372.95 223.67C372.92 224.73 373.23 225.17 374.4 225.16C378.66 225.16 382.92 225.25 387.17 225.34C388.01 225.36 388.92 225 389.69 225.42C390.81 226.05 391.17 225.52 391.18 224.55C391.21 221.57 391.3 218.58 391.11 215.61C390.96 213.23 389.7 211.62 388.24 211.4C383.78 210.71 379.28 211.05 374.8 210.91C373.58 210.87 372.93 211.42 373.01 212.79C373.11 214.54 373.03 216.3 373.03 218.05H373.04Z" fill="white"/>
<path d="M410.24 231.33C410.24 223.09 410.24 214.85 410.24 206.61C410.24 203.95 410.89 203.23 413.51 203.22C420.46 203.19 427.41 203.09 434.35 203.31C438.11 203.43 441.86 204.19 445.12 206.26C446.4 207.07 446.88 208.64 447.55 209.98C448.32 211.52 448.44 213.25 448.58 214.86C448.94 218.97 449.08 223.12 448.3 227.2C447.56 231.08 444.97 233.64 441.68 235.56C440.82 236.06 440.51 236.24 441.09 237.41C442.27 239.78 443.79 242.03 444.39 244.68C444.51 245.22 445.03 245.66 445.33 246.18C446.94 248.99 448.83 251.68 449.13 255.05C449.15 255.27 449.33 255.48 449.45 255.69C449.94 256.52 451.19 257.43 450.25 258.3C449.37 259.1 448.02 259.73 446.6 259.11C446.44 259.04 446.22 258.98 446.07 259.04C442.65 260.21 442.27 257.18 441.34 255.39C438.66 250.25 436.56 244.85 434.04 239.62C432.83 237.1 431.49 237.12 429.51 237.13C426.16 237.13 422.81 237.15 419.45 237.09C418.33 237.07 418.05 237.4 418.07 238.56C418.17 244.79 418.16 251.03 418.17 257.26C418.17 258.92 416.73 259.09 415.63 259.3C414.45 259.52 413.18 259.51 411.99 259.31C410.42 259.06 410.17 257.73 410.17 256.41C410.16 248.65 410.17 240.9 410.17 233.14C410.17 232.53 410.17 231.93 410.17 231.32C410.2 231.32 410.22 231.32 410.25 231.32L410.24 231.33ZM418.07 220.06C418.07 220.06 418.15 220.06 418.19 220.06C418.19 221.94 418.18 223.81 418.19 225.69C418.21 229.36 418.22 229.43 421.81 229.39C426.91 229.33 432.03 229.76 437.11 229.07C438.94 228.82 440.91 227.23 441.07 225.89C441.5 222.29 441.4 218.7 441.24 215.09C441.15 213 440.07 211.63 438.01 211.43C436.26 211.26 434.54 210.95 432.76 210.94C428.32 210.91 423.88 211.27 419.45 210.75C418.38 210.62 418.05 211.09 418.06 212.08C418.09 214.74 418.07 217.4 418.07 220.06Z" fill="white"/>
<path d="M643.249 221.22C643.249 224.96 643.089 228.63 643.289 232.28C643.649 239 643.329 245.71 643.449 252.43C643.469 253.76 643.429 255.09 643.409 256.42C643.379 258.31 642.509 259.35 640.589 259.27C639.519 259.22 638.569 259.9 637.339 259.24C635.259 258.13 635.629 256.48 635.659 254.73C635.919 240.45 635.869 226.17 635.779 211.9C635.769 209.62 635.579 207.31 636.119 205.04C636.389 203.88 637.199 203.28 638.239 203.3C639.529 203.33 640.989 202.53 642.049 204.12C644.629 207.99 646.959 211.98 649.199 216.05C650.579 218.56 651.939 221.11 653.749 223.35C654.499 224.28 654.459 225.45 655.059 226.45C657.649 230.71 660.109 235.05 662.569 239.38C662.889 239.94 663.259 240.31 664.109 240.62C664.109 238.97 664.109 237.43 664.109 235.89C664.109 226.5 663.969 217.12 664.159 207.73C664.269 202.05 664.419 203.32 668.819 203.2C671.599 203.12 671.839 203.37 671.839 206.06C671.829 223.02 671.779 239.98 671.769 256.94C671.769 258.58 671.159 259.34 669.409 259.37C666.449 259.42 664.819 258.37 663.289 255.31C661.629 251.98 660.169 248.49 658.069 245.44C656.449 243.09 655.329 240.54 653.899 238.13C650.789 232.9 647.459 227.81 644.649 222.4C644.409 221.94 644.199 221.4 643.259 221.21L643.249 221.22Z" fill="white"/>
<path d="M626.419 236.73C626.419 242.06 626.399 247.39 626.429 252.72C626.439 254.53 625.829 256.28 626.069 258.11C626.159 258.84 625.669 259.21 624.949 259.25C624.099 259.3 623.249 259.35 622.399 259.38C619.159 259.5 618.689 259.13 618.659 255.83C618.599 250.44 618.579 245.05 618.689 239.66C618.799 234.71 618.549 235.73 614.869 235.68C609.819 235.61 604.759 235.64 599.699 235.66C596.869 235.67 596.829 235.82 597.099 238.66C597.259 240.34 597.119 242.05 597.129 243.74C597.139 248.22 597.149 252.71 597.189 257.19C597.189 257.93 597.069 258.3 596.279 258.66C594.649 259.42 592.989 259.45 591.289 259.37C589.739 259.3 589.159 258.21 589.289 256.88C589.899 250.29 589.479 243.69 589.559 237.1C589.649 229.9 589.279 222.69 589.589 215.5C589.759 211.6 591.439 207.96 594.799 205.51C596.429 204.31 598.559 204.2 600.459 203.77C605.049 202.74 609.779 202.79 614.409 203.53C617.549 204.03 620.759 204.61 623.089 207.28C624.909 209.37 625.699 211.9 625.969 214.44C626.759 221.84 626.429 229.28 626.429 236.71L626.419 236.73ZM607.729 227.73C607.729 227.73 607.729 227.7 607.729 227.69C610.649 227.69 613.579 227.65 616.499 227.71C617.939 227.74 618.639 227.23 618.609 225.72C618.529 222.21 618.539 218.7 618.469 215.2C618.439 213.6 617.039 211.84 615.499 211.47C611.439 210.49 607.269 210.09 603.199 210.91C598.759 211.8 597.179 211.58 597.129 217.83C597.109 220.37 597.199 222.92 597.069 225.46C596.979 227.19 597.579 227.83 599.329 227.77C602.129 227.67 604.929 227.74 607.729 227.74V227.73Z" fill="white"/>
<path d="M700.56 203.18C706.35 203.18 712.13 203.23 717.92 203.15C719.62 203.13 720.31 203.73 720.13 205.36C720 206.54 720.06 207.73 719.9 208.93C719.61 211.07 718.27 211.35 716.64 211.36C712.8 211.39 708.97 211.39 705.13 211.33C703.81 211.31 703.21 211.72 703.34 213.11C703.95 219.63 703.56 226.18 703.63 232.71C703.72 240.76 703.58 248.82 703.66 256.87C703.67 258.12 703.15 258.66 702.19 258.88C700.97 259.16 699.7 259.33 698.44 259.37C696.31 259.44 695.54 258.74 695.55 256.67C695.58 247.53 695.67 238.39 695.73 229.24C695.77 223.79 695.76 218.34 695.85 212.9C695.87 211.66 695.41 211.35 694.26 211.37C690.42 211.42 686.59 211.4 682.75 211.37C680.07 211.35 679.25 210.44 679.4 207.8C679.42 207.5 679.41 207.19 679.41 206.89C679.45 203.38 679.56 203.24 683.21 203.22C689 203.19 694.78 203.22 700.57 203.22V203.2L700.56 203.18Z" fill="white"/>
<path d="M480.481 225.46C480.481 218.68 480.511 211.91 480.461 205.13C480.461 203.81 480.971 203.25 482.231 203.25C482.291 203.25 482.351 203.25 482.411 203.25C488.651 203.27 488.601 202.72 488.581 209.23C488.541 221.4 488.611 233.57 488.621 245.74C488.621 246.04 488.661 246.37 488.561 246.64C487.701 248.79 489.341 249.42 490.741 250.08C494.131 251.67 497.811 251.42 501.421 251.49C506.291 251.59 511.161 251.59 516.031 251.54C517.471 251.53 518.031 252.01 517.881 253.44C517.791 254.28 517.861 255.13 517.871 255.98C517.871 258.46 517.191 259.37 514.721 259.32C507.361 259.18 499.991 259.65 492.641 258.98C487.441 258.5 483.581 255.82 481.751 251.13C480.971 249.13 480.331 246.77 480.391 244.35C480.561 238.06 480.451 231.76 480.451 225.46C480.451 225.46 480.461 225.46 480.471 225.46H480.481Z" fill="white"/>
<path d="M531.349 226.35C531.349 233.37 531.349 240.4 531.349 247.42C531.349 248.94 532.01 249.7 533.53 250.24C537.74 251.74 542.06 251.56 546.4 251.53C550.54 251.5 554.68 251.57 558.82 251.5C559.83 251.48 560.14 251.87 560.4 252.74C561.01 254.74 560.469 256.68 560.169 258.62C560.039 259.44 559.149 259.32 558.489 259.32C552.649 259.32 546.8 259.26 540.96 259.36C537.79 259.41 534.729 258.85 531.669 258.22C529.279 257.73 528.059 255.61 526.479 254.07C523.839 251.5 523.6 248.05 523.57 244.68C523.43 231.67 523.419 218.65 523.289 205.64C523.269 203.8 523.959 203.17 525.729 203.18C532.629 203.24 531.23 202.63 531.32 208.54C531.41 214.47 531.34 220.41 531.34 226.34H531.37L531.349 226.35Z" fill="white"/>
<path d="M577.569 231.66C577.569 239.77 577.539 247.88 577.589 255.98C577.599 257.82 577.139 258.93 575.019 259.12C574.019 259.21 572.989 259.49 571.989 259.35C570.649 259.17 569.629 258.51 569.629 256.92C569.629 240.8 569.629 224.69 569.649 208.57C569.649 207.27 569.519 205.96 570.039 204.66C570.409 203.73 570.969 203.35 571.849 203.27C572.449 203.21 573.069 203.26 573.679 203.26C577.189 203.26 577.559 203.6 577.569 207.14C577.589 215.31 577.569 223.48 577.569 231.65V231.66Z" fill="white"/>
<path d="M468.52 231.44C468.52 239.56 468.53 247.67 468.52 255.79C468.52 258.73 467.66 259.27 464.69 259.43C461.34 259.61 461.1 258.57 461.11 255.6C461.16 239.85 461.13 224.1 461.13 208.35C461.13 207.6 461.28 206.83 461.14 206.1C460.76 204.13 461.74 203.41 463.51 203.33C464.78 203.28 466.06 203.27 467.34 203.25C468.11 203.24 468.35 203.71 468.47 204.39C468.71 205.7 468.78 207.02 468.78 208.35C468.78 216.04 468.78 223.73 468.78 231.42C468.7 231.42 468.62 231.42 468.54 231.42L468.52 231.44Z" fill="white"/>
<path d="M464.379 269.08C466.809 269 469.689 269.06 472.489 270.02C475.119 270.92 476.289 272.26 476.499 275.01C476.689 277.49 476.649 279.91 475.469 282.25C474.919 283.35 473.989 283.87 473.139 284.57C472.589 285.03 472.209 285.35 472.909 286.14C474.699 288.15 475.259 290.85 476.659 293.11C477.089 293.81 477.179 295 476.559 295.48C475.819 296.06 474.799 295.57 474.089 294.91C472.399 293.34 471.829 291.16 470.959 289.15C470.559 288.22 470.169 287.29 469.729 286.38C469.379 285.66 468.809 285.35 467.949 285.41C466.549 285.51 465.149 285.72 463.739 285.46C462.459 285.23 462.209 285.92 462.259 287.04C462.349 288.91 462.309 290.79 462.319 292.67C462.319 293.63 462.179 294.72 461.429 295.2C459.859 296.21 458.479 295.37 458.369 293.44C458.269 291.69 458.319 289.93 458.309 288.17C458.269 282.13 458.249 276.1 458.189 270.06C458.189 269.17 458.699 269.07 459.339 269.06C460.859 269.04 462.389 269.06 464.379 269.06V269.08ZM466.709 281.49C467.619 281.49 468.529 281.51 469.439 281.49C472.369 281.43 472.799 281 472.799 278.16C472.799 277.25 472.749 276.34 472.819 275.44C472.939 273.73 472.119 272.99 470.459 273C469.119 273.01 467.789 272.99 466.449 273.02C463.769 273.073 462.393 274.414 462.319 277.04C462.233 280.06 463.696 281.547 466.709 281.5V281.49Z" fill="white"/>
<path d="M435.55 284.52C435.55 281.56 435.42 278.58 435.58 275.63C435.78 272.07 437.53 270.06 440.78 269.8C442.59 269.66 444.36 269.32 446.21 269.43C449.92 269.64 453.34 272.82 453.14 276.76C452.87 282.13 453.09 287.53 453.06 292.91C453.06 294.21 452.83 295.48 451.14 295.64C450.35 295.72 449.84 295.59 449.68 294.56C449.26 291.9 449.47 289.24 449.46 286.59C449.46 285.16 449.15 284.5 447.53 284.61C445.41 284.75 443.27 284.66 441.14 284.61C439.91 284.58 439.41 285.01 439.45 286.31C439.54 289.1 439.52 291.89 439.48 294.67C439.46 295.68 438.59 295.7 437.86 295.66C436.82 295.59 435.52 295.86 435.52 294.15C435.52 290.94 435.52 287.74 435.52 284.53H435.53L435.55 284.52ZM444.32 280.55C444.32 280.55 444.32 280.51 444.32 280.48C445.66 280.48 446.99 280.48 448.33 280.48C448.81 280.48 449.42 280.52 449.38 279.82C449.27 277.95 449.2 276.07 448.75 274.23C448.61 273.64 448.24 273.59 447.8 273.38C446.06 272.53 444.23 272.97 442.44 272.88C440.91 272.81 440.01 273.66 439.69 274.99C439.37 276.31 439.33 277.7 439.16 279.06C439.01 280.22 439.7 280.54 440.67 280.55C441.88 280.56 443.1 280.55 444.31 280.55H444.32Z" fill="white"/>
<path d="M389.081 282.26C389.081 279.87 389.111 278.17 389.081 276.48C388.981 271.5 391.731 269.98 395.931 269.52C398.501 269.24 401.121 269.37 403.701 269.83C405.951 270.24 407.791 272.08 408.101 274.7C408.531 278.44 408.431 282.2 408.211 285.95C408.151 286.91 408.081 287.88 408.101 288.84C408.161 292.45 406.921 294.44 403.401 295.01C399.971 295.56 396.401 295.83 393.011 294.65C390.861 293.9 389.661 292.29 389.381 289.92C389.051 287.14 389.191 284.35 389.091 282.27L389.081 282.26ZM393.091 282.26C393.091 282.26 393.091 282.26 393.101 282.26C393.101 284.56 393.071 286.86 393.111 289.16C393.141 290.69 394.311 291.94 395.801 291.98C397.811 292.03 399.821 292.03 401.821 291.94C403.221 291.88 404.341 291.16 404.371 289.69C404.491 284.98 404.521 280.26 404.481 275.54C404.471 274.07 403.651 273.15 401.991 273.02C399.731 272.84 397.491 272.9 395.251 273.07C393.731 273.18 393.041 274.01 393.071 275.54C393.121 277.78 393.081 280.02 393.081 282.26H393.091Z" fill="white"/>
<path d="M374.59 295.29C373.51 295.22 371.96 295.22 370.39 294.99C367.61 294.58 365.23 291.07 365.68 288.11C365.76 287.56 365.92 286.84 366.76 286.94C367.53 287.03 368.52 286.46 369.01 287.54C369.26 288.08 369.56 288.67 369.58 289.24C369.63 291.39 371.27 291.97 372.83 292.31C375.18 292.82 377.49 292.07 379.75 291.47C380.9 291.16 381.41 288.86 380.98 286.91C380.63 285.33 379.24 284.51 376.54 284.39C375.32 284.34 374.1 284.39 372.89 284.39C368.71 284.39 365.8 281.52 365.64 277.37C365.46 272.4 366.98 270.35 373.03 269.44C375.47 269.07 377.76 269.59 380.1 269.9C382.56 270.23 384.05 271.91 384.31 274.41C384.34 274.65 384.29 274.92 384.38 275.12C384.74 275.87 385.04 276.81 384.37 277.28C383.6 277.83 382.46 277.61 381.56 277.37C380.56 277.1 380.94 275.95 380.89 275.31C380.78 273.72 379.79 273.35 378.57 273.16C376.09 272.78 373.59 272.93 371.1 273.12C370.77 273.15 370.37 273.28 370.14 273.51C369.43 274.23 369.43 278.83 370.1 279.62C370.6 280.21 371.24 280.34 372.01 280.37C374.4 280.45 376.79 280.57 379.14 281.08C384.77 282.29 384.91 285.31 384.47 289.93C384.1 293.78 381.96 295.19 378 295.32C377.03 295.35 376.05 295.32 374.59 295.32V295.29Z" fill="white"/>
<path d="M413.56 281.47C413.34 279 413.94 275.98 413.21 272.99C412.94 271.9 413.41 270.86 413.64 269.82C413.86 268.82 414.79 269.15 415.47 269.09C416.12 269.03 416.7 269.18 416.84 269.95C416.98 270.71 417.21 271.47 417.22 272.23C417.25 276.9 417.23 281.56 417.23 286.23C417.23 286.35 417.23 286.47 417.23 286.59C416.76 291.01 417.59 291.89 422.07 292.01C424.73 292.08 427.4 291.69 430.05 292.35C431 292.59 431.07 293.25 431.13 293.96C431.19 294.67 430.8 295.2 430.1 295.22C426.11 295.34 422.07 295.77 418.14 294.93C415.06 294.27 413.6 292.07 413.57 288.92C413.55 286.62 413.57 284.31 413.57 281.48L413.56 281.47Z" fill="white"/>
</svg>
