<svg width="900" height="500" viewBox="0 0 900 500" fill="none" xmlns="http://www.w3.org/2000/svg">
<path d="M701.591 213C701.081 213.82 700.501 214.6 700.071 215.46C695.991 223.68 698.241 222.02 689.171 221.66C684.601 221.48 680.071 221.04 675.511 221.88C666.491 223.55 659.161 230.9 657.741 239.87C657.081 244.05 659.121 246.7 663.591 247.12C669.661 247.7 675.631 246.61 681.601 245.67C683.191 245.42 684.761 244.81 686.591 245.6C685.991 248.31 684.391 250.59 683.341 253.1C682.771 254.46 681.741 255.04 680.351 255.29C671.991 256.82 663.611 258.16 655.061 257.55C645.201 256.85 641.231 251.06 643.971 241.44C649.621 221.59 664.741 210.67 686.451 210.89C691.511 210.94 696.571 211.17 701.581 212.02V213H701.591Z" fill="white"/>
<path d="M418.881 286.62C415.681 284.99 415.741 282.46 416.851 279.56C419.651 272.22 428.051 268.81 434.821 272.57C432.811 274.09 430.621 273.23 428.661 273.35C424.491 273.6 421.511 275.38 419.901 279.29C418.521 282.65 419.531 284.26 423.241 284.21C425.441 284.18 428.021 284.44 428.641 281.41C428.401 279.39 425.721 281 425.401 278.8C427.691 277.76 429.971 278.05 432.381 278.57C431.661 283.23 429.581 286.23 424.771 286.62H418.881Z" fill="white"/>
<path d="M485.631 286.62C485.381 283.29 487.771 284.14 489.601 284.1C492.271 284.05 495.211 284.85 496.921 281.8C496.201 279.57 494.251 280.12 492.831 279.67C489.171 278.51 488.671 276.61 491.281 273.62C493.601 270.96 498.271 270.34 503.221 272.19C500.251 275.06 495.131 271.27 492.861 275.58C493.621 277.39 495.261 277.19 496.601 277.56C500.631 278.67 501.151 280.55 498.501 283.77C497.151 285.41 495.101 285.59 493.481 286.62H485.631Z" fill="white"/>
<path d="M655.462 286.62C655.062 283.64 657.062 284.19 658.892 284.14C661.642 284.07 664.822 285 666.592 281.86C665.762 279.51 663.782 280.12 662.352 279.61C658.862 278.38 658.252 276.09 661.102 273.48C664.412 270.45 668.412 270.67 673.102 271.73C669.882 275.15 664.772 271.22 662.542 275.49C662.992 277.34 664.672 277.22 666.032 277.48C667.522 277.76 669.112 277.98 669.562 279.63C670.092 281.58 668.862 283.01 667.602 284.36C666.422 285.61 664.632 285.66 663.322 286.62H655.472H655.462Z" fill="white"/>
<path d="M609.32 286.62C606.23 284.92 606.28 282.39 607.37 279.51C609.97 272.64 616.92 269.54 624.74 272.1C623.35 274.33 621.23 273.29 619.58 273.38C614.85 273.65 611.87 275.47 610.41 279.31C609.19 282.52 610.06 283.77 613.56 284.04C615.47 284.19 617.36 283.13 619.42 284.02C618.67 287 615.62 285.2 614.23 286.61H609.32V286.62Z" fill="white"/>
<path d="M317.381 156.09C319.091 157.07 318.721 158.4 318.051 159.84C312.041 172.71 305.941 185.55 300.121 198.51C298.751 201.56 296.561 201.35 294.121 201.35C269.611 201.36 245.091 201.38 220.581 201.4C212.391 201.4 212.951 200.86 212.931 209.17C212.911 218.47 212.931 227.77 212.931 237.41C208.021 238 203.571 237.9 199.231 237.47C198.171 235.92 198.441 234.4 198.441 232.98C198.431 219.42 198.441 205.85 198.481 192.29C198.501 187.31 198.551 187.25 203.841 187.25C230.481 187.23 257.121 187.14 283.761 187.35C288.051 187.38 290.461 186.11 291.761 182.08C292.851 178.72 295.261 175.85 295.981 171.17C263.481 170.89 231.271 171.25 198.731 171.04C198.261 165.8 198.461 160.95 198.601 156.09H317.381Z" fill="white"/>
<path d="M288.951 223.53C285.901 230.01 282.991 236.19 280.091 242.37C276.891 249.17 273.551 255.91 270.561 262.8C269.191 265.96 267.301 267.08 263.861 267.04C248.821 266.86 233.781 266.94 218.731 266.97C213.291 266.97 213.251 267.02 213.241 272.35C213.211 286.74 213.231 301.13 213.241 315.52C213.241 316.79 212.951 318.14 214.191 319.65C219.611 317.37 224.821 314.4 230.081 311.55C232.031 310.49 231.791 308.56 231.801 306.78C231.821 299.59 231.801 292.39 231.851 285.2C231.861 283.42 231.561 281.6 232.391 279.67C236.131 278.66 240.051 279.33 243.931 279.24C245.791 279.2 246.501 280.23 246.501 282.02C246.481 293.79 246.481 305.56 246.511 317.34C246.511 319.02 245.841 320.09 244.381 320.85C229.581 328.51 214.791 336.2 199.991 343.86C199.741 343.99 199.371 343.88 198.801 343.88V253.06C200.961 251.87 202.961 252.3 204.871 252.3C221.221 252.27 237.571 252.14 253.921 252.42C258.071 252.49 260.351 251.13 261.591 247.37C262.651 244.14 264.921 241.39 265.581 237.99C264.051 236.29 262.131 236.93 260.431 236.91C252.421 236.84 244.401 236.76 236.401 236.95C233.051 237.03 231.721 235.98 231.871 232.5C232.101 227.28 232.011 222.04 231.891 216.81C231.831 214.11 232.801 212.91 235.591 213.07C238.991 213.27 242.421 212.82 245.691 213.4C246.961 215.02 246.591 216.74 246.481 218.29C246.231 221.8 247.811 222.76 251.121 222.71C262.241 222.56 273.361 222.64 284.471 222.65C285.771 222.65 287.101 222.54 288.961 223.54L288.951 223.53Z" fill="white"/>
<path d="M572.122 256.3C567.282 257.39 562.902 256.82 558.562 256.82C556.942 256.82 556.462 255.57 556.072 254.25C555.192 251.28 554.162 248.34 553.362 245.35C552.812 243.3 552.212 241.49 549.582 241.88C546.902 242.27 543.552 240.44 541.902 244.3C540.562 247.45 538.902 250.47 537.652 253.65C536.652 256.18 535.042 257.1 532.392 256.93C529.682 256.76 526.952 256.89 523.352 256.89C524.922 253.49 526.112 250.88 527.332 248.28C532.432 237.34 537.602 226.43 542.602 215.43C543.762 212.89 545.132 211.72 548.102 211.8C556.262 212.03 564.442 211.64 572.602 211.98C585.842 212.54 588.892 218.85 581.752 230.14C578.352 235.52 573.252 238.48 567.132 240.54C568.782 245.75 570.342 250.69 572.122 256.29V256.3ZM547.742 232.2C553.302 232.59 558.312 232.73 563.282 232.17C566.272 231.84 568.832 230.41 570.262 227.46C571.842 224.19 571.162 222.36 567.552 222.04C563.192 221.65 558.772 221.83 554.382 221.76C553.092 221.74 552.202 222.31 551.682 223.46C550.422 226.23 549.172 229.02 547.732 232.2H547.742Z" fill="white"/>
<path d="M418.8 211.91C419.52 226.97 420.2 241.43 420.91 256.29C416.21 257.31 411.75 256.87 407.41 256.7C405.96 253.76 407.23 250.79 405.68 247.52C398.75 247.52 391.48 247.49 384.21 247.54C382.34 247.55 381.55 249.26 380.45 250.4C373.36 257.74 372.52 258.03 361.9 256.42C361.72 254.69 363.18 253.93 364.11 252.97C376.22 240.59 388.46 228.35 400.42 215.84C403.29 212.84 406.18 211.42 410.26 211.87C412.83 212.15 415.46 211.92 418.8 211.92V211.91ZM405.71 223.81C401.08 228.67 397.26 232.68 392.87 237.28C397.88 237.7 401.82 238.05 405.85 237.08C406.33 232.87 406.06 228.91 405.71 223.81Z" fill="white"/>
<path d="M633.831 256.32C628.931 257.37 624.591 256.65 620.321 256.83C618.901 253.75 620.021 250.63 618.561 247.48C611.711 247.48 604.711 247.53 597.721 247.45C595.511 247.42 594.401 248.99 593.501 250.36C588.911 257.32 582.321 257.85 574.921 256.51C574.541 254.69 576.131 253.98 577.041 253.04C589.571 240.17 602.221 227.41 614.681 214.47C616.891 212.17 619.281 211.84 622.131 211.85C631.931 211.88 631.861 211.83 632.251 221.69C632.701 233.1 633.291 244.5 633.831 256.33V256.32ZM618.671 237.35V226.78C615.091 229.68 610.671 233.27 605.581 237.39C610.661 237.68 614.631 237.84 618.671 237.34V237.35Z" fill="white"/>
<path d="M424.842 257.61C425.772 253.29 427.522 250.85 428.582 248.15C429.492 245.82 431.462 246.46 433.202 246.65C439.392 247.32 445.592 247.51 451.812 247.2C453.282 247.13 454.742 247.08 456.152 246.52C457.812 245.85 459.022 244.69 459.052 242.92C459.082 240.93 457.222 240.91 455.842 240.6C451.862 239.71 447.782 239.13 443.882 237.96C437.742 236.12 436.142 232.6 438.522 226.7C441.772 218.66 447.802 213.73 456.212 211.98C464.942 210.16 473.732 210.87 482.872 211.89C482.522 215.34 480.792 217.9 479.472 220.59C478.542 222.49 476.752 222.09 475.142 221.87C469.612 221.14 464.062 220.95 458.502 221.2C454.272 221.39 453.542 221.93 451.622 225.44C452.552 227.39 454.482 227.26 456.192 227.6C459.872 228.33 463.632 228.82 467.222 229.9C473.232 231.7 474.892 235.35 472.582 241.25C469.592 248.9 464.072 253.88 456.162 256.17C450.742 257.74 445.192 257.72 439.622 257.6C434.922 257.5 430.212 257.58 424.852 257.58L424.842 257.61Z" fill="white"/>
<path d="M382.561 211.87C382.151 215.16 380.561 217.14 379.781 219.42C378.961 221.84 377.291 222.5 374.891 222.46C369.661 222.36 364.421 222.46 359.191 222.45C350.741 222.43 350.391 222.71 348.051 231.81H370.801C370.651 235.56 368.831 238.12 367.551 240.83C366.681 242.68 364.831 242.34 363.221 242.34C357.331 242.36 351.441 242.43 345.551 242.31C343.261 242.26 341.921 243.03 341.061 245.17C339.901 248.05 338.351 250.76 337.181 253.64C336.181 256.1 334.651 257.23 331.931 256.92C329.241 256.62 326.471 257.18 323.451 256.48C324.401 252.98 325.961 250.15 327.321 247.24C332.231 236.73 337.191 226.24 341.991 215.68C343.211 213 344.681 211.73 347.851 211.79C359.281 211.99 370.721 211.87 382.541 211.87H382.561Z" fill="white"/>
<path d="M485.581 256.3C490.901 244.86 496.041 233.82 501.491 222.1H484.631C485.081 218.6 486.761 216.15 487.921 213.51C488.441 212.32 489.361 211.87 490.641 211.87C505.671 211.89 520.691 211.88 535.991 211.88C535.661 215.26 533.951 217.69 532.841 220.32C532.131 221.99 530.621 222.01 529.111 222.01C525.671 222 522.221 222.24 518.811 221.93C515.261 221.61 513.621 223.15 512.261 226.28C508.481 234.97 504.161 243.42 500.431 252.13C498.821 255.88 496.621 257.49 492.631 256.91C490.561 256.61 488.401 257.15 485.581 256.29V256.3Z" fill="white"/>
<path d="M342.002 275.77C338.842 278.79 339.182 283.86 335.562 286.04C335.182 285.82 334.812 285.6 334.432 285.39C336.252 281.33 337.952 277.2 339.952 273.22C341.162 270.81 343.412 270.88 344.622 273.29C345.912 275.88 346.932 278.6 348.222 281.62C351.402 278.6 351.132 273.65 355.042 271.71C354.282 276.48 352.052 280.59 350.012 284.73C348.982 286.82 346.882 286.41 345.682 284.01C344.382 281.41 343.292 278.7 341.992 275.77H342.002Z" fill="white"/>
<path d="M388.221 285.5C390.191 281.14 392.101 276.93 393.991 272.71C394.471 271.63 395.371 271.46 396.401 271.47C398.841 271.5 401.301 271.36 403.721 271.57C407.111 271.87 407.851 273.5 406.281 276.54C405.241 278.56 403.351 279.49 401.571 280.48C400.791 282.24 402.191 283.67 402.041 285.36C399.751 286.82 398.881 285.24 398.321 283.41C397.851 281.89 397.331 280.78 395.411 280.78C393.661 280.78 392.771 281.51 392.101 283.04C391.511 284.4 391.161 286.31 388.221 285.5ZM394.871 278.09C401.201 279.17 402.481 278.64 403.601 274.46C397.691 272.27 396.481 272.78 394.871 278.09Z" fill="white"/>
<path d="M535.471 285.68C537.471 281.26 539.351 277.21 541.141 273.12C541.691 271.87 542.611 271.51 543.841 271.52C546.111 271.53 548.401 271.39 550.661 271.56C554.531 271.85 555.391 273.76 553.351 277.06C552.261 278.82 550.431 279.55 548.851 280.51C548.031 282.26 549.591 283.68 549.291 285.35C546.941 286.82 546.131 285.19 545.611 283.35C545.161 281.76 544.491 280.82 542.641 280.79C540.851 280.77 540.051 281.67 539.381 283.13C538.811 284.37 538.531 286.1 535.471 285.67V285.68ZM551.361 274.71C545.001 272.36 543.491 273 542.291 278.45C545.721 278.41 549.491 279.73 551.361 274.71Z" fill="white"/>
<path d="M517.761 277.08C520.351 277.96 522.581 276.95 524.751 278.13C522.751 282.04 515.591 276.56 515.241 283.18C517.571 284.68 520.491 282.9 523.221 285.14C518.971 286.58 515.241 285.91 511.141 285.75C512.271 281.02 514.621 277.11 516.471 273.01C516.811 272.25 517.401 271.62 518.321 271.61C521.481 271.57 524.671 271.11 528.241 271.96C525.491 275.84 519.011 270.69 517.761 277.06V277.08Z" fill="white"/>
<path d="M327.56 271.5C324.22 275.82 317.72 270.61 316.7 277.05C318.96 278.18 321.44 276.74 323.57 278.29C321.42 281.99 314.34 276.45 313.94 283.35C316.39 284.59 319.2 283.04 322.55 285.22C317.77 286.43 313.99 286.06 309.65 285.57C311.59 281.2 313.37 277.21 315.14 273.21C315.66 272.04 316.5 271.47 317.81 271.48C320.71 271.51 323.6 271.49 327.57 271.49L327.56 271.5Z" fill="white"/>
<path d="M645.601 278.33C643.171 281.83 636.681 276.66 635.811 283.14C638.061 284.8 641.141 283.01 644.231 285.06C639.731 286.58 635.991 285.96 631.811 285.73C633.111 281.06 635.371 277.12 637.211 273.01C637.551 272.24 638.121 271.6 639.041 271.59C642.171 271.56 645.341 271.04 648.921 272.12C645.931 275.6 639.921 270.91 638.521 276.82C640.691 278.47 643.461 276.57 645.601 278.33Z" fill="white"/>
<path d="M381.22 271.52C378.14 275.93 371.61 270.5 370.57 277C372.82 278.25 375.32 276.78 377.45 278.22C375.38 282.11 368.21 276.4 367.79 283.32C370.18 284.66 373.01 283.04 376.2 285.1C371.81 286.67 368.09 285.82 363.91 285.87C364.84 280.92 367.46 277.01 369.29 272.81C369.73 271.8 370.69 271.53 371.73 271.53C374.63 271.53 377.53 271.53 381.22 271.53V271.52Z" fill="white"/>
<path d="M583.401 272.42C579.411 276.61 575.531 280.92 571.391 284.95C569.431 286.86 567.381 286.22 567.221 283.78C566.971 279.79 566.221 275.74 567.421 270.6C571.381 274.21 568.821 278.55 570.571 282C575.431 279.64 577.311 273.36 582.571 271.48C582.851 271.79 583.121 272.09 583.401 272.4V272.42Z" fill="white"/>
<path d="M448.471 285.59C449.117 282.043 448.644 277.493 447.051 271.94C451.591 270.26 450.631 275.69 453.151 276.6C456.831 275.78 458.801 271.22 464.211 271.69C462.051 273.32 460.621 274.5 459.091 275.53C455.701 277.81 452.161 279.88 451.051 284.3C450.781 285.4 449.931 286.36 448.481 285.57L448.471 285.59Z" fill="white"/>
<path d="M598.211 272.49C595.811 277.02 594.451 282.16 590.641 285.87C591.611 280.49 593.781 275.78 596.251 271.23C596.901 271.65 597.551 272.07 598.211 272.49Z" fill="white"/>
</svg>
