<svg width="900" height="500" viewBox="0 0 900 500" fill="none" xmlns="http://www.w3.org/2000/svg">
<path d="M712.24 217.53C711.13 219.55 709.96 221.54 708.92 223.6C701.59 238.09 694.27 252.59 687.01 267.11C686.39 268.35 685.65 268.64 684.32 268.86C680.25 269.53 678.3 267.81 676.55 264.16C669.28 249.01 661.63 234.05 654.13 219.01C653.86 218.46 653.61 217.9 653.24 217.09C654.92 217.09 656.38 216.93 657.77 217.16C658.37 217.26 659 218.07 659.33 218.71C666.78 233.49 674.18 248.3 681.6 263.09C681.9 263.69 682.24 264.28 682.7 265.12C683.14 264.33 683.49 263.78 683.79 263.19C691.11 248.55 698.46 233.93 705.71 219.25C706.51 217.62 707.35 216.74 709.24 217.05C710.23 217.21 711.25 217.12 712.26 217.14V217.52L712.24 217.53Z" fill="white"/>
<path d="M266.929 238.4C269.709 238.4 272.169 238.36 274.619 238.41C276.879 238.46 278.209 239.49 278.479 241.28C278.809 243.43 277.409 245.1 275.159 245.14C272.519 245.18 269.869 245.14 267.099 245.14V251.89C269.679 251.89 272.299 251.86 274.929 251.89C276.999 251.92 278.309 253.02 278.509 254.79C278.739 256.91 277.329 258.5 275.029 258.55C272.449 258.61 269.859 258.56 267.059 258.56V266.52C265.169 266.17 263.489 266.01 261.919 265.53C254.879 263.37 249.579 259.34 247.559 251.88C247.439 251.45 246.769 250.86 246.349 250.86C236.309 250.81 226.269 250.84 216.229 250.86C216.119 250.86 216.009 250.97 215.779 251.1C216.039 257.75 217.609 264.15 220.799 270.02C230.309 287.49 245.139 296.47 265.059 296.06C285.819 295.63 299.919 281.97 305.909 264.57C315.969 235.33 296.749 204.29 266.089 199.83C265.419 199.73 264.729 199.68 264.069 199.5C270.259 199 276.229 200.09 282.009 202.2C302.029 209.52 314.709 227.98 314.669 249.6C314.619 274.36 295.369 296.33 270.819 299.64C243.059 303.38 218.389 286.13 212.629 258.81C211.809 254.92 211.729 250.87 211.289 246.68H247.089C250.259 236.58 257.399 230.81 266.939 230.68V238.38L266.929 238.4Z" fill="white"/>
<path d="M574.659 250.05H555.769V241.54H583.469C583.509 242.13 583.579 242.73 583.579 243.33C583.579 250.33 583.579 257.32 583.579 264.32C583.579 265.18 583.739 265.98 582.519 266.4C570.169 270.6 557.619 271.87 544.939 268.42C535.949 265.97 529.109 260.65 526.629 251.3C523.169 238.29 527.789 224.58 543.619 219.42C556.489 215.23 569.139 216.57 581.429 221.96C581.879 222.16 582.389 222.83 582.399 223.3C582.489 226.44 582.439 229.58 582.439 233.11C581.089 232.29 579.989 231.65 578.909 230.98C568.589 224.53 557.569 223.79 546.189 227.37C538.789 229.69 534.799 235.25 534.509 242.85C534.219 250.45 537.849 256.25 544.829 259.33C551.649 262.34 558.819 262.28 566.029 261.63C568.899 261.37 571.749 260.82 574.649 260.4V250.06L574.659 250.05Z" fill="white"/>
<path d="M366.03 253.09V271.06H357.35V219.92C357.69 219.86 358.04 219.75 358.39 219.75C368.43 219.76 378.47 219.72 388.5 219.83C392.43 219.88 396.27 220.68 399.82 222.5C403.9 224.6 406.62 227.85 407.16 232.41C407.51 235.36 407.58 238.5 406.93 241.37C405.42 248.05 400.28 251.01 394.03 252.26C391.39 252.79 388.65 252.99 385.95 253.05C380.08 253.16 374.21 253.09 368.34 253.09H366.02H366.03ZM366.26 228.31V244.47C374 244.47 381.56 244.53 389.12 244.43C390.85 244.41 392.62 243.99 394.3 243.49C396.42 242.85 397.99 241.34 398.37 239.15C399.6 232.08 397.42 229.72 391.81 228.82C390.82 228.66 389.81 228.5 388.81 228.49C381.69 228.37 374.57 228.29 367.45 228.2C367.09 228.2 366.72 228.27 366.27 228.32L366.26 228.31Z" fill="white"/>
<path d="M463.58 217.99H472.37V220.09C472.37 230.55 472.37 241.01 472.38 251.47C472.38 252.6 472.47 253.74 472.68 254.84C473.41 258.66 475.45 260.69 479.29 261.38C488.64 263.06 496.93 260.22 504.89 255.59C507.76 253.92 508.88 251.98 508.78 248.55C508.5 239.11 508.68 229.65 508.68 220.19C508.68 219.51 508.68 218.82 508.68 218.02H517.38V269.23H508.77V263.03C507.89 263.49 507.31 263.76 506.75 264.08C499.37 268.25 491.57 270.87 482.97 270.47C476.48 270.17 470.66 268.37 466.6 262.86C464.52 260.03 463.5 256.78 463.48 253.31C463.42 241.84 463.46 230.37 463.46 218.9C463.46 218.65 463.51 218.41 463.57 217.98L463.58 217.99Z" fill="white"/>
<path d="M459.43 260.72V269.12C459.28 269.2 459.17 269.32 459.07 269.32C448.91 269.22 438.75 269.16 428.59 268.98C427.04 268.95 425.47 268.51 423.97 268.05C417.71 266.14 414.31 261.79 414.05 254.87C413.79 248.26 413.87 241.64 413.83 235.02C413.8 230.04 413.83 225.06 413.83 220.08V218H422.74V220.09C422.74 230.55 422.74 241.02 422.74 251.48C422.74 252.17 422.74 252.87 422.79 253.56C423.16 257.74 424.42 259.33 428.55 260.06C431.14 260.52 433.81 260.66 436.45 260.69C443.4 260.77 450.34 260.72 457.29 260.72H459.44H459.43Z" fill="white"/>
<path d="M601.529 248.93V268.66H596.789V217.24C597.029 217.19 597.259 217.1 597.489 217.1C607.839 217.11 618.199 216.95 628.539 217.25C631.989 217.35 635.519 218.3 638.819 219.44C643.469 221.05 646.249 224.62 646.899 229.52C647.659 235.29 647.179 240.8 642.069 244.74C638.929 247.17 635.199 248.34 631.339 248.5C623.339 248.82 615.319 248.81 607.309 248.93C605.489 248.96 603.659 248.93 601.529 248.93ZM601.619 244.45C607.649 244.45 613.509 244.5 619.359 244.43C623.579 244.38 627.829 244.47 631.999 243.98C640.839 242.94 643.109 237.34 641.979 229.81C641.489 226.56 639.579 224.16 636.409 223.27C633.529 222.46 630.509 221.84 627.529 221.75C619.399 221.49 611.269 221.56 603.139 221.5C602.659 221.5 602.179 221.58 601.619 221.63V244.44V244.45Z" fill="white"/>
<path d="M316.9 234.44H337.61C337.66 234.63 337.72 234.82 337.77 235.01C331.49 238.17 325.2 241.32 318.89 244.49C318.19 240.98 317.54 237.68 316.9 234.44Z" fill="white"/>
<path d="M237.439 320.91C238.149 313.96 238.859 307 239.569 299.99C242.909 301.29 246.039 302.5 249.359 303.79C245.529 309.51 241.669 315.28 237.809 321.04C237.689 320.99 237.559 320.95 237.439 320.9V320.91Z" fill="white"/>
<path d="M315.98 267.53C316.78 264.42 317.62 261.15 318.53 257.65C324.64 260.74 330.86 263.89 337.09 267.04C337.05 267.2 337.02 267.37 336.98 267.53H315.99H315.98Z" fill="white"/>
<path d="M303.65 287.91C305.92 285.08 308.03 282.45 310.23 279.7C314.58 285.1 318.97 290.54 323.35 295.98C323.29 296.08 323.23 296.17 323.18 296.27C316.67 293.48 310.16 290.7 303.65 287.91Z" fill="white"/>
<path d="M210.799 304.25C214.239 298.18 217.679 292.11 220.799 286.61C223.209 289.02 225.639 291.45 228.039 293.86C222.789 297.2 216.959 300.91 211.139 304.62C211.029 304.5 210.909 304.38 210.799 304.25Z" fill="white"/>
<path d="M270.349 174.74C271.499 181.63 272.659 188.53 273.819 195.51C270.329 195.14 266.999 194.79 263.379 194.41C265.589 187.81 267.779 181.25 269.979 174.69C270.099 174.71 270.219 174.72 270.349 174.74Z" fill="white"/>
<path d="M214.549 276.97C207.749 278.31 200.909 279.67 194.069 281.02C194.009 280.92 193.949 280.82 193.879 280.72C199.359 276.26 204.839 271.81 210.309 267.35C211.759 270.64 213.119 273.73 214.549 276.96V276.97Z" fill="white"/>
<path d="M262.74 305.56C266.3 305.27 269.61 304.99 273.21 304.7C272.31 311.51 271.4 318.38 270.49 325.24C270.36 325.26 270.23 325.29 270.1 325.31C267.65 318.74 265.21 312.18 262.74 305.57V305.56Z" fill="white"/>
<path d="M284.799 301.23C287.979 299.54 290.909 297.98 294.089 296.29C295.939 302.88 297.799 309.53 299.669 316.19C299.549 316.27 299.419 316.35 299.299 316.42C294.479 311.37 289.659 306.31 284.799 301.23Z" fill="white"/>
<path d="M208.02 246.19V256.73C201.34 255.48 194.59 254.21 187.84 252.94C187.81 252.79 187.78 252.65 187.76 252.5C194.44 250.42 201.11 248.34 208.03 246.18L208.02 246.19Z" fill="white"/>
<path d="M311.76 221.84C309.64 218.91 307.69 216.23 305.59 213.33C311.94 210.58 318.34 207.82 324.73 205.05C324.81 205.15 324.88 205.24 324.96 205.34C320.56 210.84 316.16 216.35 311.76 221.84Z" fill="white"/>
<path d="M295.709 204.28C292.559 202.49 289.619 200.82 286.549 199.08C291.139 194 295.769 188.88 300.389 183.76C300.519 183.81 300.659 183.87 300.789 183.92C299.099 190.68 297.419 197.44 295.709 204.28Z" fill="white"/>
</svg>
