<svg width="269" height="150" viewBox="0 0 269 150" fill="none" xmlns="http://www.w3.org/2000/svg">
<path d="M87.3649 42.3919C94.4186 43.1059 103.654 50.4679 102.584 58.2349C102.516 58.7419 102.45 59.7679 101.753 59.6539C101.628 59.6329 100.919 57.6259 100.77 57.2989C99.1291 53.7499 96.9921 50.3209 93.8478 47.9119C90.7214 45.5149 86.6834 44.3509 82.8815 43.5709C82.8486 43.3999 82.7919 43.1659 82.9473 43.0429C83.1236 42.9019 84.7197 42.4249 84.9827 42.3919C85.5536 42.3229 86.788 42.3319 87.3679 42.3919H87.3649Z" fill="white"/>
<path d="M66.6973 66.4099C67.3608 60.1999 73.2908 52.3429 79.7796 51.5809C80.5 51.4969 84.1255 51.2749 83.9282 52.5319C82.7087 53.2669 81.2621 53.5579 79.95 54.1399C75.0363 56.3119 71.0491 60.5539 69.1153 65.5789C68.7357 66.5659 67.9795 70.3099 67.5551 70.7869C67.4475 70.9099 67.4146 70.9609 67.2293 70.9219C67.1396 70.3609 66.76 69.5929 66.6973 69.0649C66.6225 68.4469 66.6315 67.0339 66.6973 66.4099Z" fill="white"/>
<path d="M123.133 49.9548V58.5138C123.133 60.6288 125.913 62.4288 127.835 62.4288H132.605L132.802 62.2308V49.9548H135.451V64.2198C135.451 64.5798 134.706 65.0418 134.327 65.0868C132.611 65.2878 128.806 65.2278 127.034 65.0868C123.815 64.8348 120.348 61.9248 120.348 58.5138V49.9548H123.13H123.133Z" fill="white"/>
<path d="M151.086 65.084H148.303V58.382C148.303 57.704 147.096 56.459 146.381 56.459H141.148V65.084H138.365V54.8C138.365 54.317 139.172 53.753 139.633 53.681C140.966 53.474 145.96 53.555 147.245 53.867C149.236 54.35 151.083 56.249 151.083 58.382V65.084H151.086Z" fill="white"/>
<path d="M169.899 53.6719V56.4589H162.148C161.796 56.4589 161.485 56.8489 161.428 57.1969C161.305 57.9619 161.311 60.7849 161.413 61.5739C161.473 62.0449 161.984 62.4289 162.414 62.4289H169.899V65.0839H161.619C160.49 65.0839 159.061 63.5659 158.765 62.5039C158.493 61.5319 158.529 57.1609 158.843 56.1979C159.24 54.9679 160.69 53.6719 162.02 53.6719H169.902H169.899Z" fill="white"/>
<path d="M100.214 45.4429C100.48 45.4429 100.752 45.3949 101.006 45.5119C101.287 45.6409 102.576 46.9159 102.866 47.2309C106.718 51.3949 108.673 57.4549 107.412 63.0709C106.877 65.4529 104.928 68.9599 102.928 70.3909C102.576 70.6429 102.005 71.0269 101.676 70.5919C103.401 65.9329 105.266 60.6919 104.396 55.6519C104.097 53.9239 103.299 52.0309 102.582 50.4349C102.328 49.8679 100.017 45.6319 100.217 45.4399L100.214 45.4429Z" fill="white"/>
<path d="M76.7347 71.3539C78.2859 75.2479 80.4468 79.1179 83.8004 81.7249C86.045 83.4709 89.4793 84.9589 92.241 85.6129C93.1556 85.8289 95.9293 86.1499 96.5002 86.5219C96.5749 86.5699 96.82 86.798 96.7692 86.846C92.2918 88.502 87.6052 87.4669 83.6121 85.0969C79.5591 82.6879 76.1967 78.9559 75.832 74.0449C75.7991 73.6129 75.7692 70.3369 76.7317 71.3539H76.7347Z" fill="white"/>
<path d="M76.5005 59.5101C76.3271 61.1151 75.3677 62.4561 74.8118 63.9891C73.7686 66.8721 73.398 69.5001 73.5863 72.5811C73.8583 77.0481 76.0402 80.6811 77.9561 84.5901C77.5615 84.5901 77.179 84.6471 76.7964 84.4911C76.6977 84.4521 75.5231 83.4291 75.3647 83.2701C70.1401 78.0351 68.5142 67.4901 73.4548 61.5711C73.8165 61.1361 75.9445 59.0001 76.4975 59.5101H76.5005Z" fill="white"/>
<path d="M94.3867 77.8278C95.6331 77.0148 97.0618 76.6908 98.4098 76.0818C103.294 73.8648 107.4 69.3498 109.128 64.2588C109.651 62.7168 109.926 60.4938 110.616 59.1138C111.151 58.0458 111.426 59.5728 111.477 60.1128C112.203 68.1768 106.641 77.4078 98.2812 78.6078C97.0797 78.7818 95.0353 79.0758 94.3897 77.8308L94.3867 77.8278Z" fill="white"/>
<path d="M109.884 75.0378C110.061 75.2268 108.838 77.1138 108.614 77.4138C104.678 82.7748 94.949 85.3668 88.9503 82.5378C88.0297 82.1028 85.6535 80.7918 85.0558 80.0688C84.8196 79.7838 84.1352 78.6798 84.6702 78.5058C85.2052 78.3318 87.692 79.4898 88.4541 79.7178C93.5621 81.2508 99.4323 80.9718 104.146 78.3768C106.077 77.3118 107.759 75.7248 109.884 75.0378Z" fill="white"/>
<path d="M94.386 52.079C92.9872 52.241 91.7856 51.356 90.4795 50.882C83.1776 48.236 78.2609 49.313 71.6435 52.853C70.968 53.213 70.0654 53.966 69.4347 54.227C69.2763 54.293 69.1299 54.359 69.082 54.134C71.3536 48.32 79.5939 45.977 85.2938 46.523C88.4919 46.829 93.3966 48.683 94.383 52.079H94.386Z" fill="white"/>
<path d="M183.144 49.9548V53.6718H187.915V56.4588H183.144V65.0838H180.365V56.4588H176.787V53.6718H180.365V49.9548H183.144Z" fill="white"/>
<path d="M202.354 53.6719V66.8779C202.354 67.3309 201.657 68.6599 201.298 69.0049C200.88 69.4099 199.392 70.1269 198.842 70.1269H193.674L193.477 69.9289V67.3399H198.842C198.997 67.3399 199.571 66.7669 199.571 66.6109V53.6719H202.354Z" fill="white"/>
<path d="M192.419 53.6719V61.5679C192.419 61.9099 193.092 62.4319 193.412 62.4319H198.511V65.0869H192.617C192.076 65.0869 190.778 64.1539 190.432 63.6919C190.16 63.3259 189.637 62.1169 189.637 61.7029V53.8729L189.834 53.6749H192.416L192.419 53.6719Z" fill="white"/>
<path d="M127.507 70.658V72.119H122.274C121.852 72.119 121.458 73.574 122.3 73.817C123.206 74.078 125.149 73.709 126.234 73.856C128.072 74.108 128.948 76.328 127.77 77.762C126.563 79.232 122.345 78.419 120.567 78.605C120.172 78.476 120.408 77.507 120.349 77.165H126.111C126.718 77.165 127.247 75.788 126.41 75.404C125.681 75.071 123.287 75.431 122.28 75.293C120.379 75.035 119.709 72.662 120.937 71.318C121.087 71.156 121.84 70.661 122.005 70.661H127.501L127.507 70.658Z" fill="white"/>
<path d="M189.703 78.62C187.673 78.368 187.497 76.535 187.652 74.84C187.784 73.406 188.361 72.665 189.837 72.518C191.723 72.329 194.108 72.254 194.392 74.588C194.518 75.614 194.521 79.058 194.21 79.949C194.073 80.345 193.242 81.143 192.886 81.143H189.772V79.682H192.62C192.856 79.478 192.919 79.253 192.955 78.956C193.068 77.978 193.041 75.839 192.955 74.834C192.934 74.591 192.934 74.348 192.784 74.141C192.536 73.892 189.721 73.892 189.428 74.099C188.899 74.474 188.905 77.162 189.703 77.162H192.285V78.623C191.466 78.551 190.501 78.722 189.703 78.623V78.62Z" fill="white"/>
<path d="M156.253 53.6719H153.471V65.0839H156.253V53.6719Z" fill="white"/>
<path d="M174.93 53.6719V65.0839H172.15V53.8699L172.348 53.6719H174.93Z" fill="white"/>
<path d="M165.128 70.658V72.119H159.431V76.829C159.431 76.859 159.844 77.162 159.894 77.162H165.128V78.623H159.894C159.105 78.623 158.152 77.876 158.006 77.066C157.829 76.097 157.85 72.425 157.973 71.387C158.009 71.09 158.071 70.862 158.307 70.661H165.131L165.128 70.658Z" fill="white"/>
<path d="M144.728 74.6389V75.9649H142.011C141.401 75.9649 141.551 77.1589 141.88 77.1589H145.06C145.245 76.9939 145.344 76.7989 145.383 76.5529C145.445 76.1509 145.511 73.9729 145.06 73.9729H141.748L141.572 73.7539C141.533 73.5859 141.542 73.4149 141.542 73.2439C141.542 72.9709 141.497 72.6829 141.748 72.5149H144.928C145.392 72.5149 146.237 73.0549 146.48 73.4839C146.802 74.0569 146.82 76.3759 146.71 77.0839C146.444 78.8149 143.864 78.7279 142.54 78.6229C140.959 78.4969 139.934 77.8099 140.257 76.0609C140.34 75.6079 141.067 74.6359 141.485 74.6359H144.731L144.728 74.6389Z" fill="white"/>
<path d="M131.05 72.5509C131.878 72.4309 134.141 72.4099 134.84 72.7999C136.015 73.4509 135.967 75.3829 135.85 76.5619C135.716 77.9179 134.954 78.4639 133.65 78.6049C132.222 78.7579 129.454 78.8659 129.227 76.9669C129.158 76.3849 129.149 74.4859 129.26 73.9429C129.427 73.1209 130.288 72.6619 131.053 72.5539L131.05 72.5509ZM133.928 73.9759C133.229 73.8499 131.812 73.9759 131.014 73.9759C130.99 73.9759 130.682 74.2849 130.682 74.3089V76.8289C131.059 77.3569 133.988 77.2369 134.227 76.9969C134.437 76.4179 134.664 74.1109 133.928 73.9759Z" fill="white"/>
<path d="M176.124 76.4959V75.1699H178.972C179.391 75.1699 179.391 73.9759 178.972 73.9759H175.792C175.586 74.1649 175.511 74.4529 175.472 74.7199C175.407 75.1699 175.326 77.1619 175.924 77.1619H178.572L178.748 77.3809C178.787 77.5489 178.778 77.7199 178.778 77.8909C178.778 78.1639 178.823 78.4519 178.572 78.6199H176.055C175.263 78.6199 174.328 77.8519 174.163 77.0629C173.963 76.0999 173.993 73.6579 174.833 73.0009C175.717 72.3049 178.966 72.3079 179.899 72.9109C180.831 73.5139 180.933 74.9479 180.287 75.8239C180.156 76.0039 179.519 76.4959 179.367 76.4959H176.121H176.124Z" fill="white"/>
<path d="M172.946 78.6199H171.622V75.1039C171.622 74.7499 170.851 73.9759 170.495 73.9759H167.979L167.782 74.1739V78.6199C167.438 78.5599 166.472 78.7969 166.344 78.4009C166.443 76.8589 166.147 75.0079 166.323 73.5049C166.407 72.7939 166.762 72.5689 167.447 72.5059C168.385 72.4219 170.37 72.4249 171.231 72.7099C171.829 72.9079 172.952 73.7689 172.952 74.4379V78.6169L172.946 78.6199Z" fill="white"/>
<path d="M202.222 72.5149V79.7479C202.222 80.1559 201.131 81.1399 200.698 81.1399H197.583C197.643 80.6659 197.404 80.0299 197.78 79.6789H200.563L200.76 79.4809V72.7129C201.11 72.3349 201.744 72.5749 202.219 72.5149H202.222Z" fill="white"/>
<path d="M153.204 72.5149V73.9759H149.827C149.689 73.9759 149.364 74.3029 149.364 74.4409V78.6199C149.02 78.5599 148.054 78.7969 147.926 78.4009C148.078 76.9939 147.448 74.2999 148.431 73.2379C148.676 72.9739 149.504 72.5149 149.827 72.5149H153.204Z" fill="white"/>
<path d="M137.044 69.9949C137.388 70.0549 138.353 69.8179 138.482 70.2139L138.5 76.6969C138.595 77.2099 139.277 77.1799 139.692 77.1619C139.635 77.5039 139.866 78.4819 139.474 78.6079C138.81 78.5989 137.971 78.4639 137.498 77.9629C137.412 77.8729 137.041 77.2729 137.041 77.2249V69.9919L137.044 69.9949Z" fill="white"/>
<path d="M186.854 72.5149V73.9759H183.477C183.423 73.9759 183.014 74.5039 183.014 74.5729V78.6199H181.689V73.9099C181.689 73.3609 182.966 72.5179 183.477 72.5179H186.854V72.5149Z" fill="white"/>
<path d="M197.054 72.5149V76.6939C197.054 76.8319 197.38 77.1589 197.518 77.1589H200.234L200.109 78.5599C198.833 78.6319 196.734 78.9199 195.933 77.6839C195.865 77.5789 195.596 77.0149 195.596 76.9609V72.5149H197.054Z" fill="white"/>
<path d="M156.253 48.8931H153.471V51.4131H156.253V48.8931Z" fill="white"/>
<path d="M174.93 48.8931V51.4161H172.348L172.15 51.2151V48.8931H174.93Z" fill="white"/>
<path d="M164.467 73.844H159.963V75.305H164.467V73.844Z" fill="white"/>
</svg>
