<?xml version="1.0" encoding="UTF-8"?>
<svg id="Layer_1" data-name="Layer 1" xmlns="http://www.w3.org/2000/svg" viewBox="0 0 639.1 489.93">
  <defs>
    <style>
      .cls-1 {
        fill: #095cfb;
      }

      .cls-2 {
        fill: #fdfd00;
      }
    </style>
  </defs>
  <g>
    <path class="cls-1" d="M65.32,404.97l19.64,2.35c24.55,2.99,49.31,10.89,49.31,39.49,0,21.77-14.52,43.12-66.81,43.12S.64,464.74,0,441.26h33.51c.64,14.3,12.81,18.79,33.94,18.79s33.3-2.56,33.3-11.95-11.95-11.1-27.32-12.59l-15.8-1.49c-25.83-2.35-53.37-8.33-53.37-41.84,0-22.41,17.93-40.56,63.83-40.56,41.2,0,62.54,17.93,63.61,46.96h-33.51c-1.07-14.09-10.89-17.72-30.95-17.72s-29.46,3.42-29.46,11.1c0,8.97,11.95,11.1,27.54,13.02Z"/>
    <path class="cls-1" d="M275.79,400.91c0,29.24-23.69,46.54-51.23,46.54h-42.91v39.7h-33.51v-132.77h76.42c27.54,0,51.23,17.29,51.23,46.53ZM222,417.14c6.4,0,21.35-1.71,21.35-16.22s-14.94-16.22-21.35-16.22h-40.34v32.45h40.34Z"/>
    <path class="cls-1" d="M315.92,354.38l25.62,114.2,30.95-114.2h34.58l30.95,114.2,25.62-114.2h34.15l-29.67,132.77h-57.21l-21.13-77.49-20.92,77.49h-57.21l-29.89-132.77h34.15Z"/>
    <path class="cls-1" d="M636.96,399.42c0,20.49-12.17,35.01-29.24,41.41l31.38,46.32h-38.85l-29.03-42.91h-29.24v42.91h-33.51v-132.77h78.77c26.68,0,49.74,16.86,49.74,45.04ZM584.67,414.15c5.98,0,19.64-1.28,19.64-14.73s-13.66-14.73-19.64-14.73h-42.69v29.46h42.69Z"/>
  </g>
  <path class="cls-2" d="M457.98,136.2c0,77.5-61.4,136.31-139.32,136.31s-137.55-61.61-137.55-135.68S241.89,0,318.67,0s139.32,58.8,139.32,136.31v-.1ZM212.28,136.83c0,56.52,45.3,106.49,104.73,106.49s109.6-46.23,109.6-106.49-47.47-107.53-109.6-107.53-104.73,49.97-104.73,107.53Z"/>
</svg>