<svg width="171" height="154" viewBox="0 0 171 154" fill="none" xmlns="http://www.w3.org/2000/svg">
<g clip-path="url(#clip0_3043_342)">
<path d="M0 154V59.2266H23.8517C25.5203 59.2266 27.0768 59.5469 28.507 60.1737C29.9373 60.8005 31.1852 61.6502 32.2649 62.7228C33.3447 63.7953 34.186 65.035 34.831 66.4558C35.462 67.8765 35.7845 69.4227 35.7845 71.0802V142.16C35.7845 143.818 35.462 145.364 34.831 146.785C34.2 148.206 33.3447 149.445 32.2649 150.518C31.1852 151.59 29.9373 152.44 28.507 153.067C27.0768 153.694 25.5203 154.014 23.8517 154.014H0V154ZM11.9188 142.146H17.8782C19.5469 142.146 20.9631 141.575 22.1129 140.433C23.2627 139.291 23.8376 137.884 23.8376 136.227V77.0001C23.8376 75.3425 23.2627 73.9357 22.1129 72.7935C20.9631 71.6513 19.5469 71.0802 17.8782 71.0802H11.9188V142.16V142.146Z" fill="#FDFD00"/>
<path d="M68.9193 59.2266C70.588 59.2266 72.1444 59.5469 73.5747 60.1737C75.0049 60.8006 76.2529 61.6502 77.3326 62.7228C78.4123 63.7953 79.2536 65.035 79.8987 66.4558C80.5297 67.8765 80.8522 69.4227 80.8522 71.0802V106.613C80.8522 108.271 80.2773 109.678 79.1274 110.82C77.9776 111.962 76.5614 112.533 74.8928 112.533C76.5614 112.533 77.9776 113.104 79.1274 114.246C80.2773 115.389 80.8522 116.795 80.8522 118.453V153.986H68.9333V124.373C68.9333 122.715 68.3584 121.309 67.2086 120.166C66.0588 119.024 64.6426 118.453 62.9739 118.453H57.0145V153.986H45.0957V59.2266H68.9474H68.9193ZM68.9193 77.0001C68.9193 75.3425 68.3444 73.9357 67.1946 72.7935C66.0448 71.6513 64.6285 71.0802 62.9599 71.0802H57.0005V106.613H62.9599C64.6285 106.613 66.0448 106.042 67.1946 104.9C68.3444 103.758 68.9193 102.351 68.9193 100.693V77.0001Z" fill="#FDFD00"/>
<path d="M114 0.000257213C115.669 0.000257213 117.225 0.320626 118.655 0.947435C120.086 1.57424 121.334 2.42392 122.413 3.49646C123.493 4.569 124.334 5.80869 124.979 7.22945C125.61 8.65022 125.933 10.1964 125.933 11.8539V142.161C125.933 143.818 125.61 145.364 124.979 146.785C124.348 148.206 123.493 149.445 122.413 150.518C121.334 151.591 120.086 152.44 118.655 153.067C117.225 153.694 115.669 154.014 114 154.014H102.081C100.413 154.014 98.8562 153.694 97.4259 153.067C95.9957 152.44 94.7477 151.591 93.668 150.518C92.5883 149.445 91.7329 148.206 91.1019 146.785C90.4709 145.364 90.1484 143.818 90.1484 142.161V11.84C90.1484 10.1824 90.4709 8.63629 91.1019 7.21552C91.7329 5.79476 92.5883 4.55507 93.668 3.48253C94.7477 2.40999 95.9957 1.57424 97.4259 0.933506C98.8562 0.306697 100.413 -0.0136719 102.081 -0.0136719H114V0.000257213ZM114 17.7738C114 16.1162 113.425 14.7094 112.275 13.5672C111.126 12.425 109.709 11.8539 108.041 11.8539C106.372 11.8539 104.956 12.425 103.806 13.5672C102.656 14.7094 102.081 16.1162 102.081 17.7738V136.227C102.081 137.884 102.656 139.291 103.806 140.433C104.956 141.576 106.372 142.147 108.041 142.147C109.709 142.147 111.126 141.576 112.275 140.433C113.425 139.291 114 137.884 114 136.227V17.7738Z" fill="#FDFD00"/>
<path d="M147.149 118.453V153.986H135.23V59.2266H159.082C160.751 59.2266 162.307 59.5469 163.737 60.1737C165.168 60.8006 166.416 61.6502 167.495 62.7228C168.575 63.7953 169.416 65.035 170.061 66.4558C170.692 67.8765 171.015 69.4227 171.015 71.0802V106.613C171.015 108.271 170.692 109.817 170.061 111.238C169.43 112.659 168.575 113.898 167.495 114.971C166.416 116.043 165.168 116.893 163.737 117.52C162.307 118.147 160.751 118.467 159.082 118.467H147.163L147.149 118.453ZM159.082 77.0001C159.082 75.3425 158.507 73.9357 157.357 72.7935C156.208 71.6513 154.791 71.0802 153.123 71.0802H147.163V106.613H153.123C154.791 106.613 156.208 106.042 157.357 104.9C158.507 103.758 159.082 102.351 159.082 100.693V77.0001Z" fill="#FDFD00"/>
<path d="M19.275 27.7V24.7H30.915V27.7H26.715V39.5H23.475V27.7H19.275ZM36.0964 39.5H32.8564V24.7H36.0964V30.54H41.8164V24.7H45.0564V39.5H41.8164V33.54H36.0964V39.5ZM57.5298 39.5H48.1298V24.7H57.5298V27.7H51.3698V30.6H56.8298V33.44H51.3698V36.5H57.5298V39.5Z" fill="white"/>
</g>
<defs>
<clipPath id="clip0_3043_342">
<rect width="171" height="154" fill="white"/>
</clipPath>
</defs>
</svg>
