<svg width="267" height="86" viewBox="0 0 267 86" fill="none" xmlns="http://www.w3.org/2000/svg">
<path d="M11.2484 69.1167C11.2484 72.2153 13.774 74.7409 16.8726 74.7409H78.7739V85.9893H16.8843C7.57688 85.9893 0 78.4124 0 69.105C0 59.7976 7.57688 52.2207 16.8843 52.2207H78.7855V63.4691H16.8843C13.7857 63.4691 11.2601 65.9947 11.2601 69.0933L11.2484 69.1167Z" fill="#FDFD00"/>
<path d="M85.2051 85.9886V40.9717H96.4535V85.9886H85.2051Z" fill="#FDFD00"/>
<path d="M181.67 52.2314V69.1157C181.67 78.4231 174.093 86 164.786 86H119.769C110.462 86 102.885 78.4231 102.885 69.1157V52.2314H114.133V69.1157C114.133 72.2143 116.659 74.7399 119.757 74.7399H164.774C167.873 74.7399 170.399 72.2143 170.399 69.1157V52.2314H181.647H181.67Z" fill="#FDFD00"/>
<path d="M266.887 69.1161C266.887 78.4235 259.31 86.0004 250.003 86.0004H204.986C195.678 86.0004 188.102 78.4235 188.102 69.1161V40.9834H199.35V69.1161C199.35 72.2147 201.876 74.7403 204.974 74.7403H249.991C253.09 74.7403 255.615 72.2147 255.615 69.1161C255.615 66.0175 253.09 63.4919 249.991 63.4919H199.631C200.928 57.0843 206.599 52.2435 213.393 52.2435H249.991C259.299 52.2435 266.875 59.8204 266.875 69.1278L266.887 69.1161Z" fill="#FDFD00"/>
<path d="M118.479 0.599999H124.311V2.7H118.035V9H115.935V2.7H109.635V0.599999H118.011V0.648C118.167 0.624 118.323 0.599999 118.479 0.599999ZM138.126 0.599999H140.226V9H138.126V5.856H127.626V9H125.526V0.599999H127.626V3.756H138.126V0.599999ZM145.628 0.599999H156.128V2.7H145.628C144.464 2.7 143.528 3.648 143.528 4.8C143.528 5.964 144.464 6.9 145.628 6.9H156.128V9H145.628C143.312 9 141.428 7.116 141.428 4.8C141.428 2.496 143.312 0.599999 145.628 0.599999ZM144.104 5.856C144.344 4.656 145.412 3.756 146.672 3.756H156.128V5.856H144.104Z" fill="white"/>
</svg>
