<svg width="268" height="86" viewBox="0 0 268 86" fill="none" xmlns="http://www.w3.org/2000/svg">
<path d="M12.18 69.1158C12.18 72.2144 14.7057 74.74 17.8042 74.74H79.7055V85.9884H17.8159C8.50852 85.9884 0.931641 78.4115 0.931641 69.1041C0.931641 59.7967 8.50852 52.2198 17.8159 52.2198H79.7172V63.4682H17.8159C14.7174 63.4682 12.1917 65.9939 12.1917 69.0924L12.18 69.1158Z" fill="white"/>
<path d="M86.1362 85.9882V40.9713H97.3846V85.9882H86.1362Z" fill="white"/>
<path d="M182.602 52.2312V69.1155C182.602 78.4229 175.025 85.9998 165.718 85.9998H120.701C111.393 85.9998 103.816 78.4229 103.816 69.1155V52.2312H115.065V69.1155C115.065 72.214 117.591 74.7397 120.689 74.7397H165.706C168.805 74.7397 171.33 72.214 171.33 69.1155V52.2312H182.602Z" fill="white"/>
<path d="M267.818 69.1157C267.818 78.4231 260.241 86 250.934 86H205.917C196.61 86 189.033 78.4231 189.033 69.1157V40.9831H200.281V69.1157C200.281 72.2143 202.807 74.7399 205.905 74.7399H250.922C254.021 74.7399 256.546 72.2143 256.546 69.1157C256.546 66.0172 254.021 63.4915 250.922 63.4915H200.562C201.86 57.0839 207.531 52.2431 214.324 52.2431H250.922C260.23 52.2431 267.806 59.82 267.806 69.1274L267.818 69.1157Z" fill="white"/>
<path d="M119.411 0.599731H125.243V2.69973H118.967V8.99973H116.867V2.69973H110.567V0.599731H118.943V0.647732C119.099 0.623732 119.255 0.599731 119.411 0.599731Z" fill="white"/>
<path d="M139.057 0.599731H141.157V8.99973H139.057V5.85573H128.557V8.99973H126.457V0.599731H128.557V3.75573H139.057V0.599731Z" fill="white"/>
<path d="M146.56 0.599731H157.06V2.69973H146.56C145.396 2.69973 144.46 3.64773 144.46 4.79973C144.46 5.96373 145.396 6.89973 146.56 6.89973H157.06V8.99973H146.56C144.244 8.99973 142.36 7.11573 142.36 4.79973C142.36 2.49573 144.244 0.599731 146.56 0.599731ZM145.036 5.85573C145.276 4.65573 146.344 3.75573 147.604 3.75573H157.06V5.85573H145.036Z" fill="white"/>
</svg>
