<svg width="160" height="158" viewBox="0 0 160 158" fill="none" xmlns="http://www.w3.org/2000/svg">
<g clip-path="url(#clip0_3043_358)">
<path d="M55.9307 21.6585V31.361L53.7487 34.6718L55.9307 37.9827V47.6852L50.0475 53.6056H15.1367V15.7266H50.036L55.9192 21.647L55.9307 21.6585ZM46.5176 28.4755V25.5671L46.1292 25.1992H24.5498V29.9355H45.5694L46.5176 28.4755ZM46.5176 43.7306V40.8222L45.5694 39.3967H24.5498V44.133H46.1292L46.5176 43.7306Z" fill="#FDFD00"/>
<path d="M69.0108 42.5466V53.6056H59.5977V15.7266H100.38V53.5941H90.9671V42.5351H68.9993L69.0108 42.5466ZM90.9899 25.1992H69.0222V33.0854H90.9899V25.1992Z" fill="#FDFD00"/>
<path d="M104.07 25.1992V15.7266H144.853V25.1992H129.168V53.6056H119.755V25.1992H104.07Z" fill="#FDFD00"/>
<path d="M15.1367 69.5391V60.0664H55.9192V69.5391H40.2345V97.9455H30.8214V69.5391H15.1367Z" fill="#FDFD00"/>
<path d="M100.392 88.4731V97.9457H59.6094V60.0781H69.0225V88.4846H100.403L100.392 88.4731Z" fill="#FDFD00"/>
<path d="M144.865 88.4731V97.9457H104.082V60.0781H144.865V69.5508H113.484V74.2871H144.865V83.7597H113.484V88.4961H144.865V88.4731Z" fill="#FDFD00"/>
<path d="M55.9307 104.406V120.57L53.1661 123.352L55.9307 126.134V136.365L50.0475 142.285H15.1367V104.418H55.9192L55.9307 104.406ZM46.5176 116.649V113.867H24.5498V118.604H44.5755L46.5176 116.649ZM46.5176 132.41V130.031L44.5755 128.076H24.5498V132.813H46.1292L46.5176 132.41Z" fill="#FDFD00"/>
<path d="M100.392 104.406V142.274H59.6094V104.406H100.392ZM90.9902 132.813V113.879H69.0225V132.813H90.9902Z" fill="#FDFD00"/>
<path d="M144.864 104.406V118.983L140.523 123.352L144.864 127.685V142.285H135.451V131.629L131.933 128.088H117.002L113.483 131.629V142.285H104.07V127.685L108.411 123.352L104.07 118.983V104.406H113.483V115.063L117.002 118.604H131.933L135.451 115.063V104.406H144.864Z" fill="#FDFD00"/>
<path d="M150.667 9.38067V148.608H9.32172V9.38067H150.667ZM160 0H0V158H160V0Z" fill="white"/>
</g>
<defs>
<clipPath id="clip0_3043_358">
<rect width="160" height="158" fill="white"/>
</clipPath>
</defs>
</svg>
