<?xml version="1.0" encoding="UTF-8"?>
<svg id="Layer_1" data-name="Layer 1" xmlns="http://www.w3.org/2000/svg" viewBox="0 0 140.06 137.44">
  <defs>
    <style>
      .cls-1 {
        fill: #fff;
      }
    </style>
  </defs>
  <path class="cls-1" d="M48.96,18.84v8.44l-1.91,2.88,1.91,2.88v8.44l-5.15,5.15H13.25V13.68h30.55l5.15,5.15ZM40.72,24.77v-2.53l-.34-.32h-18.89v4.12h18.4l.83-1.27ZM40.72,38.04v-2.53l-.83-1.24h-18.4v4.12h18.89l.34-.35Z"/>
  <path class="cls-1" d="M60.41,37.01v9.62h-8.24V13.68h35.7v32.94h-8.24v-9.62h-19.23ZM79.65,21.92h-19.23v6.86h19.23v-6.86Z"/>
  <path class="cls-1" d="M91.1,21.92v-8.24h35.7v8.24h-13.73v24.71h-8.24v-24.71h-13.73Z"/>
  <path class="cls-1" d="M13.25,60.49v-8.24h35.7v8.24h-13.73v24.71h-8.24v-24.71h-13.73Z"/>
  <path class="cls-1" d="M87.88,76.96v8.24h-35.7v-32.94h8.24v24.71h27.47Z"/>
  <path class="cls-1" d="M126.81,76.96v8.24h-35.7v-32.94h35.7v8.24h-27.47v4.12h27.47v8.24h-27.47v4.12h27.47Z"/>
  <path class="cls-1" d="M48.96,90.82v14.06l-2.42,2.42,2.42,2.42v8.9l-5.15,5.15H13.25v-32.94h35.7ZM40.72,101.47v-2.42h-19.23v4.12h17.53l1.7-1.7ZM40.72,115.18v-2.07l-1.7-1.7h-17.53v4.12h18.89l.34-.35Z"/>
  <path class="cls-1" d="M87.88,90.82v32.94h-35.7v-32.94h35.7ZM79.65,115.53v-16.47h-19.23v16.47h19.23Z"/>
  <path class="cls-1" d="M126.81,90.82v12.68l-3.8,3.8,3.8,3.77v12.7h-8.24v-9.27l-3.08-3.08h-13.07l-3.08,3.08v9.27h-8.24v-12.7l3.8-3.77-3.8-3.8v-12.68h8.24v9.27l3.08,3.08h13.07l3.08-3.08v-9.27h8.24Z"/>
  <path class="cls-1" d="M131.89,8.16v121.11H8.16V8.16h123.73M140.06,0H0v137.44h140.06V0h0Z"/>
</svg>