<?xml version="1.0" encoding="UTF-8"?>
<svg id="Layer_1" data-name="Layer 1" xmlns="http://www.w3.org/2000/svg" viewBox="0 0 121.95 110.56">
  <defs>
    <style>
      .cls-1 {
        font-family: Satoshi-Black, Satoshi;
        font-size: 17.44px;
        font-weight: 800;
        letter-spacing: -.05em;
      }

      .cls-1, .cls-2 {
        fill: #fff;
      }
    </style>
  </defs>
  <g>
    <path class="cls-2" d="M0,110.56V42.52h17.01c1.19,0,2.3.23,3.32.68,1.02.45,1.91,1.06,2.68,1.83.77.77,1.37,1.66,1.83,2.68.45,1.02.68,2.13.68,3.32v51.03c0,1.19-.23,2.3-.68,3.32-.45,1.02-1.06,1.91-1.83,2.68s-1.66,1.38-2.68,1.83c-1.02.45-2.13.68-3.32.68H0ZM8.5,102.05h4.25c1.19,0,2.2-.41,3.02-1.23.82-.82,1.23-1.83,1.23-3.02v-42.52c0-1.19-.41-2.2-1.23-3.02-.82-.82-1.83-1.23-3.02-1.23h-4.25v51.03Z"/>
    <path class="cls-2" d="M49.15,42.52c1.19,0,2.3.23,3.32.68,1.02.45,1.91,1.06,2.68,1.83.77.77,1.37,1.66,1.83,2.68.45,1.02.68,2.13.68,3.32v25.51c0,1.19-.41,2.2-1.23,3.02-.82.82-1.83,1.23-3.02,1.23,1.19,0,2.2.41,3.02,1.23.82.82,1.23,1.83,1.23,3.02v25.51h-8.5v-21.26c0-1.19-.41-2.2-1.23-3.02-.82-.82-1.83-1.23-3.02-1.23h-4.25v25.51h-8.5V42.52h17.01ZM49.15,55.28c0-1.19-.41-2.2-1.23-3.02-.82-.82-1.83-1.23-3.02-1.23h-4.25v25.51h4.25c1.19,0,2.2-.41,3.02-1.23.82-.82,1.23-1.83,1.23-3.02v-17.01Z"/>
    <path class="cls-2" d="M81.3,0c1.19,0,2.3.23,3.32.68,1.02.45,1.91,1.06,2.68,1.83.77.77,1.37,1.66,1.83,2.68.45,1.02.68,2.13.68,3.32v93.55c0,1.19-.23,2.3-.68,3.32-.45,1.02-1.06,1.91-1.83,2.68s-1.66,1.38-2.68,1.83c-1.02.45-2.13.68-3.32.68h-8.5c-1.19,0-2.3-.23-3.32-.68-1.02-.45-1.91-1.06-2.68-1.83-.77-.77-1.38-1.66-1.83-2.68-.45-1.02-.68-2.13-.68-3.32V8.5c0-1.19.23-2.3.68-3.32.45-1.02,1.06-1.91,1.83-2.68.77-.77,1.66-1.37,2.68-1.83,1.02-.45,2.13-.68,3.32-.68h8.5ZM81.3,12.76c0-1.19-.41-2.2-1.23-3.02-.82-.82-1.83-1.23-3.02-1.23s-2.2.41-3.02,1.23c-.82.82-1.23,1.83-1.23,3.02v85.04c0,1.19.41,2.2,1.23,3.02.82.82,1.83,1.23,3.02,1.23s2.2-.41,3.02-1.23c.82-.82,1.23-1.83,1.23-3.02V12.76Z"/>
    <path class="cls-2" d="M104.94,85.04v25.51h-8.5V42.52h17.01c1.19,0,2.3.23,3.32.68,1.02.45,1.91,1.06,2.68,1.83.77.77,1.37,1.66,1.83,2.68.45,1.02.68,2.13.68,3.32v25.51c0,1.19-.23,2.3-.68,3.32-.45,1.02-1.06,1.91-1.83,2.68-.77.77-1.66,1.38-2.68,1.83-1.02.45-2.13.68-3.32.68h-8.5ZM113.45,55.28c0-1.19-.41-2.2-1.23-3.02-.82-.82-1.83-1.23-3.02-1.23h-4.25v25.51h4.25c1.19,0,2.2-.41,3.02-1.23s1.23-1.83,1.23-3.02v-17.01Z"/>
  </g>
  <text class="cls-1" transform="translate(9.03 29.5)"><tspan x="0" y="0">THE</tspan></text>
</svg>