<svg width="449" height="208" viewBox="0 0 449 208" fill="none" xmlns="http://www.w3.org/2000/svg">
<path d="M83.7708 1.97461L54.2318 50.4799L24.8901 1.97461H5.05664L44.3433 66.6577V101.464H62.909V66.3636L102.083 1.97461H83.7708Z" fill="white"/>
<path d="M206.267 19.1189V1.97461H125.496V112.012H182.024C181.968 111.801 181.926 111.605 181.926 111.409C181.461 109.028 181.264 106.535 181.264 104C181.264 100.848 181.616 97.8087 182.236 94.8673H146.006V64.5287H199.421V47.7346H146.006V19.1189H206.253H206.267Z" fill="white"/>
<path d="M90.2508 177.857C81.6863 186.429 71.8259 190.281 60.0921 190.281C36.8215 190.281 20.4533 174.608 20.4533 152.085C20.4533 129.562 36.8356 113.888 59.9371 113.888C67.7409 113.888 75.3898 115.457 82.4329 119.463V134.226H65.1913L80.5031 153.345H101.618V109.967C91.2086 101.647 77.0238 97.0243 62.8952 96.268C61.5148 96.2119 60.1907 96.1699 58.8666 96.1699C53.8096 96.1699 48.9216 96.6742 44.3295 97.6967C18.0586 103.383 0 124.45 0 152.099C0 184.566 24.9468 208 59.1764 208C77.4464 208 92.7441 201.963 103.055 190.295L90.2508 177.871V177.857Z" fill="white"/>
<path d="M146.019 187.144V158.528H199.434V141.734H146.019V111.395H181.939C181.474 109.014 181.277 106.521 181.277 103.986C181.277 100.834 181.629 97.7947 182.249 94.8533C182.305 94.6432 182.347 94.4471 182.404 94.251H125.523V204.232H206.294V187.13H146.047L146.019 187.144Z" fill="white"/>
<path d="M336.521 98.6774L291.727 0H272.386L242.594 65.8036C249.581 69.1512 255.553 74.3758 259.737 80.7628H308.363L317.293 101.409L318.927 105.107H332.394C334.943 105.107 336.789 103.132 336.887 100.848C336.986 100.134 336.831 99.3778 336.535 98.6634L336.521 98.6774ZM262.131 65.4395L281.923 19.5254L301.827 65.4395H262.131Z" fill="white"/>
<path d="M336.888 100.848C336.479 99.1672 334.944 97.8086 332.958 97.8086H318.871L317.294 101.408L308.264 122.152H262.597C258.765 130.262 252.398 136.971 244.439 141.271L272.344 202.915H291.685L336.733 103.691C337.141 102.725 337.198 101.758 336.888 100.848ZM281.881 183.39L262.09 137.476H301.785L281.881 183.39Z" fill="white"/>
<path d="M425.504 70.5659C439.886 65.0333 447.999 53.3236 447.999 37.384C447.999 14.1048 430.8 0 403.05 0H359.523V105.121H379.16V74.4738H403.036C404.36 74.4738 405.741 74.4738 407.065 74.3197L426.152 101.465L428.701 105.121H442.125C445.337 105.121 447.281 101.465 445.393 98.8315L425.489 70.5799L425.504 70.5659ZM402.134 58.3941H379.174V16.542H402.134C419.334 16.542 428.25 24.2036 428.25 37.398C428.25 50.5923 419.32 58.3941 402.134 58.3941Z" fill="white"/>
<path d="M425.503 132.364L445.858 103.496C446.985 101.927 446.618 99.9943 445.393 98.8317C444.787 98.2294 443.914 97.8232 442.9 97.8232H428.715L426.165 101.479L407.078 128.624C405.754 128.47 404.374 128.47 403.05 128.47H379.173V97.8232H359.537V202.944H403.064C430.814 202.944 448.013 188.839 448.013 165.56C448.013 149.676 439.899 137.967 425.517 132.378L425.503 132.364ZM402.134 186.444H379.173V144.536H402.134C419.333 144.536 428.25 152.351 428.25 165.532C428.25 178.712 419.319 186.43 402.134 186.43V186.444Z" fill="white"/>
<path d="M224.007 68.6191C204.356 68.6191 188.424 84.4608 188.424 104C188.424 123.54 204.356 139.381 224.007 139.381C243.658 139.381 259.59 123.54 259.59 104C259.59 84.4608 243.658 68.6191 224.007 68.6191ZM216.33 112.796C210.991 112.796 207.061 109.057 207.061 104C207.061 98.9437 210.991 95.2039 216.33 95.2039C221.669 95.2039 225.599 98.9157 225.599 104C225.599 109.085 221.669 112.796 216.33 112.796ZM240.967 98.1033H231.6V103.314H239.911V106.003H231.6V112.558H228.402V95.442H240.967V98.1033Z" fill="#FDFD00"/>
<path d="M216.33 97.9775C212.865 97.9775 210.287 100.499 210.287 103.986C210.287 107.488 212.865 109.995 216.33 109.995C219.795 109.995 222.373 107.474 222.373 103.986C222.373 100.485 219.795 97.9775 216.33 97.9775Z" fill="#FDFD00"/>
</svg>
